<svg xmlns="http://www.w3.org/2000/svg">
<defs>
<font id="VictoriaTypewriter" horiz-adv-x="1440" >
  <font-face 
    font-family="Victoria Typewriter"
    font-weight="400"
    font-stretch="normal"
    units-per-em="2048"
    panose-1="2 0 8 0 0 0 0 0 0 0"
    ascent="1638"
    descent="-410"
    x-height="1021"
    cap-height="1352"
    bbox="17 -425 2894 1837"
    underline-thickness="150"
    underline-position="-442"
    unicode-range="U+001D-263A"
  />
<missing-glyph horiz-adv-x="2181" 
d="M1283 35v-10h4q0 2 11 19h-6q-4 0 -9 -9zM988 63v-4h9v4h-9zM1321 72v-7h4q5 0 5 7h-9zM542 65h-8q-5 -1 -5 -6h50q5 0 5 6l-3 7q-21 -7 -39 -7zM1235 96v-4h9q6 6 10 6v3h-5q-10 -5 -14 -5zM627 129h-3v-11q3 0 9 -2q15 10 24 10q0 5 -6 5q-14 -2 -24 -2zM1455 139v-8
h10v5q-5 0 -10 3zM1418 153q0 -12 -5 -17l-5 3q-6 0 -10 -10v-6h2v8h3q8 0 8 -13h2q14 23 22 23v12h-17zM1505 160v-7h5v7h-5zM1354 160v-5h5q5 0 5 5h-10zM679 129v-3q41 5 46 10h8q0 -13 5 -13h8v6q-8 17 -8 21v10h-5q-49 -31 -54 -31zM1393 165v-2h5v2h-5zM1388 188
q94 -42 105 -52h5v10q-19 24 -19 29l-10 -7q-12 17 -27 25q-2 0 -2 -3q-10 3 -12 3l-12 -3q-12 3 -23 3q-5 -1 -5 -5zM1330 193v-3q4 -11 13 -17q6 0 13 2q5 -2 8 -2v2q0 4 -29 18h-5zM1332 212l3 -5q3 0 3 2l16 -2h67v5q-9 16 -45 24h-5zM1215 414v-2h8v2h-8zM1229 417h6
q4 0 9 10v3h-4q-4 0 -11 -13zM1251 450v-3h8q4 0 14 17v2h-3q-19 -11 -19 -16zM594 481q0 -15 -2 -15q2 -4 2 -10h5v25h-5zM1295 489q0 -5 -6 -13v-17h3q0 6 9 17v13h-6zM633 494v-8q4 0 10 11v2h-5q-5 -1 -5 -5zM575 511v-22h4q0 3 10 34h-3q-3 0 -11 -12zM898 523
q0 -6 36 -15q0 -5 8 -9h48q6 0 28 14v10q-14 0 -24 -2q-31 2 -31 5l-13 -3h-24q-4 0 -4 3q-1 -3 -24 -3zM517 535v-7h6v7h-6zM537 556v-5h5v5h-5zM570 559v-33q14 9 14 22q-1 7 -14 11zM507 562v-14h3q0 7 5 14v3q-5 -3 -8 -3zM517 583v-8q5 0 14 -13v-3h6q-14 20 -14 24h-6
zM1264 594v-11h3v11h-3zM512 605v-8h3v8h-3zM448 629h5v5q-5 -2 -5 -5zM638 651v-6q25 -23 33 -62h2l3 27q-11 21 -16 35l-19 6h-3zM1259 655q0 -3 8 -8v8h-8zM512 659v-7h3v7h-3zM629 685l7 -2l2 5v2h-2q-7 -1 -7 -5zM441 707v-12h7q0 13 17 17v13h-2q-14 0 -22 -18z

<glyph glyph-name=".notdef" horiz-adv-x="2181" 
d="M1283 35v-10h4q0 2 11 19h-6q-4 0 -9 -9zM988 63v-4h9v4h-9zM1321 72v-7h4q5 0 5 7h-9zM542 65h-8q-5 -1 -5 -6h50q5 0 5 6l-3 7q-21 -7 -39 -7zM1235 96v-4h9q6 6 10 6v3h-5q-10 -5 -14 -5zM627 129h-3v-11q3 0 9 -2q15 10 24 10q0 5 -6 5q-14 -2 -24 -2zM1455 139v-8
h10v5q-5 0 -10 3zM1418 153q0 -12 -5 -17l-5 3q-6 0 -10 -10v-6h2v8h3q8 0 8 -13h2q14 23 22 23v12h-17zM1505 160v-7h5v7h-5zM1354 160v-5h5q5 0 5 5h-10zM679 129v-3q41 5 46 10h8q0 -13 5 -13h8v6q-8 17 -8 21v10h-5q-49 -31 -54 -31zM1393 165v-2h5v2h-5zM1388 188
q94 -42 105 -52h5v10q-19 24 -19 29l-10 -7q-12 17 -27 25q-2 0 -2 -3q-10 3 -12 3l-12 -3q-12 3 -23 3q-5 -1 -5 -5zM1330 193v-3q4 -11 13 -17q6 0 13 2q5 -2 8 -2v2q0 4 -29 18h-5zM1332 212l3 -5q3 0 3 2l16 -2h67v5q-9 16 -45 24h-5zM1215 414v-2h8v2h-8zM1229 417h6
q4 0 9 10v3h-4q-4 0 -11 -13zM1251 450v-3h8q4 0 14 17v2h-3q-19 -11 -19 -16zM594 481q0 -15 -2 -15q2 -4 2 -10h5v25h-5zM1295 489q0 -5 -6 -13v-17h3q0 6 9 17v13h-6zM633 494v-8q4 0 10 11v2h-5q-5 -1 -5 -5zM575 511v-22h4q0 3 10 34h-3q-3 0 -11 -12zM898 523
q0 -6 36 -15q0 -5 8 -9h48q6 0 28 14v10q-14 0 -24 -2q-31 2 -31 5l-13 -3h-24q-4 0 -4 3q-1 -3 -24 -3zM517 535v-7h6v7h-6zM537 556v-5h5v5h-5zM570 559v-33q14 9 14 22q-1 7 -14 11zM507 562v-14h3q0 7 5 14v3q-5 -3 -8 -3zM517 583v-8q5 0 14 -13v-3h6q-14 20 -14 24h-6
zM1264 594v-11h3v11h-3zM512 605v-8h3v8h-3zM448 629h5v5q-5 -2 -5 -5zM638 651v-6q25 -23 33 -62h2l3 27q-11 21 -16 35l-19 6h-3zM1259 655q0 -3 8 -8v8h-8zM512 659v-7h3v7h-3zM629 685l7 -2l2 5v2h-2q-7 -1 -7 -5zM441 707v-12h7q0 13 17 17v13h-2q-14 0 -22 -18z
M526 735q5 -7 5 -10h9q-4 10 -9 10h-5zM638 740q0 -15 -14 -26q-12 0 -30 -12h-2q-6 0 -6 10l-13 -8q-13 0 -28 17h-3q0 -10 -5 -17v-9q0 -3 17 -10q1 5 5 5h6l8 -5h8q13 10 48 19l14 23v13h-5zM505 754v-7q2 0 15 -12h3v7q-12 0 -13 12h-5zM666 761v-7h2v7h-2zM666 811v-14
q15 -16 15 -50q-14 -36 -38 -52v-5h5q17 19 23 19q18 28 23 60q-14 42 -23 42h-5zM646 818v-10h2v10h-2zM821 862v-3h7v3h-7zM579 862q4 -11 7 -11v11h-7zM1137 867v-8q5 -13 17 -13h7v3q-14 0 -19 18h-5zM599 867q0 -3 9 -8h3v3q0 5 -6 5h-6zM554 867q2 -5 2 -11h5l-2 14z
M1081 859h8q0 5 20 14l3 5h-5q-11 -3 -26 -19zM573 880q0 -5 6 -5h2v5h-8zM1175 885v-2h5v2h-5zM1123 885q0 -5 -9 -5v-2h9q5 5 29 5v2h-29zM599 885v-2h6v2h-6zM551 889v-9h3v9h-3zM523 903v-23q8 -7 8 -13l6 3q-8 19 -8 24v9h-6zM492 894v-9q0 -4 13 -10h5v28h-3
q-9 -9 -15 -9zM663 917v-9h8v2q0 7 -5 7h-3zM728 937v-5h5v5h-5zM512 940v-8h3v8h-3zM512 951v-5h3v5h-3zM586 971q2 -6 6 -6v6h-6zM816 984v-5h14q0 5 -6 5h-8zM862 986l-5 -7h11q5 0 5 5q-6 0 -11 2zM492 986q0 -10 -10 -10v-2h14v12h-4zM589 989v-5h3v5h-3zM460 989v-5h5
v5h-5zM773 997v-6h8q0 6 -5 6h-3zM484 1003q2 -6 5 -6v6h-5zM906 1010v-5h2v5h-2zM416 1033v-33l4 -26h7v17l-5 9v8q0 2 3 2q-5 14 -5 23h-4zM945 1036v-5h5v5h-5zM594 1036v-5h3v5h-3zM1366 1041v-5h3v5h-3zM830 1041v-8l5 -2v2q-2 5 -2 8h-3zM573 1043h6v5q-6 -1 -6 -5z
M824 1057v-14h6l-2 14h-4zM753 1057v-2q4 -33 25 -33q9 -5 15 -5v2q-30 38 -40 38zM958 1060v-12h2q0 9 14 22l-5 2q-8 -12 -11 -12zM920 1088q0 -14 -24 -26v-7h10q10 9 20 30zM1060 1098v-3h5v3h-5zM1067 1100h9v5h-4q-5 -1 -5 -5zM643 1105v-7q3 -8 53 -36q0 -7 5 -7h5
q0 11 -25 45l-15 -2q-15 7 -23 7zM1308 1112v-7h8v7h-8zM627 1112v-9h2v9h-2zM435 1119v-19q0 -9 -3 -24l9 -14v-19h7q-7 34 -7 42l7 10q-7 24 -13 24zM608 1129l-3 -5v-12h3q5 0 5 5v7q0 5 -5 5zM766 1169v-14l7 -3l-4 17h-3zM581 1169q0 -4 -6 -12v-5q11 -23 17 -23v26
l-6 8q6 0 6 6h-11zM671 1174v-3h8v3h-8zM761 1181v-12h2v12h-2zM990 1184v-3q14 5 15 12h-6q-2 0 -9 -9zM761 1196v-10q5 3 8 3q0 7 -6 7h-2zM1034 1127q-5 2 -7 2l-17 -2v-13l3 -14h9q12 7 12 12v5l-2 5h5q0 -8 5 -8h8q46 24 46 52l24 33v2h-2q-24 -7 -24 -27
q0 -33 -60 -47zM1172 1199l5 -3v8q-5 -1 -5 -5zM689 1206q0 -2 -4 -7h9v7h-5zM512 1214v-5h11v5h-11zM969 1220v-6h5v6h-5zM751 1223l2 -14q5 0 5 5v9h-7zM990 1209h4q28 13 28 16h-9q-23 -10 -23 -16zM728 1228v-5h5q0 5 -5 5zM537 1228v-5h3v5h-3zM646 1231v-6h2v6h-2z
M1238 1233v-10q19 0 19 -14h7q0 6 17 16l-11 8h-32zM568 1233v-5h5v5h-5zM545 1243v-5h2v5h-2zM1062 1252v-5h5v5h-5zM441 1179v-8h4q6 6 32 8q2 -4 2 -10h10q8 0 12 -3q17 15 22 15v12h-3q-9 -7 -13 -7q-1 5 -15 13q13 13 15 34q8 0 8 5v14q-35 -42 -74 -73zM811 1263
q-7 -11 -20 -49v-43q0 -2 -3 -2q4 -19 18 -55v-14h15v5q-6 8 -12 45v5q0 5 2 11q0 3 -2 3q0 8 19 87h-4q-5 0 -13 7zM551 1263v-11h3v11h-3zM517 1263q0 -3 -2 -7h8v7h-6zM1175 1271v-8q5 0 5 5zM1055 1271v-5h2v5h-2zM1238 1301v-3h6v3h-6zM627 1301v-9h2v9h-2zM1229 1309
q0 -5 6 -5v5h-6zM963 1231v-6h3q19 11 63 24q0 19 36 62v4l-5 8l-20 -3q-9 3 -11 3q-33 -25 -66 -92zM833 1325l-3 -5v-9h15v4q-5 0 -12 10zM1079 1329v-11q5 0 5 5v6h-5zM1175 1332v-9h19q7 -5 29 -12h6v4q-11 0 -11 8h-17q-6 6 -26 9zM1034 1343v-6h16q0 4 -10 6h-6z
M1091 1349v-6h3v6h-3zM766 1352v-5h3v5h-3zM1067 1360v-5h9v5h-9zM730 1367q-10 -39 -10 -63v-48q8 -9 8 -18h5q5 0 5 5q-5 0 -5 6q0 17 -3 49q3 26 3 49q5 0 5 5v10q0 5 -5 5h-3zM1189 1376l-7 3q-33 -8 -33 -12q12 0 12 -5v-2q0 -3 -9 -8h-15q-9 0 -34 13h-12v-3
q28 -14 46 -15q1 -10 7 -10h8q0 11 18 12h16q49 -14 71 -40q12 -11 35 -57q3 0 3 -3l-6 -8q4 0 12 -23h5v15l-14 42l-63 87v3q4 10 4 11q-4 7 -4 9h-28q-9 -9 -12 -9zM766 1390v-5h3v5h-3zM850 1398v-5h4v5h-4zM685 1398v-5h6q0 5 -6 5zM570 1357v-5q11 -11 11 -18h5v5l-5 8
v8q0 4 8 7q13 -11 13 -28h3q2 14 55 49h11v-9h8v5q-8 0 -11 16l-32 3h-9q-29 -10 -57 -41zM1175 1400l-3 -5v-2h19v5q-2 0 -16 2zM903 1403q3 -5 3 -10h6v2q-4 5 -4 8h-5zM838 1417v-12h2v12h-2zM1103 1419v-2q15 -7 15 -12h19l10 -12v16h-10q-10 0 -34 10zM668 1422
q0 -4 11 -8q0 5 22 5v3h-33zM643 1417v-5q7 0 20 7v3h-3q-11 -5 -17 -5zM876 1424v-5h6v5h-6zM706 1419h8q8 5 14 5v3h-14q-4 0 -8 -8zM876 1437v-10q6 0 6 6zM738 1442q0 -5 13 -13q0 4 7 10q3 0 3 -2q22 2 22 8q-9 0 -14 2q-6 -5 -31 -5zM788 1445h8v5h-3q-5 -2 -5 -5z
M1034 1455v-16l6 -10v-24q1 0 12 -2v2l-6 19v9q0 5 11 12h3q5 -2 5 -6v-2l-5 -10v-5q9 -19 21 -24l3 5l-3 6q3 5 3 8q-15 34 -27 38h-23zM901 1452q0 -6 25 -19l2 -6l-11 -13v-2h3q7 9 70 27h7q16 -7 16 -20h11q0 8 8 18q-10 0 -14 13h-13q-31 8 -42 19h-3zM848 1455v-5h9
l36 21q3 0 8 -2l16 2q0 5 -5 5q-25 0 -62 -21h-2zM926 1481v-5h5q6 0 6 5v3h-3q-6 -3 -8 -3zM1672 1375q91 -38 91 -135v-6q-23 -102 -99 -228q-16 -35 -16 -55q0 -8 3 -13q7 -13 25 -13q7 0 15 2q27 20 56 57h11q17 -1 31 -39l-1 -21q0 -17 -37 -49q-29 -25 -85 -25
q-16 0 -34 2q-64 36 -64 94v31q107 174 109 270q0 41 -23 41q-12 0 -32 -13l-36 -59l-23 -9q-41 10 -41 41v2q2 105 150 125zM758 46l3 -5l5 3h40q5 0 27 -7q8 0 133 17v2q-24 0 -24 3l-27 -3h-61q-11 0 -30 3q-5 -3 -8 -3q-10 3 -20 3q-3 0 -8 -3q-80 9 -109 28l6 3l78 -10
l6 2q7 -2 9 -2q3 0 8 2l16 -2l7 2q11 -5 34 -5h16q6 0 12 3l5 -3q25 3 30 5q11 -2 57 -5q21 5 40 5h39q98 0 204 34q27 18 60 28h19q0 4 13 17l-30 21q-25 0 -97 82q-1 10 -12 21q-42 73 -42 96q0 7 -5 26v31h-5l-10 -18q0 -13 -53 -65q-10 -26 -34 -40q-29 -24 -62 -24h-30
q-56 7 -120 28q-70 33 -118 72v11q2 5 5 5q29 -29 89 -52q2 -3 48 -19q10 -7 69 -21q4 4 11 4q9 -7 16 -7h8q51 8 76 27q97 96 152 199l35 73q25 75 33 146v33q0 5 2 10q-2 3 -2 11q19 44 39 109v57l2 15q-2 5 -2 8q0 6 2 6l-2 28v20q-20 87 -44 130q-42 8 -42 12l-54 -14
q-13 -12 -38 -57q-8 0 -32 -29q-34 -26 -54 -28h-38l-9 5q-37 -73 -56 -81q-35 -24 -77 -29q-3 -3 -19 -3q-46 9 -69 22q-35 -18 -36 -26v-7q1 -6 5 -6h3q11 11 42 11q3 0 3 -3l23 5q109 -17 144 -50v-3q0 -6 -8 -6q-11 0 -86 33q-5 -3 -9 -3q-17 4 -17 8l-5 -3l-28 3
l-27 -5q-7 2 -10 2l-25 -5q0 3 -3 3q0 -8 -26 -22q0 -13 -20 -13q0 -6 -29 -12l-33 9l-9 -11v-3q37 -18 37 -34q16 0 49 -44l5 -26q0 -29 -18 -57q0 -8 -25 -26q0 -10 -48 -18v-6q4 0 9 -3q20 3 28 5q54 -10 54 -58v-14q0 -48 -52 -76q-11 -1 -11 -19q4 0 9 -7l-12 -16
q2 -14 28 -34q0 -6 5 -12v-21l33 -93q9 -42 24 -66q0 -18 15 -49q13 -43 15 -83q-2 -34 -10 -34q-12 12 -18 12q-7 -7 -12 -7q-112 13 -112 19q-6 0 -6 5l3 5q-14 5 -14 11q9 6 61 17l78 29v4q-11 44 -44 116q-13 45 -26 83v24q0 5 -36 15l-30 18h-8l1 -3l-48 18l-2 9
q-17 26 -17 40q-3 0 -53 42q-10 39 -26 56l-19 71v5q-5 16 -5 22q7 52 45 52v3q0 43 -40 69q-9 40 -23 51q-12 10 -12 35v5l20 47q-8 9 -13 43q9 124 30 174q0 2 -2 15l35 34q38 37 38 57q40 66 88 110q54 52 120 52q7 5 52 22h11q10 0 27 7q13 -7 18 -7h7q15 13 36 15
q19 17 71 25q30 -4 32 -8l48 -5q125 -31 231 -103l10 -21q71 -85 78 -126q0 -3 -2 -3l2 -13v-16q0 -11 -2 -30q0 -9 39 -32q24 -30 29 -64q0 -43 -22 -73v-13q4 -7 12 -49q-3 -38 -7 -38l4 -5v-2q0 -24 -40 -44q-21 -41 -53 -41l-6 -37l2 -20q-5 -26 -5 -31t5 -21
q-13 -22 -13 -29v-2q14 0 22 -54q3 0 3 -2v-12q-7 -29 -12 -35v-5q32 -33 36 -71q0 -56 -55 -90q-13 0 -35 -19q-10 -2 -11 -2q-14 2 -27 2q0 -7 -11 -7v-22l43 -79q70 -75 75 -75h5q45 37 63 38q0 4 8 7q26 -5 29 -5h8q0 -14 10 -14v6q-3 2 -4 5l-1 1l26 16q18 -12 18 -14
q10 3 19 3t17 -3q17 -6 17 -12l-1 -5q0 -4 -33 -5q0 -3 -3 -3q-5 3 -11 3l-10 -10q24 -4 24 -22q7 0 21 -30h5v7q0 8 -12 32l-7 10q7 3 9 3q5 -2 13 -12q10 -13 23 -43q2 -15 29 -21q5 2 7 2q0 18 -52 76v3l8 2q24 -7 53 -57l6 -19l-6 -7q0 -8 34 -10q37 -14 57 -26
q35 -19 50 -34q28 -15 55 -54q35 -32 76 -65q12 -14 12 -21q0 -9 -15 -9l-47 16q-11 5 -19 27q-10 0 -83 81q-92 74 -136 74l-22 13q0 -8 -14 -8v-20q0 -4 -9 -7q26 -54 26 -150q2 0 2 -10q-7 -19 -12 -19h-16q-2 0 -5 51v95q-6 36 -21 55h-3l-5 -17v-19q-11 -19 -31 -83
q-5 -1 -15 -39v-4l-32 -29q-8 -4 -14 -4q-7 0 -13 6v7q74 119 76 156v37l-44 -66l-13 6q-52 -122 -63 -131h-7q-5 0 -9 16q18 25 67 120q0 6 15 42h-5q-10 -4 -58 -65q-29 -31 -46 -57h-8q-5 0 -8 14q-45 -27 -58 -54q-11 0 -33 -18h-10q-4 0 -11 13v5q21 39 77 68
q46 37 61 45q14 7 17 7l60 49q0 8 9 8v5h-5q-12 -10 -21 -10q0 3 -3 3q0 -9 -78 -42q-34 -19 -77 -31q-57 -30 -107 -48q0 -9 -34 -11q-47 -15 -140 -34q-56 -14 -58 -14q-3 0 -3 2q-45 -10 -66 -11h-30q-87 0 -87 14v2q0 8 30 12q3 0 8 -3q105 5 131 13l5 -3l135 24
q52 9 96 33l5 -2q28 5 96 35h7v7h-9q-7 -7 -10 -7q-45 0 -180 -24l-5 3l-70 -19q-74 -5 -87 -5q-8 -5 -45 -12q-97 -5 -104 -5q-16 5 -16 12q9 5 16 5q67 2 74 2v3q-4 0 -18 7q-13 -2 -21 -2q-5 0 -5 2l-68 -7h-8q-52 0 -52 7l-20 -2h-2q-41 1 -41 14q0 2 2 5q3 5 3 7h-31
v-5l-116 -44l122 1q3 0 3 -2l6 2l74 5q22 -5 22 -11q0 -4 -6 -9l-13 3q0 -4 -86 -15q0 6 -6 6q-205 -6 -205 -20q0 -3 3 -4q14 -9 14 -15q0 -7 -13 -10q-41 3 -57 3h-7q-4 0 -23 12l27 25l222 76l10 2h-1l50 18q6 5 58 13q5 -3 9 -3q0 3 2 3l-13 21v3q0 5 5 5h6
q23 -23 23 -53q-3 -5 -3 -12q3 0 3 -2l6 2h3q6 0 10 -2l6 2q10 -5 21 -5h37q11 0 21 -2q12 2 22 2h18l5 -2zM835 554q12 -11 27 -11q16 0 75 8h18l39 -8q14 8 21 8h19l21 -10h2q5 0 10 2q12 -3 12 -8v-7q-37 -26 -37 -36q0 -28 -71 -31l-24 -2q-10 7 -35 10q-23 25 -72 49
l-10 13q0 4 5 23zM969 647q25 0 39 -18v-10q0 -6 -5 -6h-6q-7 0 -31 9l-6 -3q-20 3 -20 8v2q7 13 29 18zM816 917l14 -4l15 4q4 -12 9 -12q23 3 37 3v-8h-9v-6l14 4q5 -1 5 -6q-3 -7 -3 -9q0 -4 19 -21v-6q0 -4 -16 -13h-25q-4 0 -8 8l8 11v5h-14q0 -18 -34 -24h-9
q-14 0 -17 8v5l7 9v13h-7q-6 0 -6 -5q4 -6 4 -8l-9 -6q-13 5 -13 19q-24 0 -32 -11l2 -5v-3q0 -5 -10 -5q-22 10 -27 13v3q0 4 17 10q-3 5 -3 9q0 14 84 24q5 4 7 4zM1209 940h26q34 0 54 -23q0 -5 -11 -12q-15 14 -32 14h-2l-18 -2q-3 0 -3 2q-50 -6 -74 -14v-2h37
q3 0 25 -9l9 6q0 -1 6 -8l-3 -14q3 0 3 -3q14 5 23 5l2 -5v-5q0 -8 -13 -8l13 -19q0 -6 -42 -15q-2 0 -8 10l3 13v5h-5q0 -25 -42 -30q0 -3 -3 -3h-2q-23 13 -34 36q-15 0 -15 -5l4 -13l-8 -3h-18l-14 -3q0 -13 -5 -43q8 -81 19 -126q-2 -5 -2 -7l2 -14q0 -23 -49 -42
q-5 0 -5 5v9q24 14 38 34q-13 34 -25 130q0 84 85 132q39 27 84 27zM1663 802h14q46 -6 58 -62l-2 -26q-16 -53 -71 -54q-59 15 -60 74q11 60 61 68z" />
    <glyph glyph-name="uni0000" horiz-adv-x="848" 
 />
    <glyph glyph-name="uni0000" horiz-adv-x="848" 
 />
    <glyph glyph-name="nonmarkingreturn" horiz-adv-x="682" 
 />
    <glyph glyph-name="space" unicode=" " horiz-adv-x="848" 
 />
    <glyph glyph-name="space" unicode="&#xa0;" horiz-adv-x="848" 
 />
    <glyph glyph-name="exclam" unicode="!" horiz-adv-x="710" 
d="M525 61q-12 -29 -30 -60q-42 -37 -141 -56h-10q-34 2 -115 64l-11 16q-14 24 -26 72v8q0 14 16 80q21 58 67 83q31 23 63 23h3q72 0 143 -45q24 -25 34 -56q13 -36 20 -56q-9 -65 -13 -73zM369 377q-19 0 -41 23q-19 16 -39 61v12l-13 52v4l-21 60v7l1 64v17l-15 36l2 58
q-9 32 -16 63q2 16 2 33q0 65 -20 105l10 96l-22 67l6 37l4 20l-12 40v6q15 70 74 106l23 8l41 8q38 5 61 5q66 -26 97 -96q0 -16 20 -78v-11l-18 -44l11 -65q0 -20 -32 -92v-76l-11 -57l5 -76q-13 -35 -19 -70l-8 -55l4 -37v-70q-22 -93 -31 -125t-18 -36h-25z" />
    <glyph glyph-name="quotedbl" unicode="&#x22;" horiz-adv-x="923" 
d="M662 1405q59 -5 126 -86q13 -16 16 -72l10 -46l-25 -69v-10l2 -66l-22 -54l1 -59q-24 -48 -24 -57l-9 -37q-4 -63 -45 -107l-14 -1q-49 10 -64 58q-16 35 -34 67l2 42l-31 39l-2 8l11 52l-29 54l7 71l-27 56l11 56l-5 50q18 55 73 81q41 24 72 30zM225 1402
q57 -4 111 -64q34 -30 43 -49v-4l-16 -56l20 -60q-8 -26 -22 -54v-12q9 -38 9 -57v-5l-26 -30l9 -54v-25q-28 -30 -28 -51l1 -48l-2 -8l-23 -47q-18 -43 -35 -45h-9q-5 -1 -8 -1q-35 0 -78 80l-19 25l-3 46q-9 29 -23 54l-9 28l-3 16l13 66l-22 72q-3 6 -3 24q0 22 5 63
l-16 70q0 61 120 123z" />
    <glyph glyph-name="numbersign" unicode="#" horiz-adv-x="1518" 
d="M375 515l-1 12l-7 68l23 53q19 73 26 122l-13 68l18 57q22 38 23 60v2q0 23 -21 23.5t-31 -5.5q-20 14 -62 14q-32 0 -64 -10q-17 12 -53 71l-4 15q19 67 42 88q31 14 77 40h13q31 -7 57 -19l37 9l36 16q2 25 2 40v16q20 48 29 110q-1 8 -1 12q0 32 37 79q13 26 48 47
l10 7q9 4 17 4q48 0 69 -43q4 0 27 -63q-8 -19 -25 -74v-11q0 -21 6 -69l-12 -27l-15 -33v-1q0 -5 4 -27q21 -8 34 -8q20 0 52 27h15q26 -18 56 -18h21l53 35l38 -11q20 -17 41 -17q8 0 20 4l13 22q-3 35 -9 55q31 59 31 171q15 30 79 88l53 12q43 -15 54 -39q12 -31 12 -59
v-10l-2 -38q1 -4 1 -5q0 -20 -31 -86l-6 -63q4 -32 23 -32q4 0 16 4t21 9q29 -14 69 -14h11l32 7q14 -16 30 -32q16 -11 26 -48l3 -14q2 -9 2 -17q0 -35 -39 -78q0 -6 -55 -57q-12 6 -52 16q-17 -3 -56 -24h-12q-19 6 -32 6q-11 0 -20 -5q-18 -39 -18 -73q0 -9 1 -18l-3 -57
l-21 -55q-18 -72 -24 -122l17 -68l-18 -57q-8 -25 -8 -57v-5l2 -24l16 -6l34 -12q40 13 58 13h1l35 -6q23 -4 46 -31q17 -21 22 -85l-8 -17q-51 -59 -73 -71q-18 6 -36 6q-11 0 -22 -3q-16 -8 -33 -8q-7 0 -24 3t-31 6l-4 1q-17 0 -18 -26q-1 -12 -1 -22q0 -9 1 -15
q-20 -48 -27 -112q2 -9 2 -13q0 -30 -36 -77q-14 -26 -48 -49l-11 -6q-10 -4 -20 -4q-57 0 -80 41q-4 0 -30 60q9 21 22 72l1 9q0 24 -7 57l14 62l-14 18l-49 -2l-67 17l-75 -19q-4 -1 -9 -1q-20 0 -54 14q-77 -10 -77 -37q0 -2 1.5 -15.5t2.5 -20.5q-32 -61 -33 -171
q-16 -29 -73 -90l-12 -7q-88 17 -97 42q-11 28 -11 56q0 6 1 14l3 36q-1 4 -1 5q0 20 32 86l7 60q0 24 -22 24q-9 0 -21 -4q-39 23 -57 26q-41 -8 -54 -13q-40 47 -40 54q-23 33 -23 58q0 16 8 34l6 14q20 40 39 51l42 15l42 8q38 0 67 12q14 -8 37 -16q5 -1 10 -1
q19 0 27.5 25.5t8.5 64.5zM640 986q-8 -24 -14 -37q-13 -35 -17 -52l2 -71l-1 -41q-7 -28 -22 -60l-16 -58l-5 -93l-29 -122l-3 -40q20 -7 26 -7q15 0 56 13l15 -1l32 -22q13 -1 22 -1q23 0 55 6l32 15l37 -24q10 -6 24 -6q8 0 18 2l22 19q1 11 10 34q11 31 16 50l-4 71v40
q8 28 22 61l16 59l2 93l30 132l-14 11q-21 15 -34 17l-44 -19l-24 -8q-14 5 -32 21l-37 15l-57 -16l-71 19h-13z" />
    <glyph glyph-name="dollar" unicode="$" horiz-adv-x="1449" 
d="M819 548l-15 -4l-1 -96l2 -24l-15 -74l9 -109l-3 -86l14 -13l63 -9l70 30q40 42 42 77l24 47q0 14 -23 75l1 19l-10 46l-28 32l-39 26q-36 49 -91 63zM615 1150l-35 10q-24 0 -49 -47q-69 -12 -69 -50v-2l-3 -10q-27 -17 -38 -56l7 -46l26 -23l4 -12l-1 -34l53 -24l7 -4
l18 -39l62 -20q21 26 21 50v2q10 45 10 81q-1 28 -6 47q-2 25 -8 46l11 76zM792 1323l9 -8l54 -5l20 -6l45 -23l44 -18h11q38 0 57 19q30 20 42 20h6q95 -36 95 -116l-3 -65q6 -30 21 -57l-1 -13l-8 -49l12 -59q-15 -109 -52 -109h-2q-14 1 -89 78l-10 22l-12 71
q-43 67 -67 67l-30 13q-7 7 -30 48l-11 6l-40 13l-53 -3l-8 -15q0 -71 11 -122q-15 -64 -15 -108q1 -31 5 -62q-3 -39 -3 -59v-23t38 -26q12 0 107 -48l126 -23q33 -43 52 -75l51 -19l8 -9q10 -48 17 -70q12 -29 33 -54l-2 -44l18 -64l-27 -188q-44 -100 -106 -146l-65 -21
q-46 -23 -79 -37l-62 -16l-46 -3l-53 -10l-10 -13q-6 -38 -14 -71q-10 -40 -49 -80l-13 -6q-52 16 -70 47q-20 51 -20 109l-2 25l-10 15q-39 29 -77 34l-52 7q-65 41 -85 42h-5q-18 0 -36 -7q-8 0 -34 -31q-16 -22 -37 -33l-19 1q-53 24 -81 54l-14 33l19 63l-2 12l-24 40
v24l18 46l-1 14l-17 38l6 42l-10 67l3 19l14 47l9 20q18 33 26 33h1l11 -1q34 -33 69 -76l29 -46q16 -61 65 -86l8 -10q9 -29 30 -76q4 -8 43 -36l34 -4l13 -8l40 -21l51 1l9 11q0 34 -1 89q12 61 12 90v8q-8 54 -16 103l16 89l-16 86l-28 16l-13 3l-43 9l-9 3
q-26 26 -44 29l-25 5l-50 15q-8 15 -48 71q-32 37 -64 69l-8 75q-12 38 -12 85q0 10 1 20l1 14q17 125 86 171l39 52l9 6l72 15l48 29l72 8q9 7 13 17q-2 29 -6 45q0 24 16 97t68 106q15 8 28 9q27 0 53 -41l26 -105z" />
    <glyph glyph-name="percent" unicode="%" horiz-adv-x="1568" 
d="M1194 1508h8q90 -49 90 -102q-14 -70 -62 -122q-14 -40 -26 -75q-39 -58 -45 -78q-34 -16 -55 -105q-12 -1 -39 -36.5t-47 -63.5l-20 -56q-55 -65 -66 -100l-3 -4q-25 -20 -58 -100q-34 -40 -60 -68l-31 -88q-31 -27 -52 -86q-27 -67 -27 -84q-9 -6 -33 -30
q-36 -48 -36 -68l-20 -40q-8 -22 -36 -44q-26 -28 -52 -92l-26 -52q-10 -7 -34 -64l-68 -100h-16q-72 21 -103 60q5 82 27 117l24 24l18 53l44 52l27 29l22 46l18 52l3 10l35 28l39 111q20 24 56 56q44 42 44 80l2 18q10 24 57 65q37 36 37 53l9 58l11 18q87 97 92 124l7 32
l12 17l31 34q34 58 34 89l26 40q18 51 40 100q17 40 26 66q30 37 35 47l14 27l8 45q14 17 43 51q36 56 76 56zM552 1404q49 -24 108 -24l40 -16l68 -76q36 -61 46 -100l3 -26l-1 -42l1 -48q-5 -44 -34 -89q-23 -38 -46 -93l-15 -33l-39 -23l-55 -70q-50 -16 -64 -52l-64 -36
l-57 -20q-48 -5 -85 -18h-14q-38 6 -75 31l-68 27l-9 9l-25 40q-14 11 -31 79q-19 20 -28 52l12 60l-8 56q0 19 68 124l24 76q0 11 59 66q17 21 97 62q46 51 116 64q54 20 76 20zM472 1236q-28 0 -58 -16l-60 -51l-19 -29l-41 -33q-10 -32 -23 -71l1 -22q-8 -32 -8 -54
l-8 -40q0 -74 116 -124h56l80 40q23 0 76 60q20 18 39 78q20 41 30 98l7 24v44l-9 31l-30 34l-23 23l-21 11l-30 13q-12 0 -24 -5zM1377 666q20 -19 53 -74l29 -31l9 -60v-61q-42 -98 -42 -108q0 -17 -33 -100q-40 -38 -89 -89l-29 -45l-9 -6q-62 -14 -114 -55l-20 -3l-42 1
l-54 -10l-71 1q-60 21 -103 50q-40 59 -60 128l-11 50q11 53 11 86l8 35l4 51q9 30 51 76q15 23 37 41l25 50l67 51q33 33 72 64q13 0 80 36h12l42 -3q106 -2 177 -75zM1154 610l-52 -24q-14 0 -34 -48l-10 -7l-32 -28l-38 -35l-31 -79q-30 -31 -31 -90l-1 -40v-3
q0 -17 15 -38l21 -31q50 -29 79 -29h20q19 0 72 16l23 11l21 13q21 12 86 69l14 27q44 86 46 134l14 46l2 43l-4 39l-36 36q-39 40 -72 40l-68 -22h-4z" />
    <glyph glyph-name="ampersand" unicode="&#x26;" horiz-adv-x="1443" 
d="M623 1157q-34 -15 -49 -48q-24 -20 -42 -68q10 -102 50 -155l24 -26l27 -2q88 35 134 89q5 8 12 49l6 46l-11 63q-12 29 -27 50q-44 4 -75 18l-14 3zM598 1279q42 20 82 26q17 -11 102 -23h11q14 0 39 -40q23 -33 45 -39q15 -75 52 -149l5 -34v-10q-5 -93 -28 -122
l-20 -56l-127 -89q-72 -31 -97 -84l18 -49l45 -53l43 -86l44 -26l16 4q15 20 35 78q47 48 47 96q28 38 91 65q60 31 90 31q1 0 17 -1t59 -22t58 -72q8 -32 8 -51q0 -12 -4 -21q-5 -32 -17 -36q-12 -5 -28 -5q-9 0 -21 2l-39 7q-24 7 -42 7q-41 0 -56 -33l-14 -43l-3 -46
l-24 -35q-25 -34 -39 -88q0 -41 51 -70q34 -41 71 -41q30 0 87 62l85 31q109 -23 109 -89q0 -25 -17 -59q-7 -22 -44 -73q-25 -32 -37 -60l-5 -8l-48 -16q-33 -17 -91 -23q-62 1 -105 30l-49 39l-61 37l-52 28l-20 2q-45 -26 -65.5 -46t-36.5 -29q-60 -15 -120 -39l-142 -8
l-60 18l-62 25l-57 36q-63 32 -112 98l-9 26l-6 41l-27 84v12l1 59l-8 83l26 53l19 63q0 19 50 48l41 50l96 52q45 21 86 53l6 19q-30 108 -42 155l-8 71l2 36v13q12 21 25 53l18 53q9 28 55 77q32 5 108 51zM305 405l-6 -94q19 -70 42 -122l36 -33l72 -43l57 14l12 1l49 -7
q57 15 71 58l6 9q36 20 36 63q0 9 -5.5 38t-48.5 58q-13 52 -55 89q-20 86 -62 127q-20 19 -46 19q-19 0 -39 -11l-20 -17q-79 -64 -99 -149z" />
    <glyph glyph-name="quotesingle" unicode="'" horiz-adv-x="485" 
d="M237 1405q59 -5 126 -86q13 -16 16 -72l5 -50l-3 -15l-17 -50v-10l2 -66l-1 -10l-21 -44v-55l-1 -12q-22 -40 -22 -49l-9 -37q-4 -63 -45 -107l-14 -1q-49 10 -64 58q-16 35 -39 105l-14 76l-26 69l-2 12v66l-3 14l-19 47l-1 12l6 49l1 45q18 55 73 81q41 24 72 30z" />
    <glyph glyph-name="parenleft" unicode="(" horiz-adv-x="767" 
d="M615 -129l18 -64l-43 -15q-95 27 -144 89q-41 46 -89 113l-40 41l-9 86l-60 84l-6 127l-6 34l-59 129q19 76 33 156l-21 90l9 46l20 50l-9 95l34 84q20 29 41 103q2 73 25 88l49 41l28 67l59 55q63 43 120 77l54 -7q20 -9 20 -21v-5q0 -58 -79 -174l-33 -100
q-88 -69 -88 -114v-3l4 -18l1 -27q-30 -53 -30 -62q1 -15 17 -50q-21 -40 -51 -128v-33l22 -64l-27 -62v-13l32 -83l-13 -33l-11 -59l18 -42q2 -72 63 -112q23 -86 25 -101l48 -48q2 -36 29 -77t49 -140z" />
    <glyph glyph-name="parenright" unicode=")" horiz-adv-x="757" 
d="M121 1352l-16 48q9 29 39 32q96 -25 145 -87q43 -44 91 -112l41 -40l11 -86l62 -82l7 -128l5 -34l63 -128q-18 -75 -32 -156l24 -89l-8 -47l-21 -49l12 -96l-32 -85q-20 -29 -40 -103q-1 -73 -23 -89l-48 -41l-28 -69l-57 -55q-63 -43 -120 -76q-27 -13 -43 -13
q-10 0 -20 10t-11 27v5q0 59 77 176l31 99q85 70 85 114v5l-3 18l-2 27q29 54 29 63q-2 15 -17 50q20 40 47 128v34l-23 63l27 64l-3 13l-32 81l14 33l9 60l-18 41q-4 72 -65 111q-25 87 -30 101l-46 47q-3 36 -31 76.5t-50 138.5z" />
    <glyph glyph-name="asterisk" unicode="*" horiz-adv-x="1232" 
d="M585 690l-5 8l-37 -10q-49 -58 -85 -82q-24 -21 -48 -34l-24 -10q-20 -8 -34 -49q-31 -39 -81 -48l-69 1l-37 9v17q0 42 -18 68l-5 15l9 23l1 25q12 82 141 110l43 11l51 7l113 41v17q0 33 -147 39l-53 25l-76 2l-39 17q-55 49 -61 102l-5 55q0 59 39 71l39 6l41 -4
q107 -32 133 -70q19 -41 65 -59q15 -14 35 -40l81 -83l13 19l-24 114l8 26q-24 22 -25 30q-22 49 -24 95v10q0 47 14 103q32 47 49 55.5t32 16.5t39 14l35 -30l28 -52q15 -47 15 -82v-12l-15 -8l9 -38l-28 -31q4 -32 24 -57l-22 -143q7 -12 17 -12q42 0 140 141q18 6 52 33
q35 45 87 61h4q11 0 56 2h1q38 0 41 -50q12 -33 12 -61q0 -27 -10 -56q0 -18 -20 -38l-19 -11q-29 -29 -33 -42t-85 -27l-76 -25l-65 -20q-31 -4 -40 -19q0 -18 24 -25l55 -18l82 -6q29 -4 60 -4q17 0 28 1q28 -17 59 -40l20 -9q24 -15 34 -36l11 -44l3 -13q0 -78 -58 -105
l-44 -16l-48 7l-109 46q-17 7 -54 55q-32 17 -41 48q-34 40 -80 85l-9 -2l-1 -68l18 -57v-41q25 -46 33 -73l4 -33l-8 -45q-12 -34 -25 -70l-36 -23v-19q-22 -9 -47 -9q-7 0 -15 1q-37 0 -57 47q-26 18 -30 105l18 59l16 27l8 96z" />
    <glyph glyph-name="plus" unicode="+" horiz-adv-x="1046" 
d="M476 1164l29 3q100 -3 121 -74l11 -33l-14 -50v-60q-10 -36 -10 -76q0 -17 2 -34q0 -60 70 -60h5l73 -12l51 17h16q44 -10 92 -10q15 0 28 1q60 -10 72 -88v-7q0 -57 -80 -99h-13l-61 7q-68 -3 -106 -14h-63l-34 -3q-28 -15 -28 -34l5 -40l-15 -52l13 -52l-12 -54l7 -41
q0 -50 -75 -72q0 -6 -63 -21q-29 11 -39 29l-28 89v18q11 37 11 79q0 12 -1 21l7 49v4q0 63 -88 81l-69 7q-66 -10 -134 -16h-4q-104 19 -134 97v3q0 37 82 111l22 4l53 -11l32 7h4l54 -11l25 7h27q38 -18 60 -18q37 0 64 32q-21 161 -33 189l8 33l-9 55q3 80 69 99z" />
    <glyph glyph-name="comma" unicode="," horiz-adv-x="628" 
d="M245 311l22 4l59 -9h29l23 4q119 -41 150 -134l-6 -64v-58l1 -23q-14 -91 -33.5 -138.5t-53.5 -75.5q-17 -67 -96 -118.5t-190 -59.5l-17 9q-3 10 -3 23q0 41 36 85l34 57q48 41 64 88l4 22q-6 41 -51 84l-28 20q-20 27 -38 49.5t-22 40.5q-1 8 -1 16q0 17 4 32
q5 31 7 51q36 70 106 95z" />
    <glyph glyph-name="hyphen" unicode="-" horiz-adv-x="1096" 
d="M797 794h5l40 -14l48 -6l23 1q60 9 76 9h4q51 -28 72 -76l-1 -19q0 -84 -68 -98q-40 -6 -90 -19h-11l-92 10q-43 -1 -117 -16l-69 12h-22q-11 0 -85 -11h-9l-74 11l-82 -12q-42 9 -71 9q-11 0 -21 -1l-55 -8l-14 2q-53 16 -104 22q-47 20 -60 53q-1 4 -1 10q0 50 34 83
l113 51h8q61 -23 120 -23q17 0 84 25h16q56 -25 68 -25h24q37 0 97 20h7l87 -23q42 0 97 31z" />
    <glyph glyph-name="hyphen" unicode="&#xad;" horiz-adv-x="1096" 
d="M797 794h5l40 -14l48 -6l23 1q60 9 76 9h4q51 -28 72 -76l-1 -19q0 -84 -68 -98q-40 -6 -90 -19h-11l-92 10q-43 -1 -117 -16l-69 12h-22q-11 0 -85 -11h-9l-74 11l-82 -12q-42 9 -71 9q-11 0 -21 -1l-55 -8l-14 2q-53 16 -104 22q-47 20 -60 53q-1 4 -1 10q0 50 34 83
l113 51h8q61 -23 120 -23q17 0 84 25h16q56 -25 68 -25h24q37 0 97 20h7l87 -23q42 0 97 31z" />
    <glyph glyph-name="period" unicode="." horiz-adv-x="607" 
d="M360 -11h-15l-56 9l-41 7q-68 16 -130 96q-19 47 -19 101v4q8 67 71 127q65 46 141 54h12q22 0 99 -36q37 -27 50 -71q8 -42 35 -102q-3 -55 -31 -98q-20 -28 -40 -38q-27 -13 -56 -39z" />
    <glyph glyph-name="slash" unicode="/" horiz-adv-x="1099" 
d="M1032 1566h14q42 0 50 -86q4 0 4 -94q-21 -22 -57 -73q-10 -19 -28 -95l-25 -26l-28 -26q-33 -50 -43 -98l-14 -12l-34 -41l-24 -84q-6 -11 -28 -30q-29 -30 -40 -43l-27 -82l-18 -49q-22 -29 -55 -56l-43 -54l-45 -104l-87 -120l-59 -125q-35 -45 -76 -79
q-35 -65 -43 -135q-62 -53 -108 -180q-31 -27 -116 -64h-16q-40 44 -40 84q0 54 19 96l16 38q4 25 74 91l31 62l10 44q76 72 106 185q79 61 103 146l22 86l48 51q50 71 74 121l13 87l47 59q40 31 52 68l23 80l69 85l12 26q33 83 42 123q42 44 76 108q10 51 79 89
q26 23 70 27z" />
    <glyph glyph-name="zero" unicode="0" horiz-adv-x="1333" 
d="M736 1450l66 -22q72 -35 86 -41.5t93 -85.5l30 -80l47 -59l19 -86q18 -34 35 -81l-4 -27q0 -23 34 -73v-42q0 -36 16 -120l-10 -83l3 -91l-23 -64l-12 -130q-30 -41 -39 -144q-34 -56 -59 -91l-33 -70l-50 -26l-43 -56l-66 -30q-31 -19 -50 -28l-77 7l-54 11l-72 -3
l-11 3q-55 43 -68.5 49t-31.5 6q-22 21 -39 72q-17 11 -62 75l-55 43l-18 68l-26 37l-5 76q-16 42 -33 72l-10 32v68q-15 54 -22 88l13 60l-6 105l22 57q15 49 15 119q0 16 -1 28l41 94l34 107q49 43 78 103q37 25 78 59l40 38l72 21l26 17l56 -4zM645 1206q-32 -2 -67 -23
q-13 -19 -27 -58q-49 -33 -69 -63l-3 -44l-4 -32q-30 -38 -52 -81l-3 -17l3 -37q-16 -29 -16 -62v-50l12 -52l-16 -75l17 -65v-17l-9 -38q0 -42 58 -95l5 -8l19 -76q47 -61 83 -72q9 -43 58 -62q26 -33 77 -42l33 -2q65 41 86 85q17 36 33 75q27 15 45 36q16 35 16 92v5
l32 88l-6 25l-3 10l17 64l-8 55q13 29 13 56q-10 35 -17 70l12 55l-41 74v1q0 98 -63 137q-4 26 -14 52l-23 24q-7 42 -46 79q-26 24 -54 24q-20 0 -39 -12z" />
    <glyph glyph-name="one" unicode="1" horiz-adv-x="828" 
d="M487 1480q24 0 42 -17q33 -37 35 -73q13 -18 27 -99l-13 -125l18 -110v-24l-18 -113l17 -82l-3 -35l-13 -137l16 -71l-20 -84l13 -126q-8 -41 -27 -95l36 -69l1 -20l-18 -78l22 -65l-17 -58v-41q0 -54 -31 -62l-92 -20h-25q-27 0 -71 153l4 50l-16 98l24 37v27l-23 83
l23 155l-28 68l23 147l-21 103q0 2 28 110l-9 90l-1 25l11 61q-4 49 -36 62l-39 -17l-112 -55h-5q-81 3 -81 44q0 5 1 12q0 83 81 156l50 66l61 15l34 37l34 36q93 41 118 41z" />
    <glyph glyph-name="two" unicode="2" horiz-adv-x="1292" 
d="M669 1413q79 -19 119 -22q27 -25 100 -45q37 -40 100 -68q35 -30 52 -85l50 -69q38 -86 38 -208q0 -21 -1 -39l-29 -70l-11 -57q-14 -12 -68 -47l-30 -67l-65 -36l-68 -67l-70 -31l-36 -44l-64 -28l-74 -65l-51 -18q-114 -63 -114 -114q0 -14 11 -31q25 -13 52 -13
q26 0 57 9l13 3l61 -18l20 -11l71 27l16 -2q32 -17 69 -17q39 0 78 19l53 15l45 -10l43 -17l39 -19q32 -7 56 -46q3 -35 17 -92q0 -16 -29 -34q-40 -31 -69 -41l-46 7l-65 -5l-19 -8l-74 -19h-6l-51 28l-83 -11l-85 27l-73 -28h-7l-70 23l-20 5l-83 -30l-100 38h-36
q-36 0 -64 164q12 124 39 167l30 63l56 84l77 41q39 27 59 73l10 17l41 15l63 23q23 29 40 53l77 17l24 37l64 19l34 44l8 5q62 24 70 81l11 56l21 24q13 26 13 49q0 15 -10 39t-45 38l-19 10q0 39 -44 64l-37 8l-47 30h-88q-65 -14 -89 -54l-5 -4q-61 -11 -100 -50l-40 -54
l-10 -58l-38 -76q-20 -41 -45 -41t-61 73q-15 33 -23 99q2 125 54 178l30 54l69 47l34 33l23 7l58 10l69 27l66 -4q38 16 62 23z" />
    <glyph glyph-name="three" unicode="3" horiz-adv-x="1178" 
d="M556 1506h3q33 -16 76 -32l59 -3l56 -55l57 -15l29 -43l54 -68q7 -45 41 -122q-7 -38 -10 -60l3 -52q-17 -31 -36 -62l-3 -45q-4 -10 -42 -39q-34 -50 -34 -80q0 -13 8 -25q33 -27 75 -64l14 -59l20 -31q19 -29 23 -38l4 -53q0 -8 41 -98q6 -85 21 -134l-6 -66
q-57 -75 -57 -119q-85 -74 -127 -145q-65 -13 -141 -45q-83 -49 -102 -57l-63 3l-55 -2q-18 0 -89 -23q-30 17 -88 17q-20 0 -36 -2q-62 32 -131 53q-68 50 -68 60v8q0 14 45 72l27 22q21 17 66 17q19 0 38 -2q59 -29 107 -29h4l37 4l35 12l89 -17l21 1l48 32q15 1 34 4
q33 0 67 64q40 8 108 87l-4 46l25 63l-17 64q12 21 12 40l-44 52v4l-20 63q-23 40 -50 42q-49 64 -89 64h-6l-37 19l-25 9q-16 6 -23 28l-24 67v4q0 24 52 41q62 21 117 51l49 56l35 70l-13 79l-28 53l-12 50q-13 14 -31 26t-41 20l-34 -1l-46 -10l-10 1l-53 22l-12 2
q-51 -9 -62 -13l-50 6l-48 -44l-53 -9q-52 7 -81 33q-31 31 -31 55q0 78 163 132q60 33 90 45l74 -11l41 -2z" />
    <glyph glyph-name="four" unicode="4" horiz-adv-x="1196" 
d="M785 1395q51 -2 64 -70q13 -40 13 -77l-10 -67l20 -113l-18 -71l15 -76l-10 -65l14 -59l-17 -73l15 -63l-11 -45l16 -66l-3 -43q6 -37 31 -65l20 -15h8l28 -6h2q13 0 52 13l8 1q44 -16 63 -16l44 3q23 -25 23 -34l-8 -53l-6 -40q-10 -21 -22 -24l-34 -11l-54 -25
l-114 -11l-15 -12l-18 -46l-3 -13q18 -46 18 -62l-17 -52l11 -51l-13 -45l3 -43l-1 -16q-2 -58 -74 -73q-39 -12 -60 -12q-73 101 -73 139l17 76l-18 71l10 61l-2 39q-31 69 -88 72h-8l-50 -15l-12 1q-27 18 -84 29l-91 -27h-11l-59 20l-36 -2l-36 -1h-1q-29 1 -80 64l3 22
q10 54 45 120q18 42 40 72q55 38 77 116l8 9q41 35 56 99l7 14l48 50l5 9l20 60l7 10l29 31l8 12l17 55l3 9l48 54l23 78l8 11l48 42l6 9l3 37l67 92q75 58 86 58zM613 927l-1 -35l-29 -45l-12 -52l-46 -42l-39 -81q-23 -29 -42 -53l-15 -69l-37 -40q-15 -26 -18 -57
q12 -25 41 -27q17 0 32 4l11 -3l29 -24l45 10l24 -1l29 -9h20l18 14l8 2l50 -6l22 34v75q-8 48 -18 83l10 59l-5 49l7 45l-10 71l20 60v9q0 11 -12 47q5 34 12 79l-20 -1q-41 -54 -74 -96z" />
    <glyph glyph-name="five" unicode="5" horiz-adv-x="1208" 
d="M451 1426l104 -22h27l56 14h10l108 -21h22l80 21h6q79 -16 105 -19q33 -17 41 -37v-12l-25 -76l-4 -46l-30 -23l-8 -1l-82 21h-22l-68 -28l-16 1q-73 16 -82 16l-67 -18h-8l-115 26h-53q-42 -42 -44 -65l14 -47l-11 -47q19 -47 20 -50l3 -43l24 -19l63 20l80 -13
q4 -3 18 -3q25 0 83 12l103 -29h20l72 -11l42 -40l34 -21q19 -34 37 -60l39 -52q5 -22 22 -73q13 -53 13 -79l-4 -56l8 -57q-23 -60 -29 -99l-26 -42l-16 -64q-22 -19 -59 -56q-23 -48 -30 -71q-36 -31 -84 -56q-46 -45 -78 -76q-74 -34 -107 -45q-60 -54 -94 -78l-88 -23
q-59 -48 -119 -61l-42 1q-71 22 -96 56q-16 21 -16 35q8 25 37 82l7 5l118 27l84 52q46 0 97 64q42 11 101 46l31 54l78 48q42 46 51 76l59 52l10 51q15 24 31 90l-9 60l-40 48l-20 45q-36 13 -77 16q-28 25 -51 35l-81 17l-73 -29l-43 -9l-83 -30l-67 -43l-64 3h-32
q-24 0 -44 104v11l14 75l-21 105l14 97l-11 103l8 61l-12 73q31 87 135 107h57z" />
    <glyph glyph-name="six" unicode="6" horiz-adv-x="1292" 
d="M971 1440h7q108 -41 108 -100q-25 -25 -65 -52q-16 -7 -27 -8l-46 3l-72 -47l-6 -2l-66 4q-11 0 -67 -64l-74 -21q-52 -47 -67 -78l-94 -62q-16 -37 -31 -86l-6 -12l-33 -37l-19 -85l7 -28h21q29 0 76 37l9 5l27 -3q25 0 60 27h6l62 -2l36 12l20 -1l23 -13l16 -2
q39 4 70 15l24 -4l29 -22l12 -8l49 -17l13 -11q24 -40 70.5 -81t65.5 -120q21 -24 36 -43l-2 -42l29 -73l2 -14q-16 -23 -16 -62q0 -16 2 -28l-22 -55l-4 -100q-42 -62 -61 -95q-43 -21 -79 -68l-14 -31l-59 -18l-12 -9l-31 -19l-65 -5l-91 -14q-150 10 -214 53l-40 35
l-75 42l-38 43l-47 34q-16 37 -24 70l-44 62l-7 69l-19 45l-2 13l6 65l-8 34l13 65l-15 67l1 9l21 41l-12 68q0 14 18.5 72t49.5 160q7 11 41 88l7 12q80 70 80 120q12 16 60 33l41 70l19 10l67 19l14 11l58 54l20 10l104 30l47 29l65 14zM394 488l11 -42v-7l-20 -63l30 -45
v-50q0 -25 44 -47l6 -14l3 -44q19 -17 36 -30l66 -13l38 -48l40 -10l66 17h19q33 -10 69 -16q26 0 45 44l9 11l64 30l6 6l16 48l9 15l44 33l5 16l-8 57l13 56l-24 54q4 37 4 50v6q-8 42 -55 68q-1 76 -72 76h-2l-6 1q-38 33 -69 36l-28 -9h-13q-18 12 -43 12q-12 0 -27.5 -7
t-63.5 -7l-35 -38l-13 -7l-42 -7q-24 0 -55 -54l-61 -53z" />
    <glyph glyph-name="seven" unicode="7" horiz-adv-x="1158" 
d="M283 1421l79 -17q45 6 88 20l97 -17l81 14l73 -17l77 15l102 -16l67 6q104 -22 126 -67q8 -21 10 -64q0 -45 -22 -70l-40 -57l-30 -73l-55 -68l-19 -67l-51 -76q-6 -32 -10 -73l-34 -70l-13 -98l-35 -73l-3 -87q-10 -27 -20 -74l5 -86q-17 -39 -29 -80l7 -74l-26 -65
l30 -83q-40 -118 -84 -187q-10 -12 -28 -12h-2q-135 35 -150 89q-10 28 -10 69q0 21 3 44l9 58q0 30 -8 75l28 81l-1 88l23 58l3 67l25 48l10 68q10 27 31 69l3 36l4 39q11 17 26 45q29 54 48 86l5 58q63 100 79 120q22 19 32 63l-1 22q15 16 45 64q27 49 27 65q0 33 -68 40
h-7l-129 -18l-95 18h-10q-55 -17 -80 -18q-31 12 -70 18l-41 1q-46 -15 -71 -48l19 -45v-4l-36 -81l24 -47q-71 -84 -84 -84h-16q-46 0 -72 140l4 68l-12 52l8 52l-4 48q0 43 80 100z" />
    <glyph glyph-name="eight" unicode="8" horiz-adv-x="1397" 
d="M797 1314l75 -15l86 -13l41 -28l39 -35l62 -31q33 -71 70 -97v-4q0 -36 8 -77q14 -37 29 -52l-12 -55l6 -52l-36 -51l-23 -45l-56 -32q-21 -15 -41 -51v-15q17 -34 62 -60l44 -26l17 -38l43 -51v-42q28 -43 46 -75q-5 -16 -5 -49q0 -21 3 -43l-31 -80q-17 -54 -31 -93
q-57 -33 -116 -99q-47 -21 -142 -63l-111 -38l-24 -2l-76 3l-76 -11l-8 2q-61 21 -120 28h-10q-33 39 -103 54q-40 38 -133 85q-20 51 -35 95q-32 54 -48 87l4 36l-11 76q15 24 38 72l14 53l38 24q9 52 53 91q34 1 96 66l-2 39q-27 19 -62 39l-39 19l-2 3l-10 52l-53 55
q6 44 7 67l-11 49v12l40 84q0 48 97 120q36 0 107 64q35 0 135 45l84 -6zM715 1153l-22 4h-12q-127 0 -147 -52q-63 0 -94 -105l9 -34l-1 -67q40 -58 85 -58q48 -44 73 -44q28 -7 54 -7h2q28 -30 58 -34q19 0 70 22h14q56 -1 63 -1h8l20 10l19 20l10 5l46 16q22 25 31 69
l30 39q0 29 -14 52q6 13 6 33q0 42 -39 59q-27 51 -83 51q-21 24 -81 24q-28 13 -47 13zM601 546h-39l-43 -34q-9 -9 -53 -18q-22 -15 -29 -51l-38 -34q-16 -16 -16 -45q0 -17 5 -36q-3 -14 -3 -28q0 -52 26 -70l2 -7v-3q0 -39 50 -55l27 -37q49 -48 111 -48h4l40 -10
q33 5 72 13l43 -14q96 0 134 54l10 3l59 14l33 41q34 0 55 54l25 80l-18 61q-14 39 -59 69q-8 28 -27 56l-60 46l-44 15l-51 -3l-62 17l-46 4q-30 0 -108 -34z" />
    <glyph glyph-name="nine" unicode="9" horiz-adv-x="1284" 
d="M536 1415l71 -9l65 -2q25 5 54 5h5l26 -19l68 -9l67 -57l62 -28q26 -61 77 -102q12 -62 50 -137l27 -132l-7 -80l19 -47l-9 -43v-75l-15 -45l-2 -53l5 -57q-28 -70 -28 -128q-46 -71 -58 -142q-64 -59 -89 -132q-100 -58 -146 -137q-21 -12 -69 -21l-69 -76l-64 -11
q-33 -25 -70 -44q-22 -11 -79 -11q-33 0 -78 4q-31 2 -35 80v8q0 76 68 111l67 33l12 4l40 -12l18 4q9 45 23 51l43 4l33 38l12 5l51 5q29 0 40 60l76 40q38 27 53 68l2 24l25 30q29 48 38 118l5 57l-18 9q-64 -8 -144 -58l-6 -2q-16 4 -33 4q-54 0 -87 -34l-8 -1l-65 21
q-68 26 -129 35l-54 47l-71 36l-38 55l-52 50l-9 67l-38 73l4 98l-11 77q15 41 32 86l3 7l4 55q27 21 67 66q31 44 46 73q85 41 135 58zM655 1240l-64 7l-53 -41l-38 -8q-32 0 -45 -59l-61 -32q-26 -45 -26 -94v-15q-27 -52 -27 -61q10 -66 53 -81l2 -5v-8q0 -69 60 -96
q23 -57 42 -68l62 -2h16l56 -36l37 1q60 30 87 55l65 34q34 42 48 70q14 6 37 24q37 21 38 69q-3 49 -23 81v8l-6 79l-59 58q-6 14 -39 83l-59 -2l-59 51z" />
    <glyph glyph-name="colon" unicode=":" horiz-adv-x="712" 
d="M411 757h-15l-56 9l-41 7q-68 16 -130 96q-19 47 -19 101v4q8 67 71 127q65 46 141 54h12q22 0 99 -36q37 -27 50 -71q8 -42 35 -102q-3 -55 -31 -98q-20 -28 -40 -38q-27 -13 -56 -39zM326 546q117 -4 186 -71l39 -60l5 -22l-4 -68l8 -38q-15 -62 -72 -88
q-33 -30 -103 -40q-11 -1 -20 -1q-54 0 -93.5 17.5t-86.5 91.5q-25 46 -25 58q16 68 20 130l22 20q34 26 53 41q41 30 71 30z" />
    <glyph glyph-name="semicolon" unicode=";" horiz-adv-x="741" 
d="M566 771v-15l-9 -56l-7 -41q-16 -68 -96 -130q-47 -19 -101 -19h-4q-67 8 -127 71q-46 65 -54 141v12q0 22 36 98q27 38 71 51q42 8 102 35q55 -3 98 -31q28 -20 38 -40q13 -27 39 -56zM277 311l22 4l59 -9h29l23 4q119 -41 150 -134l-6 -64v-58l1 -23
q-14 -91 -33.5 -138.5t-53.5 -75.5q-17 -67 -96 -118.5t-190 -59.5l-17 9q-3 10 -3 23q0 41 36 85l34 57q48 41 64 88l4 22q-6 41 -51 84l-28 20q-20 27 -38 49.5t-22 40.5q-1 8 -1 16q0 17 4 32q5 31 7 51q36 70 106 95z" />
    <glyph glyph-name="semicolon" unicode="&#x37e;" horiz-adv-x="741" 
d="M566 771v-15l-9 -56l-7 -41q-16 -68 -96 -130q-47 -19 -101 -19h-4q-67 8 -127 71q-46 65 -54 141v12q0 22 36 98q27 38 71 51q42 8 102 35q55 -3 98 -31q28 -20 38 -40q13 -27 39 -56zM277 311l22 4l59 -9h29l23 4q119 -41 150 -134l-6 -64v-58l1 -23
q-14 -91 -33.5 -138.5t-53.5 -75.5q-17 -67 -96 -118.5t-190 -59.5l-17 9q-3 10 -3 23q0 41 36 85l34 57q48 41 64 88l4 22q-6 41 -51 84l-28 20q-20 27 -38 49.5t-22 40.5q-1 8 -1 16q0 17 4 32q5 31 7 51q36 70 106 95z" />
    <glyph glyph-name="less" unicode="&#x3c;" horiz-adv-x="1375" 
d="M414 583l31 -19l62 -18l56 -38q30 -18 86 -31l72 -67l81 -24l101 -72l85 -18l84 -63q107 -32 113 -41q41 -39 62 -75q4 -5 4 -12q0 -37 -23 -64l-45 -37q-23 -13 -57 -13q-13 0 -26 2q-24 6 -88 35l-52 41l-106 42l-19 17l-82 54l-85 24l-77 54l-85 29l-54 45l-55 29
l-68 19l-42 39l-43 26l-80 23q-14 16 -30 40q-34 35 -82 72q-17 22 -26 32q-9 11 -9 20q0 7 3 13q17 22 81 71q40 30 82 77q61 14 92 39.5t49 52.5l94 43l22 17l72 63q90 26 125 61t80 39t101 60l69 19l47 59l102 40q49 29 80 29q7 0 25 -5t19 -7q34 -12 59 -50l5 -18
q4 -11 4 -27q0 -27 -12 -65q-13 -26 -54 -48q-44 -27 -81 -49l-101 -42q-41 -32 -80 -60q-39 -10 -68 -18q-53 -19 -82 -67q-34 -8 -107 -41q-32 -21 -61 -42q-82 -21 -126 -77q-73 -39 -73 -71v-4q0 -23 31 -43z" />
    <glyph glyph-name="equal" unicode="=" horiz-adv-x="1224" 
d="M976 989q87 -33 100 -50l24 -95v-3q0 -41 -74 -57l-49 -29h-11l-93 21h-21l-94 -37q-17 0 -84 29l-13 2l-29 -8q-54 -19 -76 -19q-69 43 -112 43l-88 -35h-10l-97 23l-31 -4q-45 -9 -63 -9q-15 0 -35 68q-12 11 -24 43q0 40 112 90l40 7l99 -5q74 9 140 20l86 -16l84 18
l166 -13q38 10 153 16zM765 587h21q67 -25 91 -25l25 4q50 12 66 25h12q11 0 59 -35q73 -40 73 -68v-33q-9 -71 -34 -76h-64l-44 -6q-76 -25 -102 -25h-4l-68 21l-68 8l-80 -25h-8q-49 17 -100 21q-55 -21 -72 -21h-8l-79 29l-33 -8q-72 -21 -92 -21q-124 31 -148 67v8
q31 142 48 142h17q68 -18 85 -25q41 8 102 43h8q17 0 98 -37q43 2 95 28h19l80 -26q45 0 105 35z" />
    <glyph glyph-name="greater" unicode="&#x3e;" horiz-adv-x="1364" 
d="M952 583q31 20 31 43v4q0 32 -73 71q-44 56 -126 77q-29 21 -61 42q-73 33 -107 41q-29 48 -82 67q-29 8 -68 18q-39 28 -80 60l-101 42q-37 22 -81 49q-41 22 -54 48q-12 38 -12 65q0 16 4 27l5 18q25 38 59 50q1 2 19 7t25 5q31 0 80 -29l102 -40l47 -59l69 -19
q56 -56 101 -60t80 -39t125 -61l72 -63l22 -17l94 -43q18 -27 49 -52.5t92 -39.5q42 -47 82 -77q64 -49 81 -71q3 -6 3 -13q0 -9 -9 -20q-9 -10 -26 -32q-48 -37 -82 -72q-16 -24 -30 -40l-80 -23l-43 -26l-42 -39l-68 -19l-55 -29l-54 -45l-85 -29l-77 -54l-85 -24l-82 -54
l-19 -17l-106 -42l-52 -41q-64 -29 -88 -35q-13 -2 -26 -2q-34 0 -57 13l-45 37q-23 27 -23 64q0 7 4 12q21 36 62 75q6 9 113 41l84 63l85 18l101 72l81 24l72 67q56 13 86 31l56 38l62 18z" />
    <glyph glyph-name="question" unicode="?" horiz-adv-x="1104" 
d="M644 223q55 -39 71 -102l2 -63q-14 -55 -44 -76q-18 -20 -96 -35q-125 0 -170 86q-5 26 -22 52v11q11 71 72 129q12 13 43 23q37 3 63 3q21 0 38.5 -4t42.5 -24zM520 338q-35 23 -62 68l-14 17v9l8 48q-20 46 -20 63l24 60l-9 58l25 103l54 82l84 36l38 31l49 22
q62 28 105 77l9 49l-2 14q-14 51 -60 84q-58 40 -112 50q-22 4 -47 4q-34 0 -67 -7q-12 3 -29 3q-42 0 -85 -28q-58 -37 -77 -79l-2 -29q54 -40 54 -82q0 -61 -47 -109q-27 -28 -74 -35q-140 15 -166 90l-21 42q6 52 6 67q0 25 -6 25l-4 13q29 103 60 116q30 59 78 78l82 54
q77 6 110 37l13 2l63 -5l43 11l37 -7l32 7l9 1l16 -3l37 -12q118 -30 133 -43q22 -30 119 -68l68 -89q36 -88 36 -128q-20 -50 -24 -110q-52 -41 -90 -104l-41 -13l-45 -23q-58 -7 -93 -50q-39 -16 -48 -44v-36q-22 -25 -22 -71v-7l5 -29l-11 -31l-1 -16l5 -39l-5 -22
q-2 -60 -24 -86q-13 -20 -38 -22q-7 -1 -13 -1q-23 0 -43 7z" />
    <glyph glyph-name="at" unicode="@" horiz-adv-x="1990" 
d="M887 552l39 21l27 12l8 3l46 -11l16 4q23 11 35 17q120 8 122 54v11q0 34 -15 80q-16 45 -45 63l-61 34l-36 -8l-6 1l-53 28q-32 -14 -45 -24l-60 4l-34 -26l11 -63l-3 -51q-2 -32 -56 -84q-6 -11 -8 -21q0 -18 16 -27q8 -2 19 -2q17 -2 83 -15zM1107 451
q-26 -18 -46 -18h-8l-54 4q-32 -20 -55 -36l-5 -2l-36 1h-50q-20 -35 -94 -53l-2 -32l-26 -71l-2 -9v-7q0 -63 74 -68l39 -6l44 -18l46 19l108 4q69 31 119 36t52 42q1 21 1 37q0 24 -2 41v7q1 7 1 14q0 66 -51 83q-30 16 -53 32zM579 683l-4 77q7 27 72 154q40 13 76 38
l33 21l42 -3q35 8 75 43l31 -17l43 -3h7q37 0 53 15l31 -2q70 -4 114 -50q38 -21 73 -28q0 -3 76 -81l48 -104l-1 -12l-13 -69l32 -51l-10 -40q31 -100 36 -109q-8 -30 -11 -39l25 -82l-7 -44l-1 -36q1 -17 1 -27q0 -9 -1 -14v-7q0 -34 25 -66l43 -21l32 -14q37 0 63 40
l11 19l65 54l6 23l-4 39l-3 37l15 27q14 22 15 42v2q0 20 -25 81q5 18 16 61q2 14 3 26v16l-33 58l8 31l3 60q-41 51 -75 63q-15 76 -88 111q-20 63 -32.5 76t-57.5 26l-9 8q-76 50 -146 55h-11q-26 15 -51 24l-42 19l-73 -10l-33 11l-80 32l-36 -16l-22 -8l-60 3l-82 -24
l-38 -28l-50 -5l-33 -3q-47 -15 -88 -87q-83 -64 -88 -131v-15l-56 -75l-6 -57l-31 -34q-8 -16 -9 -35v-10q0 -27 7 -59l-27 -64l31 -101l8 -43l-15 -87l64 -82v-12q0 -72 59 -107l17 -66l57 -27l37 -62q45 -3 139 -57l71 -7l49 -37l60 11h59l86 20l26 1l65 -20l48 22l33 12
l41 3l30 10l23 13l59 3l50 5l14 1l13 -1q48 -3 50 -25q-25 -55 -69 -78q-28 -11 -81 -27l-44 -28l-53 1l-59 -19l-38 -15l-26 7l-45 1l-69 -17l-79 -9l-60 29l-81 -11q-32 12 -89 16q-17 1 -32 1l-38 25l-58 47l-23 11l-76 30q-54 42 -83 87q-18 17 -49 88l-100 93
q-20 76 -64 166l4 33l-30 55l-26 46l-2 14l24 75l8 116l32 96l16 106q48 25 53 79l51 58q51 87 76 127q37 29 111 54l39 47l79 35l40 36q29 5 71 5h12q32 -3 75 -9l99 27l48 -16l102 22l19 -1l66 -31l77 -28l101 6q81 -50 111 -63.5t77 -64.5l42 -8l48 -67q22 -36 75 -52
q24 -26 47 -93l18 -47l14 -35l7 -16l35 -38q-4 -24 -4 -32v-8q0 -49 30 -96l18 -51l-10 -33l8 -132q-18 -41 -31 -125q-33 -46 -55 -95l-2 -41q-14 -27 -89 -107q-40 -31 -81 -41l-90 10l-60 -2q-13 -4 -24 -4h-4q-12 2 -25 6q-61 31 -137 46l-43 -10l-36 5l-44 -30l-66 2
l-45 -25l-63 5q-50 -13 -68 -13q-33 16 -46 16l-49 -1l-45 8l-30 35l-40 5q-26 5 -52 27t-49 85q6 49 8 84l-12 38l22 49q-3 16 -22 49l1 4q17 19 35 43l20 28q8 46 112 117q9 9 9 19q0 29 -79.5 50t-81.5 70z" />
    <glyph glyph-name="A" unicode="A" horiz-adv-x="1290" 
d="M330 -81q-11 0 -102 21l-95 -19l-6 2q-68 19 -83 52q0 2 16 50q15 24 59 52q42 33 66 50l40 83q5 24 11 86l28 64l1 64q0 9 43 63q16 37 16 72q0 23 -3 36q26 42 26 57v37q18 50 30 97l-1 53l2 9q58 79 58 122l-3 20q20 40 49 70l11 17l-9 83l63 142q18 43 35 44l89 -22
q34 -22 59 -70l35 -66q-9 -24 -9 -56q45 -72 49 -85l-16 -60q45 -71 45 -84v-40q0 -30 47 -96v-44q0 -14 32 -76q0 -8 -8 -64q29 -49 42 -89l8 -87l51 -88l6 -93q44 -99 90 -111q64 -24 107 -62l21 -48q-20 -43 -43 -53.5t-46 -18.5q-49 14 -101 16q-44 -11 -79 -26l-80 19
l-66 -18q-26 3 -64 20q-50 13 -58 48q0 30 33 55q35 30 70 67q26 25 28 81l-8 43l3 33q-3 34 -10 47t-22.5 22t-59.5 19q-10 -3 -48 -19q-16 0 -64 16q-28 0 -74 -22l-50 4l-50 -25q-21 -41 -37 -107q10 -82 60 -124l69 -61q17 -14 18 -27.5t1 -22.5q-3 -28 -42 -45l-9 -1
l-68 17q-29 -3 -103 -23zM662 515q74 0 80 66l-12 33q3 26 3 52q-30 108 -50 137l9 47q-38 43 -38 55l-9 62l-19 -1q-45 -69 -45 -95l1 -39l-27 -43q-2 -41 -2 -82l-28 -60l-21 -56q0 -38 31 -63q17 -3 28 -3q23 0 38 8q17 -18 61 -18z" />
    <glyph glyph-name="B" unicode="B" horiz-adv-x="1523" 
d="M869 -82q-21 1 -126 19q-95 -13 -111 -13l-96 24l-95 -16l-22 5l-46 22q-50 -7 -97 -16l-109 25l-21 22l1 24l-13 74q9 31 56 50q34 9 93 50q23 32 35 104v39l-7 33l20 86l-19 74l15 63l-14 70l16 66l-14 84l18 98l-15 86q4 55 10 85q-26 45 -72 77q-92 58 -92 91v1
q17 27 40 62q32 33 68 33h25q49 -3 110 -5q58 9 75 19l7 -1l59 -24l36 8l48 -3q64 20 75 20h1q61 -28 131 -31l52 19h13q62 -22 120 -39q75 -60 143 -98q29 -47 80 -121q-1 -3 -1 -15v-4q0 -39 17 -77l-12 -52l9 -70q-12 -45 -34 -107l-1 -46l22 -46q36 -57 66 -94
q10 -65 38 -120l-3 -51q5 -80 11 -128q-31 -69 -42 -155q-44 -46 -63 -95q-52 -30 -72 -59l-70 -4l-81 -26l-77 5zM625 760l49 11l35 -12q25 7 56 20l44 -23h1q13 0 52 24h3q44 -19 60 -19q83 37 94 37l48 70l-12 55q14 23 24 69l-29 41q-17 43 -84 68h-48l-71 14l-26 1
q-58 -22 -62 -22l-47 21q-20 -1 -69 -11q-7 0 -62 8l-56 -28q-36 -52 -37 -65q0 -12 22 -59l5 -16l-10 -59l12 -58l36 -34l33 -1l26 -28zM636 110l55 9q31 16 34 16q68 -14 96 -15q75 22 82 22q32 -6 55 -6h5q14 0 33 4t39 30q84 15 98 103l-4 33q25 23 27 61q-3 62 -35 89
q-18 71 -95 85l-52 -4q-18 11 -58 26q-18 -3 -69 -22l-39 15q-15 0 -79 -9q-14 9 -83 15l-81 -23l-34 -39q-16 -37 -17 -46l5 -74l-14 -53q0 -8 13 -65l-9 -60q11 -74 120 -92h7z" />
    <glyph glyph-name="C" unicode="C" horiz-adv-x="1378" 
d="M647 -86q-25 6 -56 32l-91 5l-52 48l-67 39q-18 37 -43 66q-46 63 -63 70l-21 73l-48 89q-6 83 -26 145l4 70l-27 51l16 66l-9 38l19 67l-1 96l36 62q4 36 4 67q25 34 44 58l6 52q10 15 58 45l52 63q27 0 90 71q45 0 112 51q27 0 54 -3l50 23l56 -20l52 8
q100 -55 144 -55q22 24 144 39h8q64 -24 64 -66q-4 -95 -4 -134l-24 -63l8 -47l-4 -52q24 -70 56 -125q-36 -114 -88 -114q-36 14 -91 59q-23 24 -40 65l-2 46l-48 85l-5 42q0 57 -72 65q-42 51 -94 51q-34 11 -57 16q-53 -19 -69 -23q-33 3 -51 3q-30 0 -73 -51
q-70 -43 -78 -89q-9 -35 -9 -58l-51 -60q9 -31 9 -78q-23 -52 -23 -63q14 -74 14 -88q-16 -38 -26 -85q0 -18 46 -62q0 -4 -14 -74l47 -52l15 -50q6 -32 60 -64q5 -5 17 -25t39 -48l69 -14l63 -37l42 3q34 6 53 23l4 1l64 -3q60 16 90 83q45 21 60 108q26 33 58 65
q40 50 86 50q60 -88 60 -121q0 -6 -4 -15q7 -30 7 -53q0 -39 -16 -70q-37 -40 -45 -91l-50 -34l-30 -49l-58 -31l-36 -46q-26 0 -74 -18l-45 -23h-14q-78 9 -84 9z" />
    <glyph glyph-name="D" unicode="D" horiz-adv-x="1452" 
d="M606 -96l-108 32h-27q-70 -18 -77 -18l-60 23q-34 -7 -68 -12l-81 16q-33 19 -52 39q-27 58 -27 92q13 26 77 45q0 1 25.5 7t61.5 47l54 3l26 16q40 25 40 98q0 16 -8 48l17 92l-15 62q8 17 8 44q0 6 -11 85l17 56l-17 73q13 70 13 88t-9 84l2 16q8 42 12 81l-9 37
l-24 56l-67 46l-55 1l-25 8q-55 19 -55 51q28 54 86 85l36 7l33 -4q65 19 84 19l89 -22l31 3l84 21l54 -21h29l70 22l50 -26q12 0 83 8q16 -4 66 -48l44 -2l32 -55q45 -30 93 -79q-2 0 -2 -6q0 -11 8 -46q24 -48 67 -73q12 -71 62 -163l-5 -63q9 -41 32 -127l4 -113l-19 -66
l-3 -70l-41 -61q-11 -80 -15 -97q-50 -45 -70 -62l-20 -86l-66 -49l-33 -64l-75 -45l-92 6q-49 -32 -75 -32q-73 25 -107 25zM741 164q14 0 51 32h18q62 -3 75 -3q53 32 74 61l15 59l41 20l8 17l5 55q32 46 32 61l6 52l32 97q0 13 -12 69l12 56l-35 64l4 48q-8 56 -32 84
l-19 24l-12 39q0 30 -44 78l-51 25l-59 38q-61 0 -134 -24q-18 0 -91 14l-42 -99l12 -53l-23 -41q14 -94 35 -127l-27 -56l13 -53l17 -45l-10 -43l-12 -69l24 -105q-18 -80 -20 -109l11 -45l-15 -47v-18l94 -44z" />
    <glyph glyph-name="E" unicode="E" horiz-adv-x="1497" 
d="M778 -99h-12q-76 24 -100 24q-12 0 -88 -24l-52 32h-56q-68 -24 -72 -24l-52 20l-36 -4l-44 8q-8 0 -44 -4q-11 0 -64 32q-52 0 -60 20v8q13 120 80 120l67 -4q59 26 117 55l29 46l1 54l15 56l-16 79l12 48q-6 36 -13 71l16 63l-12 44l17 66l-12 43l20 61l-21 78
q16 37 16 72l-25 39q8 21 20 67q0 43 -62 72l-24 1q-33 0 -44 -7l-53 32l-48 -4q-18 7 -32 28v20q63 108 149 108l55 -20l29 -1l91 29l140 -28q14 0 72 28h8q46 -36 113 -36l67 40l16 4l86 -26h25l91 15q43 -24 98 -41l24 -32q0 -8 -8 -41l47 -114l-2 -44l24 -100l-18 -81
l9 -28q0 -10 -36 -70q-24 -30 -52 -30q-14 0 -22 23l-18 69q-20 59 -64 109v7q28 31 28 48v8q-14 33 -28 57q0 15 5.5 30t5.5 25q0 29 -41 52q-17 3 -28 8q-59 0 -107 -28h-11q-36 11 -77 16q-52 0 -99 -25q-14 0 -100 17q-52 0 -72 -20v-28q0 -33 18 -58l-10 -46
q0 -52 32 -82v-19q-20 -39 -20 -53q4 -19 36 -42l1 -8l-14 -62l37 -22h12l56 32l35 -3q50 22 58 96q33 49 55 89l40 30q32 0 32 -60q28 -53 28 -76l-7 -40l19 -72l-4 -41l-15 -81l20 -47l6 -36q-11 -119 -68 -179q-39 0 -62 28l-50 51l-4 68l-24 68v10l-26 14l-21 -3l-52 4
l-48 -52q-24 -13 -36 -44l4 -37l-15 -39q0 -35 31 -75v-7l-30 -42l52 -42l-13 -50l36 -38l53 12l34 -3q52 15 65 30q14 0 49 -37l66 26l72 -32l54 -5q42 44 42 83q0 13 -6 56l10 39l-8 57q0 9 48 52l39 60l8 55l13 13q23 0 57 -41q30 -34 55 -119l-12 -72l12 -52
q0 -4 -24 -74l11 -74l-20 -71l9 -45q0 -19 -64 -60q-4 0 -64 12l-40 -8l-32 8l-64 -28l-108 24z" />
    <glyph glyph-name="F" unicode="F" horiz-adv-x="1396" 
d="M636 -86q-19 0 -71 19q-63 -11 -78 -18l-62 27q-61 0 -128 -28l-68 24q-84 9 -84 55l3 32q-15 34 -15 54q0 9 2 14q16 37 33 43l90 -22l27 -2q18 0 78 44q26 16 26 35q-7 45 -7 62l20 43l-12 44l21 68l-21 72l15 50l-16 48q0 21 20 52v16l-20 63l6 49l-14 49q0 15 12 63
l-16 60l16 50l-27 64l8 47q-19 32 -61 65l-58 5q-35 33 -98 39l-16 66q21 40 56 40l60 -4l44 4l32 -4q49 12 56 12q59 -20 92 -20q41 0 108 28h4l108 -28q56 28 72 28h20l64 -12l144 20q58 -24 159 -44q69 -32 94 -96q-1 -30 -7 -67q1 -97 23 -182l15 -50q-18 -121 -84 -121
l-3 1q-42 28 -79 72q-35 32 -35 39q0 4 12 72l-31 43q0 7 8 88q-25 32 -50 45q-17 0 -52 -6l-47 -20l-59 19l-47 -10l-53 17q-12 0 -52 -22h-12q-40 19 -75 21q-69 -19 -69 -59q28 -32 29 -44q-14 -19 -21 -38l13 -52q-16 -45 -27 -93l36 -73q23 -22 49 -42l43 18l60 -22
l38 38v76l31 51l-26 55q0 6 29 6q141 -17 150 -62l-24 -52l28 -62l-17 -76l19 -73l1 -21l-12 -68q-2 -20 -2 -38q0 -45 9 -70q-25 -22 -25 -75q0 -29 10 -61v-2q0 1 -3 1q-16 0 -92 28q-35 15 -62 53l-19 51q2 11 23 54q-36 73 -54 73l-43 -7l-43 25q-62 -23 -62 -50l32 -32
v-12l-32 -52v-16q20 -29 20 -56q-1 -9 -33 -32l-3 -24l28 -40v-20l-25 -45q9 -26 64 -67q11 0 61 14h2q37 -21 62 -21q22 6 34 15l30 23l12 -1q30 -56 30 -93q0 -6 -2 -12q-12 -96 -56 -106q-3 -6 -37 -18l-84 9q-11 -4 -59 -16z" />
    <glyph glyph-name="G" unicode="G" horiz-adv-x="1463" 
d="M735 -102l-66 34h-33q-108 35 -140 47q-38 56 -106 86q-32 52 -106 95q-15 59 -29 100q-4 27 -45 74q-1 36 -25 135v20l-31 48q10 16 21 123l-3 25l17 60q-7 32 -7 48l18 62l2 86q13 38 70 107l10 80l7 22l74 55q43 63 51 74l66 9l36 35l24 15l55 -1q35 10 55 16l42 -2
l41 11l13 -1q51 -7 118 -49h16q48 11 56 11l48 -41h11l125 41q47 -1 50 -91q-3 -31 -18 -105l13 -98l-13 -75q21 -79 23 -132q-1 -29 -71 -43h-21q-20 0 -55 50t-53 90q-11 152 -134 155l2 1q-19 45 -48 55l-11 11l-28 12l-47 12h-3q-40 0 -63 -26h-60l-41 -79
q-42 -17 -62 -69l-18 -74q-41 -30 -51 -74l2 -61l-23 -19q-21 -38 -31 -78l17 -63l-10 -64v-2q0 -44 45 -85q7 -15 20 -89l34 -42l-4 -40v-1q0 -51 82 -85l62 -63l31 -9l43 10q32 -13 100 -31q68 21 91 59q74 12 127 95q-3 45 -3 49l20 37q0 19 -24 67l-37 34l-35 -7l-36 21
q-18 0 -50 -5q-4 3 -22 86q0 45 67 64q29 10 82 24l79 -28l77 30q20 0 92 -37l43 -6l53 24q40 -2 62 -107q-1 -41 -36 -65l-41 -15l-37 14l-50 -26q-9 -35 -9 -46q11 -51 11 -62q-2 -18 -15 -47l27 -69q0 -4 -26 -83l16 -25v-8q-29 -48 -38 -97q-27 -49 -49 -49q-24 1 -80 6
q-11 0 -18 17q-16 39 -40 40h-10q-39 -36 -132 -85q-74 -23 -103 -23z" />
    <glyph glyph-name="H" unicode="H" horiz-adv-x="1480" 
d="M1119 -100l-51 24l-43 14q-67 -22 -79 -22q-10 0 -64 36h-36q-32 21 -32 63q15 29 69 47l103 58l8 28q0 31 -4 56l8 28l-16 60q0 12 12 52l-12 56v5l14 68q-24 71 -63 73l-31 2l-89 -31l-85 26l-83 -23q-6 1 -62 24h-11q-58 0 -75 -48l-6 -31l13 -76q-19 -77 -19 -83
q0 -25 15 -59l-19 -80q16 -49 75 -84l41 -28q18 -16 46 -46l18 -31q-3 -33 -31 -37l-61 -19q-31 18 -67 18l-60 -24q-11 0 -70 21l-50 -17l-59 21l-50 -8q-46 18 -46 79q0 37 33 55l88 46q19 28 35 72l-13 51q0 4 16 52q-16 60 -16 72l12 44l-20 64l8 31v21q-8 32 -8 44
q0 18 24 52v16l-16 56v19l12 49l-8 64l8 36q0 12 -16 68l12 58l-12 54l4 36q0 25 -25 34.5t-51 20.5l-47 25q-41 22 -41 52q0 53 64 88h32q27 0 92 24l80 -16q53 0 110 15q36 -13 115 -49q45 -32 49 -41q-44 -77 -135 -109q-70 -16 -70 -70q0 -10 1 -14l-18 -59l14 -44
l-11 -64l13 -92q25 -45 71 -45l54 -20l27 -1l56 19l15 1l66 -20l74 23l74 -13q65 23 66 95l-14 61l17 52l-15 57l1 65q0 61 -91 76q-70 23 -97 69v12q0 45 94 84l45 21h11q31 -8 60 -8q43 0 72 16l8 -1q31 -25 82 -25q30 0 59 8q35 -8 63 -35q31 -23 50 -44q-20 -43 -52 -65
q-58 -35 -113 -74l-3 -44l-16 -49l16 -48q0 -8 -20 -64l20 -60q-16 -30 -16 -56l16 -44q0 -29 -16 -64l16 -64l-4 -72l8 -36l-16 -64l20 -60l-8 -51l12 -57l-12 -60q27 -67 44 -74l71 -31q68 -29 69 -66q0 -28 -25 -57q-43 -48 -78 -48l-47 22q-48 -34 -77 -34z" />
    <glyph glyph-name="I" unicode="I" horiz-adv-x="1240" 
d="M863 -110q-30 0 -106 38q-22 0 -94 -30q-11 0 -94 21l-3 -3q-17 0 -34 -2q-6 0 -63 -16h-12l-79 22h-30q-15 0 -82 -26h-18l-59 36q-61 30 -67 62q2 24 3 48t29 49l30 19l27 11l35 22l101 -22q32 0 69 24q4 -2 17 -2q37 0 76 70l13 58l-8 55l20 52q0 20 -24 52
q0 12 16 68q-12 52 -12 68l12 48q-16 41 -16 64l12 48l-16 60q0 14 20 44v24q-12 15 -12 36q0 4 16 64l-12 44v24q8 44 8 56q-32 48 -84 48h-12q-8 0 -62 -25h-12q-53 18 -63 20l-60 -9q-36 5 -103 90l-4 52q10 33 58 60q31 36 53 36q91 -24 140 -28q24 0 85 28h4l68 -32
q36 0 128 36h4q63 -20 142 -20l64 10l48 -17q29 -6 83 -12l62 11q44 0 61 -148q0 -12 -48 -44l-66 -26l-79 19l-58 -18q-19 3 -36 3q-30 0 -48 -10l-62 -41q-27 -24 -27 -47l16 -60q0 -4 -12 -63l8 -53l-7 -52l19 -56l-8 -44l4 -76l-8 -42l15 -95l-15 -53q6 -52 28 -74
l-10 -22q-14 -27 -14 -62q18 -34 33 -70l47 -52l49 12q30 -27 69 -27q32 0 56 19h7l69 -38q69 -28 69 -59q0 -21 -3 -42q-7 -50 -62 -87q-33 0 -90 2q-13 -1 -24 -1.5t-75 -26.5z" />
    <glyph glyph-name="J" unicode="J" horiz-adv-x="1385" 
d="M679 -100l-94 10q-103 -10 -109 -10q-38 20 -74 48l-63 3l-19 32q-31 31 -81 45q-26 59 -64 92l-8 29q0 11 -36 75q0 39 -26 112q-11 57 -11 102q0 168 169 168q127 0 164 -153q0 -44 -16 -71q-22 -27 -48 -42q-33 -20 -33 -62q0 -11 2 -22q1 -68 66 -88q24 -49 75 -58
l64 22h15l69 -20h39q0 20 15 48l13 10l44 -3q25 0 25 50v13q56 32 56 70l-26 73l1 10l28 53l2 26l-13 60v16q14 36 21 65l-16 113l19 95l1 19l-17 118l-2 7l16 65v28q-4 59 -86 86q-53 -12 -92 -12q-23 0 -39 3l-27 20l-17 36q-5 30 -5 64q8 47 107 76q35 -8 71 -10l90 15
l27 10q76 -25 104 -25q23 0 78 26q75 -17 113 -21l59 10q81 -53 81 -92q4 -16 4 -29q0 -43 -41 -70l-58 -25q-22 0 -76 8q-45 -18 -78 -72l-11 -31q0 -17 18 -64q0 -15 -14 -99q0 -9 12 -84l1 -6l-24 -67l28 -86l1 -12l-10 -73l1 -72q-10 -46 -10 -75q0 -8 14 -87
q-21 -31 -21 -81q0 -21 3 -39q-3 -10 -44 -72l-18 -56q-37 -13 -75 -30l-39 -44l-72 -11q-62 -29 -103 -57z" />
    <glyph glyph-name="K" unicode="K" horiz-adv-x="1520" 
d="M1066 -102h-14l-56 35l-26 -3q-66 -19 -87 -19l1 -1q-31 19 -44 124q7 27 28 36l37 -9q27 21 27 57q0 29 -19 76q-41 25 -59 39l-11 49l-14 21q-15 0 -47 13q-1 18 -46 87q-37 20 -69 34q-22 62 -102 80l-11 -3q-9 -7 -46 -72v-16l12 -44l-20 -64q0 -16 8 -56l-8 -61
q12 -65 30 -90q14 -18 42 -18q22 0 51 10q14 0 37 -17q48 -30 48 -62q-6 -57 -29 -91l-18 -22l-4 -1q-56 14 -77 16l-52 -10q-13 2 -71 22h-16q-99 -20 -112 -22l-73 24q-33 -12 -67 -20q-45 4 -45 49q12 33 22.5 52.5t53.5 42.5q78 17 104 48q19 21 19 56q0 20 -5 38l18 45
l-20 63l24 52l-28 64v12q24 26 24 48l-24 56q20 41 20 64l-12 48q0 27 16 56l-12 60q0 4 8 52q0 20 -24 72l16 48l-17 62l9 45q-15 43 -68 76q-58 15 -128 81l-4 24q0 24 39 50q61 38 89 38q26 -26 58 -41l84 31h7l35 -15q83 17 96 17l58 -25l54 21h12q20 -10 20 -32
q0 -21 -7 -58q-10 -53 -80 -83q-93 -51 -97 -87q2 -21 12 -45v-2l-24 -50l26 -63q-12 -49 -20 -99q25 -73 65 -73q81 50 81 120q13 18 59 36q49 95 51 103q45 6 60 40t25 54q56 31 59 66q0 42 -57 52l-11 22q8 33 29 54q25 21 74 35l36 14l33 -13l125 21l35 -12l21 -1
q48 0 94 21h12q61 -38 95 -76l16 -26q0 -47 -18 -102h-3l-43 34l-52 -22h-6l-36 14q-47 0 -72 -47q-57 -27 -86 -75q-114 -55 -116 -77l-5 -31l-56 -36q-12 -10 -35 -80q-8 -9 -52 -41q-61 -41 -61 -76q0 -43 42 -65q12 -59 50.5 -93.5t57.5 -40.5l1 -3q5 -49 37 -84l43 -16
l18 -49l6 -6q73 -55 82 -64v-38q9 -41 66 -83q41 -41 94 -53l29 3q30 -13 69 -14l27 16h3q16 -35 16 -114q-9 -29 -60 -58q-52 -25 -76 -25l-70 28l-27 1z" />
    <glyph glyph-name="L" unicode="L" horiz-adv-x="1463" 
d="M526 -98h-27l-97 28h-19l-77 -21l-95 15q-49 10 -49 97q18 121 57 121l54 -20l36 11q12 -1 53 -10q64 34 64 63q-16 24 -16 44l32 60q-28 43 -28 56q0 4 12 52v16q-20 28 -20 52l20 52l-12 48l13 58l-25 70l21 60q-21 44 -21 61l21 45q-13 52 -13 66q16 52 16 64l-32 40
q0 8 11 56q-80 64 -95 64h-36q-19 0 -76 -32h-16q-32 0 -36 121q1 41 41 75q38 17 95 32q28 0 75 -13q22 -7 46 -7q39 0 100 19q14 0 100 -19l108 24l49 -13l31 -10q66 -12 71 -69q-17 -125 -28 -144l-24 -12l-64 32l-68 8l-72 -76l12 -36l-28 -56l21 -34l2 -10l-19 -52v-16
q0 -12 32 -68l-20 -48l30 -52l-29 -70q28 -45 33 -58l-38 -55l49 -51v-2q-23 -34 -23 -64q13 -28 28 -39l-38 -67l41 -51l-26 -75l33 -16q56 2 67 12h12l45 -20l18 -1q24 0 73 13l65 -20l37 11l12 -2q55 -11 68 -11q27 5 45 46q6 13 6 28q0 32 -22 71v4q26 28 26 68
q0 30 -14 56q10 32 26 74q18 47 54 97l26 26q27 0 94 -87q21 -58 21 -125l-1 -28q-22 -37 -33 -108l17 -66v-17q-10 -22 -15 -71l10 -66q-35 -81 -109 -102l-90 -16q-54 22 -66 22q-61 0 -132 -25l-16 1q-81 18 -106 20l-70 -20l-86 25q-24 -7 -102 -33z" />
    <glyph glyph-name="M" unicode="M" horiz-adv-x="1653" 
d="M355 -116h-17q-40 32 -58 32l-58 -6q-58 0 -74 93v12q36 31 99 60q22 15 43.5 31t22.5 58l-10 57q30 63 30 75l-20 56q0 12 16 60l-12 52l12 44q0 8 -20 76l21 57l-13 59l16 61q-24 38 -30 56l21 65q-14 35 -19 52l29 61l-38 30v35q-23 40 -99 67q-47 44 -47 55v27
q3 26 76 64l74 23h13l86 -16q45 2 93 20h30q28 -17 56.5 -33t69.5 -29l-30 -67q57 -50 57 -62l-7 -70l49 -47q0 -10 -11 -59l4 -25q23 -37 29 -54l-14 -36v-30q25 -40 48 -57l-19 -55l38 -62l-30 -64v-13l31 -57l7 -77l20 -63l18 -7l21 69q10 32 12 67l3 61l3 13
q16 38 49 109v16l-17 54q28 33 28 67q0 22 -4 27l34 47l-19 76l28 51q0 15 -20 56l-9 10v8q38 28 38 61q0 19 -20 57l21 44q24 38 75 59l125 -24l82 30l61 -19q45 8 60 8q112 -30 114 -95q-8 -24 -26 -38l-53 -13l-25 -36l-50 -26q-7 -43 -7 -64l-26 -54l9 -58l-4 -64
l12 -52q-16 -56 -16 -64q12 -40 12 -48q-12 -48 -12 -64q21 -33 21 -56l-17 -60q0 -9 14 -68q5 -47 20 -92l-13 -111q0 -29 31 -100q4 -7 72 -46q79 -67 79 -91q0 -18 -58 -35l-75 -37q-13 0 -100 14l-65 -24h-28q-49 20 -127 41q-37 24 -61 60q-56 -15 -78 -37
q-46 -46 -130 -46q-24 12 -41 39q-29 47 -38 83q-12 57 -55 92l-2 7q4 26 4 51q0 66 -28 76q0 55 2 109l-31 56l16 57l-23 57l-20 34q8 66 14 88q-19 24 -34 53q13 17 29 36q-50 55 -81 131l-17 -5l-1 -85l-31 -90v-12q27 -38 27 -109l13 -44l-17 -80l13 -40l-5 -36l9 -76
l-9 -65l13 -43l-4 -56q0 -61 92 -80l78 -88q-1 -16 -14 -32q-105 -40 -157 -56q-28 15 -64 23l-35 -5zM995 14q3 -1 7 -1q28 0 75 45l41 19q38 11 38 64q0 10 -1 15q20 34 20 61q-29 39 -29 55l29 44v16l-17 44q0 16 34 48l9 35q-21 0 -55 25v16q37 41 37 56l-25 48
q0 19 25 47v13q0 19 -37 60v16l12 40q0 34 -14 61l4 79l-18 4l-52 -93q11 -18 11 -37q0 -30 -24 -53q2 -23 2 -42.5t3 -28.5q-28 -27 -28 -69q0 -16 4 -29l-1 -17l-26 -41l15 -95q-22 -30 -30 -59q-4 -19 -4 -32q11 -33 11 -43l-37 -67l17 -59l-37 -70l28 -71z" />
    <glyph glyph-name="N" unicode="N" horiz-adv-x="1422" 
d="M543 -82l-44 16l-80 -14l-18 2l-52 19l-93 -23q-59 7 -101 90v13q1 21 80 70q54 15 63 61l6 61l-10 58l8 60l-16 63l17 81l-16 59l20 58l-9 54l16 60l-15 46l11 59l-12 64l12 47q-24 54 -24 69q12 71 12 81q0 29 -37 63l-44 26q-44 12 -77 39v21q6 17 38 50q45 36 77 36
l92 -12q4 -1 13 -1q28 0 97 16h18q32 -27 80 -54q32 -14 32 -30l-7 -53q10 -45 76 -123l-4 -40q0 -17 42 -45l11 -66q22 -21 41 -39l2 -6v-10q0 -17 4 -49l28 -37v-47q44 -54 68 -74l-5 -51l42 -58q4 -69 63 -133q36 0 36 32q0 17 -23 86v15q15 52 15 74q-24 32 -24 52
l22 52l-19 49v19l23 41q0 41 -30 68v3l34 50q-50 51 -50 70l22 43q-23 54 -73 71q-40 22 -74 51q-20 23 -71 23l-8 24q21 29 54 55q56 37 72 37q53 -7 107 -16q36 17 70 24l64 -25l71 8l56 -23l45 4q38 -22 38 -72v-19q0 -12 -77 -55l-49 -36l-22 -31q-22 -24 -22 -62
q0 -8 1 -13l-8 -40l8 -64l-12 -45l-6 -45l14 -60l-12 -81l20 -84l-16 -73v-32q16 -26 16 -41q-14 -76 -14 -89l17 -91l-15 -111l8 -60q-35 -134 -76 -152q-82 20 -120 63q0 16 -29 66q-30 33 -62 44l-4 6l-10 82q-36 33 -50 48l-6 80l-59 46l6 58l-44 60q1 11 1 26
q0 23 -6 45q-41 44 -57 58v47l-5 41q-9 10 -34 26l-24 24q0 13 11 72q-45 41 -45 55l5 33q0 24 -22 24q-33 0 -46 -56l16 -48q0 -4 -13 -72l17 -60q-20 -33 -20 -48l20 -52l-16 -56l16 -60l-20 -68l16 -44l-4 -72l9 -50l-13 -56q20 -59 37 -66l46 -19q23 -4 66 -41
q51 -31 51 -60q-16 -30 -42 -49q-34 -29 -83 -35z" />
    <glyph glyph-name="O" unicode="O" horiz-adv-x="1411" 
d="M793 1359l13 -1q44 -41 85 -41q31 0 71 -51l78 -42l36 -67l47 -57q26 -76 37 -133q48 -94 57 -134l-4 -59l11 -29q7 -35 26 -119l-26 -63l-1 -21l10 -61l-3 -15l-20 -56l-3 -47v-8q-31 -43 -70 -98l-19 -79q-59 -46 -94 -140l-73 -40q-10 -29 -109 -53q-36 -41 -57 -41
l-68 9l-24 5l-16 -5q-11 -1 -72 -13h-12q-48 53 -61 53l-36 -4q-11 0 -56 57l-21 4l-20 -3q-34 31 -76 121h-27q-35 103 -63 134l-18 6l-12 65l-4 49l-19 42q-15 46 -29 88l11 50l-16 45l18 45q4 7 4 17q0 25 -22 59l28 74l-8 44l52 86q18 39 29 110q52 62 60 101
q28 19 48 81q17 20 73 36q33 57 105 57q48 29 63 35q37 -14 48 -14l55 15l48 -8h13zM695 1135l-13 2l-57 8q-61 -9 -88 -37l-22 -22q-81 -28 -81 -91l-7 -54l-4 -7l-28 -35l-4 -14l2 -43l-5 -10q-15 -11 -43 -43q-10 -37 -10 -86l11 -35v-12l-19 -50l32 -61l-1 -63v-7
q0 -47 51 -76v-11q0 -27 17 -55q22 -28 22 -49v-6l4 -33l16 -10l41 -11q24 -35 40 -70q25 -45 86 -45q9 0 60 20q17 0 65 -16h5q23 0 41 27q86 0 142 98l2 11l2 33q19 23 49 58q14 20 26 67v45q0 16 27 59q0 15 -16 40v11l20 51q0 19 -20 47v12l17 51q-10 28 -23 63
q-22 42 -31 54l7 36v19l-46 42l-15 25l4 26v6q-9 41 -44 64l-34 17l-11 27q-50 35 -101 46z" />
    <glyph glyph-name="P" unicode="P" horiz-adv-x="1385" 
d="M697 -95h-13l-53 23q-79 -16 -98 -16l-71 24l-27 2l-77 -19q-27 20 -63 31q-52 -15 -71 -24h-12q-61 28 -84 44q-28 24 -28 52q28 34 45 57q44 39 76 39l76 -22q73 0 81 72l-4 20l16 68l-20 56l21 60q-21 44 -21 60l12 52q0 14 -20 44v16l28 60l-12 56l8 40v24l-16 40
l20 64l-20 64l20 56l-16 57q-8 62 -76 89l-39 41l-58 4l-36 32l-18 11q-9 19 -9 40v9q37 39 105 63l49 30h28l80 -29l95 29q13 -2 96 -34l26 5q68 33 95 33l53 -40q30 4 114 23l17 -2q47 -45 64 -45l58 8q101 -40 123 -93l44 -43q52 -66 54 -110q-8 -36 -8 -46l37 -70v-12
l-27 -49l15 -73q-33 -54 -33 -118v-4l-1 -1q-80 -40 -141 -125q-86 -4 -141 -41h-17q-20 0 -85 22l-34 -8q-16 0 -67 -33h-13q-58 24 -72 24h-36q-35 0 -76 -64l8 -64l-12 -44l20 -52q0 -12 -12 -68q12 -65 51 -87q37 -14 94 -29l53 11q61 -18 94 -94l4 -33
q-55 -33 -143 -63zM671 636l39 12q12 0 63 -11l32 23q10 0 61 -12l28 18q9 1 68 2q112 67 115 120l2 58l23 48q-19 31 -23 44l26 35l-38 29l-26 47q-40 56 -116 75l-38 1q-43 0 -69 -8q-15 0 -71 19l-82 5l-42 -47q-64 -3 -81 -86l22 -56v-12l-21 -61l17 -55v-8
q-28 -32 -28 -52l34 -63l26 -38q66 -27 79 -27z" />
    <glyph glyph-name="Q" unicode="Q" horiz-adv-x="1446" 
d="M1132 -318q-21 10 -38 10l-55 -3l-48 33l-61 -4l-2 2l-22 38l-26 17l-43 9q-6 0 -37 73q-22 47 -107 52q-16 18 -93 23l-37 -4l-53 43l-69 14q-28 37 -62 92l-79 55q-13 72 -49 95q0 50 -55 103v46l-24 60l4 64l-16 68l24 56l-20 79q8 63 40 159q0 19 -4 38l36 64l4 12
l-4 36q47 51 68 96q30 19 52 68q38 15 77 79l27 18q67 12 81 12l63 29l32 -1l48 -10q12 0 55 18h9q44 -24 102 -24q28 0 67 -47l54 -18l24 -44q55 -50 72 -60l-3 -24q0 -68 61 -104l18 -17l-1 -43l4 -37q25 -39 37 -59q-9 -21 -18 -61q2 -21 55 -87v-20l-20 -60l12 -48
l-20 -44l3 -101l-31 -99v-48l-52 -52l-43 -72l3 -45q-29 -23 -67 -48q-42 -40 -42 -70q0 -33 49 -61q36 2 50 8.5t93 74.5q42 33 90 33q42 0 60 -46q16 -39 16 -83q0 -61 -35 -131q-49 -83 -154 -102zM445 250q35 0 47 54q16 14 40 18l37 10l33 38q17 3 39 3q26 0 58 -6
l27 13q28 -10 55 -22l49 4q36 -13 92 -107l49 11l1 61q33 30 33 48v83q28 30 40 68l2 58l19 50v18l-18 52q10 38 10 53q-14 25 -27 36l-1 2l7 43q-36 36 -49 53q-2 21 -2 38q-29 96 -83 113q-2 2 -20 64h-68l-52 40l-63 1q-42 23 -61 23l-29 -4q-42 -25 -72 -49
q-5 0 -82 -41l-21 -70q-47 -33 -47 -69q0 -9 1 -15q-17 -24 -24 -49l3 -56l-42 -49l31 -64l-34 -65l23 -48l-27 -60q34 -48 34 -60q-15 -44 -15 -54l53 -80l-4 -51l39 -31q11 -5 19 -5zM700 112q70 0 92 56v16q0 46 -87 55q-87 -19 -87 -57q0 -34 82 -70z" />
    <glyph glyph-name="R" unicode="R" horiz-adv-x="1491" 
d="M325 -85l-56 12q-16 0 -74 -7l-7 1q-43 34 -43 121v8q4 23 75 48l21 23q37 6 66 20t60 103l1 16l-19 120l22 75l-24 80l1 11q13 69 31 112l1 29q-10 48 -16 96q0 25 8 111q-19 89 -28 108l10 69v2q0 40 -40 59l-156 45q-31 15 -31 67v3q10 12 42 36q43 43 76 43h1
q43 -8 52 -9q79 7 128 29l12 -1q34 -37 51 -37l45 11l31 -9l17 -1l48 27l64 -26l44 7l46 -20q52 26 70 26h1l58 -37l34 5q21 -15 51 -36q5 -10 58 -16q58 -60 102 -82q28 -30 60 -150l26 -49l-14 -51l-2 -94q-29 -29 -57 -85q-12 -61 -15 -69q-18 -8 -59 -30
q-40 -49 -41 -74q22 -52 22 -70v-6q0 -32 17 -93l-1 -102l32 -52l17 -60l50 -43l57 -7q29 -50 79 -52q23 0 53 -86q-6 -56 -79 -77q-9 2 -46 18l-26 1l-49 -9l-5 1q-25 15 -68 34l-100 1l-20 16q-15 20 -39 54l-13 78q-17 75 -17 79q5 26 6 52v11q0 17 -2 30v6q-7 31 -13 44
q8 36 8 59l-25 36q0 70 -24 71l-35 14l-29 38h-22q-36 0 -55 -5q-9 10 -49 34l-38 -6l-36 12h-1q-34 0 -73 -64q14 -33 21 -55q-4 -13 -46 -53q10 -28 39 -66q-1 -16 -15 -29.5t-15 -31.5v-2q0 -31 34 -55q-6 -28 -7 -44q15 -51 65 -52q20 -1 54 -13q26 -23 80 -70
q22 -25 22 -42v-11q-20 -42 -84 -55q-58 -18 -74 -23l-47 23l-28 1q-54 -16 -68 -22l-53 21q-8 -3 -85 -18zM685 726l48 10l47 -9q78 7 91 21l61 -10q44 4 70 47l9 16l1 36l43 52l-3 30l-16 49q0 8 25 43q-7 30 -54 53l-4 52l-31 9q-34 -2 -48 -2q-59 25 -126 41l-55 -24
l-10 -1q-53 23 -62 24l-46 -19l-41 9q-33 -21 -59 -52v-2q0 -25 31 -65v-4l-33 -49l34 -59l-34 -47v-15l34 -62q9 -41 56 -42q14 0 21 2q17 -14 51 -32z" />
    <glyph glyph-name="S" unicode="S" horiz-adv-x="1403" 
d="M783 -97l-42 18l-101 -2q-50 32 -110 54l-39 1q-64 32 -83 32h-4q-19 0 -36 -8q-9 0 -34 -31q-15 -23 -36 -35h-20q-53 22 -82 52l-16 32l23 61l-32 54l22 76l-27 46l5 43l-15 74q16 42 33 83q11 29 18 29h13q34 -32 39 -34l72 -89q9 -65 72 -83q4 -36 27 -82
q5 -8 43 -35q29 -1 45 -2l58 -46l24 -3l80 24l19 -2l66 -31l66 47l83 2l34 22q24 46 26 81l35 44q0 15 -24 67v19l-12 45l-24 44l-45 22q-50 65 -130 67l-59 44l-88 -9l-58 39l-10 1q-36 -7 -47 -7q-31 35 -51 35q-4 0 -74 18l-35 67q-49 40 -81 70l-11 75q-13 40 -13 102
v17q12 126 80 174l40 57l78 19l46 31l67 5q17 15 51 28l55 -13l61 13l39 -20l44 15l13 -1q58 -27 114 -58q44 8 66 31q30 22 44 22q100 -33 102 -113l-2 -65l25 -47l-15 -66l20 -65q-11 -111 -48 -111h-1q-15 1 -93 76l-10 21l-14 72q-45 64 -69 64l-31 11q-7 9 -31 47
q-11 6 -40 13l-47 1q-47 27 -64 28l-23 -10l-37 12q-49 -24 -68 -38l-45 12h-1q-22 0 -47 -49q-71 -14 -72 -65l-2 -3q-22 -15 -33 -53l9 -47l32 -27l-1 -40l66 -26l14 -38l45 -14l53 -45h12q10 0 79 12l34 -29l74 6q10 0 107 -45l127 -19q35 -42 54 -73l51 -17l8 -9
q12 -48 20 -69q14 -29 28 -41l-1 -47l27 -73l-21 -190q-41 -100 -129 -164h-41q-40 -32 -73 -46l-62 -19l-34 7z" />
    <glyph glyph-name="T" unicode="T" horiz-adv-x="1402" 
d="M361 -130q-76 30 -76 144q4 25 11 51q9 24 19 46l16 2q19 -26 61 -26q10 0 56 11l73 -6q89 28 89 100l-1 9l8 37v24q-16 52 -16 60l17 57l-15 69l14 90l-12 63l10 40q0 29 -14 78l-8 39l28 68q-20 39 -20 56l20 51l-20 61v4l12 60q-14 31 -30 51q-14 17 -70 17l-33 -19
l-13 -3l-48 2l-37 -24q-23 -79 -23 -102q0 -13 15 -45l-39 -61l19 -47q-37 -57 -37 -73v-16l12 -32q-20 -12 -72 -68l-16 -4q-31 0 -80 120l-12 52q20 65 20 100l-11 43l14 73l-11 90q9 51 12 98q14 40 109 86q25 20 66 29l71 -28l34 7q64 26 80 26q90 -40 115 -40l22 5
q50 20 82 30q52 -27 69 -27h21q12 0 89 32h13q48 -28 73 -28h31l76 9q31 -4 81 -89l-7 -85l30 -86q-3 -30 -3 -58q0 -63 16 -95q0 -8 -12 -72l12 -56q-36 -80 -75 -115q-25 11 -87 64q-40 33 -40 44q0 20 18 75q0 19 -28 52q0 8 20 73l-25 25v15q12 16 16 43l-7 20
q-52 68 -76 68q-68 0 -100 -56q-68 -7 -68 -44v-25l16 -63l-20 -73l4 -59l17 -66q-2 -38 -9 -92l15 -53q-10 -26 -28 -64l17 -62l-7 -59q20 -49 20 -55q-17 -31 -17 -53l4 -68l-8 -32q8 -58 39 -86q15 -14 40 -14q33 0 80 23q9 0 73 -23l21 -1q47 0 99 17l13 -10l-5 -31
l-15 -57q-10 -87 -75 -107q-41 -15 -107 -32q-65 21 -127 25l-56 -32h-5l-84 39q-48 -3 -93 -23q-23 -12 -29 -14q-46 30 -69 30q-29 0 -132 -44z" />
    <glyph glyph-name="U" unicode="U" horiz-adv-x="1442" 
d="M748 -90l-101 33q-11 0 -99 5l-15 24q-33 18 -62 22l-7 2l-4 22l-75 44l-2 5q-5 45 -50 99l5 37l-36 74l7 57l-20 70l12 65q0 6 -8 37l20 64l-24 68l12 44l-4 36l12 76q-12 29 -12 64l16 56l-16 60l12 52l-26 60l-20 21l-38 18q-48 26 -93 66l-17 22v17q21 29 81 60
l49 26l65 -24l76 20l42 -16q9 0 87 17h11q79 -50 79 -97q-6 -37 -80 -64q-39 -56 -56 -112l-2 -32l16 -52l-26 -69l16 -62q0 -19 -19 -72l31 -51l4 -12q-21 -33 -28 -64q12 -21 12 -48l-12 -58l16 -70q0 -4 -8 -49l10 -44l-6 -45q46 -89 91 -96q31 -66 61 -66l24 4l60 -36
q82 0 99 28l48 -8q48 25 71 71q56 8 70 65l13 42l-11 44l18 40q0 11 -16 74l12 56q0 8 -12 68l8 40l-12 52q0 11 18 61l-13 51q6 6 10 67q0 22 -16 70v22l11 50l-15 39q-16 43 -43 72q-31 57 -110 106l-18 33v9q13 11 25.5 20t25 16.5t24.5 14.5q36 -9 72 -14l71 15l100 -21
l87 17q43 0 84 -41q50 -35 50 -61q0 -17 -22 -33q-50 -45 -91 -67q-39 -16 -71 -76l17 -54l-20 -56l16 -44q0 -12 -16 -60q0 -8 16 -64q0 -4 -15 -64q23 -39 23 -52l-32 -64q24 -50 24 -68l-12 -40l12 -52q0 -4 -13 -65l13 -47q-17 -38 -34 -65q0 -43 -1 -60l-46 -41
l-18 -63l-29 -20q-16 -37 -24 -52l-31 -3q-32 0 -49 -64l-18 -9l-62 13q-65 0 -114 -31z" />
    <glyph glyph-name="V" unicode="V" horiz-adv-x="1348" 
d="M622 -90q-41 0 -63 85q-28 31 -28 83l-31 65l-2 75q-27 39 -46 82q-2 12 -2 37q0 27 3 72q-26 45 -44 97l8 52q-18 45 -56 109l-3 14q5 27 5 56l-1 30q-13 23 -44 70l-3 50l-9 47l-45 89l-8 69q-42 51 -102 62q-80 45 -85 68l-4 11q0 41 62 71l55 26q18 -6 58 -6
q49 0 116 12q102 -30 169 -30q41 0 63 -78q0 -32 -67 -62q-53 -32 -53 -104q0 -19 6 -40q12 -32 50 -84q-12 -59 -12 -75q0 -19 39 -70l6 -13l-1 -41l2 -50q45 -60 46 -78l1 -81l35 -65q23 -42 23 -75q6 -27 26 -27q18 0 37 34l11 76q41 44 47 103v41q25 29 53 67q5 38 5 61
q0 22 -2 29q14 37 44 72q19 27 19 50l-4 29l21 65q4 20 4 38q0 105 -79 165q-31 20 -35 39q0 60 67 75l57 -4l55 19h28q73 -18 91 -19l85 1l61 -21q63 -34 63 -90q0 -27 -94 -52l-35 -13q-47 -19 -55 -53l-5 -44l-37 -64l-7 -87l-35 -82q-13 -39 -14 -116l-35 -66l-16 -91
l-34 -71l-16 -95l-42 -95l-3 -63q-21 -45 -44 -88q-14 -48 -37 -99q-7 -80 -183 -104z" />
    <glyph glyph-name="W" unicode="W" horiz-adv-x="1558" 
d="M582 -89h-11q-70 21 -110.5 58t-72.5 97l10 48l-22 57q0 11 9 57l-31 71l9 48l-26 69l13 48l-43 108l8 66q-3 50 -33 112l8 73l-34 99l4 78l-21 36v40q-12 41 -18 44.5t-34 28.5q-90 27 -90 56q8 107 97 107q22 -16 37 -16l54 20l65 -15q40 11 60 21l51 -28l35 -9
q34 -12 34 -36q-13 -29 -36 -54q-101 -52 -101 -93l13 -34l-10 -38q0 -28 22 -62l-13 -33q0 -18 38 -68l3 -14l-13 -59l26 -48l-12 -43v-24l48 -60l3 -44l29 -67h14q18 0 34 43l3 77l42 62l-29 56l10 20q10 0 10 25q0 16 -12 66l43 56l-1 83l27 60l-7 88l26 52l-4 76l33 26
h18q152 -48 152 -77v-16l-14 -41l38 -43l-18 -79l19 -21q-5 -9 -5 -37q0 -34 26 -67q-9 -34 -9 -46l44 -56v-17l-17 -50l16 -45l-23 -59q54 -56 54 -67q-7 -21 -7 -43q0 -17 5 -35l25 2l11 27q1 15 36 68l-26 42v6q63 60 68 110l-10 44l43 65l-7 92q27 46 50 46l-23 62
q5 17 5 36q0 48 -42 62q-33 20 -61 49q12 69 51 97l19 9q26 0 100 -15l32 7q36 -12 60 -12q55 12 65 12q20 0 79 -41q12 -10 12 -27q0 -7 -1 -13l-26 -38q-107 -64 -124 -115l9 -43q-2 -8 -32 -60l2 -61l-37 -63l-3 -97q-27 -28 -32 -82l3 -84l-35 -102q0 -11 10 -96
q-2 -13 -31 -72l-3 -70l-21 -53q16 -63 16 -73l-51 -94l-16 -60q-19 -48 -50 -48q-125 28 -151 80l-52 68l14 61l-48 53l38 51v25q-23 27 -41 54l12 44l-18 56v12q35 36 35 52q0 15 -39 48v3q22 17 42 64q-44 41 -47 54l28 45v15q-22 38 -22 40q-4 26 -12 52l-21 -1
q-12 -28 -28 -55l16 -32v-16q0 -14 -28 -43v-18q21 -25 21 -42q-8 -32 -23 -61v-17q25 -18 25 -35q-47 -44 -47 -78l30 -41v-11q-56 -41 -56 -101v-16l13 -52l-26 -52l17 -69q-39 -46 -39 -112q-18 -30 -71 -30z" />
    <glyph glyph-name="X" unicode="X" horiz-adv-x="1433" 
d="M239 -79q-53 18 -95 26q-22 25 -26 59q4 55 35 78l120 43q37 37 93 69q45 19 46 91q0 20 78 89l10 40l9 39q22 23 57 55l56 84l6 16q-20 76 -53 108l-35 102l-56 33l-3 4q0 51 -31 92l-54 47l-18 44q-22 39 -83 61l-30 8q-102 27 -134 90l-5 25l1 16q10 17 101 71
q49 -9 99 -16l68 30h21l77 -25l54 14q49 -25 79 -68q26 -21 26 -44l-1 -8q-14 -19 -68 -62q-17 -19 -17 -39q0 -33 41 -62q9 -17 20 -58l45 -38l18 -62q16 -37 43 -37q35 0 83 109l57 30l7 40q40 19 45 71q-5 51 -87 84q-18 23 -18 40q42 58 102 90q2 1 10 1q19 0 59 -10
q54 22 86 26l68 -30l68 14q25 0 52 -41q30 -38 30 -56q-1 -36 -84 -68q-34 -15 -76 -52l-38 -47l-15 -46l-35 -32q-11 -44 -30 -78q-22 -25 -55 -44q-14 -38 -30 -93l-39 -40l-4 -54l-1 -12q-28 -29 -28 -46q0 -4 1 -7q8 -16 33 -45l21 -59q36 -44 80 -70l18 -86l53 -49
l3 -7q5 -75 36 -85q11 -40 82 -53l47 -21q70 -23 81 -84l-1 -6q0 -29 -42 -59q-16 -16 -32 -23q-49 12 -61 12l-26 -2l-80 -26q-32 2 -83 27l-34 1l-74 -17l-30 8l-23 35q-12 22 -18 55v2q14 25 50 46q45 47 51 99l-53 53l-1 43l-43 40q-9 85 -88 86q-65 -45 -74 -116
l-46 -25q-69 -62 -70 -100q0 -25 30.5 -46t83.5 -44l4 -4v-17q-33 -80 -87 -107l-23 -1l-47 9l-76 -23q-26 0 -70 14h-34z" />
    <glyph glyph-name="Y" unicode="Y" horiz-adv-x="1320" 
d="M366 -100l-8 1l-47 40q-31 18 -31 72q1 50 57 71l19 4l56 7l58 31q80 22 90 50t10 44l-4 48q24 42 24 64q0 16 -12 76q12 48 12 64l-20 52l1 55l-30 58l-19 78l-49 53q-13 36 -28 72q-35 41 -59 64l-18 61l-49 56q-5 38 -39.5 75.5t-158.5 40.5q-43 43 -43 66
q28 107 71 107l107 -12l70 23l16 2l99 -15q18 1 74 12l16 -4q32 -10 64 -78l-1 -3q-56 -41 -72 -115q-13 -23 -19 -52q11 -36 24 -52l42 -35l16 -54q23 -30 35 -35l8 -36q0 -25 69 -44q61 47 61 118l3 8q26 10 46 63v42l6 10q32 26 37 59q0 30 -82 101q-17 14 -17 27
q4 38 77 78q8 7 26 7q27 0 78 -17l73 19q26 -25 69 -25q33 0 61 16q31 -17 78 -34q43 -14 43 -64q-6 -58 -54 -77q-36 -10 -71 -18q-62 -20 -112 -81q-9 -64 -13 -73q-56 -42 -56 -110l-36 -41l-8 -20l-2 -44l-1 -2l-44 -41l-10 -65q-45 -26 -55 -78l-5 -13l9 -41l-21 -69
l21 -59l-26 -74q24 -40 24 -76q7 -84 86 -105l53 -17l40 -6l44 -22h42l17 -5q40 -49 40 -83q-22 -44 -38 -50q-33 -30 -112 -46q-6 0 -90 24h-24l-77 -18l-14 1q-74 19 -97 19q-6 0 -67 -20l-26 -1q-65 13 -83 13q-56 -9 -124 -22z" />
    <glyph glyph-name="Z" unicode="Z" horiz-adv-x="1415" 
d="M543 -105l-64 23l-31 5l-93 -20q-20 4 -100 26q-47 -11 -55 -11q-27 14 -27 43l8 45l-12 69q0 21 71 87l22 34l20 78l9 8l39 8q25 10 55 100q72 38 72 72l25 71l52 36q33 54 45 84l63 38q10 8 32 76l68 43l15 22l3 71q33 22 78 55l30 81l6 7q55 15 55 46q0 50 -65 50
l-105 -34l-49 15l-24 2q-82 -32 -101 -32q-54 27 -71 33q-64 0 -90.5 -25t-26.5 -39l17 -60q-33 -47 -33 -58q0 -7 8 -39q0 -17 -30 -65q-40 -55 -83 -66q-74 0 -120 106l29 65q-20 58 -20 65l33 61l7 57q-8 56 -8 68q47 53 78 116l39 18l50 -12h67q12 0 53 28h14l113 -35
l11 -2q48 5 74 29q9 0 97 -24q33 0 98 20h10l59 -27l106 13q33 0 59 -36.5t52 -80.5v-26q-1 -63 -55 -133q-65 -27 -65 -72q-10 -39 -19 -80l-11 -10q-52 -18 -98 -85l-22 -63q-26 -4 -54 -22q-12 -10 -12 -65q-60 -36 -92 -102v-50q-26 -27 -69 -49l-30 -26l-19 -70l-7 -13
q-27 -15 -46.5 -24.5t-33.5 -78.5q-87 -76 -87 -94v-8q0 -27 55 -34q33 2 132 30q55 -4 81 -17l77 27q16 0 62 -29l20 -7h35q18 0 63 23q55 19 69 85l-13 51l24 67q-15 29 -15 52q0 5 24 74l-4 48q10 28 40 28q44 -14 93 -39q37 -26 37 -52l-19 -54l27 -63q-1 -23 -28 -85
l4 -54l-16 -57v-37l7 -42l-35 -94q-43 -43 -72 -43l-51 19q-45 -7 -74 -15l-29 -3l-61 17l-68 -18l-57 8l-76 -18q-51 13 -67 13z" />
    <glyph glyph-name="bracketleft" unicode="[" horiz-adv-x="703" 
d="M509 -129l18 -64l-43 -15q-95 27 -144 89q-41 46 -89 113l-40 41l-9 86l-60 84l-6 127l-6 34l-59 129q19 76 33 156l-21 90l9 46l20 50l-9 95l34 84q20 29 41 103q2 73 25 88l49 41l28 67l59 55q63 43 120 77l54 -7q20 -9 20 -21v-5q0 -58 -79 -174l-33 -100
q-88 -69 -88 -114v-3l4 -18l1 -27q-30 -53 -30 -62q1 -15 17 -50q-21 -40 -51 -128v-33l22 -64l-27 -62v-13l32 -83l-13 -33l-11 -59l18 -42q2 -72 63 -112q23 -86 25 -101l48 -48q2 -36 29 -77t49 -140z" />
    <glyph glyph-name="backslash" unicode="\" horiz-adv-x="1294" 
d="M138 1566q44 -4 70 -27q69 -38 79 -89q34 -64 76 -108q9 -40 42 -123l12 -26l69 -85l23 -80q12 -37 52 -68l47 -59l13 -87q24 -50 74 -121l48 -51l22 -86q24 -85 103 -146q30 -113 106 -185l10 -44l31 -62q70 -66 74 -91l16 -38q19 -42 19 -96q0 -40 -40 -84h-16
q-85 37 -116 64q-46 127 -108 180q-8 70 -43 135q-41 34 -76 79l-59 125l-87 120l-45 104l-43 54q-33 27 -55 56l-18 49l-27 82q-11 13 -40 43q-22 19 -28 30l-24 84l-34 41l-14 12q-10 48 -43 98l-28 26l-25 26q-18 76 -28 95q-36 51 -57 73q0 94 4 94q8 86 50 86h14z" />
    <glyph glyph-name="bracketright" unicode="]" horiz-adv-x="709" 
d="M87 1352l-16 48q9 29 39 32q96 -25 145 -87q43 -44 91 -112l41 -40l11 -86l62 -82l7 -128l5 -34l63 -128q-18 -75 -32 -156l24 -89l-8 -47l-21 -49l12 -96l-32 -85q-20 -29 -40 -103q-1 -73 -23 -89l-48 -41l-28 -69l-57 -55q-63 -43 -120 -76q-27 -13 -43 -13
q-10 0 -20 10t-11 27v5q0 59 77 176l31 99q85 70 85 114v5l-3 18l-2 27q29 54 29 63q-2 15 -17 50q20 40 47 128v34l-23 63l27 64l-3 13l-32 81l14 33l9 60l-18 41q-4 72 -65 111q-25 87 -30 101l-46 47q-3 36 -31 76.5t-50 138.5z" />
    <glyph glyph-name="asciicircum" unicode="^" horiz-adv-x="938" 
d="M733 1399l-36 4l-54 23l-52 35l-32 12l-7 6q-17 24 -46 53q-40 20 -59 23l-18 1l-47 -20l-20 -26l-47 -28l-36 -36l-54 -18q-53 -30 -97 -36q-18 6 -18 44q0 11 8 34l19 50q10 15 27 42l58 45l32 47l77 42l46 35l15 14q52 22 82 33h7q22 0 44 -15q33 -22 74 -54l22 -37
l60 -50l9 -9l17 -38l57 -53q29 -42 36 -65l9 -34v-4q0 -22 -44 -22q-14 0 -32 2z" />
    <glyph glyph-name="underscore" unicode="_" horiz-adv-x="1293" 
d="M857 123h4l41 -9l36 -3l53 -1q33 -3 62 -14q42 -19 67 -59l3 -16q-9 -70 -80 -110q-39 -6 -88 -25h-10l-95 14h-8q-40 0 -111 -19l-56 11h-50q-12 0 -91 -12h-8l-92 20l-48 4q-41 -4 -89 -17l-15 -2l-59 12q-43 3 -90 9q-46 27 -62 84q16 72 54.5 92t101.5 32
q51 -11 108 -11q15 0 90 13h19q71 -19 82 -19h24q37 0 104 19h8l56 -12h13q40 0 76 6z" />
    <glyph glyph-name="grave" unicode="`" horiz-adv-x="730" 
d="M146 1806q29 6 66 6q44 0 91 -7l28 -28l58 -31l1 -4l16 -62l66 -52l3 -5l10 -53l34 -36l9 -7q18 -35 28 -67q4 -12 4 -27q0 -17 -4 -29l-11 -6q-98 9 -119 23l-53 36q-4 2 -65 25l-9 6l-35 46l-79 31l-4 4q-16 32 -31 53q-50 33 -59 46q-21 37 -21 65q0 15 10.5 38.5
t65.5 34.5z" />
    <glyph glyph-name="a" unicode="a" horiz-adv-x="1344" 
d="M519 -18h-16l-48 28l-60 -4q-51 37 -96 44q-32 12 -84 139l-40 51l4 59l-4 27q0 71 55 115l37 74q68 14 94 27q30 7 54 30q51 2 92 30l81 -21h15q16 0 45 22l20 8l57 -16q26 3 67 35q14 -8 34 -8q13 0 33 9.5t20 38.5l-4 26l12 37q0 38 -62 76l-53 13q-56 32 -80 44h-35
l-49 -14l-12 -1l-58 15q-70 -28 -93 -60l-16 -43l-1 -28q-11 -39 -43 -73q-43 -33 -85 -33q-8 0 -13 1q-73 19 -108 73l4 51l-4 48q0 35 75 88l22 41l59 27l43 41l75 7l56 25l14 2l50 -9l47 3l72 14l72 -11q18 -10 55 -16q42 -52 104 -52q52 -53 96 -80q12 -18 32 -88
l48 -116v-4q-24 -52 -24 -83q0 -16 20 -119l-20 -74l12 -48q0 -12 -16 -59q24 -87 36 -101l76 -56q43 -47 44 -76q-1 -25 -60 -56q-14 -1 -29 -1q-59 0 -102 8t-89 55q-11 6 -21 6q-29 0 -70 -31l-46 -35l-45 6l-69 -19q-61 7 -76 7q-50 0 -101 -16zM518 161l84 29h17
l57 -21q78 37 151 61q37 24 56 60q0 12 -16 68l51 57l-87 51h-16q-18 0 -88 -44l-20 -4l-100 32h-20l-88 -40q-4 0 -58 15q-51 -59 -86 -71l-28 -80q0 -37 60 -72z" />
    <glyph glyph-name="b" unicode="b" horiz-adv-x="1291" 
d="M809 -25l-113 15q-88 -13 -104 -14q-64 34 -136 58h-22q-51 -19 -98 -25l-51 -4q-19 1 -33 28q1 11 1 23l15 73l-13 34v11l16 72l-17 79l13 59q0 13 -15 99l9 60q0 16 -7 59l13 73l-11 51l14 96l-12 73l9 49l-19 91q4 20 4 28q0 112 -81 113q-76 28 -100 82v24
q1 27 84 98l59 -3l24 2l31 4q47 -17 102 -22q72 -40 72 -145l15 -55q-10 -50 -18 -103q0 -50 52 -70q48 0 110 43h9l53 -30l112 15q19 -1 59 -36l19 -8q41 0 69 6l16 1q19 -21 24 -70q98 -66 98 -86q6 -55 31 -80q15 -14 26 -75q27 -30 28 -61l-9 -49l16 -63l-13 -61l3 -45
q-22 -132 -77 -196l-21 -73l-44 -17l-67 -82l-8 -3h-53q-18 0 -64 -43zM659 187q50 27 126 35q27 39 81 50q24 16 24 55l47 54q-13 27 -17 49v6q36 26 42 42l-21 66q21 30 21 43q0 19 -41 58q2 6 2 23q0 16 -5 33l-22 30q-26 80 -91 81q-38 42 -48 42l-48 1l-60 16
q-89 -11 -179 -79q-10 -27 -10 -51q0 -19 2 -30q-23 -32 -23 -75q15 -36 15 -61l-9 -37l7 -64l-4 -36l19 -76l-13 -51q0 -32 55 -66q90 -54 150 -58z" />
    <glyph glyph-name="c" unicode="c" horiz-adv-x="1184" 
d="M466 -3q-13 0 -59 43l-58 14l-7 8q-17 46 -37 83l-86 58l-8 14l-12 66l-50 96q-1 67 -1 97q0 4 -16 64l16 45l16 136q37 39 50 103q68 53 137 130l91 56q47 0 78 12q24 7 46 17q20 -1 65 -11q55 0 79 12q53 -32 69 -39l47 -6q29 -26 79 -81q60 -48 85 -91q29 -31 29 -97
q0 -36 -9 -69v-8q-20 -64 -99 -83l-37 -9q-38 0 -84.5 47t-49.5 57v11q-6 19 -6 35q0 35 29 82q-22 81 -127 81l-31 -1l-36 -29l-61 -11l-47 -52l-49 -20q-41 -48 -41 -94q0 -10 1 -14l-26 -53l11 -69l-4 -70l9 -41q19 -82 79 -98q15 -56 68 -96l57 -8q27 -18 62 -27
q84 0 114 48q50 0 104 61q20 6 84 50q37 16 75 18q17 0 17 -95q0 -107 -50 -135q-75 -34 -110 -100q-5 -1 -26 -1l-40 2q-47 0 -82 -21l-24 -15q-10 0 -94 14q-51 -8 -130 -16z" />
    <glyph glyph-name="d" unicode="d" horiz-adv-x="1345" 
d="M482 -14q-30 11 -63 30l-64 18l-22 40q-25 22 -76 35q-13 18 -25 65q-11 39 -31.5 68t-34.5 58l-2 66l-25 41l5 72l-15 58l33 59q-9 50 -9 60q51 81 51 104l13 79l69 56l53 63l81 29q88 8 122 37q6 0 51 -10q27 0 88 -12l96 -56l28 -4l84 64l-43 57q0 14 32 65
q-56 62 -114 68l-65 -19q-11 2 -72 31q-62 20 -80 39l-7 22q0 64 17 67l21 5q68 20 101 36l71 -10l79 14l62 -14l75 11q42 -13 63 -123l-4 -48l19 -65q-14 -47 -15 -66l8 -46q-4 -15 -12 -93l15 -72l-22 -78l19 -65l-12 -56l16 -64v-16l-16 -56v-18l24 -52l-16 -70l13 -76
q-9 -28 -9 -55q0 -41 55 -70q60 -17 109 -90v-13q-25 -63 -76 -88q-9 -3 -23 -3q-25 0 -65 11l-60 2l-47 25l-40 14q-14 4 -28 4q-19 0 -35 -8l-59 -33h-8q-39 0 -95 -22l-87 7zM600 149l40 35q5 0 62 -9q25 18 34 52l65 30q23 25 48 66v15q-14 31 -20 42q2 8 36 50v16
q-32 42 -32 60l44 49l-42 41q0 3 28 80l-49 50l-1 8l17 29l-5 27l-53 9l-35 45l-65 -38h-15l-52 48q-63 -8 -117 -69q-74 -25 -98 -69q-8 -41 -15 -62q-39 -43 -47 -76l31 -37l-1 -8l-37 -34l20 -34l34 -19v-6q-22 -16 -30 -57v-25q16 0 48 -24l8 -12q-4 -28 -4 -40
q0 -26 91 -67q43 -46 112 -66z" />
    <glyph glyph-name="e" unicode="e" horiz-adv-x="1216" 
d="M624 -28q-46 21 -114 21q-13 0 -96 21l-47 43l-80 48l-39 76l-47 69l-7 48q-17 19 -23 45l4 29q0 22 -24 96q12 31 12 56q0 4 -12 52q0 4 16 64l-8 36l32 88q0 38 56 76q33 62 84 91q53 43 55 62q5 9 129 31l64 26q47 -6 96 -22h28q50 0 148 -56q44 -43 99 -71l41 -67
l46 -49l2 -35l24 -34v-68l16 -48v-17q-34 -146 -68 -146q-32 20 -56 20q-13 0 -30.5 -4.5t-33 -14.5t-44.5 -17q-13 5 -82 19l-45 -25q-16 12 -53 22q-24 -12 -55 -17l-80 32q-15 0 -82 -3q-22 -12 -62 -54l-2 -15l10 -57l24 -28q52 -79 119 -79q47 -28 76 -28q26 0 53 4
l50 23q10 -2 23 -2q52 0 58 26q17 0 51 9l28 30q100 25 123 27q18 0 32 -8q19 -20 19 -42q-13 -55 -22 -77l-9 -37l-25 -12q-42 -10 -42 -60l-3 -4l-71 -18q-11 -4 -46 -40q-73 -7 -101 -7q-71 -28 -109 -28zM461 612q52 14 89 21q32 -17 58 -17l30 12l40 -14l60 20
q10 0 39 -10h36l34 -5q26 13 26 37v26q-3 60 -46 83l-48 47l-44 7q-27 40 -82 54q-53 0 -98 -21q-63 -20 -85 -56l-8 -6q-62 -47 -68 -95l-12 -50q9 -33 79 -33z" />
    <glyph glyph-name="f" unicode="f" horiz-adv-x="1358" 
d="M196 -56q-47 19 -47 103v7q11 74 83 103q24 12 47 18l104 -17q81 9 82 74l-11 48l9 71l-7 46l8 81l-11 74q0 12 17 72l-12 63q3 10 3 22q0 16 -6 29q-18 36 -50 37q-17 0 -23 -7l-7 1q-27 21 -59 21q-18 -1 -73 -15l-10 1l-93 31q-18 20 -18 35q17 94 54 113q19 10 66 28
q27 -15 48 -15h6q20 0 33 6l46 -16h3q44 0 62 24l4 10q1 6 1 13q0 15 -7 31l4 11q23 27 23 35q6 33 6 38q31 23 52 82q53 78 136 124l57 8l33 23l66 9q49 15 68 15l59 -14l49 -5q51 -1 118.5 -28.5t122.5 -88.5q32 -46 66 -118q-1 -35 -4 -70l-18 -33q-10 -64 -103 -90
q-4 1 -67 21l-21 -3q-61 46 -85 103l-18 83q-54 41 -81 41q-61 -6 -69 -28l-7 -1l-40 3q-21 -2 -36 -16l-20 -38l-12 -5q-46 -34 -47 -82q0 -40 34 -41q7 0 23.5 5t22.5 6q34 -24 53 -25l35 8l29 -8q30 -3 59 -9q29 -11 32 -30q19 -27 19 -64q-1 -56 -78 -68
q-68 -24 -85 -24q-59 26 -78 26q-42 -5 -93 -66l10 -56q-12 -21 -13 -48l20 -62l-11 -67q0 -17 12 -85l-9 -37v-1q0 -11 13 -74q0 -7 -9 -84l42 -39q53 -19 76 -19l33 13l50 -6l42 23h4q92 -79 92 -146v-1l-1 -10q-13 -25 -89 -55l-61 10l-65 -20l-98 25q-68 -30 -93 -30
q-39 17 -115 34q-11 0 -61 -35q-8 0 -84 22l-40 1z" />
    <glyph glyph-name="g" unicode="g" horiz-adv-x="1427" 
d="M530 -400q-59 31 -86 31t-49 -5l-30 -4q-16 5 -86 50l-47 43q-54 29 -75 65l-33 96v4l28 128q9 47 76 105l24 59q0 19 -32 84q0 4 36 132l36 68l24 27v13l-20 61l12 53l-20 61q23 47 23 101q0 19 -1 26q62 55 62 114q50 15 84 63l75 37l66 -4q57 7 114 23q35 -10 64 -25
l79 -13l37 -23q26 -11 47 -11q40 0 62 30q36 23 54 23q22 5 47 5q27 0 56 -5q89 -71 116 -136l9 -35q0 -80 -36 -110q-21 -27 -71 -27q-39 0 -55 12q-16 44 -45 44q-12 0 -26 -11q-10 -34 -21 -83q8 -45 8 -50q-20 -47 -20 -61l-6 -48q-35 -28 -43 -81l-39 -13l-35 -32
l-54 -34l-57 -8l-28 -23l-52 5q-44 0 -71 -11q-10 13 -51 13q-19 0 -42 -5h-13q-48 21 -78 21q-43 0 -43 -46q0 -44 10 -76q20 -27 47 -27l25 10q25 13 49 22q48 -20 61 -20h36q12 0 71 29q11 0 42 -11q68 -10 103 -10q66 16 86 16q20 -14 60 -35l53 1q26 -33 70 -33h5
q114 -90 114 -143l12 -80l-24 -92q0 -22 -40 -76q-35 -53 -157 -105q-27 -3 -53 -8q-7 0 -48 -27q-14 0 -58 9l-90 -26l-72 1q-23 -1 -56 -10l-65 13zM710 465q40 10 49 18.5t20 28.5q44 14 78 68l10 57l-5 46q5 18 5 40q0 23 -6 51l-10 10l-45 1q-26 25 -53 42
q-18 0 -41 -6l-13 4q-3 22 -21 36l-71 -21l-54 5q-19 -28 -22 -30q-46 -15 -54 -54q-38 -66 -38 -81q18 -67 41 -82q18 -11 32 -21l-2 -41q30 -66 83 -66l18 1l28 9q24 -6 52 -15h19zM837 -240q30 14 42 21q20 14 41 27q20 -4 28 -4q22 0 64 44q64 0 72 76v8q0 44 -52 76
q-40 0 -96 52q-41 0 -99 29q-25 4 -50 4q-65 -13 -91 -13q-73 14 -85 14q-34 0 -76 -30q-71 0 -89 -28q-40 -10 -74 -31q-20 -21 -20 -45l-21 -27v-21q10 -48 38 -69l16 -3l24 3q10 -3 63 -43l13 -4l31 8l47 -16q19 1 40 6q23 -15 50 -30q41 2 101 17q58 -17 83 -21z" />
    <glyph glyph-name="h" unicode="h" horiz-adv-x="1475" 
d="M1119 -25q-12 0 -79 13l-63 -1l-58 12q-47 12 -47 79v8q0 22 26 37l53 21q35 26 49 52q7 12 7 31q0 20 -8 48l9 53q0 26 -15 71v12q23 45 23 61l-19 48q16 11 30 58q-20 52 -42 75l7 46q-19 73 -63 73q-10 3 -28 3q-16 0 -31 -2q-25 10 -58 10q-15 0 -132 -23l-37 -39
l-10 -7l-69 -22l-41 -67l9 -69l-16 -40q0 -16 24 -52q0 -15 -25 -41l-3 -20l20 -35v-16q-16 -40 -16 -64l20 -52l-1 -41l9 -12q27 -15 111 -61q6 0 16 -44q1 -6 1 -12q0 -43 -38 -62l-46 -15q-63 8 -75 8q-4 0 -79 -11l-62 10q-15 -4 -74 -15h-12q-19 0 -60 11q-62 8 -62 60
v32q3 36 44 52l43 16q49 12 92 62l-7 43l21 91l-22 90l9 82v53q-8 7 -16 59l14 62l-7 49q3 22 10 37l-15 74v70l-14 57l4 47q-2 60 -17 90.5t-55 46.5l-40 33l-41 11q-27 65 -31 77q11 68 80 68q23 -6 43 -6q23 0 41 9q76 -13 106 -24l40 11l14 -3l44 -31l21 -37l13 -86
l-12 -80l13 -58l-13 -61q2 -38 36 -38q12 0 31 8l44 26l12 1l33 1q23 6 50 29l22 4q13 -3 25 -3q15 0 29 4q72 12 92 12q49 -24 76 -24q72 0 187 -121q14 -71 45 -114l-7 -81l14 -66l-16 -80l11 -94l-1 -7l-18 -66l18 -82l-6 -53q2 -25 7.5 -36t70.5 -58q71 -39 71 -66
q0 -5 3 -25v-4q0 -19 -28 -48q-37 -16 -62 -25l-81 6z" />
    <glyph glyph-name="i" unicode="i" horiz-adv-x="1129" 
d="M538 1154q-69 3 -108 61q-37 45 -37 117q0 27 21 58q36 66 54 70q51 23 111 23q21 0 40 -3q114 -29 114 -161q-7 -49 -30 -87q-14 -38 -74 -65q-26 -10 -58 -12zM191 -14q-51 68 -61 134q2 52 82 66l84 22q12 0 111 -26h1q49 0 86 70l-3 56l16 56l-10 48l9 56l-15 60
l20 46l-13 56q0 21 17 60q0 10 -11 66l13 36v1q0 26 -59 52h-13q-70 0 -135 -20l-87 41q-79 27 -79 61v1q2 97 134 97h8l137 25l94 -7l57 5l10 -2q35 -29 64 -42l37 -61q10 -67 14 -81l-6 -58l11 -60l-13 -48q0 -16 11 -68l-22 -48q0 -22 19 -61l-9 -51l11 -64v-4l-10 -49
q23 -47 24 -51l-8 -39l14 -36q38 -47 63 -47h3q39 0 121 25h12q42 -29 99 -46q35 -27 35 -53v-1l-16 -58q-15 -53 -44 -70l-67 24l-45 -12l-50 22l-48 -15q-24 0 -69 25q-70 -21 -79 -22l-43 21l-23 1l-36 -20q-16 1 -57 17l-55 -4q-28 -15 -51 -15h-3q-28 12 -78 14
q-41 0 -82 -21z" />
    <glyph glyph-name="j" unicode="j" horiz-adv-x="1167" 
d="M763 1098q-13 0 -29 2q-81 0 -117 65q-25 54 -25 101q0 16 6.5 52t48.5 70t91 38l37 -1q116 -4 166 -133l1 -33q0 -37 -13 -73q-38 -57 -81 -69q-38 -19 -85 -19zM501 -407q-68 13 -136 24l-44 45l-46 19l-36 46q-43 31 -52 39l-14 61l-43 57v20q8 32 8 48l-16 60
q38 127 63 133q46 21 68 37l25 10h16l59 -30q41 -20 41 -48l25 -45q1 -7 1 -18q0 -20 -5 -39q-11 -24 -38 -42q-69 -30 -69 -72q0 -9 2 -14q0 -30 56 -50q30 -62 101 -66q98 18 110 56l2 1q53 0 69 18q19 20 24 69l33 25q19 17 19 46q0 17 -5 34q10 56 11 71l-4 64l16 53
l-16 63l15 60l-16 105q16 65 25 112l-20 59l8 56l-12 48l9 71q-34 45 -83 45q-71 -32 -91 -32q-45 36 -60 36l-77 -9q-49 21 -59 21q-28 0 -91 -20h-4q-112 50 -112 88q0 24 27.5 37t103.5 33q4 0 68 -14h40l76 36q5 0 89 -16q52 0 96 28l28 8q98 -28 120 -28q20 -8 96 -79
l8 -20l-8 -66l16 -59q0 -4 -16 -68q16 -56 16 -60q-8 -32 -8 -48l20 -52l-20 -48l16 -56v-16q-8 -44 -8 -64l12 -40v-16l-12 -40q0 -8 12 -64l-20 -56l16 -64l-16 -64l8 -52l-32 -132q-10 0 -34 -90l-49 -34l-17 -29l-12 -8l-46 -10l-36 -34q-9 -3 -68 -3l-45 -22l-29 6z
" />
    <glyph glyph-name="k" unicode="k" horiz-adv-x="1411" 
d="M731 97q87 37 87 72q0 37 -53 55q0 76 -31 88q-18 12 -39 20q-8 39 -74 94q-37 0 -77 -37q-30 -26 -35 -43l8 -44l-21 -56q17 -44 17 -81l52 -34l44 6l6 -1q33 -21 116 -39zM246 -25q-16 0 -70 20q-34 30 -37 57l3 37q6 7 33 19q33 26 50 30q66 0 91 21.5t25 46.5l-8 44
l7 62q-10 32 -11 51q16 39 16 59l-20 48q0 4 16 52l-12 56q6 53 6 65q0 6 -14 59v17l28 41v14l-28 48l16 45v15q-16 48 -16 60l16 48l-19 54q6 25 10 60q-7 51 -67 66q-67 12 -119 62q-28 24 -33 45q0 38 131 76l18 1l68 -16l90 12q52 -11 62 -77q20 -29 27 -73l-12 -43
l16 -75l-16 -52l16 -48l-20 -48l24 -56v-8q0 -9 -36 -57q28 -50 28 -75l-24 -44l16 -44v-15q-4 -11 -4 -23q0 -26 20 -38q6 -6 17 -6q30 0 58 65l64 32l14 49l61 34l18 17q24 20 24 51q0 27 -20 62l-20 54q3 30 58 48l14 2q88 -10 113 -10l51 26l16 2l89 -27l57 17
q14 -1 60 -12q66 -14 110 -105v-7q-81 -84 -106 -84q-5 0 -103 28h-47q-17 0 -34 -28q-25 -45 -36 -49l-84 -26q10 -53 10 -61q-3 -7 -52 -24q-11 -11 -16 -60q-28 -12 -28 -32l29 -102l71 -42q9 -93 96 -116q11 -5 28 -69l25 -15l38 -7l26 -41q23 0 53 -21q30 8 48 8t24 -8
l26 -51v-4l-24 -48q-35 -19 -91 -27q-15 -3 -28 -3q-41 0 -79 12l-53 -14l-42 12l-60 -5l-34 19q-45 -17 -62 -26h-10q-12 6 -65 56l-16 4q-12 0 -100 -60l-32 -4l-100 32h-20q-47 -32 -78 -32q-18 13 -51 26q-53 -29 -74 -29z" />
    <glyph glyph-name="l" unicode="l" horiz-adv-x="1230" 
d="M962 -40q-56 28 -75 28l-19 2l-113 -29q-9 0 -71 22l-24 2q-17 0 -80 -17l-101 21q-48 -5 -97 -18h-20q-37 10 -73 10q-37 0 -65 -10l-45 15l-56 24q-17 22 -17 104q5 21 52 44q26 16 73 28h7q61 -22 97 -22l68 32q17 0 63 -25q41 18 54 46l10 32v21l-16 53l18 91l-17 52
l9 71q-8 60 -15 66l12 80l-10 74l14 62q-6 37 -15 72v19l19 56l-27 64l4 36q-21 92 -68 92l-39 2q-49 -8 -64 -13q-40 15 -61 15q-48 -12 -56 -12l-68 36q-72 11 -72 56q59 113 135 131q7 0 52 10l53 23q56 -16 152 -28l68 16l119 -32l64 -85q0 -10 -11 -81q0 -6 21 -72
l-11 -80l16 -45q-26 -84 -26 -97q17 -45 25 -91l-13 -25l-8 -35l10 -65q5 0 14 -29q-14 -41 -23 -93l23 -63l-20 -66q14 -67 23 -94q-17 -43 -17 -77q0 -26 11 -54q35 -48 74 -51l76 32l74 -24q63 18 67 18l27 -10q42 -12 83 -27q22 -30 22 -89q0 -22 -3 -40
q-22 -23 -68 -34q-107 -25 -125 -25z" />
    <glyph glyph-name="m" unicode="m" horiz-adv-x="1571" 
d="M348 -15q-17 0 -120 33q-75 8 -75 73l1 16q25 66 69 85q79 25 84 90l-11 75l13 66q-12 36 -15 62q3 15 13 59l-8 66l9 41l-12 54l9 43q0 47 -42 66q-47 18 -68 38q-23 40 -23 75v3q0 10 2 19q26 81 81 81h1l52 -17q45 8 69 15l40 -15q48 -21 80 -25q59 23 150 46
q46 -1 163 -38l30 -5l62 14q36 10 98 23q15 1 33 1h19q61 -25 115 -33q35 -7 115 -117l31 -116l-13 -41q0 -7 19 -84l-8 -56l8 -44l-22 -63q16 -33 16 -56l-13 -50l9 -56l-14 -48q0 -57 107 -109q39 -47 39 -79v-2q-19 -66 -61 -77h-19l-74 17q-24 0 -111 -27q-8 0 -95 24
l-57 9q-54 -27 -79 -27l-116 18l-61 -19q-27 12 -146 17q-49 -16 -69 -22q-81 24 -125 24zM618 142q16 7 47 23q42 15 43 66q0 17 -4 35l11 47q-6 35 -23 52l1 16l22 44l-21 64q13 20 13 57v5q0 23 -8 47v5l9 30l1 17l-13 50l17 49q-28 62 -87 85q-15 0 -69 -63
q-68 -26 -69 -68l16 -51l-13 -49l15 -59q0 -21 -9 -67l9 -46l-21 -68l15 -68l-9 -35v-21q19 -56 68 -56l43 -41h16zM1020 133l39 47q27 14 57 52q-1 36 -3 59l-11 43q0 17 13 77q0 7 -17 70l20 68l-19 36q0 30 12 120v3q0 46 -29 79l-26 18l-27 9l-52 -30q-45 -17 -56 -73
l-38 -59l26 -68l-18 -56l21 -43q-4 -10 -11 -50l19 -59l-8 -54l8 -54l-9 -39q4 -46 44 -51q23 -7 65 -45z" />
    <glyph glyph-name="n" unicode="n" horiz-adv-x="1481" 
d="M1100 -9l-59 27q-75 0 -140 -24q-16 0 -72 60q-40 20 -48 36v14q5 28 47 65l85 32q55 23 71 75q0 30 -15 53q0 5 16 61q0 24 -4 48q12 25 12 56q-8 44 -8 56l12 48q-20 53 -20 72l5 43q0 7 -28 68l-33 33l-39 14q-27 38 -49 42l-60 -12h-32l-52 -44l-47 -20l-36 -48
l-46 -13q-11 -2 -29.5 -27.5t-24.5 -76.5l7 -35l-26 -58l24 -50l-16 -50q14 -45 26 -89q-3 -15 -24 -45q0 -33 7 -59q18 -36 59 -54.5t60 -18.5q47 -21 54 -83q-34 -50 -60 -69h-84l-70 -24l-82 19q-27 0 -88 -19l-79 29q-40 2 -57 39q7 74 67.5 100t70.5 54q15 21 29 73
l-14 49l1 10l21 49l2 21q-25 40 -25 52l17 44q-21 42 -29 64l16 44l-16 67l28 57q-6 26 -52 59q-36 29 -96 37q-28 18 -28 78q10 56 39 65l21 -7h20q28 20 52 20h48l58 12q22 0 63 -29q43 -6 58 -17q10 -8 27 -8q28 0 88 31t98 31q29 24 73 24q89 -5 171 -36l67 -14
q15 -13 28 -51q82 -58 89 -136l32 -159l-16 -136q12 -60 12 -64l-13 -72l22 -47q-5 -46 -5 -54q33 -61 109 -91q66 -22 75 -55v-1q4 -18 4 -36q0 -48 -63 -91l-93 11q-57 -8 -113 -19z" />
    <glyph glyph-name="o" unicode="o" horiz-adv-x="1251" 
d="M599 -46q-17 0 -94 36q-56 6 -139 46q-43 59 -105 93q-25 52 -52 90q-30 57 -44 91l-20 127l8 66l-8 61l12 50q0 40 2 80q0 11 45 70q34 53 41 94q116 120 168 120q43 32 116 47l73 21h18q55 -7 120 -28q52 -3 105 -48q51 0 176 -161l59 -105l9 -121l12 -108
q-17 -133 -56 -249q-53 -74 -83 -112q-23 -45 -40 -69l-72 -21l-49 -42q-44 0 -87 -2q-14 -13 -115 -26zM628 139q6 0 57 17l40 29l56 20l34 42q55 27 71 85l-1 78l27 63l-18 41l5 68l-25 62l-16 80l-54 53q-31 57 -96 85l-87 9h-12q-104 -12 -146 -74q-63 -42 -63 -65
l-18 -51l-37 -52l-12 -100v-39q0 -97 35 -135l27 -36l9 -38q0 -39 72 -86l61 -14l57 -37z" />
    <glyph glyph-name="p" unicode="p" horiz-adv-x="1334" 
d="M446 -392q-8 0 -71 19l-30 1l-88 -12l-69 25q-35 16 -35 38v48q0 48 76 48l68 24q24 13 33 55q-13 40 -13 69l16 64l-8 60l12 56l-16 56l4 56q0 47 -35 80v12q19 57 19 67q-25 116 -25 140l18 55l-1 26q-11 34 -23 65l-1 9l12 71l-42 59l-59 27q-39 14 -39 55l-12 58
q0 54 136 72h28q17 -12 32 -12l36 4q42 0 72 -43l24 -13q49 0 112 52q74 12 114 35l11 1l50 -15l65 6q18 -5 56 -30l126 -45q34 -46 49 -91q81 -70 93 -90q10 -86 56 -163q0 -8 -20 -64l16 -44v-8l-15 -93l7 -71q-53 -76 -61 -142q-8 -18 -69 -55q-54 -28 -54 -97l-11 -6
l-70 2q-52 -42 -64 -42l-52 -7l-9 -7l-49 18q-64 -19 -83 -19l-38 11l-45 5l-55 15l-52 -68v-24q20 -30 20 -52l-16 -44q0 -27 72 -60l27 -2l71 -20q19 -7 20 -53l-2 -44l-46 -23l-80 9q-52 -5 -93 -14zM741 123q20 0 52 32h32q36 0 36 60q15 12 28 12l32 -4q23 0 36 64
q36 24 36 50l-20 48v3l35 55l-35 65v3l34 41q-38 45 -38 63l12 44v17q-32 46 -91 74l-25 51l-67 10l-37 30l-63 4q-48 -1 -92 -35l-6 -2q-49 -7 -103 -82l-6 -38l15 -37q-25 -28 -25 -52l16 -40q-9 -22 -33 -53l45 -59v-5q-32 -41 -32 -64q0 -25 28 -67q0 -59 64 -120
q28 0 88 -48q28 0 84 -20z" />
    <glyph glyph-name="q" unicode="q" horiz-adv-x="1320" 
d="M708 -396q-35 0 -59 87q21 54 73 54h2q135 3 136 85q0 11 -1 18l21 54l-15 32l3 25l-28 24l-38 -13l-61 5l-41 -37h-1q-14 17 -46 28l-37 -5l-30 -11l-54 18l-41 -8l-28 28q-53 -2 -77 -7q-7 0 -35 56q-64 16 -64 25q-10 2 -23 73q-38 58 -71 84q-6 18 -6 56v12l-31 61
q0 17 9 61q0 8 -16 85l10 55l-7 48l20 70l16 91q1 12 54 54q23 33 39 80q37 34 98 58q56 28 129 73h10q81 -13 141 -14l60 11q24 -1 83 -50q48 0 80 -29l33 -1q1 16 39 50h16q31 -13 53 -44q22 -25 22 -44l21 -109q-11 -35 -14 -55l12 -66l-12 -84l6 -93l-16 -84l16 -83
l-23 -39l-1 -29l15 -33l-1 -19l-20 -34l20 -69l-16 -72l14 -60l-12 -61l10 -52l-10 -40q23 -68 92 -69q66 -13 88 -36q18 -19 18 -67v-5l-25 -24l-40 8l-57 -23l-68 21q-26 -8 -95 -15q-23 6 -46 6h-6q-16 0 -37.5 -5t-37.5 -5l-68 17q-17 0 -44 -19zM668 110q111 29 138 97
l40 22q25 22 26 71v15l20 28q0 23 -24 70l19 53l-20 67q0 8 14 62q-18 45 -40 75l-8 53l-50 56q-39 55 -71 56h-12l-62 -22l-81 12h-1q-22 0 -57 -34h-1q-16 0 -66 -62q-25 -9 -37 -41q-34 -75 -36 -103l4 -81l-21 -47l11 -45l-9 -34q22 -60 70 -95q19 -34 20 -50.5t8.5 -33
t44.5 -16.5q26 -24 55 -44l14 -1q49 15 59 15z" />
    <glyph glyph-name="r" unicode="r" horiz-adv-x="1383" 
d="M793 -10q-76 25 -91 25q-31 0 -84 -21q-9 0 -86 24q-11 0 -67 -12q-50 -10 -65 -12q-17 13 -81 20q-59 -4 -94 -10q-18 1 -37 1.5t-44 114.5q0 28 88 64q33 14 81 14q31 -18 67 -18q50 63 60 97l4 32l-18 77l10 45q-25 62 -26 72l13 56q-11 20 -11 47l28 68l-29 18l-2 16
q7 37 19 72q0 38 -128 62l-64 8l-36 -12h-16q-45 48 -56 96v32q16 42 48 64l113 33q47 -9 87 -18l41 2l49 -21l59 -2q53 -41 90 -45q16 5 141 55l244 44q49 -28 116 -44l122 -141l18 -75l12 -96q0 -21 -49 -100q-12 -22 -39 -38q-43 -30 -108 -30l-60 4q-31 13 -64 72
q28 31 28 52l-56 84v4l31 10l21 34q0 40 -99 57l-61 -53l-87 27q0 -28 -12 -76q-59 -33 -80 -89l-13 -47l6 -39l-15 -41l21 -63l-16 -48l12 -64l-12 -64q11 -56 64 -130q48 0 85 10l20 -2q24 0 69 -23l59 -33v-50l4 -24q0 -21 -39 -54q-43 -4 -85 -18z" />
    <glyph glyph-name="s" unicode="s" horiz-adv-x="1231" 
d="M628 -5h-18q-54 20 -83 20h-5l-55 -8l-59 25l-29 4q-68 -10 -114 -46l-16 4q-26 17 -26 62v3q0 15 4 34l-4 26l-26 52q-14 19 -14 34v105l-15 51q2 71 26 104l13 2q38 -26 74 -41q12 -36 12 -46q37 -33 67 -47l8 -12q10 -32 32 -51l47 -30q13 -18 31 -38q46 -31 86 -31
q25 0 45 6q48 -13 78 -14l52 31l48 -5q18 7 28 36l8 9q36 13 63 27q28 35 30 83l-3 19q-21 39 -57 55l-46 13l-41 17l-13 5h-25q-29 0 -72 -1l-14 2q-18 11 -60 31l-53 -4l-13 1q-28 25 -56 25l-88 14q-30 24 -67 44t-91 101q-13 17 -17 55l9 44v57l38 79q44 36 74 74l31 16
l65 47q27 -2 76 -5q45 1 77 9l72 -16l71 1l21 -3q56 -31 74 -31h2q29 0 111 26l20 4q32 0 34 -89l36 -63l-9 -84l25 -50q-2 -99 -11 -100.5t-17 -2.5q-52 33 -114 75q-16 40 -80 124l-84 35l-78 9l-42 21q-24 -3 -61 -26q-20 2 -36 2q-19 0 -32 -3q-12 0 -35 -32l-45 -30
l-13 -35q13 -49 50 -56q38 -58 88 -58l57 -3l8 -2l39 -26l90 -8l14 -4l48 -30l6 -3l46 -6l15 -4l51 -27l78 -23l65 -44l19 -32q0 -25 35 -67l5 -21q-9 -28 -21 -59l11 -58l-24 -42l-13 -56l-45 -35l-39 -51l-16 -7q-24 -2 -46.5 -4.5t-60.5 -43.5l-13 -4q-34 12 -109 13
q-59 -11 -89 -18z" />
    <glyph glyph-name="t" unicode="t" horiz-adv-x="1185" 
d="M748 -54l-19 3l-55 34q-32 1 -63 3q-31 24 -61 49l-43 9l-14 11l-25 56q-41 29 -47 36l2 49q0 17 -36 84q0 4 9 46l-18 57l12 59l-16 57l9 49l-12 60l16 56v17l-12 47l8 35q-10 27 -64 69q-42 0 -103 -32l-23 -4q-32 2 -123 49q-15 16 -15 39v32q0 58 63 76q42 11 67 23
l45 -7q9 0 57 12q8 0 86 -25l5 32l-12 66l13 24l-16 67l16 68l-4 24q0 60 100 104l32 8q39 0 80 -120l-8 -25l5 -58l-15 -58l12 -39q-9 -20 -9 -38q0 -40 42 -40q8 0 20 3q57 18 63 19l60 -21l53 16l12 -2l41 -22l44 9q44 -22 44 -60l-4 -24q0 -16 4 -31q-4 -36 -79 -66
q-35 -18 -59 -23q-23 5 -68 20l-17 4q-32 -5 -65 -12l-46 -17q-24 -15 -24 -42q0 -8 8 -42l-31 -113q12 -41 12 -48l-12 -31l13 -75l-13 -59l14 -37l-6 -46q22 -30 41 -44l2 -10l-6 -35l48 -22q8 -28 54 -39l16 -1q44 0 59 53l10 35l30 24l14 36q23 17 46 47q55 30 103 30
q54 -41 67 -81l11 -39q-2 -66 -38 -109q-48 -32 -84 -95q-51 -27 -116 -92q-11 0 -34 4z" />
    <glyph glyph-name="u" unicode="u" horiz-adv-x="1400" 
d="M734 -13q-14 0 -94 20l-112 -4q-12 3 -71 42l-72 22l-42 75q-70 60 -99 205l4 49l-12 56l16 52v20l-12 40q0 12 12 60l-12 52l20 72q-10 52 -67 80q-40 32 -41 50l-15 53l-11 45q3 40 36 76l48 -6l38 6q35 -7 69.5 -20t98.5 -95q32 -25 32 -103l-6 -52l4 -34l-8 -40
l12 -76v-32l-8 -32l12 -48l-12 -60l20 -52q0 -4 -12 -52q0 -50 70 -100q23 -68 50 -68t56 -1l65 -15q56 5 81 40q8 16 47 27q53 14 65 75l-4 46q0 11 32 56l-32 51q0 21 24 57q-5 24 -22 52v19l32 51v14q-22 31 -29 58q10 29 10 48q0 6 -3 16q-53 62 -88 62q-116 10 -116 76
v16q58 84 100 84l64 -16q63 0 132 28h4q90 -43 90 -100l28 -108l-8 -60l8 -64l-20 -56l12 -52l-16 -64l24 -56l-8 -68l9 -45l-21 -85q0 -28 11 -57q45 -33 63 -33l44 12q47 0 64 -116q0 -60 -144 -92h-14q-93 10 -174 62q-15 3 -26 3q-43 0 -78 -32q-32 -1 -98 -34z" />
    <glyph glyph-name="v" unicode="v" horiz-adv-x="1258" 
d="M658 -11q-36 3 -73 3.5t-112 119.5l-6 22l-2 29l-47 73q0 31 -9 97q-20 40 -49 73q0 72 -38 106l-11 80l-39 70l-2 60q-5 20 -60 75q0 44 -61 78q-38 41 -79 41q-25 18 -25 48q0 9 3 19q10 46 168 66q94 -17 141 -17l98 11q17 0 57 -22q42 -22 50 -59l-2 -4
q-31 -23 -60 -49q-34 -32 -34 -81q0 -14 4 -30l-6 -61q3 -46 36 -95q13 -81 50 -115v-13q0 -57 27 -111l37 -55l18 -1q49 35 56 93l35 61q8 21 10 60q21 24 33 55l18 82l31 60q0 70 -20 102q-23 25 -60 57q-43 10 -43 22v16q53 74 96 74l76 15l83 -20l158 14l11 -4l58 -37
l6 -14q1 -3 1 -8q0 -9 -3 -28t-27 -44l-51 -30l-84 -65q-33 -44 -41 -93l-12 -82q-21 -26 -47 -74q-16 -43 -24 -103q-49 -64 -52 -119l-7 -33l-32 -81l-14 -57q-15 -21 -44 -54q-37 -48 -56 -106q-12 -17 -29 -17z" />
    <glyph glyph-name="w" unicode="w" horiz-adv-x="1477" 
d="M494 -14h-12q-26 5 -68 112l4 12q0 18 -34 89l-16 22l-2 9l4 45q-41 75 -42 80l4 56l-29 65q-3 53 -11 75l-34 56l1 60q-27 38 -32 51q7 45 7 52q0 58 -79 88l-44 26l-33 37q2 51 46 77q27 19 44 19l71 -9l66 15q49 -19 101 -19l25 2q35 -11 51 -24l1 -10
q-29 -28 -55 -69q-18 -56 -18 -77q18 -62 47 -96l-6 -27q1 -55 32 -99l4 -16q-9 -37 -9 -44q0 -9 28 -45q0 -13 -8 -56l21 -17q27 0 43 72l-4 44l31 51l-31 65v7q29 28 33 48q-4 25 -23 54q10 14 43 52q-5 31 -26 59q6 28 59 70q17 46 82 51h1q47 -1 72.5 -17t64.5 -43
q-3 -16 -10 -40v-20q15 -31 25 -48v-5q-21 -35 -21 -48l35 -50l1 -54q0 -13 36 -64q0 -8 -8 -56l32 -52q0 -16 -4 -32l25 -20q27 15 40 38l-11 66q0 10 32 48l-1 72l19 39v40l24 39q0 64 -28 99l-24 31q-16 17 -24 30l13 28q25 31 60 41l61 -10l10 1l44 12h22l46 -16l10 1
q21 5 53 6l8 -1q34 -16 66 -59l-1 -12q-93 -66 -130 -122l-9 -63l-30 -47l-8 -51l-3 -7q-32 -36 -32 -51l10 -43l-2 -10q-43 -37 -43 -156q-22 -25 -41 -73l8 -42l-1 -10l-39 -78q11 -26 13 -43l-2 -9q-19 -16 -51 -98q-12 -12 -77 -30q-17 -10 -37 -10q-18 7 -31 27l-11 36
l-45 97v10l6 30l-15 36v9l10 32q0 19 -38 49l-1 9l10 53q-23 28 -23 46l8 56l-37 95l-21 -12l-6 -71v-8l-58 -62v-16q18 -29 18 -42l-28 -67q18 -40 22 -59l-2 -12q-52 -52 -52 -166q-20 -34 -66 -50q-51 -34 -66 -34z" />
    <glyph glyph-name="x" unicode="x" horiz-adv-x="1433" 
d="M438 -25h-22q-87 15 -124 16q-80 -5 -97 -5q-32 0 -52 113q0 33 52 43q37 0 91 42q27 9 89 27l42 58l50 41q25 45 29 81l7 8q19 5 51 33q8 25 11 41q29 33 30 56q-28 51 -65 56l-9 10q-5 26 -15 54l-28 17l-24 10l-5 6v13q-5 34 -22 47l-37 15l-14 11q-19 53 -93 74h-17
l-70 -28h-7q-6 0 -33 52q-17 27 -17 62q38 79 66 79l74 -9l126 23l19 -2l71 -18q50 4 100 10q56 0 72 -57l-3 -14q-63 -88 -63 -116q0 -17 44 -58q-2 -5 -2 -20q0 -19 10 -34q26 -34 58 -34q54 0 108 69q24 12 45 40t21 72l-39 48q-23 28 -31 49q0 41 68 61q6 0 94 -17
l69 20l96 -18l59 13l16 -2l51 -24q21 -20 21 -41q0 -37 -18 -90q-8 -31 -14 -31q-18 24 -63 25l-80 -9l-46 -61q-46 -17 -65 -41q-19 -38 -27 -77q-29 -22 -41 -36q-22 -28 -22 -50l-2 -3q-32 -10 -49 -47q16 -44 27 -60l43 -28l7 -15q0 -66 50 -79l18 -55l62 -30l5 -9
q1 -12 13.5 -39t63.5 -30q17 -24 68 -41l32 8q18 -7 30 -27q7 -23 7 -43q0 -29 -16 -48l-25 -30q-12 0 -85 13h-29q-68 -26 -90 -26l-61 23l-35 3q-27 0 -89 -10h-12q-22 0 -32 20q0 23 -2 46l3 8l41 34q30 31 30 57q0 10 -5 23l-19 23l-29 27l-1 2q-1 24 -16 53.5
t-100 70.5q-73 -53 -73 -88v-24l-19 -13q-44 -25 -44 -56q0 -34 39 -70.5t43 -64.5q-21 -56 -39 -56q-8 0 -92 10q-40 -5 -93 -32z" />
    <glyph glyph-name="y" unicode="y" horiz-adv-x="1421" 
d="M488 -404h-18q-100 30 -164 45l-7 25l-9 5q-15 -2 -23 -2q-18 0 -76 56q-31 20 -59 115q-5 40 -5 68q0 47 50 123q79 77 110 77q23 0 80 -30q48 -35 64 -66q8 -17 8 -52q0 -28 -5 -63l-20 -69q7 -56 44 -69q72 6 94 41q24 27 31 68l36 32l9 64l11 10q36 47 36 63
q-12 38 -25 61l5 65l-15 36l-37 41l-4 11q-7 71 -7 80l-44 58l3 44l-6 23q-39 48 -72 87q-9 32 -13 81l-13 29q-53 26 -60 36l-3 44q-5 46 -26.5 69.5t-86.5 40.5q-47 -9 -86 -43l-20 9q-12 25 -18 51q-8 22 -8 83q0 56 85 78l62 15l91 -15l84 17l18 -2l78 -24l57 4
q49 -19 51 -36l5 -26q-1 -19 -27 -47l-14 -32q-29 -51 -29 -89q0 -8 1 -14v-18q4 -37 45 -67l5 -16q-2 -10 -2 -22q0 -14 3 -32l51 -64l1 -11q-4 -28 -5 -61q14 -21 36 -34l25 -60l35 -6q18 25 37 50t19 67l-4 36q1 17 40 57v17q-12 30 -12 43q0 3 1 5l22 30q4 14 4 23
q0 21 -8 31v5q28 35 31 57q0 26 -42 57q-27 40 -58 58q-22 13 -24 22v9q0 21 47 51l49 25l20 3l61 -6q64 3 110 14h20l60 -14h13l52 1h15q52 -21 60 -39l15 -36v-27q0 -46 -34 -63l-44 -24q-98 -18 -99 -120l-8 -12q-38 -23 -39 -76l-3 -10q-31 -23 -52 -63l-5 -58l-5 -10
l-37 -54l-7 -59l-32 -35q-21 -46 -21 -68v-36q-18 -36 -49 -88l7 -67q-29 -45 -48 -72l-5 -80q-15 -16 -46 -63l-11 -54q-38 -62 -62 -88l-25 -47l-73 -46l-67 -11q-4 0 -70 -20z" />
    <glyph glyph-name="z" unicode="z" horiz-adv-x="1258" 
d="M253 -11q-41 12 -67 98q-6 38 -7 74q9 39 58 93l63 66q63 20 76 45l25 56l62 40l50 73l64 36q19 27 44 84q20 17 76 48l29 70q41 26 41 47q0 28 -42 28q-40 0 -117 -20q-43 12 -69 16q-34 -15 -56 -28q-96 -7 -109 -93l11 -58q-23 -56 -88 -85q-28 -20 -59 -20h-16
q-24 0 -46 121l13 70q-10 66 -10 84q36 54 45 128l112 70h11q67 -28 100 -28q55 0 96 20h18l62 -20q50 0 130 19l13 -1l65 -22q37 0 68 7q57 9 68 9q40 -23 60 -84q0 -59 -34 -119q-29 -37 -59 -87q-31 -19 -57 -33q-46 -54 -51 -81l-57 -34q-10 -31 -24 -65l-56 -30
q-16 -34 -29 -69l-49 -34q-16 -12 -36 -72q-87 -61 -89 -92q0 -29 38 -29q27 0 85 16h9l55 -23l28 2q66 20 79 20l61 -27l29 -3q52 36 57 79l-6 42l18 56q-8 47 -8 59q8 20 71 65q31 23 49 23q20 0 40 -76q12 -22 16 -52l-15 -58l4 -48l-17 -62l4 -66q-12 -54 -64 -95.5
t-92 -49.5l-17 2l-45 14h-13l-73 -13l-14 1l-42 11h-12l-59 -16q-15 0 -85 22l-18 1l-88 -20h-17q-77 15 -108 15l-67 -16z" />
    <glyph glyph-name="braceleft" unicode="{" horiz-adv-x="703" 
d="M509 -129l18 -64l-43 -15q-95 27 -144 89q-41 46 -89 113l-40 41l-9 86l-60 84l-6 127l-6 34l-59 129q19 76 33 156l-21 90l9 46l20 50l-9 95l34 84q20 29 41 103q2 73 25 88l49 41l28 67l59 55q63 43 120 77l54 -7q20 -9 20 -21v-5q0 -58 -79 -174l-33 -100
q-88 -69 -88 -114v-3l4 -18l1 -27q-30 -53 -30 -62q1 -15 17 -50q-21 -40 -51 -128v-33l22 -64l-27 -62v-13l32 -83l-13 -33l-11 -59l18 -42q2 -72 63 -112q23 -86 25 -101l48 -48q2 -36 29 -77t49 -140z" />
    <glyph glyph-name="bar" unicode="|" horiz-adv-x="445" 
d="M278 1508l25 -101l-12 -123q1 -15 15 -94l3 -20l-16 -91q3 -71 9 -114q-9 -34 -9 -79q0 -30 4 -60q-5 -49 -13 -91l12 -86l2 -21l-8 -91l11 -103l1 -21l-15 -70l9 -108l-13 -95q7 -69 13 -98q-5 -35 -21 -93q3 -24 3 -42q0 -41 -12 -79.5t-54 -76.5l-17 -7q-60 17 -79 47
q-20 47 -20 104q0 29 6 63l-5 89l3 17l11 83q-9 32 -9 83q14 59 14 89v8q-8 55 -16 101l19 87l-18 110q-2 8 -2 16q0 22 12 64v28q-8 55 -9 97q10 44 10 80q0 28 -5 49q-2 24 -8 43l14 74l-18 89v15l17 68q-11 59 -22 98q0 22 18 92t76 100q17 9 33 9q33 0 61 -39z" />
    <glyph glyph-name="braceright" unicode="}" horiz-adv-x="709" 
d="M87 1352l-16 48q9 29 39 32q96 -25 145 -87q43 -44 91 -112l41 -40l11 -86l62 -82l7 -128l5 -34l63 -128q-18 -75 -32 -156l24 -89l-8 -47l-21 -49l12 -96l-32 -85q-20 -29 -40 -103q-1 -73 -23 -89l-48 -41l-28 -69l-57 -55q-63 -43 -120 -76q-27 -13 -43 -13
q-10 0 -20 10t-11 27v5q0 59 77 176l31 99q85 70 85 114v5l-3 18l-2 27q29 54 29 63q-2 15 -17 50q20 40 47 128v34l-23 63l27 64l-3 13l-32 81l14 33l9 60l-18 41q-4 72 -65 111q-25 87 -30 101l-46 47q-3 36 -31 76.5t-50 138.5z" />
    <glyph glyph-name="asciitilde" unicode="~" horiz-adv-x="1015" 
d="M467 1480l-23 28l-37 15q-14 4 -28 4q-12 0 -24 -3q-26 0 -50 -16l-10 -7l-45 -15l-33 -35l-31 -24q-18 -8 -42 -11h-3q-15 0 -25 14q-6 8 -6 24t5 36l8 19q15 25 33 68l8 10l35 23l8 6l19 31l6 6l46 19q21 26 73 41q4 1 10 1q38 0 71 -6q31 -25 49 -33l57 -23l43 -43
q43 -10 67 -10q19 0 36 7l21 24l8 3l31 12l5 5l21 25l11 8q32 14 78 20q26 -5 27 -22l2 -13l-13 -45q-17 -53 -42 -81q-22 -12 -54 -34l-26 -37l-5 -5l-46 -22q-33 -28 -66 -28q-2 0 -22 0.5t-59 15.5l-29 28l-47 12z" />
    <glyph glyph-name="exclamdown" unicode="&#xa1;" horiz-adv-x="636" 
d="M133 1249q12 29 30 60q42 37 141 56h10q34 -2 115 -64l11 -16q14 -24 26 -72v-8q0 -14 -16 -80q-21 -58 -67 -83q-31 -23 -63 -23h-3q-72 0 -143 45q-24 25 -34 56q-13 36 -20 56q9 65 13 73zM289 933q19 0 41 -23q19 -16 39 -61v-12l13 -52v-4l21 -60v-7l-1 -64v-17
l15 -36l-2 -58q9 -32 16 -63q-2 -16 -2 -33q0 -65 20 -105l-10 -96l22 -67l-6 -37l-4 -20l12 -40v-6q-15 -70 -74 -106l-23 -8l-41 -8q-38 -5 -61 -5q-66 26 -97 96q0 16 -20 78v11l18 44l-11 65q0 20 32 92v76l11 57l-5 76q13 35 19 70l8 55l-4 37v70q22 93 31 125t18 36
h25z" />
    <glyph glyph-name="cent" unicode="&#xa2;" horiz-adv-x="1191" 
d="M678 16q-17 -28 -17 -56q-7 -47 -13.5 -72t-33.5 -73l-21 -11q-61 2 -93 34l-37 82v12q0 80 -56 99q-28 18 -55 35l-64 19q-11 12 -38 78l-66 60l-42 95l-38 84q-12 70 -12 94v4l-16 60l16 45l16 136q37 39 50 103q68 53 137 129l100 57q18 5 48 18l13 25l7 69v8
q7 43 7 59v3q13 24 28 46l18 5q119 0 119 -60q6 -41 8 -71l7 -43l16 -40q44 -23 57 -28l47 -6q29 -26 81 -83q46 -23 76 -95q32 -23 35 -66q1 -13 1 -25q0 -36 -9 -69v-8q-20 -64 -99 -83l-37 -9q-38 0 -84.5 47t-49.5 57v11q-6 19 -6 35q0 35 29 82q-22 81 -127 81
q-10 0 -20 -1h-11l-36 -29l-61 -11l-47 -52l-49 -20l-41 -58l-3 -56l-2 -8l-20 -40l11 -68l-4 -70l9 -41q19 -82 79 -98q15 -56 68 -96l55 -8h2q27 -18 64 -27l77 12l35 40l75 26l29 30q20 7 84 51q37 16 75 18q18 -8 18 -69q0 -12 -1 -26q0 -107 -50 -135q-75 -34 -98 -74
q-21 -7 -51 -16l-44 -16q-27 -8 -45 -32z" />
    <glyph glyph-name="sterling" unicode="&#xa3;" horiz-adv-x="1535" 
d="M356 802l25 34l-13 66v14l16 52v12l-32 40v8l11 48q-80 64 -95 64h-36q-19 0 -76 -32h-16q-32 0 -36 121q1 41 41 75l6 3q33 14 89 29h12q16 0 63 -13q22 -7 46 -7q39 0 100 19h14l86 -19q31 7 96 22l12 2l49 -13l31 -10q66 -12 71 -69q-17 -125 -28 -144l-24 -12l-64 32
l-68 8l-72 -76l12 -36l-28 -56l21 -34l2 -10q-9 -26 -20 -56l12 -32l27 -15l29 -7l47 -6l23 1q60 9 76 9h4q51 -28 72 -76l-1 -19q0 -84 -68 -98q-40 -6 -90 -19h-13l-44 -3l-27 -16l-23 -61l35 -69l-1 -5q-23 -34 -23 -64q13 -28 24 -39v-10q-11 -18 -34 -57l40 -50l1 -1
l-26 -75l33 -16q50 2 102 12h8l50 -19l55 -19q19 11 79 33l59 -18q14 -4 26 -4q44 0 63 43q6 13 6 28q0 32 -22 71v4q26 28 26 68q0 30 -14 56q10 32 26 74q18 47 54 97l26 26q27 0 94 -87q21 -58 21 -125q0 -9 -1 -20v-8q-22 -37 -33 -108l17 -66v-17q-10 -22 -15 -71
l10 -66q-35 -81 -109 -102q-77 -14 -90 -16q-54 22 -66 22q-61 0 -132 -25l-16 1l-81 18l-25 2l-67 -19l-3 -1l-86 25l-24 -7l-78 -26h-27l-97 28h-19l-77 -21l-95 15q-49 10 -49 97q18 121 56 121l57 -32l38 18h9l37 -19q67 50 67 77q-16 24 -16 44l32 60q-28 43 -28 56v4
l12 48v16q-20 28 -20 52l20 51l-15 75l-37 31q-18 0 -28 -1l-55 -8l-14 2q-53 16 -104 22q-47 20 -60 53q-1 4 -1 10q0 50 34 83l89 36h11q85 -8 141 -8h11z" />
    <glyph glyph-name="yen" unicode="&#xa5;" horiz-adv-x="1468" 
d="M823 646q19 -4 46 -4q23 0 52 3q70 -24 80 -34l25 -50l-2 -10q0 -16 -67 -29l-34 -7h-14l-83 6h-29l-5 -7l-2 -28l-11 -29l5 -18l6 -7q23 -3 30 -3l24 2q11 -1 20 -1q23 0 35 6h15q13 0 69 -20q43 -24 43 -33v-29q-8 -36 -33 -38h-45l-42 -4q-76 -15 -120 -17l-6 -7
q8 -32 8 -50q7 -84 86 -105l53 -17l40 5l44 -22l32 6q67 -71 67 -105q-22 -44 -38 -50q-33 -30 -112 -46h-6l-84 24h-24l-77 -18l-14 1q-74 19 -97 19h-6l-61 -20l-26 -1q-55 23 -73 23q-44 -7 -84 -19l-40 -13l-8 1l-47 40q-31 18 -31 72q1 50 45 80l41 20l57 -17l47 30
q71 5 80.5 41.5t9.5 50.5l5 57l-8 25l-7 5q-66 -11 -83 -11q-127 22 -148 42q26 94 44 94h18q73 -6 89 -9l74 13l8 5l14 24l-6 28v17l-7 9l-106 9l-30 -2q-46 -7 -64 -7q-17 0 -47 40q-6 17 -12 40q0 17 110 49l41 4l76 6l7 15l-56 70l-6 17l-31 82q-35 41 -59 64l-18 61
l-49 56q-5 38 -39.5 75.5t-158.5 40.5q-43 43 -43 66q28 107 71 107l107 -12l70 23l16 2l99 -15l19 1l63 20l15 -4q31 -9 68 -96q-23 -61 -80 -102q-17 -30 -23 -59q11 -36 24 -52l42 -35l16 -54q23 -30 35 -35l8 -36q0 -25 69 -44q20 15 41 45q20 29 20 73l3 8q26 10 46 63
v42l6 10q32 26 37 59q0 34 -95 73q-14 12 -14 25v4q12 41 88 105q7 6 25 6q27 0 78 -17l73 19q26 -25 69 -25q33 0 61 16q31 -17 78 -34q43 -14 43 -64q-6 -58 -54 -77l-33 -10l-38 -8q-28 -9 -55.5 -27t-56.5 -54l-9 -64l-4 -9q-56 -42 -56 -110l-2 -3l-34 -38l-8 -20
l-19 -55l-7 -17l-54 -67z" />
    <glyph glyph-name="brokenbar" unicode="&#xa6;" horiz-adv-x="1941" 
d="M594 1023q11 8 25 12l46 -61l-73 16v6q0 21 2 27zM762 848v-15q-30 -44 -62 -80l-16 -63q-45 -22 -81 -63l-9 -54l-3 -11l-75 -64l-6 -9l-22 -77q-30 -29 -58 -50q-40 -66 -49 -136q-69 -53 -120 -180q-34 -27 -129 -64h-18q-44 44 -44 84q0 54 44 145q0 16 86 100l36 85
l72 75l46 112l60 64l26 96q49 36 109 126q6 19 13 35l112 -5zM1010 1140q16 -6 35 -6q49 0 119 35l35 19l38 -5q16 0 82 15l52 40q15 -1 46 -1h36q46 11 79 37q15 0 40 2q19 5 61 5q33 0 74 -13q19 -24 50 -45l9 -8q5 -7 5 -19q0 -36 -17.5 -61t-35 -43.5t-64.5 -46.5
q-21 2 -44 2t-43 -3q-22 -7 -92 -53l-108 15l-26 -7l-59 -41l-35 5l-44 3l-69 -27q-41 -3 -83 -14l-87 -33l-11 -5q-57 -11 -116 -20l-6 9l-22 56l119 173q43 16 82 35zM798 1098l4 38l46 7l-33 -66l-17 -24v45zM720 1024l-54 113q0 19 14 53l57 -23l-7 -106z" />
    <glyph glyph-name="section" unicode="&#xa7;" horiz-adv-x="1125" 
d="M488 1526l84 -2q143 -22 162 -53l16 -28q64 -58 79 -136l1 -10l-1 -10q-2 -88 -48 -103q-52 -17 -106 -44l-9 1q-26 0 -72 18q-48 24 -55 82l-3 53q-9 41 -43 57q-11 6 -24 6h-2q-29 0 -69 -24q-48 -24 -48 -86q0 -23 6 -50l38 -38q8 -47 31 -53l57 -22q-1 0 -1 -1
q0 -6 8 -35l23 -25l46 -8q9 -3 57 -65q57 -37 94 -52l14 -11l23 -50l69 -47l11 -14q30 -50 44 -110q22 -43 28 -81l-9 -40q7 -20 10 -91q-20 -31 -32 -104l-70 -59q-33 -19 -34 -51q0 -4 0.5 -20t20.5 -50l1 -32l20 -51l3 -83q-20 -83 -68 -153l-10 -11q-47 -15 -81 -58
q-11 -5 -50 -7l-36 -1q-46 -10 -88 -10h-8q-19 1 -38 3q-23 1 -89 18q-65 34 -95 68q-42 30 -62 73q-9 28 -9 51v5q1 28 17 50q32 83 131 103h6q44 -2 75.5 -16.5t41.5 -69.5v-15l-13 -44q2 -61 57 -85q112 19 115 103q19 28 20 65v6q0 13 -3 29q-43 82 -90 89
q-14 20 -29 44l-13 8l-68 34q-67 47 -101 97l-12 16q-25 18 -62 32l-27 47l-44 27q-37 38 -55 80l-20 33l-2 39q-11 42 -15 68l12 63v36q2 37 6 67l39 53q8 33 15 52l38 26l9 27l-5 29l6 38v17q-9 40 -23 68q-3 18 -3 46v26q2 52 13 73q38 34 42 82q63 62 163 88zM336 906
q-40 -24 -67 -111l-1 -7l14 -52l-8 -32v-1q0 -25 70 -88l48 -21q16 -67 69 -68l4 -1h-2l3 -3l19 -51q40 -42 91 -52q29 -6 51 -6h9q9 0 16 1q42 0 50 54q20 18 22 80v13q0 13 -1 28l-3 49l-10 21q-42 60 -74 61q-25 47 -36 59l-32 15l-24 17l-10 22q-8 31 -23 31l-48 5
l-13 2l-22 21l-49 13z" />
    <glyph glyph-name="dieresis" unicode="&#xa8;" horiz-adv-x="1056" 
d="M805 1399l-12 1l-44 9l-33 6q-54 14 -100 79q-13 35 -13 75v4l1 4q8 53 58 100q54 34 114 39l9 -1q18 0 78 -31q27 -22 36 -56q7 -35 27 -83q-4 -43 -27 -76q-17 -22 -32 -29q-23 -10 -47 -31zM289 1403q-93 6 -146 61l-30 49l-3 17l5 55l-5 30q13 47 59 67q26 23 82 29
h17q41 -1 72.5 -15.5t65.5 -75.5q19 -35 22 -43l-3 -7q-15 -49 -19 -98l-17 -14q-29 -21 -45 -33q-33 -22 -55 -22z" />
    <glyph glyph-name="copyright" unicode="&#xa9;" horiz-adv-x="1262" 
d="M940 644q32 31 44 65v33q0 12 29 42q0 10 -15 31v8l18 36v4q0 10 -18 32v8l15 37v6q-15 32 -45 59q-4 62 -51 92l-11 9l-33 54l-42 22q-47 55 -108 66l-4 2l-84 -4l-8 1l-28 10h-8q-28 -2 -54 -14q-27 0 -42 6q-13 0 -53 -43q-69 -18 -80 -52l-51 -93l-2 -2l-5 -12l7 -26
l-22 -25q-36 -34 -36 -70l10 -25v-10l-19 -38l29 -39l-1 -24q0 -62 32 -76q3 -32 22 -77l13 -17l22 -12l38 -20l20 -34l41 -20q47 -45 111 -45q10 0 60 21q13 0 67 -17h10q24 0 44 21q89 0 144 52l5 6q28 36 39 72zM565 362h-26q-56 36 -94 36q-31 0 -69 35q-79 22 -79 48
l-72 79q-23 0 -34 75q-46 64 -54 93l4 16v18q-26 20 -26 117l22 32v13l-12 30v18l20 16l-4 39v4q46 38 52 101l21 34q72 40 106 101l68 28l19 29l84 8q47 22 61 22l56 -14h47q14 0 61 22h8q45 -36 57 -36l34 4q11 0 53 -39l20 -4l37 -5q15 -12 31 -41l83 -67l27 -36
q9 -47 45 -99l4 -14l-4 -17q30 -46 30 -58q-18 -20 -18 -36q8 0 22 -33l-26 -44q0 -8 26 -39l-26 -50l7 -30l-49 -57q-16 -28 -27 -75q-49 -42 -57 -70q-26 -13 -45 -55q-18 -12 -68 -24l-38 -33l-65 -6q-44 -29 -68 -34q-30 4 -81 13q-2 1 -4 1q-1 0 -3 -1zM690 1173l6 -1
q32 -19 38 -21l28 -4q20 -17 46 -47q34 -27 48 -51q16 -17 18 -47q1 -7 1 -15q0 -21 -5 -39v-5q-14 -44 -64 -56l-22 -5q-28 0 -56.5 28.5t-32.5 39.5v6q-3 10 -3 21q0 23 15 47q-8 28 -55 28h-12l-18 -15l-33 -6l-24 -27l-27 -11q-17 -19 -17 -40q0 -4 1 -9v-1l-14 -29
l6 -35l-3 -37l5 -20q9 -38 41 -46q9 -34 31 -50l26 -4h4q16 -11 31 -15q37 0 53 26q29 0 57 31q13 5 47 28q24 10 47 12h1q23 0 23 -66q0 -67 -35 -86q-38 -17 -57 -54q-11 -2 -24 -2h-12q-5 1 -9 1q-22 0 -38 -10l-16 -10h-11l-45 8l-7 -1l-12 -3l-51 -5q-13 0 -39 24
l-35 4q-11 22 -25 57l-55 38l-5 43l-36 78q7 17 7 31v1l-9 35l9 27l10 77q20 22 27 58q41 31 79 73l55 34q26 0 42 6q12 4 26 10q16 -1 40 -6h3q22 0 36 7z" />
    <glyph glyph-name="ordfeminine" unicode="&#xaa;" horiz-adv-x="2832" 
d="M1174 1406h47q146 0 273 -115q20 -9 33 -9l93 31q59 18 139 18h13q280 -7 362 -166q15 -28 73 -28q214 0 318 -181q26 -58 26 -124q0 -42 -24 -126v-11q0 -20 60 -94q33 -68 33 -140q0 -167 -157 -244q-61 -26 -79 -82q-39 -113 -122 -157q-87 -44 -192 -44
q-21 0 -151 13q-38 -21 -81 -75q-107 -99 -209 -99h-42q-101 0 -216 104q-18 4 -22 4q-22 0 -95 -55q-106 -60 -232 -60q-182 0 -263 157q-21 24 -50 24h-60q-199 0 -289 139q-35 57 -35 144q0 10 4 75q0 28 -62 99q-66 105 -66 214q0 160 168 225q26 21 26 44q0 19 -2 71
q0 132 137 210q76 35 170 35h6q22 0 104 -7h7q34 0 73 80q58 82 196 119q45 11 88 11zM872 1121q-117 31 -170 31q-145 0 -225 -115q-27 -44 -27 -90q0 -33 25 -106v-7q0 -27 -75 -42q-142 -58 -142 -178q0 -131 133 -254q6 -22 6 -27q-15 -67 -15 -103v-5q0 -155 188 -214
q36 -11 83 -11q40 0 109 16h4q30 0 53 -75q76 -122 210 -122q141 0 267 117q23 32 53 53q18 0 70 -70q97 -93 181 -93h13q112 0 212 130q30 62 53 62h7l123 -27q48 -4 62 -4q158 0 239 124q24 43 24 105l6 11q31 10 75 31q148 71 148 208q0 104 -108 185q-11 15 -11 22v9
q0 9 40 86q11 35 11 62v7q0 118 -144 209q-72 38 -134 38h-2q-37 0 -100 -20q-16 10 -28 48q-19 64 -82 106q-117 62 -236 62q-161 0 -241 -92q-7 -5 -13 -5h-4q-17 2 -62 66q-109 106 -252 106q-152 0 -258 -117q-24 -36 -40 -103q-8 -14 -26 -14zM755 958h7q4 -1 4 -4v-80
q0 -6 20 -9l2 -4v-31q0 -6 -20 -11q-2 -4 -2 -9v-101q0 -18 24 -18q2 -5 5 -20q-3 -31 -11 -31h-40q-31 0 -31 51v126l-20 11v33q0 6 20 9v50q0 38 42 38zM1739 958h7q24 0 24 -29v-6q0 -29 -26 -29q-29 0 -29 31v2q0 31 24 31zM1874 958q3 0 6 -7v-79q0 -4 20 -7v-37
l-20 -11v-111q0 -15 25 -15l2 -4v-31q0 -16 -16 -16h-37q-22 0 -27 33v144q0 4 -19 9v37q0 5 4 5h13l2 11v53q5 26 47 26zM828 874h33q20 0 20 -46q11 -90 11 -97q5 0 17 138l5 5h44l7 -4q-42 -254 -65 -269q-7 -8 -31 -8h-6q-35 6 -35 36q2 18 9 18l15 -2q3 1 4 6l-32 220z
M1000 874h26q16 0 16 -11h2q15 11 29 11h11q46 0 50 -106v-11q0 -117 -50 -117h-14q-12 0 -24 9h-2v-53q-2 -7 -13 -7h-22q-12 0 -14 7v274q1 4 5 4zM1234 874h9q61 0 61 -95v-28q0 -16 -11 -16q-12 0 -72 -2v-11q0 -31 22 -31h4q16 0 51 13l4 -6v-16q0 -44 -62 -44
q-72 0 -72 119q0 88 44 113q17 4 22 4zM1340 874h39q11 -11 23 -126q2 -20 4 -31h2q9 20 9 61v8q0 20 -7 84l7 4h35q12 -2 19 -84q2 -21 3 -68q7 0 22 132q0 18 9 20h40l7 -4q-32 -230 -40 -230h-53q-11 0 -18 51h-2q-8 -51 -18 -51h-50q-13 0 -22 113q-5 37 -16 117z
M1589 874h38q5 0 6 -17h3q11 14 37 17h2q9 -3 9 -20v-24q0 -16 -34 -29q-15 -12 -15 -24v-119q0 -16 -6 -18h-40q-7 2 -7 18v210q0 3 7 6zM1724 874h37q9 -3 9 -15v-206q0 -15 -15 -15h-22q-12 0 -16 9v221q0 3 7 6zM2002 874q64 0 64 -86v-40q0 -13 -9 -13l-75 -2v-5
q0 -37 24 -37h2q16 0 51 13l5 -6v-18q0 -42 -58 -42q-43 0 -64 40q-11 20 -11 55v42q0 71 44 95q16 4 27 4zM2112 874h38q6 0 6 -18q20 18 42 18l7 -9v-39q0 -14 -35 -27q-14 -14 -14 -24v-122q0 -11 -6 -13h-38q-3 0 -6 7v221q0 3 6 6zM1223 804v-25q0 -3 6 -6h25q4 0 4 4
v29q0 12 -13 20h-5q-17 0 -17 -22zM1984 801v-22q0 -3 7 -6h24q3 0 7 6v11q0 36 -20 36q-18 0 -18 -25zM1044 797v-69q1 -35 18 -35q22 0 22 64q0 66 -22 66q-18 -3 -18 -26zM1341 501l3 -4v-80q0 -5 20 -8l2 -5v-31q0 -5 -20 -9l-2 -4v-108q0 -14 24 -18q3 -5 5 -20
q0 -31 -18 -31h-35q-29 0 -29 51v130q-20 3 -20 7v33q0 6 20 9v51q0 37 42 37h8zM2055 503q6 -8 6 -15v-73q0 -4 20 -6v-36q0 -6 -20 -9v-121q0 -4 25 -9l2 -11v-18q0 -17 -11 -22h-38q-31 0 -31 34q0 35 -2 147q-20 0 -20 16v17q0 16 20 16v15q0 64 13 64q19 9 36 11z
M865 501h22q16 0 16 -26q0 -22 -22 -22q-5 -8 -5 -18v-13l3 -11h6q13 -2 13 -7v-31q0 -3 -8 -9h-11v-174q0 -3 -7 -7h-40q-3 0 -6 7v31q0 47 -3 143q-20 0 -20 7v33q0 6 20 9v24q0 64 42 64zM984 417h22q58 0 58 -101v-29q0 -104 -55 -104h-20q-64 0 -64 106v31q0 97 59 97z
M1112 417h36q6 -1 6 -15q23 15 38 15h18q26 -5 26 -26q2 -92 2 -141v-60q0 -3 -6 -7h-36q-6 3 -6 14v128q0 35 -7 42q-29 0 -29 -73v-106q0 -5 -4 -5h-38q-3 0 -6 7v221q0 3 6 6zM1466 417h6q38 0 46 -15v-18q0 -16 -6 -17l-38 4q-17 -3 -17 -18q0 -3 57 -59q11 -26 11 -42
q-8 -69 -66 -69h-9q-39 0 -48 18v35q0 4 6 7h5q31 -11 37 -11h4q18 0 18 20v2q0 20 -55 68q-11 21 -11 31v7q0 37 33 53q15 4 27 4zM1662 417h35q7 -1 7 -15h2q19 15 35 15h18q27 0 27 -48q2 -31 2 -91v-88q0 -3 -7 -7h-35q-7 3 -7 14v121q0 42 -6 49q-29 0 -29 -73v-106
q0 -5 -5 -5h-37q-3 0 -7 7v221q0 3 7 6zM1887 417h13q60 0 60 -97v-26q0 -12 -9 -16h-71q-4 0 -4 -4v-9q0 -31 24 -31q17 0 51 13q3 0 7 -6v-16q0 -44 -60 -44q-75 0 -75 119q0 100 53 115q4 2 11 2zM973 296q0 -64 22 -64h7q16 0 16 71q0 68 -20 68h-3q-22 0 -22 -75z
M1878 351v-29q0 -3 7 -6h17l12 2v27q0 24 -18 24t-18 -18zM1587 247q26 0 26 -35q0 -29 -19 -29h-9q-27 0 -27 31q3 33 29 33z" />
    <glyph glyph-name="guillemotleft" unicode="&#xab;" horiz-adv-x="2003" 
d="M56 1128q0 -98 193 -166q127 -36 231 -36q6 0 53 -34q95 -61 168 -61h3v1q-50 24 -83 97q113 17 173 38q179 68 179 161q0 103 -204 170q-124 35 -256 35q-237 0 -390 -97q-67 -52 -67 -108zM499 1339h33q193 0 350 -80q97 -61 97 -128v-5q0 -105 -211 -175
q-72 -19 -138 -27q28 -58 81 -90v-7q0 -1 -4 -4q-99 0 -224 95q-124 0 -269 49q-164 68 -164 158v11q0 70 120 136q152 67 329 67zM977 904h11q72 0 138 -136q21 -36 31 -42q136 -102 178 -143q65 -7 77 -20l97 -41q36 -19 47 -54q6 -8 11 -24q-6 -3 -17 -6v-2q14 -3 70 -34
q191 -46 222 -80q11 -13 11 -20v-2q0 -3 -3 -3q-10 0 -42 11q0 -5 -2 -8q-6 0 -130 35q-31 8 -94 19q114 -84 140 -99l101 -55l5 -6v-5h-2q-14 3 -15 3v-7q0 -4 -3 -4l-28 8q-2 0 -10 -1q-1 0 -17 9q0 -14 -9 -14q-10 0 -27 11q-1 -8 -5 -8h-3q-9 0 -39 19q0 -2 -5 -5
l-43 24q0 -3 -4 -3h-3q-42 20 -50 20q-14 -3 -20 -3h-3q-8 0 -132 29l-15 2q-28 0 -41 -22l-3 -1q-45 21 -56 21q-10 -1 -10 -4l5 -3q0 -5 -6 -5l14 -13q-6 -2 -6 -4q1 0 1 -2l-8 -1q5 -24 5 -44l-3 -2q0 2 -2 2q0 -13 -28 -53q-23 -64 -23 -69t-2 -11q2 -10 2 -20v-8
q0 -3 11 -11q6 0 15 3q27 -10 27 -30q1 -6 1 -11l-3 -1q-11 28 -22 28h-9q-4 -10 -8 -11q-7 0 -28 11q-7 -14 -23 -31q0 -7 -8 -11h-3l-11 1q-10 -14 -10 -28h-3v16q0 9 25 51l-14 -11h-8q-2 0 -6 7q-3 0 -19 -16v3q0 20 30 25q43 28 45 44q18 53 25 102v1q0 11 -6 52l2 9
q0 4 -2 13q3 11 3 17q-19 17 -28 17v-2l6 -20l-9 -8l2 -3v-1h-4v3h-4q6 -10 6 -14v-2q0 -8 -6 -11h-2l-17 16l-3 -2q-3 2 -5 2q0 -2 -1 -2q4 -8 4 -14l-3 -1h-8l-7 11h-2v-4q2 -33 2 -39q0 -31 -52 -76q-19 -20 -19 -27v-3q2 -5 10 -5l39 11q20 -5 20 -25q0 -3 -3 -3
q-7 17 -14 17q-10 0 -13 -17q-5 -3 -9 -3h-2q-17 0 -42 3q-12 -8 -17 -8h-11q-4 0 -16 6l-7 -1h-4q-6 0 -12 1q-6 -1 -13 -1q-4 0 -4 8q-11 -10 -11 -14h-3v3q0 10 9 22v1q0 3 -8 5q-9 -2 -17 -9h-2q0 12 19 17q3 0 30 -11h22q23 0 23 11q17 7 60 56q0 2 1 5
q-15 106 -33 156q-39 96 -79 136q-1 13 -54 63q-15 26 -17 51l2 26q-6 22 -6 32l-5 -3q-3 0 -3 3q1 3 1 7q-4 0 -4 14h-2v-5h-3v2q0 6 5 34l-2 3q5 17 6 56v4h-1q0 -9 -7 -11h-1v42q0 56 -50 56q-83 5 -83 11q0 12 34 35q59 25 104 26q38 25 65 25zM357 1266h5q11 -1 11 -5
q-2 -4 -4 -5q-8 1 -9 1q-4 0 -4 -7v-3h4q6 0 8 -3v-2q0 -1 -5 -4h-7v-32q-1 -7 -7 -7q-7 3 -7 8v31h-7q-2 1 -4 5q2 4 8 4h3v3q0 16 15 16zM567 1266h4q5 -2 5 -9v-15q8 6 13 6h7q17 0 20 -23v-2q-3 -24 -23 -24q-8 0 -17 7q0 -4 -7 -7q-8 0 -8 9v51q0 5 6 7zM506 1264h5
q1 0 5 -4v-13h7q4 -1 4 -6l-4 -3h-7v-24q0 -4 4 -5l6 1h2q2 0 3 -3v-3q0 -3 -14 -5q-16 0 -16 16v23q-7 0 -7 3v4q1 2 7 2v10q0 5 5 7zM396 1248h6q25 -3 25 -25q-4 -24 -28 -24q-25 0 -28 25v1q4 23 25 23zM440 1248h5q4 -1 4 -7q8 7 16 7h4q17 -2 17 -14v-30q-1 -3 -7 -5
q-6 0 -8 10v22q0 7 -7 7h-3q-10 0 -10 -14v-18q-2 -7 -8 -7q-7 3 -7 8v33q0 7 4 8zM627 1248h5q4 0 15 -35h1q13 35 17 35h4q2 0 4 -3v-1q-21 -61 -32 -61q-1 -1 -5 -1h-7q-6 0 -9 5v1q0 2 5 4h9q3 1 7 9q-18 38 -18 41v3q0 1 4 3zM385 1224q0 -13 13 -15h2q12 2 12 15
q0 15 -14 15q-10 0 -13 -15zM576 1223q0 -14 14 -14q10 0 12 16q0 14 -14 14q-12 -2 -12 -16zM147 1159h2q8 0 8 -9v-46h33q2 0 5 -3v-4q0 -1 -5 -3h-41q-7 0 -7 6v54q0 2 5 5zM274 1159q8 0 8 -12v-23l20 17h4q2 0 5 -4v-2q0 -2 -13 -12q17 -22 17 -25v-2q-2 -3 -6 -4
q-7 0 -20 23q-2 0 -7 -6v-7q0 -7 -6 -9h-5q-1 0 -4 3v57q0 6 7 6zM479 1159q6 0 7 -7v-23q32 30 36 30h1q5 0 7 -5q0 -6 -21 -21q23 -29 25 -35q0 -4 -7 -6q-8 0 -23 23q-6 8 -7 8l-11 -10v-13q-2 -8 -9 -8q-7 3 -7 8v52q0 7 9 7zM659 1159h4q5 -2 5 -9v-26l21 17h2
q6 -1 6 -3v-1q0 -5 -12 -14q16 -21 16 -25v-2q-2 -3 -6 -4q-6 0 -20 23q-1 0 -7 -6v-9q0 -5 -7 -8q-6 0 -7 7v53q0 5 5 7zM208 1141h2q7 0 7 -6v-20q0 -12 9 -12h2q10 1 10 9v20q0 7 5 9h5q5 -1 5 -6v-39q0 -1 -5 -3h-4q-5 2 -5 7q-8 -7 -15 -7h-5q-16 0 -16 18v23q0 5 5 7z
M347 1141h6q21 0 21 -19v-15q0 -1 2 -10v-1q-2 -3 -6 -4q-4 0 -9 7q-12 -7 -20 -7q-19 3 -19 13q0 15 37 18v1q0 8 -7 8h-6q-5 0 -14 -9q-5 0 -7 4v2q3 12 22 12zM403 1141h5q18 0 21 -11v-1q-2 -4 -6 -4q-11 8 -15 8h-3q-6 0 -7 -4q0 -5 27 -10q7 -6 7 -10v-1
q0 -14 -24 -16q-24 2 -24 13v2q2 4 6 4q3 0 11 -9l5 -1h4q6 0 7 3v4q0 2 -26 9q-6 6 -7 10q0 11 19 14zM550 1141h5q4 -1 4 -6h1q0 4 10 6h2q12 0 12 -8q0 -1 -4 -4l-14 1q-6 -4 -6 -13v-15q-1 -10 -7 -10q-6 2 -7 4v39q0 5 4 6zM610 1141h8q21 0 21 -15v-15q2 -13 2 -15v-1
q0 -1 -6 -3q-4 0 -8 7q-12 -7 -21 -7q-18 3 -18 12v2q0 13 30 16l7 1v3q0 5 -5 6h-9q-5 0 -13 -9q-8 0 -8 6q0 9 20 12zM733 1141h7q25 -3 25 -25q-5 -24 -28 -24q-25 0 -28 25v1q4 23 24 23zM779 1141h5q4 -1 4 -6h1q0 4 10 6h2q12 0 12 -8q0 -1 -4 -4l-14 1q-6 -4 -6 -13
v-15q-1 -10 -7 -10q-6 2 -7 4v39q0 5 4 6zM839 1141h8q21 0 21 -15v-15q2 -13 2 -15v-1q0 -1 -6 -3q-4 0 -8 7q-12 -7 -21 -7q-18 3 -18 12v2q0 13 30 16l7 1v3q0 5 -4 6h-10q-5 0 -13 -9q-8 0 -8 6q0 9 20 12zM723 1117q0 -13 13 -15h2q12 2 12 15q0 15 -14 15
q-11 0 -13 -15zM338 1109v-5q1 -3 7 -3h1q13 0 13 10v5q-21 -4 -21 -7zM603 1109v-2q0 -6 7 -6h3q12 2 12 9v6q-22 -4 -22 -7zM832 1109v-2q0 -6 7 -6h3q12 2 12 9v6q-22 -4 -22 -7zM409 1051h5q24 -2 24 -18v-1q0 -13 -28 -29q0 -1 -4 -5v-1h24q8 0 9 -3v-4q0 -1 -4 -3h-40
q-9 0 -9 6q0 7 34 31q4 5 4 9q0 7 -13 9q-8 0 -13 -13q-4 -2 -6 -2q-4 1 -5 3v5q0 12 22 16zM475 1051q24 -3 24 -26q1 -5 1 -7q0 -20 -11 -28q-7 -4 -14 -4h-4q-15 0 -23 18q-1 8 -1 13v3q0 26 20 31h8zM532 1051h8q21 -3 21 -19q0 -11 -30 -31l-3 -4h26q6 0 8 -4v-3
q0 -1 -4 -3h-43q-5 2 -5 7t35 32q2 6 2 7q0 7 -13 9q-7 0 -13 -13q-3 -2 -5 -2q-6 2 -6 6q0 14 22 18zM599 1051q24 -3 24 -26q1 -5 1 -7q0 -20 -12 -28q-7 -4 -13 -4h-4q-16 0 -23 18q-1 8 -1 13v3q0 26 19 31h9zM462 1017q0 -22 12 -22q11 2 11 16v15q0 16 -13 16
q-10 0 -10 -25zM585 1017q0 -22 13 -22q10 2 10 16v15q0 16 -12 16q-11 0 -11 -25z" />
    <glyph glyph-name="registered" unicode="&#xae;" horiz-adv-x="1246" 
d="M559 1025h-10q-23 6 -29 6l-35 -5h-5q-41 -12 -47 -21q0 -4 13 -18v-1l-6 -24v-5l14 -21l-6 -18v-6l5 -12l7 -11l10 -1q29 8 38 8q0 -1 24 -8l27 3h11l19 -3q8 7 22 7q9 0 23 -7q56 8 69 23l4 4v12l21 17q2 5 2 8q0 9 -12 15v2q0 3 12 16q-4 8 -29 16l-4 7v11l-9 5
l-25 -3h-8q-27 5 -68 10h-3zM908 668q16 15 28 46v32q0 9 29 39q0 11 -17 27v7l20 36v2q0 11 -20 31v7l17 36v5q-32 26 -32 50q-9 36 -19 36l3 12v8q0 7 -46 35l-18 16l4 19v2q0 31 -113 80q-3 16 -131 36l-3 2l-23 -14l-28 9h-9q-25 -2 -51 -13q-27 0 -42 5q-13 0 -51 -39
q-82 -20 -82 -53v-2l9 -11q14 -5 19 -5q41 3 67 11h6q17 -13 26 -13l23 5l16 -3h9l25 9l34 -8l21 2l26 -5q19 16 25 16l31 -13l21 2q9 0 30 -17q4 -4 30 -6q31 -23 55 -45q14 -10 31 -51l15 -16l-5 -17v-20q-16 -28 -31 -43l-3 -18q0 -8 -30 -13q-21 -18 -21 -26v-1
q12 -18 12 -25q0 -11 10 -31q0 -46 15 -46q19 -12 19 -27l8 -3h26q23 -19 48 -19q8 0 17 -20zM200 974q-33 -36 -33 -72l11 -27v-10l-19 -38q30 -39 30 -55l-4 -10q0 -65 53 -95q8 -8 11 -28l21 6l5 -2q13 4 30 18q34 0 34 32v4l-8 53l10 26l-17 18v2q7 35 15 51l-2 36v4
l-8 19q0 8 12 36v2q-24 28 -24 42l8 15l2 2v4q-3 10 -22 16q-18 6 -43 6q-6 0 -26 -1t-36 -54zM295 574l3 -13l60 -21q16 0 27 -19q52 -41 122 -41q11 0 69 26q13 0 69 -22h10q27 0 48 20q96 0 147 61l-2 11q-14 8 -62 10l-24 12h-26q-12 2 -26 40l-32 14v4q17 2 17 11h-2
q-25 6 -25 15v2q0 6 14 24v6q-10 6 -10 11v6l6 12v2l-17 21q0 15 -16 15q-21 0 -31 12q-2 12 -11 12l-37 -10q-4 4 -29 12l-19 -2l-23 4q-19 0 -39 -22l-1 -6q6 -11 12 -24q-4 -4 -19 -14q6 -8 14 -22q0 -4 -9 -22v-4q0 -2 9 -16q14 -21 43 -21q11 0 38 -6q14 6 27 7
q12 0 25 -55q-9 -14 -38 -14l-14 -5q-23 -11 -35 -11l-40 10h-4l-56 -8l-9 -2l-29 4h-16l-36 2q-10 0 -23 -6zM661 1348h25q36 -36 75 -36q31 0 69 -35q81 -22 108 -76l36 -30q39 -44 45 -96q46 -64 54 -93l-4 -16v-18q27 -20 27 -117l-11 -30l3 -31v-18l-23 -30l4 -39v-4
q-46 -38 -46 -74l-31 -43q-69 -58 -104 -119l-69 -28q-10 -21 -104 -37q-35 -28 -49 -28l-83 22l-24 -2h-12q-13 0 -62 -22h-7q-47 36 -58 36l-35 -4q-11 0 -54 39l-19 4l-27 -4q-21 0 -42 50l-85 67q-14 12 -16 32l-9 27q-14 25 -48 76l-4 14l4 17q-31 46 -31 58
q19 20 19 36q-11 16 -23 33l2 12l15 32q0 8 -14 40l1 13l17 29l3 11l-5 30l5 16l39 41q16 28 33 71q50 42 58 70q27 13 46 55q18 12 70 24q31 39 104 39q38 34 69 34q41 -9 53 -9l31 6l23 -2h15z" />
    <glyph glyph-name="macron" unicode="&#xaf;" horiz-adv-x="1043" 
d="M673 1733h2l31 -7l29 -3h40q25 -3 47 -11q31 -14 49 -45l2 -11q-7 -55 -59 -84q-29 -5 -67 -20h-6l-74 11h-6q-32 0 -86 -14l-42 8h-40q-9 0 -70 -10h-5l-71 16l-38 3q-32 -3 -69 -13l-11 -2l-45 10q-33 2 -68 7q-34 20 -45 63q12 55 40.5 70t75.5 25q38 -9 83 -9
q12 0 70 10h13q55 -15 64 -15h19q29 0 81 15h5l43 -9h10q31 0 60 5z" />
    <glyph glyph-name="degree" unicode="&#xb0;" horiz-adv-x="759" 
d="M445 875q-13 2 -30 2q-30 0 -48 -10q-31 -12 -53 -16l-5 -1q-36 20 -56 24l-23 4l-24 2l-18 3q-26 24 -55 76l-40 53l-3 8q-1 43 -14 89l-6 36l1 23q0 42 55 108q31 49 65 78h6l76 5l35 19l64 -6l50 6h14q24 -20 52 -43q47 -37 81 -111l20 -37v-2q0 -114 -32 -162
q-14 -56 -31 -81q-12 -28 -81 -67zM222 1086q29 -54 86 -62q35 0 59.5 8t60.5 28l11 29q11 27 11 53q0 21 -15 61l-37 32l-20 7q-24 9 -47 9q-64 0 -113 -62q-9 -20 -9 -41q0 -26 13 -62z" />
    <glyph glyph-name="plusminus" unicode="&#xb1;" horiz-adv-x="1292" 
d="M528 1370l29 3q100 -3 121 -74l11 -33l-14 -50v-60q-10 -36 -10 -76q0 -17 2 -34q0 -60 70 -60h5l73 -12l51 17h16q44 -10 92 -10q15 0 28 1q60 -10 72 -88v-7q0 -57 -80 -99h-13l-61 7q-68 -3 -106 -14h-63l-34 -3q-28 -15 -28 -34l5 -40l-15 -52l13 -52l-12 -54l7 -41
q0 -50 -75 -72q0 -6 -63 -21q-29 11 -39 29l-28 89v18q11 37 11 79q0 12 -1 21l7 49v4q0 63 -88 81l-69 7q-66 -10 -134 -16h-4q-104 19 -134 97v3q0 37 82 111l22 4l53 -11l32 7h4l54 -11l25 7h27q38 -18 60 -18q37 0 64 32q-21 161 -33 189l8 33l-9 55q3 80 69 99z
M854 308h5l40 -14l48 -6l23 1q60 9 76 9h4q51 -28 72 -76l-1 -19q0 -84 -68 -98q-40 -6 -90 -19h-11l-92 10q-43 -1 -117 -16l-69 12h-22q-11 0 -85 -11h-9l-74 11l-82 -12q-42 9 -71 9q-11 0 -21 -1l-55 -8l-14 2q-53 16 -104 22q-47 20 -60 53q-1 4 -1 10q0 50 34 83
l113 51h8q61 -23 120 -23q17 0 84 25h16q56 -25 68 -25h24q37 0 97 20h7l87 -23q42 0 97 31z" />
    <glyph glyph-name="acute" unicode="&#xb4;" horiz-adv-x="730" 
d="M625 1759q5 -11 5 -26q0 -28 -21 -65q-9 -13 -60 -46q-15 -21 -33 -52l-4 -4l-76 -32l-36 -46l-8 -6q-61 -23 -65 -25l-54 -36q-20 -14 -119 -23l-10 5q-4 14 -4 32q0 14 7 35.5t25 56.5l9 7l34 36l9 53l4 5l65 53l16 61l1 4l59 31l28 28q47 7 91 7q37 0 78.5 -9
t58.5 -44z" />
    <glyph glyph-name="periodcentered" unicode="&#xb7;" horiz-adv-x="648" 
d="M331 459h-15l-56 9l-41 7q-68 16 -130 96q-19 47 -19 101v4q8 67 71 127q65 46 141 54h12q22 0 99 -36q37 -27 50 -71q8 -42 35 -102q-3 -55 -31 -98q-20 -28 -40 -38q-27 -13 -56 -39z" />
    <glyph glyph-name="periodcentered" unicode="&#x2219;" horiz-adv-x="648" 
d="M331 459h-15l-56 9l-41 7q-68 16 -130 96q-19 47 -19 101v4q8 67 71 127q65 46 141 54h12q22 0 99 -36q37 -27 50 -71q8 -42 35 -102q-3 -55 -31 -98q-20 -28 -40 -38q-27 -13 -56 -39z" />
    <glyph glyph-name="cedilla" unicode="&#xb8;" horiz-adv-x="702" 
d="M517 23l2 -11q-44 -23 -46 -51v-2q0 -22 27.5 -61.5t31.5 -88.5l-1 -18l-24 -30v-9l-3 -29q-6 -45 -66 -86q-42 -22 -84 -31q-43 -10 -79 -11l-35 14l-48 7l-35 27q-72 30 -86 124q-1 6 -1 12q0 38 17 38t54 -22l41 -14l30 -25q22 -14 57 -14q9 0 18 1q49 3 61 49
q1 7 1 13q0 30 -26 52q-8 10 -68 33q-19 7 -47 99q-12 7 -42 26l5 7z" />
    <glyph glyph-name="uni00B9" unicode="&#xb9;" horiz-adv-x="2203" 
d="M62 1174q0 -105 213 -175q139 -42 253 -42q7 0 76 -42q88 -56 148 -56l2 3q-35 19 -71 98q124 18 189 44q198 70 198 170q0 111 -220 181q-140 40 -286 40q-260 0 -429 -108q-73 -52 -73 -113zM549 1405h36q213 0 385 -87q107 -67 107 -140v-5q0 -114 -232 -191
q-79 -20 -147 -29q26 -63 84 -101l-2 -7q-118 3 -249 102q-136 0 -296 53q-180 74 -180 172v12q0 76 132 148q167 73 362 73zM1075 931h12q79 0 152 -148q23 -39 34 -46q149 -111 196 -155q71 -8 84 -22l107 -45q40 -20 52 -59q6 -8 12 -26q-7 -3 -19 -6v-2q15 -4 77 -37
q210 -51 244 -88q12 -14 12 -21v-2q0 -4 -3 -4q-11 0 -46 12q0 -5 -2 -8q-7 0 -143 38q-34 8 -104 20q126 -91 154 -107l111 -60l6 -7v-5h-2q-16 3 -17 3v-8q0 -4 -3 -4l-31 9q-2 0 -11 -1q-1 0 -19 9q0 -15 -10 -15q-11 0 -29 12q-1 -9 -6 -9h-3q-10 0 -43 21q0 -2 -5 -5
l-48 26q0 -4 -4 -4h-3q-47 22 -55 22q-16 -3 -22 -3h-4q-9 0 -145 32l-16 2q-31 0 -46 -24l-3 -1q-49 23 -61 23q-11 -2 -11 -5l5 -3q0 -5 -7 -5l16 -15q-7 -2 -7 -4q1 0 1 -2l-8 -1q5 -26 5 -48l-3 -2q0 2 -2 2q0 -14 -31 -58q-26 -70 -26 -75t-2 -12q2 -11 2 -22v-9
q0 -3 13 -11q6 0 16 3q30 -11 30 -33q1 -6 1 -12l-3 -1q-13 31 -25 31h-10q-4 -11 -8 -12q-8 0 -31 12q-8 -16 -25 -34q0 -8 -9 -12h-4l-12 1q-11 -15 -11 -31h-3v18q0 10 28 55l-16 -12h-9q-2 0 -6 8q-4 0 -21 -17v3q0 22 33 27q47 31 49 48q20 58 28 111v1q0 12 -7 57
l2 10q0 4 -2 14q4 12 4 18q-21 19 -31 19v-2l6 -22l-10 -9l3 -3v-1h-5v3h-4q6 -11 6 -15v-2q0 -9 -6 -12h-2l-19 17l-3 -2q-4 2 -6 2q0 -2 -1 -2q4 -9 4 -15l-3 -1h-9l-7 11h-3v-4q3 -36 3 -42q0 -34 -58 -83q-20 -22 -20 -30v-3q2 -5 11 -5l42 12q22 -6 22 -27q0 -4 -3 -4
q-8 19 -15 19q-11 0 -15 -19q-5 -3 -9 -3h-3q-18 0 -46 3q-13 -8 -19 -8h-12q-4 0 -17 6l-8 -1h-4q-7 0 -14 1q-6 -1 -14 -1q-4 0 -4 9q-12 -11 -12 -16h-4v4q0 11 10 24v1q0 3 -9 5q-9 -2 -18 -10h-2q0 13 20 19q4 0 33 -12h25q25 0 25 12q19 8 66 61q0 2 1 5
q-16 116 -36 170q-43 105 -87 148q-1 15 -60 69q-16 28 -18 55l2 29q-7 24 -7 35l-5 -4q-3 0 -3 4q1 3 1 7q-5 0 -5 16h-2v-6h-3v2q0 7 5 37l-2 4q6 18 7 61v4h-1q0 -10 -8 -12h-1v46q0 61 -55 61q-92 5 -92 12q0 13 38 38q65 27 114 28q42 27 72 27zM704 1286q8 0 9 -11
q-2 -5 -7 -7h-2q-10 0 -10 9q0 7 10 9zM276 1111v6q2 3 5 3h8v9q0 18 23 18h3q10 0 13 -6v-5q0 -2 -6 -4q-7 2 -9 2q-5 -2 -5 -4v-10h5q9 -1 9 -4v-5q0 -2 -4 -4h-10v-42q-1 -14 -9 -14t-10 10v46h-4l-6 1q-3 1 -3 3zM249 1284h2q10 0 10 -10v-15h9q3 0 6 -5v-3q0 -2 -6 -5
h-9v-31q0 -10 5 -10l8 1h3q2 0 4 -5v-3q0 -6 -19 -8q-20 0 -20 28v28q-10 0 -10 4v4q0 4 10 5v8q0 15 7 17zM740 1284h6q2 0 6 -7v-18h10q5 -2 5 -9l-5 -4h-10v-34q0 -6 6 -7l8 1h2q2 0 5 -5v-3q0 -5 -19 -8q-21 0 -21 23v33q-9 0 -9 4v6q1 3 9 3v14q0 7 7 11zM507 1144h2
q7 -3 7 -10v-14h6q7 -1 7 -4v-5q-1 -4 -7 -4h-6v-38q0 -2 4 -4q7 2 12 2q4 -5 4 -7q-2 -9 -20 -9q-19 0 -19 22v34q-10 0 -10 7q1 6 10 6v15q0 9 10 9zM828 1144h7q7 -2 7 -16v-8h5q8 -1 8 -4v-5q-1 -4 -8 -4h-5v-38q0 -2 4 -4q7 2 12 2l3 -5v-5q-6 -6 -18 -6q-21 1 -21 16
v40q-10 0 -10 5v3q0 4 10 5v15q0 7 6 9zM288 1261h5q6 0 22 -50h1q14 46 21 50h6q3 -1 6 -7q-31 -85 -39 -85q-5 -3 -12 -3h-9q-7 0 -9 5v5q0 2 4 4h13q4 0 8 14q-13 30 -24 59q2 5 7 8zM366 1261h6q6 -4 6 -11q11 11 21 11h4q23 0 28 -30v-10q-6 -31 -31 -31q-11 1 -22 10
v-24q0 -7 -6 -10h-7q-5 0 -6 17v64q0 10 7 14zM473 1261h8q26 0 29 -31q0 -9 -17 -9h-32q2 -18 16 -18h1q9 0 23 12h4q2 0 4 -4v-1q0 -15 -31 -20q-36 5 -36 31v6q4 34 31 34zM524 1261h7q4 0 18 -46h1q11 46 18 46h8q6 0 17 -48h2q12 48 17 48h3q9 0 9 -8q-20 -63 -28 -63
h-3q-10 0 -22 46h-1q-9 -46 -20 -46h-1q-11 0 -21 37q-2 0 -9 27q2 6 5 7zM640 1261h7q5 -3 5 -10q8 10 14 10h5q8 0 14 -8v-2q0 -7 -6 -7q-14 1 -16 1q-8 0 -9 -21v-23q0 -7 -10 -11q-8 0 -9 10v49q0 10 5 12zM704 1261h2q7 -4 7 -11v-49q0 -7 -9 -11q-8 0 -10 10v51
q0 10 10 10zM807 1261h7q27 0 30 -31q0 -9 -17 -9h-33q3 -18 16 -18h2q9 0 23 12h4q2 0 4 -4v-1q0 -15 -31 -20q-37 5 -37 31v6q4 34 32 34zM358 1121h9q27 0 32 -33v-3q-5 -34 -35 -34q-37 6 -37 31v6q5 33 31 33zM418 1121h6q6 -2 6 -10h1q6 10 19 10h6q17 0 21 -21v-39
q-2 -10 -9 -10q-10 4 -10 11v33q0 12 -10 12h-3q-11 0 -14 -14v-31q0 -7 -10 -11q-8 0 -9 10v51q0 7 6 9zM566 1121h7q24 -3 24 -16q-2 -7 -9 -7q-14 12 -19 12h-3q-7 0 -9 -5v-3q2 -4 36 -14q8 -8 8 -14q0 -20 -32 -23q-32 4 -32 19q2 5 7 8q6 0 17 -13l8 -1h4q9 0 9 9
q0 4 -33 14q-10 6 -10 14q0 20 27 20zM662 1121h7q5 -2 5 -10q10 10 20 10h6q21 -2 21 -20v-44q-1 -3 -9 -6q-8 0 -9 14v32q0 10 -10 10h-4q-13 0 -13 -20v-26q-2 -10 -10 -10q-9 4 -9 11v48q0 9 5 11zM770 1121h5q25 0 30 -29q0 -10 -15 -10h-35v-3q3 -15 17 -15h2
q8 0 20 11h6q2 0 4 -3v-2q0 -14 -31 -19q-38 4 -38 36q0 23 23 33q7 1 12 1zM380 1233v-13q0 -13 18 -15q14 3 14 18v6q0 18 -18 18q-14 -4 -14 -14zM461 1233h31v2q-2 12 -12 12h-6q-10 0 -13 -14zM794 1233h32v2q-2 12 -13 12h-5q-11 0 -14 -14zM346 1090v-7q2 -18 16 -18
h2q13 0 16 18v7q0 18 -18 18q-14 0 -16 -18zM755 1093h31q0 11 -9 15h-9q-11 0 -13 -15zM627 1072q11 -2 11 -11q0 -7 -10 -10q-11 1 -11 10v4q5 7 10 7zM861 1262h5q6 0 6 -8l11 8h8q8 0 13 -7v-6q-1 -2 -6 -5q-5 3 -12 3h-1q-12 0 -12 -28v-16q-1 -11 -9 -11q-10 3 -10 12
v45q0 10 7 13z" />
    <glyph glyph-name="guillemotright" unicode="&#xbb;" horiz-adv-x="3053" 
d="M1234 45v-10h4q0 2 12 19h-6q-5 0 -10 -9zM940 73v-4h9v4h-9zM1273 82v-7h4q5 0 5 7h-9zM493 75h-7q-5 -1 -5 -6h49q5 0 5 6l-3 7q-21 -7 -39 -7zM1186 106v-4h9q6 6 10 6v3h-5q-10 -5 -14 -5zM579 139h-3v-11q3 0 9 -2q15 10 23 10q0 5 -5 5q-14 -2 -24 -2zM1407 149v-8
h9v5q-4 0 -9 3zM1370 163q0 -12 -5 -17l-5 3q-7 0 -11 -10v-6h2v8h3q9 0 9 -13h2q14 23 22 23v12h-17zM1456 170v-7h5v7h-5zM1305 170v-5h5q5 0 5 5h-10zM630 139v-3q42 5 47 10h8q0 -13 5 -13h8v6q-8 17 -8 21v10h-5q-50 -31 -55 -31zM1344 175v-2h5v2h-5zM1339 198
q94 -42 105 -52h5v10q-19 24 -19 29l-10 -7q-11 17 -26 25q-2 0 -2 -3q-10 3 -12 3l-12 -3q-13 3 -24 3q-5 -1 -5 -5zM1282 203v-3q4 -11 13 -17q6 0 12 2q5 -2 8 -2v2q0 4 -28 18h-5zM1284 222l3 -5q3 0 3 2l15 -2h68v5q-9 16 -46 24h-5zM1167 424v-2h8v2h-8zM1181 427h5
q4 0 9 10v3h-4q-4 0 -10 -13zM1202 460v-3h8q4 0 14 17v2h-3q-19 -11 -19 -16zM546 491q0 -15 -3 -15q3 -4 3 -10h5v25h-5zM1247 499q0 -5 -7 -13v-17h4q0 6 9 17v13h-6zM585 504v-8q4 0 10 11v2h-5q-5 -1 -5 -5zM526 521v-22h4q0 3 10 34h-3q-3 0 -11 -12zM849 533
q0 -6 36 -15q0 -5 9 -9h48q6 0 27 14v10q-14 0 -23 -2q-31 2 -31 5l-13 -3h-25q-4 0 -4 3q-1 -3 -24 -3zM469 545v-7h6v7h-6zM488 566v-5h5v5h-5zM521 569v-33q14 9 14 22q-1 7 -14 11zM459 572v-14h3q0 7 5 14v3q-5 -3 -8 -3zM469 593v-8q5 0 14 -13v-3h5q-13 20 -13 24h-6
zM1215 604v-11h3v11h-3zM464 615v-8h3v8h-3zM399 639h5v5q-5 -2 -5 -5zM590 661v-6q24 -23 32 -62h2l3 27q-11 21 -16 35l-18 6h-3zM1210 665q0 -3 8 -8v8h-8zM464 669v-7h3v7h-3zM581 695l7 -2l2 5v2h-2q-7 -1 -7 -5zM392 717v-12h7q0 13 17 17v13h-2q-14 0 -22 -18z
M478 745q5 -7 5 -10h8q-4 10 -8 10h-5zM590 750q0 -15 -14 -26q-12 0 -30 -12h-3q-6 0 -6 10l-13 -8q-13 0 -28 17h-3q0 -10 -5 -17v-9q0 -3 17 -10q1 5 5 5h6l8 -5h8q13 10 49 19l14 23v13h-5zM457 764v-7q2 0 15 -12h3v7q-12 0 -13 12h-5zM617 771v-7h2v7h-2zM617 821v-14
q15 -16 15 -50q-14 -36 -37 -52v-5h5q16 19 22 19q18 28 23 60q-14 42 -23 42h-5zM598 828v-10h2v10h-2zM772 872v-3h8v3h-8zM530 872q4 -11 7 -11v11h-7zM1088 877v-8q5 -13 17 -13h7v3q-14 0 -19 18h-5zM551 877q0 -3 9 -8h3v3q0 5 -6 5h-6zM505 877q2 -5 2 -11h5l-2 14z
M1033 869h8q0 5 20 14l3 5h-5q-11 -3 -26 -19zM524 890q0 -5 6 -5h2v5h-8zM1126 895v-2h6v2h-6zM1074 895q0 -5 -8 -5v-2h8q5 5 29 5v2h-29zM551 895v-2h6v2h-6zM502 899v-9h3v9h-3zM475 913v-23q8 -7 8 -13l5 3q-7 19 -7 24v9h-6zM444 904v-9q0 -4 13 -10h5v28h-3
q-9 -9 -15 -9zM614 927v-9h8v2q0 7 -5 7h-3zM680 947v-5h5v5h-5zM464 950v-8h3v8h-3zM464 961v-5h3v5h-3zM537 981q2 -6 6 -6v6h-6zM767 994v-5h15q0 5 -6 5h-9zM814 996l-5 -7h11q5 0 5 5q-6 0 -11 2zM444 996q0 -10 -10 -10v-2h14v12h-4zM540 999v-5h3v5h-3zM411 999v-5h5
v5h-5zM724 1007v-6h8q0 6 -5 6h-3zM436 1013q2 -6 5 -6v6h-5zM857 1020v-5h2v5h-2zM368 1043v-33l3 -26h7v17l-5 9v8q0 2 3 2q-5 14 -5 23h-3zM897 1046v-5h5v5h-5zM546 1046v-5h3v5h-3zM782 1051v-8l5 -2v2q-2 5 -2 8h-3zM524 1053h6v5q-6 -1 -6 -5zM776 1067v-14h6l-2 14
h-4zM705 1067v-2q4 -33 24 -33q9 -5 15 -5v2q-29 38 -39 38zM910 1070v-12h2q0 9 14 22l-5 2q-8 -12 -11 -12zM871 1098q0 -14 -24 -26v-7h10q10 9 20 30zM1012 1108v-3h5v3h-5zM1019 1110h9v5h-4q-5 -1 -5 -5zM595 1115v-7q3 -8 52 -36q0 -7 5 -7h5q0 11 -25 45l-15 -2
q-14 7 -22 7zM1260 1122v-7h8v7h-8zM579 1122v-9h2v9h-2zM386 1129v-19q0 -9 -3 -24l9 -14v-19h7q-7 34 -7 42l7 10q-7 24 -13 24zM560 1139l-3 -5v-12h3q5 0 5 5v7q0 5 -5 5zM718 1179v-14l6 -3l-4 17h-2zM532 1179q0 -4 -6 -12v-5q11 -23 17 -23v26l-6 8q6 0 6 6h-11z
M622 1184v-3h8v3h-8zM713 1191v-12h2v12h-2zM942 1194v-3q13 5 14 12h-5q-3 0 -9 -9zM713 1206v-10q5 3 7 3q0 7 -5 7h-2zM985 1137q-5 2 -7 2l-17 -2v-13l3 -14h9q12 7 12 12v5l-2 5h5q0 -8 5 -8h8q47 24 47 52l23 33v2h-2q-23 -7 -23 -27q0 -33 -61 -47zM1124 1209l5 -3v8
q-5 -1 -5 -5zM640 1216q0 -2 -4 -7h9v7h-5zM464 1224v-5h11v5h-11zM921 1230v-6h5v6h-5zM703 1233l2 -14q5 0 5 5v9h-7zM942 1219h4q27 13 27 16h-9q-22 -10 -22 -16zM680 1238v-5h5q0 5 -5 5zM488 1238v-5h3v5h-3zM598 1241v-6h2v6h-2zM1189 1243v-10q19 0 19 -14h7
q0 6 17 16l-11 8h-32zM519 1243v-5h5v5h-5zM496 1253v-5h2v5h-2zM1014 1262v-5h5v5h-5zM392 1189v-8h4q6 6 33 8q2 -4 2 -10h10q8 0 12 -3q17 15 22 15v12h-3q-9 -7 -13 -7q-1 5 -15 13q13 13 15 34q8 0 8 5v14q-35 -42 -75 -73zM762 1273q-7 -11 -20 -49v-43q0 -2 -3 -2
q4 -19 18 -55v-14h15v5q-6 8 -12 45v5q0 5 2 11q0 3 -2 3q0 8 20 87h-4q-6 0 -14 7zM502 1273v-11h3v11h-3zM469 1273q0 -3 -2 -7h8v7h-6zM1126 1281v-8q6 0 6 5zM1006 1281v-5h2v5h-2zM1189 1311v-3h6v3h-6zM579 1311v-9h2v9h-2zM1181 1319q0 -5 5 -5v5h-5zM915 1241v-6h3
q19 11 62 24q0 19 37 62v4l-5 8l-21 -3q-9 3 -11 3q-32 -25 -65 -92zM785 1335l-3 -5v-9h15v4q-5 0 -12 10zM1031 1339v-11q5 0 5 5v6h-5zM1126 1342v-9h20q7 -5 29 -12h6v4q-11 0 -11 8h-17q-6 6 -27 9zM985 1353v-6h16q0 4 -10 6h-6zM1043 1359v-6h3v6h-3zM718 1362v-5h2
v5h-2zM1019 1370v-5h9v5h-9zM682 1377q-10 -39 -10 -63v-48q8 -9 8 -18h5q5 0 5 5q-5 0 -5 6q0 17 -3 49q3 26 3 49q5 0 5 5v10q0 5 -5 5h-3zM1141 1386l-7 3q-34 -8 -34 -12q12 0 12 -5v-2q0 -3 -9 -8h-15q-9 0 -33 13h-12v-3q27 -14 45 -15q1 -10 7 -10h8q0 11 18 12h17
q48 -14 70 -40q12 -11 36 -57q3 0 3 -3l-7 -8q5 0 13 -23h5v15l-14 42l-63 87v3q3 10 3 11q-3 7 -3 9h-28q-9 -9 -12 -9zM718 1400v-5h2v5h-2zM802 1408v-5h4v5h-4zM636 1408v-5h6q0 5 -6 5zM521 1367v-5q11 -11 11 -18h5v5l-5 8v8q0 4 8 7q14 -11 14 -28h3q2 14 54 49h11
v-9h8v5q-8 0 -11 16l-31 3h-9q-29 -10 -58 -41zM1126 1410l-2 -5v-2h19v5q-2 0 -17 2zM854 1413q3 -5 3 -10h6v2q-4 5 -4 8h-5zM790 1427v-12h2v12h-2zM1055 1429v-2q14 -7 14 -12h19l10 -12v16h-10q-10 0 -33 10zM619 1432q0 -4 11 -8q0 5 22 5v3h-33zM595 1427v-5
q7 0 19 7v3h-3q-11 -5 -16 -5zM828 1434v-5h6v5h-6zM657 1429h9q8 5 14 5v3h-14q-4 0 -9 -8zM828 1447v-10q6 0 6 6zM690 1452q0 -5 13 -13q0 4 7 10q3 0 3 -2q21 2 21 8q-9 0 -14 2q-5 -5 -30 -5zM739 1455h8v5h-3q-5 -2 -5 -5zM985 1465v-16l6 -10v-24q1 0 12 -2v2l-6 19
v9q0 5 11 12h4q5 -2 5 -6v-2l-5 -10v-5q9 -19 21 -24l3 5l-3 6q3 5 3 8q-15 34 -28 38h-23zM852 1462q0 -6 25 -19l2 -6l-11 -13v-2h3q7 9 71 27h7q15 -7 15 -20h11q0 8 8 18q-10 0 -14 13h-13q-30 8 -41 19h-3zM800 1465v-5h9l35 21q3 0 8 -2l16 2q0 5 -5 5q-25 0 -61 -21
h-2zM877 1491v-5h5q6 0 6 5v3h-3q-6 -3 -8 -3zM710 56l3 -5l5 3h39q5 0 28 -7q8 0 133 17v2q-24 0 -24 3l-28 -3h-60q-11 0 -30 3q-6 -3 -9 -3q-10 3 -20 3q-3 0 -8 -3q-79 9 -109 28l6 3l79 -10l5 2q7 -2 9 -2q3 0 8 2l16 -2l7 2q11 -5 35 -5h16q6 0 12 3l5 -3q24 3 29 5
q11 -2 58 -5q21 5 39 5h39q98 0 204 34q27 18 61 28h19q0 4 13 17l-30 21q-26 0 -97 82q-1 10 -12 21q-43 73 -43 96q0 7 -5 26v31h-5l-10 -18q0 -13 -52 -65q-10 -26 -35 -40q-29 -24 -61 -24h-30q-57 7 -120 28q-71 33 -118 72v11q2 5 5 5q29 -29 88 -52q2 -3 49 -19
q10 -7 68 -21q4 4 12 4q9 -7 16 -7h8q50 8 75 27q97 96 153 199l35 73q24 75 32 146v33q0 5 2 10q-2 3 -2 11q19 44 40 109v57l2 15q-2 5 -2 8q0 6 2 6l-2 28v20q-21 87 -45 130q-41 8 -41 12l-55 -14q-13 -12 -38 -57q-7 0 -31 -29q-35 -26 -55 -28h-37l-9 5
q-37 -73 -57 -81q-35 -24 -76 -29q-3 -3 -19 -3q-47 9 -70 22q-34 -18 -35 -26v-7q1 -6 5 -6h3q11 11 41 11q3 0 3 -3l23 5q109 -17 145 -50v-3q0 -6 -8 -6q-12 0 -86 33q-5 -3 -9 -3q-17 4 -17 8l-5 -3l-29 3l-27 -5q-6 2 -9 2l-25 -5q0 3 -3 3q0 -8 -27 -22q0 -13 -20 -13
q0 -6 -29 -12l-32 9l-9 -11v-3q36 -18 36 -34q16 0 49 -44l5 -26q0 -29 -18 -57q0 -8 -25 -26q0 -10 -47 -18v-6q4 0 9 -3q20 3 27 5q54 -10 54 -58v-14q0 -48 -52 -76q-10 -1 -10 -19q4 0 8 -7l-11 -16q2 -14 27 -34q0 -6 5 -12v-21l33 -93q10 -42 25 -66q0 -18 15 -49
q13 -43 15 -83q-2 -34 -10 -34q-12 12 -18 12q-7 -7 -12 -7q-112 13 -112 19q-6 0 -6 5l3 5q-14 5 -14 11q9 6 60 17l79 29v4q-11 44 -45 116q-13 45 -26 83v24q0 5 -35 15l-30 18h-9l1 -3l-48 18l-2 9q-16 26 -16 40q-3 0 -54 42q-10 39 -26 56l-19 71v5q-5 16 -5 22
q7 52 45 52v3q0 43 -40 69q-8 40 -22 51q-12 10 -12 35v5l20 47q-8 9 -13 43q9 124 29 174q0 2 -2 15l35 34q39 37 39 57q39 66 87 110q55 52 120 52q8 5 53 22h10q10 0 27 7q13 -7 18 -7h7q16 13 37 15q19 17 70 25q31 -4 33 -8l47 -5q125 -31 231 -103l10 -21
q72 -85 79 -126q0 -3 -2 -3l2 -13v-16q0 -11 -2 -30q0 -9 38 -32q24 -30 29 -64q0 -43 -22 -73v-13q4 -7 12 -49q-3 -38 -7 -38l4 -5v-2q0 -24 -39 -44q-21 -41 -54 -41l-6 -37l2 -20q-5 -26 -5 -31t5 -21q-13 -22 -13 -29v-2q14 0 23 -54q3 0 3 -2v-12q-8 -29 -13 -35v-5
q33 -33 37 -71q0 -56 -56 -90q-13 0 -34 -19q-10 -2 -11 -2q-14 2 -27 2q0 -7 -11 -7v-22l43 -79q70 -75 75 -75h5q45 37 62 38q0 4 8 7q26 -5 29 -5h9q0 -14 10 -14v6q-3 2 -4 5l-1 1l26 16q18 -12 18 -14q9 3 18 3t17 -3q17 -6 17 -12v-5q-1 -4 -34 -5q0 -3 -3 -3
q-5 3 -11 3l-9 -10q23 -4 23 -22q7 0 21 -30h5v7q0 8 -12 32l-4 6l-3 4q7 3 9 3q5 -2 13 -12q10 -13 24 -43q2 -15 29 -21q5 2 7 2q0 18 -53 76v3l8 2q25 -7 54 -57l5 -19l-5 -7q0 -8 33 -10q38 -14 58 -26q34 -19 49 -34q28 -15 56 -54q35 -32 75 -65q12 -14 12 -21
q0 -9 -15 -9l-46 16q-11 5 -19 27q-10 0 -83 81q-93 74 -136 74l-22 13q0 -8 -14 -8v-20q0 -4 -10 -7q27 -54 27 -150q2 0 2 -10q-7 -19 -12 -19h-17q-2 0 -5 51v95q-6 36 -21 55h-3l-5 -17v-19q-11 -19 -30 -83q-5 -1 -15 -39v-4l-33 -29q-8 -4 -14 -4q-7 0 -13 6v7
q75 119 77 156v37l-44 -66l-14 6q-51 -122 -62 -131h-7q-5 0 -9 16q18 25 66 120q0 6 15 42h-5q-10 -4 -57 -65q-29 -31 -47 -57h-8q-5 0 -8 14q-44 -27 -57 -54q-11 0 -33 -18h-10q-5 0 -12 13v5q22 39 77 68q46 37 61 45q15 7 18 7l59 49q0 8 9 8v5h-5q-12 -10 -21 -10
q0 3 -3 3q0 -9 -78 -42q-34 -19 -76 -31q-58 -30 -107 -48q0 -9 -34 -11q-48 -15 -141 -34q-55 -14 -57 -14q-3 0 -3 2q-46 -10 -67 -11h-29q-88 0 -88 14v2q0 8 30 12q3 0 9 -3q104 5 131 13l5 -3l135 24q51 9 96 33l5 -2q28 5 96 35h7v7h-9q-7 -7 -11 -7q-45 0 -179 -24
l-5 3l-71 -19q-73 -5 -86 -5q-9 -5 -46 -12q-97 -5 -104 -5q-16 5 -16 12q9 5 16 5q68 2 75 2v3q-4 0 -18 7q-13 -2 -21 -2q-6 0 -6 2l-67 -7h-8q-53 0 -53 7l-20 -2h-2q-40 1 -40 14q0 2 2 5q3 5 3 7h-31v-5l-116 -44l122 1q3 0 3 -2l6 2l73 5q23 -5 23 -11q0 -4 -6 -9
l-14 3q0 -4 -85 -15q0 6 -6 6q-205 -6 -205 -20q0 -3 3 -4q14 -9 14 -15q0 -7 -13 -10q-41 3 -58 3h-7q-4 0 -23 12l27 25l222 76l10 2h-1l51 18q6 5 57 13q5 -3 9 -3q0 3 2 3l-13 21v3q0 5 5 5h6q24 -23 24 -53q-3 -5 -3 -12q3 0 3 -2l6 2h3q6 0 10 -2l6 2q10 -5 21 -5h36
q11 0 21 -2q13 2 23 2h18l5 -2zM787 564q12 -11 27 -11q16 0 74 8h19l39 -8q13 8 20 8h19l21 -10h2q6 0 11 2q12 -3 12 -8v-7q-38 -26 -38 -36q0 -28 -70 -31l-24 -2q-11 7 -36 10q-23 25 -71 49l-10 13q0 4 5 23zM921 657q25 0 38 -18v-10q0 -6 -5 -6h-5q-7 0 -31 9l-6 -3
q-21 3 -21 8v2q8 13 30 18zM767 927l15 -4l15 4q4 -12 9 -12q23 3 36 3v-8h-8v-6l13 4q5 -1 5 -6q-3 -7 -3 -9q0 -4 19 -21v-6q0 -4 -16 -13h-24q-4 0 -8 8l8 11v5h-14q0 -18 -34 -24h-10q-14 0 -17 8v5l7 9v13h-7q-6 0 -6 -5q4 -6 4 -8l-9 -6q-13 5 -13 19q-23 0 -31 -11
l2 -5v-3q0 -5 -10 -5q-22 10 -27 13v3q0 4 17 10q-3 5 -3 9q0 14 83 24q5 4 7 4zM1161 950h25q34 0 54 -23q0 -5 -11 -12q-15 14 -32 14h-2l-17 -2q-3 0 -3 2q-50 -6 -75 -14v-2h38q3 0 25 -9l9 6q0 -1 6 -8l-3 -14q3 0 3 -3q13 5 22 5l2 -5v-5q0 -8 -13 -8l13 -19
q0 -6 -41 -15q-2 0 -8 10l3 13v5h-5q0 -25 -43 -30q0 -3 -3 -3h-2q-23 13 -34 36q-14 0 -14 -5l4 -13l-8 -3h-18l-14 -3q0 -13 -5 -43q8 -81 19 -126q-2 -5 -2 -7l2 -14q0 -23 -50 -42q-5 0 -5 5v9q24 14 39 34q-14 34 -26 130q0 84 85 132q39 27 85 27zM2282 1505
q216 -37 308 -87q87 -43 139 -85q157 -125 165 -293v-9q0 -61 -24 -120q-91 -217 -429 -318q-149 -39 -296 -39q-95 0 -188 16l-9 1q-82 14 -182 42q-127 -53 -224 -57q-14 -1 -28 -1q-66 0 -135 12l-11 3l-5 7q159 106 184 165q-149 125 -154 295q3 64 25 119l1 1
q84 203 389 305q165 51 335 51q36 0 72 -2q8 -1 67 -6zM1431 1143q-22 -58 -22 -107q0 -40 15 -74q10 -68 87 -164q54 -51 56 -58q-32 -60 -181 -161l1 -2q45 -5 94 -5q65 0 138 9q46 11 147 48q88 -24 191 -42h2q100 -17 198 -17q202 0 390 74q236 103 303 264l3 8
q24 58 24 116q0 130 -124 256q-166 149 -398 189l-13 3q-8 1 -15 4q-90 15 -181 15q-171 0 -344 -54q-286 -103 -371 -302zM1896 1263h9q17 -1 17 -9q-4 -6 -7 -7q-12 1 -14 1q-6 0 -6 -11v-5h6q10 0 12 -5v-3q0 -2 -6 -6h-12v-52q-2 -12 -12 -12q-12 4 -12 13v51h-10
q-3 1 -7 7q3 7 12 7h5v5q0 26 25 26zM2237 1263h7q8 -3 8 -15v-24q14 10 22 10h10q29 0 34 -38v-3q-5 -39 -39 -39q-12 0 -27 12q0 -7 -12 -12q-11 0 -11 15v82q0 8 8 12zM2139 1260h7q2 0 8 -7v-21h12q7 -2 7 -10l-7 -4h-12v-39q0 -8 7 -9l10 1h4q2 0 5 -4v-4q0 -6 -24 -9
q-25 0 -25 26v38q-12 0 -12 4v6q1 4 12 4v16q0 8 8 12zM1959 1234h10q40 -5 40 -41q-6 -39 -45 -39q-40 0 -46 41v1q7 38 41 38zM2031 1234h9q7 -2 7 -12q12 12 25 12h7q27 -3 27 -23v-50q-2 -4 -12 -7q-10 0 -12 16v36q0 12 -12 12h-5q-17 0 -17 -23v-29q-1 -12 -12 -12
q-11 4 -11 13v54q0 11 6 13zM2335 1234h8q7 0 26 -57h1q21 57 27 57h7q3 0 7 -6v-1q-35 -99 -53 -99q-2 -2 -8 -2h-12q-9 0 -13 8v3q0 2 7 5h15q5 2 11 15q-30 62 -30 67v4q0 2 7 6zM1942 1195q0 -22 20 -25h4q20 3 20 25q0 24 -24 24q-16 0 -20 -24zM2252 1193
q0 -23 24 -23q16 0 18 26q0 23 -22 23q-20 -4 -20 -26zM1554 1089h3q14 0 14 -15v-74h54q3 0 7 -6v-6q0 -2 -7 -5h-68q-11 0 -11 10v88q0 2 8 8zM1762 1089q11 0 11 -19v-38l34 28h7q2 0 7 -6v-5q0 -2 -21 -18q27 -37 27 -41v-3q-3 -5 -10 -7q-10 0 -32 38q-2 0 -12 -11v-11
q0 -12 -8 -15h-9q-2 0 -6 6v92q0 10 12 10zM2094 1089q10 0 12 -12v-36q52 48 59 48h1q8 0 12 -9q0 -8 -35 -33q38 -48 42 -57q0 -7 -12 -10q-14 0 -37 38q-10 13 -12 13l-18 -16v-22q-3 -13 -14 -13q-12 4 -12 13v84q0 12 14 12zM2387 1089h7q8 -4 8 -15v-42l34 28h3
q11 -1 11 -5v-3q0 -8 -21 -21q27 -35 27 -41v-3q-3 -5 -10 -7q-10 1 -32 38q-2 0 -12 -11v-14q0 -9 -11 -13q-11 0 -12 11v86q0 8 8 12zM1654 1060h3q12 0 12 -11v-31q0 -21 13 -21h4q17 2 17 15v33q0 11 8 15h8q7 -3 7 -11v-62q0 -2 -7 -6h-6q-9 4 -9 12q-12 -12 -25 -12
h-7q-27 0 -27 29v38q0 8 9 12zM1880 1060h10q33 0 33 -31v-25q0 -1 4 -16v-1q-3 -5 -10 -7q-7 0 -14 11q-20 -11 -34 -11q-30 5 -30 22q0 24 61 29v1q0 13 -12 13h-10q-8 0 -22 -14q-9 0 -12 5v3q5 21 36 21zM1971 1060h8q30 0 34 -18v-3q-4 -5 -10 -5q-18 13 -24 13h-5
q-9 0 -12 -8q0 -7 44 -16q12 -10 12 -16v-1q0 -23 -39 -26q-39 4 -39 22v2q4 6 10 6q4 0 17 -14l9 -2h6q9 0 12 6v6q-1 4 -42 14q-10 10 -12 16q0 19 31 24zM2210 1060h9q6 -3 6 -11h2q0 8 15 11h4q20 0 20 -13q0 -3 -7 -6l-24 1q-8 -7 -8 -22v-24q-2 -16 -12 -16
q-10 3 -12 7v62q0 8 7 11zM2308 1060h13q34 0 34 -25v-25q3 -21 3 -23v-1q0 -3 -10 -6q-6 0 -13 11q-19 -11 -34 -11q-29 4 -29 20v3q0 21 49 26l11 2v4q0 8 -7 10h-15q-8 0 -22 -14q-12 0 -12 8q0 16 32 21zM2509 1060h10q40 -6 40 -41q-6 -39 -45 -39q-40 0 -46 40v2
q7 38 41 38zM2583 1060h8q7 -3 7 -11h2q0 8 15 11h3q20 0 20 -13q0 -3 -6 -6l-24 1q-8 -7 -8 -22v-24q-3 -16 -12 -16q-11 3 -12 7v62q0 8 7 11zM2681 1060h13q34 0 34 -25v-25q3 -21 3 -23v-1q0 -3 -10 -6q-6 0 -13 11q-19 -11 -34 -11q-29 4 -29 20v3q0 21 49 26l10 2v4
q0 8 -7 10h-15q-8 0 -22 -14q-11 0 -11 8q0 16 32 21zM2492 1020q0 -21 20 -24h3q21 3 21 24q0 25 -24 25q-16 0 -20 -25zM1864 1007v-7q3 -6 12 -6h2q22 0 22 16v9q-36 -6 -36 -12zM2296 1007v-3q0 -10 12 -10h5q19 3 19 15v10q-36 -7 -36 -12zM2669 1007v-3q0 -10 12 -10
h5q18 3 18 15v10q-35 -7 -35 -12zM1981 913h8q39 -3 39 -29v-2q0 -20 -46 -47q0 -1 -6 -8v-1h38q13 0 16 -6v-6q0 -2 -7 -6h-66q-13 2 -13 11q0 11 55 50q5 8 5 15q0 12 -20 14q-12 0 -22 -21q-5 -3 -8 -3q-8 3 -9 6v7q0 20 36 26zM2089 913q38 -5 38 -42q2 -8 2 -12
q0 -32 -18 -45q-12 -7 -22 -7h-7q-26 0 -37 30q-2 13 -2 21v4q0 43 32 51h14zM2181 913h12q36 -4 36 -31q0 -18 -49 -50l-5 -6h42q9 0 13 -7v-5q0 -2 -6 -6h-71q-9 4 -9 12t58 52q3 10 3 12q0 12 -20 14q-13 0 -22 -21q-6 -3 -9 -3q-10 3 -10 10q0 22 37 29zM2289 913
q39 -5 39 -42q2 -8 2 -12q0 -32 -19 -45q-11 -7 -22 -7h-6q-26 0 -37 30q-2 13 -2 21v4q0 43 32 51h13zM2067 858q0 -37 20 -37q17 4 17 27v24q0 26 -20 26q-17 0 -17 -40zM2267 858q0 -37 21 -37q17 4 17 27v24q0 26 -21 26q-17 0 -17 -40z" />
    <glyph glyph-name="questiondown" unicode="&#xbf;" horiz-adv-x="1227" 
d="M484 1102q-54 39 -71 102l-2 64q14 54 44 75q18 21 96 35q125 0 170 -86q5 -26 22 -52v-11q-11 -71 -72 -129q-12 -13 -43 -22q-37 -4 -63 -4q-21 0 -38.5 4t-42.5 24zM608 988q35 -24 63 -68l13 -18v-8l-8 -49q20 -46 20 -63l-24 -60l9 -58l-25 -103l-53 -82l-84 -36
l-39 -31l-49 -22q-62 -28 -105 -77l-9 -49l2 -14q14 -50 60 -83q58 -41 112 -51q22 -4 47 -4q34 0 67 7q12 -3 29 -3q42 0 85 28q58 37 77 79l2 30q-54 39 -54 81q0 61 47 109q28 28 74 35q140 -15 167 -90l20 -42q-6 -52 -6 -67q0 -25 6 -25l4 -12q-29 -103 -60 -116
q-29 -59 -78 -79l-82 -53q-77 -7 -109 -37l-14 -3l-63 5l-43 -11l-37 7l-32 -6l-9 -2l-16 3l-36 12q-119 30 -134 43q-22 30 -119 69l-68 88q-36 88 -36 128q20 50 24 111q52 41 90 103l41 13l45 24q58 6 93 49q39 16 48 44v36q22 25 22 71v8l-4 28l10 31l1 16l-5 39l5 23
q2 59 24 85q13 21 38 22q7 1 13 1q23 0 43 -6z" />
    <glyph glyph-name="Agrave" unicode="&#xc0;" horiz-adv-x="1293" 
d="M262 1806q29 6 66 6q44 0 91 -7l28 -28l58 -31l1 -4l16 -62l66 -52l3 -5l10 -53l34 -36l9 -7q18 -35 28 -67q4 -12 4 -27q0 -17 -4 -29l-11 -6q-98 9 -119 23l-53 36q-4 2 -65 25l-9 6l-35 46l-79 31l-4 4q-16 32 -31 53q-50 33 -59 46q-21 37 -21 65q0 15 10.5 38.5
t65.5 34.5zM332 -79l-17 -1l-84 20l-95 -9l-9 1q-65 20 -80 43q0 2 16 50q15 24 59 52q42 33 66 50l40 83q5 24 11 86l28 64l1 64q0 9 43 63q16 37 16 72q0 23 -3 36q26 42 26 57v37q18 50 30 97l-1 53l2 9q58 79 58 122l-3 20q20 40 49 70l11 17l-9 83l63 142q18 43 35 44
l89 -22q34 -22 59 -70l35 -66q-9 -24 -9 -56q45 -72 49 -85l-16 -60q45 -71 45 -84v-40q0 -30 47 -96v-44q0 -14 32 -76q0 -8 -8 -64q29 -49 42 -89l8 -87l51 -88l6 -93q44 -99 90 -111q64 -24 107 -62l21 -38q-20 -33 -40 -45t-48 -22h-12q-38 9 -90 11q-44 -11 -69 -23
h-18l-72 6l-66 -8q-26 3 -61 14q-53 9 -61 44q0 30 33 55q35 30 70 67q26 25 28 81l-8 43l3 33q-3 34 -10 47t-22.5 22t-59.5 19q-10 -3 -48 -19q-16 0 -64 16q-28 0 -74 -22l-50 4l-50 -25q-21 -41 -37 -107q10 -82 60 -124l69 -61q17 -14 18 -27.5t1 -22.5q-3 -18 -42 -35
l-9 -1l-68 7q-29 -3 -104 -21zM665 515q74 0 80 66l-12 33q3 26 3 52q-30 108 -50 137l9 47q-38 43 -38 55l-9 62l-19 -1q-45 -69 -45 -95l1 -39l-27 -43q-2 -41 -2 -82l-28 -60l-21 -56q0 -38 31 -63q17 -3 28 -3q23 0 38 8q17 -18 61 -18z" />
    <glyph glyph-name="Aacute" unicode="&#xc1;" horiz-adv-x="1286" 
d="M1054 1759q5 -11 5 -26q0 -28 -21 -65q-9 -13 -60 -46q-15 -21 -33 -52l-4 -4l-76 -32l-36 -46l-8 -6q-61 -23 -65 -25l-54 -36q-20 -14 -119 -23l-10 5q-4 14 -4 32q0 14 7 35.5t25 56.5l9 7l34 36l9 53l4 5l65 53l16 61l1 4l59 31l28 28q47 7 91 7q37 0 78.5 -9
t58.5 -44zM325 -79l-17 -1l-84 20l-95 -9l-9 1q-65 20 -80 43q0 2 16 50q15 24 59 52q42 33 66 50l40 83q5 24 11 86l28 64l1 64q0 9 43 63q16 37 16 72q0 23 -3 36q26 42 26 57v37q18 50 30 97l-1 53l2 9q58 79 58 122l-3 20q20 40 49 70l11 17l-9 83l63 142q18 43 35 44
l89 -22q34 -22 59 -70l35 -66q-9 -24 -9 -56q45 -72 49 -85l-16 -60q45 -71 45 -84v-40q0 -30 47 -96v-44q0 -14 32 -76q0 -8 -8 -64q29 -49 42 -89l8 -87l51 -88l6 -93q44 -99 90 -111q64 -24 107 -62l21 -38q-20 -33 -40 -45t-48 -22h-12q-38 9 -90 11q-44 -11 -69 -23
h-18l-72 6l-66 -8q-26 3 -61 14q-53 9 -61 44q0 30 33 55q35 30 70 67q26 25 28 81l-8 43l3 33q-3 34 -10 47t-22.5 22t-59.5 19q-10 -3 -48 -19q-16 0 -64 16q-28 0 -74 -22l-50 4l-50 -25q-21 -41 -37 -107q10 -82 60 -124l69 -61q17 -14 18 -27.5t1 -22.5q-3 -18 -42 -35
l-9 -1l-68 7q-29 -3 -104 -21zM658 515q74 0 80 66l-12 33q3 26 3 52q-30 108 -50 137l9 47q-38 43 -38 55l-9 62l-19 -1q-45 -69 -45 -95l1 -39l-27 -43q-2 -41 -2 -82l-28 -60l-21 -56q0 -38 31 -63q17 -3 28 -3q23 0 38 8q17 -18 61 -18z" />
    <glyph glyph-name="Acircumflex" unicode="&#xc2;" horiz-adv-x="1286" 
d="M898 1337l-36 4l-54 23l-52 35l-32 12l-7 6q-17 24 -46 53q-40 20 -59 23l-18 1l-47 -20l-20 -26l-47 -28l-36 -36l-54 -18q-53 -30 -97 -36q-18 6 -18 44q0 11 8 34l19 50q10 15 27 42l58 45l32 47l77 42l46 35l15 14q52 22 82 33h7q22 0 44 -15q33 -22 74 -54l22 -37
l60 -50l9 -9l17 -38l57 -53q29 -42 36 -65l9 -34v-4q0 -22 -44 -22q-14 0 -32 2zM325 -79l-17 -1l-84 20l-95 -9l-9 1q-65 20 -80 43q0 2 16 50q15 24 59 52q42 33 66 50l40 83q5 24 11 86l28 64l1 64q0 9 43 63q16 37 16 72q0 23 -3 36q26 42 26 57v37q18 50 30 97l-1 53
l2 9q58 79 58 122l-3 20q20 40 49 70l11 17l-9 83l63 142q18 43 35 44l89 -22q34 -22 59 -70l35 -66q-9 -24 -9 -56q45 -72 49 -85l-16 -60q45 -71 45 -84v-40q0 -30 47 -96v-44q0 -14 32 -76q0 -8 -8 -64q29 -49 42 -89l8 -87l51 -88l6 -93q44 -99 90 -111q64 -24 107 -62
l21 -38q-20 -33 -40 -45t-48 -22h-12q-38 9 -90 11q-44 -11 -69 -23h-18l-72 6l-66 -8q-26 3 -61 14q-53 9 -61 44q0 30 33 55q35 30 70 67q26 25 28 81l-8 43l3 33q-3 34 -10 47t-22.5 22t-59.5 19q-10 -3 -48 -19q-16 0 -64 16q-28 0 -74 -22l-50 4l-50 -25
q-21 -41 -37 -107q10 -82 60 -124l69 -61q17 -14 18 -27.5t1 -22.5q-3 -18 -42 -35l-9 -1l-68 7q-29 -3 -104 -21zM658 515q74 0 80 66l-12 33q3 26 3 52q-30 108 -50 137l9 47q-38 43 -38 55l-9 62l-19 -1q-45 -69 -45 -95l1 -39l-27 -43q-2 -41 -2 -82l-28 -60l-21 -56
q0 -38 31 -63q17 -3 28 -3q23 0 38 8q17 -18 61 -18z" />
    <glyph glyph-name="Atilde" unicode="&#xc3;" horiz-adv-x="1286" 
d="M612 1452l-23 28l-37 15q-14 4 -28 4q-12 0 -24 -3q-26 0 -50 -16l-10 -7l-45 -15l-33 -35l-31 -24q-18 -8 -42 -11h-3q-15 0 -25 14q-6 8 -6 24t5 36l8 19q15 25 33 68l8 10l35 23l8 6l19 31l6 6l46 19q21 26 73 41q4 1 10 1q38 0 71 -6q31 -25 49 -33l57 -23l43 -43
q43 -10 67 -10q19 0 36 7l21 24l8 3l31 12l5 5l21 25l11 8q32 14 78 20q26 -5 27 -22l2 -13l-13 -45q-17 -53 -42 -81q-22 -12 -54 -34l-26 -37l-5 -5l-46 -22q-33 -28 -66 -28q-2 0 -22 0.5t-59 15.5l-29 28l-47 12zM325 -79l-17 -1l-84 20l-95 -9l-9 1q-65 20 -80 43
q0 2 16 50q15 24 59 52q42 33 66 50l40 83q5 24 11 86l28 64l1 64q0 9 43 63q16 37 16 72q0 23 -3 36q26 42 26 57v37q18 50 30 97l-1 53l2 9q58 79 58 122l-3 20q20 40 49 70l11 17l-9 83l63 142q18 43 35 44l89 -22q34 -22 59 -70l35 -66q-9 -24 -9 -56q45 -72 49 -85
l-16 -60q45 -71 45 -84v-40q0 -30 47 -96v-44q0 -14 32 -76q0 -8 -8 -64q29 -49 42 -89l8 -87l51 -88l6 -93q44 -99 90 -111q64 -24 107 -62l21 -38q-20 -33 -40 -45t-48 -22h-12q-38 9 -90 11q-44 -11 -69 -23h-18l-72 6l-66 -8q-26 3 -61 14q-53 9 -61 44q0 30 33 55
q35 30 70 67q26 25 28 81l-8 43l3 33q-3 34 -10 47t-22.5 22t-59.5 19q-10 -3 -48 -19q-16 0 -64 16q-28 0 -74 -22l-50 4l-50 -25q-21 -41 -37 -107q10 -82 60 -124l69 -61q17 -14 18 -27.5t1 -22.5q-3 -18 -42 -35l-9 -1l-68 7q-29 -3 -104 -21zM658 515q74 0 80 66
l-12 33q3 26 3 52q-30 108 -50 137l9 47q-38 43 -38 55l-9 62l-19 -1q-45 -69 -45 -95l1 -39l-27 -43q-2 -41 -2 -82l-28 -60l-21 -56q0 -38 31 -63q17 -3 28 -3q23 0 38 8q17 -18 61 -18z" />
    <glyph glyph-name="Adieresis" unicode="&#xc4;" horiz-adv-x="1298" 
d="M924 1399l-12 1l-44 9l-33 6q-54 14 -100 79q-13 35 -13 75v4l1 4q8 53 58 100q54 34 114 39l9 -1q18 0 78 -31q27 -22 36 -56q7 -35 27 -83q-4 -43 -27 -76q-17 -22 -32 -29q-23 -10 -47 -31zM408 1403q-93 6 -146 61l-30 49l-3 17l5 55l-5 30q13 47 59 67q26 23 82 29
h17q41 -1 72.5 -15.5t65.5 -75.5q19 -35 22 -43l-3 -7q-15 -49 -19 -98l-17 -14q-29 -21 -45 -33q-33 -22 -55 -22zM337 -79l-17 -1l-84 20l-95 -9l-9 1q-65 20 -80 43q0 2 16 50q15 24 59 52q42 33 66 50l40 83q5 24 11 86l28 64l1 64q0 9 43 63q16 37 16 72q0 23 -3 36
q26 42 26 57v37q18 50 30 97l-1 53l2 9q58 79 58 122l-3 20q20 40 49 70l11 17l-9 83l63 142q18 43 35 44l89 -22q34 -22 59 -70l35 -66q-9 -24 -9 -56q45 -72 49 -85l-16 -60q45 -71 45 -84v-40q0 -30 47 -96v-44q0 -14 32 -76q0 -8 -8 -64q29 -49 42 -89l8 -87l51 -88
l6 -93q44 -99 90 -111q64 -24 107 -62l21 -38q-20 -33 -40 -45t-48 -22h-12q-38 9 -90 11q-44 -11 -69 -23h-18l-72 6l-66 -8q-26 3 -61 14q-53 9 -61 44q0 30 33 55q35 30 70 67q26 25 28 81l-8 43l3 33q-3 34 -10 47t-22.5 22t-59.5 19q-10 -3 -48 -19q-16 0 -64 16
q-28 0 -74 -22l-50 4l-50 -25q-21 -41 -37 -107q10 -82 60 -124l69 -61q17 -14 18 -27.5t1 -22.5q-3 -18 -42 -35l-9 -1l-68 7q-29 -3 -104 -21zM670 515q74 0 80 66l-12 33q3 26 3 52q-30 108 -50 137l9 47q-38 43 -38 55l-9 62l-19 -1q-45 -69 -45 -95l1 -39l-27 -43
q-2 -41 -2 -82l-28 -60l-21 -56q0 -38 31 -63q17 -3 28 -3q23 0 38 8q17 -18 61 -18z" />
    <glyph glyph-name="Aring" unicode="&#xc5;" horiz-adv-x="1290" 
d="M538 1466q23 -42 68 -49q27 0 46 6t49 22l8 24q9 21 9 41q0 16 -11 48l-30 25l-16 7q-20 6 -37 6q-51 0 -90 -49q-7 -15 -7 -32q0 -20 11 -49zM665 515q74 0 80 66l-12 33q3 26 3 52q-30 108 -50 137l9 47q-38 43 -38 55l-9 62l-19 -1q-45 -69 -45 -95l1 -39l-27 -43
q-2 -41 -2 -82l-28 -60l-21 -56q0 -38 31 -63q17 -3 28 -3q23 0 38 8q17 -18 61 -18zM714 1284q10 -13 19 -30l35 -66q-9 -24 -9 -56q45 -72 49 -85l-16 -60q45 -71 45 -84v-40q0 -30 47 -96v-44q0 -14 32 -76q0 -8 -8 -64q29 -49 42 -89l8 -87l51 -88l6 -93q44 -99 90 -111
q64 -24 107 -62l21 -38q-20 -33 -40 -45t-48 -22h-12q-38 9 -90 11q-44 -11 -69 -23h-18l-72 6l-66 -8q-26 3 -61 14q-53 9 -61 44q0 30 33 55q35 30 70 67q26 25 28 81l-8 43l3 33q-3 34 -10 47t-22.5 22t-59.5 19q-10 -3 -48 -19q-16 0 -64 16q-28 0 -74 -22l-50 4
l-50 -25q-21 -41 -37 -107q10 -82 60 -124l69 -61q17 -14 18 -27.5t1 -22.5q-3 -18 -42 -35l-9 -1l-68 7q-29 -3 -104 -21l-17 -1l-84 20l-95 -9l-9 1q-65 20 -80 43q0 2 16 50q15 24 59 52q42 33 66 50l40 83q5 24 11 86l28 64l1 64q0 9 43 63q16 37 16 72q0 23 -3 36
q26 42 26 57v37q18 50 30 97l-1 53l2 9q58 79 58 122l-3 20q20 40 49 70l11 17l-9 83l54 122q-3 4 -7 7l-19 4l-16 2q-23 21 -48 66l-35 46l-2 5q-1 40 -13 80l-5 31l1 20q0 36 47 93q28 44 56 68h5l68 4l30 17l55 -5l45 5h11q20 -17 45 -37q41 -32 71 -97l17 -32v-2
q0 -98 -27 -141q-13 -48 -29 -71q-9 -22 -77 -61z" />
    <glyph glyph-name="AE" unicode="&#xc6;" horiz-adv-x="2729" 
d="M2025 -83h-12q-76 24 -100 24q-12 0 -88 -24l-52 32h-56q-68 -24 -72 -24l-52 20l-36 -4l-44 8q-8 0 -44 -4q-11 0 -64 32q-52 0 -60 20v8q13 120 80 120l67 -4q59 26 117 55l29 46l1 54l15 56l-16 79l12 48q-6 36 -13 71l16 63l-12 44l17 66l-12 43l20 61l-21 78
q16 37 16 72l-25 39q8 21 20 67q0 43 -62 72l-24 1q-33 0 -44 -7l-53 32l-48 -4q-18 7 -32 28v20q63 108 149 108l55 -20l29 -1l91 29l140 -28q14 0 72 28h8q46 -36 113 -36l67 40l16 4l86 -26h25l91 15q43 -24 98 -41l24 -32q0 -8 -8 -41l47 -114l-2 -44l24 -100l-18 -81
l9 -28q0 -10 -36 -70q-24 -30 -52 -30q-14 0 -22 23l-18 69q-20 59 -64 109v7q28 31 28 48v8q-14 33 -28 57q0 15 5.5 30t5.5 25q0 29 -41 52q-17 3 -28 8q-59 0 -107 -28h-11q-36 11 -77 16q-52 0 -99 -25q-14 0 -100 17q-52 0 -72 -20v-28q0 -33 18 -58l-10 -46
q0 -52 32 -82v-19q-20 -39 -20 -53q4 -19 36 -42l1 -8l-14 -62l37 -22h12l56 32l35 -3q50 22 58 96q33 49 55 89l40 30q32 0 32 -60q28 -53 28 -76l-7 -40l19 -72l-4 -41l-15 -81l20 -47l6 -36q-11 -119 -68 -179q-39 0 -62 28l-50 51l-4 68l-24 68v10l-26 14l-21 -3l-52 4
l-48 -52q-24 -13 -36 -44l4 -37l-15 -39q0 -35 31 -75v-7l-30 -42l52 -42l-13 -50l36 -38l53 12l34 -3q52 15 65 30q14 0 49 -37l66 26l72 -32l54 -5q42 44 42 83q0 13 -6 56l10 39l-8 57q0 9 48 52l39 60l8 55l13 13q23 0 57 -41q30 -34 55 -119l-12 -72l12 -52
q0 -4 -24 -74l11 -74l-20 -71l9 -45q0 -19 -64 -60q-4 0 -64 12l-40 -8l-32 8l-64 -28l-108 24zM326 -81q-11 0 -102 21l-95 -19l-6 2q-68 19 -83 52q0 2 16 50q15 24 59 52q42 33 66 50l40 83q5 24 11 86l28 64l1 64q0 9 43 63q16 37 16 72q0 23 -3 36q26 42 26 57v37
q18 50 30 97l-1 53l2 9q58 79 58 122l-3 20q20 40 49 70l11 17l-9 83l63 142q18 43 35 44l89 -22q34 -22 59 -70l35 -66q-9 -24 -9 -56q45 -72 49 -85l-16 -60q45 -71 45 -84v-40q0 -30 47 -96v-44q0 -14 32 -76q0 -8 -8 -64q29 -49 42 -89l8 -87l51 -88l6 -93
q44 -99 90 -111q64 -24 107 -62l21 -48q-20 -43 -43 -53.5t-46 -18.5q-49 14 -101 16q-44 -11 -79 -26l-80 19l-66 -18q-26 3 -64 20q-50 13 -58 48q0 30 33 55q35 30 70 67q26 25 28 81l-8 43l3 33q-3 34 -10 47t-22.5 22t-59.5 19q-10 -3 -48 -19q-16 0 -64 16
q-28 0 -74 -22l-50 4l-50 -25q-21 -41 -37 -107q10 -82 60 -124l69 -61q17 -14 18 -27.5t1 -22.5q-3 -28 -42 -45l-9 -1l-68 17q-29 -3 -103 -23zM658 515q74 0 80 66l-12 33q3 26 3 52q-30 108 -50 137l9 47q-38 43 -38 55l-9 62l-19 -1q-45 -69 -45 -95l1 -39l-27 -43
q-2 -41 -2 -82l-28 -60l-21 -56q0 -38 31 -63q17 -3 28 -3q23 0 38 8q17 -18 61 -18z" />
    <glyph glyph-name="Ccedilla" unicode="&#xc7;" horiz-adv-x="1376" 
d="M590 -53l-11 10l-77 24l-54 49l-67 40q-18 38 -43 66q-46 65 -62 72l-3 7l-19 68l-48 90q-6 84 -26 146l4 73q-22 41 -27 51l16 68l-9 38l19 68l-1 88v10l36 63q4 36 4 69q25 34 44 58l6 53l3 3q18 18 55 43q28 32 53 64q26 0 89 72q45 0 112 52h16l38 -3l50 23l56 -20
l52 8q100 -56 144 -56q22 24 144 40h8q64 -25 64 -68l-4 -96v-40l-24 -64l8 -48l-4 -52q24 -72 56 -128q-36 -116 -88 -116q-36 14 -91 60q-23 25 -40 65l-2 47l-48 88l-5 42q0 58 -72 66q-41 52 -94 52q-34 11 -57 16q-19 -7 -54 -20l-15 -3q-33 3 -51 3q-30 0 -73 -52
q-70 -44 -78 -90q-9 -36 -9 -59l-51 -61q8 -28 9 -72v-7q-23 -53 -23 -64l14 -76v-14q-16 -38 -26 -86q0 -17 46 -62v-5l-13 -71l46 -53l15 -51q6 -31 60 -65q5 -5 17 -25.5t39 -48.5l69 -14l63 -38l42 3q34 6 53 24l4 1l64 -3q60 16 90 84q45 21 60 111q26 32 58 65
q40 51 86 51l23 -35q37 -60 37 -89q0 -6 -4 -15q7 -31 7 -53q0 -40 -17 -73q-36 -40 -44 -92l-50 -34q-20 -34 -30 -50l-58 -31l-36 -47q-25 0 -53 -15q-26 -12 -26 -41q0 -21 21 -58.5t26 -87.5l-1 -18l-24 -30v-9l-3 -29q-6 -45 -66 -86q-42 -22 -84 -31q-43 -10 -79 -11
l-35 14l-48 7l-35 27q-72 30 -86 124q-1 6 -1 12q0 38 17 38t54 -22l41 -14l30 -25q22 -14 57 -14q9 0 18 1q49 3 61 49q1 7 1 13q0 30 -26 52q-8 10 -68 33q-20 8 -62 77z" />
    <glyph glyph-name="Egrave" unicode="&#xc8;" horiz-adv-x="1490" 
d="M786 -99h-12q-76 24 -100 24q-12 0 -88 -24l-52 32h-56q-68 -24 -72 -24l-52 20l-36 -4l-44 8q-8 0 -44 -4q-11 0 -64 32q-52 0 -60 20v8q13 120 80 120l67 -4q59 26 117 55l29 46l1 54l15 56l-16 79l12 48q-6 36 -13 71l16 63l-12 44l17 66l-12 43l20 61l-21 78
q16 37 16 72l-25 39q8 21 20 67q0 43 -62 72l-24 1q-33 0 -44 -7l-53 32l-48 -4q-18 7 -32 28v20q63 108 149 108l55 -20l29 -1l91 29l140 -28q14 0 72 28h8q46 -36 113 -36l67 40l16 4l86 -26h25l91 15q43 -24 98 -41l24 -32q0 -8 -8 -41l47 -114l-2 -44l24 -100l-18 -81
l9 -28q0 -10 -36 -70q-24 -30 -52 -30q-14 0 -22 23l-18 69q-20 59 -64 109v7q28 31 28 48v8q-14 33 -28 57q0 15 5.5 30t5.5 25q0 29 -41 52q-17 3 -28 8q-59 0 -107 -28h-11q-36 11 -77 16q-52 0 -99 -25q-14 0 -100 17q-52 0 -72 -20v-28q0 -33 18 -58l-10 -46
q0 -52 32 -82v-19q-20 -39 -20 -53q4 -19 36 -42l1 -8l-14 -62l37 -22h12l56 32l35 -3q50 22 58 96q33 49 55 89l40 30q32 0 32 -60q28 -53 28 -76l-7 -40l19 -72l-4 -41l-15 -81l20 -47l6 -36q-11 -119 -68 -179q-39 0 -62 28l-50 51l-4 68l-24 68v10l-26 14l-21 -3l-52 4
l-48 -52q-24 -13 -36 -44l4 -37l-15 -39q0 -35 31 -75v-7l-30 -42l52 -42l-13 -50l36 -38l53 12l34 -3q52 15 65 30q14 0 49 -37l66 26l72 -32l54 -5q42 44 42 83q0 13 -6 56l10 39l-8 57q0 9 48 52l39 60l8 55l13 13q23 0 57 -41q30 -34 55 -119l-12 -72l12 -52
q0 -4 -24 -74l11 -74l-20 -71l9 -45q0 -19 -64 -60q-4 0 -64 12l-40 -8l-32 8l-64 -28l-108 24zM425 1806q29 6 66 6q44 0 91 -7l28 -28l58 -31l1 -4l16 -62l66 -52l3 -5l10 -53l34 -36l9 -7q18 -35 28 -67q4 -12 4 -27q0 -17 -4 -29l-11 -6q-98 9 -119 23l-53 36
q-4 2 -65 25l-9 6l-35 46l-79 31l-4 4q-16 32 -31 53q-50 33 -59 46q-21 37 -21 65q0 15 10.5 38.5t65.5 34.5z" />
    <glyph glyph-name="Eacute" unicode="&#xc9;" horiz-adv-x="1490" 
d="M786 -99h-12q-76 24 -100 24q-12 0 -88 -24l-52 32h-56q-68 -24 -72 -24l-52 20l-36 -4l-44 8q-8 0 -44 -4q-11 0 -64 32q-52 0 -60 20v8q13 120 80 120l67 -4q59 26 117 55l29 46l1 54l15 56l-16 79l12 48q-6 36 -13 71l16 63l-12 44l17 66l-12 43l20 61l-21 78
q16 37 16 72l-25 39q8 21 20 67q0 43 -62 72l-24 1q-33 0 -44 -7l-53 32l-48 -4q-18 7 -32 28v20q63 108 149 108l55 -20l29 -1l91 29l140 -28q14 0 72 28h8q46 -36 113 -36l67 40l16 4l86 -26h25l91 15q43 -24 98 -41l24 -32q0 -8 -8 -41l47 -114l-2 -44l24 -100l-18 -81
l9 -28q0 -10 -36 -70q-24 -30 -52 -30q-14 0 -22 23l-18 69q-20 59 -64 109v7q28 31 28 48v8q-14 33 -28 57q0 15 5.5 30t5.5 25q0 29 -41 52q-17 3 -28 8q-59 0 -107 -28h-11q-36 11 -77 16q-52 0 -99 -25q-14 0 -100 17q-52 0 -72 -20v-28q0 -33 18 -58l-10 -46
q0 -52 32 -82v-19q-20 -39 -20 -53q4 -19 36 -42l1 -8l-14 -62l37 -22h12l56 32l35 -3q50 22 58 96q33 49 55 89l40 30q32 0 32 -60q28 -53 28 -76l-7 -40l19 -72l-4 -41l-15 -81l20 -47l6 -36q-11 -119 -68 -179q-39 0 -62 28l-50 51l-4 68l-24 68v10l-26 14l-21 -3l-52 4
l-48 -52q-24 -13 -36 -44l4 -37l-15 -39q0 -35 31 -75v-7l-30 -42l52 -42l-13 -50l36 -38l53 12l34 -3q52 15 65 30q14 0 49 -37l66 26l72 -32l54 -5q42 44 42 83q0 13 -6 56l10 39l-8 57q0 9 48 52l39 60l8 55l13 13q23 0 57 -41q30 -34 55 -119l-12 -72l12 -52
q0 -4 -24 -74l11 -74l-20 -71l9 -45q0 -19 -64 -60q-4 0 -64 12l-40 -8l-32 8l-64 -28l-108 24zM1234 1739q5 -11 5 -26q0 -28 -21 -65q-9 -13 -60 -46q-15 -21 -33 -52l-4 -4l-76 -32l-36 -46l-8 -6q-61 -23 -65 -25l-54 -36q-20 -14 -119 -23l-10 5q-4 14 -4 32
q0 14 7 35.5t25 56.5l9 7l34 36l9 53l4 5l65 53l16 61l1 4l59 31l28 28q47 7 91 7q37 0 78.5 -9t58.5 -44z" />
    <glyph glyph-name="Ecircumflex" unicode="&#xca;" horiz-adv-x="1490" 
d="M786 -99h-12q-76 24 -100 24q-12 0 -88 -24l-52 32h-56q-68 -24 -72 -24l-52 20l-36 -4l-44 8q-8 0 -44 -4q-11 0 -64 32q-52 0 -60 20v8q13 120 80 120l67 -4q59 26 117 55l29 46l1 54l15 56l-16 79l12 48q-6 36 -13 71l16 63l-12 44l17 66l-12 43l20 61l-21 78
q16 37 16 72l-25 39q8 21 20 67q0 43 -62 72l-24 1q-33 0 -44 -7l-53 32l-48 -4q-18 7 -32 28v20q63 108 149 108l55 -20l29 -1l91 29l140 -28q14 0 72 28h8q46 -36 113 -36l67 40l16 4l86 -26h25l91 15q43 -24 98 -41l24 -32q0 -8 -8 -41l47 -114l-2 -44l24 -100l-18 -81
l9 -28q0 -10 -36 -70q-24 -30 -52 -30q-14 0 -22 23l-18 69q-20 59 -64 109v7q28 31 28 48v8q-14 33 -28 57q0 15 5.5 30t5.5 25q0 29 -41 52q-17 3 -28 8q-59 0 -107 -28h-11q-36 11 -77 16q-52 0 -99 -25q-14 0 -100 17q-52 0 -72 -20v-28q0 -33 18 -58l-10 -46
q0 -52 32 -82v-19q-20 -39 -20 -53q4 -19 36 -42l1 -8l-14 -62l37 -22h12l56 32l35 -3q50 22 58 96q33 49 55 89l40 30q32 0 32 -60q28 -53 28 -76l-7 -40l19 -72l-4 -41l-15 -81l20 -47l6 -36q-11 -119 -68 -179q-39 0 -62 28l-50 51l-4 68l-24 68v10l-26 14l-21 -3l-52 4
l-48 -52q-24 -13 -36 -44l4 -37l-15 -39q0 -35 31 -75v-7l-30 -42l52 -42l-13 -50l36 -38l53 12l34 -3q52 15 65 30q14 0 49 -37l66 26l72 -32l54 -5q42 44 42 83q0 13 -6 56l10 39l-8 57q0 9 48 52l39 60l8 55l13 13q23 0 57 -41q30 -34 55 -119l-12 -72l12 -52
q0 -4 -24 -74l11 -74l-20 -71l9 -45q0 -19 -64 -60q-4 0 -64 12l-40 -8l-32 8l-64 -28l-108 24zM1062 1399l-36 4l-54 23l-52 35l-32 12l-7 6q-17 24 -46 53q-40 20 -59 23l-18 1l-47 -20l-20 -26l-47 -28l-36 -36l-54 -18q-53 -30 -97 -36q-18 6 -18 44q0 11 8 34l19 50
q10 15 27 42l58 45l32 47l77 42l46 35l15 14q52 22 82 33h7q22 0 44 -15q33 -22 74 -54l22 -37l60 -50l9 -9l17 -38l57 -53q29 -42 36 -65l9 -34v-4q0 -22 -44 -22q-14 0 -32 2z" />
    <glyph glyph-name="Edieresis" unicode="&#xcb;" horiz-adv-x="1490" 
d="M786 -99h-12q-76 24 -100 24q-12 0 -88 -24l-52 32h-56q-68 -24 -72 -24l-52 20l-36 -4l-44 8q-8 0 -44 -4q-11 0 -64 32q-52 0 -60 20v8q13 120 80 120l67 -4q59 26 117 55l29 46l1 54l15 56l-16 79l12 48q-6 36 -13 71l16 63l-12 44l17 66l-12 43l20 61l-21 78
q16 37 16 72l-25 39q8 21 20 67q0 43 -62 72l-24 1q-33 0 -44 -7l-53 32l-48 -4q-18 7 -32 28v20q63 108 149 108l55 -20l29 -1l91 29l140 -28q14 0 72 28h8q46 -36 113 -36l67 40l16 4l86 -26h25l91 15q43 -24 98 -41l24 -32q0 -8 -8 -41l47 -114l-2 -44l24 -100l-18 -81
l9 -28q0 -10 -36 -70q-24 -30 -52 -30q-14 0 -22 23l-18 69q-20 59 -64 109v7q28 31 28 48v8q-14 33 -28 57q0 15 5.5 30t5.5 25q0 29 -41 52q-17 3 -28 8q-59 0 -107 -28h-11q-36 11 -77 16q-52 0 -99 -25q-14 0 -100 17q-52 0 -72 -20v-28q0 -33 18 -58l-10 -46
q0 -52 32 -82v-19q-20 -39 -20 -53q4 -19 36 -42l1 -8l-14 -62l37 -22h12l56 32l35 -3q50 22 58 96q33 49 55 89l40 30q32 0 32 -60q28 -53 28 -76l-7 -40l19 -72l-4 -41l-15 -81l20 -47l6 -36q-11 -119 -68 -179q-39 0 -62 28l-50 51l-4 68l-24 68v10l-26 14l-21 -3l-52 4
l-48 -52q-24 -13 -36 -44l4 -37l-15 -39q0 -35 31 -75v-7l-30 -42l52 -42l-13 -50l36 -38l53 12l34 -3q52 15 65 30q14 0 49 -37l66 26l72 -32l54 -5q42 44 42 83q0 13 -6 56l10 39l-8 57q0 9 48 52l39 60l8 55l13 13q23 0 57 -41q30 -34 55 -119l-12 -72l12 -52
q0 -4 -24 -74l11 -74l-20 -71l9 -45q0 -19 -64 -60q-4 0 -64 12l-40 -8l-32 8l-64 -28l-108 24zM1044 1399l-12 1l-44 9l-33 6q-54 14 -100 79q-13 35 -13 75v4l1 4q8 53 58 100q54 34 114 39l9 -1q18 0 78 -31q27 -22 36 -56q7 -35 27 -83q-4 -43 -27 -76q-17 -22 -32 -29
q-23 -10 -47 -31zM528 1403q-93 6 -146 61l-30 49l-3 17l5 55l-5 30q13 47 59 67q26 23 82 29h17q41 -1 72.5 -15.5t65.5 -75.5q19 -35 22 -43l-3 -7q-15 -49 -19 -98l-17 -14q-29 -21 -45 -33q-33 -22 -55 -22z" />
    <glyph glyph-name="Igrave" unicode="&#xcc;" horiz-adv-x="1238" 
d="M237 1348q91 -24 140 -28q24 0 85 28h4l68 -32q36 0 128 36h4q63 -20 142 -20l64 10l48 -17q29 -6 83 -12l62 11q44 0 61 -148q0 -12 -48 -44l-66 -26l-79 19l-58 -18q-19 3 -36 3q-30 0 -48 -10l-62 -41q-27 -24 -27 -47l16 -60v-4l-12 -59l8 -53l-7 -52l19 -56l-8 -44
l4 -76l-8 -42l15 -95l-15 -53q6 -52 28 -74l-10 -22q-14 -27 -14 -62l15 -29l18 -41l47 -52l49 12q30 -27 69 -27q32 0 56 19h7l69 -38q69 -28 69 -59v-23l-3 -19q-7 -50 -62 -87h-10q-23 0 -80 2l-25 -2q-10 0 -74 -26h-9q-28 3 -97 38h-11q-11 0 -83 -30h-11l-83 21l-3 -3
h-6l-28 -2q-6 0 -63 -16h-12l-79 22h-30q-15 0 -82 -26h-18l-59 36q-61 30 -67 62l4 47v3q0 22 28 47l30 19l27 11l35 22l101 -22h4q28 0 65 24q4 -2 17 -2q37 0 76 70l13 58l-8 55l20 52q0 20 -24 52v12l16 56l-12 52v16l12 48q-16 41 -16 64l12 48l-16 60q0 14 20 44v24
q-12 15 -12 36v4l16 60l-12 44v24l8 44v12q-32 48 -84 48h-12q-8 0 -62 -25h-12l-53 18l-10 2l-60 -9q-36 5 -103 90l-4 52q10 33 58 60q31 36 53 36zM257 1806q29 6 66 6q44 0 91 -7l28 -28l58 -31l1 -4l16 -62l66 -52l3 -5l10 -53l34 -36l9 -7q18 -35 28 -67q4 -12 4 -27
q0 -17 -4 -29l-11 -6q-98 9 -119 23l-53 36q-4 2 -65 25l-9 6l-35 46l-79 31l-4 4q-16 32 -31 53q-50 33 -59 46q-21 37 -21 65q0 15 10.5 38.5t65.5 34.5z" />
    <glyph glyph-name="Iacute" unicode="&#xcd;" horiz-adv-x="1238" 
d="M237 1348q91 -24 140 -28q24 0 85 28h4l68 -32q36 0 128 36h4q63 -20 142 -20l64 10l48 -17q29 -6 83 -12l62 11q44 0 61 -148q0 -12 -48 -44l-66 -26l-79 19l-58 -18q-19 3 -36 3q-30 0 -48 -10l-62 -41q-27 -24 -27 -47l16 -60v-4l-12 -59l8 -53l-7 -52l19 -56l-8 -44
l4 -76l-8 -42l15 -95l-15 -53q6 -52 28 -74l-10 -22q-14 -27 -14 -62l15 -29l18 -41l47 -52l49 12q30 -27 69 -27q32 0 56 19h7l69 -38q69 -28 69 -59v-23l-3 -19q-7 -50 -62 -87h-10q-23 0 -80 2l-25 -2q-10 0 -74 -26h-9q-28 3 -97 38h-11q-11 0 -83 -30h-11l-83 21l-3 -3
h-6l-28 -2q-6 0 -63 -16h-12l-79 22h-30q-15 0 -82 -26h-18l-59 36q-61 30 -67 62l4 47v3q0 22 28 47l30 19l27 11l35 22l101 -22h4q28 0 65 24q4 -2 17 -2q37 0 76 70l13 58l-8 55l20 52q0 20 -24 52v12l16 56l-12 52v16l12 48q-16 41 -16 64l12 48l-16 60q0 14 20 44v24
q-12 15 -12 36v4l16 60l-12 44v24l8 44v12q-32 48 -84 48h-12q-8 0 -62 -25h-12l-53 18l-10 2l-60 -9q-36 5 -103 90l-4 52q10 33 58 60q31 36 53 36zM1056 1769q5 -11 5 -26q0 -28 -21 -65q-9 -13 -60 -46q-15 -21 -33 -52l-4 -4l-76 -32l-36 -46l-8 -6q-61 -23 -65 -25
l-54 -36q-20 -14 -119 -23l-10 5q-4 14 -4 32q0 14 7 35.5t25 56.5l9 7l34 36l9 53l4 5l65 53l16 61l1 4l59 31l28 28q47 7 91 7q37 0 78.5 -9t58.5 -44z" />
    <glyph glyph-name="Icircumflex" unicode="&#xce;" horiz-adv-x="1238" 
d="M237 1348q91 -24 140 -28q24 0 85 28h4l68 -32q36 0 128 36h4q63 -20 142 -20l64 10l48 -17q29 -6 83 -12l62 11q44 0 61 -148q0 -12 -48 -44l-66 -26l-79 19l-58 -18q-19 3 -36 3q-30 0 -48 -10l-62 -41q-27 -24 -27 -47l16 -60v-4l-12 -59l8 -53l-7 -52l19 -56l-8 -44
l4 -76l-8 -42l15 -95l-15 -53q6 -52 28 -74l-10 -22q-14 -27 -14 -62l15 -29l18 -41l47 -52l49 12q30 -27 69 -27q32 0 56 19h7l69 -38q69 -28 69 -59v-23l-3 -19q-7 -50 -62 -87h-10q-23 0 -80 2l-25 -2q-10 0 -74 -26h-9q-28 3 -97 38h-11q-11 0 -83 -30h-11l-83 21l-3 -3
h-6l-28 -2q-6 0 -63 -16h-12l-79 22h-30q-15 0 -82 -26h-18l-59 36q-61 30 -67 62l4 47v3q0 22 28 47l30 19l27 11l35 22l101 -22h4q28 0 65 24q4 -2 17 -2q37 0 76 70l13 58l-8 55l20 52q0 20 -24 52v12l16 56l-12 52v16l12 48q-16 41 -16 64l12 48l-16 60q0 14 20 44v24
q-12 15 -12 36v4l16 60l-12 44v24l8 44v12q-32 48 -84 48h-12q-8 0 -62 -25h-12l-53 18l-10 2l-60 -9q-36 5 -103 90l-4 52q10 33 58 60q31 36 53 36zM894 1419l-36 4l-54 23l-52 35l-32 12l-7 6q-17 24 -46 53q-40 20 -59 23l-18 1l-47 -20l-20 -26l-47 -28l-36 -36
l-54 -18q-53 -30 -97 -36q-18 6 -18 44q0 11 8 34l19 50q10 15 27 42l58 45l32 47l77 42l46 35l15 14q52 22 82 33h7q22 0 44 -15q33 -22 74 -54l22 -37l60 -50l9 -9l17 -38l57 -53q29 -42 36 -65l9 -34v-4q0 -22 -44 -22q-14 0 -32 2z" />
    <glyph glyph-name="Idieresis" unicode="&#xcf;" horiz-adv-x="1238" 
d="M237 1348q91 -24 140 -28q24 0 85 28h4l68 -32q36 0 128 36h4q63 -20 142 -20l64 10l48 -17q29 -6 83 -12l62 11q44 0 61 -148q0 -12 -48 -44l-66 -26l-79 19l-58 -18q-19 3 -36 3q-30 0 -48 -10l-62 -41q-27 -24 -27 -47l16 -60v-4l-12 -59l8 -53l-7 -52l19 -56l-8 -44
l4 -76l-8 -42l15 -95l-15 -53q6 -52 28 -74l-10 -22q-14 -27 -14 -62l15 -29l18 -41l47 -52l49 12q30 -27 69 -27q32 0 56 19h7l69 -38q69 -28 69 -59v-23l-3 -19q-7 -50 -62 -87h-10q-23 0 -80 2l-25 -2q-10 0 -74 -26h-9q-28 3 -97 38h-11q-11 0 -83 -30h-11l-83 21l-3 -3
h-6l-28 -2q-6 0 -63 -16h-12l-79 22h-30q-15 0 -82 -26h-18l-59 36q-61 30 -67 62l4 47v3q0 22 28 47l30 19l27 11l35 22l101 -22h4q28 0 65 24q4 -2 17 -2q37 0 76 70l13 58l-8 55l20 52q0 20 -24 52v12l16 56l-12 52v16l12 48q-16 41 -16 64l12 48l-16 60q0 14 20 44v24
q-12 15 -12 36v4l16 60l-12 44v24l8 44v12q-32 48 -84 48h-12q-8 0 -62 -25h-12l-53 18l-10 2l-60 -9q-36 5 -103 90l-4 52q10 33 58 60q31 36 53 36zM896 1419l-12 1l-44 9l-33 6q-54 14 -100 79q-13 35 -13 75v4l1 4q8 53 58 100q54 34 114 39l9 -1q18 0 78 -31
q27 -22 36 -56q7 -35 27 -83q-4 -43 -27 -76q-17 -22 -32 -29q-23 -10 -47 -31zM380 1423q-93 6 -146 61l-30 49l-3 17l5 55l-5 30q13 47 59 67q26 23 82 29h17q41 -1 72.5 -15.5t65.5 -75.5q19 -35 22 -43l-3 -7q-15 -49 -19 -98l-17 -14q-29 -21 -45 -33q-33 -22 -55 -22z
" />
    <glyph glyph-name="Eth" unicode="&#xd0;" horiz-adv-x="1445" 
d="M617 535l-17 -8l10 -88q-18 -80 -20 -109l11 -45l-15 -47v-18l94 -44l59 -12q14 0 51 32h18q62 -3 75 -3q53 32 74 61l15 59l41 20l8 17l5 55q32 46 32 61l6 52l32 97v13l-12 56l12 56l-35 64l4 48q-8 56 -32 84l-19 24l-12 39q0 30 -44 78l-51 25l-59 38h-13
q-48 0 -121 -24h-18l-73 14l-42 -99l12 -51l-23 -43q14 -93 28 -124l-12 -59l14 -17l63 1l32 -13l51 1q26 4 43 4h4q51 -28 72 -76l-1 -19q0 -84 -68 -93q-42 -5 -88 -14h-13zM368 754q24 68 24 86t-9 84l2 16q8 42 12 81l-9 37l-24 56l-67 46l-55 1l-25 8q-55 19 -55 51
q28 54 86 85l36 7l33 -4q65 19 84 19l89 -22l31 3l84 21l54 -21h29l70 22l50 -26h12l71 8q16 -4 66 -48l44 -2l32 -55q45 -30 93 -79q-2 0 -2 -6q0 -11 8 -46q24 -48 67 -73q10 -61 50 -141l12 -22l-5 -63q9 -41 32 -127l4 -113l-19 -66l-3 -70l-41 -61l-11 -80l-4 -17
q-50 -45 -70 -62l-20 -86l-66 -49l-33 -64l-75 -45l-92 6q-49 -32 -75 -32q-73 25 -107 25l-72 -32l-108 32h-27l-70 -18h-7l-60 23q-34 -7 -68 -12q-23 5 -81 16q-33 19 -52 39q-27 58 -27 92q13 26 77 45q0 1 25.5 7t61.5 47l54 3l26 16q40 25 40 98v16l-8 32l18 94
l-20 42q2 8 3 48l-19 10l-24 3l-51 18l-52 -3q-47 20 -60 53q-1 4 -1 10q0 50 34 83l33 20l47 10l56 13z" />
    <glyph glyph-name="Ntilde" unicode="&#xd1;" horiz-adv-x="1420" 
d="M543 -82l-44 16l-80 -14l-18 2l-52 19l-93 -23q-59 7 -101 90v13q1 21 80 70q54 15 63 61l6 61l-10 58l8 60l-16 63l17 81l-16 59l20 58l-9 54l16 60l-15 46l11 59l-12 64l12 47q-24 54 -24 69q12 71 12 81q0 29 -37 63l-44 26q-44 12 -77 39v21q6 17 38 50q45 36 77 36
l92 -12q4 -1 13 -1q28 0 97 16h18q32 -27 80 -54q32 -14 32 -30l-7 -53q10 -45 76 -123l-4 -40q0 -17 42 -45l11 -66q22 -21 41 -39l2 -6v-10q0 -17 4 -49l28 -37v-47q44 -54 68 -74l-5 -51l42 -58q4 -69 63 -133q36 0 36 32q0 17 -23 86v15q15 52 15 74q-24 32 -24 52
l22 52l-19 49v19l23 41q0 41 -30 68v3l34 50q-50 51 -50 70l22 43q-23 54 -73 71q-40 22 -74 51q-20 23 -71 23l-8 24q21 29 54 55q56 37 72 37q53 -7 107 -16q36 17 70 24l64 -25l71 8l56 -23l45 4q38 -22 38 -72v-19q0 -12 -77 -55l-49 -36l-22 -31q-22 -24 -22 -62
q0 -8 1 -13l-8 -40l8 -64l-12 -45l-6 -45l14 -60l-12 -81l20 -84l-16 -73v-32q16 -26 16 -41q-14 -76 -14 -89l17 -91l-15 -111l8 -60q-35 -134 -76 -152q-82 20 -120 63q0 16 -29 66q-30 33 -62 44l-4 6l-10 82q-36 33 -50 48l-6 80l-59 46l6 58l-44 60q1 11 1 26
q0 23 -6 45q-41 44 -57 58v47l-5 41q-9 10 -34 26l-24 24q0 13 11 72q-45 41 -45 55l5 33q0 24 -22 24q-33 0 -46 -56l16 -48q0 -4 -13 -72l17 -60q-20 -33 -20 -48l20 -52l-16 -56l16 -60l-20 -68l16 -44l-4 -72l9 -50l-13 -56q20 -59 37 -66l46 -19q23 -4 66 -41
q51 -31 51 -60q-16 -30 -42 -49q-34 -29 -83 -35zM719 1480l-23 28l-37 15q-14 4 -28 4q-12 0 -24 -3q-26 0 -50 -16l-10 -7l-45 -15l-33 -35l-31 -24q-18 -8 -42 -11h-3q-15 0 -25 14q-6 8 -6 24t5 36l8 19q15 25 33 68l8 10l35 23l8 6l19 31l6 6l46 19q21 26 73 41
q4 1 10 1q38 0 71 -6q31 -25 49 -33l57 -23l43 -43q43 -10 67 -10q19 0 36 7l21 24l8 3l31 12l5 5l21 25l11 8q32 14 78 20q26 -5 27 -22l2 -13l-13 -45q-17 -53 -42 -81q-22 -12 -54 -34l-26 -37l-5 -5l-46 -22q-33 -28 -66 -28q-2 0 -22 0.5t-59 15.5l-29 28l-47 12z" />
    <glyph glyph-name="Ograve" unicode="&#xd2;" horiz-adv-x="1414" 
d="M804 1359l13 -1q44 -41 85 -41q31 0 71 -51l78 -42l36 -67l47 -57q26 -76 37 -133q48 -94 57 -134l-4 -59l11 -29q7 -35 26 -119l-26 -63l-1 -21l10 -61l-3 -15l-20 -56l-3 -47v-8q-31 -43 -70 -98l-19 -79q-59 -46 -94 -140l-73 -40q-10 -29 -109 -53q-36 -41 -57 -41
l-68 9l-24 5l-16 -5q-11 -1 -72 -13h-12q-48 53 -61 53l-36 -4q-11 0 -56 57l-21 4l-20 -3q-34 31 -76 121h-27q-35 103 -63 134l-18 6l-12 65l-4 49l-19 42q-15 46 -29 88l11 50l-16 45l18 45q4 7 4 17q0 25 -22 59l28 74l-8 44l52 86q18 39 29 110q52 62 60 101
q28 19 48 81q17 20 73 36q33 57 105 57q48 29 63 35q37 -14 48 -14l55 15l48 -8h13zM706 1135l-13 2l-57 8q-61 -9 -88 -37l-22 -22q-81 -28 -81 -91l-7 -54l-4 -7l-28 -35l-4 -14l2 -43l-5 -10q-15 -11 -43 -43q-10 -37 -10 -86l11 -35v-12l-19 -50l32 -61l-1 -63v-7
q0 -47 51 -76v-11q0 -27 17 -55q22 -28 22 -49v-6l4 -33l16 -10l41 -11q24 -35 40 -70q25 -45 86 -45q9 0 60 20q17 0 65 -16h5q23 0 41 27q86 0 142 98l2 11l2 33q19 23 49 58q14 20 26 67v45q0 16 27 59q0 15 -16 40v11l20 51q0 19 -20 47v12l17 51q-10 28 -23 63
q-22 42 -31 54l7 36v19l-46 42l-15 25l4 26v6q-9 41 -44 64l-34 17l-11 27q-50 35 -101 46zM332 1806q29 6 66 6q44 0 91 -7l28 -28l58 -31l1 -4l16 -62l66 -52l3 -5l10 -53l34 -36l9 -7q18 -35 28 -67q4 -12 4 -27q0 -17 -4 -29l-11 -6q-98 9 -119 23l-53 36q-4 2 -65 25
l-9 6l-35 46l-79 31l-4 4q-16 32 -31 53q-50 33 -59 46q-21 37 -21 65q0 15 10.5 38.5t65.5 34.5z" />
    <glyph glyph-name="Oacute" unicode="&#xd3;" horiz-adv-x="1414" 
d="M804 1359l13 -1q44 -41 85 -41q31 0 71 -51l78 -42l36 -67l47 -57q26 -76 37 -133q48 -94 57 -134l-4 -59l11 -29q7 -35 26 -119l-26 -63l-1 -21l10 -61l-3 -15l-20 -56l-3 -47v-8q-31 -43 -70 -98l-19 -79q-59 -46 -94 -140l-73 -40q-10 -29 -109 -53q-36 -41 -57 -41
l-68 9l-24 5l-16 -5q-11 -1 -72 -13h-12q-48 53 -61 53l-36 -4q-11 0 -56 57l-21 4l-20 -3q-34 31 -76 121h-27q-35 103 -63 134l-18 6l-12 65l-4 49l-19 42q-15 46 -29 88l11 50l-16 45l18 45q4 7 4 17q0 25 -22 59l28 74l-8 44l52 86q18 39 29 110q52 62 60 101
q28 19 48 81q17 20 73 36q33 57 105 57q48 29 63 35q37 -14 48 -14l55 15l48 -8h13zM706 1135l-13 2l-57 8q-61 -9 -88 -37l-22 -22q-81 -28 -81 -91l-7 -54l-4 -7l-28 -35l-4 -14l2 -43l-5 -10q-15 -11 -43 -43q-10 -37 -10 -86l11 -35v-12l-19 -50l32 -61l-1 -63v-7
q0 -47 51 -76v-11q0 -27 17 -55q22 -28 22 -49v-6l4 -33l16 -10l41 -11q24 -35 40 -70q25 -45 86 -45q9 0 60 20q17 0 65 -16h5q23 0 41 27q86 0 142 98l2 11l2 33q19 23 49 58q14 20 26 67v45q0 16 27 59q0 15 -16 40v11l20 51q0 19 -20 47v12l17 51q-10 28 -23 63
q-22 42 -31 54l7 36v19l-46 42l-15 25l4 26v6q-9 41 -44 64l-34 17l-11 27q-50 35 -101 46zM1131 1769q5 -11 5 -26q0 -28 -21 -65q-9 -13 -60 -46q-15 -21 -33 -52l-4 -4l-76 -32l-36 -46l-8 -6q-61 -23 -65 -25l-54 -36q-20 -14 -119 -23l-10 5q-4 14 -4 32q0 14 7 35.5
t25 56.5l9 7l34 36l9 53l4 5l65 53l16 61l1 4l59 31l28 28q47 7 91 7q37 0 78.5 -9t58.5 -44z" />
    <glyph glyph-name="Ocircumflex" unicode="&#xd4;" horiz-adv-x="1425" 
d="M804 1359l13 -1q44 -41 85 -41q31 0 71 -51l78 -42l36 -67l47 -57q26 -76 37 -133q48 -94 57 -134l-4 -59l11 -29q7 -35 26 -119l-26 -63l-1 -21l10 -61l-3 -15l-20 -56l-3 -47v-8q-31 -43 -70 -98l-19 -79q-59 -46 -94 -140l-73 -40q-10 -29 -109 -53q-36 -41 -57 -41
l-68 9l-24 5l-16 -5q-11 -1 -72 -13h-12q-48 53 -61 53l-36 -4q-11 0 -56 57l-21 4l-20 -3q-34 31 -76 121h-27q-35 103 -63 134l-18 6l-12 65l-4 49l-19 42q-15 46 -29 88l11 50l-16 45l18 45q4 7 4 17q0 25 -22 59l28 74l-8 44l52 86q18 39 29 110q52 62 60 101
q28 19 48 81q17 20 73 36q33 57 105 57q48 29 63 35q37 -14 48 -14l55 15l48 -8h13zM706 1135l-13 2l-57 8q-61 -9 -88 -37l-22 -22q-81 -28 -81 -91l-7 -54l-4 -7l-28 -35l-4 -14l2 -43l-5 -10q-15 -11 -43 -43q-10 -37 -10 -86l11 -35v-12l-19 -50l32 -61l-1 -63v-7
q0 -47 51 -76v-11q0 -27 17 -55q22 -28 22 -49v-6l4 -33l16 -10l41 -11q24 -35 40 -70q25 -45 86 -45q9 0 60 20q17 0 65 -16h5q23 0 41 27q86 0 142 98l2 11l2 33q19 23 49 58q14 20 26 67v45q0 16 27 59q0 15 -16 40v11l20 51q0 19 -20 47v12l17 51q-10 28 -23 63
q-22 42 -31 54l7 36v19l-46 42l-15 25l4 26v6q-9 41 -44 64l-34 17l-11 27q-50 35 -101 46zM999 1409l-36 4l-54 23l-52 35l-32 12l-7 6q-17 24 -46 53q-40 20 -59 23l-18 1l-47 -20l-20 -26l-47 -28l-36 -36l-54 -18q-53 -30 -97 -36q-18 6 -18 44q0 11 8 34l19 50
q10 15 27 42l58 45l32 47l77 42l46 35l15 14q52 22 82 33h7q22 0 44 -15q33 -22 74 -54l22 -37l60 -50l9 -9l17 -38l57 -53q29 -42 36 -65l9 -34v-4q0 -22 -44 -22q-14 0 -32 2z" />
    <glyph glyph-name="Otilde" unicode="&#xd5;" horiz-adv-x="1425" 
d="M804 1359l13 -1q44 -41 85 -41q31 0 71 -51l78 -42l36 -67l47 -57q26 -76 37 -133q48 -94 57 -134l-4 -59l11 -29q7 -35 26 -119l-26 -63l-1 -21l10 -61l-3 -15l-20 -56l-3 -47v-8q-31 -43 -70 -98l-19 -79q-59 -46 -94 -140l-73 -40q-10 -29 -109 -53q-36 -41 -57 -41
l-68 9l-24 5l-16 -5q-11 -1 -72 -13h-12q-48 53 -61 53l-36 -4q-11 0 -56 57l-21 4l-20 -3q-34 31 -76 121h-27q-35 103 -63 134l-18 6l-12 65l-4 49l-19 42q-15 46 -29 88l11 50l-16 45l18 45q4 7 4 17q0 25 -22 59l28 74l-8 44l52 86q18 39 29 110q52 62 60 101
q28 19 48 81q17 20 73 36q33 57 105 57q48 29 63 35q37 -14 48 -14l55 15l48 -8h13zM706 1135l-13 2l-57 8q-61 -9 -88 -37l-22 -22q-81 -28 -81 -91l-7 -54l-4 -7l-28 -35l-4 -14l2 -43l-5 -10q-15 -11 -43 -43q-10 -37 -10 -86l11 -35v-12l-19 -50l32 -61l-1 -63v-7
q0 -47 51 -76v-11q0 -27 17 -55q22 -28 22 -49v-6l4 -33l16 -10l41 -11q24 -35 40 -70q25 -45 86 -45q9 0 60 20q17 0 65 -16h5q23 0 41 27q86 0 142 98l2 11l2 33q19 23 49 58q14 20 26 67v45q0 16 27 59q0 15 -16 40v11l20 51q0 19 -20 47v12l17 51q-10 28 -23 63
q-22 42 -31 54l7 36v19l-46 42l-15 25l4 26v6q-9 41 -44 64l-34 17l-11 27q-50 35 -101 46zM673 1490l-23 28l-37 15q-14 4 -28 4q-12 0 -24 -3q-26 0 -50 -16l-10 -7l-45 -15l-33 -35l-31 -24q-18 -8 -42 -11h-3q-15 0 -25 14q-6 8 -6 24t5 36l8 19q15 25 33 68l8 10l35 23
l8 6l19 31l6 6l46 19q21 26 73 41q4 1 10 1q38 0 71 -6q31 -25 49 -33l57 -23l43 -43q43 -10 67 -10q19 0 36 7l21 24l8 3l31 12l5 5l21 25l11 8q32 14 78 20q26 -5 27 -22l2 -13l-13 -45q-17 -53 -42 -81q-22 -12 -54 -34l-26 -37l-5 -5l-46 -22q-33 -28 -66 -28
q-2 0 -22 0.5t-59 15.5l-29 28l-47 12z" />
    <glyph glyph-name="Odieresis" unicode="&#xd6;" horiz-adv-x="1425" 
d="M804 1359l13 -1q44 -41 85 -41q31 0 71 -51l78 -42l36 -67l47 -57q26 -76 37 -133q48 -94 57 -134l-4 -59l11 -29q7 -35 26 -119l-26 -63l-1 -21l10 -61l-3 -15l-20 -56l-3 -47v-8q-31 -43 -70 -98l-19 -79q-59 -46 -94 -140l-73 -40q-10 -29 -109 -53q-36 -41 -57 -41
l-68 9l-24 5l-16 -5q-11 -1 -72 -13h-12q-48 53 -61 53l-36 -4q-11 0 -56 57l-21 4l-20 -3q-34 31 -76 121h-27q-35 103 -63 134l-18 6l-12 65l-4 49l-19 42q-15 46 -29 88l11 50l-16 45l18 45q4 7 4 17q0 25 -22 59l28 74l-8 44l52 86q18 39 29 110q52 62 60 101
q28 19 48 81q17 20 73 36q33 57 105 57q48 29 63 35q37 -14 48 -14l55 15l48 -8h13zM706 1135l-13 2l-57 8q-61 -9 -88 -37l-22 -22q-81 -28 -81 -91l-7 -54l-4 -7l-28 -35l-4 -14l2 -43l-5 -10q-15 -11 -43 -43q-10 -37 -10 -86l11 -35v-12l-19 -50l32 -61l-1 -63v-7
q0 -47 51 -76v-11q0 -27 17 -55q22 -28 22 -49v-6l4 -33l16 -10l41 -11q24 -35 40 -70q25 -45 86 -45q9 0 60 20q17 0 65 -16h5q23 0 41 27q86 0 142 98l2 11l2 33q19 23 49 58q14 20 26 67v45q0 16 27 59q0 15 -16 40v11l20 51q0 19 -20 47v12l17 51q-10 28 -23 63
q-22 42 -31 54l7 36v19l-46 42l-15 25l4 26v6q-9 41 -44 64l-34 17l-11 27q-50 35 -101 46zM971 1409l-12 1l-44 9l-33 6q-54 14 -100 79q-13 35 -13 75v4l1 4q8 53 58 100q54 34 114 39l9 -1q18 0 78 -31q27 -22 36 -56q7 -35 27 -83q-4 -43 -27 -76q-17 -22 -32 -29
q-23 -10 -47 -31zM455 1413q-93 6 -146 61l-30 49l-3 17l5 55l-5 30q13 47 59 67q26 23 82 29h17q41 -1 72.5 -15.5t65.5 -75.5q19 -35 22 -43l-3 -7q-15 -49 -19 -98l-17 -14q-29 -21 -45 -33q-33 -22 -55 -22z" />
    <glyph glyph-name="Oslash" unicode="&#xd8;" horiz-adv-x="1425" 
d="M838 1113l-3 19q-32 20 -63 26l-66 -13l-13 2l-57 8q-61 -9 -88 -37l-22 -22q-81 -28 -92 -91l5 -41l-3 -16l-33 -34l-4 -9l1 -44l-5 -13q-18 -15 -33 -49q-16 -37 -16 -86l11 -35v-12l-19 -50l29 -47l-2 -44q0 -85 45 -110l2 -22q10 -26 24 -49l26 -22l17 2q18 28 26 43
l4 7q16 53 29 100l53 72l30 106q2 8 6 18q10 21 38 54l12 24q15 53 32 94q29 37 44 70q11 24 14 44q9 23 13 44l43 63zM979 951l-12 -3q-24 -44 -30 -60q-23 -28 -41 -69q-13 -28 -21 -57q-26 -44 -50 -78l-26 -84l-7 -21l-46 -79l-34 -99l-8 -20l-43 -59l-37 -101l-37 -67
l2 -12q25 -23 57 -23q9 0 60 20q17 0 65 -16h5q23 0 41 27q86 0 142 98l2 11l2 33q19 23 49 58q14 20 26 67v45q0 16 27 59q0 15 -16 40v11l20 51q0 19 -20 47v12l17 51q-10 28 -22 61q-9 36 -21 55l-4 40v15zM359 89q-12 21 -22 42l-32 25q-34 86 -57 112l-22 25l-12 50
l-4 49l-19 42q-15 46 -29 88l11 50l-16 45l18 45q4 7 4 17q0 25 -22 59l28 74l-8 44l52 86q18 39 29 110q52 62 60 101q28 19 48 81q17 20 73 36q33 57 105 57q48 29 63 35q37 -14 48 -14l55 15l48 -8h13l33 14l14 -1q30 -25 52 -33q13 -5 26 -5q12 0 28 6q19 24 52 66
q43 55 106 60h9q13 0 22 -3q27 -13 34 -61l-22 -105l-49 -79l-1 -31l59 -73q26 -76 37 -133q48 -94 57 -134l-4 -59l11 -29q7 -35 26 -119l-26 -63l-1 -21l10 -61l-3 -15l-20 -56l-3 -47v-8q-31 -43 -70 -98l-19 -79q-59 -46 -94 -140l-73 -40q-10 -29 -109 -53
q-36 -41 -57 -41l-68 9l-24 5l-16 -5q-10 -1 -82 -7h-15q-37 27 -43 27l-36 16q-17 0 -26 -8t-17 -23q-17 -39 -44.5 -71t-80.5 -51h-15q-44 38 -48 73q4 55 28 108q13 27 32 56z" />
    <glyph glyph-name="Ugrave" unicode="&#xd9;" 
d="M748 -90l-101 33q-11 0 -99 5l-15 24q-33 18 -62 22l-7 2l-4 22l-75 44l-2 5q-5 45 -50 99l5 37l-36 74l7 57l-20 70l12 65q0 6 -8 37l20 64l-24 68l12 44l-4 36l12 76q-12 29 -12 64l16 56l-16 60l12 52l-26 60l-20 21l-38 18q-48 26 -93 66l-17 22v17q21 29 81 60
l49 26l65 -24l76 20l42 -16q9 0 87 17h11q79 -50 79 -97q-6 -37 -80 -64q-39 -56 -56 -112l-2 -32l16 -52l-26 -69l16 -62q0 -19 -19 -72l31 -51l4 -12q-21 -33 -28 -64q12 -21 12 -48l-12 -58l16 -70q0 -4 -8 -49l10 -44l-6 -45q46 -89 91 -96q31 -66 61 -66l24 4l60 -36
q82 0 99 28l48 -8q48 25 71 71q56 8 70 65l13 42l-11 44l18 40q0 11 -16 74l12 56q0 8 -12 68l8 40l-12 52q0 11 18 61l-13 51q6 6 10 67q0 22 -16 70v22l11 50l-15 39q-16 43 -43 72q-31 57 -110 106l-18 33v9q13 11 25.5 20t25 16.5t24.5 14.5q36 -9 72 -14l71 15l100 -21
l87 17q43 0 84 -41q50 -35 50 -61q0 -17 -22 -33q-50 -45 -91 -67q-39 -16 -71 -76l17 -54l-20 -56l16 -44q0 -12 -16 -60q0 -8 16 -64q0 -4 -15 -64q23 -39 23 -52l-32 -64q24 -50 24 -68l-12 -40l12 -52q0 -4 -13 -65l13 -47q-17 -38 -34 -65q0 -43 -1 -60l-46 -41
l-18 -63l-29 -20q-16 -37 -24 -52l-31 -3q-32 0 -49 -64l-18 -9l-62 13q-65 0 -114 -31zM324 1806q29 6 66 6q44 0 91 -7l28 -28l58 -31l1 -4l16 -62l66 -52l3 -5l10 -53l34 -36l9 -7q18 -35 28 -67q4 -12 4 -27q0 -17 -4 -29l-11 -6q-98 9 -119 23l-53 36q-4 2 -65 25l-9 6
l-35 46l-79 31l-4 4q-16 32 -31 53q-50 33 -59 46q-21 37 -21 65q0 15 10.5 38.5t65.5 34.5z" />
    <glyph glyph-name="Uacute" unicode="&#xda;" 
d="M748 -90l-101 33q-11 0 -99 5l-15 24q-33 18 -62 22l-7 2l-4 22l-75 44l-2 5q-5 45 -50 99l5 37l-36 74l7 57l-20 70l12 65q0 6 -8 37l20 64l-24 68l12 44l-4 36l12 76q-12 29 -12 64l16 56l-16 60l12 52l-26 60l-20 21l-38 18q-48 26 -93 66l-17 22v17q21 29 81 60
l49 26l65 -24l76 20l42 -16q9 0 87 17h11q79 -50 79 -97q-6 -37 -80 -64q-39 -56 -56 -112l-2 -32l16 -52l-26 -69l16 -62q0 -19 -19 -72l31 -51l4 -12q-21 -33 -28 -64q12 -21 12 -48l-12 -58l16 -70q0 -4 -8 -49l10 -44l-6 -45q46 -89 91 -96q31 -66 61 -66l24 4l60 -36
q82 0 99 28l48 -8q48 25 71 71q56 8 70 65l13 42l-11 44l18 40q0 11 -16 74l12 56q0 8 -12 68l8 40l-12 52q0 11 18 61l-13 51q6 6 10 67q0 22 -16 70v22l11 50l-15 39q-16 43 -43 72q-31 57 -110 106l-18 33v9q13 11 25.5 20t25 16.5t24.5 14.5q36 -9 72 -14l71 15l100 -21
l87 17q43 0 84 -41q50 -35 50 -61q0 -17 -22 -33q-50 -45 -91 -67q-39 -16 -71 -76l17 -54l-20 -56l16 -44q0 -12 -16 -60q0 -8 16 -64q0 -4 -15 -64q23 -39 23 -52l-32 -64q24 -50 24 -68l-12 -40l12 -52q0 -4 -13 -65l13 -47q-17 -38 -34 -65q0 -43 -1 -60l-46 -41
l-18 -63l-29 -20q-16 -37 -24 -52l-31 -3q-32 0 -49 -64l-18 -9l-62 13q-65 0 -114 -31zM1143 1759q5 -11 5 -26q0 -28 -21 -65q-9 -13 -60 -46q-15 -21 -33 -52l-4 -4l-76 -32l-36 -46l-8 -6q-61 -23 -65 -25l-54 -36q-20 -14 -119 -23l-10 5q-4 14 -4 32q0 14 7 35.5
t25 56.5l9 7l34 36l9 53l4 5l65 53l16 61l1 4l59 31l28 28q47 7 91 7q37 0 78.5 -9t58.5 -44z" />
    <glyph glyph-name="Ucircumflex" unicode="&#xdb;" 
d="M748 -90l-101 33q-11 0 -99 5l-15 24q-33 18 -62 22l-7 2l-4 22l-75 44l-2 5q-5 45 -50 99l5 37l-36 74l7 57l-20 70l12 65q0 6 -8 37l20 64l-24 68l12 44l-4 36l12 76q-12 29 -12 64l16 56l-16 60l12 52l-26 60l-20 21l-38 18q-48 26 -93 66l-17 22v17q21 29 81 60
l49 26l65 -24l76 20l42 -16q9 0 87 17h11q79 -50 79 -97q-6 -37 -80 -64q-39 -56 -56 -112l-2 -32l16 -52l-26 -69l16 -62q0 -19 -19 -72l31 -51l4 -12q-21 -33 -28 -64q12 -21 12 -48l-12 -58l16 -70q0 -4 -8 -49l10 -44l-6 -45q46 -89 91 -96q31 -66 61 -66l24 4l60 -36
q82 0 99 28l48 -8q48 25 71 71q56 8 70 65l13 42l-11 44l18 40q0 11 -16 74l12 56q0 8 -12 68l8 40l-12 52q0 11 18 61l-13 51q6 6 10 67q0 22 -16 70v22l11 50l-15 39q-16 43 -43 72q-31 57 -110 106l-18 33v9q13 11 25.5 20t25 16.5t24.5 14.5q36 -9 72 -14l71 15l100 -21
l87 17q43 0 84 -41q50 -35 50 -61q0 -17 -22 -33q-50 -45 -91 -67q-39 -16 -71 -76l17 -54l-20 -56l16 -44q0 -12 -16 -60q0 -8 16 -64q0 -4 -15 -64q23 -39 23 -52l-32 -64q24 -50 24 -68l-12 -40l12 -52q0 -4 -13 -65l13 -47q-17 -38 -34 -65q0 -43 -1 -60l-46 -41
l-18 -63l-29 -20q-16 -37 -24 -52l-31 -3q-32 0 -49 -64l-18 -9l-62 13q-65 0 -114 -31zM1031 1419l-36 4l-54 23l-52 35l-32 12l-7 6q-17 24 -46 53q-40 20 -59 23l-18 1l-47 -20l-20 -26l-47 -28l-36 -36l-54 -18q-53 -30 -97 -36q-18 6 -18 44q0 11 8 34l19 50
q10 15 27 42l58 45l32 47l77 42l46 35l15 14q52 22 82 33h7q22 0 44 -15q33 -22 74 -54l22 -37l60 -50l9 -9l17 -38l57 -53q29 -42 36 -65l9 -34v-4q0 -22 -44 -22q-14 0 -32 2z" />
    <glyph glyph-name="Udieresis" unicode="&#xdc;" 
d="M748 -90l-101 33q-11 0 -99 5l-15 24q-33 18 -62 22l-7 2l-4 22l-75 44l-2 5q-5 45 -50 99l5 37l-36 74l7 57l-20 70l12 65q0 6 -8 37l20 64l-24 68l12 44l-4 36l12 76q-12 29 -12 64l16 56l-16 60l12 52l-26 60l-20 21l-38 18q-48 26 -93 66l-17 22v17q21 29 81 60
l49 26l65 -24l76 20l42 -16q9 0 87 17h11q79 -50 79 -97q-6 -37 -80 -64q-39 -56 -56 -112l-2 -32l16 -52l-26 -69l16 -62q0 -19 -19 -72l31 -51l4 -12q-21 -33 -28 -64q12 -21 12 -48l-12 -58l16 -70q0 -4 -8 -49l10 -44l-6 -45q46 -89 91 -96q31 -66 61 -66l24 4l60 -36
q82 0 99 28l48 -8q48 25 71 71q56 8 70 65l13 42l-11 44l18 40q0 11 -16 74l12 56q0 8 -12 68l8 40l-12 52q0 11 18 61l-13 51q6 6 10 67q0 22 -16 70v22l11 50l-15 39q-16 43 -43 72q-31 57 -110 106l-18 33v9q13 11 25.5 20t25 16.5t24.5 14.5q36 -9 72 -14l71 15l100 -21
l87 17q43 0 84 -41q50 -35 50 -61q0 -17 -22 -33q-50 -45 -91 -67q-39 -16 -71 -76l17 -54l-20 -56l16 -44q0 -12 -16 -60q0 -8 16 -64q0 -4 -15 -64q23 -39 23 -52l-32 -64q24 -50 24 -68l-12 -40l12 -52q0 -4 -13 -65l13 -47q-17 -38 -34 -65q0 -43 -1 -60l-46 -41
l-18 -63l-29 -20q-16 -37 -24 -52l-31 -3q-32 0 -49 -64l-18 -9l-62 13q-65 0 -114 -31zM1003 1399l-12 1l-44 9l-33 6q-54 14 -100 79q-13 35 -13 75v4l1 4q8 53 58 100q54 34 114 39l9 -1q18 0 78 -31q27 -22 36 -56q7 -35 27 -83q-4 -43 -27 -76q-17 -22 -32 -29
q-23 -10 -47 -31zM487 1403q-93 6 -146 61l-30 49l-3 17l5 55l-5 30q13 47 59 67q26 23 82 29h17q41 -1 72.5 -15.5t65.5 -75.5q19 -35 22 -43l-3 -7q-15 -49 -19 -98l-17 -14q-29 -21 -45 -33q-33 -22 -55 -22z" />
    <glyph glyph-name="Yacute" unicode="&#xdd;" horiz-adv-x="1318" 
d="M366 -100l-8 1l-47 40q-31 18 -31 72q1 50 57 71l19 4l56 7l58 31q80 22 90 50t10 44l-4 48q24 42 24 64q0 16 -12 76q12 48 12 64l-20 52l1 55l-30 58l-19 78l-49 53q-13 36 -28 72q-35 41 -59 64l-18 61l-49 56q-5 38 -39.5 75.5t-158.5 40.5q-43 43 -43 66
q28 107 71 107l107 -12l70 23l16 2l99 -15q18 1 74 12l16 -4q32 -10 64 -78l-1 -3q-56 -41 -72 -115q-13 -23 -19 -52q11 -36 24 -52l42 -35l16 -54q23 -30 35 -35l8 -36q0 -25 69 -44q61 47 61 118l3 8q26 10 46 63v42l6 10q32 26 37 59q0 30 -82 101q-17 14 -17 27
q4 38 77 78q8 7 26 7q27 0 78 -17l73 19q26 -25 69 -25q33 0 61 16q31 -17 78 -34q43 -14 43 -64q-6 -58 -54 -77q-36 -10 -71 -18q-62 -20 -112 -81q-9 -64 -13 -73q-56 -42 -56 -110l-36 -41l-8 -20l-2 -44l-1 -2l-44 -41l-10 -65q-45 -26 -55 -78l-5 -13l9 -41l-21 -69
l21 -59l-26 -74q24 -40 24 -76q7 -84 86 -105l53 -17l40 -6l44 -22h42l17 -5q40 -49 40 -83q-22 -44 -38 -50q-33 -30 -112 -46q-6 0 -90 24h-24l-77 -18l-14 1q-74 19 -97 19q-6 0 -67 -20l-26 -1q-65 13 -83 13q-56 -9 -124 -22zM1116 1759q5 -11 5 -26q0 -28 -21 -65
q-9 -13 -60 -46q-15 -21 -33 -52l-4 -4l-76 -32l-36 -46l-8 -6q-61 -23 -65 -25l-54 -36q-20 -14 -119 -23l-10 5q-4 14 -4 32q0 14 7 35.5t25 56.5l9 7l34 36l9 53l4 5l65 53l16 61l1 4l59 31l28 28q47 7 91 7q37 0 78.5 -9t58.5 -44z" />
    <glyph glyph-name="germandbls" unicode="&#xdf;" horiz-adv-x="1464" 
d="M643 1130h-3q-73 0 -102 -65q-58 -36 -60 -100l-1 -8l-37 -46l15 -56l-5 -7q-36 -52 -36 -80q12 -50 20 -71l-24 -83l17 -89q-10 -30 -10 -65q0 -40 13 -76l-11 -72v-8l16 -90l-15 -83l5 -45q2 -20 2 -38q0 -39 -11 -66l-6 -16q-32 -37 -109 -51h-3q-72 0 -132 63l-2 6
l28 45q10 15 10 37q0 31 -16 72l32 104l-10 113l23 74l-13 103l2 15q19 35 19 93q0 30 -5 63l17 75l13 43l2 75l-1 58q41 61 41 118v7l43 55l14 64l10 16q52 35 73 55l24 27l55 12l95 39h15q72 -16 101 -16l52 20h14q65 -38 125 -41l86 -29l55 -59l65 -57l31 -69l4 -78
l31 -76l-22 -67l-10 -86l-29 -70l5 -37l41 -29q42 -48 67 -121l16 -32l-1 -99l27 -106q-23 -35 -23 -105q0 -19 1 -32q-32 -44 -72 -89l-21 -71l-94 -30l-78 -46h-5l-89 3l-92 -18l-17 2q-45 10 -112.5 39t-90.5 98q-17 56 -17 102q0 16 1 25q32 52 94 59q18 3 32 3
q27 0 32 -6q43 -93 76 -109q10 -5 23 -5q32 0 74 28l95 -6l14 73q47 26 60 63l-15 37q21 32 32 73l-48 44v60q-42 53 -72 53h-49l-14 8q-36 19 -63 19l-62 -1l-13 3l-42 19l-15 6l-41 10l-12 10l-11 24q-1 12 -1 25q0 25 6 44t32 33q31 8 51 8q9 6 34 16l7 3q37 -2 59 -3
l33 25h-2q60 19 82 74l3 55l21 45q-1 60 -29 95l-66 40l-28 31l-30 9l-56 -11q-33 5 -72 17z" />
    <glyph glyph-name="agrave" unicode="&#xe0;" horiz-adv-x="1347" 
d="M516 -18h-16l-48 28l-60 -4q-51 37 -96 44q-32 12 -84 139l-40 51l4 59l-4 27q0 71 55 115l37 74q68 14 94 27q30 7 54 30q51 2 92 30l81 -21h15q16 0 45 22l20 8l57 -16q26 3 67 35q14 -8 34 -8q13 0 33 9.5t20 38.5l-4 26l12 37q0 38 -62 76l-53 13q-56 32 -80 44h-35
l-49 -14l-12 -1l-58 15q-70 -28 -93 -60l-16 -43l-1 -28q-11 -39 -43 -73q-43 -33 -85 -33q-8 0 -13 1q-73 19 -108 73l4 51l-4 48q0 35 75 88l22 41l59 27l43 41l75 7l56 25l14 2l50 -9l47 3l72 14l72 -11q18 -10 55 -16q42 -52 104 -52q52 -53 96 -80q12 -18 32 -88
l48 -116v-4q-24 -52 -24 -83q0 -16 20 -119l-20 -74l12 -48q0 -12 -16 -59q24 -87 36 -101l76 -56q43 -47 44 -76q-1 -25 -60 -56q-14 -1 -29 -1q-59 0 -102 8t-89 55q-11 6 -21 6q-29 0 -70 -31l-46 -35l-45 6l-69 -19q-61 7 -76 7q-50 0 -101 -16zM515 161l84 29h17
l57 -21q78 37 151 61q37 24 56 60q0 12 -16 68l51 57l-87 51h-16q-18 0 -88 -44l-20 -4l-100 32h-20l-88 -40q-4 0 -58 15q-51 -59 -86 -71l-28 -80q0 -37 60 -72zM295 1517q29 6 66 6q44 0 91 -7l28 -28l58 -31l1 -4l16 -62l66 -52l3 -5l10 -53l34 -36l9 -7q18 -35 28 -67
q4 -12 4 -27q0 -17 -4 -29l-11 -6q-98 9 -119 23l-53 36q-4 2 -65 25l-9 6l-35 46l-79 31l-4 4q-16 32 -31 53q-50 33 -59 46q-21 37 -21 65q0 15 10.5 38.5t65.5 34.5z" />
    <glyph glyph-name="aacute" unicode="&#xe1;" horiz-adv-x="1332" 
d="M501 -18h-16l-48 28l-60 -4q-51 37 -96 44q-32 12 -84 139l-40 51l4 59l-4 27q0 71 55 115l37 74q68 14 94 27q30 7 54 30q51 2 92 30l81 -21h15q16 0 45 22l20 8l57 -16q26 3 67 35q14 -8 34 -8q13 0 33 9.5t20 38.5l-4 26l12 37q0 38 -62 76l-53 13q-56 32 -80 44h-35
l-49 -14l-12 -1l-58 15q-70 -28 -93 -60l-16 -43l-1 -28q-11 -39 -43 -73q-43 -33 -85 -33q-8 0 -13 1q-73 19 -108 73l4 51l-4 48q0 35 75 88l22 41l59 27l43 41l75 7l56 25l14 2l50 -9l47 3l72 14l72 -11q18 -10 55 -16q42 -52 104 -52q52 -53 96 -80q12 -18 32 -88
l48 -116v-4q-24 -52 -24 -83q0 -16 20 -119l-20 -74l12 -48q0 -12 -16 -59q24 -87 36 -101l76 -56q43 -47 44 -76q-1 -25 -60 -56q-14 -1 -29 -1q-59 0 -102 8t-89 55q-11 6 -21 6q-29 0 -70 -31l-46 -35l-45 6l-69 -19q-61 7 -76 7q-50 0 -101 -16zM500 161l84 29h17
l57 -21q78 37 151 61q37 24 56 60q0 12 -16 68l51 57l-87 51h-16q-18 0 -88 -44l-20 -4l-100 32h-20l-88 -40q-4 0 -58 15q-51 -59 -86 -71l-28 -80q0 -37 60 -72zM1043 1463q5 -11 5 -26q0 -28 -21 -65q-9 -13 -60 -46q-15 -21 -33 -52l-4 -4l-76 -32l-36 -46l-8 -6
q-61 -23 -65 -25l-54 -36q-20 -14 -119 -23l-10 5q-4 14 -4 32q0 14 7 35.5t25 56.5l9 7l34 36l9 53l4 5l65 53l16 61l1 4l59 31l28 28q47 7 91 7q37 0 78.5 -9t58.5 -44z" />
    <glyph glyph-name="acircumflex" unicode="&#xe2;" horiz-adv-x="1347" 
d="M516 -18h-16l-48 28l-60 -4q-51 37 -96 44q-32 12 -84 139l-40 51l4 59l-4 27q0 71 55 115l37 74q68 14 94 27q30 7 54 30q51 2 92 30l81 -21h15q16 0 45 22l20 8l57 -16q26 3 67 35q14 -8 34 -8q13 0 33 9.5t20 38.5l-4 26l12 37q0 38 -62 76l-53 13q-56 32 -80 44h-35
l-49 -14l-12 -1l-58 15q-70 -28 -93 -60l-16 -43l-1 -28q-11 -39 -43 -73q-43 -33 -85 -33q-8 0 -13 1q-73 19 -108 73l4 51l-4 48q0 35 75 88l22 41l59 27l43 41l75 7l56 25l14 2l50 -9l47 3l72 14l72 -11q18 -10 55 -16q42 -52 104 -52q52 -53 96 -80q12 -18 32 -88
l48 -116v-4q-24 -52 -24 -83q0 -16 20 -119l-20 -74l12 -48q0 -12 -16 -59q24 -87 36 -101l76 -56q43 -47 44 -76q-1 -25 -60 -56q-14 -1 -29 -1q-59 0 -102 8t-89 55q-11 6 -21 6q-29 0 -70 -31l-46 -35l-45 6l-69 -19q-61 7 -76 7q-50 0 -101 -16zM515 161l84 29h17
l57 -21q78 37 151 61q37 24 56 60q0 12 -16 68l51 57l-87 51h-16q-18 0 -88 -44l-20 -4l-100 32h-20l-88 -40q-4 0 -58 15q-51 -59 -86 -71l-28 -80q0 -37 60 -72zM946 1082l-36 4l-54 23l-52 35l-32 12l-7 6q-17 24 -46 53q-40 20 -59 23l-18 1l-47 -20l-20 -26l-47 -28
l-36 -36l-54 -18q-53 -30 -97 -36q-18 6 -18 44q0 11 8 34l19 50q10 15 27 42l58 45l32 47l77 42l46 35l15 14q52 22 82 33h7q22 0 44 -15q33 -22 74 -54l22 -37l60 -50l9 -9l17 -38l57 -53q29 -42 36 -65l9 -34v-4q0 -22 -44 -22q-14 0 -32 2z" />
    <glyph glyph-name="atilde" unicode="&#xe3;" horiz-adv-x="1345" 
d="M516 -18h-16l-48 28l-60 -4q-51 37 -96 44q-32 12 -84 139l-40 51l4 59l-4 27q0 71 55 115l37 74q68 14 94 27q30 7 54 30q51 2 92 30l81 -21h15q16 0 45 22l20 8l57 -16q26 3 67 35q14 -8 34 -8q13 0 33 9.5t20 38.5l-4 26l12 37q0 38 -62 76l-53 13q-56 32 -80 44h-35
l-49 -14l-12 -1l-58 15q-70 -28 -93 -60l-16 -43l-1 -28q-11 -39 -43 -73q-43 -33 -85 -33q-8 0 -13 1q-73 19 -108 73l4 51l-4 48q0 35 75 88l22 41l59 27l43 41l75 7l56 25l14 2l50 -9l47 3l72 14l72 -11q18 -10 55 -16q42 -52 104 -52q52 -53 96 -80q12 -18 32 -88
l48 -116v-4q-24 -52 -24 -83q0 -16 20 -119l-20 -74l12 -48q0 -12 -16 -59q24 -87 36 -101l76 -56q43 -47 44 -76q-1 -25 -60 -56q-14 -1 -29 -1q-59 0 -102 8t-89 55q-11 6 -21 6q-29 0 -70 -31l-46 -35l-45 6l-69 -19q-61 7 -76 7q-50 0 -101 -16zM515 161l84 29h17
l57 -21q78 37 151 61q37 24 56 60q0 12 -16 68l51 57l-87 51h-16q-18 0 -88 -44l-20 -4l-100 32h-20l-88 -40q-4 0 -58 15q-51 -59 -86 -71l-28 -80q0 -37 60 -72zM639 1178l-23 28l-37 15q-14 4 -28 4q-12 0 -24 -3q-26 0 -50 -16l-10 -7l-45 -15l-33 -35l-31 -24
q-18 -8 -42 -11h-3q-15 0 -25 14q-6 8 -6 24t5 36l8 19q15 25 33 68l8 10l35 23l8 6l19 31l6 6l46 19q21 26 73 41q4 1 10 1q38 0 71 -6q31 -25 49 -33l57 -23l43 -43q43 -10 67 -10q19 0 36 7l21 24l8 3l31 12l5 5l21 25l11 8q32 14 78 20q26 -5 27 -22l2 -13l-13 -45
q-17 -53 -42 -81q-22 -12 -54 -34l-26 -37l-5 -5l-46 -22q-33 -28 -66 -28q-2 0 -22 0.5t-59 15.5l-29 28l-47 12z" />
    <glyph glyph-name="adieresis" unicode="&#xe4;" horiz-adv-x="1355" 
d="M526 -18h-16l-48 28l-60 -4q-51 37 -96 44q-32 12 -84 139l-40 51l4 59l-4 27q0 71 55 115l37 74q68 14 94 27q30 7 54 30q51 2 92 30l81 -21h15q16 0 45 22l20 8l57 -16q26 3 67 35q14 -8 34 -8q13 0 33 9.5t20 38.5l-4 26l12 37q0 38 -62 76l-53 13q-56 32 -80 44h-35
l-49 -14l-12 -1l-58 15q-70 -28 -93 -60l-16 -43l-1 -28q-11 -39 -43 -73q-43 -33 -85 -33q-8 0 -13 1q-73 19 -108 73l4 51l-4 48q0 35 75 88l22 41l59 27l43 41l75 7l56 25l14 2l50 -9l47 3l72 14l72 -11q18 -10 55 -16q42 -52 104 -52q52 -53 96 -80q12 -18 32 -88
l48 -116v-4q-24 -52 -24 -83q0 -16 20 -119l-20 -74l12 -48q0 -12 -16 -59q24 -87 36 -101l76 -56q43 -47 44 -76q-1 -25 -60 -56q-14 -1 -29 -1q-59 0 -102 8t-89 55q-11 6 -21 6q-29 0 -70 -31l-46 -35l-45 6l-69 -19q-61 7 -76 7q-50 0 -101 -16zM525 161l84 29h17
l57 -21q78 37 151 61q37 24 56 60q0 12 -16 68l51 57l-87 51h-16q-18 0 -88 -44l-20 -4l-100 32h-20l-88 -40q-4 0 -58 15q-51 -59 -86 -71l-28 -80q0 -37 60 -72zM927 1104l-12 1l-44 9l-33 6q-54 14 -100 79q-13 35 -13 75v4l1 4q8 53 58 100q54 34 114 39l9 -1
q18 0 78 -31q27 -22 36 -56q7 -35 27 -83q-4 -43 -27 -76q-17 -22 -32 -29q-23 -10 -47 -31zM411 1108q-93 6 -146 61l-30 49l-3 17l5 55l-5 30q13 47 59 67q26 23 82 29h17q41 -1 72.5 -15.5t65.5 -75.5q19 -35 22 -43l-3 -7q-15 -49 -19 -98l-17 -14q-29 -21 -45 -33
q-33 -22 -55 -22z" />
    </font>
</defs>
</svg>
