<svg xmlns="http://www.w3.org/2000/svg">
<defs>
<font id="VictoriaTypewriter-Bold" horiz-adv-x="1400" >
  <font-face 
    font-family="Victoria Typewriter"
    font-weight="700"
    font-stretch="semi-expanded"
    units-per-em="2048"
    panose-1="2 0 8 0 0 0 0 0 0 0"
    ascent="1638"
    descent="-410"
    x-height="1046"
    cap-height="1372"
    bbox="25 -425 2894 1842"
    underline-thickness="150"
    underline-position="-442"
    unicode-range="U+001D-263A"
  />
<missing-glyph horiz-adv-x="2181" 
d="M1283 35v-10h4q0 2 11 19h-6q-4 0 -9 -9zM988 63v-4h9v4h-9zM1321 72v-7h4q5 0 5 7h-9zM542 65h-8q-5 -1 -5 -6h50q5 0 5 6l-3 7q-21 -7 -39 -7zM1235 96v-4h9q6 6 10 6v3h-5q-10 -5 -14 -5zM627 129h-3v-11q3 0 9 -2q15 10 24 10q0 5 -6 5q-14 -2 -24 -2zM1455 139v-8
h10v5q-5 0 -10 3zM1418 153q0 -12 -5 -17l-5 3q-6 0 -10 -10v-6h2v8h3q8 0 8 -13h2q14 23 22 23v12h-17zM1505 160v-7h5v7h-5zM1354 160v-5h5q5 0 5 5h-10zM679 129v-3q41 5 46 10h8q0 -13 5 -13h8v6q-8 17 -8 21v10h-5q-49 -31 -54 -31zM1393 165v-2h5v2h-5zM1388 188
q94 -42 105 -52h5v10q-19 24 -19 29l-10 -7q-12 17 -27 25q-2 0 -2 -3q-10 3 -12 3l-12 -3q-12 3 -23 3q-5 -1 -5 -5zM1330 193v-3q4 -11 13 -17q6 0 13 2q5 -2 8 -2v2q0 4 -29 18h-5zM1332 212l3 -5q3 0 3 2l16 -2h67v5q-9 16 -45 24h-5zM1215 414v-2h8v2h-8zM1229 417h6
q4 0 9 10v3h-4q-4 0 -11 -13zM1251 450v-3h8q4 0 14 17v2h-3q-19 -11 -19 -16zM594 481q0 -15 -2 -15q2 -4 2 -10h5v25h-5zM1295 489q0 -5 -6 -13v-17h3q0 6 9 17v13h-6zM633 494v-8q4 0 10 11v2h-5q-5 -1 -5 -5zM575 511v-22h4q0 3 10 34h-3q-3 0 -11 -12zM898 523
q0 -6 36 -15q0 -5 8 -9h48q6 0 28 14v10q-14 0 -24 -2q-31 2 -31 5l-13 -3h-24q-4 0 -4 3q-1 -3 -24 -3zM517 535v-7h6v7h-6zM537 556v-5h5v5h-5zM570 559v-33q14 9 14 22q-1 7 -14 11zM507 562v-14h3q0 7 5 14v3q-5 -3 -8 -3zM517 583v-8q5 0 14 -13v-3h6q-14 20 -14 24h-6
zM1264 594v-11h3v11h-3zM512 605v-8h3v8h-3zM448 629h5v5q-5 -2 -5 -5zM638 651v-6q25 -23 33 -62h2l3 27q-11 21 -16 35l-19 6h-3zM1259 655q0 -3 8 -8v8h-8zM512 659v-7h3v7h-3zM629 685l7 -2l2 5v2h-2q-7 -1 -7 -5zM441 707v-12h7q0 13 17 17v13h-2q-14 0 -22 -18z

<glyph glyph-name=".notdef" horiz-adv-x="2181" 
d="M1283 35v-10h4q0 2 11 19h-6q-4 0 -9 -9zM988 63v-4h9v4h-9zM1321 72v-7h4q5 0 5 7h-9zM542 65h-8q-5 -1 -5 -6h50q5 0 5 6l-3 7q-21 -7 -39 -7zM1235 96v-4h9q6 6 10 6v3h-5q-10 -5 -14 -5zM627 129h-3v-11q3 0 9 -2q15 10 24 10q0 5 -6 5q-14 -2 -24 -2zM1455 139v-8
h10v5q-5 0 -10 3zM1418 153q0 -12 -5 -17l-5 3q-6 0 -10 -10v-6h2v8h3q8 0 8 -13h2q14 23 22 23v12h-17zM1505 160v-7h5v7h-5zM1354 160v-5h5q5 0 5 5h-10zM679 129v-3q41 5 46 10h8q0 -13 5 -13h8v6q-8 17 -8 21v10h-5q-49 -31 -54 -31zM1393 165v-2h5v2h-5zM1388 188
q94 -42 105 -52h5v10q-19 24 -19 29l-10 -7q-12 17 -27 25q-2 0 -2 -3q-10 3 -12 3l-12 -3q-12 3 -23 3q-5 -1 -5 -5zM1330 193v-3q4 -11 13 -17q6 0 13 2q5 -2 8 -2v2q0 4 -29 18h-5zM1332 212l3 -5q3 0 3 2l16 -2h67v5q-9 16 -45 24h-5zM1215 414v-2h8v2h-8zM1229 417h6
q4 0 9 10v3h-4q-4 0 -11 -13zM1251 450v-3h8q4 0 14 17v2h-3q-19 -11 -19 -16zM594 481q0 -15 -2 -15q2 -4 2 -10h5v25h-5zM1295 489q0 -5 -6 -13v-17h3q0 6 9 17v13h-6zM633 494v-8q4 0 10 11v2h-5q-5 -1 -5 -5zM575 511v-22h4q0 3 10 34h-3q-3 0 -11 -12zM898 523
q0 -6 36 -15q0 -5 8 -9h48q6 0 28 14v10q-14 0 -24 -2q-31 2 -31 5l-13 -3h-24q-4 0 -4 3q-1 -3 -24 -3zM517 535v-7h6v7h-6zM537 556v-5h5v5h-5zM570 559v-33q14 9 14 22q-1 7 -14 11zM507 562v-14h3q0 7 5 14v3q-5 -3 -8 -3zM517 583v-8q5 0 14 -13v-3h6q-14 20 -14 24h-6
zM1264 594v-11h3v11h-3zM512 605v-8h3v8h-3zM448 629h5v5q-5 -2 -5 -5zM638 651v-6q25 -23 33 -62h2l3 27q-11 21 -16 35l-19 6h-3zM1259 655q0 -3 8 -8v8h-8zM512 659v-7h3v7h-3zM629 685l7 -2l2 5v2h-2q-7 -1 -7 -5zM441 707v-12h7q0 13 17 17v13h-2q-14 0 -22 -18z
M526 735q5 -7 5 -10h9q-4 10 -9 10h-5zM638 740q0 -15 -14 -26q-12 0 -30 -12h-2q-6 0 -6 10l-13 -8q-13 0 -28 17h-3q0 -10 -5 -17v-9q0 -3 17 -10q1 5 5 5h6l8 -5h8q13 10 48 19l14 23v13h-5zM505 754v-7q2 0 15 -12h3v7q-12 0 -13 12h-5zM666 761v-7h2v7h-2zM666 811v-14
q15 -16 15 -50q-14 -36 -38 -52v-5h5q17 19 23 19q18 28 23 60q-14 42 -23 42h-5zM646 818v-10h2v10h-2zM821 862v-3h7v3h-7zM579 862q4 -11 7 -11v11h-7zM1137 867v-8q5 -13 17 -13h7v3q-14 0 -19 18h-5zM599 867q0 -3 9 -8h3v3q0 5 -6 5h-6zM554 867q2 -5 2 -11h5l-2 14z
M1081 859h8q0 5 20 14l3 5h-5q-11 -3 -26 -19zM573 880q0 -5 6 -5h2v5h-8zM1175 885v-2h5v2h-5zM1123 885q0 -5 -9 -5v-2h9q5 5 29 5v2h-29zM599 885v-2h6v2h-6zM551 889v-9h3v9h-3zM523 903v-23q8 -7 8 -13l6 3q-8 19 -8 24v9h-6zM492 894v-9q0 -4 13 -10h5v28h-3
q-9 -9 -15 -9zM663 917v-9h8v2q0 7 -5 7h-3zM728 937v-5h5v5h-5zM512 940v-8h3v8h-3zM512 951v-5h3v5h-3zM586 971q2 -6 6 -6v6h-6zM816 984v-5h14q0 5 -6 5h-8zM862 986l-5 -7h11q5 0 5 5q-6 0 -11 2zM492 986q0 -10 -10 -10v-2h14v12h-4zM589 989v-5h3v5h-3zM460 989v-5h5
v5h-5zM773 997v-6h8q0 6 -5 6h-3zM484 1003q2 -6 5 -6v6h-5zM906 1010v-5h2v5h-2zM416 1033v-33l4 -26h7v17l-5 9v8q0 2 3 2q-5 14 -5 23h-4zM945 1036v-5h5v5h-5zM594 1036v-5h3v5h-3zM1366 1041v-5h3v5h-3zM830 1041v-8l5 -2v2q-2 5 -2 8h-3zM573 1043h6v5q-6 -1 -6 -5z
M824 1057v-14h6l-2 14h-4zM753 1057v-2q4 -33 25 -33q9 -5 15 -5v2q-30 38 -40 38zM958 1060v-12h2q0 9 14 22l-5 2q-8 -12 -11 -12zM920 1088q0 -14 -24 -26v-7h10q10 9 20 30zM1060 1098v-3h5v3h-5zM1067 1100h9v5h-4q-5 -1 -5 -5zM643 1105v-7q3 -8 53 -36q0 -7 5 -7h5
q0 11 -25 45l-15 -2q-15 7 -23 7zM1308 1112v-7h8v7h-8zM627 1112v-9h2v9h-2zM435 1119v-19q0 -9 -3 -24l9 -14v-19h7q-7 34 -7 42l7 10q-7 24 -13 24zM608 1129l-3 -5v-12h3q5 0 5 5v7q0 5 -5 5zM766 1169v-14l7 -3l-4 17h-3zM581 1169q0 -4 -6 -12v-5q11 -23 17 -23v26
l-6 8q6 0 6 6h-11zM671 1174v-3h8v3h-8zM761 1181v-12h2v12h-2zM990 1184v-3q14 5 15 12h-6q-2 0 -9 -9zM761 1196v-10q5 3 8 3q0 7 -6 7h-2zM1034 1127q-5 2 -7 2l-17 -2v-13l3 -14h9q12 7 12 12v5l-2 5h5q0 -8 5 -8h8q46 24 46 52l24 33v2h-2q-24 -7 -24 -27
q0 -33 -60 -47zM1172 1199l5 -3v8q-5 -1 -5 -5zM689 1206q0 -2 -4 -7h9v7h-5zM512 1214v-5h11v5h-11zM969 1220v-6h5v6h-5zM751 1223l2 -14q5 0 5 5v9h-7zM990 1209h4q28 13 28 16h-9q-23 -10 -23 -16zM728 1228v-5h5q0 5 -5 5zM537 1228v-5h3v5h-3zM646 1231v-6h2v6h-2z
M1238 1233v-10q19 0 19 -14h7q0 6 17 16l-11 8h-32zM568 1233v-5h5v5h-5zM545 1243v-5h2v5h-2zM1062 1252v-5h5v5h-5zM441 1179v-8h4q6 6 32 8q2 -4 2 -10h10q8 0 12 -3q17 15 22 15v12h-3q-9 -7 -13 -7q-1 5 -15 13q13 13 15 34q8 0 8 5v14q-35 -42 -74 -73zM811 1263
q-7 -11 -20 -49v-43q0 -2 -3 -2q4 -19 18 -55v-14h15v5q-6 8 -12 45v5q0 5 2 11q0 3 -2 3q0 8 19 87h-4q-5 0 -13 7zM551 1263v-11h3v11h-3zM517 1263q0 -3 -2 -7h8v7h-6zM1175 1271v-8q5 0 5 5zM1055 1271v-5h2v5h-2zM1238 1301v-3h6v3h-6zM627 1301v-9h2v9h-2zM1229 1309
q0 -5 6 -5v5h-6zM963 1231v-6h3q19 11 63 24q0 19 36 62v4l-5 8l-20 -3q-9 3 -11 3q-33 -25 -66 -92zM833 1325l-3 -5v-9h15v4q-5 0 -12 10zM1079 1329v-11q5 0 5 5v6h-5zM1175 1332v-9h19q7 -5 29 -12h6v4q-11 0 -11 8h-17q-6 6 -26 9zM1034 1343v-6h16q0 4 -10 6h-6z
M1091 1349v-6h3v6h-3zM766 1352v-5h3v5h-3zM1067 1360v-5h9v5h-9zM730 1367q-10 -39 -10 -63v-48q8 -9 8 -18h5q5 0 5 5q-5 0 -5 6q0 17 -3 49q3 26 3 49q5 0 5 5v10q0 5 -5 5h-3zM1189 1376l-7 3q-33 -8 -33 -12q12 0 12 -5v-2q0 -3 -9 -8h-15q-9 0 -34 13h-12v-3
q28 -14 46 -15q1 -10 7 -10h8q0 11 18 12h16q49 -14 71 -40q12 -11 35 -57q3 0 3 -3l-6 -8q4 0 12 -23h5v15l-14 42l-63 87v3q4 10 4 11q-4 7 -4 9h-28q-9 -9 -12 -9zM766 1390v-5h3v5h-3zM850 1398v-5h4v5h-4zM685 1398v-5h6q0 5 -6 5zM570 1357v-5q11 -11 11 -18h5v5l-5 8
v8q0 4 8 7q13 -11 13 -28h3q2 14 55 49h11v-9h8v5q-8 0 -11 16l-32 3h-9q-29 -10 -57 -41zM1175 1400l-3 -5v-2h19v5q-2 0 -16 2zM903 1403q3 -5 3 -10h6v2q-4 5 -4 8h-5zM838 1417v-12h2v12h-2zM1103 1419v-2q15 -7 15 -12h19l10 -12v16h-10q-10 0 -34 10zM668 1422
q0 -4 11 -8q0 5 22 5v3h-33zM643 1417v-5q7 0 20 7v3h-3q-11 -5 -17 -5zM876 1424v-5h6v5h-6zM706 1419h8q8 5 14 5v3h-14q-4 0 -8 -8zM876 1437v-10q6 0 6 6zM738 1442q0 -5 13 -13q0 4 7 10q3 0 3 -2q22 2 22 8q-9 0 -14 2q-6 -5 -31 -5zM788 1445h8v5h-3q-5 -2 -5 -5z
M1034 1455v-16l6 -10v-24q1 0 12 -2v2l-6 19v9q0 5 11 12h3q5 -2 5 -6v-2l-5 -10v-5q9 -19 21 -24l3 5l-3 6q3 5 3 8q-15 34 -27 38h-23zM901 1452q0 -6 25 -19l2 -6l-11 -13v-2h3q7 9 70 27h7q16 -7 16 -20h11q0 8 8 18q-10 0 -14 13h-13q-31 8 -42 19h-3zM848 1455v-5h9
l36 21q3 0 8 -2l16 2q0 5 -5 5q-25 0 -62 -21h-2zM926 1481v-5h5q6 0 6 5v3h-3q-6 -3 -8 -3zM1672 1375q91 -38 91 -135v-6q-23 -102 -99 -228q-16 -35 -16 -55q0 -8 3 -13q7 -13 25 -13q7 0 15 2q27 20 56 57h11q17 -1 31 -39l-1 -21q0 -17 -37 -49q-29 -25 -85 -25
q-16 0 -34 2q-64 36 -64 94v31q107 174 109 270q0 41 -23 41q-12 0 -32 -13l-36 -59l-23 -9q-41 10 -41 41v2q2 105 150 125zM758 46l3 -5l5 3h40q5 0 27 -7q8 0 133 17v2q-24 0 -24 3l-27 -3h-61q-11 0 -30 3q-5 -3 -8 -3q-10 3 -20 3q-3 0 -8 -3q-80 9 -109 28l6 3l78 -10
l6 2q7 -2 9 -2q3 0 8 2l16 -2l7 2q11 -5 34 -5h16q6 0 12 3l5 -3q25 3 30 5q11 -2 57 -5q21 5 40 5h39q98 0 204 34q27 18 60 28h19q0 4 13 17l-30 21q-25 0 -97 82q-1 10 -12 21q-42 73 -42 96q0 7 -5 26v31h-5l-10 -18q0 -13 -53 -65q-10 -26 -34 -40q-29 -24 -62 -24h-30
q-56 7 -120 28q-70 33 -118 72v11q2 5 5 5q29 -29 89 -52q2 -3 48 -19q10 -7 69 -21q4 4 11 4q9 -7 16 -7h8q51 8 76 27q97 96 152 199l35 73q25 75 33 146v33q0 5 2 10q-2 3 -2 11q19 44 39 109v57l2 15q-2 5 -2 8q0 6 2 6l-2 28v20q-20 87 -44 130q-42 8 -42 12l-54 -14
q-13 -12 -38 -57q-8 0 -32 -29q-34 -26 -54 -28h-38l-9 5q-37 -73 -56 -81q-35 -24 -77 -29q-3 -3 -19 -3q-46 9 -69 22q-35 -18 -36 -26v-7q1 -6 5 -6h3q11 11 42 11q3 0 3 -3l23 5q109 -17 144 -50v-3q0 -6 -8 -6q-11 0 -86 33q-5 -3 -9 -3q-17 4 -17 8l-5 -3l-28 3
l-27 -5q-7 2 -10 2l-25 -5q0 3 -3 3q0 -8 -26 -22q0 -13 -20 -13q0 -6 -29 -12l-33 9l-9 -11v-3q37 -18 37 -34q16 0 49 -44l5 -26q0 -29 -18 -57q0 -8 -25 -26q0 -10 -48 -18v-6q4 0 9 -3q20 3 28 5q54 -10 54 -58v-14q0 -48 -52 -76q-11 -1 -11 -19q4 0 9 -7l-12 -16
q2 -14 28 -34q0 -6 5 -12v-21l33 -93q9 -42 24 -66q0 -18 15 -49q13 -43 15 -83q-2 -34 -10 -34q-12 12 -18 12q-7 -7 -12 -7q-112 13 -112 19q-6 0 -6 5l3 5q-14 5 -14 11q9 6 61 17l78 29v4q-11 44 -44 116q-13 45 -26 83v24q0 5 -36 15l-30 18h-8l1 -3l-48 18l-2 9
q-17 26 -17 40q-3 0 -53 42q-10 39 -26 56l-19 71v5q-5 16 -5 22q7 52 45 52v3q0 43 -40 69q-9 40 -23 51q-12 10 -12 35v5l20 47q-8 9 -13 43q9 124 30 174q0 2 -2 15l35 34q38 37 38 57q40 66 88 110q54 52 120 52q7 5 52 22h11q10 0 27 7q13 -7 18 -7h7q15 13 36 15
q19 17 71 25q30 -4 32 -8l48 -5q125 -31 231 -103l10 -21q71 -85 78 -126q0 -3 -2 -3l2 -13v-16q0 -11 -2 -30q0 -9 39 -32q24 -30 29 -64q0 -43 -22 -73v-13q4 -7 12 -49q-3 -38 -7 -38l4 -5v-2q0 -24 -40 -44q-21 -41 -53 -41l-6 -37l2 -20q-5 -26 -5 -31t5 -21
q-13 -22 -13 -29v-2q14 0 22 -54q3 0 3 -2v-12q-7 -29 -12 -35v-5q32 -33 36 -71q0 -56 -55 -90q-13 0 -35 -19q-10 -2 -11 -2q-14 2 -27 2q0 -7 -11 -7v-22l43 -79q70 -75 75 -75h5q45 37 63 38q0 4 8 7q26 -5 29 -5h8q0 -14 10 -14v6q-3 2 -4 5l-1 1l26 16q18 -12 18 -14
q10 3 19 3t17 -3q17 -6 17 -12l-1 -5q0 -4 -33 -5q0 -3 -3 -3q-5 3 -11 3l-10 -10q24 -4 24 -22q7 0 21 -30h5v7q0 8 -12 32l-7 10q7 3 9 3q5 -2 13 -12q10 -13 23 -43q2 -15 29 -21q5 2 7 2q0 18 -52 76v3l8 2q24 -7 53 -57l6 -19l-6 -7q0 -8 34 -10q37 -14 57 -26
q35 -19 50 -34q28 -15 55 -54q35 -32 76 -65q12 -14 12 -21q0 -9 -15 -9l-47 16q-11 5 -19 27q-10 0 -83 81q-92 74 -136 74l-22 13q0 -8 -14 -8v-20q0 -4 -9 -7q26 -54 26 -150q2 0 2 -10q-7 -19 -12 -19h-16q-2 0 -5 51v95q-6 36 -21 55h-3l-5 -17v-19q-11 -19 -31 -83
q-5 -1 -15 -39v-4l-32 -29q-8 -4 -14 -4q-7 0 -13 6v7q74 119 76 156v37l-44 -66l-13 6q-52 -122 -63 -131h-7q-5 0 -9 16q18 25 67 120q0 6 15 42h-5q-10 -4 -58 -65q-29 -31 -46 -57h-8q-5 0 -8 14q-45 -27 -58 -54q-11 0 -33 -18h-10q-4 0 -11 13v5q21 39 77 68
q46 37 61 45q14 7 17 7l60 49q0 8 9 8v5h-5q-12 -10 -21 -10q0 3 -3 3q0 -9 -78 -42q-34 -19 -77 -31q-57 -30 -107 -48q0 -9 -34 -11q-47 -15 -140 -34q-56 -14 -58 -14q-3 0 -3 2q-45 -10 -66 -11h-30q-87 0 -87 14v2q0 8 30 12q3 0 8 -3q105 5 131 13l5 -3l135 24
q52 9 96 33l5 -2q28 5 96 35h7v7h-9q-7 -7 -10 -7q-45 0 -180 -24l-5 3l-70 -19q-74 -5 -87 -5q-8 -5 -45 -12q-97 -5 -104 -5q-16 5 -16 12q9 5 16 5q67 2 74 2v3q-4 0 -18 7q-13 -2 -21 -2q-5 0 -5 2l-68 -7h-8q-52 0 -52 7l-20 -2h-2q-41 1 -41 14q0 2 2 5q3 5 3 7h-31
v-5l-116 -44l122 1q3 0 3 -2l6 2l74 5q22 -5 22 -11q0 -4 -6 -9l-13 3q0 -4 -86 -15q0 6 -6 6q-205 -6 -205 -20q0 -3 3 -4q14 -9 14 -15q0 -7 -13 -10q-41 3 -57 3h-7q-4 0 -23 12l27 25l222 76l10 2h-1l50 18q6 5 58 13q5 -3 9 -3q0 3 2 3l-13 21v3q0 5 5 5h6
q23 -23 23 -53q-3 -5 -3 -12q3 0 3 -2l6 2h3q6 0 10 -2l6 2q10 -5 21 -5h37q11 0 21 -2q12 2 22 2h18l5 -2zM835 554q12 -11 27 -11q16 0 75 8h18l39 -8q14 8 21 8h19l21 -10h2q5 0 10 2q12 -3 12 -8v-7q-37 -26 -37 -36q0 -28 -71 -31l-24 -2q-10 7 -35 10q-23 25 -72 49
l-10 13q0 4 5 23zM969 647q25 0 39 -18v-10q0 -6 -5 -6h-6q-7 0 -31 9l-6 -3q-20 3 -20 8v2q7 13 29 18zM816 917l14 -4l15 4q4 -12 9 -12q23 3 37 3v-8h-9v-6l14 4q5 -1 5 -6q-3 -7 -3 -9q0 -4 19 -21v-6q0 -4 -16 -13h-25q-4 0 -8 8l8 11v5h-14q0 -18 -34 -24h-9
q-14 0 -17 8v5l7 9v13h-7q-6 0 -6 -5q4 -6 4 -8l-9 -6q-13 5 -13 19q-24 0 -32 -11l2 -5v-3q0 -5 -10 -5q-22 10 -27 13v3q0 4 17 10q-3 5 -3 9q0 14 84 24q5 4 7 4zM1209 940h26q34 0 54 -23q0 -5 -11 -12q-15 14 -32 14h-2l-18 -2q-3 0 -3 2q-50 -6 -74 -14v-2h37
q3 0 25 -9l9 6q0 -1 6 -8l-3 -14q3 0 3 -3q14 5 23 5l2 -5v-5q0 -8 -13 -8l13 -19q0 -6 -42 -15q-2 0 -8 10l3 13v5h-5q0 -25 -42 -30q0 -3 -3 -3h-2q-23 13 -34 36q-15 0 -15 -5l4 -13l-8 -3h-18l-14 -3q0 -13 -5 -43q8 -81 19 -126q-2 -5 -2 -7l2 -14q0 -23 -49 -42
q-5 0 -5 5v9q24 14 38 34q-13 34 -25 130q0 84 85 132q39 27 84 27zM1663 802h14q46 -6 58 -62l-2 -26q-16 -53 -71 -54q-59 15 -60 74q11 60 61 68z" />
    <glyph glyph-name="uni0000" horiz-adv-x="899" 
 />
    <glyph glyph-name="uni0000" horiz-adv-x="899" 
 />
    <glyph glyph-name="nonmarkingreturn" horiz-adv-x="682" 
 />
    <glyph glyph-name="space" unicode=" " horiz-adv-x="899" 
 />
    <glyph glyph-name="space" unicode="&#xa0;" horiz-adv-x="899" 
 />
    <glyph glyph-name="exclam" unicode="!" horiz-adv-x="770" 
d="M568 53q-12 -30 -32 -65q-49 -43 -155 -63h-12q-41 2 -129 70l-14 19q-16 27 -29 81v10q0 16 17 86q24 66 75 94q35 26 74 26h3q78 0 156 -49q29 -31 40 -66q13 -35 21 -60q-10 -73 -15 -83zM394 357q-27 0 -55 28q-22 19 -45 72v14l-13 52v3l-21 60v10l1 64v13l-15 36
l2 60q-8 29 -16 64q2 18 2 34q0 60 -20 101l10 98l-23 67l7 43l3 15l-11 38v11q17 81 86 122l26 9l43 9q40 5 68 5q77 -30 113 -112q0 -17 20 -79v-18l-17 -42l10 -61q0 -26 -32 -98v-74l-11 -56l5 -78q-14 -37 -19 -70l-8 -52l4 -36v-73q-23 -96 -33 -132.5t-32 -46.5h-29z
" />
    <glyph glyph-name="quotedbl" unicode="&#x22;" horiz-adv-x="979" 
d="M684 1425q70 -6 142 -93q18 -21 21 -82l11 -50l-26 -72v-6l2 -70l-22 -54l1 -59q-24 -49 -24 -55l-9 -38q-5 -68 -56 -123l-24 -2q-63 13 -82 71q-15 33 -35 69l2 40l-30 37l-3 17l10 49l-28 53l7 71l-28 57l12 60l-5 51q22 67 84 97q43 25 80 32zM247 1422
q67 -5 126 -70q36 -32 49 -58v-12l-15 -53l20 -60q-10 -33 -23 -59v-5q9 -38 9 -59q0 -8 -1 -14l-24 -27l8 -46v-35q-28 -30 -28 -43l1 -50l-3 -13l-24 -48q-22 -53 -52 -57h-8q-5 -1 -10 -1q-47 0 -95 89l-21 29l-4 49q-8 25 -21 50l-11 31l-3 22l12 64l-20 66q-4 9 -4 31
q0 23 5 62l-16 69q0 75 133 144z" />
    <glyph glyph-name="numbersign" unicode="#" horiz-adv-x="1584" 
d="M385 514l-1 11l-7 73l24 56q19 71 25 115l-14 70l21 65q21 34 21 51v2q0 4 -8 4t-24 -10q-26 18 -62 18q-29 0 -67 -12q-29 20 -69 85l-5 24q22 76 51 103q33 16 83 44h20q35 -8 57 -18l29 7l23 10q1 13 1 27l-1 19q22 50 29 108v11q0 39 40 90q15 29 54 53l11 7
q15 7 27 7q60 0 82 -43q5 0 36 -84q-12 -25 -27 -76v-8q0 -20 6 -72l-14 -32l-14 -31l1 2l1 -9q8 -3 17 -3q13 0 45 27h28q26 -18 50 -18h15l56 37l51 -15q17 -15 31 -15q5 0 7 1l6 10q-2 26 -10 52q32 61 32 174q18 37 89 102l64 13q57 -19 71 -52q14 -34 14 -67l-1 -11
l-1 -34q1 -3 1 -7q0 -24 -32 -91l-5 -57q2 -13 3 -13l10 4q10 3 27 11q34 -16 69 -16h9l42 9q21 -25 35 -39q20 -14 33 -58l3 -15q2 -11 2 -21q0 -42 -39 -86q0 -7 -71 -73q-23 12 -57 20q-9 -2 -50 -24h-20l-24 8l-14 -8q-9 -22 -9 -52q0 -8 1 -18l-3 -61l-22 -57
q-17 -70 -23 -115l18 -69l-20 -63q-7 -22 -7 -51v-4l1 -11l4 -1l27 -10q37 12 58 12h4l35 -6q31 -6 58 -38q21 -26 27 -101l-11 -24q-55 -65 -88 -83q-24 8 -38 8q-8 0 -14 -2q-20 -9 -41 -9q-9 0 -48 8l-9 -5q-1 -12 -1 -21q0 -8 1 -18q-20 -50 -27 -108q2 -8 2 -14
q0 -37 -39 -88q-16 -29 -54 -55l-14 -7q-14 -6 -28 -6q-69 0 -91 41q-6 0 -41 80q12 27 24 76l1 6q0 21 -8 57l14 56l-2 2l-42 -1l-65 16l-70 -18q-7 -1 -14 -1q-24 0 -57 14q-40 -2 -47 -10q-5 -6 -5 -15q0 -2 0.5 -10t3.5 -21q-34 -64 -35 -174q-20 -35 -80 -100l-22 -12
q-106 20 -119 55q-12 32 -12 64q0 8 1 16l2 33v6q0 25 33 91l6 56q0 3 -2 3q-5 0 -23 -6q-44 26 -55 27q-35 -6 -60 -16q-54 64 -54 72q-23 33 -23 64q0 20 10 42l5 14q23 46 49 61l46 16l45 9q36 0 71 14q20 -12 41 -19h4q5 0 10.5 17.5t5.5 51.5zM679 959l-4 -17
q-13 -34 -16 -47l2 -69l-1 -43q-8 -33 -23 -65l-16 -54l-4 -93l-29 -122l-2 -23q2 -1 5 -1q12 0 53 13l25 -1l32 -22q7 -1 15 -1q21 0 49 5l39 19l47 -30q5 -3 13 -3h9l12 11q0 6 10 31q11 30 15 45l-4 68v43q9 32 23 65l15 56l2 92l27 120q-20 17 -23 17l-39 -17l-31 -10
q-25 8 -43 24l-27 12l-56 -15l-64 20z" />
    <glyph glyph-name="dollar" unicode="$" horiz-adv-x="1523" 
d="M849 529l-11 -9l5 -74l2 -26l-13 -71l9 -108l-8 -67l9 -12l83 -1l25 16q21 37 24 74l37 43q0 3 -23 55l1 21l-9 42l-12 31v-1l-4 3l-46 25q-34 47 -69 59zM620 1134l-21 6q-9 0 -33 -45q-65 -11 -67 -53l-1 -4q-27 -17 -35 -44l6 -35l33 -30l-2 -36l61 -26l12 -38l39 -13
q8 10 8 27v4q10 45 10 79q-1 25 -6 44q-2 25 -8 48l11 77zM826 1338l10 -9l24 7l21 -1l71 -37l40 -24q30 5 49 24q37 24 60 24h2q114 -42 114 -136l-3 -61l24 -49l-18 -67l18 -65q-18 -130 -72 -130h-2q-23 1 -106 87l-12 27l-12 70q-35 54 -52 54l-38 16q-11 13 -32 50
l-4 2l-25 6l-43 3l-11 -13q3 -86 10 -134q-9 -36 -9 -78q1 -29 5 -61q-3 -41 -3 -60v-15t20 -14q15 0 111 -49l131 -24q39 -50 55 -77l48 -18l15 -16q11 -53 18 -73q10 -24 28 -39l-2 -53l24 -75l-28 -196q-47 -107 -147 -175l-41 1q-38 -28 -75 -43l-68 -18l-33 8l-51 -16
l-10 -11q-1 -27 -10 -62q-11 -45 -56 -91l-23 -12q-68 21 -90 60q-22 56 -22 119l1 13l-7 11q-38 23 -83 41l-40 2q-63 34 -78 35h-4q-14 0 -32 -7q-3 0 -22 -23q-18 -25 -48 -41l-29 1q-60 27 -93 63l-19 44l24 59l-29 51v8l23 70l-24 46l7 45l-13 77l28 68l9 20
q17 41 38 41h1l20 -1q36 -36 42 -38l76 -101q6 -57 68 -78q5 -45 24 -88q2 -4 32 -26l46 -4l27 -24l19 -14l14 -2l18 12q-4 24 -5 83q12 61 12 88v6q-8 53 -16 105l16 89l-10 68l-24 25h-2l-37 -6l-22 1q-30 36 -41 37h-6l-80 24q-12 23 -35 72q-45 38 -82 76l-9 80
q-12 39 -12 89q0 11 1 22l1 14q18 135 92 184l45 60l82 17l49 30l65 2q4 3 9 7q-4 20 -9 38q0 29 17 107.5t77 115.5q19 11 37 12q39 0 73 -53l27 -112z" />
    <glyph glyph-name="percent" unicode="%" horiz-adv-x="1630" 
d="M1221 1528h13q105 -57 105 -124q-15 -77 -71 -141q-18 -46 -33 -69q-24 -50 -32 -77q-34 -16 -56 -110q-18 -1 -42 -33t-42 -57l-20 -57q-55 -65 -66 -101l-8 -8q-21 -17 -53 -95q-59 -78 -65 -78l-3 -7l-8 -36l-20 -45q-20 0 -46 -73q-42 -103 -43 -103q-4 0 -21 -17
q-31 -42 -31 -60l-22 -43q-9 -26 -40 -51q-23 -24 -48 -85l-28 -57q-10 -7 -32 -61l-75 -110h-30q-81 24 -120 74q5 94 31 136l20 20q1 32 23 57l39 46q0 13 43 60l8 16l17 50l5 16l38 30q34 41 37 65l-5 38q27 32 63 65q38 36 38 66l2 22q13 31 64 75q30 29 30 40l10 63
l14 23q84 94 88 116l8 36l15 22l31 33q30 51 30 83l28 43q17 50 41 101q23 32 23 43q32 59 47 94l3 3l8 44q18 21 46 54q41 64 92 64zM584 1424q49 -24 112 -24q14 -16 23 -16h17l76 -85q30 -72 54 -81l5 -57l-7 -39q6 -17 6 -40q0 -54 -43 -110q-22 -36 -45 -90l-17 -39
l-42 -24l-56 -72q-47 -15 -60 -49l-72 -40l-61 -22q-48 -5 -86 -18h-19q-44 7 -82 33l-70 28l-14 13l-24 39q-17 13 -34 83q-19 20 -31 61l13 62l-8 54q0 26 70 134l22 70q0 18 68 66q12 32 95 75q54 68 125 68q54 20 85 20zM501 1216q-25 0 -49 -13l-56 -47l-19 -30
l-39 -31q-8 -26 -20 -62l1 -21q-8 -32 -8 -54l-8 -40q0 -59 100 -102h47l80 40q19 0 67 54q14 13 14 22l10 40l12 13q18 36 27 92l7 22v38l-7 24l-27 30l-20 21l-18 9l-25 11q-4 0 -14 -4zM1418 680q22 -20 55 -76l32 -34l10 -68v-66q-42 -98 -42 -104q0 -21 -36 -112
q-43 -40 -90 -89l-30 -48l-16 -10q-60 -13 -104 -58l-39 -1l-40 6l-52 -15l-81 1q-27 20 -46 22l-16 16l-47 15q-45 67 -68 144l4 23q-3 9 -16 22q13 61 13 94l8 36l4 52q11 36 55 84q16 24 37 42l25 50l70 53q33 33 78 69q15 0 82 36h18l42 -3q114 -2 190 -81zM1185 590
l-52 -24q-5 0 -22 -41l-13 -10l-32 -27l-34 -32l-31 -78q-27 -28 -28 -79l-1 -40v-3q0 -11 11 -27l19 -27q41 -24 65 -24h20q16 0 65 15l21 10l20 12q19 11 80 64l12 24q42 82 44 128l15 50q4 10 4 19q0 11 -6 27l4 14l-35 37q-33 34 -55 34l-68 -22h-3z" />
    <glyph glyph-name="ampersand" unicode="&#x26;" horiz-adv-x="1497" 
d="M657 1139q-28 -12 -42 -42q-23 -20 -38 -58q9 -92 45 -140l19 -20l14 -1q79 32 121 81q2 3 8 40l6 43l-10 57q-11 25 -19 37q-38 3 -71 18l-4 1zM614 1297q45 21 96 29q19 -13 98 -24h10q25 0 56 -49q18 -27 45 -34q17 -84 54 -159l6 -38v-13q-5 -99 -30 -131l-22 -59
l-133 -93q-67 -29 -85 -68l13 -37l45 -53l41 -83l32 -19l1 1q9 11 30 71q44 45 44 92q35 47 102 76q64 33 99 33q2 0 20 -1t67 -25t66 -84q9 -34 9 -56q0 -17 -5 -27q-6 -40 -29 -49q-15 -6 -35 -6q-11 0 -24 2l-41 8q-22 6 -37 6q-28 0 -37 -20l-13 -40l-4 -49l-27 -40
q-22 -31 -35 -79q0 -26 44 -52q30 -36 58 -36q21 0 76 59l95 35q130 -28 130 -110q0 -30 -18 -67q-8 -23 -47 -77q-23 -30 -35 -58l-11 -15l-53 -17q-34 -18 -97 -25q-69 1 -118 34l-48 39l-60 35l-48 26l-10 1q-37 -21 -57.5 -41.5t-40.5 -31.5q-61 -15 -123 -40l-149 -8
l-65 19l-65 26l-56 36q-67 34 -122 107l-9 31l-6 40l-28 86v16l1 57l-8 88l28 56l17 59q0 28 57 61l41 50l100 54q43 20 78 47l2 8q-28 102 -41 150l-8 74l2 38v17q14 25 27 56l17 52q10 31 64 89q35 5 109 50zM350 402l-6 -89q18 -65 39 -112l31 -29l63 -38l51 13l15 1
l48 -7q42 12 54 47l10 15q30 17 30 48q0 7 -4.5 31t-47.5 53q-13 53 -55 90q-20 87 -58 124q-14 13 -32 13q-14 0 -28 -8l-19 -15q-73 -60 -91 -137z" />
    <glyph glyph-name="quotesingle" unicode="'" horiz-adv-x="503" 
d="M253 1425q70 -6 142 -93q18 -21 21 -82l11 -50l-26 -72v-6l2 -70l-22 -54l1 -59q-24 -49 -24 -55l-9 -38q-5 -68 -56 -123l-24 -2q-63 13 -82 71q-15 33 -35 69l2 40l-30 37l-3 17l10 49l-28 53l7 71l-28 57l12 60l-5 51q22 67 84 97q43 25 80 32z" />
    <glyph glyph-name="parenleft" unicode="(" horiz-adv-x="827" 
d="M653 -124l23 -82q-21 -25 -49 -25q-8 0 -17 2q-108 31 -160 97q-42 46 -89 113l-44 45l-9 88l-61 84l-6 132l-5 30l-61 133q20 82 34 157l-22 91l11 52l19 47l-9 95l36 91q20 28 39 96q2 81 33 101l44 37l28 67l63 59q65 44 129 82l64 -9q33 -15 34 -40v-5
q0 -64 -81 -183l-34 -103q-85 -67 -85 -102v-1l4 -18l1 -34q-30 -53 -30 -56q1 -11 19 -52q-25 -47 -53 -130v-27l24 -68l-29 -65v-5l33 -87l-15 -38l-9 -52l17 -40q2 -65 60 -104q26 -94 27 -104l49 -48q2 -39 28.5 -79t48.5 -142z" />
    <glyph glyph-name="parenright" unicode=")" horiz-adv-x="823" 
d="M157 1352l-21 77q12 28 62 28h3q108 -31 159 -98q42 -46 89 -114l43 -45l10 -88l60 -84l4 -133l4 -30l62 -133q-21 -81 -36 -157l22 -90l-11 -53l-20 -46l9 -95l-36 -91q-20 -28 -40 -96q-3 -81 -33 -101l-45 -37l-29 -67l-63 -58q-65 -43 -129 -82q-36 -8 -57 -8
q-26 0 -33 17t-8 41v3q0 66 83 185l34 102q85 66 85 101v2l-3 18l-1 34q30 53 30 56q-1 11 -18 52q25 47 52 130l1 27l-23 68l29 65l-1 5l-32 87l16 38l9 52l-16 40q-2 65 -60 104q-25 94 -28 104l-47 49q-2 39 -28.5 79t-47.5 142z" />
    <glyph glyph-name="asterisk" unicode="*" horiz-adv-x="1294" 
d="M594 654l-2 19l-15 -3q-47 -55 -84 -80q-24 -21 -51 -36l-26 -11q-11 -4 -23 -40q-38 -47 -97 -58l-74 1l-54 14v32q0 36 -16 59l-8 25l10 26l1 23q14 97 156 127l44 12l50 7l98 35v3q0 14 -132 19l-53 25l-75 2l-46 20q-63 56 -70 117l-5 56q0 74 54 92l43 6l46 -4
q116 -35 146 -80q17 -35 59 -52q19 -17 39 -44l61 -62l7 14l-22 93l6 19q-20 18 -21 28q-35 43 -37 96v10q0 49 15 111q37 55 56.5 64.5t35.5 18t52 17.5l46 -39l31 -57q16 -52 16 -90q0 -13 -2 -24l-10 -6l8 -33l-29 -33q2 -17 25 -45l-34 -138q3 -2 7 -2q32 0 127 137
q21 8 51 31q37 48 81 62q0 3 79 7h2q57 0 61 -66q12 -33 12 -65q0 -30 -10 -59q0 -23 -28 -51l-19 -11q-23 -24 -28.5 -40.5t-99.5 -32.5l-44 -2h9l-64 -9l-48 -19q-16 -7 -16 -14q0 -5 11 -10l51 -13l81 -6q28 -4 58 -4q16 0 33 1q34 -20 64 -43l19 -8q30 -19 44 -47
l11 -46l4 -15q0 -94 -70 -127l-50 -17l-55 8l-112 47q-22 9 -59 57q-36 19 -46 54q-31 36 -53 58l1 -30l19 -59l-10 -39q22 -41 32 -72l4 -38l-9 -49q-12 -36 -27 -78l-33 -21v-22q-38 -15 -67 -15q-8 0 -16 1q-49 0 -72 54q-29 20 -34 121l20 64l15 26l7 38z" />
    <glyph glyph-name="plus" unicode="+" horiz-adv-x="1106" 
d="M502 1184l32 3q116 -3 141 -88l13 -38l-15 -54v-60q-10 -36 -10 -73q0 -16 2 -33q0 -41 50 -41h7l69 -11l50 16h21q44 -10 90 -10q14 0 29 1q77 -13 91 -107v-8q0 -69 -95 -119h-19l-61 7q-64 -3 -102 -14h-65l-29 -3q-14 -7 -14 -13l5 -43l-14 -50l13 -52l-13 -55l7 -38
q0 -67 -75 -89q0 -7 -84 -27q-42 16 -56 42l-30 94v24q11 37 11 76q0 11 -1 22l7 49v3q0 47 -71 61l-66 7q-64 -10 -133 -16h-7q-117 21 -152 113v7q0 46 93 130l31 5l53 -11l30 7h8l51 -10l23 6h34q38 -18 56 -18q28 0 43 18q-19 150 -33 181l9 36l-9 53q4 96 85 120z" />
    <glyph glyph-name="comma" unicode="," horiz-adv-x="672" 
d="M254 370l27 5l60 -9h26l27 5q133 -46 168 -153l-6 -67v-57l1 -24q-15 -95 -35.5 -146t-53.5 -78q-18 -69 -102.5 -124t-224.5 -57l-12 13q-5 17 -5 33q0 48 40 96l34 59q47 40 61 80l3 17q-5 31 -44 69l-29 21q-22 29 -41 53t-25 48q-1 10 -1 19q0 19 4 36q5 30 8 53
q41 80 120 108z" />
    <glyph glyph-name="hyphen" unicode="-" horiz-adv-x="1149" 
d="M822 814h9l42 -14l44 -6l20 1q61 9 78 9h9q62 -34 87 -92l-1 -23q0 -100 -84 -118q-40 -6 -91 -19h-15l-92 10q-40 -1 -116 -16l-71 12h-20q-10 0 -84 -11h-12l-72 11l-83 -12q-43 9 -70 9q-10 0 -18 -1l-58 -8l-18 2q-53 16 -105 22q-57 25 -75 68q-1 8 -1 15
q0 58 43 100l120 54h16q61 -23 116 -23q13 0 80 25h24q56 -25 64 -25h24q34 0 94 20h13l87 -23q34 0 88 30z" />
    <glyph glyph-name="hyphen" unicode="&#xad;" horiz-adv-x="1149" 
d="M822 814h9l42 -14l44 -6l20 1q61 9 78 9h9q62 -34 87 -92l-1 -23q0 -100 -84 -118q-40 -6 -91 -19h-15l-92 10q-40 -1 -116 -16l-71 12h-20q-10 0 -84 -11h-12l-72 11l-83 -12q-43 9 -70 9q-10 0 -18 -1l-58 -8l-18 2q-53 16 -105 22q-57 25 -75 68q-1 8 -1 15
q0 58 43 100l120 54h16q61 -23 116 -23q13 0 80 25h24q56 -25 64 -25h24q34 0 94 20h13l87 -23q34 0 88 30z" />
    <glyph glyph-name="period" unicode="." horiz-adv-x="663" 
d="M403 -21h-23l-57 9l-42 7q-76 18 -143 106q-22 53 -22 111v5q9 75 78 142q71 49 153 58h13q27 0 109 -39q44 -32 59 -83q8 -41 36 -103q-3 -65 -34 -113q-24 -33 -48 -45q-25 -12 -53 -37z" />
    <glyph glyph-name="slash" unicode="/" horiz-adv-x="1159" 
d="M1052 1586h15q60 0 68 -86q6 0 6 -122q-26 -27 -60 -75q-8 -16 -27 -95l-29 -30l-27 -25q-29 -45 -40 -95l-17 -16l-31 -37l-23 -81q-9 -17 -33 -38q-28 -28 -36 -38l-26 -79l-19 -52q-26 -33 -59 -60l-40 -50l-44 -104l-88 -120l-59 -125q-37 -49 -77 -82
q-32 -58 -40 -132q-64 -55 -110 -182q-37 -32 -129 -72h-29q-51 56 -51 104q0 58 21 104l15 35q4 30 77 98l28 57l11 47q76 73 106 187q80 61 102 139l23 91l50 54q49 68 71 114l13 89l52 65q37 29 47 60l24 83l70 87l11 23q32 81 42 125q44 46 75 105q11 57 87 99
q29 25 80 30z" />
    <glyph glyph-name="zero" unicode="0" horiz-adv-x="1378" 
d="M767 1471l74 -24q72 -36 88 -43t100 -92l31 -81l48 -60l19 -88q17 -33 36 -86l-4 -30q0 -16 34 -66v-48q0 -34 16 -119l-10 -85l3 -93l-23 -65l-13 -134q-30 -40 -38 -142q-37 -61 -62 -95l-35 -74l-52 -28l-43 -56l-70 -32q-31 -19 -55 -30l-84 7l-53 11l-72 -3l-18 5
q-56 44 -66.5 48.5t-32.5 4.5q-31 30 -48 79q-14 9 -60 74l-58 45l-18 71l-28 39l-5 79q-14 38 -31 68l-12 37v68q-14 52 -22 91l13 62l-6 106l23 60q14 46 14 113q0 15 -1 32l42 97l36 111q50 44 79 105q41 28 81 61l43 41l74 21l29 19l59 -4zM682 1186q-32 -2 -59 -18
q-9 -13 -24 -56q-51 -34 -66 -57l-3 -39l-5 -38q-32 -41 -52 -79l-2 -12l3 -40q-16 -30 -16 -58v-48l13 -54l-16 -75l16 -63v-21l-9 -38q0 -31 54 -80l8 -13l18 -75q41 -53 82 -65q9 -44 54 -61q24 -32 66 -39l26 -2q54 35 73 74q17 35 35 80q30 17 44 33q13 28 13 81v8
l31 86l-4 19l-5 14l18 66l-9 57q14 30 14 50q-9 33 -18 73l12 52l-40 72v6q0 87 -61 125q-5 33 -13 53l-25 25q-7 42 -41 74q-20 19 -40 19q-14 0 -28 -9z" />
    <glyph glyph-name="one" unicode="1" horiz-adv-x="883" 
d="M502 1500q32 0 56 -23q39 -43 41 -80q12 -17 27 -105l-13 -125l18 -109v-28l-18 -111l17 -81l-3 -38l-13 -134l17 -72l-21 -85l13 -126q-9 -45 -25 -92l34 -66l1 -27l-17 -75l22 -66l-18 -61v-38q0 -70 -47 -81l-94 -21h-27q-42 0 -91 171l4 51l-17 103l25 39v18l-23 85
l22 153l-28 69l24 149l-21 101q0 7 28 114l-9 87l-1 27l11 61q-3 34 -16 39l-31 -13l-115 -57h-10q-101 4 -101 64q0 6 1 13q0 91 86 169l53 70l62 15l30 33l37 39q101 44 130 44z" />
    <glyph glyph-name="two" unicode="2" horiz-adv-x="1354" 
d="M701 1434q82 -20 127 -24q29 -26 103 -46q38 -41 100 -69q41 -36 59 -93l49 -68q41 -92 41 -218q0 -21 -1 -43l-30 -72l-12 -61q-20 -18 -70 -51l-31 -67l-68 -38l-69 -68l-69 -30l-36 -44l-65 -29l-75 -66l-53 -18q-102 -57 -102 -96q0 -8 5 -16q16 -8 38 -8q23 0 52 8
l18 5l69 -20l14 -8l67 25l24 -3q31 -16 63 -16q34 0 71 18l59 17l52 -12l45 -18l37 -18q39 -8 70 -59q3 -38 17 -96q0 -29 -38 -52q-41 -33 -78 -46l-49 8l-59 -5l-18 -7l-77 -20h-14l-50 27l-81 -10l-82 26l-70 -27h-14l-72 24l-14 3l-84 -30l-104 39h-32q-53 0 -84 183
q13 131 41 178l31 63l59 89l81 43q33 23 51 65l15 24l47 18l58 21q19 24 40 54l77 17l23 36l65 19l33 43l13 7q52 20 58 66l12 62l23 26q10 20 10 38q0 11 -7.5 29.5t-35.5 29.5l-31 16v4q0 35 -31 53l-38 8l-45 29h-80q-54 -12 -76 -48l-12 -9q-59 -11 -93 -44l-36 -49
l-10 -56l-39 -79q-25 -52 -63 -52t-79 85q-16 36 -25 106q2 134 58 191l31 56l71 48l36 36l29 9l58 9l71 28l65 -4q35 15 66 24z" />
    <glyph glyph-name="three" unicode="3" horiz-adv-x="1208" 
d="M571 1526h10q36 -18 75 -32l64 -4l57 -56l59 -15l33 -49l57 -72q7 -47 43 -128q-12 -60 -14 -60l7 -58q-21 -37 -37 -64l-3 -43q-7 -18 -47 -49q-29 -42 -29 -66q0 -7 3 -12q31 -25 78 -66l15 -62l18 -28q19 -30 26 -43l4 -58q0 -5 41 -94q6 -86 21 -137l-7 -76
q-56 -74 -56 -120q-89 -78 -134 -154q-72 -14 -145 -45q-83 -49 -107 -59l-67 3l-55 -2q-15 0 -91 -25q-33 19 -86 19q-19 0 -40 -2q-66 33 -136 55q-79 58 -79 78v8q0 21 51 86l28 23q27 22 79 22q20 0 44 -3q58 -28 101 -28h3l34 4l38 13l91 -18l13 1l49 32q19 1 39 4
q22 0 55 62q42 8 100 76l-3 42l24 61l-17 66q13 23 13 30l-44 52v8l-18 58q-17 29 -42 31q-49 63 -79 63q-5 0 -9 -1l-42 22l-24 8q-25 10 -35 41l-25 70v7q0 39 66 60q60 20 110 48l45 51l32 63l-5 62v-3l-40 48v14l-7 48q-7 8 -23 18.5t-33 16.5l-29 -1l-47 -10l-16 1
l-54 23l-6 1q-46 -8 -59 -13l-46 5l-46 -42l-62 -10q-61 8 -95 39q-37 37 -37 69q0 92 175 150q59 33 96 48l78 -12l38 -2z" />
    <glyph glyph-name="four" unicode="4" horiz-adv-x="1267" 
d="M808 1415q68 -2 83 -85q14 -42 14 -84l-10 -64l14 -48l-4 -30l10 -77l-17 -70l14 -55l-10 -65l15 -61l-17 -53l14 -62l-10 -45l15 -64l-3 -44q5 -29 25 -51l13 -10h2l41 -5h1q10 0 47 13l17 2q32 -18 45 -18l53 4q35 -38 35 -56l-8 -55l-7 -43q-15 -33 -36 -37l-31 -11
l-57 -26l-111 -9l-34 -48q28 -45 28 -68v-2l-16 -50l11 -51l-14 -46l3 -41l-1 -17q-2 -73 -89 -91q-41 -13 -75 -13q-83 114 -83 160v1l16 74l-17 70l10 63l-2 33q-24 55 -68 57h-5l-67 -19q-33 24 -81 33l-96 -26h-10l-59 20l-32 -2l-37 -1h-1q-39 1 -101 78l4 31
q11 58 47 126q18 43 44 78q50 34 54 86q38 22 50 84q56 47 57 79q54 34 61 110q64 71 64 94l-5 22l46 54l30 86l60 45l-3 36l74 100q82 64 100 64zM663 918l-8 -32l-30 -47l-13 -55l-48 -43l-38 -80q-24 -30 -40 -51l-16 -70l-39 -42q-12 -20 -14 -41q5 -10 22 -11
q13 0 35 6l40 -28l39 9l29 -1l29 -9h10l19 15l54 -4l12 19v67q-8 46 -18 84l10 61l-5 49l7 44l-10 73l5 55v6l7 53l-14 3q-10 -15 -25 -30z" />
    <glyph glyph-name="five" unicode="5" horiz-adv-x="1280" 
d="M485 1447l107 -23h23l56 14h14l108 -21h17l80 21h11q80 -16 109 -20q43 -22 55 -52v-19l-25 -93l-3 -16l-43 -52l-11 -2l-89 21h-16l-69 -28l-22 1q-72 16 -76 16l-67 -18h-13l-71 16l-44 10h-43q-31 -31 -32 -43l15 -48l-11 -46q17 -42 19 -49l2 -36l9 -7l58 18l88 -14
q3 -2 11 -2q23 0 84 13l105 -30h18l80 -12l45 -43l37 -23q21 -37 38 -62l41 -55q6 -25 23 -76q14 -57 14 -86l-4 -54l8 -60q-24 -63 -30 -104l-26 -43l-17 -67q-26 -23 -60 -57q-21 -43 -29 -70q-43 -37 -90 -61q-44 -43 -78 -77q-79 -36 -109 -46q-58 -52 -95 -78l-88 -23
q-59 -48 -126 -63l-47 1q-80 25 -109 64q-20 26 -20 50q9 30 41 92l14 11l119 27l86 53q42 0 92 62q45 12 97 43l31 53l80 50q37 40 47 71l58 51l9 48q14 23 14 42q0 15 -8 28q13 30 15 66l-37 44l-18 40q-25 9 -70 13q-31 27 -49 35l-73 15l-69 -27l-44 -9l-79 -29l-71 -45
l-69 3h-32q-41 0 -64 122v15l14 73l-21 104l14 98l-11 103l8 61l-13 75q37 102 154 125h56z" />
    <glyph glyph-name="six" unicode="6" horiz-adv-x="1368" 
d="M1000 1460h10q124 -47 124 -128q-32 -32 -76 -62q-20 -8 -35 -10l-42 3l-68 -45l-12 -4l-70 4q-1 0 -55 -62l-75 -21q-46 -41 -61 -74l-94 -61q-13 -30 -26 -103l-42 -31l-16 -73l2 -8h5q22 0 64 33l16 10l33 -4q17 0 52 27h13l59 -2l47 17h8l33 -20l10 -1q36 4 88 15h13
l34 -30l8 -5l68 -17l11 -40q16 -27 31 -36l48 -20l24 -25q11 -46 26 -100q18 -21 38 -46l-2 -46l28 -71l4 -24q-17 -24 -17 -57q0 -14 3 -30l-23 -57l-4 -102q-45 -67 -67 -104q-44 -22 -76 -63l-17 -37l-70 -22h-3l-36 -27l-70 -6l-94 -14l-37 8q-22 -3 -82 -7
q-48 40 -104 54l-42 37l-76 42l-39 44l-49 36q-19 43 -27 75l-44 63l-8 71l-20 48l5 20v58l-9 36l14 65l-15 66l2 16l19 38l-11 63q0 19 24 93l14 31l-1 2l-4 46q20 32 55 82q4 6 4 44q104 114 104 163q20 26 66 42l42 72l86 20l51 51l52 15l33 39l66 10l46 29l72 15z
M443 488l10 -39v-13l-18 -57l28 -42v-56q0 -13 42 -34l2 -12l8 -49q13 -12 25 -21l69 -14l38 -48l29 -7l76 18h11q36 -13 69 -18q10 0 27 44q27 12 61 24l1 1l35 71l49 47l-6 60q3 3 13 47l-24 53q5 41 5 53v4q-6 31 -55 58q-1 69 -62 69h-2q-42 34 -63 36q-19 -6 -41 -15
h-8q-20 18 -37 18q-8 0 -23.5 -7t-58.5 -7l-37 -39l-60 -13q-14 0 -41 -47l-59 -51z" />
    <glyph glyph-name="seven" unicode="7" horiz-adv-x="1199" 
d="M289 1441l79 -17q39 6 86 21l98 -18l82 14l72 -17l77 15l103 -16l67 6q117 -24 143 -79q10 -25 12 -72q0 -53 -26 -82l-38 -55l-31 -73l-54 -67l-19 -66l-50 -76q-5 -27 -10 -71l-34 -70l-13 -98l-34 -72l-3 -86q-11 -29 -20 -72l5 -87q-18 -43 -29 -79l7 -75l-25 -62
l30 -83q-43 -127 -89 -199q-16 -20 -44 -20h-5q-148 39 -166 103q-11 31 -11 75q0 22 3 47l9 57q0 26 -9 75l29 82l-1 89l23 58l3 68l26 49l10 67q11 30 30 69l3 33l5 44q13 20 27 47q30 55 46 83l5 59q67 105 84 127q19 16 27 51l-1 28q19 20 48 66q24 44 24 55
q0 15 -49 20h-5l-130 -18l-97 18h-5q-55 -17 -87 -18q-32 13 -68 18l-36 1q-37 -12 -51 -31l16 -38v-12l-34 -76l26 -51q-86 -101 -108 -101h-16q-63 0 -92 159l4 67l-12 53l8 54l-4 46q0 54 92 120z" />
    <glyph glyph-name="eight" unicode="8" horiz-adv-x="1458" 
d="M828 1334l77 -15l90 -14l46 -31l38 -34l48 -24l18 -10q34 -72 75 -100v-15q0 -34 7 -72q12 -31 32 -50l-14 -63l7 -56l-40 -56l-25 -49l-60 -35q-17 -12 -32 -39v-5q12 -25 52 -48l50 -29l18 -41l46 -55v-43q25 -39 47 -79q-6 -21 -6 -51q0 -20 3 -45l-32 -85
q-17 -53 -34 -100q-60 -35 -120 -101q-52 -24 -146 -56l-108 -55l-82 3l-29 4l-99 -18l-18 3q-34 34 -87 34q-9 0 -19 -1q-35 42 -104 57q-42 39 -139 89q-23 58 -37 101q-32 53 -50 91l4 40l-12 80q18 30 40 75l16 59l37 23q8 50 63 99q33 1 84 54l-1 20q-19 13 -52 32
l-43 21l-8 10l-10 51l-55 58q9 63 14 66l-17 54v20l40 84q0 53 110 135q35 0 106 64q39 0 139 45l88 -6zM744 1129l-25 5h-10q-117 0 -138 -54q-63 0 -89 -88l8 -33l-1 -64q32 -46 76 -46q49 -46 69 -46q29 -7 53 -7h11q30 -32 52 -35q14 0 67 23h18q58 -1 65 -1h4l12 6
l21 29l40 5l4 -1q12 13 27 69l41 43q0 17 -17 45q9 19 9 35q0 30 -35 45q-25 48 -80 48q-22 25 -78 25q-29 13 -42 13zM633 540h-37l-38 -30q-13 -13 -60 -23q-13 -9 -19 -45l-45 -38q-10 -11 -10 -33q0 -15 5 -37q-3 -16 -3 -29q0 -43 27 -61v-3q0 -42 50 -53l32 -44
q39 -47 94 -47h7l53 -11q0 2 61 16l47 -16q86 0 124 53l17 5l55 14l35 44q31 0 48 43l24 76l-17 57q-12 33 -59 64q-9 33 -26 57l-57 44l-38 13l-52 -3l-66 18l-45 4q-26 0 -107 -35z" />
    <glyph glyph-name="nine" unicode="9" horiz-adv-x="1313" 
d="M542 1436l76 -10l61 -2q25 5 56 5h11l28 -20l68 -9l70 -59l66 -30q27 -64 80 -106q13 -66 51 -141l28 -138l-7 -78l20 -48l-10 -47v-76l-15 -46l-2 -49l5 -60q-28 -71 -28 -131q-47 -72 -59 -146q-66 -60 -91 -135q-102 -60 -149 -139q-28 -16 -73 -24l-69 -77l-66 -11
q-30 -23 -69 -43q-26 -13 -88 -13q-34 0 -79 4q-49 3 -54 99v9q0 88 79 129l69 34l22 6l37 -21l6 9q11 47 38 58h32l52 52h17l36 -4q11 0 21 53l83 44q32 23 44 56l3 27l28 34q26 43 34 108l4 46l-13 10q-36 -7 -120 -69l-14 -3q-18 4 -33 4q-46 0 -77 -32l-19 -4l-71 23
q-66 26 -131 35l-56 49l-74 38l-39 57l-56 53l-9 71l-39 74l4 102l-11 80q16 46 33 91l2 5l5 60q32 26 70 68q30 43 48 76q91 44 142 62zM666 1220l-60 6l-50 -39l-45 -9q-18 0 -30 -52l-64 -34q-20 -35 -20 -79q0 -9 1 -19q-28 -53 -28 -55q8 -53 48 -67l8 -18
q-1 -6 -1 -11q0 -56 55 -81q24 -58 33 -63l56 -2h22l56 -36l26 1q53 27 80 52l64 33q30 37 47 70q18 7 40 25q28 16 29 52q-3 43 -23 75v13l-5 71l-57 56q-7 17 -34 74l-54 -2l-57 49z" />
    <glyph glyph-name="colon" unicode=":" horiz-adv-x="777" 
d="M440 757h-23l-57 9l-42 7q-76 18 -143 106q-22 53 -22 111v5q9 75 78 142q71 49 153 58h13q27 0 109 -39q44 -32 59 -83q8 -41 36 -103q-3 -65 -34 -113q-24 -33 -48 -45q-25 -12 -53 -37zM349 586q125 -4 201 -78l43 -65l6 -29l-4 -68l8 -39q-18 -76 -81 -105
q-35 -32 -112 -43q-12 -1 -22 -1q-58 0 -102.5 19.5t-94.5 99.5q-28 51 -28 70q16 69 21 137l28 26q35 27 54 42q47 34 83 34z" />
    <glyph glyph-name="semicolon" unicode=";" horiz-adv-x="809" 
d="M606 807v-23l-9 -57l-7 -42q-18 -76 -106 -143q-53 -22 -111 -22h-5q-75 9 -142 78q-49 71 -58 153v13q0 27 39 108q32 45 83 60q41 8 103 36q65 -3 113 -34q33 -24 45 -48q12 -25 37 -53zM316 360l27 5l60 -9h26l27 5q133 -46 168 -153l-6 -67v-57l1 -24
q-15 -95 -35.5 -146t-53.5 -78q-18 -69 -102.5 -124t-224.5 -57l-12 13q-5 17 -5 33q0 48 40 96l34 59q47 40 61 80l3 17q-5 31 -44 69l-29 21q-22 29 -41 53t-25 48q-1 10 -1 19q0 19 4 36q5 30 8 53q41 80 120 108z" />
    <glyph glyph-name="semicolon" unicode="&#x37e;" horiz-adv-x="809" 
d="M606 807v-23l-9 -57l-7 -42q-18 -76 -106 -143q-53 -22 -111 -22h-5q-75 9 -142 78q-49 71 -58 153v13q0 27 39 108q32 45 83 60q41 8 103 36q65 -3 113 -34q33 -24 45 -48q12 -25 37 -53zM316 360l27 5l60 -9h26l27 5q133 -46 168 -153l-6 -67v-57l1 -24
q-15 -95 -35.5 -146t-53.5 -78q-18 -69 -102.5 -124t-224.5 -57l-12 13q-5 17 -5 33q0 48 40 96l34 59q47 40 61 80l3 17q-5 31 -44 69l-29 21q-22 29 -41 53t-25 48q-1 10 -1 19q0 19 4 36q5 30 8 53q41 80 120 108z" />
    <glyph glyph-name="less" unicode="&#x3c;" horiz-adv-x="1437" 
d="M453 600l28 -18l63 -18l58 -39q27 -16 85 -30l72 -67l80 -24l100 -71l86 -18l84 -64q110 -33 119 -46q42 -39 63 -76q8 -9 8 -24q0 -45 -29 -78l-48 -40q-29 -16 -68 -16q-14 0 -30 2q-27 7 -95 38l-51 41l-106 42l-21 18l-78 52l-86 24l-77 54l-86 29l-55 46l-51 27
l-71 20l-44 41l-39 23l-84 24q-18 22 -34 45q-31 33 -80 71q-18 23 -27 33q-14 16 -14 33q0 12 6 24q20 25 86 76q38 29 84 79q62 14 90 37.5t48 52.5l97 44l19 15l75 66q90 26 125.5 61.5t80.5 39.5t99 59l68 19l47 58l105 41q53 31 89 31q10 0 34.5 -6.5t25.5 -9.5
q31 -11 61 -58l6 -20q5 -14 5 -33q0 -30 -13 -72q-17 -34 -63 -58q-44 -27 -82 -50l-100 -41q-39 -31 -81 -61q-43 -11 -71 -19q-46 -16 -75 -65q-40 -10 -110 -42q-31 -20 -62 -42q-79 -21 -122 -75q-66 -35 -66 -55v-4q0 -12 22 -26z" />
    <glyph glyph-name="equal" unicode="=" horiz-adv-x="1276" 
d="M1006 1009q97 -36 115 -62l26 -100v-6q0 -57 -87 -76l-50 -30h-19l-93 21h-15l-94 -37q-25 0 -94 30l-6 1l-24 -7q-57 -20 -88 -20q-69 43 -102 43l-88 -35h-16l-96 23l-27 -4q-46 -9 -66 -9q-30 0 -53 77q-11 10 -26 50q0 57 126 113l45 8l99 -5q72 9 141 20l86 -16
l83 18l165 -13q37 10 158 16zM787 607h30q67 -25 85 -25l23 4q45 10 62 25h20q17 0 70 -38q82 -45 82 -85v-34q-11 -87 -52 -95h-65l-40 -6q-78 -25 -107 -25h-7l-69 21l-62 8l-79 -25h-14q-50 17 -94 21q-54 -21 -75 -21h-12l-76 28l-27 -6q-74 -22 -99 -22
q-134 33 -166 81v16q35 160 68 160h20q71 -19 84 -24q32 6 95 42h13q21 0 102 -37q34 2 86 28h27l80 -26q37 0 97 35z" />
    <glyph glyph-name="greater" unicode="&#x3e;" horiz-adv-x="1425" 
d="M968 600q22 14 22 26v4q0 20 -66 55q-43 54 -122 75q-31 22 -62 42q-70 32 -110 42q-29 49 -75 65q-28 8 -71 19q-42 30 -81 61l-100 41q-38 23 -82 50q-46 24 -63 58q-13 42 -13 72q0 19 5 33l6 20q30 47 61 58q1 3 25.5 9.5t34.5 6.5q37 0 89 -31l105 -41l47 -58
l68 -19q54 -55 99 -59t80.5 -39.5t125.5 -61.5l75 -66l19 -15l97 -44q20 -29 48 -52.5t90 -37.5q46 -50 84 -79q66 -51 86 -76q6 -12 6 -24q0 -17 -14 -33q-9 -10 -27 -33q-49 -38 -80 -71q-16 -23 -34 -45l-84 -24l-39 -23l-44 -41l-71 -20l-51 -27l-55 -46l-86 -29
l-77 -54l-86 -24l-78 -52l-21 -18l-106 -42l-51 -41q-68 -31 -95 -38q-16 -2 -30 -2q-39 0 -68 16l-48 40q-29 33 -29 78q0 15 8 24q21 37 63 76q9 13 119 46l84 64l86 18l100 71l80 24l72 67q58 14 85 30l58 39l63 18z" />
    <glyph glyph-name="question" unicode="?" horiz-adv-x="1165" 
d="M685 239q60 -43 79 -115l2 -69q-17 -64 -51 -88q-21 -24 -107 -40q-139 0 -191 99q-5 25 -23 53v18q12 80 78 142q15 16 53 28q40 4 67 4q23 0 44 -5t49 -27zM540 319q-41 28 -70 75l-17 22v17l7 44q-19 45 -19 70l23 58l-8 57l26 110l59 90l87 37l38 31l52 23
q58 26 96 70q6 13 6 24q0 18 -16 29v2q0 37 -38 64q-54 38 -104 47q-20 4 -43 4q-32 0 -68 -8q-14 4 -28 4q-36 0 -74 -25q-53 -34 -68 -67l-1 -15q53 -39 53 -91q0 -69 -53 -123q-32 -33 -88 -41q-155 16 -185 102l-23 46q7 57 7 71q0 5 -1 5l-10 32q33 118 66 132
q30 59 84 81l84 55q75 6 107 36l22 4l62 -5l44 11l38 -7l28 6l13 2l21 -4l37 -12q122 -31 143 -48q20 -28 116 -66l73 -95q39 -94 39 -142q-20 -51 -25 -117q-56 -44 -96 -110l-46 -15l-47 -24q-54 -6 -87 -47q-35 -14 -40 -30v-41q-22 -25 -22 -63v-6l5 -32l-11 -33l-1 -12
l5 -40l-5 -24q-2 -65 -28 -95q-18 -28 -52 -30q-8 -1 -15 -1q-26 0 -52 8z" />
    <glyph glyph-name="at" unicode="@" horiz-adv-x="2045" 
d="M916 573l33 18l29 13l14 5l47 -11l9 2q21 10 36 18q107 7 108 34v11q0 31 -14 73q-14 39 -36 53l-54 30l-32 -7l-13 1l-48 26q-21 -9 -38 -22l-60 4l-18 -14l9 -54l-3 -53q-3 -40 -60 -95q-3 -6 -4 -11q0 -4 4 -6q3 -1 12 -1q19 -2 79 -14zM1139 427q-20 -14 -46 -14h-9
l-46 3q-47 -42 -71 -42h-1l-16 7l-53 -1q-19 -32 -87 -49l-1 -20l-27 -72l-1 -6v-5q0 -44 56 -48l42 -7l39 -15l42 17l107 4q69 31 112 35t44 24t1 36q0 23 -2 40v9q1 7 1 13q0 52 -39 65q-32 17 -45 26zM591 682l-4 80q8 32 78 169q45 14 79 38l39 25l46 -4q27 6 68 43h13
l32 -17l38 -3h6q29 0 45 16l40 -3q78 -5 125 -54q33 -18 81 -27q0 -12 73 -86l51 -112l-1 -18l-12 -63l32 -51l-10 -43q28 -93 36 -107q-10 -39 -11 -42l24 -81l-7 -47l-1 -34q1 -16 1 -27t-1 -16v-5q0 -27 18 -50l38 -19l28 -12q22 0 42 30l12 22l63 52l4 14l-4 35l-3 44
l18 32q11 18 12 33v1q0 16 -26 80q7 24 17 66q2 13 3 23v10l-34 60l9 37l3 50q-33 41 -72 55q-16 77 -87 112q-22 66 -31 75.5t-53 22.5l-11 10q-71 46 -135 51h-16q-28 17 -52 25l-38 17l-72 -9l-38 12l-73 29l-29 -13l-26 -9l-61 3l-75 -22l-40 -29l-55 -6l-31 -3
q-38 -12 -77 -80q-79 -61 -83 -119q0 -10 1 -20l-58 -77l-6 -58l-33 -36q-5 -10 -6 -25v-9q0 -25 8 -61l-27 -63l29 -95l9 -48l-14 -82l64 -81q-1 -9 -1 -18q0 -61 56 -94l17 -65l54 -26l35 -58q39 -2 133 -57l72 -7l47 -35l53 10h59l85 20l32 1l61 -19l41 19l37 14l41 3
l26 8l25 15l64 3l49 5l16 1l14 -1q65 -4 70 -48q-31 -67 -82 -93q-29 -12 -81 -27l-46 -30l-56 1l-55 -18l-44 -17l-30 8l-40 1l-67 -17l-87 -10l-59 29l-80 -11q-34 13 -88 17q-17 1 -37 1l-44 29l-57 46l-20 10l-78 30q-59 46 -88 92q-20 18 -51 89l-101 94
q-21 80 -67 174l4 32l-27 49l-27 50l-3 22l24 77l8 116l32 97l18 114q47 25 52 74l54 62q50 85 77 129q42 33 114 57l39 46l80 36l42 38q36 6 80 6h13q33 -3 73 -9l101 28l48 -16l99 21l26 -1l69 -33l72 -26l103 6q85 -52 116.5 -66t76.5 -64l43 -8l54 -74q18 -30 69 -45
q31 -34 55 -104l18 -47l13 -34l6 -13l39 -43q-5 -32 -5 -38v-8q0 -43 28 -87l21 -60l-11 -35l8 -134q-19 -43 -32 -129q-35 -48 -54 -92l-2 -42q-18 -33 -96 -116q-44 -34 -93 -46l-92 10l-56 -2q-13 -4 -27 -4h-5q-16 2 -32 8q-60 30 -129 44l-42 -10l-32 4l-43 -29l-67 2
l-46 -25l-65 5q-49 -13 -70 -13h-5q-33 16 -41 16l-51 -1l-54 10l-29 34l-33 4q-32 6 -62 31.5t-56 98.5q6 53 8 84l-13 41l22 51q-1 6 -21 41l1 17q22 24 39 47l17 24q9 50 118 124q2 2 2 4q0 14 -79.5 34.5t-81.5 84.5z" />
    <glyph glyph-name="A" unicode="A" horiz-adv-x="1346" 
d="M608 1366l95 -23q41 -27 69 -80l39 -73v-10q-11 -31 -11 -42l43 -69l7 -21l-15 -58q43 -68 43 -87v-40q0 -24 47 -90v-50q0 -9 32 -71v-14l-7 -51q26 -45 41 -89l8 -85l51 -88l6 -94q38 -87 76 -97q68 -26 118 -69l24 -62v-3q-25 -53 -55 -66l-18 -9l-35 -13
q-53 15 -100 17q-40 -10 -79 -27l-82 19l-65 -17l-16 2q-30 8 -56 19q-60 16 -71 65v8q4 37 40 65q34 29 69 65q20 20 22 66l-8 43l3 34q-3 28 -7.5 37t-16 15.5t-48.5 14.5q-4 -1 -44 -18h-18q-20 5 -53 16h-3q-30 -6 -64 -22l-50 4l-39 -20q-17 -33 -32 -93q9 -71 53 -108
l69 -61q23 -19 25 -42q1 -13 1 -24q-4 -41 -57 -63l-15 -2l-68 17q-24 -3 -99 -23h-16l-89 21l-95 -19l-11 2q-77 22 -98 68v9l18 54q19 29 65 59q42 33 62 47l37 76l4 21l6 64l28 63l1 60q0 16 46 73q13 31 13 62q0 20 -5 39q28 45 28 54v40q19 53 30 96l-1 53l4 16
q56 77 56 111l-4 25q25 49 54 79l6 10l-8 81q29 67 51 120l14 27q22 55 55 56zM612 876l9 -35l-21 -56l-2 -66v-16l-30 -64l-20 -52q0 -24 20 -40q11 -2 21 -2q19 0 36 8l10 -1q18 -17 49 -17h6q58 0 62 43l-12 34l4 31v20q-30 102 -53 136l9 45q-38 41 -38 62l6 40l-11 2
q-45 -56 -45 -72z" />
    <glyph glyph-name="B" unicode="B" horiz-adv-x="1591" 
d="M906 1363h20q64 -22 126 -39q78 -61 149 -100q31 -50 88 -130q-2 -10 -2 -20q0 -36 19 -78l-12 -55l9 -70q-11 -50 -32 -111l-1 -38l20 -40q35 -54 68 -94q11 -67 42 -124l-3 -56l6 -78l7 -52q-32 -72 -42 -162q-46 -48 -65 -100q-54 -31 -76 -65l-43 -4l-35 -2l-81 -27
h-9l-69 4l-84 -23l-26 1l-103 17l-93 -15l-20 1l-95 22l-94 -17l-28 6l-44 20q-43 -6 -93 -17q-70 14 -120 26l-31 33l1 30l-15 76q13 45 70 69q18 5 52 22l33 24q17 25 28 91v35l-9 35l19 87l-20 73l15 64l-15 70l16 67l-15 82l6 38l11 61l-16 84q4 59 8 83q-21 35 -62 63
q-103 65 -103 114q20 32 44 69q40 42 86 42h23l49 -3l59 -1q54 9 80 19h4l60 -23l32 8l48 -2l66 21h16q62 -28 124 -30zM865 1096h-20q-58 -22 -69 -22l-47 20q-14 -1 -63 -11h-11l-50 7l-25 -13l-20 -11q-30 -43 -30 -50t22 -52l6 -21l-10 -61l11 -47l26 -24l34 -2l29 -29
l3 -1l38 9l11 2l34 -10q18 4 56 21q43 -23 48 -25h1q1 0 42 26h12q45 -19 52 -19q83 38 88 38l36 54l-12 54q15 28 23 62l-27 35q-14 38 -70 57h-46zM874 521l-42 15q-10 0 -81 -11q-15 11 -76 16l-72 -22l-27 -32q-14 -31 -14 -35l6 -76l-13 -55v-3l14 -58l-9 -61
q9 -56 103 -70h3l50 9q32 16 41 17q43 -8 91 -14h2l74 23h12q32 -6 53 -6q13 0 29 3t32 25l10 7q72 13 83 84l-5 41q26 25 27 54q-3 52 -34 76q-17 65 -79 76l-34 -3l-22 -2q-21 13 -55 25l-11 -2z" />
    <glyph glyph-name="C" unicode="C" horiz-adv-x="1440" 
d="M713 1380l59 -21l54 8q101 -56 131 -56q21 23 152 39h13q80 -30 80 -86l-4 -95v-43l-23 -61l7 -44l-4 -50q22 -65 58 -126q-43 -136 -114 -136q-42 17 -101 64q-26 28 -46 75l-2 45l-47 85l-6 47q0 40 -62 47q-41 50 -87 50q-36 12 -52 15q-14 -5 -51 -18l-19 -4
q-35 3 -52 3q-21 0 -60 -46q-65 -40 -71 -78q-9 -34 -9 -61l-49 -58q6 -20 7 -66v-11q-23 -52 -23 -57l14 -74v-20q-17 -40 -26 -83q0 -7 46 -51v-15l-12 -62l43 -48l16 -55q5 -24 53 -53q9 -8 21 -28.5t33 -42.5l66 -13l61 -36l34 3q28 5 47 22l12 2l63 -3q48 13 77 78
q42 20 56 102q30 37 62 69q45 57 112 57l29 -43q40 -64 40 -98q0 -10 -3 -17q6 -26 6 -51q0 -44 -20 -82q-34 -37 -43 -91l-53 -36q-18 -29 -30 -50l-60 -32l-39 -50q-32 0 -76 -16l-48 -25h-20q-78 9 -82 9l-21 -3l-78 -11q-33 8 -63 32l-91 6l-56 51l-70 41q-20 40 -44 67
q-43 60 -62 68l-6 15l-19 65l-49 91q-6 85 -26 148l4 68q-20 37 -28 53l16 69l-9 38l20 70l-1 83v15l37 63q3 31 3 68q29 39 45 59l6 51l6 9q21 21 58 44q25 30 56 68q27 0 90 71q47 0 114 51h24l33 -3z" />
    <glyph glyph-name="D" unicode="D" horiz-adv-x="1508" 
d="M428 1347l88 -22l26 3l89 22l57 -22h22l75 23l53 -27h6l73 8q24 -6 73 -48l48 -3l35 -60q43 -29 86 -73q2 0 17 -65q20 -41 66 -68q11 -67 50 -144l14 -27l-5 -66q8 -37 32 -125l4 -118l-19 -67l-3 -74l-42 -61l-10 -77l-6 -24q-55 -49 -70 -62l-20 -87l-68 -50l-34 -65
l-85 -51l-92 6q-48 -32 -83 -32q-73 25 -100 25l-75 -33l-112 33h-21l-70 -18h-14l-58 22q-29 -6 -67 -11q-26 5 -87 17q-38 22 -62 46q-30 66 -30 109q19 38 77 55q0 2 30 9t67 49l58 4l22 13q30 19 30 81v14l-8 33l17 92l-16 65q9 19 9 42v5l-11 81l16 56l-16 72
q13 72 13 88q0 17 -9 84l2 19q8 42 12 77l-8 32l-21 49l-57 39l-52 1l-28 9q-69 24 -69 75q33 64 99 99l42 8l32 -4q64 19 88 19zM660 1107l-33 -78l12 -54l-23 -42q12 -83 37 -121l-29 -60l11 -45l19 -50l-11 -48l-12 -65q15 -64 25 -105q-19 -83 -21 -107l12 -48l-16 -49
v-2l80 -38l55 -11q5 0 42 32h25q62 -3 69 -3q45 27 62 50l16 64l43 21l3 7l6 57q31 45 31 55l6 55l32 96v8l-12 58l11 53l-34 63l4 51q-7 48 -28 72l-21 28l-14 45q0 25 -36 65l-49 23l-55 36h-7q-45 0 -118 -24h-23z" />
    <glyph glyph-name="E" unicode="E" horiz-adv-x="1562" 
d="M920 1334l88 -27h20l97 16q47 -27 106 -45l32 -42v-17l-7 -29l46 -113l-2 -45l25 -102l-18 -80l8 -26q0 -19 -40 -84q-30 -39 -68 -39q-28 0 -41 37l-18 69q-19 55 -65 108v22q28 31 28 40v4q-12 28 -28 56q0 24 5.5 39t5.5 21q0 17 -28 33q-16 3 -25 7h-9q-41 0 -89 -28
h-19q-37 11 -75 16h-6q-40 0 -87 -25q-21 0 -107 17h-6q-36 0 -44 -8v-20q0 -26 20 -53l-12 -53q0 -41 32 -71v-33q-20 -39 -20 -46q2 -9 36 -34l1 -20l-11 -50l20 -12h1l57 33l36 -4q13 6 25 23.5t17 59.5q35 52 58 95l49 37q59 0 59 -75q28 -53 28 -83l-7 -37l19 -71
l-4 -46l-14 -76l18 -43l7 -41q-12 -129 -79 -200h-14q-43 0 -72 34l-55 56l-4 73l-24 69v1l-10 5l-17 -2l-44 3l-44 -47q-20 -11 -28 -31l4 -36l-15 -41q0 -24 31 -64v-20l-23 -32l36 -29l11 -11l-13 -50l21 -22l45 10l33 -3q43 13 59 30h8q23 0 54 -33l62 24l76 -34l41 -4
q30 31 30 62q0 12 -6 57l10 39l-8 55q0 19 53 66l35 54l8 57l24 24q40 0 80 -48q33 -37 60 -131l-12 -72l12 -51v-9l-24 -69l7 -48l4 -25l-19 -71l8 -42q0 -32 -78 -82h-12l-58 12l-40 -8l-30 7l-64 -28l-110 24l-110 -27h-17q-76 24 -97 24h-9l-82 -26l-55 34h-47l-68 -24
h-11l-51 20l-34 -4l-45 8h-5l-36 -4q-18 0 -71 32q-60 0 -74 36v13q15 139 100 139h5l58 -4l60 27l47 23l23 37l1 51l14 54l-16 79l13 48l-13 71l15 62l-12 44l17 66l-12 43l20 62l-21 79q17 39 17 64l-27 43q11 29 22 72q0 4 -9.5 20t-37.5 29q-10 1 -19 1q-27 0 -43 -11
l-59 36l-46 -4q-28 11 -49 42v31q72 123 172 123l56 -20l22 -1l93 30l143 -29q7 0 65 28h20q46 -36 100 -36l65 39z" />
    <glyph glyph-name="F" unicode="F" horiz-adv-x="1451" 
d="M1017 1350h9q60 -25 161 -45q79 -36 108 -112q-1 -35 -7 -72q1 -92 22 -175l16 -54q-21 -142 -104 -142h-4q-54 34 -92 79q-41 37 -41 53v6l11 61l-30 41v15l7 74q-17 22 -34 31h-10l-31 -5l-52 -22l-61 19l-47 -10l-55 18q-4 0 -44 -22h-21q-41 19 -69 21
q-51 -14 -51 -31q28 -32 29 -58q-16 -22 -20 -33l13 -52q-9 -26 -19 -57l-8 -33l31 -63l17 -16l19 -15l40 17l55 -21l23 23v74l28 46l-23 51v3q0 26 39 26h11q157 -19 170 -85l-23 -49l26 -58v-8l-16 -72l18 -70l1 -25l-12 -70q-2 -18 -2 -35q0 -41 13 -76q-29 -25 -29 -69
q0 -26 10 -58v-5q0 -19 -23 -19q-19 0 -53 12l-47 17q-40 18 -72 63l-22 58l4 20l18 36q-26 53 -30 53l-37 -6l-12 -2l-41 24q-40 -15 -40 -20l32 -32v-26l-32 -52v-4q20 -29 20 -54v-9q-2 -19 -34 -42l-1 -8l27 -39v-31l-23 -42q4 -12 49 -45h1l52 15l10 -2q35 -20 55 -20
q13 0 19 9l44 32q5 0 10 -2q53 -71 53 -115q0 -9 -2 -16l-4 -32q-20 -79 -59 -88q-3 -5 -48 -20l-83 9q-8 -3 -50 -14q-3 -4 -13 -4q-22 0 -73 18q-55 -9 -76 -19l-66 29q-53 0 -123 -29l-73 25q-100 11 -100 76l3 28q-15 33 -15 57q0 12 3 21q20 46 51 57l94 -23l25 -2
q10 0 66 41q17 10 17 16l-7 45v23l19 41l-12 42l21 68l-21 72l15 50l-15 45v11q0 19 20 50v7l-20 64l6 49l-14 48v20l11 46l-16 61l16 48l-27 63l8 45q-13 23 -48 50l-59 5q-35 33 -105 39l-21 88q30 57 78 57l59 -4l44 4l31 -4l47 12h13q59 -20 89 -20q37 0 104 28h11
l103 -27q53 27 74 27h22l62 -12z" />
    <glyph glyph-name="G" unicode="G" horiz-adv-x="1524" 
d="M737 1384q74 -10 141 -50h8l48 12h17l48 -40h2l124 44q69 0 74 -110l-2 -34l-14 -72l15 -97l-11 -75q22 -76 25 -131q0 -46 -87 -65l-24 -1h-4q-26 0 -65.5 54t-61.5 99q-8 91 -50 118q-28 19 -64 19q-6 0 -13 -1q-22 51 -47 59l-12 11l-23 10l-43 10h-2q-32 -3 -53 -27
l-56 -2l-37 -74q-41 -18 -57 -61l-17 -80q-41 -31 -48 -65l4 -69l-27 -23q-18 -33 -25 -65l17 -62l-9 -67q0 -35 43 -73l10 -20l15 -71l37 -45l-5 -47q0 -37 75 -66l62 -61l21 -5l45 11q36 -15 98 -30q55 19 79 58q73 14 116 84l-8 44v13l24 32v1q0 6 -21 45l-28 25l-32 -7
l-38 21h-11l-42 -8q-14 16 -36 106q0 62 80 86q29 11 89 28l77 -27l74 31q29 0 102 -36l34 -4l52 24q60 -1 88 -123v-9q0 -44 -45 -77l-50 -19l-36 12l-33 -18l-8 -41v-2q24 -33 24 -52q-3 -25 -21 -50l25 -61v-11l-22 -74l14 -21v-19q-29 -51 -37 -99q-33 -64 -67 -64
q-25 0 -81 4q-23 0 -35 29q-12 27 -23 27h-2q-34 -33 -130 -85q-79 -27 -116 -27q-47 23 -66 32h-32q-111 34 -151 47q-39 56 -108 85q-33 52 -111 96q-18 66 -33 107q-4 23 -47 71q-2 40 -28 139v17l-35 52q13 24 22 124l-4 27l15 59l-7 30v21l16 59l8 86q4 30 60 113
l32 89l60 54q33 57 33 59q0 6 20 25l69 37l33 27l32 21l54 -8q39 19 107 19v1z" />
    <glyph glyph-name="H" unicode="H" horiz-adv-x="1543" 
d="M360 1337l84 -17h18q30 0 91 16q43 -16 124 -53q51 -36 62 -59q-53 -92 -152 -127q-56 -13 -56 -51q0 -7 2 -14l-18 -59l14 -43l-12 -65l7 -44l5 -42q18 -31 56 -31l54 -20l20 -1l55 19l21 1l64 -19l73 22l73 -12q47 16 48 72l-15 64l17 52l-14 54l1 67q0 44 -76 56
q-79 26 -112 84v17q0 58 106 102l49 23h18q31 -8 57 -8q38 0 68 17l20 -3q30 -24 74 -24q27 0 59 9q45 -11 76 -41q32 -23 61 -56q-28 -59 -65 -85l-38 -23l-52 -34l-15 -11l-2 -37l-15 -45l15 -45v-14l-19 -53l21 -62q-18 -33 -18 -50l16 -44v-16q0 -21 -15 -54l15 -60
l-4 -72l9 -38l-16 -63l20 -59l-9 -53l12 -57l-11 -58q21 -54 31 -58l71 -31q79 -34 81 -84q0 -36 -30 -70q-49 -55 -97 -55l-41 19q-44 -31 -83 -31l-54 25l-36 12l-64 -21h-15q-16 0 -70 36h-36q-46 30 -46 88q21 40 81 60q38 21 94 53l5 18v27l-4 27l7 27l-15 57v18l11 38
l-11 53v9l13 65q-18 53 -43 54l-27 2l-92 -32l-85 26l-82 -22l-12 2l-55 22h-7q-44 0 -56 -33l-5 -26l5 -31l8 -46l-17 -70q-2 -5 -2 -12q0 -21 16 -58q-7 -25 -19 -80q12 -37 65 -68l43 -29q19 -18 49 -50l23 -38q-5 -55 -47 -62l-36 -11l-32 -10q-34 20 -57 20h-4l-60 -24
h-19l-55 20l-50 -17l-61 21l-50 -8q-53 21 -61 71q-3 15 -3 29q0 49 44 73l83 43q15 22 28 58l-12 48v9l15 46l-15 56v18l11 41l-20 63l9 35v16l-8 32v14q0 24 24 58v7l-16 56v25l12 47l-8 64l8 37v7l-17 58l13 59l-12 53l4 38q0 10 -11 14l-53 22l-48 25q-52 28 -52 70
q0 65 79 108h37q23 0 90 25z" />
    <glyph glyph-name="I" unicode="I" horiz-adv-x="1303" 
d="M274 1368q91 -24 138 -28q19 0 80 28h12l68 -32q28 0 120 36h11q63 -20 137 -20l68 11l51 -19q27 -5 77 -11l61 11q64 0 83 -167q0 -24 -59 -63l-73 -29l-80 19l-58 -17q-21 3 -37 3q-25 0 -38 -7l-60 -40q-19 -17 -19 -28l16 -60v-9l-12 -58l8 -52l-7 -50l20 -56l-9 -47
l4 -76l-8 -41l15 -96l-15 -54q5 -41 32 -68l-16 -35q-12 -23 -12 -48l13 -25l17 -39l37 -41l47 12q33 -29 64 -29q25 0 49 19h19l73 -40q80 -32 80 -77v-24l-3 -21q-8 -59 -76 -104h-16q-23 0 -80 2l-24 -2q-7 0 -71 -26h-14q-33 4 -101 38h-6q-7 0 -79 -30h-17l-75 19
l-1 -1h-13l-28 -2q-4 0 -61 -16h-18l-79 22h-27q-11 0 -78 -26h-27l-64 38q-69 35 -77 79l4 49v2q0 31 36 63l33 21l27 11l40 25l107 -23h2q22 0 64 27q10 -5 18 -5q25 0 57 57l12 52l-9 56l21 54q0 9 -24 41v22l15 54l-11 49v20l11 45q-15 38 -15 67l11 46l-15 57
q0 23 20 53v11q-12 15 -12 43v7l15 57l-11 41v29l8 44v4q-23 34 -64 34h-12q-4 0 -58 -25h-19l-55 19l-5 1l-60 -9q-47 6 -122 102l-5 62q13 44 65 74q35 40 69 40z" />
    <glyph glyph-name="J" unicode="J" horiz-adv-x="1429" 
d="M1053 1358q80 -18 114 -22l64 11q97 -63 97 -111q4 -16 4 -31q0 -54 -51 -88l-64 -27h-27l-51 7q-33 -13 -62 -60l-9 -25q0 -10 18 -57v-15q-10 -70 -13 -84l-1 -6q0 -5 12 -80l1 -11l-23 -64l27 -82l1 -17l-10 -73l1 -73q-10 -46 -10 -73q0 -6 15 -91q-22 -33 -22 -77
q0 -19 4 -41l-6 -17l-41 -62l-20 -62q-45 -17 -79 -32l-41 -46l-76 -11q-58 -27 -104 -59l-99 11l-102 -10h-12q-44 23 -76 48l-68 4l-23 39q-25 25 -79 40q-38 84 -73 96l7 35q0 3 -48 76q0 42 -25 113q-12 60 -12 107q0 178 165 187q12 1 24 1q143 0 184 -171v-11
q-4 -47 -20 -74q-25 -30 -54 -47q-23 -14 -23 -45q0 -9 2 -20q1 -55 60 -74q23 -47 59 -53l63 21h21l59 -20h16q0 5 21 49l13 8l58 -2q5 0 5 30q0 11 -1 24q57 33 57 56l-16 74l2 18l27 53l2 19l-13 59v22q15 38 21 62l-16 107v8l19 96l1 14l-17 116l-2 11l16 66v25
q-3 45 -67 66q-50 -11 -91 -11q-25 0 -47 4l-35 26l-20 43q-6 34 -6 72q10 61 126 95l34 -8l37 -3l86 14l32 12q49 -16 73 -22q17 -4 31 -4q5 0 16 2t60 25z" />
    <glyph glyph-name="K" unicode="K" horiz-adv-x="1582" 
d="M1323 1350q68 -43 105 -84l20 -32q0 -57 -28 -127l-19 -1l-40 31l-45 -19h-14l-36 14h-1q-30 0 -53 -42q-57 -27 -86 -75q-109 -53 -110 -65l-7 -40l-62 -40q-7 -6 -29 -74l-13 -14l-46 -33q-46 -31 -52 -54v-6q0 -31 35 -50l6 -8q11 -56 45 -87q35 -30 57 -38l8 -13
q4 -46 29 -73l47 -18l19 -53l2 -2l73 -55l16 -15v-45q7 -31 59 -70q28 -28 74 -46l8 -2l31 4q32 -14 61 -15l33 18l15 -5q21 -43 23 -99v-35q-12 -39 -71 -73q-57 -27 -89 -27l-70 28l-20 1l-101 -33h-23l-55 34l-17 -2q-67 -19 -91 -19q-4 0 -7 1q-42 25 -56 143
q10 41 46 56l34 -8q12 9 12 35q0 25 -15 62q-37 23 -61 42l-12 52l-6 9q-8 0 -55 19q-2 25 -41 86q-32 17 -71 34q-21 60 -75 72v-1q-18 -4 -48 -56v-8l13 -47l-21 -67v-11l8 -41l-8 -61q11 -58 26 -79q8 -10 26 -10q19 0 48 10q23 0 51 -20q57 -36 57 -79v-1
q-7 -63 -33 -102l-23 -28l-15 -4l-60 15l-16 2l-52 -10l-18 2l-57 20h-11l-97 -20l-19 -3l-71 24l-28 -10l-37 -9q-67 6 -67 73q14 37 26 60t63 50q74 16 96 42q14 16 14 43q0 17 -6 39l18 45l-20 63l23 51l-26 60v24q24 26 24 36l-26 61q22 45 22 61l-12 48v6q0 28 15 55
l-11 55v8l8 48q0 14 -25 69l16 50l-16 60l8 44q-11 32 -55 59q-60 16 -139 90l-5 32q0 37 48 69q66 41 108 41q30 -29 51 -39l79 29h15l33 -14l79 16h19l54 -23l50 19h21q35 -18 35 -52v-23l-7 -39q-12 -63 -91 -97q-83 -46 -86 -69q2 -16 12 -41v-11l-22 -46l25 -60
l-14 -62l-6 -37q18 -55 38 -55q67 41 67 106q20 29 65 46q44 87 50 105q46 6 59 35t26 56q52 28 54 52v2q0 22 -50 31l-19 38q11 45 36 71q30 24 81 39l43 17l35 -14l125 21l37 -13q9 -1 17 -1q44 0 90 21h22z" />
    <glyph glyph-name="L" unicode="L" horiz-adv-x="1516" 
d="M739 1371l55 -15l30 -10q80 -14 86 -89q-18 -131 -34 -158l-38 -19l-70 35l-54 6l-57 -60l11 -33l-27 -53l17 -27l4 -19q-11 -32 -20 -55v-12q0 -7 34 -67l-20 -48l30 -52l-29 -69q24 -38 33 -63l-34 -50l44 -46l-1 -16q-23 -33 -23 -53q9 -19 28 -34v-14
q-18 -33 -34 -60l31 -39l9 -9l-24 -70l12 -6q44 2 56 12h14l54 -20l15 -1h2q18 0 70 14l65 -20l35 10l17 -2q54 -11 63 -11q15 3 29 34q4 9 4 20q0 27 -23 67l2 17q25 27 25 59q0 25 -16 54q13 41 29 83q19 50 58 103l33 33q45 0 120 -97q23 -65 23 -135q0 -10 -1 -21v-12
q-23 -39 -33 -102l17 -64v-24q-10 -23 -15 -67l11 -69q-41 -95 -126 -119q-78 -14 -97 -16q-55 22 -63 22q-58 0 -129 -25l-22 1l-81 18l-20 2l-65 -19l-9 -1l-84 24l-18 -5l-81 -27h-33l-97 28h-13l-79 -21l-100 15q-65 14 -65 119q21 139 81 139l51 -19l32 10l18 -1l35 -8
q47 25 47 36q-16 24 -16 55l29 54q-25 38 -25 57v6l12 48v8q-20 28 -20 62l19 49l-12 47l13 57l-25 71l20 59q-19 40 -19 66l20 43l-12 48v19l16 52v2l-32 40v17l9 38q-65 52 -73 52h-36q-14 0 -71 -32h-21q-51 0 -56 141q1 50 50 92l9 4q34 15 94 31h15q19 0 69 -14
q19 -6 40 -6q36 0 97 19h19l84 -19q27 6 91 21z" />
    <glyph glyph-name="M" unicode="M" horiz-adv-x="1711" 
d="M322 1316h18l85 -16q40 2 88 20h39l61 -36q27 -14 79 -31l1 -18l-26 -59q53 -46 53 -68l-6 -61l48 -47v-20l-11 -48l3 -17q22 -35 31 -61l-15 -40v-20q20 -32 48 -53v-14l-16 -47l25 -30l21 -27v-11l-41 -68v-2l31 -57v-26l7 -93l20 -2q1 6 1 16q0 20 -4 54q13 35 30 53
l1 3l-27 52q35 49 65 114v9l-19 62q30 35 30 62q0 15 -9 27l37 51l-18 75l29 53q0 5 -17 40l-12 13v26q38 28 38 51q0 14 -22 56l25 55q29 44 91 70l125 -24l84 30l62 -19l42 7h20q129 -35 131 -118q-11 -33 -37 -53l-50 -13l-24 -34l-45 -23l-5 -32v-23l-25 -53l8 -54
l-4 -63l13 -55l-17 -58v-2l12 -40v-13l-12 -48v-8q21 -33 21 -65l-17 -60v-4l14 -58q5 -46 20 -93l-13 -114q0 -24 29 -90q1 -2 66 -39q87 -74 87 -107t-71 -54q-46 -23 -78 -38h-19l-83 13l-64 -23h-35q-51 21 -131 42q-44 29 -63 60q-35 -13 -54 -32q-52 -52 -138 -52h-10
q-34 16 -54 48q-31 50 -41 90q-10 50 -51 84l-7 16q5 31 5 54q0 52 -28 62v28l2 90l-32 58l16 59l-20 49l-23 39l9 74l3 11q-21 17 -53 54l9 21q25 33 29 33q-35 33 -42 65l-11 -2l14 -62l-38 -67v-1q27 -38 27 -112l14 -46l-17 -80l12 -39l-5 -38l9 -76l-9 -63l13 -43
l-4 -59v-3q0 -41 82 -58l89 -99q-3 -31 -23 -56q-110 -42 -171 -61q-33 18 -63 25l-28 -4l-52 -23h-28q-40 32 -50 32l-37 -4q-11 -2 -22 -2q-75 0 -94 111v23q45 39 109 68l42 30q13 10 14 41l-11 61q31 65 31 69l-20 56v18l15 46l-12 51l13 47v2l-21 72l21 57l-13 58
l15 58q-20 32 -29 59l21 64q-12 30 -19 55l25 53l-33 26v40q-17 29 -90 55q-56 52 -56 72v28q5 38 88 82zM1155 888l-29 -56q8 -13 8 -38v-5q0 -34 -23 -56q1 -14 1 -36q0 -15 5 -33q-30 -29 -30 -63q0 -13 4 -26l-1 -26l-25 -39l15 -96q-25 -34 -31 -58l-6 -40v-10l8 -32
v-18l-30 -42l17 -57l-37 -70l20 -60h1q18 0 69 48l45 21q25 7 25 45q0 9 -1 20q18 31 20 48v1q-29 39 -29 68l29 44v6l-17 44q0 29 36 63l1 4q-2 0 -49 35v34q37 41 37 43l-25 48v9q0 23 25 51v5q0 11 -37 52v27l12 40v7q-1 21 -17 52l25 40z" />
    <glyph glyph-name="N" unicode="N" horiz-adv-x="1488" 
d="M519 1330q36 -30 82 -56q43 -19 43 -48q0 -3 -1 -7l-6 -45q8 -37 76 -117v-12l-4 -36q0 -5 40 -32l12 -68l19 -19l23 -27v-6q0 -18 5 -54l29 -38v-47q38 -47 69 -72l-5 -54l41 -57q4 -68 52 -120q7 0 7 12t-8 38l-15 45v21q15 52 15 64q-24 32 -24 63l20 48l-17 45v28
l23 41v3q0 24 -30 51v18l28 42q-44 45 -44 77l20 39q-16 37 -59 52q-43 23 -80 55q-15 17 -71 17l-16 47q28 40 64 68q59 39 77 41h8l48 -6l55 -9q33 15 75 24l65 -26l71 9l56 -24l47 4q53 -31 53 -92v-19q0 -24 -86 -72l-46 -33l-20 -29q-18 -20 -18 -50q0 -7 1 -14l-8 -40
l8 -64l-12 -48l-6 -40l14 -60l-12 -81l21 -85l-17 -75v-24q16 -26 16 -49l-14 -76v-9l17 -93l-15 -111l8 -61q-38 -147 -94 -172q-95 23 -142 77q0 18 -25 61q-25 28 -59 39l-10 16l-10 79q-31 29 -50 49l-6 79l-23 18l-38 29l6 61l-44 61q2 17 2 31q0 20 -4 35
q-37 40 -59 59v55l-4 33q-3 3 -28 19l-31 32v23l9 50q-43 39 -43 62q0 3 1 6l4 28q0 3 -2 3q-17 0 -25 -35l15 -46v-9l-12 -65l18 -64q-22 -36 -22 -41l21 -55l-16 -57l16 -60l-20 -67l15 -42l-4 -74l9 -51l-12 -55q15 -45 24 -49l43 -18q27 -4 73 -44q59 -36 59 -81
q-20 -38 -50 -60q-38 -32 -97 -39l-44 15l-77 -13l-23 2l-49 18l-91 -22q-73 8 -122 105v19q2 32 92 87q45 13 51 46l6 57l-10 59l8 59l-16 64l16 80l-16 61l20 59l-8 53l15 58l-15 46l12 60l-12 65l11 44q-23 52 -23 73l12 71v8q0 20 -29 47l-40 23q-45 13 -89 49v33
q9 25 45 62q51 41 91 41l95 -12q3 -1 9 -1q26 0 95 16h27z" />
    <glyph glyph-name="O" unicode="O" horiz-adv-x="1467" 
d="M836 1374l25 -3q26 -34 59 -34q41 0 84 -55l80 -43l38 -71l48 -58q27 -81 38 -136q48 -94 58 -139l-4 -58l10 -26q8 -37 28 -127l-27 -66l-1 -15l10 -62l-4 -20l-19 -55l-3 -44v-13q-35 -49 -71 -100l-20 -83q-60 -46 -96 -142l-81 -43l-27 -31l-105 -24
q-91 -29 -150 -33h-23q-72 27 -75 27l-82 9q-22 0 -66 50l-12 11l-53 26q-17 10 -56 92l-51 50q-16 63 -37 87l-33 37l-6 48l-6 41l-4 40q-21 56 -31 79l5 74l-16 47l21 52q2 4 2 9q0 19 -24 57l26 64l-1 80l10 25l35 43q17 36 20 101l10 23q50 48 59 90q29 20 48 79
q24 28 78 43q35 60 112 60l48 30l16 4q46 -13 50 -13l57 15l51 -8h7zM725 1115l-17 2l-54 8q-51 -8 -74 -31l-25 -25q-72 -25 -72 -73l-14 -54l-7 -15l-36 -48l11 -28v-21q-15 -21 -35 -47q-18 -38 -18 -77l11 -35v-19l-17 -44l31 -52l2 -10l-8 -31q0 -73 51 -101l4 -8v-18
q0 -22 13 -44q26 -32 26 -60v-5l3 -22l5 -3l46 -13q28 -42 45 -78q19 -34 68 -34q5 0 56 20q24 0 72 -16h2q12 0 30 27l18 6h9q61 0 107 79l1 6l3 38q22 29 52 64q12 16 22 56v43q0 22 27 65q0 3 -16 28v21l20 51q0 9 -20 37v21l16 48q-8 21 -20 55q-21 39 -34 57l8 43v8
l-42 38l-6 22l-9 44v2q-7 31 -34 49l-40 20l-11 28q-42 29 -85 39z" />
    <glyph glyph-name="P" unicode="P" horiz-adv-x="1448" 
d="M756 1368l51 -39l21 3l87 19l27 -3q46 -44 54 -44l61 9q114 -46 138 -103l42 -41q57 -72 59 -125l-8 -36v-3l37 -70v-22l-26 -47l15 -74q-35 -58 -35 -124v-7q-87 -44 -150 -133q-91 -4 -146 -41h-23q-17 0 -68 15l-18 6l-31 -7q-12 0 -63 -33h-23q-58 24 -68 24h-36
q-24 0 -55 -49l7 -60l-11 -42l19 -49v-18l-12 -54q10 -52 40 -69q34 -13 85 -26l54 11q75 -22 113 -110l5 -49q-68 -40 -161 -72h-20l-51 22l-75 -15h-24l-72 24l-21 2l-83 -21q-32 24 -59 32q-45 -13 -67 -23h-20q-67 31 -92 48q-36 31 -36 75q32 39 50 64q52 45 94 45
l76 -22q62 0 68 51l-4 21l15 67l-20 57l20 59q-19 40 -19 63l12 52q0 6 -20 36v26l27 58l-11 54l8 42v18l-17 43l20 65l-20 64l20 57l-15 52q-6 51 -77 76l-37 39l-57 4l-40 35l-22 13q-13 29 -13 54q0 10 2 19q44 46 114 71l52 32h37l78 -28l92 28l20 -2l80 -31l18 3
q69 34 108 34zM712 1140l-42 -46q-57 -2 -70 -64l21 -54v-19l-20 -58l16 -52v-19q-28 -32 -28 -39l31 -57l23 -33q57 -23 63 -23l40 12h17l45 -10l30 22h19l45 -11l26 17l14 1l55 1q99 59 102 101l2 62l20 42q-15 24 -22 49l20 27l-26 19l-28 50q-35 49 -102 66h-10
q-13 1 -26 1q-40 0 -67 -8h-10q-29 6 -68 19z" />
    <glyph glyph-name="Q" unicode="Q" horiz-adv-x="1505" 
d="M781 1341q44 -24 97 -24h4q38 -5 75 -50l56 -19l26 -47q51 -47 78 -62l-5 -36q0 -56 53 -87l26 -24l-1 -51l3 -31q21 -32 43 -47v-9q-15 -37 -23 -72q1 -12 55 -79v-30l-19 -58l12 -49l-21 -46l3 -100l-31 -99v-53l-56 -56l-39 -65l4 -49q-38 -30 -75 -55
q-35 -33 -35 -54q0 -3 1 -7q5 -18 33 -34q26 2 38.5 7.5t50.5 39.5l36 31q48 38 102 38h2q54 0 78 -58q17 -43 17 -91q0 -19 -3 -38q-10 -54 -34 -103q-54 -91 -175 -113q-23 11 -35 11l-61 -3l-48 33l-59 -4l-13 7q-7 14 -22 39l-19 12l-37 8q-17 0 -53 85q-17 36 -99 40
q-16 19 -82 23l-44 -5l-14 5l-42 40l-65 13l-10 5q-29 41 -62 93l-74 52l-8 11q-13 66 -51 90l-6 12q1 5 1 9q0 36 -42 72l-4 9l-4 54l-24 61l4 65l-14 63l1 10l17 56l-1 15l-15 60l1 22q7 46 39 141v9l-5 30l39 68l2 6l-5 41q51 55 73 103q30 19 53 70q39 15 77 77l34 23
q73 13 85 13l63 29l38 -1l48 -10q6 0 49 18h18zM645 1147q-38 -22 -72 -50q-7 0 -72 -35l-21 -68q-32 -23 -42 -44q-2 -2 -2 -13q0 -8 1 -21q-19 -27 -24 -45l3 -61l-2 -9l-32 -32l-1 -12l22 -51l-2 -17l-27 -42l-1 -13l23 -43l-2 -19l-24 -39l1 -8q30 -36 30 -57l-15 -44
v-1q33 -50 43 -63l4 -17l3 -48l28 -23q5 -2 9 -2q19 0 29 45q25 22 54 27l30 8l34 39q25 4 49 4q28 0 55 -5l29 14h15l45 -24l48 4q46 -16 99 -104l19 4l11 52q23 32 23 41l1 79l4 16q25 28 35 59l2 59l19 50v11q-11 31 -19 54l11 42v7q-10 17 -25 30l-3 12l6 37
q-26 26 -48 39l-3 14q1 31 1 42q-25 83 -76 99l-7 11l-15 50h-60q-25 20 -52 40l-61 1q-42 23 -55 23zM732 132q52 0 68 40v12q0 28 -66 35q-68 -15 -68 -37q0 -21 66 -50z" />
    <glyph glyph-name="R" unicode="R" horiz-adv-x="1555" 
d="M890 1354l58 -37l34 7q27 -21 61 -44q3 -5 53 -10q60 -63 105 -85q34 -36 67 -158l28 -54l-14 -57l-2 -99q-32 -33 -57 -83l-12 -61l-7 -17q-25 -11 -61 -32q-33 -40 -33 -54q22 -53 22 -76v-3q0 -30 18 -91l-2 -99l31 -50l17 -56l41 -35l61 -7q29 -49 67 -50
q36 -1 73 -104q-8 -74 -97 -101l-17 4l-35 16h-20l-51 -10l-12 3q-27 16 -65 32l-102 1l-28 21q-17 23 -44 62l-15 81q-16 72 -16 83v1q4 27 5 51q0 21 -2 39v5q-7 26 -15 44l5 26l4 27v2l-25 36q-1 57 -9 57l-43 18l-26 35h-16q-28 0 -59 -8q-14 16 -46 35l-35 -6l-39 13
q-19 0 -47 -46q11 -24 20 -54q-8 -24 -43 -59q4 -13 35 -54v-11q0 -20 -21 -39q-8 -8 -8 -18v-2q0 -13 15 -30l21 -15q-8 -40 -9 -51q11 -33 46 -34q23 0 63 -15q30 -25 84 -73q29 -32 29 -56v-16q-27 -55 -90 -67l-17 -5q-48 -15 -72 -24l-51 26h-20l-49 -15l-22 -9l-52 21
l-2 -1l-84 -16l-58 11h-3q-16 0 -70 -7l-14 3q-55 43 -55 142v7q6 36 83 64l22 24q41 7 65 18.5t51 90.5v11l-19 122l21 74l-23 77v16q14 73 31 115v23l-9 49l-7 47q0 27 7 111q-18 83 -28 106l10 73q0 28 -27 41q-53 15 -156 45q-45 20 -45 93v3q17 18 49 44q46 47 89 47h3
q37 4 66 19l57 -20l19 4l31 12h25q35 -31 41 -31l47 12l34 -10h9l52 28l67 -26l44 7l43 -18q50 24 77 24zM779 1130l-19 -1q-53 23 -54 23l-49 -20l-39 9q-23 -15 -43 -39v-1q0 -11 32 -52v-17l-29 -43l25 -50v-18l-28 -44v-3l33 -60q7 -28 38 -29q11 0 25 4q23 -19 49 -32
l44 10l13 -2l37 -8q67 7 83 22q28 -3 68 -10q32 3 52 38l7 10l1 38l41 51l-2 20l-17 50q1 18 24 50q-3 12 -51 37l-3 23l-2 26l-14 4l-32 -2h-18q-54 23 -110 37l-10 2z" />
    <glyph glyph-name="S" unicode="S" horiz-adv-x="1466" 
d="M766 1346l39 -20l39 12h21l72 -36l40 -23q30 5 49 25q36 25 59 25h2q116 -39 117 -133l-2 -61l25 -49l-17 -68l20 -64q-16 -132 -70 -132h-2q-23 1 -108 85l-12 27l-13 70q-36 53 -53 53l-39 15q-11 13 -33 49l-4 2l-25 6l-50 2q-46 28 -54 28l-26 -11l-36 12
q-40 -18 -66 -36l-52 14q-8 0 -32 -46q-65 -13 -66 -55l-1 -4q-26 -18 -34 -44l6 -36l34 -29l-1 -36l61 -24l13 -38l39 -12l51 -44h9q15 0 44 6l35 6l35 -30l67 5q15 -1 113 -47l131 -21q40 -50 56 -77l49 -16l15 -17q12 -52 19 -72q11 -24 29 -39l-1 -53l26 -74l-24 -197
q-45 -107 -144 -178l-41 1q-37 -29 -74 -45l-68 -19l-33 7l-96 -29l-46 20l-103 -2q-53 35 -107 56l-40 2q-64 32 -79 33h-3q-15 0 -32 -8q-3 0 -22 -23q-18 -25 -47 -42l-29 1q-61 25 -94 60l-21 44l24 59l-30 52v8l21 70l-25 45l6 46l-14 76l26 68l9 21q17 42 39 42l20 -1
q36 -36 42 -38l78 -99q7 -57 70 -76q5 -46 25 -89q2 -3 33 -25q23 -1 45 -2l58 -48l14 -1l81 23l26 -3l58 -28l62 42l83 1l25 16q20 38 23 75l35 43q0 3 -24 55l1 21l-10 42l-12 31v-1l-4 3l-47 24q-46 62 -121 65h-2l-57 43l-88 -8l-58 41h-2l-36 -6l-22 1q-31 35 -42 35
h-6l-81 22q-12 24 -37 72q-45 38 -83 74l-10 80q-13 41 -13 96v15l1 14q15 135 88 186l43 60l82 19l48 31l65 4q16 13 58 29l57 -14z" />
    <glyph glyph-name="T" unicode="T" horiz-adv-x="1464" 
d="M566 1350q90 -40 109 -40l18 4q49 20 90 32q55 -28 67 -28h21q8 0 85 32h22q48 -28 68 -28h30l58 7l19 2q43 -5 101 -104l-1 -16l-6 -71l30 -87q-3 -33 -3 -60q0 -58 16 -90v-15l-12 -62l13 -58q-40 -90 -92 -136q-40 17 -104 72q-47 39 -47 59v4q0 19 18 74v1
q0 8 -28 41v18l17 55q-29 25 -29 54l16 44v5q-42 55 -56 55q-56 0 -88 -55q-60 -6 -60 -25v-22l17 -66l-21 -75l4 -54l17 -67q-2 -42 -9 -92q9 -30 16 -56q-13 -33 -28 -65l16 -58l-7 -58l19 -47l2 -15q-18 -32 -18 -48l4 -71l-8 -31q7 -47 32 -70q10 -9 27 -9q28 0 75 23
h17l65 -23q9 -1 17 -1q44 0 96 17h21l16 -15l-21 -106q-12 -99 -89 -123q-41 -15 -114 -34q-68 22 -121 26l-56 -32h-14l-84 39q-39 -3 -80 -21q-24 -13 -41 -18q-49 32 -66 32q-25 0 -132 -46q-96 38 -96 166q0 41 19 65q16 25 38 55h18q20 -27 52 -27q6 0 12 1l42 10
l73 -6q71 23 71 79l-1 11l8 38v19l-16 52v14l16 55l-14 67q2 15 14 91l-13 64l11 42v3q0 20 -13 67l-9 40v8l26 63q-18 35 -18 61l19 48l-19 57v9l11 56q-9 21 -43 49q0 1 -32 1l-36 -15l-33 -29l-31 3l-24 -14q-14 -51 -14 -71q0 -5 3 -13t15 -33q-15 -23 -40 -62l19 -47
q-39 -61 -39 -71v-12l17 -45q-32 -19 -86 -77l-25 -6q-46 0 -101 134l-14 59q21 67 21 96l-12 45l15 75l-11 90q9 52 12 101q18 50 118 99q27 21 78 33l72 -28l26 5q66 27 90 27z" />
    <glyph glyph-name="U" unicode="U" horiz-adv-x="1499" 
d="M259 1338l68 -25l76 20l45 -17q3 0 81 17h19q93 -59 93 -119q-8 -50 -87 -79q-34 -48 -49 -99l-2 -26l17 -55l-26 -69l15 -58q0 -25 -17 -73l27 -44l-2 -24q-14 -38 -19 -58q11 -19 11 -53l-12 -56l16 -68v-8l-8 -43l10 -43l-5 -42q38 -75 83 -82q31 -64 46 -64l30 5
l62 -37q65 0 83 30l55 -9q36 19 61 68q53 8 64 52l11 37l-10 40v8l18 40v4l-17 66l13 58v4l-12 62l8 40l-12 50v16l17 48l-15 58q10 8 13 60q0 18 -16 66v27l10 46l-13 34q-14 39 -40 67q-30 55 -109 104l-23 42v24l34 27l27 17l31 18l54 -12l20 -3l72 15l40 -8l59 -12
l84 28q56 0 102 -58q56 -40 56 -76v-7q-7 -25 -29 -41q-51 -47 -96 -70q-33 -14 -57 -60l16 -52l-20 -56l15 -40v-19l-16 -48v-2l16 -56v-10l-14 -54q22 -37 22 -60l-30 -59q22 -45 22 -71l-11 -38l11 -49v-8l-12 -58l13 -50q-20 -45 -35 -69v-38l-2 -26l-47 -42l-19 -64
l-30 -21q-14 -33 -28 -58l-42 -4q-18 0 -33 -58l-32 -16l-67 14q-57 0 -103 -29l-24 -8l-104 34q-9 0 -108 6l-17 28q-25 14 -52 17l-20 7l-5 25l-24 16l-48 31v3q0 35 -58 104l5 40l-36 74l8 58l-21 71l13 68v1l-9 35l20 63l-24 67l13 47l-4 34l11 74q-11 27 -11 69l15 53
l-16 60l12 50l-22 51l-15 15l-35 17q-50 27 -99 70l-22 29v31q28 38 92 71z" />
    <glyph glyph-name="V" unicode="V" horiz-adv-x="1414" 
d="M551 1336q56 0 83 -95q0 -48 -78 -83q-42 -25 -42 -86q0 -16 5 -34q10 -27 22 -41q11 -18 30 -44q-13 -66 -13 -80v-4q0 -8 36 -56l9 -19l-1 -45l2 -43q45 -60 46 -84l1 -77l33 -60q25 -47 25 -83q2 -9 6 -9q6 0 18 21l11 78q41 44 46 95v47q29 34 54 68q4 31 4 53
q0 19 -3 30q18 46 49 83q15 21 15 36l-5 33l23 68q3 17 3 33q0 95 -70 149q-38 24 -44 52v4q0 75 85 94l56 -4l55 19h33l74 -18l16 -1l87 1l66 -23q75 -40 75 -108q0 -42 -108 -71l-34 -13q-37 -15 -42 -37l-6 -47l-36 -64l-7 -86l-36 -84l-1 -3q-11 -50 -12 -111l-36 -68
l-16 -90l-34 -71l-16 -95l-41 -94l-3 -63q-23 -49 -45 -91q-14 -47 -36 -96q-8 -93 -202 -119q-58 0 -82 95q-30 33 -30 88l-31 65l-2 73q-25 36 -45 83q-3 16 -3 43q0 28 3 67q-24 42 -44 100l7 52q-15 38 -54 104l-4 21q5 29 5 56q0 12 -1 24l-10 19l-34 50l-3 55l-8 43
l-45 89l-8 67q-34 41 -90 51q-90 51 -97 81l-5 14q0 56 73 92l63 29q22 -7 59 -7q47 0 117 12q104 -30 168 -30z" />
    <glyph glyph-name="W" unicode="W" horiz-adv-x="1608" 
d="M437 1364l57 -31l34 -9q48 -17 48 -59q-16 -36 -44 -66q-93 -48 -93 -72v-1l14 -37l-11 -42v-2q0 -17 24 -55l-15 -39q0 -7 37 -56l4 -22l-12 -56l27 -48l-14 -49v-14l47 -59l4 -47l22 -52h1q4 0 14 27l3 80l39 56l-29 55l21 40q2 0 2 5q0 14 -14 70l45 59l-1 80l27 60
l-7 88l26 52l-5 81l47 37h28q169 -53 169 -97v-19l-11 -33l37 -42l-18 -79l22 -24q-10 -17 -10 -40q0 -27 28 -62l-11 -42v-2l44 -56v-27l-16 -47l16 -45l-21 -54q51 -53 51 -77q-22 -40 -22 -54l16 1v9q1 21 32 68l-22 36v21q64 60 68 100l-6 25l-6 24l45 66l-7 92
q36 61 41 61l-15 41q6 21 6 37q0 34 -30 44q-38 22 -74 61q15 86 62 120l24 12h11q22 0 94 -15l33 8q38 -13 57 -13l55 12h12q26 0 91 -45q20 -17 20 -43q0 -10 -3 -21l-30 -45q-104 -62 -117 -101l8 -42q-3 -15 -32 -65l2 -61l-37 -64l-3 -99q-28 -29 -32 -75v-5l3 -81
l-35 -102v-7l10 -87l-3 -18l-28 -58l-3 -69l-20 -50l15 -60v-17l-52 -96l-16 -59q-24 -62 -71 -62q-137 31 -166 89q-17 22 -56 73l2 15l11 46l-52 58l44 59v11q-19 22 -43 58l13 47l-17 53v23q35 36 35 44q0 6 -39 39v22q26 20 38 49q-38 36 -43 57v6q9 16 28 47v4
q-22 38 -22 47l1 4q1 5 2 22l-10 3l-8 -18l-8 -13l18 -30v-22q0 -22 -28 -51v-3q21 -25 21 -48v-4q-9 -36 -23 -63v-2q25 -18 25 -54q-47 -44 -47 -62l30 -41v-28q-56 -41 -56 -91v-14l14 -56l-26 -52l18 -72q-41 -48 -41 -113q-27 -44 -91 -44h-14q-77 23 -120.5 63
t-80.5 109l10 49l-21 55v17l8 42l-31 71l9 48l-26 70l13 48l-43 106l9 70q-3 44 -34 108l9 74l-34 98l4 76l-21 36v42q-9 31 -12.5 33t-29.5 25q-100 30 -100 75q9 116 102 126h22q22 -16 26 -16l57 21l66 -15q33 9 61 22z" />
    <glyph glyph-name="X" unicode="X" horiz-adv-x="1494" 
d="M1117 1348l67 -30l64 13h12q31 -8 58 -49q34 -43 34 -68v-1q-1 -49 -96 -85q-31 -14 -69 -48l-35 -43l-16 -47l-34 -32q-10 -41 -32 -79q-25 -29 -55 -46q-11 -30 -28 -89l-57 -59l-1 1l-1 -63q-17 -18 -17 -32q0 -2 37 -28l22 -62q31 -39 80 -67l18 -89l52 -47l6 -14
q4 -65 33 -74q10 -39 71 -50l48 -21q81 -27 94 -103l-1 -7q0 -38 -49 -73q-17 -17 -39 -28h-9q-48 12 -57 12l-23 -2l-82 -26l-15 1q-21 0 -75 26l-27 1l-76 -18l-43 12l-27 42q-14 25 -21 63v9q19 35 58 57q38 40 42 76l-52 52l-1 42l-42 39q-8 75 -63 76q-52 -36 -62 -109
l-52 -28q-61 -55 -62 -84q0 -14 25.5 -31.5t80.5 -41.5l12 -13v-29q-37 -91 -102 -123l-29 -1l-45 8l-74 -22h-12q-20 0 -64 14h-29l-82 -20q-57 20 -104 29q-31 34 -36 77q5 66 46 96l118 42q36 36 95 70q34 14 35 73q0 29 81 101l18 43l-3 29q21 34 63 64l53 79l3 8
q-17 65 -49 96l-35 100l-62 44v6q0 44 -26 78l-56 49l-19 47q-18 32 -71 51l-29 8q-111 29 -148 102l-6 30l1 24q15 26 117 86l63 -11l37 -5l67 29h28l75 -24l55 14q60 -30 92 -75q31 -25 31 -59l-1 -14q-19 -26 -74 -70q-11 -12 -11 -24q0 -23 36 -48q13 -23 23 -61l45 -38
l19 -66q10 -24 23 -24h1q22 0 68 104q18 9 51 27l-2 44q46 16 54 44l1 11q-4 37 -79 67q-26 33 -26 62v2q49 67 113 101q7 3 19 3q21 0 58 -9q50 20 90 26z" />
    <glyph glyph-name="Y" unicode="Y" horiz-adv-x="1380" 
d="M1161 1341q39 -22 84 -38q57 -18 57 -84q-7 -71 -68 -95l-34 -10l-38 -8q-24 -8 -49 -24.5t-49 -45.5l-9 -61l-7 -17q-52 -39 -52 -105l-7 -8l-32 -36l-5 -13l-2 -45l-4 -9l-42 -39l-11 -68q-45 -26 -54 -70l-3 -9l9 -41l-21 -68l21 -59l-25 -72q22 -36 22 -77
q6 -69 72 -87l49 -16l41 6l44 -22l36 6q80 -84 80 -131q-28 -55 -47 -62q-35 -32 -121 -49h-11l-84 24h-19l-77 -18l-19 1q-74 19 -94 19h-3l-60 -20l-34 -1q-55 23 -67 23q-42 -7 -80 -18l-44 -15l-19 3l-50 43q-39 23 -39 88q1 61 55 97l49 24l56 -16l44 28
q61 4 68.5 32.5t7.5 40.5l-4 54q24 42 24 59v14l-12 62l12 50v10l-20 52l1 54l-29 56l-18 75l-49 52l-7 21l-20 52q-32 37 -60 63l-18 62l-50 57q-5 38 -34.5 70t-152.5 35q-55 55 -55 89q33 124 92 124l104 -12l68 23l21 2l99 -15l14 1l60 12l21 -6q40 -12 79 -96l-5 -16
q-55 -41 -70 -110q-13 -23 -17 -44q8 -28 17 -39q23 -19 45 -37l17 -57q18 -23 34 -30l11 -48q0 -12 45 -24q9 7 29 35q16 23 16 65l7 19q26 10 42 52v43l10 18q29 24 33 48q0 19 -75 84q-24 19 -24 42q0 4 1 9q14 47 84 85q12 11 38 11q30 0 79 -16l78 20q28 -27 63 -27
q28 0 61 19z" />
    <glyph glyph-name="Z" unicode="Z" horiz-adv-x="1451" 
d="M503 1356h19l114 -35l9 -2q43 5 69 29h14l88 -24h18q32 6 78 20h13l59 -27l103 13q39 0 66.5 -39t55.5 -85v-29q-1 -66 -59 -141q-61 -26 -61 -65l-9 -35l-11 -49l-15 -14q-51 -17 -94 -80l-18 -54l-7 -14q-28 -5 -54 -21q-8 -7 -8 -63q-62 -37 -92 -98v-52
q-30 -31 -73 -53l-27 -24l-19 -68l-8 -16q-30 -17 -47.5 -25.5t-31.5 -75.5q-86 -76 -86 -89v-8q0 -18 45 -24q31 2 131 30q59 -4 83 -16l74 26q21 0 68 -30l18 -6h33q16 0 59 22q50 18 63 76l-13 51l23 66q-14 28 -14 53v7l24 68l-4 48q13 37 52 37q46 -15 96 -40
q42 -30 42 -63l-18 -52l26 -61q-1 -27 -28 -89l4 -53l-16 -57v-35l7 -44q-18 -49 -36 -99q-48 -47 -83 -47l-50 19l-42 -7l-29 -8l-32 -3l-60 17l-67 -18l-58 8l-76 -18q-52 13 -66 13l-81 -18l-66 23l-28 5l-93 -20l-22 4l-78 22l-46 -11h-11q-35 18 -35 54l8 44l-12 68
q0 26 73 95l21 31l20 80l14 11l40 9q20 8 50 97q70 37 70 67l27 75l53 37q31 51 44 84l65 39q7 6 30 75l69 43l12 18l3 74q37 24 80 55l29 80l10 11q50 14 50 37q0 5 -8 22.5t-45 17.5l-107 -35l-51 16l-21 2q-81 -32 -104 -32q-30 15 -68 32l-3 1q-58 0 -81.5 -22
t-23.5 -31l18 -63q-34 -48 -34 -56v-6l8 -32q0 -21 -32 -72q-42 -58 -90 -70q-82 0 -132 116l29 65l-19 56v12l33 61l7 54l-8 55v17q49 55 81 119l45 22l52 -13h66q9 0 50 28z" />
    <glyph glyph-name="bracketleft" unicode="[" horiz-adv-x="789" 
d="M637 -124l23 -82q-21 -25 -49 -25q-8 0 -17 2q-108 31 -160 97q-42 46 -89 113l-44 45l-9 88l-61 84l-6 132l-5 30l-61 133q20 82 34 157l-22 91l11 52l19 47l-9 95l36 91q20 28 39 96q2 81 33 101l44 37l28 67l63 59q65 44 129 82l64 -9q33 -15 34 -40v-5
q0 -64 -81 -183l-34 -103q-85 -67 -85 -102v-1l4 -18l1 -34q-30 -53 -30 -56q1 -11 19 -52q-25 -47 -53 -130v-27l24 -68l-29 -65v-5l33 -87l-15 -38l-9 -52l17 -40q2 -65 60 -104q26 -94 27 -104l49 -48q2 -39 28.5 -79t48.5 -142z" />
    <glyph glyph-name="backslash" unicode="\" horiz-adv-x="1294" 
d="M139 1586q51 -5 80 -30q76 -42 87 -99q31 -59 75 -105q10 -44 42 -125l11 -23l70 -87l24 -83q10 -31 47 -60l52 -65l13 -89q22 -46 71 -114l50 -54l23 -91q22 -78 102 -139q30 -114 106 -187l11 -47l28 -57q73 -68 77 -98l15 -35q21 -46 21 -104q0 -48 -51 -104h-29
q-92 40 -129 72q-46 127 -110 182q-8 74 -40 132q-40 33 -77 82l-59 125l-88 120l-44 104l-40 50q-33 27 -59 60l-19 52l-26 79q-8 10 -36 38q-24 21 -33 38l-23 81l-31 37l-17 16q-11 50 -40 95l-27 25l-29 30q-19 79 -27 95q-34 48 -60 75q0 122 6 122q8 86 68 86h15z" />
    <glyph glyph-name="bracketright" unicode="]" horiz-adv-x="784" 
d="M144 1352l-21 77q12 28 62 28h3q108 -31 159 -98q42 -46 89 -114l43 -45l10 -88l60 -84l4 -133l4 -30l62 -133q-21 -81 -36 -157l22 -90l-11 -53l-20 -46l9 -95l-36 -91q-20 -28 -40 -96q-3 -81 -33 -101l-45 -37l-29 -67l-63 -58q-65 -43 -129 -82q-36 -8 -57 -8
q-26 0 -33 17t-8 41v3q0 66 83 185l34 102q85 66 85 101v2l-3 18l-1 34q30 53 30 56q-1 11 -18 52q25 47 52 130l1 27l-23 68l29 65l-1 5l-32 87l16 38l9 52l-16 40q-2 65 -60 104q-25 94 -28 104l-47 49q-2 39 -28.5 79t-47.5 142z" />
    <glyph glyph-name="asciicircum" unicode="^" horiz-adv-x="938" 
d="M751 1419q-15 -4 -30 -4q-16 0 -32 4l-38 5q-38 19 -65 27l-25 25l-17 6l-36 14l-11 10q-17 24 -43 50q-34 17 -49 19l-12 1l-43 -23l-16 -20l-41 -17l-33 -38l-10 -10l-57 -18q-54 -31 -107 -38q-36 11 -36 64q0 12 1 25v7q6 35 21 67q20 14 45 58l46 18l48 66l73 33
l41 37l43 27q39 18 74 24h9q31 0 49 -20q22 -25 60 -45l19 -41l50 -31l13 -14l16 -36l52 -36l7 -11l20 -52q33 -19 42 -48q9 -18 9 -33q0 -6 -2 -11q-5 -39 -35 -41z" />
    <glyph glyph-name="underscore" unicode="_" horiz-adv-x="1293" 
d="M854 143h9l42 -9l34 -3l53 -1q36 -3 69 -15q48 -22 78 -71l4 -22q-10 -84 -94 -130q-40 -6 -90 -26h-15l-95 14h-7q-37 0 -110 -19l-59 11h-48q-10 0 -89 -12h-12l-93 20l-45 4q-37 -4 -85 -17l-20 -2l-61 12q-42 3 -94 10q-56 33 -76 102q19 87 63.5 109.5t113.5 35.5
q53 -11 108 -11q13 0 88 13h24q71 -19 79 -19h24q34 0 101 19h13l56 -12h11q38 0 72 6z" />
    <glyph glyph-name="grave" unicode="`" horiz-adv-x="730" 
d="M142 1826q31 6 70 6q45 0 101 -8l30 -31l61 -33l5 -11l15 -57l63 -50l7 -11l10 -52l28 -30l12 -9q21 -40 31 -74q5 -15 5 -33q0 -20 -7 -44l-25 -11q-108 10 -133 26l-52 36q-2 1 -64 24l-14 9l-34 45l-76 32l-2 2q-25 38 -37 55q-50 33 -62 50q-24 43 -24 76
q0 19 13.5 49t78.5 44z" />
    <glyph glyph-name="a" unicode="a" horiz-adv-x="1404" 
d="M856 1033q41 -51 101 -51q57 -57 102 -85q16 -25 37 -96l49 -119v-12q-24 -52 -24 -79q0 -4 2 -19t19 -101l-20 -73l11 -46v-17l-15 -45q21 -76 29 -85l75 -56q50 -54 51 -91q-1 -37 -75 -76q-18 -1 -34 -1q-61 0 -107 9q-48 8 -96 58q-4 2 -9 2q-22 0 -58 -27l-53 -40
l-49 7l-68 -19l-55 6q-11 1 -23 1q-47 0 -98 -16h-24l-48 28l-50 -4h-11q-53 38 -95 45q-42 15 -96 148l-43 55l2 33l2 31l-4 27v5q0 77 59 124l39 69l35 7q40 8 66 21q27 6 53 31q52 2 96 32l88 -13h12q9 0 35 20l29 11l60 -17q16 2 46 28l8 4q30 -5 45 -5q8 0 20.5 6
t12.5 20l-5 30l13 38q0 24 -50 54l-53 13q-57 33 -77 43h-25l-50 -14h-11q-32 12 -63 13q-57 -23 -75 -48l-14 -38l-1 -27q-13 -46 -50 -85q-49 -38 -98 -38q-9 0 -17 1q-82 22 -124 87v11l4 46l-4 47q0 46 80 103l22 42l63 29l45 43l79 8q25 11 65 28l61 -10l43 3l75 14
l79 -12q18 -10 59 -16zM732 397l-102 33h-13l-88 -40h-11l-44 12q-46 -53 -77 -64l-24 -67q0 -23 48 -51l123 -38l81 28h23l53 -19q72 34 143 57q31 20 45 47v4l-6 41l-2 13l27 55l-4 14l-52 24h-11q-12 0 -80 -43z" />
    <glyph glyph-name="b" unicode="b" horiz-adv-x="1352" 
d="M241 1397l22 2l35 4q49 -17 106 -22q77 -43 86 -141v-21l15 -57q-10 -54 -18 -106q0 -34 36 -48h2q36 0 99 44l20 -2l51 -28l107 14q28 -1 71 -39l12 -5q35 0 62 6l28 2q29 -34 34 -80q99 -66 99 -95v-1q5 -47 25 -67q19 -18 31 -80q28 -31 29 -72l-9 -46l16 -63l-1 -8
l-12 -55l3 -45q-23 -140 -79 -205l-22 -78l-49 -19l-67 -82l-16 -6h-57q-10 0 -56 -43h-13l-108 15l-86 -13l-23 -1q-67 36 -134 58h-15q-50 -19 -100 -25l-53 -4q-31 1 -53 44q1 16 1 29q6 29 14 69l-12 32v17l16 70l-17 79l13 61v9l-15 88l9 61v13l-7 45l13 73l-11 50
l14 97l-12 73l9 49l-19 91l4 22v6q0 92 -65 93q-87 32 -116 98v28q1 37 97 118zM486 640q15 -36 15 -68l-9 -35l7 -63l-4 -35l20 -77l-14 -54q0 -18 45 -46q86 -51 136 -55q48 26 119 34q26 38 84 50q12 8 12 44l41 46q-11 13 -11 57v8q49 36 52 36l-34 63q24 35 24 42
q0 10 -44 52q5 15 5 29q0 13 -3 24l-22 30q-23 69 -72 70l-8 -1q-40 43 -41 43l-51 1l-58 16q-80 -10 -161 -71q-7 -19 -7 -39q0 -17 4 -34q-24 -33 -25 -64v-3z" />
    <glyph glyph-name="c" unicode="c" horiz-adv-x="1252" 
d="M728 1063l10 -1q58 -35 69 -40l51 -6q35 -31 84 -86q62 -49 88 -94q28 -30 32 -83q1 -14 1 -27q0 -39 -9 -80q-24 -79 -116 -101l-39 -10q-50 0 -101.5 52.5t-57.5 70.5q-6 29 -6 49q0 41 27 86q-15 55 -103 55q-9 0 -19 -1h-4l-34 -27l-60 -11l-45 -50l-49 -20
q-32 -38 -32 -76q0 -8 1 -16v-2l-25 -53l10 -64l-4 -69l8 -38l8 -40l57 -46l10 -13l18 -47l42 -32l48 -7h7q29 -20 58 -27q69 0 99 48q52 0 104 57q22 8 85 51q43 19 85 21h1q39 0 39 -117q0 -120 -62 -154q-69 -32 -105 -100q-18 -4 -41 -4q-11 0 -23 1q-8 1 -17 1
q-41 0 -71 -17l-29 -19h-18l-87 14l-19 3l-41 -4l-58 -4q-23 0 -87 42l-60 18l-16 12q-6 33 -32 69l-8 8l-57 41l-12 18l-12 80l-57 87l-3 18q-3 63 -3 98l-17 64l3 19l25 66l-3 76l5 18q42 51 55 117l6 12q67 44 137 122l99 61q49 0 77 11q23 7 49 18q27 -1 72 -11h6
q41 0 66 13z" />
    <glyph glyph-name="d" unicode="d" horiz-adv-x="1403" 
d="M709 1398l74 -11l71 13l9 1l62 -14l70 11h7q56 -18 80 -142l-4 -47l20 -67l-15 -51l-1 -14l8 -48q-4 -17 -12 -91l16 -74l-22 -77l19 -64l-12 -57l15 -62v-21l-16 -56v-11l25 -54l-17 -73l4 -24l10 -53q-10 -29 -10 -53q0 -29 42 -51q66 -19 122 -103v-23
q-29 -74 -89 -103q-13 -4 -30 -4q-28 0 -68 11l-62 2l-50 27l-38 13q-11 3 -22 3q-14 0 -26 -6l-64 -36q-6 1 -12 1q-35 0 -92 -22q-38 3 -90 7q-48 -5 -99 -9q-35 13 -68 31l-70 20l-24 44q-19 17 -72 30q-19 27 -32 78q-10 35 -28 61q-22 31 -39 65l-2 65l-25 42l2 45
l3 30l-16 62q21 40 33 61l-8 44v18q51 81 51 100l15 88l73 59l55 66l89 32q84 7 119 37h15l45 -10q27 0 93 -13l96 -56l15 -2l62 47l-35 46v12q9 29 27 58q-41 45 -87 50l-66 -19l-18 3l-62 29q-66 22 -91 47l-9 30v15q0 68 33 75l20 4l33 10q35 11 70 28zM383 585l41 -37
l-3 -13l-39 -37l16 -18l40 -32l-1 -19q-25 -18 -39 -50v-1q3 0 43 -30l14 -21l-5 -34v-11q0 -13 83 -50q42 -45 95 -61l37 33h15l50 -8q12 9 22 46q24 10 70 31q19 21 40 56v5q-12 26 -21 43q5 20 37 60v2q-32 42 -32 63v12l36 40l-36 36l3 14l24 68l-47 56v11l16 28l-1 6
l-47 8l-29 37l-55 -32h-28l-51 47q-46 -6 -99 -65q-71 -24 -90 -59q-8 -39 -16 -65q-39 -43 -43 -59z" />
    <glyph glyph-name="e" unicode="e" horiz-adv-x="1277" 
d="M597 1070q54 -6 102 -22h25q55 0 160 -60q44 -43 101 -72l43 -70l50 -52l2 -37l24 -35v-71l16 -48v-22q-38 -164 -94 -164q-32 20 -50 20q-10 0 -25 -4t-30.5 -14t-53.5 -19l-18 7l-60 12l-50 -28q-23 18 -49 25q-20 -10 -59 -17l-82 33h-11l-62 -3q-15 -8 -48 -43l-1 -6
l9 -48l21 -25q47 -71 109 -71q47 -28 70 -28h21l26 3l53 25q15 -3 26 -3q36 0 42 26q30 0 56 7l28 30l44 11q65 16 88 18h3q22 0 43 -12q27 -28 27 -51v-9q-14 -59 -23 -81l-11 -45l-35 -17q-29 -7 -29 -44v-3l-11 -16l-77 -19q-6 -2 -43 -40l-81 -8h-25q-71 -28 -117 -28
q-46 21 -110 21h-16l-90 23l-49 45l-83 50l-41 80l-49 71l-7 47q-16 19 -24 53l4 31q0 18 -25 96q13 34 13 55v2l-12 48v9l15 57l-8 37l33 91q0 45 61 86q33 63 88 94q45 36 46 51q12 21 143 44q46 19 67 27zM447 753v1q-37 -23 -42 -63l-12 -46q4 -13 56 -13h4
q55 14 101 22q36 -18 54 -18l35 13l45 -14q5 1 26 8l34 11h16l31 -10h36l32 -4q11 5 11 16v26q-2 47 -40 66l-49 45l-49 8q-29 40 -78 52q-50 0 -95 -20q-59 -17 -71 -51q-41 -20 -45 -29z" />
    <glyph glyph-name="f" unicode="f" horiz-adv-x="1423" 
d="M903 1404l60 -21l62 -1q55 -1 126.5 -30t130.5 -95q33 -48 69 -126v-23l-4 -56l-18 -34q-12 -73 -119 -103h-10l-62 20l-24 -4q-72 55 -99 118l-14 60l-4 17q-42 33 -60 34q-46 -10 -57 -36h-10l-39 20q-9 -2 -45 -29l-5 -30l-20 -8q-31 -24 -36 -58q-1 -5 -1 -8
q0 -20 14 -20q4 0 19.5 4.5t23.5 6.5h10q34 -24 44 -25l38 9l32 -9l36 -5l24 -5q41 -15 46 -41q19 -27 19 -68v-8q-1 -69 -92 -84q-37 -13 -81 -24h-14q-58 26 -72 26q-33 -4 -73 -51l10 -54q-13 -23 -14 -42l20 -64l-11 -69v-14l12 -71l-9 -38v-3l13 -68v-11l-8 -68l32 -28
q31 -12 55 -17h6l35 13l48 -6l41 23h16q105 -90 105 -167v-1q0 -8 -1 -16q-19 -33 -107 -69l-61 10l-66 -19l-96 24q-64 -29 -98 -29h-2q-41 18 -113 34q-2 0 -52 -35h-18l-76 22h-34l-95 -31q-66 26 -66 112v5q-1 8 -1 15q14 87 95 119q24 13 54 22l105 -18q61 7 62 52
l-11 49l9 72l-7 45l8 82l-11 73v16l16 58l-12 63q4 12 4 22q0 11 -4 20q-12 24 -32 24h-3q-11 0 -24 -7h-4q-32 22 -58 23q-15 -1 -70 -15h-16l-102 34q-26 31 -26 55q19 104 64 129l21 10l57 21q30 -16 46 -17q20 0 38 9l51 -18h6q27 0 39 17q0 21 -15 43l1 14q34 31 34 32
l7 33v14q34 24 54 80q56 84 147 134l56 8l33 23l67 9q31 19 58 19h3z" />
    <glyph glyph-name="g" unicode="g" horiz-adv-x="1495" 
d="M742 1072q43 -12 71 -27l79 -13l39 -24q21 -9 38 -9q30 0 48 25q44 28 66 28q22 5 49 5q29 0 64 -6q98 -78 127 -149l10 -38q0 -93 -42 -127q-25 -33 -83 -33h-4q-44 0 -70 20q-13 36 -28 36q-5 0 -9 -3q-8 -27 -18 -71l8 -43v-11q-20 -47 -20 -58l-7 -58
q-35 -28 -44 -85l-47 -16l-33 -30l-59 -37l-56 -8l-30 -25l-59 6h-7q-32 0 -70 -15q-13 17 -44 17q-17 0 -40 -5h-19q-48 21 -74 21q-23 0 -23 -26q0 -41 8 -67q12 -16 25 -16l21 8q25 13 57 26q52 -22 61 -22h36q7 0 66 29h19l33 -11l39 -6l43 -4h14q41 10 82 16h12
q24 -17 59 -35l58 1q26 -33 60 -33q5 0 10 1q129 -101 129 -163l12 -82l-24 -94q0 -26 -44 -84q-37 -58 -168 -114l-28 -3l-28 -5q-3 0 -44 -27h-22l-41 8l-88 -25l-75 1q-20 -1 -55 -11l-65 13l-59 -15q-61 32 -83 32h-6q-19 0 -40 -5l-34 -4q-23 6 -97 54l-47 43
q-57 30 -81 73l-35 101v9l28 130q11 54 79 113l21 51q0 10 -32 75v12l37 132l38 72l21 24v2l-21 63l12 53l-21 64q25 50 25 99q0 17 -3 33q64 57 64 115l9 10q49 14 82 61l84 41l69 -4q54 7 115 24zM640 840l-36 3q0 -1 -15 -9q-47 -19 -63 -62q-36 -62 -36 -69
q15 -57 32 -68q18 -11 41 -28l-2 -47q23 -50 63 -50q7 0 14 1l32 10q30 -8 55 -16h14q32 8 38 13.5t19 29.5q45 15 73 59l9 51l-5 44l4 71v9l-58 -2l-28 1q0 38 -13 46q-7 0 -53 -22l-9 2l-4 19l-14 31zM371 -52v-8q8 -38 37 -58l9 -2l25 4q18 -6 70 -46l4 -1l32 8l49 -17
q13 1 41 8q29 -20 51 -32q33 2 96 18l62 -18l18 -3l24 11l10 6l21 15l27 16l26 -5h6q13 0 55 44q55 0 61 57v7q0 33 -38 56q-42 0 -98 52q-38 0 -97 30l-26 3h-16q-50 -10 -71 -13h-24q-73 14 -83 14q-28 0 -70 -30q-66 0 -83 -25q-44 -12 -73 -30q-13 -13 -13 -40z" />
    <glyph glyph-name="h" unicode="h" horiz-adv-x="1524" 
d="M325 1378l56 -20l15 -1l52 9h17l71 -41l25 -45l14 -93l-12 -79l14 -59l-14 -63q1 -16 16 -16q8 0 20 5l34 28l15 6l46 -1q20 0 63 31l21 2l48 -1l69 12h27q49 -24 71 -24q81 0 205 -131q15 -73 47 -118l-1 -59l8 -95l-16 -79l15 -76l-1 -23l-21 -67l21 -77l-12 -55
l-4 -17l23 -45q118 -65 132 -89q9 -17 9 -38q0 -11 -2 -23l-25 -53l-20 -11l-69 -4l-27 2l-46 -7l-61 -13h-17l-77 18l-27 3l-80 -3h-6q-72 0 -72 118q0 33 37 55l52 21q29 21 55 78l-26 66l18 28q0 15 -24 65v24q32 40 32 45l-14 54q14 21 24 55q-16 42 -42 69l8 52
q-14 54 -46 54q-10 3 -25 3q-14 0 -33 -3q-27 11 -56 11q-11 0 -23 -2l-98 -19l-59 -40l-39 -13l-49 -72l9 -64l-17 -41q0 -6 24 -42q0 -29 -26 -56l-1 -7l19 -34v-25q-16 -40 -16 -56l20 -52l-1 -31l14 -18q53 -29 94 -52q26 -17 35 -59q1 -4 2 -7q-15 -75 -85 -95l-74 -2
q-78 -17 -94 -17h-6l-57 9h-25q-10 -3 -72 -12h-16q-23 0 -76 28q-51 17 -51 68v23q4 49 57 70l44 26q44 11 77 49l-6 38l20 90l-21 89l9 84v43q-7 6 -16 68q3 19 14 63l-7 48q3 28 9 40l-14 69v70q-5 21 -14 57l4 49q-2 55 -14.5 80t-48.5 40l-38 32q-47 12 -78 87l-6 17
q15 90 104 90q23 -6 40 -6l31 13z" />
    <glyph glyph-name="i" unicode="i" horiz-adv-x="1197" 
d="M396 1288q-5 34 -5 51v8q0 25 24 60q40 73 64 79q54 24 118 24q22 0 44 -3q109 -28 128 -142q2 -20 2 -40q-8 -55 -32 -95q-16 -44 -84 -74q-30 -12 -65 -14l-34 -1q-80 3 -124 69q-29 35 -36 78zM611 1065q38 -30 71 -44l44 -69l12 -69l5 -17l-5 -59l12 -61l-12 -50v-12
l13 -56l-21 -50v-4q0 -9 21 -49l-9 -55l12 -62v-8l-8 -44l23 -43l2 -11l-7 -37l11 -27q31 -36 47 -36h8q28 0 112 28h22q45 -30 103 -46q47 -35 47 -74l-16 -61q-16 -61 -59 -87l-70 23l-46 -13l-50 21l-43 -15q-33 0 -75 22l-64 -21l-16 -2l-45 21h-13l-36 -20
q-25 0 -65 15l-31 -3l-15 -1q-31 -17 -64 -17q-28 12 -74 12q-36 0 -74 -21l-32 -8q-64 81 -76 153v6q0 64 95 83l86 25h17l100 -24q34 0 62 56l-4 54l15 54l-11 47l8 56l-17 62l19 46l-14 52v9q0 19 16 58v4l-13 59l13 38q0 11 -44 29q-70 0 -145 -25l-94 42q-93 29 -93 79
q0 120 158 120l137 28l95 -5l58 6z" />
    <glyph glyph-name="j" unicode="j" horiz-adv-x="1237" 
d="M790 1500l38 -1q129 -4 185 -149v-13q1 -12 1 -24q0 -40 -15 -82q-43 -65 -92 -79q-40 -20 -92 -20q-14 0 -30 2q-92 0 -134 76q-27 59 -27 110q0 18 7.5 58.5t54.5 79t104 42.5zM720 1061q101 -29 124 -29q27 -11 109 -88l11 -29l-8 -66l16 -58v-9l-15 -62l15 -53v-9
l-8 -32v-10l22 -56l-21 -49l15 -52v-21l-8 -44v-15l12 -40v-22l-12 -40v-3l13 -59l-20 -56l16 -63l-17 -65l8 -52l-36 -151q-8 0 -22 -43l-10 -39l-52 -36l-17 -29l-19 -13l-44 -9l-36 -34l-16 -5h-57l-47 -23l-32 7l-49 -11l-79 15l-67 10l-46 47q-20 9 -50 21l-2 6l-32 40
l-42 30l-14 13l-15 63l-44 59v29l8 32v11l-17 63q43 144 78 152q42 19 64 36l31 12h25l63 -32q52 -25 52 -61l24 -43q2 -12 2 -25q0 -23 -6 -46q-14 -31 -48 -53q-58 -25 -58 -54q0 -5 2 -10q0 -20 50 -38q29 -59 86 -62l33 6q55 15 73 51h7q44 0 54 12q15 15 20 66l39 29
q12 11 12 31q0 14 -6 33q11 60 12 72l-4 66l15 51l-16 63l16 61l-16 105q16 68 24 110l-19 58l8 57l-12 48l8 66q-23 31 -58 31q-71 -32 -91 -32h-11q-45 36 -52 36l-81 -10l-48 21q-3 1 -8 1q-25 0 -88 -20h-11q-128 57 -128 108q0 37 34 53t114 37h9l64 -14h34l76 36h11
l84 -16q44 0 86 26z" />
    <glyph glyph-name="k" unicode="k" horiz-adv-x="1468" 
d="M580 374q-25 -22 -27 -29l8 -45l-21 -54q16 -40 16 -70l37 -24l38 5l14 -1q34 -22 107 -38q69 29 69 51q0 2 -4.5 14t-48.5 27q0 76 -20 84l-19 12l-28 12q-9 42 -64 88h-1q-21 0 -56 -32zM260 1373l23 1l67 -16l90 12q69 -14 80 -89q20 -29 28 -82l-11 -42l16 -76
l-16 -51l16 -49l-19 -47l22 -52v-12q0 -16 -32 -59q24 -43 24 -78l-22 -41l14 -38v-23q-4 -11 -4 -19q0 -15 12 -22q2 -2 5 -2q17 0 42 60l63 31l14 48l66 37l17 16q17 14 17 36t-18 53l-22 60q4 48 74 71l18 2l89 -10h19l50 25l24 3l87 -26l55 16l19 -1l47 -11
q55 -12 90 -61q17 -20 36 -59v-20q-93 -96 -126 -96h-8l-98 28h-44q-6 0 -17 -18q-28 -52 -47 -58l-67 -21l7 -37v-14q-8 -19 -61 -37q-3 -3 -8 -57q-27 -11 -27 -15l26 -92l73 -43q9 -89 84 -109q21 -10 38 -75l15 -9l43 -8l25 -39q18 0 46 -19q23 6 44 6q28 0 41 -17
l29 -57v-14l-29 -58q-44 -23 -103 -32q-16 -3 -31 -3q-44 0 -79 11l-53 -14l-44 13l-62 -6l-32 18q-35 -13 -55 -24h-20q-19 10 -70 58l-8 2q-4 0 -91 -59l-41 -5l-101 32h-11q-47 -32 -90 -32q-22 15 -44 24q-49 -27 -75 -27q-19 0 -80 22q-43 38 -47 75l4 45q12 15 42 28
q15 12 41 29l17 4h16q45 0 63.5 16t18.5 30l-8 45l7 61q-10 30 -11 56q16 40 16 52l-20 48v11l15 46l-11 54q6 55 6 66v3l-14 53v26l28 41v3l-30 51l18 50v9l-16 48v18l15 45l-19 53q7 30 11 61q-5 35 -51 46q-73 13 -128 67q-33 28 -40 57v4q0 37 50 59t98 36z" />
    <glyph glyph-name="l" unicode="l" horiz-adv-x="1284" 
d="M340 1427q61 -17 152 -29l69 17l131 -35l72 -96v-19l-11 -71v-1l21 -67l-11 -80l17 -47q-27 -87 -27 -93q16 -44 26 -98l-15 -29l-7 -29l7 -44q3 0 18 -49q-16 -46 -23 -91l23 -64l-20 -68q12 -61 23 -94l-11 -28q-7 -25 -7 -48q0 -22 9 -44q28 -39 53 -41l78 33l75 -24
l60 17h11l29 -11l48 -14l41 -15q30 -40 30 -106q0 -24 -4 -50q-31 -31 -82 -43q-110 -26 -135 -26q-56 28 -71 28l-17 2l-111 -29h-15l-63 22l-21 2q-13 0 -78 -18l-15 3q-44 10 -88 19l-17 -2q-26 -3 -76 -16h-26q-37 10 -70 10q-34 0 -65 -11l-52 17l-62 27
q-24 31 -24 100v22q8 33 62 59q28 18 81 31h12q61 -22 86 -22h4l68 32q26 0 68 -23q25 11 34 31l9 28v15l-17 55l18 91l-16 51l9 73q-7 50 -16 58l13 88l-10 75l14 62l-3 18l-12 51v24l18 52l-26 62l4 38q-17 73 -49 73l-37 2q-45 -8 -66 -14q-40 15 -56 16h-2l-48 -12h-15
l-69 37q-86 13 -86 80q66 125 153 146h7l41 9z" />
    <glyph glyph-name="m" unicode="m" horiz-adv-x="1633" 
d="M660 1052q51 0 170 -36l25 -4l57 13q36 11 100 25q25 2 59 2q63 -25 115 -32q43 -8 131 -127l35 -125l-13 -43v-2l20 -78l-8 -57l9 -45l-20 -61q15 -29 15 -60l-12 -48l10 -56l-14 -50q0 -42 100 -89q48 -57 48 -100q-22 -79 -78 -95h-24l-74 16q-18 0 -105 -28h-14
l-89 24l-49 7q-52 -27 -84 -27l-113 16l-63 -21q-31 13 -142 17q-46 -16 -72 -24q-84 24 -122 24l-80 -28q-23 0 -127 32q-92 8 -92 92v19q29 78 81 101q67 22 70 72l-12 75l7 42l5 23q-11 33 -15 64q4 18 12 59l-8 66l8 40l-13 54l9 45q0 32 -30 45q-50 19 -77 44
q-28 49 -28 90q0 12 3 24q29 97 103 97l51 -16l39 7l29 9l47 -17q46 -19 70 -22q55 22 150 47zM527 703l17 -54l-12 -49l15 -57v-25l-8 -44l9 -47l-20 -68l16 -67l-9 -38v-15q14 -39 56 -39l44 -40h4q11 5 43 22q30 11 30 48q0 15 -5 35l11 47q-5 25 -23 44v28l20 41l-22 65
q15 24 15 55q0 22 -8 47l-2 11l10 32v11l-14 54l16 47q-22 47 -70 65q-2 0 -53 -61q-60 -23 -60 -48zM959 705l-34 -54l24 -63l-1 -10l-15 -47l22 -43q-6 -17 -12 -50l20 -59l-8 -56l9 -54l-9 -40q3 -27 29 -30q28 -8 59 -35l28 35q26 14 49 43q-1 28 -3 49l-12 44v21l12 60
q0 3 -19 68l19 66l-18 33v37l11 90v3q0 36 -23 62l-22 15l-16 5l-45 -27q-36 -14 -45 -63z" />
    <glyph glyph-name="n" unicode="n" horiz-adv-x="1538" 
d="M830 1062q92 -5 176 -37l70 -14q23 -21 36 -57q84 -60 92 -146l32 -161l-16 -136l12 -59v-8l-12 -67l22 -47l-6 -50v-2q27 -50 96 -77q76 -25 88 -71v-2l4 -20v-18q0 -59 -78 -112l-98 12l-49 -7l-67 -13l-60 28q-67 0 -132 -24q-29 0 -88 64q-43 21 -56 47v21
q6 37 57 80l33 13l55 21q46 19 58 59v2q0 19 -15 42v14l16 56v19l-5 29q13 27 13 51l-8 44v16l11 45q-19 50 -19 74l5 43q0 2 -25 55l-27 28l-41 14q-26 37 -36 39l-58 -12h-27l-48 -41l-45 -19l-37 -50l-53 -14q-4 -1 -19 -21.5t-20 -62.5l8 -38l-25 -56l23 -49l-16 -51
q12 -39 25 -88q-4 -24 -24 -52v-9q0 -15 6 -37q14 -28 49 -43q36 -17 55 -17q61 -27 71 -108q-40 -59 -74 -84h-88l-72 -25l-85 20h-4q-18 0 -83 -20l-82 30q-49 3 -73 55q8 92 70 118.5t70 49.5q15 20 26 63l-13 47l1 17l21 49l1 11q-24 39 -24 61l15 39l-17 35l-11 30
l16 45l-16 69l28 56q-3 12 -43 41q-32 26 -91 34q-41 26 -41 99q13 69 59 84l24 -8h11q28 20 58 20h46l58 12h8q22 0 65 -30q43 -6 62 -20q5 -4 15 -4q23 0 83 31t96 31q29 24 81 24z" />
    <glyph glyph-name="o" unicode="o" horiz-adv-x="1303" 
d="M646 1094q63 -16 127 -36q56 -4 108 -48q54 0 186 -170l62 -110l9 -125l12 -110q-17 -137 -58 -258q-55 -77 -84 -114q-23 -44 -45 -75l-74 -22l-52 -44h-22l-64 -2q-14 -12 -122 -26q-22 0 -100 36q-57 6 -147 50q-44 60 -107 95q-27 56 -54 94q-31 59 -46 96l-13 77
l-8 55l8 66l-8 62l12 51v24l2 54q0 18 49 82q31 48 38 91q127 131 180 131q42 31 116 46q52 30 95 30zM449 752v-2l-20 -58l-36 -50l-11 -94v-38q0 -89 30 -122l31 -40l10 -45q0 -30 60 -69l61 -14l56 -37l28 -4q2 0 47 15l40 29l53 19l33 41q51 25 64 72l-1 79l25 59
l-16 38l5 68l-24 59l-15 76l-52 51q-29 53 -85 77l-83 9h-10q-94 -11 -133 -68q-57 -39 -57 -51z" />
    <glyph glyph-name="p" unicode="p" horiz-adv-x="1394" 
d="M713 1073l19 2l50 -15l65 6q24 -6 63 -32l60 -21l69 -25q40 -54 54 -96q80 -69 95 -96q10 -85 57 -164v-16l-19 -53l15 -40v-14l-15 -92l7 -65v-11q-54 -77 -61 -141q-12 -27 -79 -67q-44 -23 -44 -92l-26 -14l-68 2q-52 -42 -70 -42l-45 -6l-14 -11l-53 20
q-60 -18 -85 -18l-39 11l-45 5l-43 12l-40 -52v-11q20 -30 20 -62l-16 -44q0 -10 57 -36l26 -2l73 -21q33 -12 34 -72l-2 -57l-62 -31l-84 10q-49 -5 -91 -14h-13l-63 19l-26 1l-91 -12l-74 26q-48 22 -48 57v48q0 68 93 68l63 22q14 8 20 36q-12 38 -12 72l16 63l-8 60
l11 54l-15 55l4 59q0 37 -35 70v24q19 57 19 62q-25 116 -25 145l18 55l-1 19q-10 31 -23 65l-1 14l11 65l-34 48l-54 24q-51 19 -51 72l-12 58q0 74 155 94h35q17 -12 25 -12l36 4q54 0 87 -48l15 -8q37 0 98 51q76 12 117 35zM540 710l17 -43q-28 -32 -28 -44l16 -40v-8
q-12 -28 -28 -49l40 -52v-19q-26 -33 -31 -51q-1 -3 -1 -6q0 -19 28 -61q0 -56 52 -106q27 0 87 -48q24 0 80 -20q9 0 41 32h40q16 0 16 50q28 22 49 22l32 -4q6 0 17 56q34 23 34 34l-20 48v13l32 50l-32 59v15l28 34q-32 38 -32 66l12 44v8q-25 36 -86 65l-23 48l-62 9
l-37 29l-55 4q-41 -1 -85 -35h-4q-47 0 -93 -71z" />
    <glyph glyph-name="q" unicode="q" horiz-adv-x="1360" 
d="M523 1068q92 -10 148 -10l60 12q33 0 93 -48q49 0 81 -28h6q0 4 37 38l13 12h28q40 -16 65 -50q27 -29 27 -54l12 -57l11 -54l-11 -45q2 -7 2 -12q0 -6 -4 -6l13 -57l-11 -86l8 -93l-8 -45l-6 -38l18 -86l-24 -42v-19l15 -33v-28l-18 -32l20 -65l-15 -73l15 -59l-11 -62
l11 -52l-9 -39q15 -42 59 -49h15l28 -5q50 -12 74 -36.5t24 -72.5v-20l-38 -38l-44 8l-58 -24l-69 20q-22 -7 -97 -16q-24 6 -44 6q-17 0 -40 -6t-44 -6l-68 16q-8 0 -35 -20q-56 0 -88 107q27 75 95 75q115 4 115 67q0 9 -2 19l19 52l-14 29l2 20l-12 10l-30 -11l-57 3
l-26 -24l-14 -13h-18q-17 20 -39 27l-30 -5l-34 -13l-56 18l-47 -10l-29 29l-43 -3l-24 -5q-22 0 -52 58q-71 16 -71 24q-7 1 -23 82q-35 51 -70 78q-11 29 -11 76l-32 60v24l8 44v4l-17 78l9 56l-8 49l20 73l14 89q0 20 58 67q19 29 35 78q43 41 133 70q27 25 91 69z
M662 811l-85 11q-7 0 -30 -38q-33 -7 -42 -7q-4 0 -4 1l-12 -54q-33 -21 -55 -36q-32 -56 -33 -78l5 -84q-9 -25 -19 -47l11 -43l-8 -33q18 -48 66 -81q22 -39 41 -91q0 1 4 1q9 0 36 -4l23 -31l17 -11h5l48 16h21l51 -40q91 25 116 90l43 26q17 15 17 55q0 9 -1 20l20 29
q0 12 -26 62l18 55l-20 64v13l12 50q-15 37 -39 68l-9 52l-47 51q-30 37 -53 37h-8z" />
    <glyph glyph-name="r" unicode="r" horiz-adv-x="1440" 
d="M1033 1099q52 -30 123 -47l80 -93l49 -56l20 -81l12 -99q0 -28 -52 -111q-14 -26 -45 -45q-41 -28 -113 -33h-7l-56 4h-7q-41 17 -84 95q32 36 32 43l-56 84v25l38 12l14 23q0 17 -73 30l-22 -19l-40 -35l-72 22q0 -4 -15 -62q-60 -34 -78 -82l-12 -42l7 -40l-15 -39
l21 -63l-16 -49l11 -63l-12 -64q10 -48 54 -110h5q30 0 68 10l23 -2q28 0 77 -25l70 -39v-60l4 -24q0 -32 -51 -75q-47 -5 -93 -20l-76 25h-8q-4 1 -7 1q-27 0 -80 -21h-16l-77 24h-6l-54 -12l-51 -10l-24 -3q-19 15 -75 21l-57 -4l-36 -6l-38 2q-35 0 -64 132q0 43 100 84
q37 16 73 16h21q31 -18 52 -18q42 52 50 81l4 27l-19 78l10 43l-24 60l-1 16l12 51q-10 18 -10 54l23 56l-23 14l-3 29l7 37l12 37q0 18 -111 39l-59 8l-35 -12h-28q-54 58 -67 114v38q20 51 59 78l121 35q52 -9 90 -18l43 2l49 -21l62 -2q54 -42 81 -45q11 4 137 54z" />
    <glyph glyph-name="s" unicode="s" horiz-adv-x="1301" 
d="M570 1064l92 -17l52 15l64 -11q41 -36 52 -36q25 0 107 27l23 5q54 0 57 -103l38 -64l-8 -84l25 -49q-1 -120 -28 -126l-23 -3q-59 36 -127 81q-18 43 -78 120l-107 48l-45 -11l-45 22q-5 0 -50 -27h-13l-60 -2q-1 0 -23 -38q-38 -33 -39 -34l-4 -5l2 -2l38 -42
q34 -50 73 -50h6l58 3l48 -33l32 -4l67 -9h23l30 -41l33 9l25 2l56 -43l83 -15l73 -47l25 -41q0 -23 32 -60l12 -18l-4 -21l-19 -55l13 -59l-26 -47l-13 -60l-48 -38l-40 -53l-24 -12l-51 -4q-13 -2 -49 -43l-25 -8q-37 13 -97 13h-9q-58 -16 -84 -31h-12q-94 40 -115 41
l-47 -20l-59 26l-23 3q-60 -10 -109 -50l-30 8q-38 25 -38 83q0 16 3 34l-3 19l-25 48q-17 23 -17 44l-1 102l-16 51q1 80 33 126l29 5q43 -29 86 -46l17 -48v-2q35 -22 82 -48v-11q7 -41 12 -41l54 -34q39 -38 39 -42q32 -21 66 -21q22 0 45 8q51 -14 70 -14h3l53 32l49 -5
q5 2 16 34q33 5 68 32l26 74v16q-17 38 -44 44l-46 5l-30 18l-43 14q-6 0 -84 -17h-13q-22 17 -64 43l-57 -16h-12q-23 27 -43 27l-95 14q-33 25 -72 45.5t-96 104.5q-17 22 -17 43l8 64l-5 64l41 88q45 38 76 79l33 17l53 45q35 -2 63 -2q78 0 91 17z" />
    <glyph glyph-name="t" unicode="t" horiz-adv-x="1228" 
d="M524 1458q55 0 103 -140l-9 -27l5 -58l-14 -56l12 -40q-10 -23 -10 -37q0 -20 22 -20q6 0 14 2l58 19l13 2l59 -21l64 16l44 -24l44 9q61 -31 61 -83l-4 -24v-12l4 -16q-5 -51 -91 -85q-36 -19 -67 -26q-29 7 -74 22l-12 3l-24 -4l-34 -7l-43 -16q-13 -8 -13 -24
q0 -6 2 -14l7 -28l-31 -113l11 -38v-14l-11 -29l12 -73l-12 -57l14 -37l-6 -43q13 -18 52 -29l-13 -54l41 -19q8 -25 42 -33q6 -1 12 -1q29 0 40 38l11 41l31 25l15 37q25 18 49 50q63 34 123 34q64 -49 79 -95l12 -43q-2 -75 -44 -126q-47 -31 -84 -95q-53 -28 -122 -97
h-20l-20 3l-67 -26l-68 38l-27 1l-38 2l-62 50l-47 10l-41 71q-39 28 -52 42l2 57q0 12 -36 79v11l8 39l-18 57l12 59l-15 57l9 50l-13 61l17 58v11l-13 50l8 34q-6 16 -50 50q-30 0 -90 -31l-28 -5q-38 2 -136 53q-23 24 -23 55v32q0 73 78 95q40 11 69 25l50 -8h5l48 12
h13l59 -19l1 6l-13 69l13 24l-16 64l17 69l-4 21v6q0 69 114 119z" />
    <glyph glyph-name="u" unicode="u" horiz-adv-x="1450" 
d="M199 1072l46 -4l25 4q40 -8 78 -22t104 -99q38 -29 38 -118l-6 -51l4 -35l-8 -39l12 -74v-36l-7 -30l11 -48l-11 -58l19 -50v-10l-12 -48q0 -38 67 -85q20 -61 32 -61l59 -1l64 -15q44 4 63 30q11 23 59 36q41 11 50 57l-4 44q0 18 28 58l-28 44v11q0 22 23 56
q-2 10 -31 40q0 34 42 85v1q-20 28 -30 65q11 31 11 47q0 3 -1 6q-44 52 -71 52q-135 12 -135 96v22q68 98 122 98l64 -16q57 0 126 28h13q105 -50 105 -117l28 -110l-8 -61l8 -66l-19 -55l12 -51l-16 -62l23 -55l-8 -70l9 -46l-21 -87v-1q1 -23 8 -41q35 -26 43 -26l44 12
q67 0 87 -135q0 -77 -162 -113h-17q-99 11 -181 63q-9 2 -18 2q-35 0 -70 -32q-35 -1 -101 -34h-21l-80 20l-57 -2l-55 -2q-18 5 -78 44l-76 23l-45 79q-72 62 -103 217l4 49l-13 58l17 54v14l-12 40v17l11 46l-12 52l20 73q-7 36 -56 55q-58 26 -59 58l8 45l-16 67
q4 50 47 98h14z" />
    <glyph glyph-name="v" unicode="v" horiz-adv-x="1308" 
d="M240 1069q95 -17 139 -17l98 11q24 0 69 -27q57 -20 57 -84v-4q-38 -28 -66 -54t-28 -66q0 -12 4 -28l-6 -63q3 -39 35 -88q13 -78 52 -114q-1 -10 -1 -21q0 -52 25 -102l18 -34l19 -2q30 18 37 71l36 62q6 17 8 60q24 27 34 53l18 83l30 58v7q0 52 -16 78q-21 23 -53 51
q-54 12 -54 40v22q63 88 114 88l78 16l85 -21l163 13l84 -56v-26l-5 -24l-24 -62l-56 -33l-81 -62q-28 -38 -35 -82l-13 -87q-23 -29 -48 -74q-14 -40 -23 -103q-48 -63 -51 -114l-8 -36l-32 -81l-14 -59q-18 -25 -47 -59q-35 -45 -54 -102q-19 -28 -48 -28l-42 3l-29 1
q-49 0 -131 131l-8 26l-2 26l-47 74q0 36 -8 97q-18 35 -50 72v6q0 64 -38 98v11l-10 71l-40 71l-2 63q-3 13 -60 70q0 40 -53 70q-35 37 -73 37q-39 28 -39 68q0 12 4 24q12 59 188 81z" />
    <glyph glyph-name="w" unicode="w" horiz-adv-x="1534" 
d="M335 1044q52 -20 99 -20l28 2q42 -13 68 -33l3 -28q-34 -34 -58 -71q-16 -50 -16 -63q22 -41 35 -77l-10 -17q16 -80 66 -135l-1 -14q-22 -42 -22 -44t28 -38v-22l-6 -33l6 -5q4 0 16 53l-4 48l28 47l-28 60v20q31 29 33 39q-3 17 -23 47l-1 14q16 20 43 51q-3 17 -27 48
q10 44 64 87q15 39 73 57l34 3l1 -1q45 -1 73 -18.5t78 -52.5q-6 -30 -12 -52v-12q13 -27 25 -48v-16q-21 -35 -21 -36l35 -49l1 -61q0 -7 36 -58v-16l-7 -42l31 -50v-20l-2 -10l5 -4q10 6 17 18q-4 27 -10 60q0 19 32 57l-1 69l19 40v41l24 39q0 51 -24 81l-23 30
q-17 18 -32 41l19 41q30 37 76 51l72 -14q34 12 58 18l55 -17l42 7h24q46 -28 91 -74l-3 -30q-97 -69 -130 -118l-9 -63l-30 -47l-8 -52l-17 -21q-17 -21 -17 -26l14 -53q-49 -48 -49 -148v-19q-25 -28 -40 -67l8 -43l-39 -84q14 -26 14 -58q-27 -23 -59 -104
q-19 -19 -86 -38q-20 -11 -49 -11q-27 11 -45 38l-12 38l-50 105l9 38l-14 41v8l10 32q0 5 -44 35v16l13 52q-21 26 -21 52l7 53l-25 64l-5 -4l7 -44v-18l-58 -62v-2q18 -29 18 -52l-26 -62q26 -45 26 -62v-12q-60 -58 -60 -170q-27 -44 -77 -62q-54 -36 -75 -36h-14
q-39 7 -87 131l5 16q0 10 -44 92l-8 9v13l4 44l-40 72l-2 11l4 53l-29 64q-3 54 -9 72l-36 59l1 59q-25 35 -32 55l7 48v6q0 44 -68 70l-48 28l-40 46q2 69 55 101q32 22 56 22l69 -9z" />
    <glyph glyph-name="x" unicode="x" horiz-adv-x="1498" 
d="M895 852l-34 42q-26 31 -36 58v8q0 52 85 77h11l85 -16l69 19l95 -17l59 26l81 -44q29 -27 29 -57q0 -40 -19 -96q-11 -44 -42 -46q-19 25 -53 26l-70 -8l-45 -59q-46 -17 -60 -35q-17 -34 -26 -77q-33 -26 -44 -38q-17 -22 -17 -49v-3q-39 -14 -49 -36q11 -32 29 -48
l38 -28l2 -24q11 -54 52 -65l18 -57l57 -27l13 -11q2 -22 11 -42t58 -23q18 -25 55 -38l3 -1l32 8q31 -12 47 -40q9 -28 9 -51q0 -36 -21 -61l-31 -37h-23l-73 13h-23q-68 -26 -85 -26h-13l-62 23l-31 3q-24 0 -86 -10h-14q-34 0 -52 35v10l-2 44l6 17l44 37q24 24 24 42
q0 6 -3 14l-20 28l-32 24v7q0 21 -12.5 45.5t-80.5 57.5q-55 -40 -55 -65v-34l-28 -20q-35 -20 -35 -39q0 -25 38.5 -61t43.5 -76q-27 -74 -59 -74h-9l-83 10q-34 -4 -88 -32h-29q-87 15 -122 16l-79 -5h-18q-49 0 -72 131q0 52 70 65q32 0 83 40q31 10 87 26l39 55l49 40
q22 39 34 97q29 3 52 23q6 19 10 40q25 23 31 45q-22 42 -74 42q-14 48 -17 69l-13 12l-1 -1l-37 4l-13 13q1 11 1 21q0 35 -9 50l-57 4l-1 32q-14 30 -77 48h-10l-70 -28h-11q-18 0 -50 62q-20 31 -20 62v15q46 94 87 94l72 -9l130 26l89 -23l58 5l39 5h5q67 0 88 -76
l-4 -23q-62 -86 -62 -108q0 -3 8.5 -13.5t38.5 -38.5q-5 -14 -5 -26q0 -13 6 -23q20 -25 42 -25h4q40 0 91 65q24 12 42 36q17 23 17 53z" />
    <glyph glyph-name="y" unicode="y" horiz-adv-x="1475" 
d="M1120 1085l70 -15l76 13q80 -26 93 -53l16 -50v-30q0 -58 -45 -81l-46 -25q-86 -16 -92 -114q-40 -32 -42 -91q-33 -8 -54 -62l-6 -59q-7 -12 -42 -65l-7 -61l-34 -37q-18 -39 -18 -57v-41q-20 -41 -48 -88l7 -67q-33 -51 -49 -74l-6 -81q-18 -20 -46 -63l-11 -54
q-41 -66 -65 -92l-26 -49l-81 -51l-72 -12q-3 0 -69 -20h-24q-102 31 -176 48l-12 32l-24 -24q0 4 -76 77q-36 23 -67 127q-5 43 -5 72q0 53 55 136q86 84 125 84q28 0 91 -33q53 -39 71 -74q10 -21 10 -61q0 -29 -5 -67l-20 -67q5 -39 27 -47q57 5 75 33q21 24 29 66l35 32
l9 64l15 14q31 40 31 46q-10 33 -26 59l6 67l-12 28l-37 41l-7 17q-7 75 -7 78q-41 54 -45 59l4 48l-4 16q-36 44 -72 86q-11 38 -15 86l-8 19q-52 25 -65 45l-3 48q-4 39 -21.5 58t-70.5 33q-31 -10 -81 -42l-18 -1q-19 4 -40 75q-14 22 -14 89q0 71 100 97l66 16l91 -15
l86 20l97 -29l58 4q64 -25 68 -53l5 -28q-2 -28 -30 -59l-13 -30q-27 -47 -27 -80q0 -6 1 -12v-19q3 -27 42 -54l8 -11q-2 -11 -2 -28q0 -16 2 -37l60 -71l-2 -28l-9 -41q7 -10 31 -24l23 -56l12 -2l28 39q17 21 17 55l-4 36q1 26 40 66v5l-16 44v15l29 33q2 7 2 13
q0 14 -11 27l4 11q28 40 30 55v1q0 15 -37 42q-26 39 -53 55q-29 17 -34 36v12q0 32 58 69q28 11 81 34l97 -17q18 9 71 21z" />
    <glyph glyph-name="z" unicode="z" horiz-adv-x="1319" 
d="M361 1072h21q67 -28 96 -28h16q34 0 75 20h16l72 -20q44 0 125 29l84 -33q31 0 60 7l59 9h18q52 -29 75 -101q0 -67 -37 -133q-30 -37 -61 -90q-36 -22 -59 -35q-40 -47 -46 -78l-58 -34q-8 -25 -25 -66l-57 -30l-9 -20l-18 -47l-9 -7l-45 -31q-11 -8 -31 -69
q-85 -59 -86 -79q0 -9 18 -9q24 0 82 16h16l54 -23l21 2l67 20h20l62 -27l19 -2q38 26 42 58l-7 44l18 56l-7 43v18q11 29 79 77q36 27 61 27q35 0 59 -89q12 -23 17 -60l-15 -59l4 -48l-17 -62l4 -66q-14 -63 -72 -109q-55 -45 -106 -55l-57 23l-90 -20l-38 12l-86 -15
q-22 0 -81 31l-118 -32q-88 25 -112 25l-72 -27l-15 -1q-60 22 -90 119q-6 40 -7 80q11 47 63 105l67 70q60 19 69 36l27 61l64 41l50 73l64 36q16 22 42 81q25 21 76 50l29 70q37 23 37 33q0 8 -22 8q-13 0 -35 -3q-33 -5 -82 -18l-47 13l-19 3q-28 -12 -53 -27
q-85 -6 -95 -73l12 -60q-29 -69 -99 -100q-32 -23 -69 -23h-16q-41 0 -66 141l13 70l-10 64v26q37 55 46 134q56 35 125 78z" />
    <glyph glyph-name="braceleft" unicode="{" horiz-adv-x="789" 
d="M637 -124l23 -82q-21 -25 -49 -25q-8 0 -17 2q-108 31 -160 97q-42 46 -89 113l-44 45l-9 88l-61 84l-6 132l-5 30l-61 133q20 82 34 157l-22 91l11 52l19 47l-9 95l36 91q20 28 39 96q2 81 33 101l44 37l28 67l63 59q65 44 129 82l64 -9q33 -15 34 -40v-5
q0 -64 -81 -183l-34 -103q-85 -67 -85 -102v-1l4 -18l1 -34q-30 -53 -30 -56q1 -11 19 -52q-25 -47 -53 -130v-27l24 -68l-29 -65v-5l33 -87l-15 -38l-9 -52l17 -40q2 -65 60 -104q26 -94 27 -104l49 -48q2 -39 28.5 -79t48.5 -142z" />
    <glyph glyph-name="bar" unicode="|" horiz-adv-x="445" 
d="M264 1382l26 -91l-12 -103q1 -9 14 -74l3 -20l-15 -76q3 -55 9 -94q-9 -30 -9 -64q0 -23 4 -49q-5 -44 -12 -76l11 -68l2 -20l-8 -74l11 -84l1 -21l-14 -57l8 -88l-12 -78q6 -53 12 -80q-5 -34 -19 -79q2 -17 2 -33q0 -37 -12.5 -73t-59.5 -73l-24 -9q-70 17 -93 49
q-21 45 -21 96q0 26 5 53l-5 74l4 16l9 63q-8 25 -8 73q13 49 13 71v5q-7 43 -15 85l18 72l-16 85q-3 8 -3 18q0 22 12 56v18q-8 45 -9 84q10 37 10 64q0 20 -5 36q-2 20 -8 39l13 62l-16 71v17l15 54q-9 43 -20 77q0 24 18.5 87.5t81.5 92.5q20 9 39 9q40 0 75 -43z" />
    <glyph glyph-name="braceright" unicode="}" horiz-adv-x="784" 
d="M144 1352l-21 77q12 28 62 28h3q108 -31 159 -98q42 -46 89 -114l43 -45l10 -88l60 -84l4 -133l4 -30l62 -133q-21 -81 -36 -157l22 -90l-11 -53l-20 -46l9 -95l-36 -91q-20 -28 -40 -96q-3 -81 -33 -101l-45 -37l-29 -67l-63 -58q-65 -43 -129 -82q-36 -8 -57 -8
q-26 0 -33 17t-8 41v3q0 66 83 185l34 102q85 66 85 101v2l-3 18l-1 34q30 53 30 56q-1 11 -18 52q25 47 52 130l1 27l-23 68l29 65l-1 5l-32 87l16 38l9 52l-16 40q-2 65 -60 104q-25 94 -28 104l-47 49q-2 39 -28.5 79t-47.5 142z" />
    <glyph glyph-name="asciitilde" unicode="~" horiz-adv-x="1015" 
d="M413 1498l-29 22h-4l-33 5q-16 9 -32 9q-20 0 -39 -13l-12 -8l-43 -14l-30 -33l-34 -26q-23 -11 -52 -14h-4q-26 0 -41 22q-10 13 -10 36q0 18 6 42l9 22q15 25 39 81q51 26 65 59l11 12l46 19q21 26 81 44q7 1 14 1q40 0 80 -7q33 -27 48 -34l60 -24l42 -42q35 -8 57 -8
q15 0 24 4l23 26l37 6l29 42q47 20 99 26q45 -8 45 -48v-2l-12 -42q-17 -70 -47 -105q-25 -13 -53 -32l-25 -36l-8 -8l-47 -23q-37 -31 -77 -31q-2 0 -24 0.5t-68 18.5l-28 27l-46 12z" />
    <glyph glyph-name="exclamdown" unicode="&#xa1;" horiz-adv-x="636" 
d="M115 1257q12 30 32 65q49 43 155 63h12q41 -2 129 -70l14 -19q16 -27 29 -81v-10q0 -16 -17 -86q-24 -66 -75 -94q-35 -26 -74 -26h-3q-78 0 -156 49q-29 31 -40 66q-13 35 -21 60q10 73 15 83zM289 953q27 0 55 -28q22 -19 45 -72v-14l13 -52v-3l21 -60v-10l-1 -64v-13
l15 -36l-2 -60q8 -29 16 -64q-2 -18 -2 -34q0 -60 20 -101l-10 -98l23 -67l-7 -43l-3 -15l11 -38v-11q-17 -81 -86 -122l-26 -9l-43 -9q-40 -5 -68 -5q-77 30 -113 112q0 17 -20 79v18l17 42l-10 61q0 26 32 98v74l11 56l-5 78q14 37 19 70l8 52l-4 36v73q23 96 33 132.5
t32 46.5h29z" />
    <glyph glyph-name="cent" unicode="&#xa2;" horiz-adv-x="1199" 
d="M699 2q-13 -21 -13 -44q-7 -50 -14.5 -77.5t-39.5 -84.5l-36 -19l-115 42l-43 96v17q0 62 -39 75q-34 10 -59 29l-67 28q-17 19 -44 84l-66 60l-44 100l-39 87q-13 75 -13 101v1l-17 64l17 50l17 141q38 40 51 106q74 57 144 135l117 61q22 5 41 8l12 29l-1 51v6
q-8 37 -8 55v9q18 34 71 76h14q145 0 145 -83q6 -40 8 -73l-3 -38l11 -27q35 -18 44 -22l51 -6q36 -32 85 -87q50 -25 81 -99q36 -26 40 -80q1 -14 1 -27q0 -39 -9 -72v-9q-25 -81 -118 -103l-40 -10q-51 0 -103.5 53t-58.5 72v11q-6 19 -6 39q0 42 27 86q-14 52 -100 52
q-9 0 -19 -1h-3l-34 -27l-59 -11l-45 -50l-49 -20q-38 -43 -38 -96v-3l-17 -45l10 -64l-4 -69l8 -37q16 -68 75 -83q17 -62 58 -93l47 -7h8q29 -20 57 -27l63 10l34 38l75 27l29 30q23 8 86 51q43 19 86 21h1q42 0 42 -120q0 -122 -64 -157q-68 -31 -92 -73q-30 -10 -60 -19
l-44 -16q-20 -6 -32 -22z" />
    <glyph glyph-name="sterling" unicode="&#xa3;" horiz-adv-x="1538" 
d="M346 822l14 19l-12 59v19l16 52v2l-32 40v17l9 38q-65 52 -73 52h-36q-14 0 -71 -32h-21q-51 0 -56 141q1 50 50 92l9 4q34 15 94 31h15q19 0 69 -14q19 -6 40 -6q36 0 97 19h19l84 -19q27 6 91 21l17 4l55 -15l30 -10q80 -14 86 -89q-18 -131 -34 -158l-38 -19l-70 35
l-54 6l-57 -60l11 -33l-27 -53l17 -27l4 -19q-11 -32 -20 -55l7 -18l18 -10l26 -6l44 -6l20 1q61 9 78 9h9q62 -34 87 -92l-1 -23q0 -100 -84 -118q-40 -6 -91 -19h-15l-39 -3l-17 -10l-17 -46l33 -66l-1 -16q-23 -33 -23 -53q9 -19 28 -34v-14q-18 -33 -34 -60l31 -39l9 -9
l-24 -70l12 -6q44 2 96 12h14l53 -20l46 -16q13 7 80 32l66 -20q11 -3 20 -3q31 0 45 31q4 9 4 20q0 27 -23 67l2 17q25 27 25 59q0 25 -16 54q13 41 29 83q19 50 58 103l33 33q45 0 120 -97q23 -65 23 -135q0 -10 -1 -21v-12q-23 -39 -33 -102l17 -64v-24q-10 -23 -15 -67
l11 -69q-41 -95 -126 -119q-78 -14 -97 -16q-55 22 -63 22q-58 0 -129 -25l-22 1l-81 18l-20 2l-65 -19l-9 -1l-84 24l-18 -5l-81 -27h-33l-97 28h-13l-79 -21l-100 15q-65 14 -65 119q21 139 81 139l51 -29l35 22h21l29 -21q47 35 47 46q-16 24 -16 55l29 54q-25 38 -25 57
v6l12 48v8q-20 28 -20 62l19 49l-12 62l-26 22q-10 0 -18 -1l-58 -8l-18 2q-53 16 -105 22q-57 25 -75 68q-1 8 -1 15q0 58 43 100l96 39h16q85 -8 140 -8h1z" />
    <glyph glyph-name="yen" unicode="&#xa5;" horiz-adv-x="1502" 
d="M868 688q25 1 55 2q97 -21 115 -37l26 -59v-3q0 -34 -87 -44l-50 -19h-19l-93 13h-10l6 -26l-21 -68l6 -17q8 -1 13 -1l23 2q45 6 62 15h20q17 0 70 -23q82 -26 82 -50v-21q-11 -52 -52 -56h-65l-40 -4q-77 -15 -106 -15q5 -18 5 -38q6 -69 72 -87l49 -16l41 6l44 -22
l36 6q80 -84 80 -131q-28 -55 -47 -62q-35 -32 -121 -49h-11l-84 24h-19l-77 -18l-19 1q-74 19 -94 19h-3l-60 -20l-34 -1q-55 23 -67 23q-42 -7 -80 -18l-44 -15l-19 3l-50 43q-39 23 -39 88q1 61 55 97l49 24l56 -16l44 28q61 4 68.5 32.5t7.5 40.5l5 54l-3 11
q-56 -10 -77 -10q-134 23 -166 54v11q35 108 68 108h20q71 -13 84 -16l66 11l9 24l-6 54v11l-94 15l-27 -2q-46 -7 -66 -7q-30 0 -53 51q-11 7 -26 34q0 37 126 74l45 4l51 -2l-2 7l-49 52l-7 21l-20 52q-32 37 -60 63l-18 62l-50 57q-5 38 -34.5 70t-152.5 35
q-55 55 -55 89q33 124 92 124l104 -12l68 23l21 2l99 -15l14 1l67 21l21 -6q40 -12 84 -114q-28 -75 -87 -117q-13 -23 -17 -44q8 -28 17 -39q23 -19 45 -37l17 -57q18 -23 34 -30l11 -48q0 -12 45 -24q9 7 29 35q16 23 16 65l7 19q26 10 42 52v43l10 18q29 24 33 48
q0 19 -85 54q-24 19 -24 42q0 4 1 9q14 47 94 115q12 11 38 11q30 0 79 -16l78 20q28 -27 63 -27q28 0 61 19q39 -22 84 -38q57 -18 57 -84q-7 -71 -68 -95l-34 -10l-38 -8q-24 -8 -49 -24.5t-49 -45.5l-9 -61l-7 -17q-52 -39 -52 -105l-7 -8l-32 -36l-5 -13l-2 -45l-4 -9
l-42 -39z" />
    <glyph glyph-name="brokenbar" unicode="&#xa6;" horiz-adv-x="1941" 
d="M557 1044q19 14 50 23l86 -116l-140 32q-1 12 -1 22q0 24 5 39zM772 836l9 -18q-34 -42 -63 -75l-17 -67q-50 -24 -79 -58l-8 -49l-5 -18l-78 -67l-3 -4l-22 -79q-35 -33 -61 -53q-36 -59 -45 -133q-71 -55 -122 -181q-41 -33 -142 -72h-30q-56 56 -56 104q0 59 44 150
q0 19 89 106l36 85l72 75l46 112l59 63l27 98q51 38 108 123q5 17 18 47l133 -6zM1009 1162q21 -8 36 -8q44 0 110 33l40 22l43 -6q13 0 72 14l55 41q21 -1 52 -1h34q39 9 74 37q21 0 44 2q20 5 64 5q36 0 86 -16q21 -26 51 -46l11 -11q10 -14 10 -32q0 -42 -19.5 -70.5
t-38.5 -48.5t-75 -53q-26 3 -48 3q-21 0 -39 -3q-18 -5 -91 -54l-112 16l-18 -5l-63 -44l-42 6l-39 3l-67 -27q-43 -3 -82 -13l-86 -33l-12 -5q-60 -12 -131 -23l-15 22l-27 68l129 187q48 17 94 40zM790 1054v145l28 -2l18 -27l-5 -46q-2 -18 -41 -70zM698 1060l-75 160
q0 20 6 44h14q15 0 32 -1l40 -52z" />
    <glyph glyph-name="section" unicode="&#xa7;" horiz-adv-x="1125" 
d="M508 1546l87 -5q154 -26 177 -67l13 -25q66 -62 80 -149l1 -12l-1 -11q-6 -102 -65 -120q-51 -15 -109 -42l-14 1q-29 2 -78 22q-59 31 -66 100l-1 53q-6 30 -30 42q-7 4 -16 4h-2q-23 0 -57 -18l-9 -9q-7 -14 -7 -27v-5q0 -19 14 -38l-29 -38l30 -32q5 -40 18 -44
l53 -22q9 0 20 -46l15 -17l41 -9q18 -7 34 -58l8 -5l49 -12l15 -7l12 -42v-1q0 -2 61 -38q25 -46 41 -71l33 -18q60 -59 68 -142q15 -15 23 -64l-9 -38q6 -18 6 -98q-22 -33 -36 -108l-79 -63q-24 -14 -26 -35q0 -3 0.5 -16.5t19.5 -47.5v-33l18 -52l1 -89q-23 -89 -76 -162
l-15 -15q-47 -14 -81 -56q-20 -8 -63 -8l-34 -1q-38 -8 -75 -8q-12 0 -23 1q-20 1 -39 4q-24 2 -95 22q-69 38 -99 73q-44 33 -65 83q-9 30 -9 55v9q2 33 20 58q38 90 151 110h8q47 -3 85 -21.5t49 -86.5l-1 -19l-14 -43q0 -45 38 -63q91 13 94 80l1 6q19 28 21 59v9
q0 9 -1 18q-35 72 -81 80q-20 28 -30 49l-6 3l-44 9q-19 31 -31 52h-3q-25 13 -60 29l-11 17q-1 20 -8 43l-6 9q-39 12 -82 29l-27 49l-50 27q-42 44 -60 88l-21 38l-1 41q-8 41 -14 73l25 65q0 17 1 33q2 38 9 74l40 53q9 29 18 55l39 25l5 16l-3 27l6 40l1 11v8
q0 27 -11 50q-13 33 -18 66v14q4 57 19 84q41 38 47 87q74 68 181 94zM347 889q-29 -16 -55 -93v-1l13 -55l-10 -34q0 -15 59 -72l55 -24q13 -61 50 -64q4 0 9 1l13 -15l17 -51q32 -35 76 -44q28 -7 48 -8h8q8 0 14 1h1q26 0 34 44q20 16 23 69q1 9 1 19t-1 20l-3 45l-7 18
q-33 50 -66 52q-29 56 -34 62l-32 15l-27 23l-14 29q-4 18 -5 18l-49 6l-19 4l-22 22l-42 11z" />
    <glyph glyph-name="dieresis" unicode="&#xa8;" horiz-adv-x="1056" 
d="M770 1437l-19 1l-46 9l-33 6q-62 17 -114 90q-15 40 -15 84v6l1 5q9 60 66 113q59 38 126 43l10 -1q22 0 88 -34q34 -27 45 -69q6 -33 27 -84q-4 -53 -31 -91q-20 -26 -40 -35t-43 -29zM248 1441q-101 7 -161 69l-33 54l-4 23l5 55l-5 32q16 61 68 83q29 25 92 32h18
q46 -1 82 -18t74 -83q21 -40 21 -57v-1q-15 -55 -20 -110l-24 -20q-29 -21 -45 -33q-39 -26 -68 -26z" />
    <glyph glyph-name="copyright" unicode="&#xa9;" horiz-adv-x="1267" 
d="M942 644q32 31 44 65v33q0 12 29 42q0 10 -15 31v8l18 36v4q0 10 -18 32v8l15 37v6q-15 32 -45 59q-4 62 -51 92l-11 9l-33 54l-42 22q-47 55 -108 66l-4 2l-84 -4l-8 1l-28 10h-8q-28 -2 -54 -14q-27 0 -42 6q-13 0 -53 -43q-69 -18 -80 -52l-51 -93l-2 -2l-5 -12l7 -26
l-22 -25q-36 -34 -36 -70l10 -25v-10l-19 -38l29 -39l-1 -24q0 -62 32 -76q3 -32 22 -77l13 -17l22 -12l38 -20l20 -34l41 -20q47 -45 111 -45q10 0 60 21q13 0 67 -17h10q24 0 44 21q89 0 144 52l5 6q28 36 39 72zM567 362h-26q-56 36 -94 36q-31 0 -69 35q-79 22 -79 48
l-72 79q-23 0 -34 75q-46 64 -54 93l4 16v18q-26 20 -26 117l22 32v13l-12 30v18l20 16l-4 39v4q46 38 52 101l21 34q72 40 106 101l68 28l19 29l84 8q47 22 61 22l56 -14h47q14 0 61 22h8q45 -36 57 -36l34 4q11 0 53 -39l20 -4l37 -5q15 -12 31 -41l83 -67l27 -36
q9 -47 45 -99l4 -14l-4 -17q30 -46 30 -58q-18 -20 -18 -36q8 0 22 -33l-26 -44q0 -8 26 -39l-26 -50l7 -30l-49 -57q-16 -28 -27 -75q-49 -42 -57 -70q-26 -13 -45 -55q-18 -12 -68 -24l-38 -33l-65 -6q-44 -29 -68 -34q-30 4 -81 13q-2 1 -4 1q-1 0 -3 -1zM692 1173l6 -1
q32 -19 38 -21l28 -4q20 -17 46 -47q34 -27 48 -51q16 -17 18 -47q1 -7 1 -15q0 -21 -5 -39v-5q-14 -44 -64 -56l-22 -5q-28 0 -56.5 28.5t-32.5 39.5v6q-3 10 -3 21q0 23 15 47q-8 28 -55 28h-12l-18 -15l-33 -6l-24 -27l-27 -11q-17 -19 -17 -40q0 -4 1 -9v-1l-14 -29
l6 -35l-3 -37l5 -20q9 -38 41 -46q9 -34 31 -50l26 -4h4q16 -11 31 -15q37 0 53 26q29 0 57 31q13 5 47 28q24 10 47 12h1q23 0 23 -66q0 -67 -35 -86q-38 -17 -57 -54q-11 -2 -24 -2h-12q-5 1 -9 1q-22 0 -38 -10l-16 -10h-11l-45 8l-7 -1l-12 -3l-51 -5q-13 0 -39 24
l-35 4q-11 22 -25 57l-55 38l-5 43l-36 78q7 17 7 31v1l-9 35l9 27l10 77q20 22 27 58q41 31 79 73l55 34q26 0 42 6q12 4 26 10q16 -1 40 -6h3q22 0 36 7z" />
    <glyph glyph-name="ordfeminine" unicode="&#xaa;" horiz-adv-x="2832" 
d="M1174 1406h47q146 0 273 -115q20 -9 33 -9l93 31q59 18 139 18h13q280 -7 362 -166q15 -28 73 -28q214 0 318 -181q26 -58 26 -124q0 -42 -24 -126v-11q0 -20 60 -94q33 -68 33 -140q0 -167 -157 -244q-61 -26 -79 -82q-39 -113 -122 -157q-87 -44 -192 -44
q-21 0 -151 13q-38 -21 -81 -75q-107 -99 -209 -99h-42q-101 0 -216 104q-18 4 -22 4q-22 0 -95 -55q-106 -60 -232 -60q-182 0 -263 157q-21 24 -50 24h-60q-199 0 -289 139q-35 57 -35 144q0 10 4 75q0 28 -62 99q-66 105 -66 214q0 160 168 225q26 21 26 44q0 19 -2 71
q0 132 137 210q76 35 170 35h6q22 0 104 -7h7q34 0 73 80q58 82 196 119q45 11 88 11zM872 1121q-117 31 -170 31q-145 0 -225 -115q-27 -44 -27 -90q0 -33 25 -106v-7q0 -27 -75 -42q-142 -58 -142 -178q0 -131 133 -254q6 -22 6 -27q-15 -67 -15 -103v-5q0 -155 188 -214
q36 -11 83 -11q40 0 109 16h4q30 0 53 -75q76 -122 210 -122q141 0 267 117q23 32 53 53q18 0 70 -70q97 -93 181 -93h13q112 0 212 130q30 62 53 62h7l123 -27q48 -4 62 -4q158 0 239 124q24 43 24 105l6 11q31 10 75 31q148 71 148 208q0 104 -108 185q-11 15 -11 22v9
q0 9 40 86q11 35 11 62v7q0 118 -144 209q-72 38 -134 38h-2q-37 0 -100 -20q-16 10 -28 48q-19 64 -82 106q-117 62 -236 62q-161 0 -241 -92q-7 -5 -13 -5h-4q-17 2 -62 66q-109 106 -252 106q-152 0 -258 -117q-24 -36 -40 -103q-8 -14 -26 -14zM755 958h7q4 -1 4 -4v-80
q0 -6 20 -9l2 -4v-31q0 -6 -20 -11q-2 -4 -2 -9v-101q0 -18 24 -18q2 -5 5 -20q-3 -31 -11 -31h-40q-31 0 -31 51v126l-20 11v33q0 6 20 9v50q0 38 42 38zM1739 958h7q24 0 24 -29v-6q0 -29 -26 -29q-29 0 -29 31v2q0 31 24 31zM1874 958q3 0 6 -7v-79q0 -4 20 -7v-37
l-20 -11v-111q0 -15 25 -15l2 -4v-31q0 -16 -16 -16h-37q-22 0 -27 33v144q0 4 -19 9v37q0 5 4 5h13l2 11v53q5 26 47 26zM828 874h33q20 0 20 -46q11 -90 11 -97q5 0 17 138l5 5h44l7 -4q-42 -254 -65 -269q-7 -8 -31 -8h-6q-35 6 -35 36q2 18 9 18l15 -2q3 1 4 6l-32 220z
M1000 874h26q16 0 16 -11h2q15 11 29 11h11q46 0 50 -106v-11q0 -117 -50 -117h-14q-12 0 -24 9h-2v-53q-2 -7 -13 -7h-22q-12 0 -14 7v274q1 4 5 4zM1234 874h9q61 0 61 -95v-28q0 -16 -11 -16q-12 0 -72 -2v-11q0 -31 22 -31h4q16 0 51 13l4 -6v-16q0 -44 -62 -44
q-72 0 -72 119q0 88 44 113q17 4 22 4zM1340 874h39q11 -11 23 -126q2 -20 4 -31h2q9 20 9 61v8q0 20 -7 84l7 4h35q12 -2 19 -84q2 -21 3 -68q7 0 22 132q0 18 9 20h40l7 -4q-32 -230 -40 -230h-53q-11 0 -18 51h-2q-8 -51 -18 -51h-50q-13 0 -22 113q-5 37 -16 117z
M1589 874h38q5 0 6 -17h3q11 14 37 17h2q9 -3 9 -20v-24q0 -16 -34 -29q-15 -12 -15 -24v-119q0 -16 -6 -18h-40q-7 2 -7 18v210q0 3 7 6zM1724 874h37q9 -3 9 -15v-206q0 -15 -15 -15h-22q-12 0 -16 9v221q0 3 7 6zM2002 874q64 0 64 -86v-40q0 -13 -9 -13l-75 -2v-5
q0 -37 24 -37h2q16 0 51 13l5 -6v-18q0 -42 -58 -42q-43 0 -64 40q-11 20 -11 55v42q0 71 44 95q16 4 27 4zM2112 874h38q6 0 6 -18q20 18 42 18l7 -9v-39q0 -14 -35 -27q-14 -14 -14 -24v-122q0 -11 -6 -13h-38q-3 0 -6 7v221q0 3 6 6zM1223 804v-25q0 -3 6 -6h25q4 0 4 4
v29q0 12 -13 20h-5q-17 0 -17 -22zM1984 801v-22q0 -3 7 -6h24q3 0 7 6v11q0 36 -20 36q-18 0 -18 -25zM1044 797v-69q1 -35 18 -35q22 0 22 64q0 66 -22 66q-18 -3 -18 -26zM1341 501l3 -4v-80q0 -5 20 -8l2 -5v-31q0 -5 -20 -9l-2 -4v-108q0 -14 24 -18q3 -5 5 -20
q0 -31 -18 -31h-35q-29 0 -29 51v130q-20 3 -20 7v33q0 6 20 9v51q0 37 42 37h8zM2055 503q6 -8 6 -15v-73q0 -4 20 -6v-36q0 -6 -20 -9v-121q0 -4 25 -9l2 -11v-18q0 -17 -11 -22h-38q-31 0 -31 34q0 35 -2 147q-20 0 -20 16v17q0 16 20 16v15q0 64 13 64q19 9 36 11z
M865 501h22q16 0 16 -26q0 -22 -22 -22q-5 -8 -5 -18v-13l3 -11h6q13 -2 13 -7v-31q0 -3 -8 -9h-11v-174q0 -3 -7 -7h-40q-3 0 -6 7v31q0 47 -3 143q-20 0 -20 7v33q0 6 20 9v24q0 64 42 64zM984 417h22q58 0 58 -101v-29q0 -104 -55 -104h-20q-64 0 -64 106v31q0 97 59 97z
M1112 417h36q6 -1 6 -15q23 15 38 15h18q26 -5 26 -26q2 -92 2 -141v-60q0 -3 -6 -7h-36q-6 3 -6 14v128q0 35 -7 42q-29 0 -29 -73v-106q0 -5 -4 -5h-38q-3 0 -6 7v221q0 3 6 6zM1466 417h6q38 0 46 -15v-18q0 -16 -6 -17l-38 4q-17 -3 -17 -18q0 -3 57 -59q11 -26 11 -42
q-8 -69 -66 -69h-9q-39 0 -48 18v35q0 4 6 7h5q31 -11 37 -11h4q18 0 18 20v2q0 20 -55 68q-11 21 -11 31v7q0 37 33 53q15 4 27 4zM1662 417h35q7 -1 7 -15h2q19 15 35 15h18q27 0 27 -48q2 -31 2 -91v-88q0 -3 -7 -7h-35q-7 3 -7 14v121q0 42 -6 49q-29 0 -29 -73v-106
q0 -5 -5 -5h-37q-3 0 -7 7v221q0 3 7 6zM1887 417h13q60 0 60 -97v-26q0 -12 -9 -16h-71q-4 0 -4 -4v-9q0 -31 24 -31q17 0 51 13q3 0 7 -6v-16q0 -44 -60 -44q-75 0 -75 119q0 100 53 115q4 2 11 2zM973 296q0 -64 22 -64h7q16 0 16 71q0 68 -20 68h-3q-22 0 -22 -75z
M1878 351v-29q0 -3 7 -6h17l12 2v27q0 24 -18 24t-18 -18zM1587 247q26 0 26 -35q0 -29 -19 -29h-9q-27 0 -27 31q3 33 29 33z" />
    <glyph glyph-name="guillemotleft" unicode="&#xab;" horiz-adv-x="2003" 
d="M56 1128q0 -98 193 -166q127 -36 231 -36q6 0 53 -34q95 -61 168 -61h3v1q-50 24 -83 97q113 17 173 38q179 68 179 161q0 103 -204 170q-124 35 -256 35q-237 0 -390 -97q-67 -52 -67 -108zM499 1339h33q193 0 350 -80q97 -61 97 -128v-5q0 -105 -211 -175
q-72 -19 -138 -27q28 -58 81 -90v-7q0 -1 -4 -4q-99 0 -224 95q-124 0 -269 49q-164 68 -164 158v11q0 70 120 136q152 67 329 67zM977 904h11q72 0 138 -136q21 -36 31 -42q136 -102 178 -143q65 -7 77 -20l97 -41q36 -19 47 -54q6 -8 11 -24q-6 -3 -17 -6v-2q14 -3 70 -34
q191 -46 222 -80q11 -13 11 -20v-2q0 -3 -3 -3q-10 0 -42 11q0 -5 -2 -8q-6 0 -130 35q-31 8 -94 19q114 -84 140 -99l101 -55l5 -6v-5h-2q-14 3 -15 3v-7q0 -4 -3 -4l-28 8q-2 0 -10 -1q-1 0 -17 9q0 -14 -9 -14q-10 0 -27 11q-1 -8 -5 -8h-3q-9 0 -39 19q0 -2 -5 -5
l-43 24q0 -3 -4 -3h-3q-42 20 -50 20q-14 -3 -20 -3h-3q-8 0 -132 29l-15 2q-28 0 -41 -22l-3 -1q-45 21 -56 21q-10 -1 -10 -4l5 -3q0 -5 -6 -5l14 -13q-6 -2 -6 -4q1 0 1 -2l-8 -1q5 -24 5 -44l-3 -2q0 2 -2 2q0 -13 -28 -53q-23 -64 -23 -69t-2 -11q2 -10 2 -20v-8
q0 -3 11 -11q6 0 15 3q27 -10 27 -30q1 -6 1 -11l-3 -1q-11 28 -22 28h-9q-4 -10 -8 -11q-7 0 -28 11q-7 -14 -23 -31q0 -7 -8 -11h-3l-11 1q-10 -14 -10 -28h-3v16q0 9 25 51l-14 -11h-8q-2 0 -6 7q-3 0 -19 -16v3q0 20 30 25q43 28 45 44q18 53 25 102v1q0 11 -6 52l2 9
q0 4 -2 13q3 11 3 17q-19 17 -28 17v-2l6 -20l-9 -8l2 -3v-1h-4v3h-4q6 -10 6 -14v-2q0 -8 -6 -11h-2l-17 16l-3 -2q-3 2 -5 2q0 -2 -1 -2q4 -8 4 -14l-3 -1h-8l-7 11h-2v-4q2 -33 2 -39q0 -31 -52 -76q-19 -20 -19 -27v-3q2 -5 10 -5l39 11q20 -5 20 -25q0 -3 -3 -3
q-7 17 -14 17q-10 0 -13 -17q-5 -3 -9 -3h-2q-17 0 -42 3q-12 -8 -17 -8h-11q-4 0 -16 6l-7 -1h-4q-6 0 -12 1q-6 -1 -13 -1q-4 0 -4 8q-11 -10 -11 -14h-3v3q0 10 9 22v1q0 3 -8 5q-9 -2 -17 -9h-2q0 12 19 17q3 0 30 -11h22q23 0 23 11q17 7 60 56q0 2 1 5
q-15 106 -33 156q-39 96 -79 136q-1 13 -54 63q-15 26 -17 51l2 26q-6 22 -6 32l-5 -3q-3 0 -3 3q1 3 1 7q-4 0 -4 14h-2v-5h-3v2q0 6 5 34l-2 3q5 17 6 56v4h-1q0 -9 -7 -11h-1v42q0 56 -50 56q-83 5 -83 11q0 12 34 35q59 25 104 26q38 25 65 25zM357 1266h5q11 -1 11 -5
q-2 -4 -4 -5q-8 1 -9 1q-4 0 -4 -7v-3h4q6 0 8 -3v-2q0 -1 -5 -4h-7v-32q-1 -7 -7 -7q-7 3 -7 8v31h-7q-2 1 -4 5q2 4 8 4h3v3q0 16 15 16zM567 1266h4q5 -2 5 -9v-15q8 6 13 6h7q17 0 20 -23v-2q-3 -24 -23 -24q-8 0 -17 7q0 -4 -7 -7q-8 0 -8 9v51q0 5 6 7zM506 1264h5
q1 0 5 -4v-13h7q4 -1 4 -6l-4 -3h-7v-24q0 -4 4 -5l6 1h2q2 0 3 -3v-3q0 -3 -14 -5q-16 0 -16 16v23q-7 0 -7 3v4q1 2 7 2v10q0 5 5 7zM396 1248h6q25 -3 25 -25q-4 -24 -28 -24q-25 0 -28 25v1q4 23 25 23zM440 1248h5q4 -1 4 -7q8 7 16 7h4q17 -2 17 -14v-30q-1 -3 -7 -5
q-6 0 -8 10v22q0 7 -7 7h-3q-10 0 -10 -14v-18q-2 -7 -8 -7q-7 3 -7 8v33q0 7 4 8zM627 1248h5q4 0 15 -35h1q13 35 17 35h4q2 0 4 -3v-1q-21 -61 -32 -61q-1 -1 -5 -1h-7q-6 0 -9 5v1q0 2 5 4h9q3 1 7 9q-18 38 -18 41v3q0 1 4 3zM385 1224q0 -13 13 -15h2q12 2 12 15
q0 15 -14 15q-10 0 -13 -15zM576 1223q0 -14 14 -14q10 0 12 16q0 14 -14 14q-12 -2 -12 -16zM147 1159h2q8 0 8 -9v-46h33q2 0 5 -3v-4q0 -1 -5 -3h-41q-7 0 -7 6v54q0 2 5 5zM274 1159q8 0 8 -12v-23l20 17h4q2 0 5 -4v-2q0 -2 -13 -12q17 -22 17 -25v-2q-2 -3 -6 -4
q-7 0 -20 23q-2 0 -7 -6v-7q0 -7 -6 -9h-5q-1 0 -4 3v57q0 6 7 6zM479 1159q6 0 7 -7v-23q32 30 36 30h1q5 0 7 -5q0 -6 -21 -21q23 -29 25 -35q0 -4 -7 -6q-8 0 -23 23q-6 8 -7 8l-11 -10v-13q-2 -8 -9 -8q-7 3 -7 8v52q0 7 9 7zM659 1159h4q5 -2 5 -9v-26l21 17h2
q6 -1 6 -3v-1q0 -5 -12 -14q16 -21 16 -25v-2q-2 -3 -6 -4q-6 0 -20 23q-1 0 -7 -6v-9q0 -5 -7 -8q-6 0 -7 7v53q0 5 5 7zM208 1141h2q7 0 7 -6v-20q0 -12 9 -12h2q10 1 10 9v20q0 7 5 9h5q5 -1 5 -6v-39q0 -1 -5 -3h-4q-5 2 -5 7q-8 -7 -15 -7h-5q-16 0 -16 18v23q0 5 5 7z
M347 1141h6q21 0 21 -19v-15q0 -1 2 -10v-1q-2 -3 -6 -4q-4 0 -9 7q-12 -7 -20 -7q-19 3 -19 13q0 15 37 18v1q0 8 -7 8h-6q-5 0 -14 -9q-5 0 -7 4v2q3 12 22 12zM403 1141h5q18 0 21 -11v-1q-2 -4 -6 -4q-11 8 -15 8h-3q-6 0 -7 -4q0 -5 27 -10q7 -6 7 -10v-1
q0 -14 -24 -16q-24 2 -24 13v2q2 4 6 4q3 0 11 -9l5 -1h4q6 0 7 3v4q0 2 -26 9q-6 6 -7 10q0 11 19 14zM550 1141h5q4 -1 4 -6h1q0 4 10 6h2q12 0 12 -8q0 -1 -4 -4l-14 1q-6 -4 -6 -13v-15q-1 -10 -7 -10q-6 2 -7 4v39q0 5 4 6zM610 1141h8q21 0 21 -15v-15q2 -13 2 -15v-1
q0 -1 -6 -3q-4 0 -8 7q-12 -7 -21 -7q-18 3 -18 12v2q0 13 30 16l7 1v3q0 5 -5 6h-9q-5 0 -13 -9q-8 0 -8 6q0 9 20 12zM733 1141h7q25 -3 25 -25q-5 -24 -28 -24q-25 0 -28 25v1q4 23 24 23zM779 1141h5q4 -1 4 -6h1q0 4 10 6h2q12 0 12 -8q0 -1 -4 -4l-14 1q-6 -4 -6 -13
v-15q-1 -10 -7 -10q-6 2 -7 4v39q0 5 4 6zM839 1141h8q21 0 21 -15v-15q2 -13 2 -15v-1q0 -1 -6 -3q-4 0 -8 7q-12 -7 -21 -7q-18 3 -18 12v2q0 13 30 16l7 1v3q0 5 -4 6h-10q-5 0 -13 -9q-8 0 -8 6q0 9 20 12zM723 1117q0 -13 13 -15h2q12 2 12 15q0 15 -14 15
q-11 0 -13 -15zM338 1109v-5q1 -3 7 -3h1q13 0 13 10v5q-21 -4 -21 -7zM603 1109v-2q0 -6 7 -6h3q12 2 12 9v6q-22 -4 -22 -7zM832 1109v-2q0 -6 7 -6h3q12 2 12 9v6q-22 -4 -22 -7zM409 1051h5q24 -2 24 -18v-1q0 -13 -28 -29q0 -1 -4 -5v-1h24q8 0 9 -3v-4q0 -1 -4 -3h-40
q-9 0 -9 6q0 7 34 31q4 5 4 9q0 7 -13 9q-8 0 -13 -13q-4 -2 -6 -2q-4 1 -5 3v5q0 12 22 16zM475 1051q24 -3 24 -26q1 -5 1 -7q0 -20 -11 -28q-7 -4 -14 -4h-4q-15 0 -23 18q-1 8 -1 13v3q0 26 20 31h8zM532 1051h8q21 -3 21 -19q0 -11 -30 -31l-3 -4h26q6 0 8 -4v-3
q0 -1 -4 -3h-43q-5 2 -5 7t35 32q2 6 2 7q0 7 -13 9q-7 0 -13 -13q-3 -2 -5 -2q-6 2 -6 6q0 14 22 18zM599 1051q24 -3 24 -26q1 -5 1 -7q0 -20 -12 -28q-7 -4 -13 -4h-4q-16 0 -23 18q-1 8 -1 13v3q0 26 19 31h9zM462 1017q0 -22 12 -22q11 2 11 16v15q0 16 -13 16
q-10 0 -10 -25zM585 1017q0 -22 13 -22q10 2 10 16v15q0 16 -12 16q-11 0 -11 -25z" />
    <glyph glyph-name="registered" unicode="&#xae;" horiz-adv-x="1246" 
d="M589 1035h-10q-23 6 -29 6l-35 -5h-5q-41 -12 -47 -21q0 -4 13 -18v-1l-6 -24v-5l14 -21l-6 -18v-6l5 -12l7 -11l10 -1q29 8 38 8q0 -1 24 -8l27 3h11l19 -3q8 7 22 7q9 0 23 -7q56 8 69 23l4 4v12l21 17q2 5 2 8q0 9 -12 15v2q0 3 12 16q-4 8 -29 16l-4 7v11l-9 5
l-25 -3h-8q-27 5 -68 10h-3zM938 678q16 15 28 46v32q0 9 29 39q0 11 -17 27v7l20 36v2q0 11 -20 31v7l17 36v5q-32 26 -32 50q-9 36 -19 36l3 12v8q0 7 -46 35l-18 16l4 19v2q0 31 -113 80q-3 16 -131 36l-3 2l-23 -14l-28 9h-9q-25 -2 -51 -13q-27 0 -42 5q-13 0 -51 -39
q-82 -20 -82 -53v-2l9 -11q14 -5 19 -5q41 3 67 11h6q17 -13 26 -13l23 5l16 -3h9l25 9l34 -8l21 2l26 -5q19 16 25 16l31 -13l21 2q9 0 30 -17q4 -4 30 -6q31 -23 55 -45q14 -10 31 -51l15 -16l-5 -17v-20q-16 -28 -31 -43l-3 -18q0 -8 -30 -13q-21 -18 -21 -26v-1
q12 -18 12 -25q0 -11 10 -31q0 -46 15 -46q19 -12 19 -27l8 -3h26q23 -19 48 -19q8 0 17 -20zM230 984q-33 -36 -33 -72l11 -27v-10l-19 -38q30 -39 30 -55l-4 -10q0 -65 53 -95q8 -8 11 -28l21 6l5 -2q13 4 30 18q34 0 34 32v4l-8 53l10 26l-17 18v2q7 35 15 51l-2 36v4
l-8 19q0 8 12 36v2q-24 28 -24 42l8 15l2 2v4q-3 10 -22 16q-18 6 -43 6q-6 0 -26 -1t-36 -54zM325 584l3 -13l60 -21q16 0 27 -19q52 -41 122 -41q11 0 69 26q13 0 69 -22h10q27 0 48 20q96 0 147 61l-2 11q-14 8 -62 10l-24 12h-26q-12 2 -26 40l-32 14v4q17 2 17 11h-2
q-25 6 -25 15v2q0 6 14 24v6q-10 6 -10 11v6l6 12v2l-17 21q0 15 -16 15q-21 0 -31 12q-2 12 -11 12l-37 -10q-4 4 -29 12l-19 -2l-23 4q-19 0 -39 -22l-1 -6q6 -11 12 -24q-4 -4 -19 -14q6 -8 14 -22q0 -4 -9 -22v-4q0 -2 9 -16q14 -21 43 -21q11 0 38 -6q14 6 27 7
q12 0 25 -55q-9 -14 -38 -14l-14 -5q-23 -11 -35 -11l-40 10h-4l-56 -8l-9 -2l-29 4h-16l-36 2q-10 0 -23 -6zM691 1358h25q36 -36 75 -36q31 0 69 -35q81 -22 108 -76l36 -30q39 -44 45 -96q46 -64 54 -93l-4 -16v-18q27 -20 27 -117l-11 -30l3 -31v-18l-23 -30l4 -39v-4
q-46 -38 -46 -74l-31 -43q-69 -58 -104 -119l-69 -28q-10 -21 -104 -37q-35 -28 -49 -28l-83 22l-24 -2h-12q-13 0 -62 -22h-7q-47 36 -58 36l-35 -4q-11 0 -54 39l-19 4l-27 -4q-21 0 -42 50l-85 67q-14 12 -16 32l-9 27q-14 25 -48 76l-4 14l4 17q-31 46 -31 58
q19 20 19 36q-11 16 -23 33l2 12l15 32q0 8 -14 40l1 13l17 29l3 11l-5 30l5 16l39 41q16 28 33 71q50 42 58 70q27 13 46 55q18 12 70 24q31 39 104 39q38 34 69 34q41 -9 53 -9l31 6l23 -2h15z" />
    <glyph glyph-name="macron" unicode="&#xaf;" horiz-adv-x="1043" 
d="M670 1753h7l32 -7l27 -3h40q28 -3 54 -12q37 -18 60 -57l3 -18q-8 -67 -72 -103q-31 -5 -70 -21h-11l-74 11h-5q-29 0 -85 -15l-45 9h-38q-7 0 -68 -10h-9l-72 16l-35 3q-28 -3 -65 -13l-16 -2l-47 10q-32 2 -72 8q-44 26 -59 81q15 69 49 87t88 29q40 -9 83 -9
q10 0 68 10h18q55 -15 61 -15h19q26 0 78 15h10l43 -9h8q29 0 56 5z" />
    <glyph glyph-name="degree" unicode="&#xb0;" horiz-adv-x="759" 
d="M449 854q-19 3 -34 3q-25 0 -40 -8q-33 -13 -57 -18l-13 -2q-39 22 -56 25l-22 4l-23 2l-25 4q-33 30 -63 84l-41 54l-5 14q-1 44 -14 89l-6 39l1 24q0 49 59 120q32 50 73 86h13l71 5l37 20l68 -7l49 6h22q30 -25 57 -47q51 -40 87 -118l22 -41v-7q0 -120 -33 -170
q-14 -56 -32 -83q-14 -32 -95 -78zM240 1094q24 -44 69 -50q31 0 53 7t50 23l8 22q10 24 10 46q0 17 -12 49l-30 26l-17 6q-21 8 -40 8q-54 0 -96 -53q-6 -13 -6 -30q0 -23 11 -54z" />
    <glyph glyph-name="plusminus" unicode="&#xb1;" horiz-adv-x="1292" 
d="M524 1390l32 3q116 -3 141 -88l13 -38l-15 -54v-60q-10 -36 -10 -73q0 -16 2 -33q0 -41 50 -41h7l69 -11l50 16h21q44 -10 90 -10q14 0 29 1q77 -13 91 -107v-8q0 -69 -95 -119h-19l-61 7q-64 -3 -102 -14h-65l-29 -3q-14 -7 -14 -13l5 -43l-14 -50l13 -52l-13 -55l7 -38
q0 -67 -75 -89q0 -7 -84 -27q-42 16 -56 42l-30 94v24q11 37 11 76q0 11 -1 22l7 49v3q0 47 -71 61l-66 7q-64 -10 -133 -16h-7q-117 21 -152 113v7q0 46 93 130l31 5l53 -11l30 7h8l51 -10l23 6h34q38 -18 56 -18q28 0 43 18q-19 150 -33 181l9 36l-9 53q4 96 85 120z
M853 328h9l42 -14l44 -6l20 1q61 9 78 9h9q62 -34 87 -92l-1 -23q0 -100 -84 -118q-40 -6 -91 -19h-15l-92 10q-40 -1 -116 -16l-71 12h-20q-10 0 -84 -11h-12l-72 11l-83 -12q-43 9 -70 9q-10 0 -18 -1l-58 -8l-18 2q-53 16 -105 22q-57 25 -75 68q-1 8 -1 15q0 58 43 100
l120 54h16q61 -23 116 -23q13 0 80 25h24q56 -25 64 -25h24q34 0 94 20h13l87 -23q34 0 88 30z" />
    <glyph glyph-name="acute" unicode="&#xb4;" horiz-adv-x="730" 
d="M573 1767q7 -15 7 -34q0 -33 -24 -76q-12 -17 -63 -50q-12 -17 -36 -55l-3 -2l-75 -32l-35 -45l-13 -9q-62 -23 -64 -24l-53 -36q-24 -16 -133 -26l-24 11q-7 25 -7 46q0 17 7.5 41t28.5 64l12 9l28 30l9 52l8 11l62 50l15 57l5 11l62 33l30 31q56 8 101 8q39 0 86.5 -10
t68.5 -55z" />
    <glyph glyph-name="periodcentered" unicode="&#xb7;" horiz-adv-x="648" 
d="M337 459h-23l-57 9l-42 7q-76 18 -143 106q-22 53 -22 111v5q9 75 78 142q71 49 153 58h13q27 0 109 -39q44 -32 59 -83q8 -41 36 -103q-3 -65 -34 -113q-24 -33 -48 -45q-25 -12 -53 -37z" />
    <glyph glyph-name="periodcentered" unicode="&#x2219;" horiz-adv-x="648" 
d="M337 459h-23l-57 9l-42 7q-76 18 -143 106q-22 53 -22 111v5q9 75 78 142q71 49 153 58h13q27 0 109 -39q44 -32 59 -83q8 -41 36 -103q-3 -65 -34 -113q-24 -33 -48 -45q-25 -12 -53 -37z" />
    <glyph glyph-name="cedilla" unicode="&#xb8;" horiz-adv-x="702" 
d="M551 27l1 -16q-58 -34 -59 -51v-1q0 -16 27 -55t32 -95l-1 -25l-24 -30v-3l-3 -30q-7 -54 -76 -101q-45 -24 -90 -34t-87 -11l-36 15l-51 7l-37 29q-80 33 -96 138q-1 8 -1 15q0 58 37 58q23 0 62 -24l43 -14l32 -27q16 -10 45 -10q8 0 16 1q35 2 43 33q1 5 1 9
q0 21 -20 38q-6 7 -61 28q-28 11 -57 105q-5 3 -60 37l-5 15z" />
    <glyph glyph-name="uni00B9" unicode="&#xb9;" horiz-adv-x="2203" 
d="M62 1164q0 -105 213 -175q139 -42 253 -42q7 0 76 -42q88 -56 148 -56l2 3q-35 19 -71 98q124 18 189 44q198 70 198 170q0 111 -220 181q-140 40 -286 40q-260 0 -429 -108q-73 -52 -73 -113zM549 1395h36q213 0 385 -87q107 -67 107 -140v-5q0 -114 -232 -191
q-79 -20 -147 -29q26 -63 84 -101l-2 -7q-118 3 -249 102q-136 0 -296 53q-180 74 -180 172v12q0 76 132 148q167 73 362 73zM1075 921h12q79 0 152 -148q23 -39 34 -46q149 -111 196 -155q71 -8 84 -22l107 -45q40 -20 52 -59q6 -8 12 -26q-7 -3 -19 -6v-2q15 -4 77 -37
q210 -51 244 -88q12 -14 12 -21v-2q0 -4 -3 -4q-11 0 -46 12q0 -5 -2 -8q-7 0 -143 38q-34 8 -104 20q126 -91 154 -107l111 -60l6 -7v-5h-2q-16 3 -17 3v-8q0 -4 -3 -4l-31 9q-2 0 -11 -1q-1 0 -19 9q0 -15 -10 -15q-11 0 -29 12q-1 -9 -6 -9h-3q-10 0 -43 21q0 -2 -5 -5
l-48 26q0 -4 -4 -4h-3q-47 22 -55 22q-16 -3 -22 -3h-4q-9 0 -145 32l-16 2q-31 0 -46 -24l-3 -1q-49 23 -61 23q-11 -2 -11 -5l5 -3q0 -5 -7 -5l16 -15q-7 -2 -7 -4q1 0 1 -2l-8 -1q5 -26 5 -48l-3 -2q0 2 -2 2q0 -14 -31 -58q-26 -70 -26 -75t-2 -12q2 -11 2 -22v-9
q0 -3 13 -11q6 0 16 3q30 -11 30 -33q1 -6 1 -12l-3 -1q-13 31 -25 31h-10q-4 -11 -8 -12q-8 0 -31 12q-8 -16 -25 -34q0 -8 -9 -12h-4l-12 1q-11 -15 -11 -31h-3v18q0 10 28 55l-16 -12h-9q-2 0 -6 8q-4 0 -21 -17v3q0 22 33 27q47 31 49 48q20 58 28 111v1q0 12 -7 57
l2 10q0 4 -2 14q4 12 4 18q-21 19 -31 19v-2l6 -22l-10 -9l3 -3v-1h-5v3h-4q6 -11 6 -15v-2q0 -9 -6 -12h-2l-19 17l-3 -2q-4 2 -6 2q0 -2 -1 -2q4 -9 4 -15l-3 -1h-9l-7 11h-3v-4q3 -36 3 -42q0 -34 -58 -83q-20 -22 -20 -30v-3q2 -5 11 -5l42 12q22 -6 22 -27q0 -4 -3 -4
q-8 19 -15 19q-11 0 -15 -19q-5 -3 -9 -3h-3q-18 0 -46 3q-13 -8 -19 -8h-12q-4 0 -17 6l-8 -1h-4q-7 0 -14 1q-6 -1 -14 -1q-4 0 -4 9q-12 -11 -12 -16h-4v4q0 11 10 24v1q0 3 -9 5q-9 -2 -18 -10h-2q0 13 20 19q4 0 33 -12h25q25 0 25 12q19 8 66 61q0 2 1 5
q-16 116 -36 170q-43 105 -87 148q-1 15 -60 69q-16 28 -18 55l2 29q-7 24 -7 35l-5 -4q-3 0 -3 4q1 3 1 7q-5 0 -5 16h-2v-6h-3v2q0 7 5 37l-2 4q6 18 7 61v4h-1q0 -10 -8 -12h-1v46q0 61 -55 61q-92 5 -92 12q0 13 38 38q65 27 114 28q42 27 72 27zM704 1276q8 0 9 -11
q-2 -5 -7 -7h-2q-10 0 -10 9q0 7 10 9zM276 1101v6q2 3 5 3h8v9q0 18 23 18h3q10 0 13 -6v-5q0 -2 -6 -4q-7 2 -9 2q-5 -2 -5 -4v-10h5q9 -1 9 -4v-5q0 -2 -4 -4h-10v-42q-1 -14 -9 -14t-10 10v46h-4l-6 1q-3 1 -3 3zM249 1274h2q10 0 10 -10v-15h9q3 0 6 -5v-3q0 -2 -6 -5
h-9v-31q0 -10 5 -10l8 1h3q2 0 4 -5v-3q0 -6 -19 -8q-20 0 -20 28v28q-10 0 -10 4v4q0 4 10 5v8q0 15 7 17zM740 1274h6q2 0 6 -7v-18h10q5 -2 5 -9l-5 -4h-10v-34q0 -6 6 -7l8 1h2q2 0 5 -5v-3q0 -5 -19 -8q-21 0 -21 23v33q-9 0 -9 4v6q1 3 9 3v14q0 7 7 11zM507 1134h2
q7 -3 7 -10v-14h6q7 -1 7 -4v-5q-1 -4 -7 -4h-6v-38q0 -2 4 -4q7 2 12 2q4 -5 4 -7q-2 -9 -20 -9q-19 0 -19 22v34q-10 0 -10 7q1 6 10 6v15q0 9 10 9zM828 1134h7q7 -2 7 -16v-8h5q8 -1 8 -4v-5q-1 -4 -8 -4h-5v-38q0 -2 4 -4q7 2 12 2l3 -5v-5q-6 -6 -18 -6q-21 1 -21 16
v40q-10 0 -10 5v3q0 4 10 5v15q0 7 6 9zM288 1251h5q6 0 22 -50h1q14 46 21 50h6q3 -1 6 -7q-31 -85 -39 -85q-5 -3 -12 -3h-9q-7 0 -9 5v5q0 2 4 4h13q4 0 8 14q-13 30 -24 59q2 5 7 8zM366 1251h6q6 -4 6 -11q11 11 21 11h4q23 0 28 -30v-10q-6 -31 -31 -31q-11 1 -22 10
v-24q0 -7 -6 -10h-7q-5 0 -6 17v64q0 10 7 14zM473 1251h8q26 0 29 -31q0 -9 -17 -9h-32q2 -18 16 -18h1q9 0 23 12h4q2 0 4 -4v-1q0 -15 -31 -20q-36 5 -36 31v6q4 34 31 34zM524 1251h7q4 0 18 -46h1q11 46 18 46h8q6 0 17 -48h2q12 48 17 48h3q9 0 9 -8q-20 -63 -28 -63
h-3q-10 0 -22 46h-1q-9 -46 -20 -46h-1q-11 0 -21 37q-2 0 -9 27q2 6 5 7zM640 1251h7q5 -3 5 -10q8 10 14 10h5q8 0 14 -8v-2q0 -7 -6 -7q-14 1 -16 1q-8 0 -9 -21v-23q0 -7 -10 -11q-8 0 -9 10v49q0 10 5 12zM704 1251h2q7 -4 7 -11v-49q0 -7 -9 -11q-8 0 -10 10v51
q0 10 10 10zM807 1251h7q27 0 30 -31q0 -9 -17 -9h-33q3 -18 16 -18h2q9 0 23 12h4q2 0 4 -4v-1q0 -15 -31 -20q-37 5 -37 31v6q4 34 32 34zM358 1111h9q27 0 32 -33v-3q-5 -34 -35 -34q-37 6 -37 31v6q5 33 31 33zM418 1111h6q6 -2 6 -10h1q6 10 19 10h6q17 0 21 -21v-39
q-2 -10 -9 -10q-10 4 -10 11v33q0 12 -10 12h-3q-11 0 -14 -14v-31q0 -7 -10 -11q-8 0 -9 10v51q0 7 6 9zM566 1111h7q24 -3 24 -16q-2 -7 -9 -7q-14 12 -19 12h-3q-7 0 -9 -5v-3q2 -4 36 -14q8 -8 8 -14q0 -20 -32 -23q-32 4 -32 19q2 5 7 8q6 0 17 -13l8 -1h4q9 0 9 9
q0 4 -33 14q-10 6 -10 14q0 20 27 20zM662 1111h7q5 -2 5 -10q10 10 20 10h6q21 -2 21 -20v-44q-1 -3 -9 -6q-8 0 -9 14v32q0 10 -10 10h-4q-13 0 -13 -20v-26q-2 -10 -10 -10q-9 4 -9 11v48q0 9 5 11zM770 1111h5q25 0 30 -29q0 -10 -15 -10h-35v-3q3 -15 17 -15h2
q8 0 20 11h6q2 0 4 -3v-2q0 -14 -31 -19q-38 4 -38 36q0 23 23 33q7 1 12 1zM380 1223v-13q0 -13 18 -15q14 3 14 18v6q0 18 -18 18q-14 -4 -14 -14zM461 1223h31v2q-2 12 -12 12h-6q-10 0 -13 -14zM794 1223h32v2q-2 12 -13 12h-5q-11 0 -14 -14zM346 1080v-7q2 -18 16 -18
h2q13 0 16 18v7q0 18 -18 18q-14 0 -16 -18zM755 1083h31q0 11 -9 15h-9q-11 0 -13 -15zM627 1062q11 -2 11 -11q0 -7 -10 -10q-11 1 -11 10v4q5 7 10 7zM861 1252h5q6 0 6 -8l11 8h8q8 0 13 -7v-6q-1 -2 -6 -5q-5 3 -12 3h-1q-12 0 -12 -28v-16q-1 -11 -9 -11q-10 3 -10 12
v45q0 10 7 13z" />
    <glyph glyph-name="guillemotright" unicode="&#xbb;" horiz-adv-x="3053" 
d="M1234 45v-10h4q0 2 12 19h-6q-5 0 -10 -9zM940 73v-4h9v4h-9zM1273 82v-7h4q5 0 5 7h-9zM493 75h-7q-5 -1 -5 -6h49q5 0 5 6l-3 7q-21 -7 -39 -7zM1186 106v-4h9q6 6 10 6v3h-5q-10 -5 -14 -5zM579 139h-3v-11q3 0 9 -2q15 10 23 10q0 5 -5 5q-14 -2 -24 -2zM1407 149v-8
h9v5q-4 0 -9 3zM1370 163q0 -12 -5 -17l-5 3q-7 0 -11 -10v-6h2v8h3q9 0 9 -13h2q14 23 22 23v12h-17zM1456 170v-7h5v7h-5zM1305 170v-5h5q5 0 5 5h-10zM630 139v-3q42 5 47 10h8q0 -13 5 -13h8v6q-8 17 -8 21v10h-5q-50 -31 -55 -31zM1344 175v-2h5v2h-5zM1339 198
q94 -42 105 -52h5v10q-19 24 -19 29l-10 -7q-11 17 -26 25q-2 0 -2 -3q-10 3 -12 3l-12 -3q-13 3 -24 3q-5 -1 -5 -5zM1282 203v-3q4 -11 13 -17q6 0 12 2q5 -2 8 -2v2q0 4 -28 18h-5zM1284 222l3 -5q3 0 3 2l15 -2h68v5q-9 16 -46 24h-5zM1167 424v-2h8v2h-8zM1181 427h5
q4 0 9 10v3h-4q-4 0 -10 -13zM1202 460v-3h8q4 0 14 17v2h-3q-19 -11 -19 -16zM546 491q0 -15 -3 -15q3 -4 3 -10h5v25h-5zM1247 499q0 -5 -7 -13v-17h4q0 6 9 17v13h-6zM585 504v-8q4 0 10 11v2h-5q-5 -1 -5 -5zM526 521v-22h4q0 3 10 34h-3q-3 0 -11 -12zM849 533
q0 -6 36 -15q0 -5 9 -9h48q6 0 27 14v10q-14 0 -23 -2q-31 2 -31 5l-13 -3h-25q-4 0 -4 3q-1 -3 -24 -3zM469 545v-7h6v7h-6zM488 566v-5h5v5h-5zM521 569v-33q14 9 14 22q-1 7 -14 11zM459 572v-14h3q0 7 5 14v3q-5 -3 -8 -3zM469 593v-8q5 0 14 -13v-3h5q-13 20 -13 24h-6
zM1215 604v-11h3v11h-3zM464 615v-8h3v8h-3zM399 639h5v5q-5 -2 -5 -5zM590 661v-6q24 -23 32 -62h2l3 27q-11 21 -16 35l-18 6h-3zM1210 665q0 -3 8 -8v8h-8zM464 669v-7h3v7h-3zM581 695l7 -2l2 5v2h-2q-7 -1 -7 -5zM392 717v-12h7q0 13 17 17v13h-2q-14 0 -22 -18z
M478 745q5 -7 5 -10h8q-4 10 -8 10h-5zM590 750q0 -15 -14 -26q-12 0 -30 -12h-3q-6 0 -6 10l-13 -8q-13 0 -28 17h-3q0 -10 -5 -17v-9q0 -3 17 -10q1 5 5 5h6l8 -5h8q13 10 49 19l14 23v13h-5zM457 764v-7q2 0 15 -12h3v7q-12 0 -13 12h-5zM617 771v-7h2v7h-2zM617 821v-14
q15 -16 15 -50q-14 -36 -37 -52v-5h5q16 19 22 19q18 28 23 60q-14 42 -23 42h-5zM598 828v-10h2v10h-2zM772 872v-3h8v3h-8zM530 872q4 -11 7 -11v11h-7zM1088 877v-8q5 -13 17 -13h7v3q-14 0 -19 18h-5zM551 877q0 -3 9 -8h3v3q0 5 -6 5h-6zM505 877q2 -5 2 -11h5l-2 14z
M1033 869h8q0 5 20 14l3 5h-5q-11 -3 -26 -19zM524 890q0 -5 6 -5h2v5h-8zM1126 895v-2h6v2h-6zM1074 895q0 -5 -8 -5v-2h8q5 5 29 5v2h-29zM551 895v-2h6v2h-6zM502 899v-9h3v9h-3zM475 913v-23q8 -7 8 -13l5 3q-7 19 -7 24v9h-6zM444 904v-9q0 -4 13 -10h5v28h-3
q-9 -9 -15 -9zM614 927v-9h8v2q0 7 -5 7h-3zM680 947v-5h5v5h-5zM464 950v-8h3v8h-3zM464 961v-5h3v5h-3zM537 981q2 -6 6 -6v6h-6zM767 994v-5h15q0 5 -6 5h-9zM814 996l-5 -7h11q5 0 5 5q-6 0 -11 2zM444 996q0 -10 -10 -10v-2h14v12h-4zM540 999v-5h3v5h-3zM411 999v-5h5
v5h-5zM724 1007v-6h8q0 6 -5 6h-3zM436 1013q2 -6 5 -6v6h-5zM857 1020v-5h2v5h-2zM368 1043v-33l3 -26h7v17l-5 9v8q0 2 3 2q-5 14 -5 23h-3zM897 1046v-5h5v5h-5zM546 1046v-5h3v5h-3zM782 1051v-8l5 -2v2q-2 5 -2 8h-3zM524 1053h6v5q-6 -1 -6 -5zM776 1067v-14h6l-2 14
h-4zM705 1067v-2q4 -33 24 -33q9 -5 15 -5v2q-29 38 -39 38zM910 1070v-12h2q0 9 14 22l-5 2q-8 -12 -11 -12zM871 1098q0 -14 -24 -26v-7h10q10 9 20 30zM1012 1108v-3h5v3h-5zM1019 1110h9v5h-4q-5 -1 -5 -5zM595 1115v-7q3 -8 52 -36q0 -7 5 -7h5q0 11 -25 45l-15 -2
q-14 7 -22 7zM1260 1122v-7h8v7h-8zM579 1122v-9h2v9h-2zM386 1129v-19q0 -9 -3 -24l9 -14v-19h7q-7 34 -7 42l7 10q-7 24 -13 24zM560 1139l-3 -5v-12h3q5 0 5 5v7q0 5 -5 5zM718 1179v-14l6 -3l-4 17h-2zM532 1179q0 -4 -6 -12v-5q11 -23 17 -23v26l-6 8q6 0 6 6h-11z
M622 1184v-3h8v3h-8zM713 1191v-12h2v12h-2zM942 1194v-3q13 5 14 12h-5q-3 0 -9 -9zM713 1206v-10q5 3 7 3q0 7 -5 7h-2zM985 1137q-5 2 -7 2l-17 -2v-13l3 -14h9q12 7 12 12v5l-2 5h5q0 -8 5 -8h8q47 24 47 52l23 33v2h-2q-23 -7 -23 -27q0 -33 -61 -47zM1124 1209l5 -3v8
q-5 -1 -5 -5zM640 1216q0 -2 -4 -7h9v7h-5zM464 1224v-5h11v5h-11zM921 1230v-6h5v6h-5zM703 1233l2 -14q5 0 5 5v9h-7zM942 1219h4q27 13 27 16h-9q-22 -10 -22 -16zM680 1238v-5h5q0 5 -5 5zM488 1238v-5h3v5h-3zM598 1241v-6h2v6h-2zM1189 1243v-10q19 0 19 -14h7
q0 6 17 16l-11 8h-32zM519 1243v-5h5v5h-5zM496 1253v-5h2v5h-2zM1014 1262v-5h5v5h-5zM392 1189v-8h4q6 6 33 8q2 -4 2 -10h10q8 0 12 -3q17 15 22 15v12h-3q-9 -7 -13 -7q-1 5 -15 13q13 13 15 34q8 0 8 5v14q-35 -42 -75 -73zM762 1273q-7 -11 -20 -49v-43q0 -2 -3 -2
q4 -19 18 -55v-14h15v5q-6 8 -12 45v5q0 5 2 11q0 3 -2 3q0 8 20 87h-4q-6 0 -14 7zM502 1273v-11h3v11h-3zM469 1273q0 -3 -2 -7h8v7h-6zM1126 1281v-8q6 0 6 5zM1006 1281v-5h2v5h-2zM1189 1311v-3h6v3h-6zM579 1311v-9h2v9h-2zM1181 1319q0 -5 5 -5v5h-5zM915 1241v-6h3
q19 11 62 24q0 19 37 62v4l-5 8l-21 -3q-9 3 -11 3q-32 -25 -65 -92zM785 1335l-3 -5v-9h15v4q-5 0 -12 10zM1031 1339v-11q5 0 5 5v6h-5zM1126 1342v-9h20q7 -5 29 -12h6v4q-11 0 -11 8h-17q-6 6 -27 9zM985 1353v-6h16q0 4 -10 6h-6zM1043 1359v-6h3v6h-3zM718 1362v-5h2
v5h-2zM1019 1370v-5h9v5h-9zM682 1377q-10 -39 -10 -63v-48q8 -9 8 -18h5q5 0 5 5q-5 0 -5 6q0 17 -3 49q3 26 3 49q5 0 5 5v10q0 5 -5 5h-3zM1141 1386l-7 3q-34 -8 -34 -12q12 0 12 -5v-2q0 -3 -9 -8h-15q-9 0 -33 13h-12v-3q27 -14 45 -15q1 -10 7 -10h8q0 11 18 12h17
q48 -14 70 -40q12 -11 36 -57q3 0 3 -3l-7 -8q5 0 13 -23h5v15l-14 42l-63 87v3q3 10 3 11q-3 7 -3 9h-28q-9 -9 -12 -9zM718 1400v-5h2v5h-2zM802 1408v-5h4v5h-4zM636 1408v-5h6q0 5 -6 5zM521 1367v-5q11 -11 11 -18h5v5l-5 8v8q0 4 8 7q14 -11 14 -28h3q2 14 54 49h11
v-9h8v5q-8 0 -11 16l-31 3h-9q-29 -10 -58 -41zM1126 1410l-2 -5v-2h19v5q-2 0 -17 2zM854 1413q3 -5 3 -10h6v2q-4 5 -4 8h-5zM790 1427v-12h2v12h-2zM1055 1429v-2q14 -7 14 -12h19l10 -12v16h-10q-10 0 -33 10zM619 1432q0 -4 11 -8q0 5 22 5v3h-33zM595 1427v-5
q7 0 19 7v3h-3q-11 -5 -16 -5zM828 1434v-5h6v5h-6zM657 1429h9q8 5 14 5v3h-14q-4 0 -9 -8zM828 1447v-10q6 0 6 6zM690 1452q0 -5 13 -13q0 4 7 10q3 0 3 -2q21 2 21 8q-9 0 -14 2q-5 -5 -30 -5zM739 1455h8v5h-3q-5 -2 -5 -5zM985 1465v-16l6 -10v-24q1 0 12 -2v2l-6 19
v9q0 5 11 12h4q5 -2 5 -6v-2l-5 -10v-5q9 -19 21 -24l3 5l-3 6q3 5 3 8q-15 34 -28 38h-23zM852 1462q0 -6 25 -19l2 -6l-11 -13v-2h3q7 9 71 27h7q15 -7 15 -20h11q0 8 8 18q-10 0 -14 13h-13q-30 8 -41 19h-3zM800 1465v-5h9l35 21q3 0 8 -2l16 2q0 5 -5 5q-25 0 -61 -21
h-2zM877 1491v-5h5q6 0 6 5v3h-3q-6 -3 -8 -3zM710 56l3 -5l5 3h39q5 0 28 -7q8 0 133 17v2q-24 0 -24 3l-28 -3h-60q-11 0 -30 3q-6 -3 -9 -3q-10 3 -20 3q-3 0 -8 -3q-79 9 -109 28l6 3l79 -10l5 2q7 -2 9 -2q3 0 8 2l16 -2l7 2q11 -5 35 -5h16q6 0 12 3l5 -3q24 3 29 5
q11 -2 58 -5q21 5 39 5h39q98 0 204 34q27 18 61 28h19q0 4 13 17l-30 21q-26 0 -97 82q-1 10 -12 21q-43 73 -43 96q0 7 -5 26v31h-5l-10 -18q0 -13 -52 -65q-10 -26 -35 -40q-29 -24 -61 -24h-30q-57 7 -120 28q-71 33 -118 72v11q2 5 5 5q29 -29 88 -52q2 -3 49 -19
q10 -7 68 -21q4 4 12 4q9 -7 16 -7h8q50 8 75 27q97 96 153 199l35 73q24 75 32 146v33q0 5 2 10q-2 3 -2 11q19 44 40 109v57l2 15q-2 5 -2 8q0 6 2 6l-2 28v20q-21 87 -45 130q-41 8 -41 12l-55 -14q-13 -12 -38 -57q-7 0 -31 -29q-35 -26 -55 -28h-37l-9 5
q-37 -73 -57 -81q-35 -24 -76 -29q-3 -3 -19 -3q-47 9 -70 22q-34 -18 -35 -26v-7q1 -6 5 -6h3q11 11 41 11q3 0 3 -3l23 5q109 -17 145 -50v-3q0 -6 -8 -6q-12 0 -86 33q-5 -3 -9 -3q-17 4 -17 8l-5 -3l-29 3l-27 -5q-6 2 -9 2l-25 -5q0 3 -3 3q0 -8 -27 -22q0 -13 -20 -13
q0 -6 -29 -12l-32 9l-9 -11v-3q36 -18 36 -34q16 0 49 -44l5 -26q0 -29 -18 -57q0 -8 -25 -26q0 -10 -47 -18v-6q4 0 9 -3q20 3 27 5q54 -10 54 -58v-14q0 -48 -52 -76q-10 -1 -10 -19q4 0 8 -7l-11 -16q2 -14 27 -34q0 -6 5 -12v-21l33 -93q10 -42 25 -66q0 -18 15 -49
q13 -43 15 -83q-2 -34 -10 -34q-12 12 -18 12q-7 -7 -12 -7q-112 13 -112 19q-6 0 -6 5l3 5q-14 5 -14 11q9 6 60 17l79 29v4q-11 44 -45 116q-13 45 -26 83v24q0 5 -35 15l-30 18h-9l1 -3l-48 18l-2 9q-16 26 -16 40q-3 0 -54 42q-10 39 -26 56l-19 71v5q-5 16 -5 22
q7 52 45 52v3q0 43 -40 69q-8 40 -22 51q-12 10 -12 35v5l20 47q-8 9 -13 43q9 124 29 174q0 2 -2 15l35 34q39 37 39 57q39 66 87 110q55 52 120 52q8 5 53 22h10q10 0 27 7q13 -7 18 -7h7q16 13 37 15q19 17 70 25q31 -4 33 -8l47 -5q125 -31 231 -103l10 -21
q72 -85 79 -126q0 -3 -2 -3l2 -13v-16q0 -11 -2 -30q0 -9 38 -32q24 -30 29 -64q0 -43 -22 -73v-13q4 -7 12 -49q-3 -38 -7 -38l4 -5v-2q0 -24 -39 -44q-21 -41 -54 -41l-6 -37l2 -20q-5 -26 -5 -31t5 -21q-13 -22 -13 -29v-2q14 0 23 -54q3 0 3 -2v-12q-8 -29 -13 -35v-5
q33 -33 37 -71q0 -56 -56 -90q-13 0 -34 -19q-10 -2 -11 -2q-14 2 -27 2q0 -7 -11 -7v-22l43 -79q70 -75 75 -75h5q45 37 62 38q0 4 8 7q26 -5 29 -5h9q0 -14 10 -14v6q-3 2 -4 5l-1 1l26 16q18 -12 18 -14q9 3 18 3t17 -3q17 -6 17 -12v-5q-1 -4 -34 -5q0 -3 -3 -3
q-5 3 -11 3l-9 -10q23 -4 23 -22q7 0 21 -30h5v7q0 8 -12 32l-4 6l-3 4q7 3 9 3q5 -2 13 -12q10 -13 24 -43q2 -15 29 -21q5 2 7 2q0 18 -53 76v3l8 2q25 -7 54 -57l5 -19l-5 -7q0 -8 33 -10q38 -14 58 -26q34 -19 49 -34q28 -15 56 -54q35 -32 75 -65q12 -14 12 -21
q0 -9 -15 -9l-46 16q-11 5 -19 27q-10 0 -83 81q-93 74 -136 74l-22 13q0 -8 -14 -8v-20q0 -4 -10 -7q27 -54 27 -150q2 0 2 -10q-7 -19 -12 -19h-17q-2 0 -5 51v95q-6 36 -21 55h-3l-5 -17v-19q-11 -19 -30 -83q-5 -1 -15 -39v-4l-33 -29q-8 -4 -14 -4q-7 0 -13 6v7
q75 119 77 156v37l-44 -66l-14 6q-51 -122 -62 -131h-7q-5 0 -9 16q18 25 66 120q0 6 15 42h-5q-10 -4 -57 -65q-29 -31 -47 -57h-8q-5 0 -8 14q-44 -27 -57 -54q-11 0 -33 -18h-10q-5 0 -12 13v5q22 39 77 68q46 37 61 45q15 7 18 7l59 49q0 8 9 8v5h-5q-12 -10 -21 -10
q0 3 -3 3q0 -9 -78 -42q-34 -19 -76 -31q-58 -30 -107 -48q0 -9 -34 -11q-48 -15 -141 -34q-55 -14 -57 -14q-3 0 -3 2q-46 -10 -67 -11h-29q-88 0 -88 14v2q0 8 30 12q3 0 9 -3q104 5 131 13l5 -3l135 24q51 9 96 33l5 -2q28 5 96 35h7v7h-9q-7 -7 -11 -7q-45 0 -179 -24
l-5 3l-71 -19q-73 -5 -86 -5q-9 -5 -46 -12q-97 -5 -104 -5q-16 5 -16 12q9 5 16 5q68 2 75 2v3q-4 0 -18 7q-13 -2 -21 -2q-6 0 -6 2l-67 -7h-8q-53 0 -53 7l-20 -2h-2q-40 1 -40 14q0 2 2 5q3 5 3 7h-31v-5l-116 -44l122 1q3 0 3 -2l6 2l73 5q23 -5 23 -11q0 -4 -6 -9
l-14 3q0 -4 -85 -15q0 6 -6 6q-205 -6 -205 -20q0 -3 3 -4q14 -9 14 -15q0 -7 -13 -10q-41 3 -58 3h-7q-4 0 -23 12l27 25l222 76l10 2h-1l51 18q6 5 57 13q5 -3 9 -3q0 3 2 3l-13 21v3q0 5 5 5h6q24 -23 24 -53q-3 -5 -3 -12q3 0 3 -2l6 2h3q6 0 10 -2l6 2q10 -5 21 -5h36
q11 0 21 -2q13 2 23 2h18l5 -2zM787 564q12 -11 27 -11q16 0 74 8h19l39 -8q13 8 20 8h19l21 -10h2q6 0 11 2q12 -3 12 -8v-7q-38 -26 -38 -36q0 -28 -70 -31l-24 -2q-11 7 -36 10q-23 25 -71 49l-10 13q0 4 5 23zM921 657q25 0 38 -18v-10q0 -6 -5 -6h-5q-7 0 -31 9l-6 -3
q-21 3 -21 8v2q8 13 30 18zM767 927l15 -4l15 4q4 -12 9 -12q23 3 36 3v-8h-8v-6l13 4q5 -1 5 -6q-3 -7 -3 -9q0 -4 19 -21v-6q0 -4 -16 -13h-24q-4 0 -8 8l8 11v5h-14q0 -18 -34 -24h-10q-14 0 -17 8v5l7 9v13h-7q-6 0 -6 -5q4 -6 4 -8l-9 -6q-13 5 -13 19q-23 0 -31 -11
l2 -5v-3q0 -5 -10 -5q-22 10 -27 13v3q0 4 17 10q-3 5 -3 9q0 14 83 24q5 4 7 4zM1161 950h25q34 0 54 -23q0 -5 -11 -12q-15 14 -32 14h-2l-17 -2q-3 0 -3 2q-50 -6 -75 -14v-2h38q3 0 25 -9l9 6q0 -1 6 -8l-3 -14q3 0 3 -3q13 5 22 5l2 -5v-5q0 -8 -13 -8l13 -19
q0 -6 -41 -15q-2 0 -8 10l3 13v5h-5q0 -25 -43 -30q0 -3 -3 -3h-2q-23 13 -34 36q-14 0 -14 -5l4 -13l-8 -3h-18l-14 -3q0 -13 -5 -43q8 -81 19 -126q-2 -5 -2 -7l2 -14q0 -23 -50 -42q-5 0 -5 5v9q24 14 39 34q-14 34 -26 130q0 84 85 132q39 27 85 27zM2282 1505
q216 -37 308 -87q87 -43 139 -85q157 -125 165 -293v-9q0 -61 -24 -120q-91 -217 -429 -318q-149 -39 -296 -39q-95 0 -188 16l-9 1q-82 14 -182 42q-127 -53 -224 -57q-14 -1 -28 -1q-66 0 -135 12l-11 3l-5 7q159 106 184 165q-149 125 -154 295q3 64 25 119l1 1
q84 203 389 305q165 51 335 51q36 0 72 -2q8 -1 67 -6zM1431 1143q-22 -58 -22 -107q0 -40 15 -74q10 -68 87 -164q54 -51 56 -58q-32 -60 -181 -161l1 -2q45 -5 94 -5q65 0 138 9q46 11 147 48q88 -24 191 -42h2q100 -17 198 -17q202 0 390 74q236 103 303 264l3 8
q24 58 24 116q0 130 -124 256q-166 149 -398 189l-13 3q-8 1 -15 4q-90 15 -181 15q-171 0 -344 -54q-286 -103 -371 -302zM1896 1263h9q17 -1 17 -9q-4 -6 -7 -7q-12 1 -14 1q-6 0 -6 -11v-5h6q10 0 12 -5v-3q0 -2 -6 -6h-12v-52q-2 -12 -12 -12q-12 4 -12 13v51h-10
q-3 1 -7 7q3 7 12 7h5v5q0 26 25 26zM2237 1263h7q8 -3 8 -15v-24q14 10 22 10h10q29 0 34 -38v-3q-5 -39 -39 -39q-12 0 -27 12q0 -7 -12 -12q-11 0 -11 15v82q0 8 8 12zM2139 1260h7q2 0 8 -7v-21h12q7 -2 7 -10l-7 -4h-12v-39q0 -8 7 -9l10 1h4q2 0 5 -4v-4q0 -6 -24 -9
q-25 0 -25 26v38q-12 0 -12 4v6q1 4 12 4v16q0 8 8 12zM1959 1234h10q40 -5 40 -41q-6 -39 -45 -39q-40 0 -46 41v1q7 38 41 38zM2031 1234h9q7 -2 7 -12q12 12 25 12h7q27 -3 27 -23v-50q-2 -4 -12 -7q-10 0 -12 16v36q0 12 -12 12h-5q-17 0 -17 -23v-29q-1 -12 -12 -12
q-11 4 -11 13v54q0 11 6 13zM2335 1234h8q7 0 26 -57h1q21 57 27 57h7q3 0 7 -6v-1q-35 -99 -53 -99q-2 -2 -8 -2h-12q-9 0 -13 8v3q0 2 7 5h15q5 2 11 15q-30 62 -30 67v4q0 2 7 6zM1942 1195q0 -22 20 -25h4q20 3 20 25q0 24 -24 24q-16 0 -20 -24zM2252 1193
q0 -23 24 -23q16 0 18 26q0 23 -22 23q-20 -4 -20 -26zM1554 1089h3q14 0 14 -15v-74h54q3 0 7 -6v-6q0 -2 -7 -5h-68q-11 0 -11 10v88q0 2 8 8zM1762 1089q11 0 11 -19v-38l34 28h7q2 0 7 -6v-5q0 -2 -21 -18q27 -37 27 -41v-3q-3 -5 -10 -7q-10 0 -32 38q-2 0 -12 -11v-11
q0 -12 -8 -15h-9q-2 0 -6 6v92q0 10 12 10zM2094 1089q10 0 12 -12v-36q52 48 59 48h1q8 0 12 -9q0 -8 -35 -33q38 -48 42 -57q0 -7 -12 -10q-14 0 -37 38q-10 13 -12 13l-18 -16v-22q-3 -13 -14 -13q-12 4 -12 13v84q0 12 14 12zM2387 1089h7q8 -4 8 -15v-42l34 28h3
q11 -1 11 -5v-3q0 -8 -21 -21q27 -35 27 -41v-3q-3 -5 -10 -7q-10 1 -32 38q-2 0 -12 -11v-14q0 -9 -11 -13q-11 0 -12 11v86q0 8 8 12zM1654 1060h3q12 0 12 -11v-31q0 -21 13 -21h4q17 2 17 15v33q0 11 8 15h8q7 -3 7 -11v-62q0 -2 -7 -6h-6q-9 4 -9 12q-12 -12 -25 -12
h-7q-27 0 -27 29v38q0 8 9 12zM1880 1060h10q33 0 33 -31v-25q0 -1 4 -16v-1q-3 -5 -10 -7q-7 0 -14 11q-20 -11 -34 -11q-30 5 -30 22q0 24 61 29v1q0 13 -12 13h-10q-8 0 -22 -14q-9 0 -12 5v3q5 21 36 21zM1971 1060h8q30 0 34 -18v-3q-4 -5 -10 -5q-18 13 -24 13h-5
q-9 0 -12 -8q0 -7 44 -16q12 -10 12 -16v-1q0 -23 -39 -26q-39 4 -39 22v2q4 6 10 6q4 0 17 -14l9 -2h6q9 0 12 6v6q-1 4 -42 14q-10 10 -12 16q0 19 31 24zM2210 1060h9q6 -3 6 -11h2q0 8 15 11h4q20 0 20 -13q0 -3 -7 -6l-24 1q-8 -7 -8 -22v-24q-2 -16 -12 -16
q-10 3 -12 7v62q0 8 7 11zM2308 1060h13q34 0 34 -25v-25q3 -21 3 -23v-1q0 -3 -10 -6q-6 0 -13 11q-19 -11 -34 -11q-29 4 -29 20v3q0 21 49 26l11 2v4q0 8 -7 10h-15q-8 0 -22 -14q-12 0 -12 8q0 16 32 21zM2509 1060h10q40 -6 40 -41q-6 -39 -45 -39q-40 0 -46 40v2
q7 38 41 38zM2583 1060h8q7 -3 7 -11h2q0 8 15 11h3q20 0 20 -13q0 -3 -6 -6l-24 1q-8 -7 -8 -22v-24q-3 -16 -12 -16q-11 3 -12 7v62q0 8 7 11zM2681 1060h13q34 0 34 -25v-25q3 -21 3 -23v-1q0 -3 -10 -6q-6 0 -13 11q-19 -11 -34 -11q-29 4 -29 20v3q0 21 49 26l10 2v4
q0 8 -7 10h-15q-8 0 -22 -14q-11 0 -11 8q0 16 32 21zM2492 1020q0 -21 20 -24h3q21 3 21 24q0 25 -24 25q-16 0 -20 -25zM1864 1007v-7q3 -6 12 -6h2q22 0 22 16v9q-36 -6 -36 -12zM2296 1007v-3q0 -10 12 -10h5q19 3 19 15v10q-36 -7 -36 -12zM2669 1007v-3q0 -10 12 -10
h5q18 3 18 15v10q-35 -7 -35 -12zM1981 913h8q39 -3 39 -29v-2q0 -20 -46 -47q0 -1 -6 -8v-1h38q13 0 16 -6v-6q0 -2 -7 -6h-66q-13 2 -13 11q0 11 55 50q5 8 5 15q0 12 -20 14q-12 0 -22 -21q-5 -3 -8 -3q-8 3 -9 6v7q0 20 36 26zM2089 913q38 -5 38 -42q2 -8 2 -12
q0 -32 -18 -45q-12 -7 -22 -7h-7q-26 0 -37 30q-2 13 -2 21v4q0 43 32 51h14zM2181 913h12q36 -4 36 -31q0 -18 -49 -50l-5 -6h42q9 0 13 -7v-5q0 -2 -6 -6h-71q-9 4 -9 12t58 52q3 10 3 12q0 12 -20 14q-13 0 -22 -21q-6 -3 -9 -3q-10 3 -10 10q0 22 37 29zM2289 913
q39 -5 39 -42q2 -8 2 -12q0 -32 -19 -45q-11 -7 -22 -7h-6q-26 0 -37 30q-2 13 -2 21v4q0 43 32 51h13zM2067 858q0 -37 20 -37q17 4 17 27v24q0 26 -20 26q-17 0 -17 -40zM2267 858q0 -37 21 -37q17 4 17 27v24q0 26 -21 26q-17 0 -17 -40z" />
    <glyph glyph-name="questiondown" unicode="&#xbf;" horiz-adv-x="1227" 
d="M472 1086q-60 43 -79 115l-2 69q17 64 51 88q21 24 107 40q139 0 191 -99q5 -25 23 -53v-18q-12 -80 -78 -142q-15 -16 -53 -28q-40 -4 -67 -4q-23 0 -44 5t-49 27zM617 1006q41 -28 70 -75l17 -22v-17l-7 -44q19 -45 19 -70l-23 -58l8 -57l-26 -110l-59 -90l-87 -37
l-38 -31l-52 -23q-58 -26 -96 -70q-6 -13 -6 -24q0 -18 16 -29v-2q0 -37 38 -64q54 -38 104 -47q20 -4 43 -4q32 0 68 8q14 -4 28 -4q36 0 74 25q53 34 68 67l1 15q-53 39 -53 91q0 69 53 123q32 33 88 41q155 -16 185 -102l23 -46q-7 -57 -7 -71q0 -5 1 -5l10 -32
q-33 -118 -66 -132q-30 -59 -84 -81l-84 -55q-75 -6 -107 -36l-22 -4l-62 5l-44 -11l-38 7l-28 -6l-13 -2l-21 4l-37 12q-122 31 -143 48q-20 28 -116 66l-73 95q-39 94 -39 142q20 51 25 117q56 44 96 110l46 15l47 24q54 6 87 47q35 14 40 30v41q22 25 22 63v6l-5 32
l11 33l1 12l-5 40l5 24q2 65 28 95q18 28 52 30q8 1 15 1q26 0 52 -8z" />
    <glyph glyph-name="Agrave" unicode="&#xc0;" horiz-adv-x="1351" 
d="M332 1826q31 6 70 6q45 0 101 -8l30 -31l61 -33l5 -11l15 -57l63 -50l7 -11l10 -52l28 -30l12 -9q21 -40 31 -74q5 -15 5 -33q0 -20 -7 -44l-25 -11q-108 10 -133 26l-52 36q-2 1 -64 24l-14 9l-34 45l-76 32l-2 2q-25 38 -37 55q-50 33 -62 50q-24 43 -24 76
q0 19 13.5 49t78.5 44zM616 1356l95 -23q41 -27 69 -80l39 -73v-12q-11 -29 -11 -40l43 -69l7 -21l-15 -58q43 -68 43 -87v-40q0 -24 47 -90v-50q0 -9 32 -71v-14l-7 -51q26 -45 41 -89l8 -85l51 -88l6 -94q38 -87 76 -97q68 -26 118 -69l24 -62v-3q-25 -53 -55 -66l-18 -9
l-35 -13q-53 15 -100 17q-40 -10 -79 -27l-82 19l-65 -17l-16 2q-30 8 -56 19q-60 16 -71 65v8q4 37 40 65q34 29 69 65q20 20 22 66l-8 43l3 34q-3 28 -7.5 37t-16 15.5t-48.5 14.5q-4 -1 -44 -18h-18q-20 5 -53 16h-3q-30 -6 -64 -22l-50 4l-39 -20q-17 -33 -32 -93
q9 -71 53 -108l69 -61q23 -19 25 -42q1 -13 1 -24q-4 -41 -57 -63l-15 -2l-68 17q-24 -3 -99 -23h-16l-89 21l-95 -19l-11 2q-77 22 -98 68v9l18 54q19 29 65 59q42 33 62 47l37 76l4 21l6 64l28 63l1 60q0 16 46 73q13 31 13 62q0 20 -5 39q28 45 28 54v40q19 53 30 96
l-1 53l4 16q56 77 56 111l-4 25q25 49 54 79l6 10l-8 81q29 67 51 120l14 27q22 55 55 56zM620 866l9 -35l-21 -56l-2 -66v-16l-30 -64l-20 -52q0 -24 20 -40q11 -2 21 -2q19 0 36 8l10 -1q18 -17 49 -17h6q58 0 62 43l-12 34l4 31v20q-30 102 -53 136l9 45q-38 41 -38 62
l6 40l-11 2q-45 -56 -45 -72z" />
    <glyph glyph-name="Aacute" unicode="&#xc1;" horiz-adv-x="1344" 
d="M1116 1767q7 -15 7 -34q0 -33 -24 -76q-12 -17 -63 -50q-12 -17 -36 -55l-3 -2l-75 -32l-35 -45l-13 -9q-62 -23 -64 -24l-53 -36q-24 -16 -133 -26l-24 11q-7 25 -7 46q0 17 7.5 41t28.5 64l12 9l28 30l9 52l8 11l62 50l15 57l5 11l62 33l30 31q56 8 101 8
q39 0 86.5 -10t68.5 -55zM608 1356l95 -23q41 -27 69 -80l39 -73v-9q-11 -32 -11 -43l43 -69l7 -21l-15 -58q43 -68 43 -87v-40q0 -24 47 -90v-50q0 -9 32 -71v-14l-7 -51q26 -45 41 -89l8 -85l51 -88l6 -94q38 -87 76 -97q68 -26 118 -69l24 -62v-3q-25 -53 -55 -66l-18 -9
l-35 -13q-53 15 -100 17q-40 -10 -79 -27l-82 19l-65 -17l-16 2q-30 8 -56 19q-60 16 -71 65v8q4 37 40 65q34 29 69 65q20 20 22 66l-8 43l3 34q-3 28 -7.5 37t-16 15.5t-48.5 14.5q-4 -1 -44 -18h-18q-20 5 -53 16h-3q-30 -6 -64 -22l-50 4l-39 -20q-17 -33 -32 -93
q9 -71 53 -108l69 -61q23 -19 25 -42q1 -13 1 -24q-4 -41 -57 -63l-15 -2l-68 17q-24 -3 -99 -23h-16l-89 21l-95 -19l-11 2q-77 22 -98 68v9l18 54q19 29 65 59q42 33 62 47l37 76l4 21l6 64l28 63l1 60q0 16 46 73q13 31 13 62q0 20 -5 39q28 45 28 54v40q19 53 30 96
l-1 53l4 16q56 77 56 111l-4 25q25 49 54 79l6 10l-8 81q29 67 51 120l14 27q22 55 55 56zM612 866l9 -35l-21 -56l-2 -66v-16l-30 -64l-20 -52q0 -24 20 -40q11 -2 21 -2q19 0 36 8l10 -1q18 -17 49 -17h6q58 0 62 43l-12 34l4 31v20q-30 102 -53 136l9 45q-38 41 -38 62
l6 40l-11 2q-45 -56 -45 -72z" />
    <glyph glyph-name="Acircumflex" unicode="&#xc2;" horiz-adv-x="1356" 
d="M1020 1349q-15 -4 -30 -4q-16 0 -32 4l-38 5q-38 19 -65 27l-25 25l-17 6l-36 14l-11 10q-17 24 -43 50q-34 17 -49 19l-12 1l-43 -23l-16 -20l-41 -17l-33 -38l-10 -10l-57 -18q-54 -31 -107 -38q-36 11 -36 64q0 12 1 25v7q6 35 21 67q20 14 45 58l46 18l48 66l73 33
l41 37l43 27q39 18 74 24h9q31 0 49 -20q22 -25 60 -45l19 -41l50 -31l13 -14l16 -36l52 -36l7 -11l20 -52q33 -19 42 -48q9 -18 9 -33q0 -6 -2 -11q-5 -39 -35 -41zM620 1356l95 -23q41 -27 69 -80l39 -73l-1 -11q-10 -30 -10 -41l43 -69l7 -21l-15 -58q43 -68 43 -87v-40
q0 -24 47 -90v-50q0 -9 32 -71v-14l-7 -51q26 -45 41 -89l8 -85l51 -88l6 -94q38 -87 76 -97q68 -26 118 -69l24 -62v-3q-25 -53 -55 -66l-18 -9l-35 -13q-53 15 -100 17q-40 -10 -79 -27l-82 19l-65 -17l-16 2q-30 8 -56 19q-60 16 -71 65v8q4 37 40 65q34 29 69 65
q20 20 22 66l-8 43l3 34q-3 28 -7.5 37t-16 15.5t-48.5 14.5q-4 -1 -44 -18h-18q-20 5 -53 16h-3q-30 -6 -64 -22l-50 4l-39 -20q-17 -33 -32 -93q9 -71 53 -108l69 -61q23 -19 25 -42q1 -13 1 -24q-4 -41 -57 -63l-15 -2l-68 17q-24 -3 -99 -23h-16l-89 21l-95 -19l-11 2
q-77 22 -98 68v9l18 54q19 29 65 59q42 33 62 47l37 76l4 21l6 64l28 63l1 60q0 16 46 73q13 31 13 62q0 20 -5 39q28 45 28 54v40q19 53 30 96l-1 53l4 16q56 77 56 111l-4 25q25 49 54 79l6 10l-8 81q29 67 51 120l14 27q22 55 55 56zM624 866l9 -35l-21 -56l-2 -66v-16
l-30 -64l-20 -52q0 -24 20 -40q11 -2 21 -2q19 0 36 8l10 -1q18 -17 49 -17h6q58 0 62 43l-12 34l4 31v20q-30 102 -53 136l9 45q-38 41 -38 62l6 40l-11 2q-45 -56 -45 -72z" />
    <glyph glyph-name="Atilde" unicode="&#xc3;" horiz-adv-x="1355" 
d="M642 1472l-29 22h-4l-33 5q-16 9 -32 9q-20 0 -39 -13l-12 -8l-43 -14l-30 -33l-34 -26q-23 -11 -52 -14h-4q-26 0 -41 22q-10 13 -10 36q0 18 6 42l9 22q15 25 39 81q51 26 65 59l11 12l46 19q21 26 81 44q7 1 14 1q40 0 80 -7q33 -27 48 -34l60 -24l42 -42q35 -8 57 -8
q15 0 24 4l23 26l37 6l29 42q47 20 99 26q45 -8 45 -48v-2l-12 -42q-17 -70 -47 -105q-25 -13 -53 -32l-25 -36l-8 -8l-47 -23q-37 -31 -77 -31q-2 0 -24 0.5t-68 18.5l-28 27l-46 12zM620 1366l95 -23q41 -27 69 -80l39 -73l-1 -12q-10 -29 -10 -40l43 -69l7 -21l-15 -58
q43 -68 43 -87v-40q0 -24 47 -90v-50q0 -9 32 -71v-14l-7 -51q26 -45 41 -89l8 -85l51 -88l6 -94q38 -87 76 -97q68 -26 118 -69l24 -62v-3q-25 -53 -55 -66l-18 -9l-35 -13q-53 15 -100 17q-40 -10 -79 -27l-82 19l-65 -17l-16 2q-30 8 -56 19q-60 16 -71 65v8q4 37 40 65
q34 29 69 65q20 20 22 66l-8 43l3 34q-3 28 -7.5 37t-16 15.5t-48.5 14.5q-4 -1 -44 -18h-18q-20 5 -53 16h-3q-30 -6 -64 -22l-50 4l-39 -20q-17 -33 -32 -93q9 -71 53 -108l69 -61q23 -19 25 -42q1 -13 1 -24q-4 -41 -57 -63l-15 -2l-68 17q-24 -3 -99 -23h-16l-89 21
l-95 -19l-11 2q-77 22 -98 68v9l18 54q19 29 65 59q42 33 62 47l37 76l4 21l6 64l28 63l1 60q0 16 46 73q13 31 13 62q0 20 -5 39q28 45 28 54v40q19 53 30 96l-1 53l4 16q56 77 56 111l-4 25q25 49 54 79l6 10l-8 81q29 67 51 120l14 27q22 55 55 56zM624 876l9 -35
l-21 -56l-2 -66v-16l-30 -64l-20 -52q0 -24 20 -40q11 -2 21 -2q19 0 36 8l10 -1q18 -17 49 -17h6q58 0 62 43l-12 34l4 31v20q-30 102 -53 136l9 45q-38 41 -38 62l6 40l-11 2q-45 -56 -45 -72z" />
    <glyph glyph-name="Adieresis" unicode="&#xc4;" horiz-adv-x="1356" 
d="M964 1389l-19 1l-46 9l-33 6q-62 17 -114 90q-15 40 -15 84v6l1 5q9 60 66 113q59 38 126 43l10 -1q22 0 88 -34q34 -27 45 -69q6 -33 27 -84q-4 -53 -31 -91q-20 -26 -40 -35t-43 -29zM442 1393q-101 7 -161 69l-33 54l-4 23l5 55l-5 32q16 61 68 83q29 25 92 32h18
q46 -1 82 -18t74 -83q21 -40 21 -57v-1q-15 -55 -20 -110l-24 -20q-29 -21 -45 -33q-39 -26 -68 -26zM620 1356l95 -23q41 -27 69 -80l39 -73v-10q-11 -31 -11 -42l43 -69l7 -21l-15 -58q43 -68 43 -87v-40q0 -24 47 -90v-50q0 -9 32 -71v-14l-7 -51q26 -45 41 -89l8 -85
l51 -88l6 -94q38 -87 76 -97q68 -26 118 -69l24 -62v-3q-25 -53 -55 -66l-18 -9l-35 -13q-53 15 -100 17q-40 -10 -79 -27l-82 19l-65 -17l-16 2q-30 8 -56 19q-60 16 -71 65v8q4 37 40 65q34 29 69 65q20 20 22 66l-8 43l3 34q-3 28 -7.5 37t-16 15.5t-48.5 14.5
q-4 -1 -44 -18h-18q-20 5 -53 16h-3q-30 -6 -64 -22l-50 4l-39 -20q-17 -33 -32 -93q9 -71 53 -108l69 -61q23 -19 25 -42q1 -13 1 -24q-4 -41 -57 -63l-15 -2l-68 17q-24 -3 -99 -23h-16l-89 21l-95 -19l-11 2q-77 22 -98 68v9l18 54q19 29 65 59q42 33 62 47l37 76l4 21
l6 64l28 63l1 60q0 16 46 73q13 31 13 62q0 20 -5 39q28 45 28 54v40q19 53 30 96l-1 53l4 16q56 77 56 111l-4 25q25 49 54 79l6 10l-8 81q29 67 51 120l14 27q22 55 55 56zM624 866l9 -35l-21 -56l-2 -66v-16l-30 -64l-20 -52q0 -24 20 -40q11 -2 21 -2q19 0 36 8l10 -1
q18 -17 49 -17h6q58 0 62 43l-12 34l4 31v20q-30 102 -53 136l9 45q-38 41 -38 62l6 40l-11 2q-45 -56 -45 -72z" />
    <glyph glyph-name="Aring" unicode="&#xc5;" horiz-adv-x="1351" 
d="M569 1519q21 -38 61 -44q26 0 45.5 6t44.5 20l7 20q9 21 9 40q0 15 -10 43l-27 23l-15 6q-19 6 -35 6q-48 0 -85 -46q-5 -11 -5 -26q0 -20 10 -48zM620 866l9 -35l-21 -56l-2 -66v-16l-30 -64l-20 -52q0 -24 20 -40q11 -2 21 -2q19 0 36 8l10 -1q18 -17 49 -17h6
q58 0 62 43l-12 34l4 31v20q-30 102 -53 136l9 45q-38 41 -38 62l6 40l-11 2q-45 -56 -45 -72zM537 1260q3 9 7 18l10 23q0 7 -3 10l-14 3l-21 3q-30 27 -56 74l-36 47l-4 12q-1 40 -13 79l-5 34l1 21q0 43 51 105q29 45 65 76h11l63 4l32 18l59 -6l44 5h20q25 -22 49 -41
q45 -35 77 -104l19 -36v-7q0 -104 -29 -149q-13 -48 -29 -72q-11 -28 -82 -67l-2 -8q8 -10 17 -28q6 -10 12 -21l36 -72l1 -9q-9 -33 -9 -44l43 -69l7 -21l-15 -58q43 -68 43 -87v-40q0 -24 47 -90v-50q0 -9 32 -71v-14l-7 -51q26 -45 41 -89l8 -85l51 -88l6 -94
q38 -87 76 -97q68 -26 118 -69l24 -62v-3q-25 -53 -55 -66l-18 -9l-35 -13q-53 15 -100 17q-40 -10 -79 -27l-82 19l-65 -17l-16 2q-30 8 -56 19q-60 16 -71 65v8q4 37 40 65q34 29 69 65q20 20 22 66l-8 43l3 34q-3 28 -7.5 37t-16 15.5t-48.5 14.5q-4 -1 -44 -18h-18
q-20 5 -53 16h-3q-30 -6 -64 -22l-50 4l-39 -20q-17 -33 -32 -93q9 -71 53 -108l69 -61q23 -19 25 -42q1 -13 1 -24q-4 -41 -57 -63l-15 -2l-68 17q-24 -3 -99 -23h-16l-89 21l-95 -19l-11 2q-77 22 -98 68v9l18 54q19 29 65 59q42 33 62 47l37 76l4 21l6 64l28 63l1 60
q0 16 46 73q13 31 13 62q0 20 -5 39q28 45 28 54v40q19 53 30 96l-1 53l4 16q56 77 56 111l-4 25q25 49 54 79l6 10l-8 81q26 59 41 107z" />
    <glyph glyph-name="AE" unicode="&#xc6;" horiz-adv-x="2811" 
d="M2173 1349l88 -27h20l97 16q47 -27 106 -45l32 -42v-17l-7 -29l46 -113l-2 -45l25 -102l-18 -80l8 -26q0 -19 -40 -84q-30 -39 -68 -39q-28 0 -41 37l-18 69q-19 55 -65 108v22q28 31 28 40v4q-12 28 -28 56q0 24 5.5 39t5.5 21q0 17 -28 33q-16 3 -25 7h-9
q-41 0 -89 -28h-19q-37 11 -75 16h-6q-40 0 -87 -25q-21 0 -107 17h-6q-36 0 -44 -8v-20q0 -26 20 -53l-12 -53q0 -41 32 -71v-33q-20 -39 -20 -46q2 -9 36 -34l1 -20l-11 -50l20 -12h1l57 33l36 -4q13 6 25 23.5t17 59.5q35 52 58 95l49 37q59 0 59 -75q28 -53 28 -83
l-7 -37l19 -71l-4 -46l-14 -76l18 -43l7 -41q-12 -129 -79 -200h-14q-43 0 -72 34l-55 56l-4 73l-24 69v1l-10 5l-17 -2l-44 3l-44 -47q-20 -11 -28 -31l4 -36l-15 -41q0 -24 31 -64v-20l-23 -32l36 -29l11 -11l-13 -50l21 -22l45 10l33 -3q43 13 59 30h8q23 0 54 -33l62 24
l76 -34l41 -4q30 31 30 62q0 12 -6 57l10 39l-8 55q0 19 53 66l35 54l8 57l24 24q40 0 80 -48q33 -37 60 -131l-12 -72l12 -51v-9l-24 -69l7 -48l4 -25l-19 -71l8 -42q0 -32 -78 -82h-12l-58 12l-40 -8l-30 7l-64 -28l-110 24l-110 -27h-17q-76 24 -97 24h-9l-82 -26l-55 34
h-47l-68 -24h-11l-51 20l-34 -4l-45 8h-5l-36 -4q-18 0 -71 32q-60 0 -74 36v13q15 139 100 139h5l58 -4l60 27l47 23l23 37l1 51l14 54l-16 79l13 48l-13 71l15 62l-12 44l17 66l-12 43l20 62l-21 79q17 39 17 64l-27 43q11 29 22 72q0 4 -9.5 20t-37.5 29q-10 1 -19 1
q-27 0 -43 -11l-59 36l-46 -4q-28 11 -49 42v31q72 123 172 123l56 -20l22 -1l93 30l143 -29q7 0 65 28h20q46 -36 100 -36l65 39zM608 1366l95 -23q41 -27 69 -80l39 -73l-7 -19q-4 -22 -4 -33l43 -69l7 -21l-15 -58q43 -68 43 -87v-40q0 -24 47 -90v-50q0 -9 32 -71v-14
l-7 -51q26 -45 41 -89l8 -85l51 -88l6 -94q38 -87 76 -97q68 -26 118 -69l24 -62v-3q-25 -53 -55 -66l-18 -9l-35 -13q-53 15 -100 17q-40 -10 -79 -27l-82 19l-65 -17l-16 2q-30 8 -56 19q-60 16 -71 65v8q4 37 40 65q34 29 69 65q20 20 22 66l-8 43l3 34q-3 28 -7.5 37
t-16 15.5t-48.5 14.5q-4 -1 -44 -18h-18q-20 5 -53 16h-3q-30 -6 -64 -22l-50 4l-39 -20q-17 -33 -32 -93q9 -71 53 -108l69 -61q23 -19 25 -42q1 -13 1 -24q-4 -41 -57 -63l-15 -2l-68 17q-24 -3 -99 -23h-16l-89 21l-95 -19l-11 2q-77 22 -98 68v9l18 54q19 29 65 59
q42 33 62 47l37 76l4 21l6 64l28 63l1 60q0 16 46 73q13 31 13 62q0 20 -5 39q28 45 28 54v40q19 53 30 96l-1 53l4 16q56 77 56 111l-4 25q25 49 54 79l6 10l-8 81q29 67 51 120l14 27q22 55 55 56zM612 876l9 -35l-21 -56l-2 -66v-16l-30 -64l-20 -52q0 -24 20 -40
q11 -2 21 -2q19 0 36 8l10 -1q18 -17 49 -17h6q58 0 62 43l-12 34l4 31v20q-30 102 -53 136l9 45q-38 41 -38 62l6 40l-11 2q-45 -56 -45 -72z" />
    <glyph glyph-name="Ccedilla" unicode="&#xc7;" horiz-adv-x="1435" 
d="M596 -46l-6 5l-77 24l-56 51l-70 42q-20 41 -44 68q-43 61 -62 69l-6 16l-19 66l-49 92q-6 86 -26 150l4 70q-20 37 -28 53l16 71l-9 38l20 71l-1 85v15l37 64q3 31 3 69q29 40 45 60l6 52l6 9q21 21 58 45q25 30 56 69q27 0 90 72q47 0 114 52h24l33 -3l53 25l59 -21
l54 8q101 -57 131 -57q21 23 152 40h13q80 -31 80 -88l-4 -96v-44l-23 -62l7 -45l-4 -51q22 -66 58 -128q-43 -138 -114 -138q-42 17 -101 65q-26 29 -46 76l-2 46l-47 87l-6 47q0 41 -62 48q-41 51 -87 51q-36 12 -52 15q-14 -5 -51 -18l-19 -4q-35 3 -52 3q-21 0 -60 -47
q-65 -41 -71 -79q-9 -35 -9 -62l-49 -59q6 -20 7 -67v-11q-23 -53 -23 -58l14 -76v-20q-17 -40 -26 -84q0 -7 46 -52v-15l-12 -63l43 -49l16 -56q5 -24 53 -54q9 -8 21 -29t33 -43l66 -13l61 -37l34 3q28 5 47 23l12 2l63 -3q48 13 77 79q42 20 56 104q30 37 62 70
q45 58 112 58l29 -44q40 -65 40 -100q0 -10 -3 -17q6 -27 6 -51q0 -45 -20 -84q-34 -38 -43 -93l-53 -36q-18 -30 -30 -51l-60 -32l-39 -51q-30 0 -54 -13q-15 -7 -15 -23t21 -53t26 -93l-1 -25l-24 -30v-3l-3 -30q-7 -54 -76 -101q-45 -24 -90 -34t-87 -11l-36 15l-51 7
l-37 29q-80 33 -96 138q-1 8 -1 15q0 58 37 58q23 0 62 -24l43 -14l32 -27q16 -10 45 -10q8 0 16 1q35 2 43 33q1 5 1 9q0 21 -20 38q-6 7 -61 28q-27 11 -70 83z" />
    <glyph glyph-name="Egrave" unicode="&#xc8;" horiz-adv-x="1557" 
d="M919 1334l88 -27h20l97 16q47 -27 106 -45l32 -42v-17l-7 -29l46 -113l-2 -45l25 -102l-18 -80l8 -26q0 -19 -40 -84q-30 -39 -68 -39q-28 0 -41 37l-18 69q-19 55 -65 108v22q28 31 28 40v4q-12 28 -28 56q0 24 5.5 39t5.5 21q0 17 -28 33q-16 3 -25 7h-9q-41 0 -89 -28
h-19q-37 11 -75 16h-6q-40 0 -87 -25q-21 0 -107 17h-6q-36 0 -44 -8v-20q0 -26 20 -53l-12 -53q0 -41 32 -71v-33q-20 -39 -20 -46q2 -9 36 -34l1 -20l-11 -50l20 -12h1l57 33l36 -4q13 6 25 23.5t17 59.5q35 52 58 95l49 37q59 0 59 -75q28 -53 28 -83l-7 -37l19 -71
l-4 -46l-14 -76l18 -43l7 -41q-12 -129 -79 -200h-14q-43 0 -72 34l-55 56l-4 73l-24 69v1l-10 5l-17 -2l-44 3l-44 -47q-20 -11 -28 -31l4 -36l-15 -41q0 -24 31 -64v-20l-23 -32l36 -29l11 -11l-13 -50l21 -22l45 10l33 -3q43 13 59 30h8q23 0 54 -33l62 24l76 -34l41 -4
q30 31 30 62q0 12 -6 57l10 39l-8 55q0 19 53 66l35 54l8 57l24 24q40 0 80 -48q33 -37 60 -131l-12 -72l12 -51v-9l-24 -69l7 -48l4 -25l-19 -71l8 -42q0 -32 -78 -82h-12l-58 12l-40 -8l-30 7l-64 -28l-110 24l-110 -27h-17q-76 24 -97 24h-9l-82 -26l-55 34h-47l-68 -24
h-11l-51 20l-34 -4l-45 8h-5l-36 -4q-18 0 -71 32q-60 0 -74 36v13q15 139 100 139h5l58 -4l60 27l47 23l23 37l1 51l14 54l-16 79l13 48l-13 71l15 62l-12 44l17 66l-12 43l20 62l-21 79q17 39 17 64l-27 43q11 29 22 72q0 4 -9.5 20t-37.5 29q-10 1 -19 1q-27 0 -43 -11
l-59 36l-46 -4q-28 11 -49 42v31q72 123 172 123l56 -20l22 -1l93 30l143 -29q7 0 65 28h20q46 -36 100 -36l65 39zM391 1826q31 6 70 6q45 0 101 -8l30 -31l61 -33l5 -11l15 -57l63 -50l7 -11l10 -52l28 -30l12 -9q21 -40 31 -74q5 -15 5 -33q0 -20 -7 -44l-25 -11
q-108 10 -133 26l-52 36q-2 1 -64 24l-14 9l-34 45l-76 32l-2 2q-25 38 -37 55q-50 33 -62 50q-24 43 -24 76q0 19 13.5 49t78.5 44z" />
    <glyph glyph-name="Eacute" unicode="&#xc9;" horiz-adv-x="1557" 
d="M919 1334l88 -27h20l97 16q47 -27 106 -45l32 -42v-17l-7 -29l46 -113l-2 -45l25 -102l-18 -80l8 -26q0 -19 -40 -84q-30 -39 -68 -39q-28 0 -41 37l-18 69q-19 55 -65 108v22q28 31 28 40v4q-12 28 -28 56q0 24 5.5 39t5.5 21q0 17 -28 33q-16 3 -25 7h-9q-41 0 -89 -28
h-19q-37 11 -75 16h-6q-40 0 -87 -25q-21 0 -107 17h-6q-36 0 -44 -8v-20q0 -26 20 -53l-12 -53q0 -41 32 -71v-33q-20 -39 -20 -46q2 -9 36 -34l1 -20l-11 -50l20 -12h1l57 33l36 -4q13 6 25 23.5t17 59.5q35 52 58 95l49 37q59 0 59 -75q28 -53 28 -83l-7 -37l19 -71
l-4 -46l-14 -76l18 -43l7 -41q-12 -129 -79 -200h-14q-43 0 -72 34l-55 56l-4 73l-24 69v1l-10 5l-17 -2l-44 3l-44 -47q-20 -11 -28 -31l4 -36l-15 -41q0 -24 31 -64v-20l-23 -32l36 -29l11 -11l-13 -50l21 -22l45 10l33 -3q43 13 59 30h8q23 0 54 -33l62 24l76 -34l41 -4
q30 31 30 62q0 12 -6 57l10 39l-8 55q0 19 53 66l35 54l8 57l24 24q40 0 80 -48q33 -37 60 -131l-12 -72l12 -51v-9l-24 -69l7 -48l4 -25l-19 -71l8 -42q0 -32 -78 -82h-12l-58 12l-40 -8l-30 7l-64 -28l-110 24l-110 -27h-17q-76 24 -97 24h-9l-82 -26l-55 34h-47l-68 -24
h-11l-51 20l-34 -4l-45 8h-5l-36 -4q-18 0 -71 32q-60 0 -74 36v13q15 139 100 139h5l58 -4l60 27l47 23l23 37l1 51l14 54l-16 79l13 48l-13 71l15 62l-12 44l17 66l-12 43l20 62l-21 79q17 39 17 64l-27 43q11 29 22 72q0 4 -9.5 20t-37.5 29q-10 1 -19 1q-27 0 -43 -11
l-59 36l-46 -4q-28 11 -49 42v31q72 123 172 123l56 -20l22 -1l93 30l143 -29q7 0 65 28h20q46 -36 100 -36l65 39zM1274 1767q7 -15 7 -34q0 -33 -24 -76q-12 -17 -63 -50q-12 -17 -36 -55l-3 -2l-75 -32l-35 -45l-13 -9q-62 -23 -64 -24l-53 -36q-24 -16 -133 -26l-24 11
q-7 25 -7 46q0 17 7.5 41t28.5 64l12 9l28 30l9 52l8 11l62 50l15 57l5 11l62 33l30 31q56 8 101 8q39 0 86.5 -10t68.5 -55z" />
    <glyph glyph-name="Ecircumflex" unicode="&#xca;" horiz-adv-x="1557" 
d="M919 1334l88 -27h20l97 16q47 -27 106 -45l32 -42v-17l-7 -29l46 -113l-2 -45l25 -102l-18 -80l8 -26q0 -19 -40 -84q-30 -39 -68 -39q-28 0 -41 37l-18 69q-19 55 -65 108v22q28 31 28 40v4q-12 28 -28 56q0 24 5.5 39t5.5 21q0 17 -28 33q-16 3 -25 7h-9q-41 0 -89 -28
h-19q-37 11 -75 16h-6q-40 0 -87 -25q-21 0 -107 17h-6q-36 0 -44 -8v-20q0 -26 20 -53l-12 -53q0 -41 32 -71v-33q-20 -39 -20 -46q2 -9 36 -34l1 -20l-11 -50l20 -12h1l57 33l36 -4q13 6 25 23.5t17 59.5q35 52 58 95l49 37q59 0 59 -75q28 -53 28 -83l-7 -37l19 -71
l-4 -46l-14 -76l18 -43l7 -41q-12 -129 -79 -200h-14q-43 0 -72 34l-55 56l-4 73l-24 69v1l-10 5l-17 -2l-44 3l-44 -47q-20 -11 -28 -31l4 -36l-15 -41q0 -24 31 -64v-20l-23 -32l36 -29l11 -11l-13 -50l21 -22l45 10l33 -3q43 13 59 30h8q23 0 54 -33l62 24l76 -34l41 -4
q30 31 30 62q0 12 -6 57l10 39l-8 55q0 19 53 66l35 54l8 57l24 24q40 0 80 -48q33 -37 60 -131l-12 -72l12 -51v-9l-24 -69l7 -48l4 -25l-19 -71l8 -42q0 -32 -78 -82h-12l-58 12l-40 -8l-30 7l-64 -28l-110 24l-110 -27h-17q-76 24 -97 24h-9l-82 -26l-55 34h-47l-68 -24
h-11l-51 20l-34 -4l-45 8h-5l-36 -4q-18 0 -71 32q-60 0 -74 36v13q15 139 100 139h5l58 -4l60 27l47 23l23 37l1 51l14 54l-16 79l13 48l-13 71l15 62l-12 44l17 66l-12 43l20 62l-21 79q17 39 17 64l-27 43q11 29 22 72q0 4 -9.5 20t-37.5 29q-10 1 -19 1q-27 0 -43 -11
l-59 36l-46 -4q-28 11 -49 42v31q72 123 172 123l56 -20l22 -1l93 30l143 -29q7 0 65 28h20q46 -36 100 -36l65 39zM1139 1399q-15 -4 -30 -4q-16 0 -32 4l-38 5q-38 19 -65 27l-25 25l-17 6l-36 14l-11 10q-17 24 -43 50q-34 17 -49 19l-12 1l-43 -23l-16 -20l-41 -17
l-33 -38l-10 -10l-57 -18q-54 -31 -107 -38q-36 11 -36 64q0 12 1 25v7q6 35 21 67q20 14 45 58l46 18l48 66l73 33l41 37l43 27q39 18 74 24h9q31 0 49 -20q22 -25 60 -45l19 -41l50 -31l13 -14l16 -36l52 -36l7 -11l20 -52q33 -19 42 -48q9 -18 9 -33q0 -6 -2 -11
q-5 -39 -35 -41z" />
    <glyph glyph-name="Edieresis" unicode="&#xcb;" horiz-adv-x="1557" 
d="M919 1334l88 -27h20l97 16q47 -27 106 -45l32 -42v-17l-7 -29l46 -113l-2 -45l25 -102l-18 -80l8 -26q0 -19 -40 -84q-30 -39 -68 -39q-28 0 -41 37l-18 69q-19 55 -65 108v22q28 31 28 40v4q-12 28 -28 56q0 24 5.5 39t5.5 21q0 17 -28 33q-16 3 -25 7h-9q-41 0 -89 -28
h-19q-37 11 -75 16h-6q-40 0 -87 -25q-21 0 -107 17h-6q-36 0 -44 -8v-20q0 -26 20 -53l-12 -53q0 -41 32 -71v-33q-20 -39 -20 -46q2 -9 36 -34l1 -20l-11 -50l20 -12h1l57 33l36 -4q13 6 25 23.5t17 59.5q35 52 58 95l49 37q59 0 59 -75q28 -53 28 -83l-7 -37l19 -71
l-4 -46l-14 -76l18 -43l7 -41q-12 -129 -79 -200h-14q-43 0 -72 34l-55 56l-4 73l-24 69v1l-10 5l-17 -2l-44 3l-44 -47q-20 -11 -28 -31l4 -36l-15 -41q0 -24 31 -64v-20l-23 -32l36 -29l11 -11l-13 -50l21 -22l45 10l33 -3q43 13 59 30h8q23 0 54 -33l62 24l76 -34l41 -4
q30 31 30 62q0 12 -6 57l10 39l-8 55q0 19 53 66l35 54l8 57l24 24q40 0 80 -48q33 -37 60 -131l-12 -72l12 -51v-9l-24 -69l7 -48l4 -25l-19 -71l8 -42q0 -32 -78 -82h-12l-58 12l-40 -8l-30 7l-64 -28l-110 24l-110 -27h-17q-76 24 -97 24h-9l-82 -26l-55 34h-47l-68 -24
h-11l-51 20l-34 -4l-45 8h-5l-36 -4q-18 0 -71 32q-60 0 -74 36v13q15 139 100 139h5l58 -4l60 27l47 23l23 37l1 51l14 54l-16 79l13 48l-13 71l15 62l-12 44l17 66l-12 43l20 62l-21 79q17 39 17 64l-27 43q11 29 22 72q0 4 -9.5 20t-37.5 29q-10 1 -19 1q-27 0 -43 -11
l-59 36l-46 -4q-28 11 -49 42v31q72 123 172 123l56 -20l22 -1l93 30l143 -29q7 0 65 28h20q46 -36 100 -36l65 39zM1099 1407l-19 1l-46 9l-33 6q-62 17 -114 90q-15 40 -15 84v6l1 5q9 60 66 113q59 38 126 43l10 -1q22 0 88 -34q34 -27 45 -69q6 -33 27 -84
q-4 -53 -31 -91q-20 -26 -40 -35t-43 -29zM577 1411q-101 7 -161 69l-33 54l-4 23l5 55l-5 32q16 61 68 83q29 25 92 32h18q46 -1 82 -18t74 -83q21 -40 21 -57v-1q-15 -55 -20 -110l-24 -20q-29 -21 -45 -33q-39 -26 -68 -26z" />
    <glyph glyph-name="Igrave" unicode="&#xcc;" horiz-adv-x="1301" 
d="M272 1836q31 6 70 6q45 0 101 -8l30 -31l61 -33l5 -11l15 -57l63 -50l7 -11l10 -52l28 -30l12 -9q21 -40 31 -74q5 -15 5 -33q0 -20 -7 -44l-25 -11q-108 10 -133 26l-52 36q-2 1 -64 24l-14 9l-34 45l-76 32l-2 2q-25 38 -37 55q-50 33 -62 50q-24 43 -24 76
q0 19 13.5 49t78.5 44zM274 1358q91 -24 138 -28q19 0 80 28h12l68 -32q28 0 120 36h11q63 -20 137 -20l68 11l51 -19q27 -5 77 -11l61 11q64 0 83 -167q0 -24 -59 -63l-73 -29l-80 19l-58 -17q-21 3 -37 3q-25 0 -38 -7l-60 -40q-19 -17 -19 -28l16 -60v-9l-12 -58l8 -52
l-7 -50l20 -56l-9 -47l4 -76l-8 -41l15 -96l-15 -54q5 -41 32 -68l-16 -35q-12 -23 -12 -48l13 -25l17 -39l37 -41l47 12q33 -29 64 -29q25 0 49 19h19l73 -40q80 -32 80 -77v-24l-3 -21q-8 -59 -76 -104h-16q-23 0 -80 2l-24 -2q-7 0 -71 -26h-14q-33 4 -101 38h-6
q-7 0 -79 -30h-17l-75 19l-1 -1h-13l-28 -2q-4 0 -61 -16h-18l-79 22h-27q-11 0 -78 -26h-27l-64 38q-69 35 -77 79l4 49v2q0 31 36 63l33 21l27 11l40 25l107 -23h2q22 0 64 27q10 -5 18 -5q25 0 57 57l12 52l-9 56l21 54q0 9 -24 41v22l15 54l-11 49v20l11 45
q-15 38 -15 67l11 46l-15 57q0 23 20 53v11q-12 15 -12 43v7l15 57l-11 41v29l8 44v4q-23 34 -64 34h-12q-4 0 -58 -25h-19l-55 19l-5 1l-60 -9q-47 6 -122 102l-5 62q13 44 65 74q35 40 69 40z" />
    <glyph glyph-name="Iacute" unicode="&#xcd;" horiz-adv-x="1301" 
d="M1114 1777q7 -15 7 -34q0 -33 -24 -76q-12 -17 -63 -50q-12 -17 -36 -55l-3 -2l-75 -32l-35 -45l-13 -9q-62 -23 -64 -24l-53 -36q-24 -16 -133 -26l-24 11q-7 25 -7 46q0 17 7.5 41t28.5 64l12 9l28 30l9 52l8 11l62 50l15 57l5 11l62 33l30 31q56 8 101 8
q39 0 86.5 -10t68.5 -55zM274 1358q91 -24 138 -28q19 0 80 28h12l68 -32q28 0 120 36h11q63 -20 137 -20l68 11l51 -19q27 -5 77 -11l61 11q64 0 83 -167q0 -24 -59 -63l-73 -29l-80 19l-58 -17q-21 3 -37 3q-25 0 -38 -7l-60 -40q-19 -17 -19 -28l16 -60v-9l-12 -58l8 -52
l-7 -50l20 -56l-9 -47l4 -76l-8 -41l15 -96l-15 -54q5 -41 32 -68l-16 -35q-12 -23 -12 -48l13 -25l17 -39l37 -41l47 12q33 -29 64 -29q25 0 49 19h19l73 -40q80 -32 80 -77v-24l-3 -21q-8 -59 -76 -104h-16q-23 0 -80 2l-24 -2q-7 0 -71 -26h-14q-33 4 -101 38h-6
q-7 0 -79 -30h-17l-75 19l-1 -1h-13l-28 -2q-4 0 -61 -16h-18l-79 22h-27q-11 0 -78 -26h-27l-64 38q-69 35 -77 79l4 49v2q0 31 36 63l33 21l27 11l40 25l107 -23h2q22 0 64 27q10 -5 18 -5q25 0 57 57l12 52l-9 56l21 54q0 9 -24 41v22l15 54l-11 49v20l11 45
q-15 38 -15 67l11 46l-15 57q0 23 20 53v11q-12 15 -12 43v7l15 57l-11 41v29l8 44v4q-23 34 -64 34h-12q-4 0 -58 -25h-19l-55 19l-5 1l-60 -9q-47 6 -122 102l-5 62q13 44 65 74q35 40 69 40z" />
    <glyph glyph-name="Icircumflex" unicode="&#xce;" horiz-adv-x="1301" 
d="M990 1419q-15 -4 -30 -4q-16 0 -32 4l-38 5q-38 19 -65 27l-25 25l-17 6l-36 14l-11 10q-17 24 -43 50q-34 17 -49 19l-12 1l-43 -23l-16 -20l-41 -17l-33 -38l-10 -10l-57 -18q-54 -31 -107 -38q-36 11 -36 64q0 12 1 25v7q6 35 21 67q20 14 45 58l46 18l48 66l73 33
l41 37l43 27q39 18 74 24h9q31 0 49 -20q22 -25 60 -45l19 -41l50 -31l13 -14l16 -36l52 -36l7 -11l20 -52q33 -19 42 -48q9 -18 9 -33q0 -6 -2 -11q-5 -39 -35 -41zM274 1368q91 -24 138 -28q19 0 80 28h12l68 -32q28 0 120 36h11q63 -20 137 -20l68 11l51 -19
q27 -5 77 -11l61 11q64 0 83 -167q0 -24 -59 -63l-73 -29l-80 19l-58 -17q-21 3 -37 3q-25 0 -38 -7l-60 -40q-19 -17 -19 -28l16 -60v-9l-12 -58l8 -52l-7 -50l20 -56l-9 -47l4 -76l-8 -41l15 -96l-15 -54q5 -41 32 -68l-16 -35q-12 -23 -12 -48l13 -25l17 -39l37 -41
l47 12q33 -29 64 -29q25 0 49 19h19l73 -40q80 -32 80 -77v-24l-3 -21q-8 -59 -76 -104h-16q-23 0 -80 2l-24 -2q-7 0 -71 -26h-14q-33 4 -101 38h-6q-7 0 -79 -30h-17l-75 19l-1 -1h-13l-28 -2q-4 0 -61 -16h-18l-79 22h-27q-11 0 -78 -26h-27l-64 38q-69 35 -77 79l4 49v2
q0 31 36 63l33 21l27 11l40 25l107 -23h2q22 0 64 27q10 -5 18 -5q25 0 57 57l12 52l-9 56l21 54q0 9 -24 41v22l15 54l-11 49v20l11 45q-15 38 -15 67l11 46l-15 57q0 23 20 53v11q-12 15 -12 43v7l15 57l-11 41v29l8 44v4q-23 34 -64 34h-12q-4 0 -58 -25h-19l-55 19l-5 1
l-60 -9q-47 6 -122 102l-5 62q13 44 65 74q35 40 69 40z" />
    <glyph glyph-name="Idieresis" unicode="&#xcf;" horiz-adv-x="1301" 
d="M940 1437l-19 1l-46 9l-33 6q-62 17 -114 90q-15 40 -15 84v6l1 5q9 60 66 113q59 38 126 43l10 -1q22 0 88 -34q34 -27 45 -69q6 -33 27 -84q-4 -53 -31 -91q-20 -26 -40 -35t-43 -29zM418 1441q-101 7 -161 69l-33 54l-4 23l5 55l-5 32q16 61 68 83q29 25 92 32h18
q46 -1 82 -18t74 -83q21 -40 21 -57v-1q-15 -55 -20 -110l-24 -20q-29 -21 -45 -33q-39 -26 -68 -26zM274 1368q91 -24 138 -28q19 0 80 28h12l68 -32q28 0 120 36h11q63 -20 137 -20l68 11l51 -19q27 -5 77 -11l61 11q64 0 83 -167q0 -24 -59 -63l-73 -29l-80 19l-58 -17
q-21 3 -37 3q-25 0 -38 -7l-60 -40q-19 -17 -19 -28l16 -60v-9l-12 -58l8 -52l-7 -50l20 -56l-9 -47l4 -76l-8 -41l15 -96l-15 -54q5 -41 32 -68l-16 -35q-12 -23 -12 -48l13 -25l17 -39l37 -41l47 12q33 -29 64 -29q25 0 49 19h19l73 -40q80 -32 80 -77v-24l-3 -21
q-8 -59 -76 -104h-16q-23 0 -80 2l-24 -2q-7 0 -71 -26h-14q-33 4 -101 38h-6q-7 0 -79 -30h-17l-75 19l-1 -1h-13l-28 -2q-4 0 -61 -16h-18l-79 22h-27q-11 0 -78 -26h-27l-64 38q-69 35 -77 79l4 49v2q0 31 36 63l33 21l27 11l40 25l107 -23h2q22 0 64 27q10 -5 18 -5
q25 0 57 57l12 52l-9 56l21 54q0 9 -24 41v22l15 54l-11 49v20l11 45q-15 38 -15 67l11 46l-15 57q0 23 20 53v11q-12 15 -12 43v7l15 57l-11 41v29l8 44v4q-23 34 -64 34h-12q-4 0 -58 -25h-19l-55 19l-5 1l-60 -9q-47 6 -122 102l-5 62q13 44 65 74q35 40 69 40z" />
    <glyph glyph-name="Eth" unicode="&#xd0;" horiz-adv-x="1514" 
d="M656 514l-8 -6l16 -69q-19 -83 -21 -107l12 -48l-16 -49v-2l80 -38l55 -11q5 0 42 32h25q62 -3 69 -3q45 27 62 50l16 64l43 21l3 7l6 57q31 45 31 55l6 55l32 96v8l-12 58l11 53l-34 63l4 51q-7 48 -28 72l-21 28l-14 45q0 25 -36 65l-49 23l-55 36h-7q-45 0 -118 -24
h-23l-59 11l-33 -78l12 -52l-23 -44q12 -83 28 -118l-12 -42l5 -11l35 -6l44 -6l20 1q61 -1 78 -1h9q62 -34 87 -92l-1 -23q0 -100 -84 -118q-40 -6 -91 -9h-15zM385 768q20 57 20 72q0 17 -9 84l2 19q8 42 12 77l-8 32l-21 49l-57 39l-52 1l-28 9q-69 24 -69 75
q33 64 99 99l42 8l32 -4q64 19 88 19l88 -22l26 3l89 22l57 -22h22l75 23l53 -27h6l73 8q24 -6 73 -48l48 -3l35 -60q43 -29 86 -73q2 0 17 -65q20 -41 66 -68q11 -67 50 -144l14 -27l-5 -66q8 -37 32 -125l4 -118l-19 -67l-3 -74l-42 -61l-10 -77l-6 -24q-55 -49 -70 -62
l-20 -87l-68 -50l-34 -65l-85 -51l-92 6q-48 -32 -83 -32q-73 25 -100 25l-75 -33l-112 33h-21l-70 -18h-14l-58 22q-29 -6 -67 -11q-26 5 -87 17q-38 22 -62 46q-30 66 -30 109q19 38 77 55q0 2 30 9t67 49l58 4l22 13q30 19 30 81v14l-8 33l17 92l-20 43q4 15 7 30l-11 11
l-18 2q-53 9 -105 15q-57 25 -75 68q-1 8 -1 15q0 58 43 100l82 35l31 8l28 3z" />
    <glyph glyph-name="Ntilde" unicode="&#xd1;" horiz-adv-x="1487" 
d="M743 1498l-29 22h-4l-33 5q-16 9 -32 9q-20 0 -39 -13l-12 -8l-43 -14l-30 -33l-34 -26q-23 -11 -52 -14h-4q-26 0 -41 22q-10 13 -10 36q0 18 6 42l9 22q15 25 39 81q51 26 65 59l11 12l46 19q21 26 81 44q7 1 14 1q40 0 80 -7q33 -27 48 -34l60 -24l42 -42q35 -8 57 -8
q15 0 24 4l23 26l37 6l29 42q47 20 99 26q45 -8 45 -48v-2l-12 -42q-17 -70 -47 -105q-25 -13 -53 -32l-25 -36l-8 -8l-47 -23q-37 -31 -77 -31q-2 0 -24 0.5t-68 18.5l-28 27l-46 12zM519 1330q36 -30 82 -56q43 -19 43 -48q0 -3 -1 -7l-6 -45q8 -37 76 -117v-12l-4 -36
q0 -5 40 -32l12 -68l19 -19l23 -27v-6q0 -18 5 -54l29 -38v-47q38 -47 69 -72l-5 -54l41 -57q4 -68 52 -120q7 0 7 12t-8 38l-15 45v21q15 52 15 64q-24 32 -24 63l20 48l-17 45v28l23 41v3q0 24 -30 51v18l28 42q-44 45 -44 77l20 39q-16 37 -59 52q-43 23 -80 55
q-15 17 -71 17l-16 47q28 40 64 68q59 39 77 41h8l48 -6l55 -9q33 15 75 24l65 -26l71 9l56 -24l47 4q53 -31 53 -92v-19q0 -24 -86 -72l-46 -33l-20 -29q-18 -20 -18 -50q0 -7 1 -14l-8 -40l8 -64l-12 -48l-6 -40l14 -60l-12 -81l21 -85l-17 -75v-24q16 -26 16 -49l-14 -76
v-9l17 -93l-15 -111l8 -61q-38 -147 -94 -172q-95 23 -142 77q0 18 -25 61q-25 28 -59 39l-10 16l-10 79q-31 29 -50 49l-6 79l-23 18l-38 29l6 61l-44 61q2 17 2 31q0 20 -4 35q-37 40 -59 59v55l-4 33q-3 3 -28 19l-31 32v23l9 50q-43 39 -43 62q0 3 1 6l4 28q0 3 -2 3
q-17 0 -25 -35l15 -46v-9l-12 -65l18 -64q-22 -36 -22 -41l21 -55l-16 -57l16 -60l-20 -67l15 -42l-4 -74l9 -51l-12 -55q15 -45 24 -49l43 -18q27 -4 73 -44q59 -36 59 -81q-20 -38 -50 -60q-38 -32 -97 -39l-44 15l-77 -13l-23 2l-49 18l-91 -22q-73 8 -122 105v19
q2 32 92 87q45 13 51 46l6 57l-10 59l8 59l-16 64l16 80l-16 61l20 59l-8 53l15 58l-15 46l12 60l-12 65l11 44q-23 52 -23 73l12 71v8q0 20 -29 47l-40 23q-45 13 -89 49v33q9 25 45 62q51 41 91 41l95 -12q3 -1 9 -1q26 0 95 16h27z" />
    <glyph glyph-name="Ograve" unicode="&#xd2;" horiz-adv-x="1470" 
d="M365 1836q31 6 70 6q45 0 101 -8l30 -31l61 -33l5 -11l15 -57l63 -50l7 -11l10 -52l28 -30l12 -9q21 -40 31 -74q5 -15 5 -33q0 -20 -7 -44l-25 -11q-108 10 -133 26l-52 36q-2 1 -64 24l-14 9l-34 45l-76 32l-2 2q-25 38 -37 55q-50 33 -62 50q-24 43 -24 76
q0 19 13.5 49t78.5 44zM837 1354l25 -3q26 -34 59 -34q41 0 84 -55l80 -43l38 -71l48 -58q27 -81 38 -136q48 -94 58 -139l-4 -58l10 -26q8 -37 28 -127l-27 -66l-1 -15l10 -62l-4 -20l-19 -55l-3 -44v-13q-35 -49 -71 -100l-20 -83q-60 -46 -96 -142l-81 -43l-27 -31
l-105 -24q-91 -29 -150 -33h-23q-72 27 -75 27l-82 9q-22 0 -66 50l-12 11l-53 26q-17 10 -56 92l-51 50q-16 63 -37 87l-33 37l-6 48l-6 41l-4 40q-21 56 -31 79l5 74l-16 47l21 52q2 4 2 9q0 19 -24 57l26 64l-1 80l10 25l35 43q17 36 20 101l10 23q50 48 59 90
q29 20 48 79q24 28 78 43q35 60 112 60l48 30l16 4q46 -13 50 -13l57 15l51 -8h7zM726 1095l-17 2l-54 8q-51 -8 -74 -31l-25 -25q-72 -25 -72 -73l-14 -54l-7 -15l-36 -48l11 -28v-21q-15 -21 -35 -47q-18 -38 -18 -77l11 -35v-19l-17 -44l31 -52l2 -10l-8 -31
q0 -73 51 -101l4 -8v-18q0 -22 13 -44q26 -32 26 -60v-5l3 -22l5 -3l46 -13q28 -42 45 -78q19 -34 68 -34q5 0 56 20q24 0 72 -16h2q12 0 30 27l18 6h9q61 0 107 79l1 6l3 38q22 29 52 64q12 16 22 56v43q0 22 27 65q0 3 -16 28v21l20 51q0 9 -20 37v21l16 48q-8 21 -20 55
q-21 39 -34 57l8 43v8l-42 38l-6 22l-9 44v2q-7 31 -34 49l-40 20l-11 28q-42 29 -85 39z" />
    <glyph glyph-name="Oacute" unicode="&#xd3;" horiz-adv-x="1470" 
d="M1188 1777q7 -15 7 -34q0 -33 -24 -76q-12 -17 -63 -50q-12 -17 -36 -55l-3 -2l-75 -32l-35 -45l-13 -9q-62 -23 -64 -24l-53 -36q-24 -16 -133 -26l-24 11q-7 25 -7 46q0 17 7.5 41t28.5 64l12 9l28 30l9 52l8 11l62 50l15 57l5 11l62 33l30 31q56 8 101 8
q39 0 86.5 -10t68.5 -55zM837 1354l25 -3q26 -34 59 -34q41 0 84 -55l80 -43l38 -71l48 -58q27 -81 38 -136q48 -94 58 -139l-4 -58l10 -26q8 -37 28 -127l-27 -66l-1 -15l10 -62l-4 -20l-19 -55l-3 -44v-13q-35 -49 -71 -100l-20 -83q-60 -46 -96 -142l-81 -43l-27 -31
l-105 -24q-91 -29 -150 -33h-23q-72 27 -75 27l-82 9q-22 0 -66 50l-12 11l-53 26q-17 10 -56 92l-51 50q-16 63 -37 87l-33 37l-6 48l-6 41l-4 40q-21 56 -31 79l5 74l-16 47l21 52q2 4 2 9q0 19 -24 57l26 64l-1 80l10 25l35 43q17 36 20 101l10 23q50 48 59 90
q29 20 48 79q24 28 78 43q35 60 112 60l48 30l16 4q46 -13 50 -13l57 15l51 -8h7zM726 1095l-17 2l-54 8q-51 -8 -74 -31l-25 -25q-72 -25 -72 -73l-14 -54l-7 -15l-36 -48l11 -28v-21q-15 -21 -35 -47q-18 -38 -18 -77l11 -35v-19l-17 -44l31 -52l2 -10l-8 -31
q0 -73 51 -101l4 -8v-18q0 -22 13 -44q26 -32 26 -60v-5l3 -22l5 -3l46 -13q28 -42 45 -78q19 -34 68 -34q5 0 56 20q24 0 72 -16h2q12 0 30 27l18 6h9q61 0 107 79l1 6l3 38q22 29 52 64q12 16 22 56v43q0 22 27 65q0 3 -16 28v21l20 51q0 9 -20 37v21l16 48q-8 21 -20 55
q-21 39 -34 57l8 43v8l-42 38l-6 22l-9 44v2q-7 31 -34 49l-40 20l-11 28q-42 29 -85 39z" />
    <glyph glyph-name="Ocircumflex" unicode="&#xd4;" horiz-adv-x="1474" 
d="M1074 1400q-15 -4 -30 -4q-16 0 -32 4l-38 5q-38 19 -65 27l-25 25l-17 6l-36 14l-11 10q-17 24 -43 50q-34 17 -49 19l-12 1l-43 -23l-16 -20l-41 -17l-33 -38l-10 -10l-57 -18q-54 -31 -107 -38q-36 11 -36 64q0 12 1 25v7q6 35 21 67q20 14 45 58l46 18l48 66l73 33
l41 37l43 27q39 18 74 24h9q31 0 49 -20q22 -25 60 -45l19 -41l50 -31l13 -14l16 -36l52 -36l7 -11l20 -52q33 -19 42 -48q9 -18 9 -33q0 -6 -2 -11q-5 -39 -35 -41zM837 1374l25 -3q26 -34 59 -34q41 0 84 -55l80 -43l38 -71l48 -58q27 -81 38 -136q48 -94 58 -139l-4 -58
l10 -26q8 -37 28 -127l-27 -66l-1 -15l10 -62l-4 -20l-19 -55l-3 -44v-13q-35 -49 -71 -100l-20 -83q-60 -46 -96 -142l-81 -43l-27 -31l-105 -24q-91 -29 -150 -33h-23q-72 27 -75 27l-82 9q-22 0 -66 50l-12 11l-53 26q-17 10 -56 92l-51 50q-16 63 -37 87l-33 37l-6 48
l-6 41l-4 40q-21 56 -31 79l5 74l-16 47l21 52q2 4 2 9q0 19 -24 57l26 64l-1 80l10 25l35 43q17 36 20 101l10 23q50 48 59 90q29 20 48 79q24 28 78 43q35 60 112 60l48 30l16 4q46 -13 50 -13l57 15l51 -8h7zM726 1115l-17 2l-54 8q-51 -8 -74 -31l-25 -25
q-72 -25 -72 -73l-14 -54l-7 -15l-36 -48l11 -28v-21q-15 -21 -35 -47q-18 -38 -18 -77l11 -35v-19l-17 -44l31 -52l2 -10l-8 -31q0 -73 51 -101l4 -8v-18q0 -22 13 -44q26 -32 26 -60v-5l3 -22l5 -3l46 -13q28 -42 45 -78q19 -34 68 -34q5 0 56 20q24 0 72 -16h2
q12 0 30 27l18 6h9q61 0 107 79l1 6l3 38q22 29 52 64q12 16 22 56v43q0 22 27 65q0 3 -16 28v21l20 51q0 9 -20 37v21l16 48q-8 21 -20 55q-21 39 -34 57l8 43v8l-42 38l-6 22l-9 44v2q-7 31 -34 49l-40 20l-11 28q-42 29 -85 39z" />
    <glyph glyph-name="Otilde" unicode="&#xd5;" horiz-adv-x="1474" 
d="M735 1498l-29 22h-4l-33 5q-16 9 -32 9q-20 0 -39 -13l-12 -8l-43 -14l-30 -33l-34 -26q-23 -11 -52 -14h-4q-26 0 -41 22q-10 13 -10 36q0 18 6 42l9 22q15 25 39 81q51 26 65 59l11 12l46 19q21 26 81 44q7 1 14 1q40 0 80 -7q33 -27 48 -34l60 -24l42 -42q35 -8 57 -8
q15 0 24 4l23 26l37 6l29 42q47 20 99 26q45 -8 45 -48v-2l-12 -42q-17 -70 -47 -105q-25 -13 -53 -32l-25 -36l-8 -8l-47 -23q-37 -31 -77 -31q-2 0 -24 0.5t-68 18.5l-28 27l-46 12zM837 1374l25 -3q26 -34 59 -34q41 0 84 -55l80 -43l38 -71l48 -58q27 -81 38 -136
q48 -94 58 -139l-4 -58l10 -26q8 -37 28 -127l-27 -66l-1 -15l10 -62l-4 -20l-19 -55l-3 -44v-13q-35 -49 -71 -100l-20 -83q-60 -46 -96 -142l-81 -43l-27 -31l-105 -24q-91 -29 -150 -33h-23q-72 27 -75 27l-82 9q-22 0 -66 50l-12 11l-53 26q-17 10 -56 92l-51 50
q-16 63 -37 87l-33 37l-6 48l-6 41l-4 40q-21 56 -31 79l5 74l-16 47l21 52q2 4 2 9q0 19 -24 57l26 64l-1 80l10 25l35 43q17 36 20 101l10 23q50 48 59 90q29 20 48 79q24 28 78 43q35 60 112 60l48 30l16 4q46 -13 50 -13l57 15l51 -8h7zM726 1115l-17 2l-54 8
q-51 -8 -74 -31l-25 -25q-72 -25 -72 -73l-14 -54l-7 -15l-36 -48l11 -28v-21q-15 -21 -35 -47q-18 -38 -18 -77l11 -35v-19l-17 -44l31 -52l2 -10l-8 -31q0 -73 51 -101l4 -8v-18q0 -22 13 -44q26 -32 26 -60v-5l3 -22l5 -3l46 -13q28 -42 45 -78q19 -34 68 -34q5 0 56 20
q24 0 72 -16h2q12 0 30 27l18 6h9q61 0 107 79l1 6l3 38q22 29 52 64q12 16 22 56v43q0 22 27 65q0 3 -16 28v21l20 51q0 9 -20 37v21l16 48q-8 21 -20 55q-21 39 -34 57l8 43v8l-42 38l-6 22l-9 44v2q-7 31 -34 49l-40 20l-11 28q-42 29 -85 39z" />
    <glyph glyph-name="Odieresis" unicode="&#xd6;" horiz-adv-x="1474" 
d="M1013 1427l-19 1l-46 9l-33 6q-62 17 -114 90q-15 40 -15 84v6l1 5q9 60 66 113q59 38 126 43l10 -1q22 0 88 -34q34 -27 45 -69q6 -33 27 -84q-4 -53 -31 -91q-20 -26 -40 -35t-43 -29zM491 1431q-101 7 -161 69l-33 54l-4 23l5 55l-5 32q16 61 68 83q29 25 92 32h18
q46 -1 82 -18t74 -83q21 -40 21 -57v-1q-15 -55 -20 -110l-24 -20q-29 -21 -45 -33q-39 -26 -68 -26zM837 1374l25 -3q26 -34 59 -34q41 0 84 -55l80 -43l38 -71l48 -58q27 -81 38 -136q48 -94 58 -139l-4 -58l10 -26q8 -37 28 -127l-27 -66l-1 -15l10 -62l-4 -20l-19 -55
l-3 -44v-13q-35 -49 -71 -100l-20 -83q-60 -46 -96 -142l-81 -43l-27 -31l-105 -24q-91 -29 -150 -33h-23q-72 27 -75 27l-82 9q-22 0 -66 50l-12 11l-53 26q-17 10 -56 92l-51 50q-16 63 -37 87l-33 37l-6 48l-6 41l-4 40q-21 56 -31 79l5 74l-16 47l21 52q2 4 2 9
q0 19 -24 57l26 64l-1 80l10 25l35 43q17 36 20 101l10 23q50 48 59 90q29 20 48 79q24 28 78 43q35 60 112 60l48 30l16 4q46 -13 50 -13l57 15l51 -8h7zM726 1115l-17 2l-54 8q-51 -8 -74 -31l-25 -25q-72 -25 -72 -73l-14 -54l-7 -15l-36 -48l11 -28v-21q-15 -21 -35 -47
q-18 -38 -18 -77l11 -35v-19l-17 -44l31 -52l2 -10l-8 -31q0 -73 51 -101l4 -8v-18q0 -22 13 -44q26 -32 26 -60v-5l3 -22l5 -3l46 -13q28 -42 45 -78q19 -34 68 -34q5 0 56 20q24 0 72 -16h2q12 0 30 27l18 6h9q61 0 107 79l1 6l3 38q22 29 52 64q12 16 22 56v43
q0 22 27 65q0 3 -16 28v21l20 51q0 9 -20 37v21l16 48q-8 21 -20 55q-21 39 -34 57l8 43v8l-42 38l-6 22l-9 44v2q-7 31 -34 49l-40 20l-11 28q-42 29 -85 39z" />
    <glyph glyph-name="Oslash" unicode="&#xd8;" horiz-adv-x="1486" 
d="M848 1112l-4 10q-18 11 -41 16l-65 -13l-17 2l-54 8q-51 -8 -74 -31l-25 -25q-72 -25 -72 -73l-5 -48l-7 -15l-35 -54l7 -30l-5 -18q-20 -24 -40 -50q-14 -36 -14 -75l11 -35v-19l-17 -44l27 -44l-2 -49q0 -73 43 -97l4 -30q8 -22 21 -44l6 -10h9q12 18 19 32l3 6
q16 51 30 101l53 72l29 102q2 9 7 21q11 24 39 57l10 20q15 53 34 97q29 37 43 68q10 22 13 41q9 23 13 47l44 64zM1008 919h-9q-6 -21 -13 -41q-24 -29 -41 -67q-12 -27 -21 -57q-27 -47 -50 -79l-25 -81l-8 -23l-46 -79l-33 -98l-10 -23l-42 -58l-37 -101l-35 -56v-8
q13 -9 39 -9q5 0 56 20q24 0 72 -16h2q12 0 30 27q85 0 134 85l1 6l3 38q22 29 52 64q12 16 22 56v43q0 22 27 65q0 3 -16 28v21l20 51q0 9 -20 37v21l16 48q-8 21 -20 55q-9 34 -21 55l-5 45v8zM368 87q-8 14 -16 31l-33 25q-34 88 -55 112l-25 29l-14 56l-4 47l-18 40
q-15 47 -31 94l11 50l-16 47l21 52q2 4 2 9q0 19 -14 74l1 10l18 51l6 67l9 18l32 52q17 36 28 109q52 63 61 105q29 20 48 79q24 28 78 43l37 48l14 9l61 3l11 6l34 21l13 2q52 -8 56 -8l57 15l51 -8h7l36 9l25 -3q30 -20 49 -27q10 -4 19 -4q8 0 16 3q15 19 48 61
q49 62 121 68h10q17 0 30 -5q37 -17 46 -80l-23 -112l-48 -77l-1 -18l57 -70q27 -81 38 -136q48 -94 58 -139l-4 -58l10 -26q8 -37 28 -127l-27 -66l-1 -15l10 -62l-4 -20l-19 -55l-3 -44v-13q-35 -49 -71 -100l-20 -83q-60 -46 -96 -142l-73 -40q-11 -32 -114 -57
q-43 -35 -74 -35l-38 -2l-47 7l-92 -6l-18 2q-48 20 -51 20l-36 16q-5 0 -10 -4.5t-11 -15.5q-18 -41 -48 -76t-92 -57h-26q-55 48 -60 93q4 60 30 116q13 29 32 57z" />
    <glyph glyph-name="Ugrave" unicode="&#xd9;" horiz-adv-x="1501" 
d="M272 1328l68 -25l76 20l45 -17q3 0 81 17h19q93 -59 93 -119q-8 -50 -87 -79q-34 -48 -49 -99l-2 -26l17 -55l-26 -69l15 -58q0 -25 -17 -73l27 -44l-2 -24q-14 -38 -19 -58q11 -19 11 -53l-12 -56l16 -68v-8l-8 -43l10 -43l-5 -42q38 -75 83 -82q31 -64 46 -64l30 5
l62 -37q65 0 83 30l55 -9q36 19 61 68q53 8 64 52l11 37l-10 40v8l18 40v4l-17 66l13 58v4l-12 62l8 40l-12 50v16l17 48l-15 58q10 8 13 60q0 18 -16 66v27l10 46l-13 34q-14 39 -40 67q-30 55 -109 104l-23 42v24l34 27l27 17l31 18l54 -12l20 -3l72 15l40 -8l59 -12
l84 28q56 0 102 -58q56 -40 56 -76v-7q-7 -25 -29 -41q-51 -47 -96 -70q-33 -14 -57 -60l16 -52l-20 -56l15 -40v-19l-16 -48v-2l16 -56v-10l-14 -54q22 -37 22 -60l-30 -59q22 -45 22 -71l-11 -38l11 -49v-8l-12 -58l13 -50q-20 -45 -35 -69v-38l-2 -26l-47 -42l-19 -64
l-30 -21q-14 -33 -28 -58l-42 -4q-18 0 -33 -58l-32 -16l-67 14q-57 0 -103 -29l-24 -8l-104 34q-9 0 -108 6l-17 28q-25 14 -52 17l-20 7l-5 25l-24 16l-48 31v3q0 35 -58 104l5 40l-36 74l8 58l-21 71l13 68v1l-9 35l20 63l-24 67l13 47l-4 34l11 74q-11 27 -11 69l15 53
l-16 60l12 50l-22 51l-15 15l-35 17q-50 27 -99 70l-22 29v31q28 38 92 71zM352 1826q31 6 70 6q45 0 101 -8l30 -31l61 -33l5 -11l15 -57l63 -50l7 -11l10 -52l28 -30l12 -9q21 -40 31 -74q5 -15 5 -33q0 -20 -7 -44l-25 -11q-108 10 -133 26l-52 36q-2 1 -64 24l-14 9
l-34 45l-76 32l-2 2q-25 38 -37 55q-50 33 -62 50q-24 43 -24 76q0 19 13.5 49t78.5 44z" />
    <glyph glyph-name="Uacute" unicode="&#xda;" horiz-adv-x="1501" 
d="M272 1338l68 -25l76 20l45 -17q3 0 81 17h19q93 -59 93 -119q-8 -50 -87 -79q-34 -48 -49 -99l-2 -26l17 -55l-26 -69l15 -58q0 -25 -17 -73l27 -44l-2 -24q-14 -38 -19 -58q11 -19 11 -53l-12 -56l16 -68v-8l-8 -43l10 -43l-5 -42q38 -75 83 -82q31 -64 46 -64l30 5
l62 -37q65 0 83 30l55 -9q36 19 61 68q53 8 64 52l11 37l-10 40v8l18 40v4l-17 66l13 58v4l-12 62l8 40l-12 50v16l17 48l-15 58q10 8 13 60q0 18 -16 66v27l10 46l-13 34q-14 39 -40 67q-30 55 -109 104l-23 42v24l34 27l27 17l31 18l54 -12l20 -3l72 15l40 -8l59 -12
l84 28q56 0 102 -58q56 -40 56 -76v-7q-7 -25 -29 -41q-51 -47 -96 -70q-33 -14 -57 -60l16 -52l-20 -56l15 -40v-19l-16 -48v-2l16 -56v-10l-14 -54q22 -37 22 -60l-30 -59q22 -45 22 -71l-11 -38l11 -49v-8l-12 -58l13 -50q-20 -45 -35 -69v-38l-2 -26l-47 -42l-19 -64
l-30 -21q-14 -33 -28 -58l-42 -4q-18 0 -33 -58l-32 -16l-67 14q-57 0 -103 -29l-24 -8l-104 34q-9 0 -108 6l-17 28q-25 14 -52 17l-20 7l-5 25l-24 16l-48 31v3q0 35 -58 104l5 40l-36 74l8 58l-21 71l13 68v1l-9 35l20 63l-24 67l13 47l-4 34l11 74q-11 27 -11 69l15 53
l-16 60l12 50l-22 51l-15 15l-35 17q-50 27 -99 70l-22 29v31q28 38 92 71zM1215 1757q7 -15 7 -34q0 -33 -24 -76q-12 -17 -63 -50q-12 -17 -36 -55l-3 -2l-75 -32l-35 -45l-13 -9q-62 -23 -64 -24l-53 -36q-24 -16 -133 -26l-24 11q-7 25 -7 46q0 17 7.5 41t28.5 64l12 9
l28 30l9 52l8 11l62 50l15 57l5 11l62 33l30 31q56 8 101 8q39 0 86.5 -10t68.5 -55z" />
    <glyph glyph-name="Ucircumflex" unicode="&#xdb;" horiz-adv-x="1501" 
d="M272 1328l68 -25l76 20l45 -17q3 0 81 17h19q93 -59 93 -119q-8 -50 -87 -79q-34 -48 -49 -99l-2 -26l17 -55l-26 -69l15 -58q0 -25 -17 -73l27 -44l-2 -24q-14 -38 -19 -58q11 -19 11 -53l-12 -56l16 -68v-8l-8 -43l10 -43l-5 -42q38 -75 83 -82q31 -64 46 -64l30 5
l62 -37q65 0 83 30l55 -9q36 19 61 68q53 8 64 52l11 37l-10 40v8l18 40v4l-17 66l13 58v4l-12 62l8 40l-12 50v16l17 48l-15 58q10 8 13 60q0 18 -16 66v27l10 46l-13 34q-14 39 -40 67q-30 55 -109 104l-23 42v24l34 27l27 17l31 18l54 -12l20 -3l72 15l40 -8l59 -12
l84 28q56 0 102 -58q56 -40 56 -76v-7q-7 -25 -29 -41q-51 -47 -96 -70q-33 -14 -57 -60l16 -52l-20 -56l15 -40v-19l-16 -48v-2l16 -56v-10l-14 -54q22 -37 22 -60l-30 -59q22 -45 22 -71l-11 -38l11 -49v-8l-12 -58l13 -50q-20 -45 -35 -69v-38l-2 -26l-47 -42l-19 -64
l-30 -21q-14 -33 -28 -58l-42 -4q-18 0 -33 -58l-32 -16l-67 14q-57 0 -103 -29l-24 -8l-104 34q-9 0 -108 6l-17 28q-25 14 -52 17l-20 7l-5 25l-24 16l-48 31v3q0 35 -58 104l5 40l-36 74l8 58l-21 71l13 68v1l-9 35l20 63l-24 67l13 47l-4 34l11 74q-11 27 -11 69l15 53
l-16 60l12 50l-22 51l-15 15l-35 17q-50 27 -99 70l-22 29v31q28 38 92 71zM1090 1409q-15 -4 -30 -4q-16 0 -32 4l-38 5q-38 19 -65 27l-25 25l-17 6l-36 14l-11 10q-17 24 -43 50q-34 17 -49 19l-12 1l-43 -23l-16 -20l-41 -17l-33 -38l-10 -10l-57 -18q-54 -31 -107 -38
q-36 11 -36 64q0 12 1 25v7q6 35 21 67q20 14 45 58l46 18l48 66l73 33l41 37l43 27q39 18 74 24h9q31 0 49 -20q22 -25 60 -45l19 -41l50 -31l13 -14l16 -36l52 -36l7 -11l20 -52q33 -19 42 -48q9 -18 9 -33q0 -6 -2 -11q-5 -39 -35 -41z" />
    <glyph glyph-name="Udieresis" unicode="&#xdc;" horiz-adv-x="1501" 
d="M272 1338l68 -25l76 20l45 -17q3 0 81 17h19q93 -59 93 -119q-8 -50 -87 -79q-34 -48 -49 -99l-2 -26l17 -55l-26 -69l15 -58q0 -25 -17 -73l27 -44v-24q-16 -38 -21 -58q11 -19 11 -53l-12 -56l16 -68v-8l-8 -43l10 -43l-5 -42q38 -75 83 -82q31 -64 46 -64l30 5l62 -37
q65 0 83 30l55 -9q36 19 61 68q53 8 64 52l11 37l-10 40v8l18 40v4l-17 66l13 58v4l-12 62l8 40l-12 50v16l17 48l-15 58q10 8 13 60q0 18 -16 66v27l10 46l-13 34q-14 39 -40 67q-30 55 -109 104l-23 42v24l34 27l27 17l31 18l54 -12l20 -3l72 15l40 -8l59 -12l84 28
q56 0 102 -58q56 -40 56 -76v-7q-7 -25 -29 -41q-51 -47 -96 -70q-33 -14 -57 -60l16 -52l-20 -56l15 -40v-19l-16 -48v-2l16 -56v-10l-14 -54q22 -37 22 -60l-30 -59q22 -45 22 -71l-11 -38l11 -49v-8l-12 -58l13 -50q-20 -45 -35 -69v-38l-2 -26l-47 -42l-19 -64l-30 -21
q-14 -33 -28 -58l-42 -4q-18 0 -33 -58l-32 -16l-67 14q-57 0 -103 -29l-24 -8l-104 34q-9 0 -108 6l-17 28q-25 14 -52 17l-20 7l-5 25l-24 16l-48 31v3q0 35 -58 104l5 40l-36 74l8 58l-21 71l13 68v1l-9 35l20 63l-24 67l13 47l-4 34l11 74q-11 27 -11 69l15 53l-16 60
l12 50l-22 51l-15 15l-35 17q-50 27 -99 70l-22 29v31q28 38 92 71zM1070 1437l-19 1l-46 9l-33 6q-62 17 -114 90q-15 40 -15 84v6l1 5q9 60 66 113q59 38 126 43l10 -1q22 0 88 -34q34 -27 45 -69q6 -33 27 -84q-4 -53 -31 -91q-20 -26 -40 -35t-43 -29zM548 1441
q-101 7 -161 69l-33 54l-4 23l5 55l-5 32q16 61 68 83q29 25 92 32h18q46 -1 82 -18t74 -83q21 -40 21 -57v-1q-15 -55 -20 -110l-24 -20q-29 -21 -45 -33q-39 -26 -68 -26z" />
    <glyph glyph-name="Yacute" unicode="&#xdd;" horiz-adv-x="1379" 
d="M1203 1767q7 -15 7 -34q0 -33 -24 -76q-12 -17 -63 -50q-12 -17 -36 -55l-3 -2l-75 -32l-35 -45l-13 -9q-62 -23 -64 -24l-53 -36q-24 -16 -133 -26l-24 11q-7 25 -7 46q0 17 7.5 41t28.5 64l12 9l28 30l9 52l8 11l62 50l15 57l5 11l62 33l30 31q56 8 101 8
q39 0 86.5 -10t68.5 -55zM1161 1341q39 -22 84 -38q57 -18 57 -84q-7 -71 -68 -95l-34 -10l-38 -8q-24 -8 -49 -24.5t-49 -45.5l-9 -61l-7 -17q-52 -39 -52 -105l-7 -8l-32 -36l-5 -13l-2 -45l-4 -9l-42 -39l-11 -68q-45 -26 -54 -70l-3 -9l9 -41l-21 -68l21 -59l-25 -72
q22 -36 22 -77q6 -69 72 -87l49 -16l41 6l44 -22l36 6q80 -84 80 -131q-28 -55 -47 -62q-35 -32 -121 -49h-11l-84 24h-19l-77 -18l-19 1q-74 19 -94 19h-3l-60 -20l-34 -1q-55 23 -67 23q-42 -7 -80 -18l-44 -15l-19 3l-50 43q-39 23 -39 88q1 61 55 97l49 24l56 -16l44 28
q61 4 68.5 32.5t7.5 40.5l-4 54q24 42 24 59v14l-12 62l12 50v10l-20 52l1 54l-29 56l-18 75l-49 52l-7 21l-20 52q-32 37 -60 63l-18 62l-50 57q-5 38 -34.5 70t-152.5 35q-55 55 -55 89q33 124 92 124l104 -12l68 23l21 2l99 -15l14 1l60 12l21 -6q40 -12 79 -96l-5 -16
q-55 -41 -70 -110q-13 -23 -17 -44q8 -28 17 -39q23 -19 45 -37l17 -57q18 -23 34 -30l11 -48q0 -12 45 -24q9 7 29 35q16 23 16 65l7 19q26 10 42 52v43l10 18q29 24 33 48q0 19 -75 84q-24 19 -24 42q0 4 1 9q14 47 84 85q12 11 38 11q30 0 79 -16l78 20q28 -27 63 -27
q28 0 61 19z" />
    <glyph glyph-name="germandbls" unicode="&#xdf;" horiz-adv-x="1526" 
d="M669 1110h-5q-60 0 -86 -59q-54 -33 -56 -87l-1 -15l-35 -43l14 -54l-9 -15q-33 -47 -33 -67q11 -46 21 -72l-24 -85l17 -90q-11 -31 -11 -63q0 -36 14 -74l-12 -76v-4l16 -92l-15 -84l5 -42q2 -21 2 -40q0 -43 -12 -73l-7 -19q-39 -45 -125 -61h-5q-81 0 -149 72l-7 19
l33 54q7 10 7 26q0 27 -17 71l33 107l-10 113l23 74l-13 101l3 21q18 34 18 87q0 29 -5 64l18 79l12 41l2 72l-1 64q41 61 41 112q0 6 -1 12l45 59l14 63l15 22q53 36 72 55l28 31l60 13l97 40h21q72 -16 95 -16l52 20h23q66 -38 124 -41l93 -32l58 -62l67 -59l35 -76l4 -79
l32 -79l-23 -72l-10 -87l-28 -68l3 -23l35 -25q47 -53 73 -128l17 -36l-1 -101l28 -111q-24 -38 -24 -102q0 -18 2 -38q-37 -51 -75 -93l-23 -77l-102 -32l-81 -48h-10l-87 3l-93 -18l-21 2q-48 11 -120.5 42t-98.5 109q-18 59 -18 108q0 17 2 32q39 64 110 72q19 3 35 3
q38 0 49 -16q41 -88 68 -101q6 -3 14 -3q26 0 68 28l85 -5l12 65q49 27 57 49l-17 40q26 38 33 64l-46 42v62q-32 40 -52 40h-55l-18 11q-31 16 -53 16l-64 -1l-17 4l-44 20l-13 5l-45 11l-18 16l-15 31q-1 16 -1 30q0 28 7.5 52.5t43.5 43.5q36 9 52 9q6 4 32 14l11 5
q42 -2 57 -3l32 25h2q48 15 65 58l3 56l21 44q-1 49 -22 76l-66 39l-26 29l-20 6l-55 -10q-37 5 -73 16z" />
    <glyph glyph-name="agrave" unicode="&#xe0;" 
d="M320 1575q31 6 70 6q45 0 101 -8l30 -31l61 -33l5 -11l15 -57l63 -50l7 -11l10 -52l28 -30l12 -9q21 -40 31 -74q5 -15 5 -33q0 -20 -7 -44l-25 -11q-108 10 -133 26l-52 36q-2 1 -64 24l-14 9l-34 45l-76 32l-2 2q-25 38 -37 55q-50 33 -62 50q-24 43 -24 76
q0 19 13.5 49t78.5 44zM848 1033q41 -51 101 -51q57 -57 102 -85q16 -25 37 -96l49 -119v-12q-24 -52 -24 -79q0 -4 2 -19t19 -101l-20 -73l11 -46v-17l-15 -45q21 -76 29 -85l75 -56q50 -54 51 -91q-1 -37 -75 -76q-18 -1 -34 -1q-61 0 -107 9q-48 8 -96 58q-4 2 -9 2
q-22 0 -58 -27l-53 -40l-49 7l-68 -19l-55 6q-11 1 -23 1q-47 0 -98 -16h-24l-48 28l-50 -4h-11q-53 38 -95 45q-42 15 -96 148l-43 55l2 33l2 31l-4 27v5q0 77 59 124l39 69l35 7q40 8 66 21q27 6 53 31q52 2 96 32l88 -13h12q9 0 35 20l29 11l60 -17q16 2 46 28l8 4
q30 -5 45 -5q8 0 20.5 6t12.5 20l-5 30l13 38q0 24 -50 54l-53 13q-57 33 -77 43h-25l-50 -14h-11q-32 12 -63 13q-57 -23 -75 -48l-14 -38l-1 -27q-13 -46 -50 -85q-49 -38 -98 -38q-9 0 -17 1q-82 22 -124 87v11l4 46l-4 47q0 46 80 103l22 42l63 29l45 43l79 8
q25 11 65 28l61 -10l43 3l75 14l79 -12q18 -10 59 -16zM724 397l-102 33h-13l-88 -40h-11l-44 12q-46 -53 -77 -64l-24 -67q0 -23 48 -51l123 -38l81 28h23l53 -19q72 34 143 57q31 20 45 47v4l-6 41l-2 13l27 55l-4 14l-52 24h-11q-12 0 -80 -43z" />
    <glyph glyph-name="aacute" unicode="&#xe1;" 
d="M1105 1511q7 -15 7 -34q0 -33 -24 -76q-12 -17 -63 -50q-12 -17 -36 -55l-3 -2l-75 -32l-35 -45l-13 -9q-62 -23 -64 -24l-53 -36q-24 -16 -133 -26l-24 11q-7 25 -7 46q0 17 7.5 41t28.5 64l12 9l28 30l9 52l8 11l62 50l15 57l5 11l62 33l30 31q56 8 101 8
q39 0 86.5 -10t68.5 -55zM848 1033q41 -51 101 -51q57 -57 102 -85q16 -25 37 -96l49 -119v-12q-24 -52 -24 -79q0 -4 2 -19t19 -101l-20 -73l11 -46v-17l-15 -45q21 -76 29 -85l75 -56q50 -54 51 -91q-1 -37 -75 -76q-18 -1 -34 -1q-61 0 -107 9q-48 8 -96 58q-4 2 -9 2
q-22 0 -58 -27l-53 -40l-49 7l-68 -19l-55 6q-11 1 -23 1q-47 0 -98 -16h-24l-48 28l-50 -4h-11q-53 38 -95 45q-42 15 -96 148l-43 55l2 33l2 31l-4 27v5q0 77 59 124l39 69l35 7q40 8 66 21q27 6 53 31q52 2 96 32l88 -13h12q9 0 35 20l29 11l60 -17q16 2 46 28l8 4
q30 -5 45 -5q8 0 20.5 6t12.5 20l-5 30l13 38q0 24 -50 54l-53 13q-57 33 -77 43h-25l-50 -14h-11q-32 12 -63 13q-57 -23 -75 -48l-14 -38l-1 -27q-13 -46 -50 -85q-49 -38 -98 -38q-9 0 -17 1q-82 22 -124 87v11l4 46l-4 47q0 46 80 103l22 42l63 29l45 43l79 8
q25 11 65 28l61 -10l43 3l75 14l79 -12q18 -10 59 -16zM724 397l-102 33h-13l-88 -40h-11l-44 12q-46 -53 -77 -64l-24 -67q0 -23 48 -51l123 -38l81 28h23l53 -19q72 34 143 57q31 20 45 47v4l-6 41l-2 13l27 55l-4 14l-52 24h-11q-12 0 -80 -43z" />
    <glyph glyph-name="acircumflex" unicode="&#xe2;" 
d="M987 1103q-15 -4 -30 -4q-16 0 -32 4l-38 5q-38 19 -65 27l-25 25l-17 6l-36 14l-11 10q-17 24 -43 50q-34 17 -49 19l-12 1l-43 -23l-16 -20l-41 -17l-33 -38l-10 -10l-57 -18q-54 -31 -107 -38q-36 11 -36 64q0 12 1 25v7q6 35 21 67q20 14 45 58l46 18l48 66l73 33
l41 37l43 27q39 18 74 24h9q31 0 49 -20q22 -25 60 -45l19 -41l50 -31l13 -14l16 -36l52 -36l7 -11l20 -52q33 -19 42 -48q9 -18 9 -33q0 -6 -2 -11q-5 -39 -35 -41zM848 1033q41 -51 101 -51q57 -57 102 -85q16 -25 37 -96l49 -119v-12q-24 -52 -24 -79q0 -4 2 -19t19 -101
l-20 -73l11 -46v-17l-15 -45q21 -76 29 -85l75 -56q50 -54 51 -91q-1 -37 -75 -76q-18 -1 -34 -1q-61 0 -107 9q-48 8 -96 58q-4 2 -9 2q-22 0 -58 -27l-53 -40l-49 7l-68 -19l-55 6q-11 1 -23 1q-47 0 -98 -16h-24l-48 28l-50 -4h-11q-53 38 -95 45q-42 15 -96 148l-43 55
l2 33l2 31l-4 27v5q0 77 59 124l39 69l35 7q40 8 66 21q27 6 53 31q52 2 96 32l88 -13h12q9 0 35 20l29 11l60 -17q16 2 46 28l8 4q30 -5 45 -5q8 0 20.5 6t12.5 20l-5 30l13 38q0 24 -50 54l-53 13q-57 33 -77 43h-25l-50 -14h-11q-32 12 -63 13q-57 -23 -75 -48l-14 -38
l-1 -27q-13 -46 -50 -85q-49 -38 -98 -38q-9 0 -17 1q-82 22 -124 87v11l4 46l-4 47q0 46 80 103l22 42l63 29l45 43l79 8q25 11 65 28l61 -10l43 3l75 14l79 -12q18 -10 59 -16zM724 397l-102 33h-13l-88 -40h-11l-44 12q-46 -53 -77 -64l-24 -67q0 -23 48 -51l123 -38
l81 28h23l53 -19q72 34 143 57q31 20 45 47v4l-6 41l-2 13l27 55l-4 14l-52 24h-11q-12 0 -80 -43z" />
    <glyph glyph-name="atilde" unicode="&#xe3;" 
d="M658 1210l-29 22h-4l-33 5q-16 9 -32 9q-20 0 -39 -13l-12 -8l-43 -14l-30 -33l-34 -26q-23 -11 -52 -14h-4q-26 0 -41 22q-10 13 -10 36q0 18 6 42l9 22q15 25 39 81q51 26 65 59l11 12l46 19q21 26 81 44q7 1 14 1q40 0 80 -7q33 -27 48 -34l60 -24l42 -42q35 -8 57 -8
q15 0 24 4l23 26l37 6l29 42q47 20 99 26q45 -8 45 -48v-2l-12 -42q-17 -70 -47 -105q-25 -13 -53 -32l-25 -36l-8 -8l-47 -23q-37 -31 -77 -31q-2 0 -24 0.5t-68 18.5l-28 27l-46 12zM848 1033q41 -51 101 -51q57 -57 102 -85q16 -25 37 -96l49 -119v-12q-24 -52 -24 -79
q0 -4 2 -19t19 -101l-20 -73l11 -46v-17l-15 -45q21 -76 29 -85l75 -56q50 -54 51 -91q-1 -37 -75 -76q-18 -1 -34 -1q-61 0 -107 9q-48 8 -96 58q-4 2 -9 2q-22 0 -58 -27l-53 -40l-49 7l-68 -19l-55 6q-11 1 -23 1q-47 0 -98 -16h-24l-48 28l-50 -4h-11q-53 38 -95 45
q-42 15 -96 148l-43 55l2 33l2 31l-4 27v5q0 77 59 124l39 69l35 7q40 8 66 21q27 6 53 31q52 2 96 32l88 -13h12q9 0 35 20l29 11l60 -17q16 2 46 28l8 4q30 -5 45 -5q8 0 20.5 6t12.5 20l-5 30l13 38q0 24 -50 54l-53 13q-57 33 -77 43h-25l-50 -14h-11q-32 12 -63 13
q-57 -23 -75 -48l-14 -38l-1 -27q-13 -46 -50 -85q-49 -38 -98 -38q-9 0 -17 1q-82 22 -124 87v11l4 46l-4 47q0 46 80 103l22 42l63 29l45 43l79 8q25 11 65 28l61 -10l43 3l75 14l79 -12q18 -10 59 -16zM724 397l-102 33h-13l-88 -40h-11l-44 12q-46 -53 -77 -64l-24 -67
q0 -23 48 -51l123 -38l81 28h23l53 -19q72 34 143 57q31 20 45 47v4l-6 41l-2 13l27 55l-4 14l-52 24h-11q-12 0 -80 -43z" />
    </font>
</defs>
</svg>
