<?xml version="1.0" standalone="no"?>
<!DOCTYPE svg PUBLIC "-//W3C//DTD SVG 1.1//EN" "http://www.w3.org/Graphics/SVG/1.1/DTD/svg11.dtd" >
<svg xmlns="http://www.w3.org/2000/svg" xmlns:xlink="http://www.w3.org/1999/xlink" version="1.1">
<metadata>
Created by FontForge 20170731 at Fri Nov 19 04:37:46 2004
 By Aleksey,,,
Copyright 2004, John Stracke.  Based on a 1743 translation of the essays of Montaigne.
</metadata>
<defs>
<font id="Essays1743" horiz-adv-x="765" >
  <font-face 
    font-family="Essays1743"
    font-weight="500"
    font-stretch="normal"
    units-per-em="1024"
    panose-1="2 0 6 2 0 0 0 0 0 0"
    ascent="759"
    descent="-265"
    x-height="475"
    cap-height="745"
    bbox="-53.2712 -617.143 1575.97 1411.14"
    underline-thickness="50"
    underline-position="-175"
    unicode-range="U+000D-F6BE"
  />
<missing-glyph horiz-adv-x="443" 
d="M34 0v682h341v-682h-341zM68 34h273v614h-273v-614z" />
    <glyph glyph-name="IJ" unicode="IJ" horiz-adv-x="604" 
d="M341 753q44 11 103 9q17 0 38 -2l61 -2q22 -4 35 -20q7 -9 3 -21q-1 -4 -3 -8q-8 -17 -38 -31q-27 -13 -36 -31q5 -153 4 -450q0 -114 2 -251q-4 -46 -10 -61q-1 -3 -3 -6q-13 -26 -48 -56l-14 -12q-40 -34 -67 -45q-28 -11 -63 -11q-34 2 -47 9q-2 2 -4 3q-25 18 -28 46
q-2 19 9 36q3 4 8 10q17 21 34 21q12 -2 24 -20l12 -15l6 -4q26 -15 39 -12t28 22l3 3q16 21 21 50q0 62 1 122q-4 -5 -10 -9l-219 -6q-30 1 -156 15q-21 17 -15 40q2 6 6 11q15 19 58 7q42 -11 55 -3q3 1 5 4q-4 204 -1 371q1 109 3 212q-12 16 -47 13q-36 -2 -47 13
q-14 19 -9 40q3 11 12 19q133 -2 181 1q16 2 114 -1zM363 689q-14 -17 -56 -10q-44 7 -62 -1q11 -183 12 -399q0 -91 3 -185q11 -16 61 -9q58 8 77 -3q7 -4 13 -11q1 251 0 600q-9 14 -40 17q-5 1 -8 1z" />
    <glyph glyph-name="ij" unicode="ij" horiz-adv-x="394" 
d="M112 576q-25 2 -35 12q-11 11 -11 34q0 26 11 40q16 20 40 23q23 2 36 -3q12 -4 21 -15q19 -20 14 -45q-1 -5 -3 -11q-5 -14 -27 -24q-4 -2 -5 -3q-19 -9 -41 -8zM276 576q-24 2 -34 12t-12 34q0 24 12 40q16 20 40 23q23 2 36 -3q11 -4 20 -15q19 -19 15 -44
q-1 -6 -3 -12q-5 -14 -28 -25l-4 -2q-19 -9 -42 -8zM257 0h-232q-12 10 -9 24q0 5 3 10q8 15 39 17q30 2 39 15l-2 174q-1 36 -4 86q-9 23 -34 42q-26 19 -42 38q38 18 57 23q34 9 110 18q7 0 13 1q2 3 4 5q95 23 142 22q6 -1 12 -1v-570q-11 -40 -36 -72q-27 -32 -80 -62
q-35 -20 -46 -22q-5 -1 -11 -1q-17 -1 -33 6q-4 2 -9 5q-24 14 -32 29q-8 18 -5 35q2 7 5 16q10 24 34 34q21 9 38 5q7 -1 14 -5q5 -2 13 -18q4 -7 9 -10q28 -16 41 -6zM198 387q-16 -3 -20 -11t-4 -25l3 -278v-1q5 -12 39 -13q28 -2 39 -8l1 323q-7 8 -31 5q-19 -3 -26 6z
M258 50z" />
    <glyph glyph-name=".notdef" horiz-adv-x="443" 
d="M34 0v682h341v-682h-341zM68 34h273v614h-273v-614z" />
    <glyph glyph-name=".null" horiz-adv-x="0" 
 />
    <glyph glyph-name="nonmarkingreturn" unicode="&#xd;" horiz-adv-x="341" 
 />
    <glyph glyph-name="space" unicode=" " horiz-adv-x="474" 
 />
    <glyph glyph-name="exclam" unicode="!" horiz-adv-x="301" 
d="M180 237l27 167q1 13 3 31q13 138 10 262v17q-37 32 -75 18q-20 -7 -37 -27q-4 -86 6 -246q2 -38 3 -69l1 -105q2 -26 8 -66q18 -12 41 6q7 5 13 12zM117 12q27 -16 54 -8q15 5 27 17q28 28 19 62q-3 10 -10 19q-17 22 -49 16q-11 -2 -23 -7q-32 -15 -36 -54
q-2 -19 4 -30q5 -9 14 -15z" />
    <glyph glyph-name="quotedbl" unicode="&#x22;" horiz-adv-x="538" 
d="M367 492q-40 24 -51 48q-4 8 -11 27q-13 37 -4 75q2 11 7 25q16 50 26 62q11 13 28 19q46 15 87 -15q16 -12 30 -30q31 -41 20 -108l-7 -33q-4 -19 -27 -51q-11 -15 -17 -28q-13 -29 -8 -105q5 -65 -11 -85l-12 -10l-21 -8q-9 -2 -20 -2q-12 12 -9 93q2 82 0 126z
M117 492q-40 24 -51 48q-4 8 -11 27q-13 37 -4 75q2 11 7 25q16 50 26 62q11 13 28 19q46 15 87 -15q16 -12 30 -30q31 -41 20 -108l-7 -33q-4 -19 -27 -51q-11 -15 -17 -28q-13 -29 -8 -105q5 -65 -11 -85l-12 -10l-21 -8q-9 -2 -20 -2q-12 12 -9 93q2 82 0 126z" />
    <glyph glyph-name="numbersign" unicode="#" horiz-adv-x="512" 
d="M283 442q10 26 27 44q20 22 43 9q11 -5 20 -17q13 -17 19 -40q33 -5 51 -22q33 -30 20 -57q-3 -8 -11 -15q-20 -20 -53 -28q0 -7 1 -14l8 -59q21 -6 35 -19q33 -30 20 -57q-3 -8 -11 -15q-19 -19 -50 -27q-5 -27 -20 -43q-30 -33 -57 -20l-14 10h-1q-17 18 -25 44h-8
l-69 -3q-6 -19 -18 -31q-30 -33 -57 -20q-8 3 -15 10q-19 20 -27 51q-31 9 -53 29q-21 20 -9 43q6 11 18 20q16 12 35 17v16l-3 71q-23 9 -41 25q-21 20 -9 43q6 11 18 20q17 13 39 18q9 37 32 61q20 22 43 9q11 -5 20 -17q14 -19 20 -46q12 1 22 2zM272 308l-64 -3v-3
l8 -61q4 1 7 1l51 7q0 3 -2 59z" />
    <glyph glyph-name="dollar" unicode="$" horiz-adv-x="314" 
d="M177 42q1 0 -1 58q0 21 2 22q58 14 77 29q12 10 21 23q32 46 24 97q-2 13 -7 28q-13 39 -56 71l-42 31q-12 10 -55 22q-35 10 -41 35q-6 29 20 50q11 9 25 13q22 7 52 -14q9 -7 11 -8q11 -7 30 -46q13 -24 21 -12q20 43 18 59q-2 8 -7 21q-18 46 -79 63q-8 2 -6 25
q3 25 2 43q-11 34 -72 9l-8 -86q-1 -2 -2 -3q-69 -41 -83 -91q-3 -13 -4 -28q-2 -46 6 -66q4 -9 13 -25q14 -26 57 -32q48 -7 68 -21q33 -26 39 -35q5 -9 6 -18q1 -5 1 -10q-2 -49 -41 -68q-10 -5 -22 -6q-29 -3 -67 53q-28 42 -35 46q-10 6 -17 -8q-25 -47 -9 -84
q5 -11 14 -25q13 -20 49 -29q12 -3 14 -3l-1 -43q1 -11 4 -22q18 -27 81 -15z" />
    <glyph glyph-name="percent" unicode="%" horiz-adv-x="793" 
d="M184 540q-16 -9 -32 -7l-12 3q-39 10 -55 39q-12 21 -9 44q1 8 4 19q11 35 36 49q24 13 48 8q10 -1 22 -6q21 -8 34 -33q16 -32 10 -57q0 -3 -1 -6q-10 -35 -45 -53zM109 506q44 -25 81 -17q12 2 27 8q46 19 65 76q13 40 6 71q-4 18 -15 37q-18 32 -64 46q-4 2 -10 4
q-45 13 -76 6q-9 -3 -19 -6q-37 -15 -57 -54q-19 -38 -14 -73q3 -15 9 -31q16 -39 67 -67zM619 102q-16 -9 -32 -7q-5 1 -12 3q-39 10 -55 39q-12 21 -9 44q1 8 4 19q11 35 36 49q24 13 48 8q10 -1 22 -6q21 -8 34 -33q16 -32 10 -57q0 -3 -1 -6q-10 -35 -45 -53zM544 68
q44 -25 81 -17q12 2 27 8q46 19 65 76q13 40 6 71q-4 18 -15 37q-18 32 -64 46l-10 4q-45 13 -76 6q-9 -3 -19 -6q-37 -15 -57 -54q-19 -38 -14 -73q3 -15 9 -31q16 -39 67 -67zM453 477q47 52 88 117q30 47 71 92q-2 10 -26 13q-22 1 -26 12q-5 14 6 25q5 6 11 9l111 4
q10 -1 77 -24q12 -16 4 -34q-4 -10 -12 -17t-29 0q-14 4 -23 0q-80 -86 -133 -162q-38 -56 -77 -104l-146 -186q-29 -38 -59 -83l-15 -27q-2 -7 1 -12q4 -8 27 -5q18 2 21 -7q6 -17 -17 -36l-22 -20q-1 -2 -3 -4l-149 -6q-28 1 -65 6q-3 4 -27 23q-16 13 -15 29q1 24 37 40
q3 1 5 2q12 5 43 -5q24 -7 34 5q182 219 209 250q42 47 99 105z" />
    <glyph glyph-name="ampersand" unicode="&#x26;" horiz-adv-x="943" 
d="M346 639q28 28 17 57q-3 8 -10 15q-40 44 -127 3q-11 -5 -26 -12q-67 -43 -75 -120l-1 -24q0 -20 21 -46q19 -23 24 -44q-13 -19 -33 -25q-18 -5 -34 -33l-23 -54q-4 -11 -9 -23q-31 -86 11 -171q14 -28 37 -59q40 -55 113 -77q18 -5 46 -12q100 -24 192 -8q20 3 78 15
q54 11 96 64l42 56q42 54 36 120l-10 90v9q0 10 -12 43q-9 23 1 38q15 22 58 18q45 -4 61 7q4 2 7 5q55 50 56 134q0 13 -2 25q-6 44 -55 61q-35 13 -69 1q-44 -15 -49 -68q-1 -15 2 -30q4 -18 41 -31q31 -11 33 -23l-2 -9q-16 -44 -74 -31l-103 30q-38 8 -66 1
q-62 -17 -81 -31q-16 -12 -27 -32q-35 -65 -18 -118q8 -25 27 -44q32 -32 78 -24q20 3 39 15q40 24 43 57q1 13 -7 24q-11 18 -47 4q-39 -15 -53 -9l-8 5q-20 17 -14 42q1 6 5 12q29 42 87 35q15 -2 30 -8q46 -16 62 -77l1 -4q17 -65 1 -115q-9 -28 -28 -56q-32 -48 -97 -70
q-14 -4 -38 -11q-66 -18 -127 -9q-21 3 -50 10q-70 17 -89 28q-25 14 -41 40q-34 54 -34 89q0 36 26 103q9 22 47 21q43 -2 57 6q4 2 8 6q46 42 34 78q0 3 -2 6q-10 22 -53 22l-37 2l-15 6q-8 5 -12 15q-12 34 25 66q9 7 20 15q15 10 51 2q31 -7 45 7z" />
    <glyph glyph-name="quotesingle" unicode="'" horiz-adv-x="288" 
d="M117 492q-40 24 -51 48q-4 8 -11 27q-13 37 -4 75q2 11 7 25q16 50 26 62q11 13 28 19q46 15 87 -15q16 -12 30 -30q31 -41 20 -108l-7 -33q-4 -19 -27 -51q-11 -15 -17 -28q-13 -29 -8 -105q5 -65 -11 -85l-12 -10l-21 -8q-9 -2 -20 -2q-12 12 -9 93q2 82 0 126z" />
    <glyph glyph-name="parenleft" unicode="(" horiz-adv-x="256" 
d="M138 -234q12 -25 59 -18q41 7 50 29q3 8 -1 16q-20 43 -77 144q-26 46 -40 108q-27 119 -14 232q4 33 12 80q17 103 56 189q11 25 46 99q6 12 -11 25q-13 10 -20 2q-83 -89 -119 -198q-12 -35 -23 -81q-32 -134 -17 -270q4 -41 15 -108q16 -100 62 -202q8 -17 22 -47z
" />
    <glyph glyph-name="parenright" unicode=")" horiz-adv-x="256" 
d="M143 655q-12 25 -59 18q-41 -7 -50 -29q-3 -8 1 -16q20 -43 77 -144q26 -46 40 -108q27 -119 14 -232q-4 -33 -12 -80q-17 -103 -56 -189q-11 -25 -46 -99q-6 -12 11 -25q13 -10 20 -2q83 89 119 198q12 35 23 81q32 134 17 270q-4 41 -15 108q-16 100 -62 202
q-8 17 -22 47z" />
    <glyph glyph-name="asterisk" unicode="*" horiz-adv-x="534" 
d="M371 549q79 53 88 81q5 18 -10 30q-39 32 -82 -20l-35 -50q-14 -22 -15 -23q-11 33 -7 100q2 40 -14 47q-7 3 -18 3q-34 0 -38 -20q-2 -8 1 -73q2 -31 1 -60l-67 73q-43 40 -70 15l-7 -7q-21 -26 10 -50l66 -45q13 -11 23 -22q-19 -4 -93 -3q-60 0 -70 -23q-4 -8 -3 -20
q4 -49 92 -37l89 14q-13 -22 -72 -63q-50 -33 -54 -51q-3 -14 12 -27q46 -39 77 1l47 77q8 11 17 18q3 -32 0 -108l1 -26q5 -17 35 -19q36 -2 43 23q2 7 6 78q2 27 5 52q28 -20 60 -71q18 -29 31 -27q7 0 17 8q29 23 0 58l-57 64q-9 11 -15 22q26 5 95 2q38 -1 46 17
q3 7 3 17q1 33 -38 38l-94 6z" />
    <glyph glyph-name="plus" unicode="+" horiz-adv-x="346" 
d="M227 283q5 0 10 -1q42 -6 55 -15l11 -12q22 -30 13 -57q-2 -8 -7 -15q-21 -31 -71 -35q-5 -42 -15 -54l-11 -12q-30 -21 -58 -13q-7 3 -14 7q-31 21 -35 69q-47 4 -72 38q-14 20 -6 43q4 11 12 20q20 23 61 24q2 56 40 82q19 15 42 7q11 -4 20 -13q24 -20 25 -63z" />
    <glyph glyph-name="comma" unicode="," horiz-adv-x="322" 
d="M132 -183q-28 -1 -44 5q-19 7 -22 25q-4 23 28 40q37 19 45 28q5 6 8 13q9 22 5 40q-1 7 -5 14q-7 15 -39 25q-29 10 -33 29q-6 54 3 81t33 45q30 22 74 8q10 -3 22 -8q34 -15 51 -54t10 -85q-1 -9 -4 -23q-15 -79 -50 -124q-7 -10 -16 -20q-31 -34 -58 -38z" />
    <glyph glyph-name="hyphen" unicode="-" horiz-adv-x="346" 
d="M33 183q-14 20 -6 43q4 11 12 20q21 24 68 24q36 1 49 3l57 10q12 1 24 -1q42 -6 55 -15l11 -12q22 -30 13 -57q-2 -8 -7 -15q-22 -32 -77 -35q55 3 -40 -1q-79 -3 -83 -3q-50 4 -76 39z" />
    <glyph glyph-name="period" unicode="." horiz-adv-x="303" 
d="M104 15q38 -10 66 1q19 8 33 26q23 30 11 71q-3 13 -11 28q-23 45 -63 45t-63 -45q-18 -34 -9 -70q2 -13 9 -29q9 -22 27 -27z" />
    <glyph glyph-name="slash" unicode="/" horiz-adv-x="793" 
d="M453 477q47 52 88 117q30 47 71 92q-2 10 -26 13l-19 4q-5 2 -7 8q-5 14 6 25q5 6 11 9l111 4q10 -1 77 -24q12 -16 4 -34l-9 -14l-3 -3q-8 -7 -29 0l-16 2q-4 0 -7 -2q-80 -86 -133 -162q-38 -56 -77 -104l-146 -186q-29 -38 -59 -83l-15 -27q-2 -7 1 -12q4 -8 27 -5
q18 2 21 -7q6 -17 -17 -36l-22 -20q-1 -2 -3 -4l-149 -6q-28 1 -65 6q-3 4 -27 23q-16 13 -15 29q1 24 37 40q3 1 5 2q12 5 43 -5q24 -7 34 5q182 219 209 250q42 47 99 105z" />
    <glyph glyph-name="zero" unicode="0" horiz-adv-x="560" 
d="M326 101q-32 -17 -65 -13q-10 2 -22 5q-70 19 -101 62q-5 7 -10 16q-24 43 -17 91q2 15 8 35q18 64 58 91q6 4 14 8q48 25 96 17q20 -4 43 -13q40 -16 64 -59q2 -3 4 -8q32 -63 21 -113q-1 -6 -3 -13q-19 -64 -76 -98q-6 -4 -14 -8zM176 33q88 -49 163 -34q24 5 53 17
q80 33 116 112q8 18 15 40q26 80 12 142q-8 36 -30 74q-34 57 -103 84q-18 6 -46 15q-90 27 -152 12q-18 -4 -37 -12q-66 -26 -102 -84l-13 -24q-38 -76 -26 -147q4 -28 17 -60q29 -72 108 -121q11 -6 25 -14z" />
    <glyph glyph-name="one" unicode="1" horiz-adv-x="560" 
d="M162 15q-24 0 -15 38q5 20 15 34q5 7 27 4q19 -3 24 11l3 154l-3 -11q-1 1 3 160q-8 15 -28 11q-13 -3 -17 4q-21 32 -11 68q5 20 20 31h198q35 -29 26 -74q-2 -13 -8 -25q-2 -4 -14 -3q-10 2 -14 -12q5 -414 4 -81q0 135 0 -228q2 -6 15 -6q6 0 9 -3q24 -30 23 -56
q0 -15 -14 -15l-131 -2l21 1h-133z" />
    <glyph glyph-name="two" unicode="2" horiz-adv-x="560" 
d="M383 170q45 18 69 10q12 -3 27 -14q-18 -75 -23 -83l-49 -58q-167 -8 -194 -7q-41 2 -121 4q-16 0 -7 28q3 8 7 14q39 63 105 124q58 54 85 97q9 14 17 30q26 50 12 84q-4 10 -12 19q-24 27 -70 15q-9 -2 -20 -6q-28 -10 -50 -39q-27 -35 -49 -54q-22 39 -15 54
q1 1 12 17q40 59 66 74q15 9 45 19q87 30 128 20q29 -7 52 -29q45 -44 27 -130l-9 -34q-12 -42 -56 -83q-45 -42 -61 -66l-11 -38l-7 -18l56 2l-27 -2q0 -1 67 0q3 2 0 26q-1 17 6 24z" />
    <glyph glyph-name="three" unicode="3" horiz-adv-x="560" 
d="M144 66q-28 20 -5 78q2 4 5 12q37 41 99 97q30 28 63 65q17 19 -4 48q-6 8 -14 15q-19 16 -44 13q-9 -1 -19 -4q-25 -8 -45 -40l-21 -27q-9 -11 -21 -17l-12 -6q-19 -7 -12 38q1 8 3 16q19 84 100 141l55 25q1 1 24 4q16 2 54 -9q25 -7 46 -17q36 -35 24 -111
q-2 -11 -6 -30q-7 -35 -45 -83q-27 -33 -36 -55q7 -14 35 -12q27 3 37 -6q32 -26 42 -80l3 -19q12 -73 2 -125q-6 -29 -20 -64q-29 -71 -65 -100q-13 -11 -31 -20q-105 -55 -162 -44q-32 5 -57 29q-35 33 -24 82q6 26 24 44q29 3 55 0q11 -1 35 0q8 -6 9 -29q0 -17 9 -22
q22 -12 49 5q6 4 14 10q48 39 60 107q1 11 3 25q6 49 -8 71q-4 7 -10 13q-23 23 -72 19q6 1 -18 -1q-18 -1 -42 -18q-23 -15 -57 -18z" />
    <glyph glyph-name="four" unicode="4" horiz-adv-x="560" 
d="M240 114v135q-19 39 -45 36l-90 -144q-7 -25 -3 -32l3 -4l73 2l-17 1q1 1 79 6zM337 -195q-31 -36 -69 -25q-15 5 -28 16l-2 210q0 11 -1 24q-51 4 -107 -8q-44 -9 -112 8q-22 5 -11 47q1 3 2 7l154 255q25 38 140 177q16 7 30 2q9 -3 15 -11q11 -112 6 -190
q9 132 -15 -203q43 -3 78 9q41 13 131 8q24 -38 -16 -82q-12 -14 -29 -25q-30 -20 -60 -13q-53 13 -79 13h-28l3 -180q-1 -15 -2 -39z" />
    <glyph glyph-name="five" unicode="5" horiz-adv-x="560" 
d="M113 -92q-29 5 -52 -13q-10 -8 -18 -21q-12 -20 -8 -41q2 -9 8 -19q23 -41 80 -58q10 -4 28 -8q45 -11 79 -6q19 3 41 12q104 41 153 102q21 26 39 60q51 99 32 172q-5 19 -14 38q-14 29 -58 44q-5 1 -14 4q-38 12 -102 4q-22 -3 -36 -4q-2 0 -78 -12l40 132
q-12 -53 26 124l40 1q4 -1 8 -6t-2 -30q-5 -22 4 -31q42 -5 80 -3q30 1 106 -5l23 44q26 57 17 92q-13 52 -71 79q-5 3 -10 5q-18 8 -28 3l-5 -3q-16 -12 -15 -48t-15 -48q-15 -11 -43 -2l-5 2q-17 6 -39 38q-19 29 -34 29q-5 1 -11 -1q-77 -130 -88 -156q-15 -34 -28 -83
l-54 -243q6 -13 30 -12q29 3 60 36q32 34 55 41q2 0 5 1q56 13 79 2q9 -5 17 -14q55 -64 29 -148q-11 -36 -35 -68q-47 -62 -128 -52q-11 1 -22 4q-17 4 -32 33q-14 27 -29 32q-3 1 -5 1z" />
    <glyph glyph-name="six" unicode="6" horiz-adv-x="560" 
d="M356 388q-49 29 -104 16q-22 -6 -46 -18q-51 -27 -65 -90q0 -4 -1 -7q-12 -67 7 -115q11 -28 35 -56q25 -30 78 -34q38 -4 59 2q20 5 37 21q55 49 55 133q0 16 -1 36q-5 69 -35 98zM346 19q-85 -18 -136 -3q-16 4 -32 11q-88 37 -117 88q-11 19 -17 43q-31 124 -22 203
q4 38 16 80q28 97 86 158q18 19 42 40q88 74 152 94q43 14 94 14q28 0 40 -5q14 -6 26 -24q-37 -28 -93 -54q-30 -14 -53 -34q-69 -59 -78 -68q-36 -38 -62 -98q-5 -13 1 -24q4 -7 11 -10l91 35q16 4 47 1q86 -10 128 -57q6 -7 12 -16q70 -98 45 -192q-6 -23 -17 -47
q-22 -47 -68 -84q-6 -4 -13 -10q-42 -32 -83 -41z" />
    <glyph glyph-name="seven" unicode="7" horiz-adv-x="560" 
d="M90 -18q56 166 98 245q24 44 44 95q8 20 49 99q35 68 35 135q-15 42 -72 42q-41 0 -67 -21l-62 -52q-7 -6 -15 -11q-44 0 -54 30q22 108 36 134q11 20 60 67q24 14 49 8q12 -4 23 -12q4 -3 5 -15l3 -10l4 -4h306l-188 -389q-42 -93 -120 -287l-30 -35q-10 -9 -20 -10
l-60 -9h-24z" />
    <glyph glyph-name="eight" unicode="8" horiz-adv-x="560" 
d="M319 98q25 14 36 53q1 3 2 7q13 47 3 75q-2 5 -5 11q-14 28 -54 42q-48 16 -80 7q-8 -3 -16 -7q-30 -15 -42 -54q-10 -33 -4 -61q3 -13 10 -29q16 -36 48 -48q40 -16 71 -8q16 3 31 12zM325 450q17 9 28 42q12 35 7 59q0 4 -1 7q-9 37 -36 54q-46 30 -90 22l-14 -4
q-38 -12 -56 -54q-12 -28 -7 -54q2 -11 7 -24q15 -40 48 -54q41 -17 75 -9q19 4 39 15zM193 358q-58 37 -74 56q-14 16 -24 42q-31 79 -16 140q7 29 24 58q23 39 77 55q8 2 19 5q69 17 123 7q28 -5 61 -19q57 -24 81 -65q4 -6 7 -13q20 -42 14 -84q-2 -16 -8 -36
q-7 -25 -37 -53l-7 -7q-16 -15 -57 -41q-15 -9 -29 -19q-9 -6 12 -23q6 -4 8 -7q14 -14 56 -33q35 -15 47 -39q27 -52 10 -123q-3 -13 -10 -39q-16 -55 -35 -75l-20 -15q-74 -44 -160 -28q-28 6 -62 18q-59 21 -82 68l-4 8q-25 58 -7 123q5 17 13 39q9 24 44 54q29 25 36 46
z" />
    <glyph glyph-name="nine" unicode="9" horiz-adv-x="560" 
d="M396 132q29 69 9 138q-7 25 -21 54q-16 35 -52 49q-47 19 -85 10q-14 -3 -29 -10q-31 -15 -46 -55q-31 -83 -16 -145q5 -20 14 -41q17 -39 58 -54t81 -5q15 4 33 11q40 16 54 48zM366 32q-11 1 -48 -12q-13 -4 -24 -6q-56 -8 -57 -8q-16 0 -31 4q-63 18 -93 56
q-5 6 -9 12q-60 90 -49 180q2 18 7 38q23 98 93 141q12 7 25 13q81 38 155 20q36 -8 75 -31q48 -28 69 -91q5 -13 11 -36q27 -97 9 -203l-15 -73q-23 -104 -61 -165q-12 -19 -27 -39q-56 -74 -118 -109q-20 -12 -46 -23q-39 -17 -82 -18h-32q-22 12 -19 37q0 3 1 5
q43 50 96 80q42 24 66 46l59 66q34 44 45 116z" />
    <glyph glyph-name="colon" unicode=":" horiz-adv-x="385" 
d="M121 15q38 -10 66 1q19 8 33 26q23 30 11 71q-3 13 -11 28q-23 45 -63 45t-63 -45q-18 -34 -9 -70q2 -13 9 -29q9 -22 27 -27zM121 325q38 -10 66 1q19 8 33 26q23 30 11 71q-3 13 -11 28q-23 45 -63 45t-63 -45q-18 -34 -9 -70q2 -13 9 -29q9 -22 27 -27z" />
    <glyph glyph-name="semicolon" unicode=";" horiz-adv-x="385" 
d="M133.386 -48.3555q-28.2939 -0.849609 -44.4619 4.24414q-19.1992 5.94336 -22.2305 21.2236q-4.04297 19.5254 28.293 33.958q37.3887 16.1299 45.4727 23.7695q5.05273 5.09375 8.08398 11.0371q9.09473 18.6758 5.05273 33.957q-1.01074 5.94238 -5.05273 11.8848
q-7.07324 12.7344 -39.4092 21.2236q-29.3047 8.48926 -33.3467 24.6191q-6.0625 45.8428 3.03125 68.7646q9.09473 22.9209 33.3467 38.2021q30.3154 18.6768 74.7773 6.79102q10.1045 -2.54688 22.2305 -6.79102q34.3574 -12.7344 51.5361 -45.8428
q17.1777 -33.1084 10.1045 -72.1602q-1.01074 -7.64062 -4.04199 -19.5254q-15.1572 -67.0664 -50.5254 -105.269q-7.07324 -8.48926 -16.168 -16.9785q-31.3252 -28.8643 -58.6084 -32.2598zM133 334q38 -10 66 1q19 8 33 26q23 30 11 71q-3 13 -11 28q-23 45 -63 45
t-63 -45q-18 -34 -9 -70q2 -13 9 -29q9 -22 27 -27z" />
    <glyph glyph-name="less" unicode="&#x3c;" horiz-adv-x="372" 
d="M232 431q38 7 64 2q22 -4 35 -17q11 -9 0 -29q-4 -6 -8 -10q-4 -6 -29 -4l-14 -1l-2 -1l-110 -69q-26 -18 -52 -39q24 -38 92 -79q66 -41 93 -62q13 -22 13 -26q0 -7 -7 -13q-35 -10 -92 -13q-7 0 -14 -1q-41 -2 -78 43q-13 17 -20 34q-2 5 -43 46q-61 62 -37 76
q29 35 103 92l53 49q22 16 53 22z" />
    <glyph glyph-name="equal" unicode="=" horiz-adv-x="346" 
d="M33 87q-14 20 -6 43q4 11 12 20q21 24 68 24q36 1 49 3l57 10q12 1 24 -1q42 -6 55 -15l11 -12q22 -30 13 -57q-2 -8 -7 -15q-22 -32 -77 -35q55 3 -40 -1q-79 -3 -83 -3q-50 4 -76 39zM33 279q-14 20 -6 43q4 11 12 20q21 24 68 24q36 1 49 3l57 10q12 1 24 -1
q42 -6 55 -15l11 -12q22 -30 13 -57q-2 -8 -7 -15q-22 -32 -77 -35q55 3 -40 -1q-79 -3 -83 -3q-50 4 -76 39z" />
    <glyph glyph-name="greater" unicode="&#x3e;" horiz-adv-x="372" 
d="M129 74q-38 -7 -64 -2q-22 4 -35 17q-11 9 0 29q4 6 8 10q4 6 29 4l14 1l2 1l110 69q26 18 52 39q-24 38 -92 79q-66 41 -93 62q-13 22 -13 26q0 7 7 13q35 10 92 13q7 0 14 1q41 2 78 -43q13 -17 20 -34q2 -5 43 -46q61 -62 37 -76q-29 -35 -103 -92l-53 -49
q-22 -16 -53 -22z" />
    <glyph glyph-name="question" unicode="?" horiz-adv-x="474" 
d="M217 228q-20 -15 -46 2q-9 7 -17 16q-25 101 -23 168q1 25 5 75q52 17 98 14q29 -2 55 4q18 17 13 41q-1 7 -4 13q-13 28 -55 42q-39 13 -53 21l-55 23q-12 8 -17 22q-9 42 5 62q7 11 22 19q57 5 94 -13q14 -6 41 -23q44 -70 51 -86q11 -26 16 -59q9 -64 9 -68
q-1 -39 -31 -69q-15 -15 -55 -26q-37 -10 -53 -34q0 -8 -3 -81q-2 -33 3 -63zM187 33q-22 -2 -37 6q-8 4 -17 12q-45 41 -36 81q10 38 63 45q30 4 50 -7q12 -7 22 -20q26 -33 17 -68q-2 -11 -8 -22q-13 -24 -54 -27z" />
    <glyph glyph-name="at" unicode="@" horiz-adv-x="527" 
d="M340 313q-1 21 -17 30q-6 3 -24 -2q-13 -3 -31 -15q-24 -15 -31 -24q-9 -13 -9 -22q2 -42 24 -53q6 -3 21 6q3 1 5 2q31 13 32 15q6 3 10 9q22 25 20 54zM401 238q4 -22 23 -3q14 15 27 47q22 56 5 125q-7 28 -8 37q-4 27 -45 90q-22 33 -36 42q-23 14 -85 7
q-78 -10 -114 -52q-22 -27 -51 -110q-61 -174 0 -245q11 -12 25 -21q82 -49 238 -28q51 7 51 1q0 -17 -62 -41q-68 -26 -133 -26q-79 0 -110 14q-29 13 -55 45q-56 69 -54 153q1 21 11 99q14 112 41 160q22 41 64 72q73 54 219 46q54 -3 66 -10q43 -27 71 -126
q39 -137 4 -251q-15 -47 -41 -81q-8 -11 -35 -9h-11q-31 -1 -43 5q-5 2 -15 15q-2 3 -4 5l-11 14q-2 1 -5 2q-12 1 -30 -15q-7 -7 -13 -11l-23 -14l-6 -2q-36 -8 -56 0q-6 2 -12 6q-18 12 -26 43q-7 28 -2 50q2 10 7 23q8 21 33 43q25 21 69 38q3 1 31 5q12 1 20 8
q7 5 11 22q4 16 2 31q-1 5 -2 11q-5 28 -9 32q-2 4 -6 6q-9 7 -30 2q-25 -5 -34 -17q-8 -11 -9 -43v-6q-3 -23 -29 -30q-11 -3 -22 1q-27 8 -24 41q0 3 1 5q8 44 31 64q30 26 83 29h12q23 1 35 -1q12 -3 24 -11q28 -20 35 -55q2 -14 4 -130q2 -64 8 -101z" />
    <glyph glyph-name="A" unicode="A" 
d="M496 327l-96 -16q-32 -1 -76 25q34 61 23 60l22 63l22 85q3 12 7 22q30 -16 46 -70q14 -47 18 -58l29 -68q7 -22 5 -43zM745 14q18 20 9 48q-3 10 -9 20q-11 20 -47 32q-35 11 -47 28q-20 55 -59 219q-26 107 -52 182l-30 93q-13 32 -38 69q-34 20 -82 -2l-30 -14
l-87 -168q-27 -59 -85 -242l-22 -73q-14 -40 -29 -66q-10 -7 -38 -2q-22 4 -34 -3q-52 -31 -55 -78q0 -11 15 -28q6 -6 9 -11q26 -18 41 -11q7 3 10 4l77 3h3q12 1 66 -7q44 -7 68 16q11 14 8 88v14q-10 12 -31 6l-19 -2q-8 0 -15 5l4 67q5 32 30 52q41 4 148 3q33 0 62 2
q49 -7 57 -50l1 -6q6 -81 1 -85q-7 -4 -9 -9q-33 -7 -67 2q-13 3 -25 -10q-24 -27 -25 -66q0 -34 25 -34h128q111 4 129 6q14 2 27 5l15 1z" />
    <glyph glyph-name="B" unicode="B" horiz-adv-x="631" 
d="M313 424zM475 210q3 59 -32 96q-23 24 -56 28l-73 10l-20 -3q-17 -5 -18 -24q-10 -128 -9 -150v-22q2 -42 45 -61q24 -10 49 -7q70 8 100 74q13 27 14 59zM301 666q-11 -114 -6 -175q1 -24 6 -61q27 -23 71 -1l38 19q38 18 50 37q3 5 6 11q19 39 13 74q-3 17 -13 37
q-18 36 -64 55q-4 2 -9 4q-38 12 -64 7zM48 666q-17 20 -6 46q5 13 15 22q92 24 183 15q19 -2 56 -7l132 -14q78 -14 132 -62q36 -32 42 -91l1 -12q3 -41 -6 -66q-6 -18 -20 -36q-25 -33 -43 -43l-56 -21q-20 -7 -37 -13q29 -20 82 -38q35 -12 54 -39q31 -42 28 -103
q0 -11 -2 -28q-8 -78 -29 -110q-12 -18 -31 -32q-54 -42 -139 -38l-111 5q-12 0 -23 -1l-120 -9q-45 -1 -119 9q-24 29 -5 67q8 15 22 27q21 8 61 -5q33 -11 50 5q2 62 -11 124q-6 27 -6 55l26 390q-16 17 -37 10q-38 -13 -66 -10q-8 1 -17 3z" />
    <glyph glyph-name="C" unicode="C" horiz-adv-x="691" 
d="M617 148q-24 -4 -95 -31q-67 -27 -118 -20q-98 11 -154 66q-13 12 -25 28q-63 77 -63 170q1 20 3 43q12 121 76 190q18 21 43 40q75 60 153 47l18 -4q50 -13 89 -64l39 -55q11 -14 18 -52l9 -25l11 -15q6 -6 13 -11q42 84 42 128q-1 32 -17 67q-19 42 -73 64l-54 20
q-47 19 -102 20q-82 1 -117 -9q-15 -4 -31 -11q-89 -39 -146 -103l-34 -42q-66 -91 -83 -162q-8 -31 -10 -69q-5 -68 18 -123q9 -21 24 -47q48 -81 116 -127q20 -13 46 -27q65 -35 132 -34h13q111 3 132 6q80 13 124 71q20 26 19 55q-1 18 -16 16z" />
    <glyph glyph-name="D" unicode="D" horiz-adv-x="750" 
d="M259 669q35 32 100 15q8 -2 36 -10q75 -22 120 -73q8 -9 17 -21q58 -75 66 -156q2 -19 2 -40q1 -77 -26 -133q-13 -25 -34 -55q-39 -56 -103 -87l-33 -15q-55 -24 -96 -18l-6 1q-43 8 -52 15q-8 7 -8 19q2 54 6 251q1 96 11 307zM56 667q9 0 24 13q7 7 14 8q33 9 44 3
q4 -2 7 -5q-3 -103 -7 -428q-1 -65 -4 -158q-18 -21 -63 -12q-46 8 -63 -1q-4 -2 -8 -5q-11 -28 -8 -49q2 -12 8 -19q125 -15 242 -14h20h121q44 3 86 17q84 27 129 69q12 11 25 25q50 55 73 135q5 16 12 44q23 91 18 142q-2 22 -9 46q-23 84 -80 142q-14 14 -31 29
q-51 44 -126 66q-12 4 -36 10q-93 25 -215 24l-75 -1l-62 1q-16 -2 -32 -9q-58 -26 -55 -52q10 -21 51 -21z" />
    <glyph glyph-name="E" unicode="E" horiz-adv-x="648" 
d="M452 644q-58 10 -110 5q-23 -2 -52 -7l-34 -2l-9 -6l-1 -183q0 -23 1 -56q70 -13 80 -14q20 0 48 6q19 13 17 53q-1 41 12 53q2 3 6 5q19 12 39 5q12 -5 20 -14q0 -53 4 -290q-42 -19 -58 -6q-6 4 -14 15q-6 31 8 54q7 11 1 22q-8 16 -36 23q-9 2 -12 3q-50 16 -76 11
q-5 -1 -9 -2q-25 -7 -33 -18l-5 -8q-17 -83 -17 -167v-29q8 -18 34 -28q77 -17 189 -11q45 2 58 3q28 15 39 43q19 48 36 72q5 8 11 15q24 -27 25 -56v-18q3 -64 -7 -87q-8 -17 -24 -30h-546q-33 11 -36 25q-1 3 -1 6q0 16 29 26l8 3q9 3 41 -6q20 -6 22 8q22 230 24 334
q2 100 -2 246q-33 0 -54 -10q-4 -2 -10 0q-3 0 -7 2q-35 17 -34 43q3 39 57 61q8 3 20 7h354q39 -2 124 -17q4 -98 7 -106q-1 2 12 -33q2 -7 19 -25l7 -10v-6q-54 -18 -88 -15l-65 5q-6 7 4 16q18 14 13 38q-8 32 -13 36q-8 5 -16 16z" />
    <glyph glyph-name="F" unicode="F" horiz-adv-x="648" 
d="M393 0h-356q-33 11 -36 25q-1 3 -1 6q0 16 29 26l8 3q9 3 41 -6q20 -6 22 8q22 230 24 334q2 100 -2 246q-33 0 -54 -10q-4 -2 -10 0q-3 0 -7 2q-35 17 -34 43q3 39 57 61q8 3 20 7h354q39 -2 124 -17q4 -98 7 -106q-1 2 12 -33q2 -7 19 -25l7 -10v-6q-54 -18 -88 -15
l-65 5q-6 7 4 16q18 14 13 38q-8 32 -13 36q-8 5 -16 16q-58 10 -110 5q-23 -2 -52 -7l-34 -2l-9 -6l-1 -183q0 -23 1 -56q70 -13 80 -14q20 0 48 6q19 13 17 53q-1 41 12 53q2 3 6 5q19 12 39 5q12 -5 20 -14q0 -53 4 -290q-42 -19 -58 -6q-6 4 -14 15q-6 31 8 54
q7 11 1 22q-8 16 -36 23q-9 2 -12 3q-50 16 -76 11q-5 -1 -9 -2q-25 -7 -33 -18l-5 -8q-17 -83 -17 -167v-29q8 -18 34 -28q54 -12 65 -8q22 7 61 9q31 16 27 -19q-3 -22 -16 -51z" />
    <glyph glyph-name="G" unicode="G" horiz-adv-x="776" 
d="M703 119q-61 -86 -208 -108l-95 -9q-17 -1 -42 -2q-58 -3 -104 15q-18 7 -41 19q-86 46 -133 109q-14 20 -29 45q-43 75 -43 144q0 12 1 26q6 98 59 181q13 22 34 50q60 79 124 117q25 14 56 28q45 19 116 20h32q58 1 87 -2q31 -4 65 -14q50 -16 104 -53q-6 4 23 -16
q23 -71 8 -121q-7 -22 -32 -74q-26 17 -32 54q-6 34 -20 48q-65 69 -125 89q-24 8 -53 12q-68 9 -115 -10q-28 -11 -56 -33q-86 -67 -109 -168q-7 -27 -10 -62q-9 -86 17 -145q15 -34 43 -68q54 -68 138 -87q19 -4 41 -7q67 -9 112 5q32 11 59 35q2 109 1 113l-7 32
q-5 23 -42 27q-45 5 -56 11l-11 11l-2 2q-7 11 -4 20q2 3 4 5q204 13 290 17q14 -14 6 -35q-3 -9 -9 -16q-4 -5 -27 -2q-12 2 -13 -6q-1 -23 5 -124q4 -57 -7 -73z" />
    <glyph glyph-name="H" unicode="H" horiz-adv-x="810" 
d="M43 694q11 -15 47 -13q35 3 47 -13q-3 -176 -15 -373q-5 -78 -3 -210q-13 -14 -51 -4q-35 11 -48 -1q-2 -1 -3 -3q-12 -16 -4 -35q5 -9 13 -16q145 -16 161 -15q92 5 163 6q21 15 16 38q-1 7 -4 13q-10 20 -46 22q-40 3 -52 16q-2 3 -4 5q-4 109 -1 109l2 -5q2 2 -8 160
q266 6 268 4q8 -5 85 -9l1 -189l-7 -70q-2 -19 -32 -24q-38 -6 -48 -14q-3 -2 -5 -5q-11 -14 -14 -48q-1 -12 -3 -20l152 -1q-20 -2 111 10l-3 48q-2 5 -4 11q-5 11 -26 28q-13 11 -17 23q2 170 0 233q-1 49 0 297q8 15 40 27q27 10 35 26q9 16 4 27q-1 4 -4 7
q-111 17 -160 14q-17 -1 -94 -8q-14 -13 -8 -34q3 -9 8 -17q10 -14 43 -17q32 -2 42 -17q-6 -36 -6 -133q0 -45 -2 -89q-122 -2 -162 -2q-76 1 -188 2l-1 167q2 29 5 77q14 14 52 5q39 -8 55 7q11 12 8 28q-2 8 -8 15l-227 9q-36 1 -97 2q-17 -15 -11 -35z" />
    <glyph glyph-name="I" unicode="I" horiz-adv-x="389" 
d="M245 678q19 8 64 -4q40 -11 54 5q2 2 4 5l7 30q1 14 -4 20l-227 9q-36 1 -97 2q-17 -15 -11 -35l8 -16q11 -15 47 -13q35 3 47 -13q-6 -392 -5 -437q1 -33 3 -146q-13 -14 -54 -3q-43 12 -58 1q-3 -2 -6 -6q-12 -16 -4 -35q5 -9 13 -16q145 -16 161 -15q92 5 163 6
q23 17 17 40q-1 6 -5 11q-10 17 -45 13q-38 -4 -51 6q-3 3 -6 7q-2 51 -3 291q-1 121 -12 293z" />
    <glyph glyph-name="J" unicode="J" horiz-adv-x="379" 
d="M193 671q1 -221 -1 -767q-5 -29 -21 -50q-16 -20 -24 -23q-3 -1 -7 -2q-13 -3 -39 12q-8 4 -22 25q-8 12 -20 14q-16 1 -34 -21q-19 -24 -17 -46q3 -28 28 -46q15 -10 51 -12q35 0 63 11q26 11 67 45q40 35 45 42q10 12 17 26q9 19 13 67q-1 68 -1 428q0 116 -5 273
q9 18 39 32q27 13 35 30q7 14 3 23q-1 3 -3 6q-18 22 -61 22h-35q-59 5 -99 1q-29 -4 -55 -12q-5 -31 6 -45q10 -13 41 -16q27 -3 36 -17z" />
    <glyph glyph-name="K" unicode="K" horiz-adv-x="725" 
d="M111 657q7 -351 18 -541q1 -14 2 -31q-17 -3 -64 5q-37 7 -56 -13q-14 -16 -9 -35q2 -9 9 -16q103 0 181 -7q28 -2 92 -2q27 17 21 42q-1 3 -3 6q-9 15 -40 10q-35 -5 -46 7q-8 106 -5 156q2 19 5 49q23 46 60 43q77 -81 113 -126q27 -33 63 -76q7 -26 2 -42
q-4 -11 -13 -18q-13 -11 -47 1q-31 12 -44 -1q-19 -19 -11 -41q3 -9 11 -17h344q25 26 13 57q-5 13 -16 24t-39 2q-22 -8 -35 -2l-166 201q-32 36 -118 112l138 172q26 30 87 81q7 6 41 17q25 8 27 26q2 19 -28 32q24 -11 -15 7q-84 6 -71 9q2 1 -1 1l-73 -2h-17
q-50 -21 -52 -46q0 -5 1 -10q3 -18 39 -21t43 -14q2 -3 3 -7l-148 -194l-57 -80q-14 -1 -23 20q-1 2 -2 6q1 49 7 138q2 32 1 127q12 11 43 0q31 -12 43 0q21 21 14 50q-3 15 -14 26q-137 -1 -256 0q-37 -25 -32 -58l6 -16q7 -12 44 -4q29 7 30 -7z" />
    <glyph glyph-name="L" unicode="L" horiz-adv-x="708" 
d="M114 731q-20 -18 -14 -50q2 -8 5 -18q63 -30 82 -60l13 -26q3 -115 -5 -313q-4 -94 -3 -190q-37 -11 -78 1q-37 11 -65 10q-24 -40 -23 -47q0 -6 6 -13l9 -11q215 -21 350 -13l205 13h4q24 -3 60 -14q12 110 8 150q-3 24 -17 95q-10 -2 -58 3q-39 4 -44 -20q-6 -31 4 -81
q6 -32 5 -59q-85 -37 -138 -40h-91q-2 89 -1 335q0 80 -2 203q7 25 32 43q11 7 43 5q25 -2 34 12q19 28 3 60q-7 15 -20 25l-172 8q-72 -5 -132 -8z" />
    <glyph glyph-name="M" unicode="M" horiz-adv-x="861" 
d="M20 683q4 -15 32 -15t36 -11l-3 -432q1 -54 3 -123q-7 -9 -32 -8q-21 2 -28 -9q-8 -12 3 -38q5 -13 6 -21q68 -2 148 5q26 2 57 3l11 43q1 8 -3 17q-7 17 -37 26q-31 10 -39 25l2 287q-2 84 -14 208q91 -178 142 -326q57 -169 91 -256q23 -30 38 -33q7 -2 14 -1
q10 1 20 17q3 5 5 8q39 89 107 278q49 138 115 282q-1 -78 5 -299q3 -96 -8 -188q-9 -11 -38 -10q-26 1 -36 -10q-12 -14 -9 -48q2 -16 1 -26l118 -7q24 0 78 7l8 62q0 13 -8 24q-6 8 -30 9q-15 0 -21 8q-5 137 7 494q1 13 1 23q1 21 33 19q31 -2 36 3q2 3 2 9q27 21 -5 63
q-63 22 -83 18q-15 -2 -37 -15l-261 -506q-77 148 -107 239q-43 132 -90 248q-84 23 -130 19q-26 -2 -60 -11q-46 -22 -40 -51z" />
    <glyph glyph-name="N" unicode="N" horiz-adv-x="793" 
d="M649 688l-18 -438q-122 166 -222 286q-113 135 -159 190q-84 23 -130 19q-26 -2 -60 -11q-48 -23 -40 -51q8 -24 59 -20q44 3 55 -6l-4 -426q1 -56 4 -129q-6 -8 -44 -3q-48 5 -62 -14q-8 -12 2 -37q6 -14 7 -22q68 -2 148 5q26 2 57 3l12 44q1 8 -4 16t-22 5
q-19 -3 -29 15q-1 69 10 201q8 109 -7 268q122 -162 232 -286q87 -99 175 -209q23 -31 42 -34h9q19 2 39 36q3 5 4 7q7 123 2 305q-4 127 3 278q65 4 61 -1q-2 -3 -4 1q-1 2 3 6q20 20 21 44q0 15 -12 16l-116 10q32 1 -109 -8q5 -9 -3 -34l-3 -15l4 -9l2 -2q14 -14 26 -11
q43 10 71 11z" />
    <glyph glyph-name="O" unicode="O" 
d="M205 376q-5 -90 3 -126q7 -28 22 -56q36 -63 92 -88q13 -6 28 -11q59 -20 102 -10q24 5 49 18q58 32 91 101q8 18 22 53q38 95 31 173q-1 19 -5 40q-14 85 -51 128q-11 13 -26 26q-67 57 -130 54q-11 -1 -23 -3q-78 -14 -132 -83l-33 -48q-33 -52 -38 -127q-1 -11 -2 -41
zM697 610q63 -89 54 -206q-3 -40 -16 -107q-13 -66 -67 -142q-37 -52 -42 -60q-71 -108 -216 -104q-73 2 -145 33q-106 60 -145 98q-61 58 -73 138q-19 128 1 204q16 62 60 120q98 129 236 153q40 6 86 6q154 0 242 -101q13 -15 25 -32zM205 376q-5 -90 3 -126q7 -28 22 -56
q36 -63 92 -88q13 -6 28 -11q59 -20 102 -10q24 5 49 18q58 32 91 101q8 18 22 53q38 95 31 173q-1 19 -5 40q-14 85 -51 128q-11 13 -26 26q-67 57 -130 54q-11 -1 -23 -3q-78 -14 -132 -83l-33 -48q-33 -52 -38 -127q-1 -11 -2 -41zM697 610q63 -89 54 -206
q-3 -40 -16 -107q-13 -66 -67 -142q-37 -52 -42 -60q-71 -108 -216 -104q-73 2 -145 33q-106 60 -145 98q-61 58 -73 138q-19 128 1 204q16 62 60 120q98 129 236 153q40 6 86 6q154 0 242 -101q13 -15 25 -32z" />
    <glyph glyph-name="P" unicode="P" horiz-adv-x="631" 
d="M248 420zM236 662q-10 -114 -6 -174q2 -24 6 -61q28 -24 72 -2l37 19q41 18 54 42q1 3 3 6q19 41 12 77q-3 16 -12 34q-19 38 -66 56q-4 1 -8 3q-36 13 -63 8q-11 -3 -29 -8zM326 0l-193 -8q-45 1 -99 8q-24 29 -5 67q8 15 22 27q23 8 40 -6q11 -9 22 1q3 2 5 5l2 179
q9 140 4 390l-14 -5q-24 -3 -68 6q-5 1 -11 2q-17 20 -6 46q5 13 15 22l235 8h4q100 3 159 -21q44 -18 85 -55q37 -35 42 -94l1 -9q3 -41 -8 -70q-6 -15 -18 -32q-42 -66 -106 -98l-36 -16q-39 -16 -104 -14h-58q1 -117 8 -223q9 -3 54 -8q34 -3 46 -25q15 -27 1 -54
q-7 -13 -19 -23z" />
    <glyph glyph-name="Q" unicode="Q" 
d="M129 425q-4 -88 10 -139q11 -40 36 -82q38 -64 89 -88q13 -7 29 -12q56 -18 98 -9q22 5 45 18q55 31 84 96q7 15 23 57q36 94 29 171q-1 20 -5 43q-13 84 -51 131q-10 11 -21 22q-61 60 -113 68q-19 4 -41 2q-78 -7 -136 -74q-13 -15 -28 -36q-41 -56 -46 -135zM503 51
q-12 -8 29 -29q15 -7 147 -62q4 -2 7 -3l193 -88q91 -37 185 -40q23 0 86 35q39 22 41 9q1 -4 -1 -10q-5 -17 -2 -42q1 -8 -7 -17q-24 -30 -77 -35q-46 -4 -49 -5q-48 -8 -83 -4q-13 1 -28 4q-98 18 -220 73l-101 46q-53 24 -233 120l-64 31l-7 3q-42 11 -99 36
q-102 63 -140 102q-54 58 -65 134q-17 118 2 177q13 39 48 88q92 130 204 164q46 14 100 15q111 2 186 -60q35 -29 66 -74q60 -88 51 -206q-3 -39 -15 -107q-12 -66 -64 -143q-33 -49 -39 -59q-23 -35 -51 -53z" />
    <glyph glyph-name="R" unicode="R" horiz-adv-x="759" 
d="M278 412zM290 668q-10 -113 -6 -177q2 -27 6 -66q28 -24 74 -5l35 16q41 17 54 42q2 2 3 5q22 46 14 87q-4 19 -14 40q-18 37 -64 55q-5 1 -10 3q-37 13 -62 8q-11 -2 -30 -8zM469 372q-5 -2 48 -58q142 -149 225 -274q-48 -35 -97 -27q-25 3 -65 18q-30 37 -147 203
q-76 108 -92 108q-66 0 -76 -1q1 -67 8 -222q9 -3 54 -8q35 -3 47 -26q11 -21 1 -39q-6 -10 -19 -20l-134 -12q-69 -3 -158 12q-24 28 -3 55q7 11 20 21q22 8 40 -6q11 -9 23 3l3 3l3 180q8 139 4 389l-15 -5q-27 -3 -78 8q-18 20 -7 46q5 13 15 22l227 9h12q121 0 182 -26
q42 -18 79 -51q35 -32 42 -90q0 -5 1 -12q3 -41 -8 -70q-6 -16 -18 -33q-44 -63 -113 -95z" />
    <glyph glyph-name="S" unicode="S" horiz-adv-x="460" 
d="M8 252q16 17 41 7q5 -2 11 -6q32 -18 46 -70q15 -55 28 -71q8 -12 20 -21q40 -30 97 -27q6 0 14 1q48 6 64 19q7 7 12 16q32 55 8 117q-9 22 -25 45q-25 37 -82 55q-61 20 -80 30q-6 3 -56 23q-33 13 -48 37q-49 77 -36 161q5 32 19 69q21 56 75 80q6 3 12 5q53 21 126 6
l52 -11h1l59 -11q23 -7 35 -26q0 -88 -9 -137l-8 -42q-36 -9 -52 36l-23 85q-13 35 -36 49q-55 34 -90 17q-6 -3 -12 -8q-61 -50 -47 -134q5 -31 21 -62q14 -29 57 -42q42 -12 54 -18q15 -8 76 -25q48 -14 69 -46q51 -77 31 -170q-6 -30 -20 -66q-24 -66 -82 -96
q-9 -5 -20 -9q-59 -25 -136 -10l-43 10q-42 11 -72 30q3 -2 -48 32q-7 61 -4 140q1 20 1 38z" />
    <glyph glyph-name="T" unicode="T" horiz-adv-x="853" 
d="M216 28q-22 22 -14 47q2 7 6 13q18 24 63 20q42 -5 56 -3q-3 121 14 310q13 141 6 253l-115 9q-21 1 -47 0q-38 -22 -47 -63l-13 -65q-13 -43 -43 -85q-28 -21 -51 39q-3 8 -6 18q10 46 22 121q3 19 20 75q15 15 43 18q10 1 15 2q72 11 185 -1q75 -8 122 -8q35 0 143 13
q82 10 147 -4q21 -4 35 -17q28 -29 31 -38l22 -70q12 -34 32 -80q-9 -34 -39 -42q-10 -3 -21 -1q-37 52 -61 126q-14 44 -35 59l-23 13q-76 -18 -188 -25q0 -86 13 -410q3 -87 4 -155q0 -14 26 -11q33 4 42 -6q18 -26 10 -54q-5 -15 -18 -26q-154 0 -249 14q-39 5 -87 14z
" />
    <glyph glyph-name="U" unicode="U" horiz-adv-x="802" 
d="M122 114q-14 140 0 386q7 115 6 163l-33 -23q-5 -2 -10 -3q-36 -10 -44 -8q-9 2 -15 8q-17 17 -5 47q2 6 5 13q11 23 42 34l182 8q5 0 125 -17q30 -23 25 -52l-6 -14l-1 -2q-16 -19 -56 0q-41 19 -55 17l-13 -5q-2 -1 -4 -3l-13 -256q0 -75 18 -197q36 -84 86 -108
q17 -8 37 -11q91 -15 168 54q24 22 45 51q16 148 15 234q-1 93 5 227q-11 14 -48 7q-35 -6 -46 10q-12 25 16 50q8 7 18 13q101 2 127 0q23 -1 61 -3q36 -24 28 -52l-3 -8q-7 -12 -32 -5l-21 3q-8 -1 -13 -6q-6 -91 -3 -275q1 -129 -11 -280q-25 -50 -84 -74l-29 -11
q-135 -50 -238 -37q-46 5 -98 22q-39 13 -80 56q-25 27 -38 38q-5 5 -10 9z" />
    <glyph glyph-name="V" unicode="V" horiz-adv-x="682" 
d="M265 40q5 -25 41 -24q33 1 44 24q71 151 163 388q54 142 104 252q3 7 26 33q17 19 8 35q-96 7 -139 8q-17 0 -40 1q-15 -12 -11 -28q1 -4 3 -7q9 -16 57 -14q37 1 38 -9q1 -4 -1 -8q-94 -246 -139 -354q-16 -37 -38 -90q-5 -12 -22 -3q-10 5 -12 12q-42 150 -92 266
q-34 79 -62 183q-4 16 13 16l68 -11q22 -1 30 12q6 9 -1 19q-3 4 -7 7q-125 8 -141 7q39 3 -115 -15q-16 -13 -12 -33q1 -5 3 -10q6 -13 34 -19q24 -4 29 -18q85 -260 140 -491z" />
    <glyph glyph-name="W" unicode="W" horiz-adv-x="1041" 
d="M603 620q52 -150 109 -358l2 -6q4 -13 22 -15q9 -1 12 6q85 201 152 381q13 33 24 63q6 16 -16 17h-53q-18 3 -24 14q-7 13 -1 24q3 6 9 11q95 -2 127 -5q25 -2 52 -4q10 -16 -11 -39q-19 -20 -23 -29q-49 -106 -138 -336q-61 -160 -129 -304q-8 -16 -30 -12l-10 4
q-4 4 -5 8q-27 115 -116 410q-8 24 -13 42q-78 -205 -193 -452q-7 -15 -27 -11q-12 2 -14 11q-71 298 -117 450q-22 72 -54 170q-7 21 -45 20q-41 -1 -53 7q-5 4 -9 10q-8 15 -1 30q3 7 10 13l129 15q9 1 127 -7q13 -10 10 -22l-2 -4q-11 -19 -66 -7q-41 9 -45 0v-10
q28 -103 71 -203q41 -96 83 -246q4 -13 22 -15q9 -1 12 6q66 156 120 296l-40 117q-8 10 -37 18l-16 7q-7 4 -10 12q-7 15 -1 29q3 8 10 14l213 1q31 -1 80 -4q13 -10 10 -22l-2 -4q-7 -12 -38 -23l-10 -2q-34 -4 -56 -62zM478 742z" />
    <glyph glyph-name="X" unicode="X" horiz-adv-x="793" 
d="M276 100q4 -8 27 -5q18 2 21 -7q6 -17 -16 -35q-21 -17 -26 -25l-149 -6q-28 1 -65 6q-3 4 -26 23q-16 13 -16 29q0 23 36 39l6 3q12 5 43 -5q24 -7 34 5q101 122 133 152q41 39 80 79q17 16 2 55q0 -1 -2 4q-78 94 -87 109q-16 27 -99 137q-16 7 -62 -3q-44 -9 -67 5
q-31 18 -26 43q6 21 41 29q18 5 19 5q124 20 164 19q53 -2 137 -28q15 -12 10 -29q-1 -4 -4 -8q-11 -14 -46 -2l-27 7l-11 -2q-5 -3 -7 -8q32 -57 87 -120q36 -42 61 -77q29 32 112 130q25 30 59 67q-2 10 -27 13q-22 2 -25 12q-4 14 6 25q5 6 11 9l111 4q10 -1 77 -24
q12 -16 3 -36q-3 -8 -11 -15q-8 -6 -30 0q-13 4 -22 0q-88 -94 -139 -161q-32 -42 -65 -83l122 -211q23 -37 54 -80q19 -6 62 -6q24 0 38 -16q18 -20 12 -60q-3 -24 -3 -34q-90 0 -183 6l-97 2l-6 54q0 7 3 15q2 5 18 8q13 3 11 20q-58 111 -67 125q-11 18 -27 40
q-9 13 -30 8q-8 -2 -13 -8q-32 -42 -57 -82q-16 -25 -48 -72l-15 -27q-2 -7 1 -12z" />
    <glyph glyph-name="Y" unicode="Y" horiz-adv-x="759" 
d="M191 14q-14 16 -3 37q4 8 11 14q13 12 48 4q33 -9 46 5q9 94 9 213q-38 79 -116 188q-57 80 -92 139q-10 6 -36 -2q-16 -5 -24 2q-28 25 -18 58q3 11 10 19q106 9 150 7q37 -2 134 2q27 -19 20 -43q-1 -4 -3 -8q-9 -15 -42 -9l-27 2l-10 -4l-6 -7q20 -55 79 -182
q29 -63 49 -125l179 290q-7 3 -49 10q-29 4 -36 25q-8 20 10 39q6 6 15 12l109 8l122 -8q20 -17 13 -40l-5 -11q-13 -19 -50 -13q-43 6 -61 -5l-116 -211q-41 -70 -86 -130l-10 -122q-1 -33 7 -100q2 -16 30 -8q36 9 47 0q18 -17 13 -35q-1 -4 -4 -8q-142 -14 -172 -13
q-17 1 -135 10z" />
    <glyph glyph-name="Z" unicode="Z" horiz-adv-x="768" 
d="M105 15q-18 12 -15 47q2 27 0 38l243 329q45 59 199 228l4 22q0 8 -4 12h-282q-32 -10 -63 -46l-5 -5q-25 -29 -49 -82l-28 -55q-35 -17 -59 -6q-11 4 -18 15q27 108 32 119q10 28 45 94q289 0 306 -5q12 -3 292 -3q5 -9 -10 -25l-7 -9q-167 -203 -262 -333
q-47 -65 -159 -222q-11 -31 0 -43h307q45 19 79 66q6 9 15 23q13 20 18 53t24 72q17 7 32 -5l10 -11l1 -1q0 -74 -17 -122q-4 -10 -9 -23l-24 -65q-15 -31 -44 -46q-102 0 -254 9q-76 4 -198 4q-14 -2 -51 -22q-29 -15 -49 -2z" />
    <glyph glyph-name="bracketleft" unicode="[" horiz-adv-x="262" 
d="M42 433l2 287v1l30 13q11 -5 44 -9q11 -1 41 10q20 7 33 -2q14 -9 11 -24l-2 -6q-6 -13 -32 -15q-23 -2 -31 -12q-26 -35 -24 -90q4 -66 1 -90q-1 -8 -7 -123l-7 -150q0 -6 -1 -12q-9 -94 11 -127q10 -17 42 -43q2 -1 9 -7q8 -6 33 -1q17 3 24 -5q5 -5 4 -11q-1 -4 -4 -7
q-18 -20 -60 -13q-24 3 -30 4l-74 -6q-26 2 -9 30q2 53 -3 300q-1 57 -1 108z" />
    <glyph glyph-name="backslash" unicode="\" horiz-adv-x="793" 
d="M344 477q-47 52 -88 117q-30 47 -71 92q2 10 26 13l19 4q5 2 7 8q5 14 -6 25q-5 6 -11 9l-111 4q-10 -1 -77 -24q-12 -16 -4 -34l9 -14l3 -3q8 -7 29 0l16 2q4 0 7 -2q80 -86 133 -162q38 -56 77 -104l146 -186q29 -38 59 -83l15 -27q2 -7 -1 -12q-4 -8 -27 -5
q-18 2 -21 -7q-6 -17 17 -36l22 -20q1 -2 3 -4l149 -6q28 1 65 6q3 4 27 23q16 13 15 29q-1 24 -37 40q-3 1 -5 2q-12 5 -43 -5q-24 -7 -34 5q-182 219 -209 250q-42 47 -99 105z" />
    <glyph glyph-name="bracketright" unicode="]" horiz-adv-x="262" 
d="M220 300l-2 -287v-1l-30 -13q-11 5 -44 9q-11 1 -41 -10q-20 -7 -33 2q-14 9 -11 24l2 6q6 13 32 15q23 2 31 12q26 35 24 90q-4 66 -1 90q1 8 7 123l7 150q0 6 1 12q9 94 -11 127q-10 17 -42 43q-2 1 -9 7q-8 6 -33 1q-17 -3 -24 5q-5 5 -4 11q1 4 4 7q18 20 60 13
q24 -3 30 -4l74 6q26 -2 9 -30q-2 -53 3 -300q1 -57 1 -108z" />
    <glyph glyph-name="asciicircum" unicode="^" horiz-adv-x="346" 
d="M134 453q10 62 28 113q27 -14 46 -82q10 -32 15 -39q8 -13 62 -10q44 3 41 15q-14 50 -29 94l-31 93q-12 29 -34 61q-33 19 -80 -2l-26 -13q-76 -147 -106 -227q-4 -10 51 -14q61 -3 63 11z" />
    <glyph glyph-name="underscore" unicode="_" horiz-adv-x="560" 
d="M528.378 152.235q-60.1143 -15.8779 -179.626 -5.61426q-63.4502 5.3252 -89.3154 6.67969q-133.022 6.96484 -177.252 -2.73535q-44.9688 -9.66113 -55.9355 -35.1221q-9.28027 -21.543 -5.51953 -48.7764q2.11914 -16.1318 10.3008 -15.5586
q2.2168 -0.116211 5.27734 1.72559q107.157 -5.61035 348.442 -11.2354q57.6953 -2.01953 130.118 -5.81152q8.60645 -5.45801 18.3047 24.0742q15.7607 46.2373 9.25391 77.6201q-2.75391 18.168 -14.0488 14.7539zM528.378 152.235q-60.1143 -15.8779 -179.626 -5.61426
q-63.4502 5.3252 -89.3154 6.67969q-133.022 6.96484 -177.252 -2.73535q-44.9688 -9.66113 -55.9355 -35.1221q-9.28027 -21.543 -5.51953 -48.7764q2.11914 -16.1318 10.3008 -15.5586q2.2168 -0.116211 5.27734 1.72559q107.157 -5.61035 348.442 -11.2354
q57.6953 -2.01953 130.118 -5.81152q8.60645 -5.45801 18.3047 24.0742q15.7607 46.2373 9.25391 77.6201q-2.75391 18.168 -14.0488 14.7539z" />
    <glyph glyph-name="grave" unicode="`" horiz-adv-x="288" 
d="M44 683q53 27 75 25q16 -1 31 -10q32 -47 51 -109l14 -45q15 -44 29 -94q4 -13 -49 -15q-47 -1 -54 10q-4 4 -35 106q-37 118 -62 132z" />
    <glyph glyph-name="a" unicode="a" horiz-adv-x="417" 
d="M250 188q-2 28 -23 40q-8 4 -31 -2q-18 -5 -42 -21q-30 -19 -41 -32q-12 -17 -12 -29q2 -52 25 -67q3 -1 7 -3q8 -4 26 6q5 3 8 4l40 17q9 6 17 15q29 33 26 72zM178 427q-33 -7 -45 -23q-11 -15 -12 -55v-10q-3 -29 -35 -39q-17 -5 -33 0q-32 9 -32 48q0 7 1 14
q10 57 42 85q40 34 104 38q9 0 22 1q31 2 47 -2t32 -15q37 -25 46 -73q7 -40 7 -142q1 -18 1 -34l1 -94l2 -14l1 -19q2 -3 5 -4q14 -6 33 19q19 24 30 23q3 -1 5 -2q11 -5 7 -30l-1 -10q-3 -45 -10 -59q-5 -9 -13 -17q-11 -10 -40 -11h-5q-38 -3 -57 6q-7 3 -20 20
q-3 4 -6 7l-14 19q-3 2 -7 2q-16 2 -37 -18q-12 -11 -20 -16l-30 -19l-9 -3q-50 -10 -77 2q-7 3 -14 7q-24 16 -34 57q-9 37 -4 65q3 15 10 32q10 27 42 54l3 3q35 28 91 51q7 3 40 6q18 2 29 11q9 8 14 29t2 42q0 6 -2 15q-6 34 -10 39q-3 7 -10 12q-11 8 -40 2z" />
    <glyph glyph-name="b" unicode="b" horiz-adv-x="508" 
d="M251 425q-45 -9 -73 -53q-26 -44 -24 -112q-1 18 1 -36q4 -72 27 -117l8 -14q19 -36 39 -45l10 -4q20 -7 39 -1q7 2 16 7q50 27 78 81q6 11 12 24q24 49 19 92q0 4 -1 8q-7 55 -48 108q-6 6 -13 15q-18 23 -44 35q-29 14 -46 12zM105 788q18 12 39 -33q-2 5 5 -11
q4 -110 3 -213q0 -37 -1 -69q3 -17 32 -4q27 14 35 15l67 16q4 1 7 1l44 6q12 -1 23 -6q47 -21 77 -74q7 -11 20 -38q29 -58 32 -134v-17q1 -36 -4 -59q-3 -16 -10 -34q-11 -32 -41 -68l-32 -42q-14 -14 -33 -16q-166 -21 -249 -3q-33 8 -45 22q-8 136 -6 477q1 113 3 154
q-7 11 -44 16q-19 3 -20 9q0 3 2 6q23 45 75 84q9 7 21 15z" />
    <glyph glyph-name="c" unicode="c" horiz-adv-x="432" 
d="M345 338q-15 -1 -31 19q-9 12 -15 17l-34 28q-7 4 -15 6q-30 7 -54 -1q-12 -5 -25 -13q-23 -15 -37 -51q0 -2 -1 -4q-28 -72 -21 -132q1 -8 2 -17q9 -60 39 -91l6 -6q17 -16 56 -22q4 -1 7 -1q39 -5 54 2l8 4q23 13 36 48q1 2 3 9q8 23 32 15q21 -8 20 -27q-3 -51 -6 -58
l-12 -17q-16 -21 -54 -34l-9 -3q-22 -5 -68 -4q-46 -2 -61 2q-2 0 -4 1q-42 11 -73 39q-49 47 -61 93q-2 5 -3 10q-14 57 -8 102q3 23 11 51q21 75 54 109q10 11 24 22q56 44 128 44h15q48 -2 68 -14q13 -8 29 -24q35 -35 30 -69q-1 -3 -1 -5q-7 -27 -29 -28z" />
    <glyph glyph-name="d" unicode="d" horiz-adv-x="444" 
d="M240 425q42 -9 70 -54q28 -46 25 -107l-1 -25q-4 -51 -34 -100q-21 -34 -35 -42l-13 -6q-20 -7 -50 4l-4 2q-55 21 -78 50q-5 6 -10 14q-23 37 -20 81q1 8 2 17q7 52 47 103q5 7 13 17q18 23 43 35q28 14 45 11zM259 692q3 -12 40 1q20 7 19 -2q-4 -108 -3 -174
q0 -22 1 -50q-3 -16 -19 -1q-18 16 -23 18q-49 16 -49 15q-11 3 -23 2q-36 -2 -66 -22q-54 -36 -83 -89l-11 -21q-28 -57 -31 -132q-1 -7 -1 -16q-1 -35 5 -60q3 -13 9 -30q11 -31 40 -66l32 -42q13 -14 32 -16q55 -7 138 36q13 7 21 12q15 10 35 -15q22 -27 35 -30h7l41 -3
l2 1q20 9 20 54q0 5 -21 26q-12 13 -12 20q1 195 -5 504q-2 101 -4 136q10 16 -23 30q-35 15 -53 4q-27 -17 -44 -54q-10 -22 -6 -36z" />
    <glyph glyph-name="e" unicode="e" horiz-adv-x="364" 
d="M112 269q-3 -24 -2 -48q1 -15 4 -31q9 -55 30 -79q5 -5 11 -10q16 -13 53 -17q5 -1 9 -1q40 -3 46 -2q9 2 17 8q10 7 18 33q1 6 3 11q8 23 31 15q22 -8 21 -27q-4 -50 -8 -60l-9 -15q-14 -24 -42 -37q-17 -7 -55 -4h-13q-46 -2 -61 2q-2 0 -4 1q-42 11 -73 39
q-49 47 -61 93q-2 5 -3 10q-14 57 -8 102q3 23 11 51q21 75 54 109q10 11 24 22q60 45 129 41q6 0 13 -1q52 -5 70 -24q9 -8 15 -21q27 -54 19 -91q-3 -13 -10 -31q-9 -27 -28 -28q-107 -11 -186 -11zM129 337q7 -9 79 -3q41 3 42 9l3 40q-2 15 -13 23q-24 17 -57 0l-17 -10
q-33 -22 -39 -45q-2 -9 2 -14z" />
    <glyph glyph-name="f" unicode="f" horiz-adv-x="322" 
d="M165 438q10 0 54 7q27 4 41 -13q17 -21 3 -48q-5 -11 -15 -20q-16 -15 -57 -9q-15 2 -23 2q-7 -88 -6 -230q0 -27 1 -53q0 -11 20 -10t26 -7q19 -29 3 -53q-1 -2 -3 -4h-188q-17 14 -13 36q1 9 7 19q5 9 29 12q16 2 22 11l4 247q-4 12 -22 24q-11 7 -18 16q-10 20 -5 41
q4 14 25 32q15 13 20 25q3 18 4 82q0 37 15 66q24 50 71 82q8 6 18 12q24 16 74 24q29 5 46 0q51 -14 65 -24q12 -10 20 -27q7 -17 0 -32l-9 -13l-2 -2q-12 -9 -42 -1q-2 1 -4 1q-8 2 -29 18q-10 7 -20 9q-25 4 -40 1t-28 -12q-23 -17 -32 -57q0 2 -3 -11q-11 -38 -9 -104
v-37z" />
    <glyph glyph-name="g" unicode="g" horiz-adv-x="515" 
d="M290 -9q37 -10 60 -55l7 -14q17 -37 7 -58l-2 -4q-13 -23 -51 -30l-18 -4q-52 -13 -84 -3l-12 4q-50 22 -62 44q-5 10 -6 23q-2 32 39 60q3 2 20 13q53 34 91 27q5 -1 11 -3zM233 429q28 -7 44 -47l6 -16q12 -37 7 -66q-2 -12 -7 -26q-18 -55 -39 -69l-17 -8q-3 -1 -7 -1
q-29 -4 -55 33q-2 2 -11 15q-27 37 -25 78q3 43 35 74q33 33 56 34q6 0 13 -1zM386 395q17 -3 38 -25q15 -16 31 -13q19 2 32 30q1 1 2 4q15 32 9 87l-1 6q-2 13 -32 8q-9 -2 -13 -2q-14 -1 -44 -19q-19 -11 -36 -10q-22 1 -57 22q-20 12 -36 16q-28 7 -51 5q-18 -2 -57 -20
q-25 -12 -46 -12q-12 0 -39 14q-16 9 -29 7q-4 -15 13 -29q9 -7 11 -11q4 -5 4 -11q2 -24 -20 -60l-15 -29q-3 -7 -4 -14q-10 -38 -8 -50q0 -6 2 -12q6 -23 35 -53q21 -21 29 -38q14 -27 15 -31v-15q-5 -7 -37 -39q-14 -15 -25 -35q1 -19 27 -36q16 -10 22 -15l29 -13
q4 -4 4 -10q-1 -19 -30 -25q-36 -7 -46 -14l-37 -25q-12 -11 -15 -27q-6 -35 25 -78l21 -30q24 -35 43 -46q4 -3 8 -5q29 -14 78 -11h7q72 3 131 28q75 33 107 62q14 14 28 31q27 34 28 74q1 34 -8 55q-6 14 -18 28q-28 32 -82 46l-24 5q-23 5 -73 -4q-42 -8 -70 5
q-36 16 -34 40q4 22 37 32q34 9 42 14q12 6 66 25q38 13 58 39q17 23 18 70v19q0 13 -11 51q-7 23 -2 44z" />
    <glyph glyph-name="h" unicode="h" horiz-adv-x="485" 
d="M107 95q-5 128 -5 533v17q-6 11 -32 17l-19 7q-3 2 -5 4q-20 18 -20 19q-5 7 -3 15q5 20 39 26l18 3q55 11 62 11q25 0 42 -17q4 -83 4 -279q25 29 64 36q-6 -1 32 6q40 7 84 -27q5 -4 13 -10q28 -22 41 -62q24 -75 16 -189q-7 -87 -6 -120q5 -13 24 -19q12 -5 16 -13
q9 -18 5 -32q-1 -5 -5 -9l-182 1q-14 14 -8 34q2 9 8 17q6 9 30 9q15 1 21 9q18 114 18 140q2 44 -6 96q-7 44 -58 70q-2 2 -5 3q-20 10 -41 7q-7 -1 -16 -4q-32 -8 -38 -13l-6 -9q-1 -3 -1 -6q-2 -33 0 -192q0 -45 -1 -76q5 -12 26 -12q14 0 19 -7q25 -33 12 -56
q-2 -4 -5 -8q-127 -2 -212 -2q-22 17 -17 39l4 10q9 18 47 18q36 0 46 15z" />
    <glyph glyph-name="i" unicode="i" horiz-adv-x="250" 
d="M137 576q-25 2 -35 12q-11 11 -11 34q0 26 11 40q16 20 40 23q23 2 36 -3q12 -4 21 -15q19 -20 14 -45q-1 -5 -3 -11q-5 -14 -27 -24q-4 -2 -5 -3q-19 -9 -41 -8zM15 406q26 12 57 23l43 15q9 1 18 0q37 -5 51 -29q17 -29 7 -79l-9 -48v-10l-5 -204v-2q5 -13 30 -18
q17 -4 22 -14q7 -14 4 -26q-2 -8 -9 -14h-199q-13 10 -9 25q1 5 3 9q8 15 39 17q30 2 39 15l-2 174q-1 36 -4 86q-9 23 -34 42q-26 19 -42 38z" />
    <glyph glyph-name="j" unicode="j" horiz-adv-x="286" 
d="M185 576q-24 2 -34 12t-12 34q0 24 12 40q16 20 40 23q23 2 36 -3q11 -4 20 -15q19 -19 15 -44q-1 -6 -3 -12q-5 -14 -28 -25l-4 -2q-19 -9 -42 -8zM165 374q-7 8 -31 5q-19 -3 -26 6q-17 21 -12 45q3 13 12 23q95 23 142 22q6 -1 12 -1v-570q-11 -40 -36 -72
q-27 -32 -80 -62q-35 -20 -46 -22q-5 -1 -11 -1q-17 -1 -33 6l-9 5q-24 14 -32 29q-8 18 -5 35q2 7 5 16q10 24 34 34q21 9 38 5q7 -1 14 -5q5 -2 13 -18q4 -7 9 -10q28 -16 41 -6l3 228l-2 -80v388z" />
    <glyph glyph-name="k" unicode="k" horiz-adv-x="537" 
d="M80 649q-5 7 -35 9q-17 1 -23 8q-11 13 -8 29q0 5 2 10l34 22q1 0 6 2q33 12 68 11l43 -2q15 -4 24 -16q10 -14 5 -31l-5 -14q-2 -4 -16 -10l-6 -6l-1 -1q4 -140 3 -296v-90q3 -15 23 -23l92 67q16 14 34 33q11 25 3 37l-3 3q-7 6 -27 0q-12 -3 -19 0q-22 7 -23 22
q-1 19 16 32q5 4 13 8q89 4 205 12q23 -15 19 -37q0 -3 -1 -5l-170 -117q-28 -21 -70 -54q67 -63 160 -134q52 -40 102 -85l-2 -24q-55 -11 -142 -6q-47 2 -82 2q-12 13 6 34l5 5q8 8 38 6q22 -2 25 11q-82 44 -116 72q-18 15 -72 64l-1 -118q-1 -14 -2 -30q5 -7 25 -8
q13 -1 18 -9q6 -8 4 -18q-1 -4 -4 -7q-48 -9 -186 -7q-10 9 -5 24q2 5 5 10q5 8 24 12q13 3 18 11z" />
    <glyph glyph-name="l" unicode="l" horiz-adv-x="281" 
d="M215 716v-627l31 -17l14 -15l5 -8q8 -10 1 -35q-1 -3 -1 -5l-226 -5q-14 19 -6 57q18 17 57 25q7 2 11 3l-1 529q-46 1 -54 4q-18 5 -31 25l6 39q7 22 33 38q1 1 11 7q43 21 121 -5q11 -4 29 -10z" />
    <glyph glyph-name="m" unicode="m" horiz-adv-x="711" 
d="M686 104q-3 6 -18 18q-10 6 -12 15q3 135 1 195q0 24 -1 55q-15 41 -57 71l-5 3q-38 24 -86 28q-31 3 -61 -5q-7 -2 -18 -5q-4 -1 -24 -13q-8 -5 -16 -6q-14 -1 -45 10l-6 2l-46 21l-14 2q-9 0 -35 -10q-4 -2 -8 -3l-51 -23q-12 -4 -25 0q-7 2 -14 17q-3 8 -8 11
q-18 14 -28 16l-12 1q-42 -42 -86 -81q-5 -5 -11 -10q2 -11 24 -15q21 -3 27 -13l1 -266q-5 -10 -30 -24q-18 -10 -22 -23q-6 -17 2 -34q3 -5 7 -11q9 -12 29 -18h127q24 6 29 22q-1 -1 3 11q7 21 -3 42q-3 7 -8 15q-3 4 -20 12l-8 7l-1 1v211q10 23 40 40q31 17 57 15
q23 -3 38 -19q9 -11 12 -34q-1 -147 0 -213q-5 -10 -29 -20l-17 -8q-5 -5 -8 -11q-8 -19 6 -52q6 -16 17 -21q122 -1 154 0q18 9 22 27q8 27 2 46q-3 13 -13 24q-5 6 -25 7l-11 4q-3 1 -4 4v192q-1 18 -2 38q10 23 38 40q25 14 46 13q27 -1 51 -18q21 -15 27 -36
q1 -66 1 -225l-30 -28q-6 -8 -8 -15q-7 -19 3 -48l2 -4q6 -16 17 -21q105 -1 132 0q17 9 23 27q7 27 -4 54q-3 7 -8 16z" />
    <glyph glyph-name="n" unicode="n" horiz-adv-x="470" 
d="M383 448q-8 11 -33 20l-12 4l-39 19q-10 4 -21 4q-9 0 -35 -10q-4 -2 -8 -3l-51 -23q-12 -4 -25 0q-7 2 -14 17q-3 8 -8 11q-18 14 -28 16l-12 1q-42 -42 -86 -81q-5 -5 -11 -10q2 -11 24 -15q21 -3 27 -13l1 -266q-5 -10 -30 -24q-18 -10 -22 -23q-6 -17 2 -34
q3 -5 7 -11q9 -12 29 -18h127q24 6 29 22q-1 -1 3 11q7 21 -3 42q-3 7 -8 15q-3 4 -20 12l-8 7l-1 1v211q10 23 40 40q31 17 57 15q23 -3 38 -19q9 -11 12 -34q-1 -147 0 -213q-5 -10 -29 -20l-17 -8q-5 -5 -8 -11q-8 -19 6 -52q6 -16 17 -21q122 -1 154 0q18 9 22 27
q8 27 2 46q-3 13 -13 24q-5 6 -25 7l-11 4q-3 1 -4 4v192q-1 18 -2 38q9 21 3 55q-4 26 -16 44z" />
    <glyph glyph-name="o" unicode="o" horiz-adv-x="432" 
d="M171 394q32 21 66 16q6 0 13 -2q25 -5 49 -34q30 -39 39 -96q8 -56 -1 -97q-4 -22 -14 -48q-13 -39 -30 -51q-4 -3 -9 -6q-19 -12 -55 -7q-5 1 -7 1q-42 6 -56 17q-3 3 -7 6q-35 32 -44 88q0 4 -1 9q-9 58 5 109q5 17 14 40q14 38 35 53q1 1 3 2zM226 5q50 0 60 2l8 2
q41 14 63 37q30 31 48 86q1 4 3 10q13 45 12 96q0 9 -1 24q-3 66 -17 100l-4 8q-14 31 -53 70q-33 33 -70 36q-7 1 -27 2q-58 2 -97 -16q-22 -10 -46 -28q-48 -37 -69 -100q-4 -13 -9 -31q-17 -57 -12 -105q3 -22 9 -48q12 -51 58 -97l6 -6q31 -28 73 -39q17 -5 65 -3z" />
    <glyph glyph-name="p" unicode="p" horiz-adv-x="474" 
d="M199 -4q7 1 43 -4q9 -1 18 -1q36 0 57 9q27 12 64 47l4 4q32 32 39 45q3 5 6 12q15 35 17 95q1 11 1 17q1 45 -4 75q-2 17 -8 39q-12 52 -20 66q-6 10 -14 19q-24 27 -69 39q-2 0 -5 1q-34 9 -65 5l-26 -5q-20 -5 -48 -22l-20 -12q-10 8 -34 34q-7 7 -23 6
q-61 -31 -70 -38q-26 -19 -32 -48l45 -21l11 -11q3 -4 5 -8l1 -515q-5 -12 -29 -26q-20 -11 -22 -26q-3 -13 6 -24q4 -6 11 -10q2 0 196 -2h7q13 12 10 33q-2 6 -4 13q-4 11 -28 23q-15 8 -19 17l-1 168v6zM168 334q0 17 30 28l11 4q22 9 43 6q6 0 13 -2q28 -7 53 -32
q29 -32 41 -73q6 -18 5 -33l-2 -14q-8 -58 -24 -83q-3 -5 -6 -9q-30 -39 -70 -48q-25 -5 -44 2q-9 3 -19 9q-30 18 -31 40v205z" />
    <glyph glyph-name="q" unicode="q" horiz-adv-x="474" 
d="M393 458l1 -622v-1q5 -12 30 -25q19 -11 22 -26q2 -14 -7 -25l-10 -9q-19 -1 -180 -2h-23q-14 12 -10 33l4 12q5 12 27 23q15 8 19 17l1 171v4q-7 1 -42 -5q-10 -1 -18 -1q-38 2 -57 9q-30 13 -64 48l-4 4q-32 29 -41 46q-3 5 -5 10q-16 36 -17 96v16q-1 45 3 75
q3 17 8 39q14 53 20 64t15 21q22 27 68 39q2 0 5 1q35 9 65 5q11 -2 26 -5q21 -5 50 -23q10 -6 19 -11q10 8 33 33q8 8 24 7q23 -12 38 -18zM299 345q0 17 -30 28l-11 4q-26 10 -47 6l-10 -2q-29 -8 -52 -32q-28 -29 -42 -73q-5 -17 -4 -34q0 -6 1 -13q8 -56 24 -82
q3 -5 7 -10q29 -38 64 -47q3 0 6 -1q24 -5 44 3q8 3 18 9q31 18 32 39v205z" />
    <glyph glyph-name="r" unicode="r" horiz-adv-x="367" 
d="M49 0q-10 4 -17 23q-4 10 -2 18q1 2 2 5q5 11 26 21q15 7 20 18q1 26 1 170q0 35 1 73q-6 13 -33 27q-24 13 -24 30q34 55 41 62q13 13 38 23q19 7 37 1q7 -2 15 -6q18 -17 25 -19q7 -1 20 -8q6 3 33 26q20 17 45 16q50 -4 68 -74q6 -22 -2 -41q-3 -7 -9 -16
q-22 -32 -46 -29q-13 3 -20 27q-8 22 -20 25q-33 -22 -61 -44l-1 -218q3 -8 16 -15q9 -5 12 -13q8 -19 5 -33q-3 -11 -10 -19q-11 -3 -118 -22q-24 -4 -42 -8z" />
    <glyph glyph-name="s" unicode="s" horiz-adv-x="314" 
d="M25 146q-25 -47 -9 -85q5 -10 14 -24q14 -21 52 -30q-16 4 11 -2q32 -8 57 -5q12 1 28 5q58 14 78 30q11 9 20 22q32 46 24 97q-2 13 -7 28q-13 40 -57 72l-41 30q-13 10 -55 22q-35 10 -41 35q-7 29 20 50q11 9 25 13q21 7 51 -14q8 -6 12 -8q10 -7 31 -47
q12 -24 20 -11q20 43 18 59q-2 8 -7 21q-18 46 -79 63q-33 9 -60 0q-12 -4 -26 -12q-68 -42 -82 -89q-4 -14 -5 -30q-2 -46 6 -66q4 -9 13 -25q14 -26 57 -32q48 -6 64 -18q2 -2 4 -3q33 -26 39 -37q7 -11 7 -26q-3 -50 -42 -68q-10 -5 -21 -6q-29 -3 -67 53q-28 42 -35 46
q-10 6 -17 -8z" />
    <glyph glyph-name="t" unicode="t" horiz-adv-x="316" 
d="M283 448q20 -21 13 -49l-7 -18l-6 -7l-109 -1q-15 -5 -22 -16q1 -48 -1 -200l8 -57q7 -23 33 -31q6 0 44 14q16 6 24 4q22 -5 0 -40q-1 -2 -3 -5q-3 -5 -26 -25q-3 -2 -5 -4q-32 -11 -62 -8q-10 0 -24 3q-46 7 -76 56v291q-31 20 -35 24q-6 7 -10 15q-5 11 7 40l77 80
q6 7 19 22q18 3 25 -5q4 -3 8 -10q10 -16 8 -42q-2 -15 -1 -28q51 4 106 -2q7 0 15 -1z" />
    <glyph glyph-name="u" unicode="u" horiz-adv-x="438" 
d="M429 76l-30 23q-4 4 -22 28v283q2 5 16 18q9 8 7 16q-2 12 -24 20l-4 2q-33 14 -78 9q-5 0 -13 -1q-37 -5 -44 -8q-7 -4 -13 -11q-14 -16 -9 -33l3 -7q8 -13 39 -12q26 1 34 -10l1 -232v-2q-20 -49 -51 -59q-5 -2 -12 -3q-38 -6 -68 20q-12 11 -21 25v307q-8 17 -34 23
q-8 3 -19 1l-4 -1q-50 -13 -63 -23q-12 -8 -20 -22q-5 -8 -3 -16q1 -3 3 -7q5 -9 27 -16q14 -4 19 -13l1 -278v-2q11 -46 40 -72q24 -22 57 -23q23 -1 65 17q18 8 32 11l22 7q3 0 6 -1l28 -37q6 -6 18 -6q56 18 80 44q8 7 34 41z" />
    <glyph glyph-name="v" unicode="v" horiz-adv-x="428" 
d="M0 465q-12 -23 14 -52l9 -10l17 -7l70 -196q9 -27 19 -62q2 -8 6 -58q2 -29 15 -55q21 -23 51 -17q9 2 17 7q8 20 12 67q3 28 13 51q23 40 79 155q30 62 65 114l21 7q1 2 2 3q10 19 5 36q-2 10 -9 18q-16 19 -53 20l-19 1q-55 5 -78 -5q-5 -2 -9 -4q-18 -10 -13 -34
q2 -9 7 -17q4 -7 23 -6q13 1 17 -6q11 -17 0 -48l-7 -20q-22 -84 -25 -93q-13 -34 -40 -79q-3 -3 -2 -3q-5 0 -13 -1q-35 55 -39 109q-4 48 -6 61q-7 40 -6 49q0 6 1 14q1 5 15 3q10 -1 14 3q24 29 17 53q-2 10 -12 15q-28 14 -73 12q-8 0 -18 -1l-55 -2q-23 -4 -32 -22z
" />
    <glyph glyph-name="w" unicode="w" horiz-adv-x="659" 
d="M59 355q29 -61 56 -174q26 -108 65 -181q17 -8 39 10l7 7q42 70 52 94q8 19 29 81l22 25q9 8 18 7t22 -23l6 -9q22 -103 35 -132q11 -23 38 -60q14 -7 30 3q4 3 9 8q67 88 96 196l41 159q3 11 6 21l20 23q1 2 2 5q8 25 3 41q-2 9 -8 16q-11 13 -41 15h-5q-41 3 -53 -3
q-9 -4 -15 -12q-7 -9 -3 -21q1 -3 3 -7q4 -8 18 -23l8 -13l2 -6q8 -25 -5 -65l-8 -26l-19 -60q-11 -22 -33 -32l-22 -8q-42 31 -43 33q-2 2 -17 41q-2 5 -4 11l-7 88q1 12 3 18q5 13 26 27q15 9 21 20q8 14 3 28q-2 7 -8 12q-21 12 -49 4l-14 -4q-8 -2 -15 -19
q-7 -15 -12 -26q-7 39 -8 41l-5 4q-34 12 -58 6l-27 -12q-3 -1 -6 -3q-10 -12 -4 -30q1 -4 4 -10q7 -15 31 -30q18 -11 26 -25q11 -18 -4 -78q-10 -40 -22 -50l-50 -33q-31 36 -47 90q-21 73 -38 114q3 4 18 3q8 -1 11 3q0 29 -5 32l-11 8q-44 20 -100 11q-6 -2 -25 -5
q-25 -16 -23 -52v-5q26 -25 36 -49z" />
    <glyph glyph-name="x" unicode="x" horiz-adv-x="494" 
d="M34 406q-10 12 -5 41q2 14 7 21l75 21q12 2 33 2q57 0 74 -10q10 -5 15 -13q10 -14 7 -29q-2 -8 -7 -16q-2 -4 -18 -5l-8 -4l-2 -3l19 -53q5 -9 15 -15q15 -9 32 -6q6 1 13 4q19 7 27 19q15 23 26 36q5 18 -1 27q-3 3 -19 8q-8 3 -10 9q-6 22 22 40q2 2 7 5l49 6h8l54 -1
q16 -3 25 -18q9 -13 0 -39l-6 -14q-4 -8 -22 -5l-12 -1l-2 -2l-83 -87q-24 -26 -47 -57q20 -50 74 -106q53 -53 74 -81q11 -32 10 -39q0 -7 -5 -14q-29 -14 -68 -16l-17 -2q-71 -6 -103 0q-8 7 -5 40q1 8 23 7q21 0 24 7q4 8 -5 37q-1 4 -2 6q-5 23 -26 33q-3 1 -14 6
q-15 1 -42 0q-4 -4 -24 -17q-10 -7 -21 -27l-6 -14l2 -15q5 -5 24 -2q11 2 16 -4q7 -9 -6 -34q-7 -13 -33 -21q-4 -1 -7 -2q-69 -6 -89 -3q-9 1 -19 3q-23 8 -29 19q-3 4 -5 10q-15 33 -5 51q2 3 5 6q10 12 40 8q22 -3 34 3q66 66 83 90q9 15 25 42q-39 84 -42 89
q-15 26 -43 64q-16 11 -49 11q-19 0 -35 4z" />
    <glyph glyph-name="y" unicode="y" horiz-adv-x="491" 
d="M112 -104q-12 -6 -38 4q-18 7 -30 1q-25 -11 -31 -32q-3 -8 -4 -19q-15 -37 -5 -59q2 -5 5 -9q49 -36 80 -34q12 1 28 7q131 239 246 484q47 100 78 165l29 8l2 4q13 25 -2 51q-5 9 -13 18q-21 12 -66 10q-56 -3 -91 -21q-13 -15 -9 -33q2 -10 9 -18q4 -5 20 -3
q9 2 14 -3q10 -11 6 -39l-1 -6q-7 -63 -38 -126l-18 -34q-21 -16 -41 -10q-6 2 -11 5q-38 87 -48 141q-1 8 -3 18l-6 31q1 8 6 14t23 2q12 -2 17 4q14 18 5 40q-4 9 -11 17q-20 23 -67 20l-24 -2q-47 -2 -64 -9q-15 -6 -38 -20q-15 -17 -8 -33q1 -1 2 -4q12 -28 42 -35
q7 -2 17 -3q60 -120 85 -230q6 -26 13 -61q10 -51 5 -74q0 -3 -1 -6q-14 -67 -27 -88q-11 -16 -28 -28q-4 -2 -9 -5z" />
    <glyph glyph-name="z" unicode="z" horiz-adv-x="466" 
d="M35 301q-15 3 -15 31q0 14 -1 19q-6 46 -1 83q2 18 7 36q38 5 77 1q9 -1 19 -1l192 7q42 -1 87 -7q18 -18 5 -58l-5 -16l-199 -261q-2 -13 2 -22l7 -10l2 -2q52 -10 64 -8q3 1 31 8q31 15 56 62q24 46 41 59q32 -9 38 -67l2 -18q6 -71 -10 -99q-8 -15 -24 -27
q-13 0 -158 -2h-42l-116 -2q-35 2 -94 10q-8 12 15 51l179 214q23 28 49 65q14 35 13 44q0 11 -8 19q-27 31 -83 13q-11 -4 -25 -10q-27 -11 -48 -47q-24 -41 -44 -56q-6 -5 -13 -9z" />
    <glyph glyph-name="braceleft" unicode="{" horiz-adv-x="256" 
d="M47 383l56 -44q31 -29 37 -67q5 -29 -20 -67q-12 -18 -15 -23q-33 -54 -18 -114q10 -37 38 -60q27 -22 61 -10q17 6 29 19q4 4 4 9t-4 9q-7 8 -32 2q-18 -5 -25 4q-30 40 -11 89l35 83q12 32 15 65q5 47 -33 78q-16 12 -39 21q75 34 70 94q-2 14 -7 32q-8 25 -42 83
q-28 49 -17 83q2 7 5 14q6 12 33 14q24 1 30 13q5 10 0 20q-3 7 -9 10q-35 17 -73 -16q-10 -8 -20 -20q-41 -49 -17 -122q6 -19 17 -40l38 -57q9 -19 4 -36q-10 -37 -26 -46q-3 -2 -59 -19q-3 0 -5 -1z" />
    <glyph glyph-name="bar" unicode="|" horiz-adv-x="255" 
d="M195 39q-19 80 -15 242q2 86 2 121q0 180 -12 239q-12 60 -38 73q-22 11 -49 4q-16 -4 -15 -15q0 -3 2 -7q0 -145 7 -471q1 -78 1 -176q-5 -12 25 -23q47 -18 78 -7q18 5 14 20zM195 39q-19 80 -15 242q2 86 2 121q0 180 -12 239q-12 60 -38 73q-22 11 -49 4
q-16 -4 -15 -15q0 -3 2 -7q0 -145 7 -471q1 -78 1 -176q-5 -12 25 -23q47 -18 78 -7q18 5 14 20z" />
    <glyph glyph-name="braceright" unicode="}" horiz-adv-x="256" 
d="M219 357l-56 44q-31 29 -37 67q-5 29 20 67q12 18 15 23q33 54 18 114q-10 37 -38 60q-27 22 -61 10q-17 -6 -29 -19q-4 -4 -4 -9t4 -9q7 -8 32 -2q18 5 25 -4q30 -40 11 -89l-35 -83q-12 -32 -15 -65q-5 -47 33 -78q16 -12 39 -21q-75 -34 -70 -94q2 -14 7 -32
q8 -25 42 -83q28 -49 17 -83q-2 -7 -5 -14q-6 -12 -33 -14q-24 -1 -30 -13q-5 -10 0 -20q3 -7 9 -10q35 -17 73 16q10 8 20 20q41 49 17 122q-6 19 -17 40l-38 57q-9 19 -4 36q10 37 26 46q3 2 59 19q3 0 5 1z" />
    <glyph glyph-name="asciitilde" unicode="~" horiz-adv-x="346" 
d="M122 404q15 -1 44 -18l18 -9l33 -16q7 -2 14 -1q13 1 29 22q14 18 27 18q34 -1 42 -25q1 -4 1 -7q1 -10 -16 -20l-10 -6l-43 -36q-18 -11 -39 -12q-23 -2 -53 25q-31 26 -54 25q-14 0 -33 -21q-16 -18 -31 -15q-28 4 -34 30q-1 4 -1 9q1 16 25 30q9 6 11 7q37 22 70 20z
" />
    <glyph glyph-name="uni007F" horiz-adv-x="1597" 
d="M1372 532q4 -9 22 -23q7 -5 12 -11q12 -14 33 6q8 8 11 18q5 17 -18 39q-25 23 -25 38q0 2 1 5q1 6 15 13q9 4 11 11q3 10 2 17q-2 7 -8 10q-11 7 -34 -6q-8 -5 -13 -7l-26 -16h-1q-20 -6 -70 -2l-59 1l-19 7q-6 3 -11 8q-8 7 -9 30q0 8 -2 14l-3 28l-5 4q-1 1 -2 1
q-11 1 -16 -15l-6 -19l-9 -37l-2 -4q-15 -21 -53 -42l-32 -19l-11 -10l-49 -46q-20 -22 -26 -51q-10 -47 -13 -115l-1 -23l-3 -103q-1 -19 25 -32q24 -12 30 -16q4 -3 57 -35l18 -12l35 -24q18 -14 27 -25q7 -9 21 10q9 13 14 17l20 18q1 0 2 1q7 4 36 9q10 1 18 5
q36 17 37 18q6 5 -1 9q-15 6 -39 1l-15 -1l-38 -5q-6 1 -7 8q-3 47 -1 115q1 46 4 91q5 67 20 147q8 43 91 38q16 -1 33 -4q16 -3 32 -34zM772 516l-27 92q-4 12 -9 22l-35 80q-18 34 -49 55q-37 26 -99 27l-37 1q-37 1 -70 -7l-24 -7q-69 -21 -140 -65q-90 -56 -137 -104
l-25 -27q-38 -42 -66 -105q-16 -34 -21 -70q-13 -88 -5 -147q1 -10 3 -21q14 -79 24 -101q11 -26 33 -49q36 -38 102 -55l48 -11q67 -17 167 -15q28 1 31 1l61 1q17 2 33 9q48 20 83 62q8 9 21 26l94 123l29 60q2 2 3 1q8 -6 27 -85q16 -70 31 -84q57 -54 111 -76
q10 -4 21 -8q85 -29 189 -26q18 1 57 3q87 5 125 17q17 6 35 15q34 16 67 56q2 2 7 8q61 72 74 93q25 40 36 89l31 139q12 71 -5 149q-15 68 -48 111q-5 7 -12 15q-37 43 -88 62l-8 3q-71 25 -159 20l-35 -3q-53 -4 -124 -32q-89 -35 -143 -74q-5 -4 -11 -8
q-64 -49 -146 -188q-5 -8 -8 -14q-2 -3 -4 8zM812 376q8 74 61 144q1 1 51 62q41 50 101 88q6 4 13 8q75 46 127 59q13 3 27 6q95 17 149 6q21 -4 45 -13q52 -19 76 -58l4 -6q43 -74 41 -169q0 -23 -3 -69q-8 -123 -50 -210q-12 -26 -30 -56q-28 -47 -66 -71l-8 -5
q-40 -23 -103 -29l-13 -1q-35 -3 -92 8q-90 17 -102 21q-31 9 -60 27q-70 42 -110 101q-11 15 -22 35q-34 58 -37 94q-1 13 1 28zM346 64q-57 2 -124 29q-56 23 -66 29q-17 11 -30 28q-41 53 -47 131q-1 15 -3 49q-2 49 6 80q5 21 16 44q29 61 87 113q10 10 33 29
q79 67 119 89q35 18 77 29q64 17 107 7q13 -3 27 -9q47 -19 80 -66l14 -20q29 -44 46 -119q7 -30 10 -43l21 -81q5 -27 1 -55q-8 -56 -48 -111q-5 -7 -12 -16q-48 -63 -91 -89q-16 -10 -35 -19q-68 -31 -152 -30q-15 0 -36 1zM340 606q22 1 84 0l72 -4h2q35 2 51 7
q8 3 37 21q3 2 6 3q4 3 8 -8q2 -5 4 -7l10 -14v-6q-1 -3 -12 -7q-4 -1 -6 -4q-4 -6 -2 -14q3 -8 22 -16q13 -6 14 -15q1 -8 -14 -22q-16 -16 -32 -18q-13 -2 -43 9q-13 5 -24 5q-51 3 -96 -5q-21 -4 -34 -9q-11 -5 -3 -26q4 -11 5 -17l4 -48q2 -21 36 -14q45 9 55 8
q5 -1 55 2q37 3 44 -21q2 -9 -13 -16l-16 -10l-19 -29l-9 -6q-13 -5 -39 3l-19 5l-36 8q-7 0 -13 -4q-15 -11 -14 -42v-20q-5 -56 -4 -68q2 -13 7 -27q3 -9 -14 -19q-7 -5 -10 -7l-20 -19q-6 -3 -13 -3q-11 0 -26 17l-11 11l-33 29q-7 5 -16 7q-13 2 -41 -14
q-18 -10 -30 -23l-8 -21l-4 -2q-5 0 -10 10q-3 4 -5 6l-16 6q-1 2 0 3q10 39 43 60q2 2 5 4q23 15 74 18q25 2 39 6q15 4 12 33q-1 12 0 17q1 35 -7 50q-7 12 -21 17q-6 1 -31 -2l-35 -10l-8 3q-1 2 -3 3q-4 7 7 20q3 4 5 7q17 28 25 34q2 2 5 3q7 5 25 7l17 -2l2 1
q16 14 12 50q-4 27 -1 40l3 67q4 18 21 19zM1126 202q-3 -16 -36 5q-14 9 -18 11l-39 19q-14 9 -12 24q2 16 8 119l2 28q8 89 13 125q2 12 23 19q11 3 16 6l24 14q5 1 11 0q20 -4 22 -22q2 -15 1 -52q-1 -36 -6 -143l-5 -119q-1 -17 -4 -34z" />
    <glyph glyph-name="nonbreakingspace" unicode="&#xa0;" horiz-adv-x="474" 
 />
    <glyph glyph-name="exclamdown" unicode="&#xa1;" horiz-adv-x="301" 
d="M180 500l27 -167q1 -13 3 -31q13 -138 10 -262v-17q-37 -32 -75 -18q-20 7 -37 27q-4 86 6 246q2 38 3 69l1 105q2 26 8 66q18 12 41 -6q7 -5 13 -12zM117 725q27 16 54 8q15 -5 27 -17q28 -28 19 -62q-3 -10 -10 -19q-17 -22 -49 -16q-11 2 -23 7q-32 15 -36 54
q-2 19 4 30q5 9 14 15z" />
    <glyph glyph-name="cent" unicode="&#xa2;" horiz-adv-x="314" 
d="M199 265q12 1 22 7q17 9 28 40q6 18 24 10q14 -5 13 -18q-2 -38 -6 -44q-1 -2 -7 -10q-11 -15 -45 -26q-13 -3 -30 -3h-5l-8 -81q-19 -31 -35 -22q-2 1 -4 3q-6 64 -6 101q-4 0 -7 1q-30 8 -52 28q-37 36 -45 74q-10 40 -6 72q2 16 8 37q16 57 43 83l12 10q20 15 39 23
l1 90q25 45 56 31q13 -6 24 -21l1 -93q27 -2 50 -26q25 -24 21 -53q-5 -18 -21 -19q-10 -1 -23 15q-5 7 -9 10l-19 16q-1 -51 -7 -148q-3 -50 -7 -87zM133 493q-11 -10 -20 -34q-20 -52 -15 -95q1 -5 2 -11q6 -45 32 -69q4 -4 8 -6v26z" />
    <glyph glyph-name="sterling" unicode="&#xa3;" horiz-adv-x="708" 
d="M197 321q-90 0 -132 39q-18 16 -7 43q6 12 16 20q31 24 101 24h26l6 85q-1 24 -7 45q-4 15 -30 40q-22 20 -20 40q6 56 72 72q113 27 204 -24q43 -25 82 -68q25 -28 31 -63v-15q-1 -6 -6 -7h-8q-59 14 -100 54l-21 18q-18 12 -46 5q-22 -6 -32 -43q1 -72 2 -126l43 -1
l60 -5q24 -4 39 -22q29 -33 17 -60q-3 -7 -8 -12q-33 -33 -117 -35q-9 0 -34 -1q-1 -27 -25 -86q-31 -73 -35 -143q117 -29 183 -18q44 7 107 35q1 23 -9 79q-6 31 0 61q5 24 44 20q48 -5 58 -3q20 -100 18 -140q0 -26 -9 -105l-56 13q-2 1 -4 1l-264 -16q-106 -2 -295 16
q-17 18 -15 28q1 6 23 43h65q5 2 17 12q56 47 64 149q0 11 2 51z" />
    <glyph glyph-name="currency" unicode="&#xa4;" horiz-adv-x="314" 
d="M217 441q6 8 15 18q-1 3 -12 4l-6 3v1q-2 5 2 9q1 2 4 3l41 1q3 0 25 -8q4 -5 1 -11q-1 -4 -4 -7q-2 -2 -12 1l-6 -1q-19 -19 -30 -33q4 -6 8 -13q7 -17 9 -46l-1 -35q-2 -7 -4 -16q-6 -18 -11 -27q11 -13 29 -32l17 1l1 -1q7 -6 5 -14l-2 -4q-27 -9 -36 -8q-14 1 -30 1
q-8 4 -6 12q1 3 12 5q5 1 6 4q-8 9 -14 16q-6 -4 -19 -9q-6 -1 -29 -1l-14 -1l-13 2q-15 4 -24 11l-6 -11q0 -1 1 -2q1 -3 12 -2q4 0 5 -3q2 -6 -9 -15q-4 -3 -6 -6l-61 -1q-6 0 -14 1l-14 13q-1 3 -1 5q0 9 15 15q3 2 17 -2q6 -2 10 2l26 32q-6 10 -9 23q-6 23 -4 42
q2 10 5 22q6 20 12 31l-30 36q-3 4 -17 0q-6 -1 -10 0q-15 6 -15 15q0 5 11 14l4 4q16 3 60 1q7 -1 15 -1l14 -14q2 -3 1 -7q-1 -2 -11 -2q-5 1 -6 -2q-2 -3 5 -14l2 -4q24 18 59 17q24 -1 37 -12zM124 328q7 -24 18 -37q8 -8 27 -10q17 -2 26 3q7 4 17 26q1 3 2 5
q6 21 5 41q0 5 -2 13q-2 16 -4 21q-15 27 -33 34q-12 2 -22 -1q-5 -2 -11 -5q-9 -6 -19 -33l-3 -8q-5 -17 -4 -32l2 -13z" />
    <glyph glyph-name="yen" unicode="&#xa5;" horiz-adv-x="759" 
d="M449 337h5q57 -5 73 -14q5 -3 9 -6q27 -22 17 -42q-3 -6 -9 -12q-29 -25 -105 -27q4 1 -29 0q-4 -37 -4 -43h44h4q57 -5 73 -14q5 -3 9 -6q27 -22 17 -42q-3 -6 -9 -12q-29 -25 -106 -27q9 1 -29 0q2 -11 3 -24q2 -16 30 -8q36 9 47 0q18 -17 13 -35q-1 -4 -4 -8
q-142 -14 -172 -13q-17 1 -135 10q-14 16 -3 37q4 8 11 14q13 12 48 4q33 -9 46 5l1 16q-63 2 -96 29q-17 14 -7 32q5 8 15 15q26 18 90 18h5q1 23 1 50q-70 1 -104 29q-17 14 -7 32q5 8 15 15q25 17 75 18q-29 54 -106 163q-48 67 -81 123q-10 6 -36 -2q-16 -5 -24 2
q-28 25 -18 58q3 11 10 19q106 9 150 7q37 -2 134 2q27 -19 20 -43q-1 -4 -3 -8q-9 -15 -42 -9l-27 2l-10 -4l-6 -7q21 -55 79 -182q28 -60 46 -117l9 1l173 281q-7 3 -49 10q-29 4 -36 25q-8 20 10 39q6 6 15 12l109 8l122 -8q20 -17 13 -40l-5 -11q-13 -19 -50 -13
q-43 6 -61 -5l-116 -211q-26 -44 -52 -83z" />
    <glyph glyph-name="brokenbar" unicode="&#xa6;" horiz-adv-x="255" 
d="M182 442l-47 -9q-3 0 -63 -3q-2 110 -2 266q-10 19 20 23q24 4 42 -5q48 -24 50 -235v-37zM181 307q-5 -165 7 -235q3 -17 7 -33q5 -20 -27 -23q-41 -4 -76 15q-18 9 -14 18q0 119 -3 257q15 -3 91 1h5h10z" />
    <glyph glyph-name="section" unicode="&#xa7;" horiz-adv-x="643" 
d="M298 351q32 -67 64 -95q17 -15 44 -31q33 -35 42 -59l17 -55q6 -19 -23 -11q-30 7 -54 26q-6 5 -12 25q-2 9 -6 14q-9 12 -41 30q-23 12 -31 30q-20 44 -21 101q-1 37 14 30q3 -1 7 -5zM319 621q14 6 31 -15q19 -22 32 -21q46 4 60 35q4 9 3 19q-3 58 -92 68q-3 1 -7 1
q-50 4 -84 -20l-19 -17l-14 -17q-21 -31 -9 -88q11 -57 6 -81q-2 -9 -6 -17q-10 -25 -50 -49q-37 -22 -46 -41l-6 -18q-9 -65 32 -113q19 -21 46 -37q65 -38 99 -92l42 -73q42 -70 51 -119q2 -12 3 -25l5 -41l-3 -13l-7 -7l-4 -2q-15 -6 -31 16q-17 24 -28 28l-4 1
q-37 9 -58 1q-11 -4 -20 -13q-21 -19 -15 -42q1 -5 3 -9q29 -58 116 -55q5 1 10 1q85 6 117 72q28 57 1 123q-7 18 -19 39q49 63 60 92q14 33 12 70q-3 62 -51 124l-59 74q-4 4 -7 9q-15 23 -61 62q-44 38 -54 76l-2 6q-13 58 2 86q8 15 25 22z" />
    <glyph glyph-name="dieresis" unicode="&#xa8;" horiz-adv-x="418" 
d="M271 331q39 -10 67 1q19 8 32 26q24 30 12 71q-4 13 -12 28q-23 45 -63 45q-39 0 -63 -45q-17 -34 -9 -70l9 -29q10 -22 27 -27zM71 331q39 -10 67 1q19 8 32 26q24 30 12 71q-4 13 -12 28q-23 45 -63 45q-39 0 -63 -45q-17 -34 -9 -70l9 -29q10 -22 27 -27z" />
    <glyph glyph-name="copyright" unicode="&#xa9;" horiz-adv-x="432" 
d="M170 394q-23 -15 -36 -51l-2 -4q-28 -72 -21 -132q1 -8 2 -17q9 -60 39 -91l6 -6q17 -16 56 -22q5 -1 7 -1q39 -5 54 2l8 4q23 13 36 48q1 2 3 9q23 61 18 119q-1 12 -3 26q-8 56 -39 96q-23 28 -49 34q-30 7 -54 -1q-12 -5 -25 -13zM225 5q-46 -2 -61 2q-2 0 -4 1
q-42 11 -73 39q-49 47 -61 93q-2 5 -3 10q-14 57 -8 102q3 23 11 51q21 75 54 109q10 11 24 22q56 44 128 44h15q48 -2 68 -14q13 -8 29 -24q37 -37 51 -65q1 -2 2 -5q18 -38 21 -101v-7q2 -47 -1 -72q-2 -22 -10 -48q-19 -60 -43 -88l-8 -8q-22 -23 -63 -37q-21 -5 -68 -4z
M291 287q-7 -1 -17 12q-3 4 -6 6l-18 15l-6 2q-15 3 -27 -1q-6 -2 -13 -6q-11 -8 -19 -28q-14 -36 -10 -66q0 -4 1 -8q4 -32 22 -49q9 -8 32 -11q22 -3 31 3q12 6 19 28q5 13 18 7q5 -3 7 -7q2 -3 1 -6q-1 -27 -5 -32q-1 -1 -4 -5q-8 -11 -31 -19q-8 -2 -34 -2q-24 -1 -33 2
q-21 5 -36 19q-26 26 -32 52q-7 28 -4 51q1 11 5 25q12 44 39 66q30 23 72 22q28 -2 42 -13l6 -6q18 -18 15 -37q-4 -14 -15 -14z" />
    <glyph glyph-name="ordfeminine" unicode="&#xaa;" horiz-adv-x="280" 
d="M36 230q-10 14 -4 32q2 8 9 15q16 18 54 18q23 0 33 2q46 8 47 8q7 0 14 -1q34 -5 44 -14l6 -6q16 -22 10 -42l-6 -12q-17 -25 -63 -27h-25q-62 -3 -71 -1q-31 4 -48 28zM160 424q-1 13 -11 18q-4 2 -14 -1q-8 -2 -19 -9q-14 -9 -18 -15q-6 -7 -6 -13q1 -25 15 -31
q2 -2 15 4q21 9 26 15q13 15 12 32zM127 532q-15 -4 -20 -11q-5 -6 -6 -29q-1 -16 -19 -18q-6 -1 -11 0q-16 5 -14 28q4 26 19 39q19 16 57 17l22 -1q7 -2 13 -7q17 -11 21 -32q2 -12 3 -80l2 -48q1 -9 2 -11q7 -2 17 11q8 10 14 7q4 -2 3 -18q-2 -25 -11 -34q-4 -4 -20 -5
q-17 -1 -26 3q-1 1 -11 12l-7 9l-3 1q-6 0 -19 -11q-3 -3 -6 -5q-16 -9 -18 -10q-22 -4 -34 1q-3 1 -7 3q-11 8 -15 26q-4 16 -2 29q1 7 5 15q4 12 20 25q15 13 41 23l27 6l4 2q4 3 6 13l1 19q0 3 -1 7q-3 19 -9 23q-5 3 -18 1z" />
    <glyph glyph-name="guillemotleft" unicode="&#xab;" horiz-adv-x="512" 
d="M232 431q38 7 64 2q22 -4 35 -17q11 -9 0 -29q-4 -6 -8 -10q-4 -6 -29 -4l-14 -1l-2 -1l-110 -69q-26 -18 -52 -39q24 -38 92 -79q66 -41 93 -62q13 -22 13 -26q0 -7 -7 -13q-35 -10 -92 -13q-7 0 -14 -1q-41 -2 -78 43q-13 17 -20 34q-2 5 -43 46q-61 62 -37 76
q29 35 103 92l53 49q22 16 53 22zM432 431q38 7 64 2q22 -4 35 -17q11 -9 0 -29q-4 -6 -8 -10q-4 -6 -29 -4l-14 -1l-2 -1l-110 -69q-26 -18 -52 -39q24 -38 92 -79q66 -41 93 -62q13 -22 13 -26q0 -7 -7 -13q-35 -10 -92 -13q-7 0 -14 -1q-41 -2 -78 43q-13 17 -20 34
q-2 5 -43 46q-61 62 -37 76q29 35 103 92l53 49q22 16 53 22z" />
    <glyph glyph-name="logicalnot" unicode="&#xac;" horiz-adv-x="346" 
d="M33 226q-14 20 -6 43q4 11 12 20q21 24 68 24q36 1 49 3l57 10q12 1 24 -1q42 -6 54 -15q7 -5 12 -12q29 -41 21 -104q-10 -77 -10 -81q-1 -22 -41 -27q-17 -2 -31 2l-16 7l-4 4q-17 24 -21 73q-1 18 -9 18q-79 -3 -83 -3q-50 4 -76 39z" />
    <glyph glyph-name="softhyphen" unicode="&#xad;" horiz-adv-x="346" 
d="M33 183q-14 20 -6 43q4 11 12 20q21 24 68 24q36 1 49 3l57 10q12 1 24 -1q42 -6 55 -15l11 -12q22 -30 13 -57q-2 -8 -7 -15q-22 -32 -77 -35q55 3 -40 -1q-79 -3 -83 -3q-50 4 -76 39z" />
    <glyph glyph-name="registered" unicode="&#xae;" horiz-adv-x="432" 
d="M166 112q-6 2 -9 11l-1 9q0 1 1 2q2 5 15 12q6 3 8 8l1 122q-3 6 -18 14q-11 6 -11 14q20 31 26 35q5 4 14 7q9 4 18 1q4 -1 8 -3q8 -8 15 -10q3 -1 7 -4l26 19q6 3 14 3q24 -2 34 -38q2 -10 -1 -19q-2 -4 -5 -9q-11 -15 -23 -14q-6 1 -11 15q-3 9 -9 11q-17 -12 -31 -22
v-110q1 -3 9 -8l5 -6q4 -9 2 -16l-4 -10zM171 394q32 21 66 16q6 0 13 -2q25 -5 49 -34q30 -39 39 -96q8 -56 -1 -97q-4 -22 -14 -48q-13 -39 -30 -51q-4 -3 -9 -6q-19 -12 -55 -7q-5 1 -7 1q-42 6 -56 17q-3 3 -7 6q-35 32 -44 88q0 4 -1 9q-9 58 5 109q5 17 14 40
q14 38 35 53q1 1 3 2zM226 5q50 0 60 2l8 2q41 14 63 37q30 31 48 86q1 4 3 10q13 45 12 96q0 9 -1 24q-3 66 -17 100l-4 8q-14 31 -53 70q-33 33 -70 36q-7 1 -27 2q-58 2 -97 -16q-22 -10 -46 -28q-48 -37 -69 -100q-4 -13 -9 -31q-17 -57 -12 -105q3 -22 9 -48
q12 -51 58 -97l6 -6q31 -28 73 -39q17 -5 65 -3z" />
    <glyph glyph-name="macron" unicode="&#xaf;" horiz-adv-x="346" 
d="M33 393q-14 20 -6 43q4 11 12 20q21 24 68 24q36 1 49 3l57 10q12 1 24 -1q42 -6 55 -15l11 -12q22 -30 13 -57q-2 -8 -7 -15q-22 -32 -77 -35q55 3 -40 -1q-79 -3 -83 -3q-50 4 -76 39z" />
    <glyph glyph-name="degree" unicode="&#xb0;" horiz-adv-x="264" 
d="M109 518q16 10 33 8q3 0 7 -1q12 -3 24 -17q15 -20 20 -48q4 -28 -1 -49q-2 -11 -7 -24q-8 -22 -19 -28q-10 -6 -31 -3q-24 3 -32 11q-18 17 -22 49q-5 29 2 54q3 9 7 20q7 20 19 28zM137 323q26 0 34 2q20 7 31 19q15 16 26 48q6 22 5 48v12q-2 35 -10 54q-7 15 -27 35
q-17 17 -42 18q-1 0 -6 1q-29 1 -49 -8q-11 -5 -23 -14q-26 -20 -39 -66q-8 -28 -6 -52l5 -24q6 -26 32 -52q15 -14 36 -19q8 -3 33 -2z" />
    <glyph glyph-name="plusminus" unicode="&#xb1;" horiz-adv-x="346" 
d="M227 433q5 0 10 -1q42 -6 55 -15l11 -12q22 -30 13 -57q-2 -8 -7 -15q-21 -31 -71 -35q-5 -42 -15 -54l-11 -12q-30 -21 -58 -13q-7 3 -14 7q-31 21 -35 69q-47 4 -72 38q-14 20 -6 43q4 11 12 20q20 23 61 24q2 56 40 82q19 15 42 7q11 -4 20 -13q24 -20 25 -63zM33 102
q-14 20 -6 43q4 11 12 20q21 24 68 24q36 1 49 3l57 10q12 1 24 -1q42 -6 55 -15l11 -12q22 -30 13 -57q-2 -8 -7 -15q-22 -32 -77 -35q55 3 -40 -1q-79 -3 -83 -3q-50 4 -76 39z" />
    <glyph glyph-name="twosuperior" unicode="&#xb2;" horiz-adv-x="280" 
d="M191.5 419q22.5 9 34.5 5q6 -1.5 13.5 -7q-9 -37.5 -11.5 -41.5l-24.5 -29q-83.5 -4 -97 -3.5q-20.5 1 -60.5 2q-8 0 -3.5 14q1.5 4 3.5 7q19.5 31.5 52.5 62q29 27 42.5 48.5q4.5 7 8.5 15q13 25 6 42q-2 5 -6 9.5q-12 13.5 -35 7.5q-4.5 -1 -10 -3q-14 -5 -25 -19.5
q-13.5 -17.5 -24.5 -27q-11 19.5 -7.5 27q0.5 0.5 6 8.5q20 29.5 33 37q7.5 4.5 22.5 9.5q43.5 15 64 10q14.5 -3.5 26 -14.5q22.5 -22 13.5 -65l-4.5 -17q-6 -21 -28 -41.5q-22.5 -21 -30.5 -33l-5.5 -19l-3.5 -9l28 1l-13.5 -1q0 -0.5 33.5 0q1.5 1 0 13q-0.5 8.5 3 12z
" />
    <glyph glyph-name="threesuperior" unicode="&#xb3;" horiz-adv-x="280" 
d="M75 365q-14 10 -2.5 39q1 2 2.5 6q18.5 20.5 49.5 48.5q15 14 31.5 32.5q8.5 9.5 -2 24q-3 4 -7 7.5q-9.5 8 -22 6.5q-4.5 -0.5 -9.5 -2q-12.5 -4 -22.5 -20l-10.5 -13.5q-4.5 -5.5 -10.5 -8.5l-6 -3q-9.5 -3.5 -6 19q0.5 4 1.5 8q9.5 42 50 70.5l27.5 12.5q0.5 0.5 12 2
q8 1 27 -4.5q12.5 -3.5 23 -8.5q18 -17.5 12 -55.5q-1 -5.5 -3 -15q-3.5 -17.5 -22.5 -41.5q-13.5 -16.5 -18 -27.5q3.5 -7 17.5 -6q13.5 1.5 18.5 -3q16 -13 21 -40l1.5 -9.5q6 -36.5 1 -62.5q-3 -14.5 -10 -32q-14.5 -35.5 -32.5 -50q-6.5 -5.5 -15.5 -10
q-52.5 -27.5 -81 -22q-16 2.5 -28.5 14.5q-17.5 16.5 -12 41q3 13 12 22q14.5 1.5 27.5 0q5.5 -0.5 17.5 0q4 -3 4.5 -14.5q0 -8.5 4.5 -11q11 -6 24.5 2.5q3 2 7 5q24 19.5 30 53.5q0.5 5.5 1.5 12.5q3 24.5 -4 35.5q-2 3.5 -5 6.5q-11.5 11.5 -36 9.5q3 0.5 -9 -0.5
q-9 -0.5 -21 -9q-11.5 -7.5 -28.5 -9z" />
    <glyph glyph-name="acute" unicode="&#xb4;" horiz-adv-x="288" 
d="M244 683q-53 27 -75 25q-16 -1 -31 -10q-32 -47 -51 -109l-14 -45q-16 -44 -29 -94q-4 -13 48 -15q48 -1 55 10q3 4 35 106q37 118 62 132z" />
    <glyph glyph-name="mu" unicode="&#xb5;" horiz-adv-x="438" 
d="M429 76l-30 23q-4 4 -22 28v283q2 5 16 18q8 8 7 16q-2 12 -24 20l-4 2q-33 13 -71 10l-20 -2q-37 -4 -45 -9q-7 -4 -12 -10q-14 -17 -9 -33q1 -4 3 -7q8 -13 39 -12q26 1 34 -10l1 -232v-2q-21 -52 -57 -61q-3 0 -6 -1q-38 -6 -68 20q-12 11 -21 25v307q-7 15 -34 23
q-9 3 -17 1q-2 0 -6 -1q-51 -13 -65 -24l-14 -15l-4 -6q-4 -7 -3 -15q1 -4 3 -8q5 -9 27 -16q14 -4 19 -13l1 -278v-2q1 -2 -3 -132q-7 -224 35 -221q11 0 25 14q28 28 21 97q-8 72 -5 92q4 32 24 55q17 20 59 23q25 2 38 5l23 7q2 0 5 -1l28 -37q6 -6 18 -6q56 18 80 44
q8 7 34 41z" />
    <glyph glyph-name="paragraph" unicode="&#xb6;" horiz-adv-x="697" 
d="M349 420zM361 662q-46 14 -73 6l-19 -6q-51 -18 -71 -53q-1 -3 -3 -6q-19 -39 -12 -76q3 -16 12 -35q13 -28 50 -45q3 -1 7 -3l54 -26q31 -11 55 9q10 87 6 158q-2 29 -6 77zM532 0l-4 85q2 140 2 157l-8 367v49l-49 5l-1 -255q2 -82 5 -135l2 -179q-3 0 -1 -67
q2 -30 -2 -30l-205 3q-32 26 -24 62q2 8 6 15q13 23 53 26q34 3 47 7q7 106 8 223l-112 1q-25 3 -50 13q-79 32 -121 84q-10 14 -21 30q-29 45 -26 96v6q5 63 35 95l8 8q73 66 175 75q29 2 69 1t215 -8q22 36 46 24q12 -6 26 -26q33 -1 58 -2q25 -24 17 -54l-8 -14
q-27 -6 -64 -7q0 -139 -8 -346q-5 -112 -13 -211q40 8 59 4l6 -2q35 -30 29 -68q-2 -14 -12 -26q-2 0 -137 -6z" />
    <glyph glyph-name="periodcentered" unicode="&#xb7;" horiz-adv-x="304" 
d="M104 185q38 -10 66 1q19 8 33 26q23 30 11 71q-3 13 -11 28q-23 45 -63 45t-63 -45q-18 -34 -9 -70q2 -13 9 -29q9 -22 27 -27z" />
    <glyph glyph-name="cedilla" unicode="&#xb8;" horiz-adv-x="322" 
d="M132 -183q-28 -1 -44 5q-19 7 -22 25q-4 23 28 40q37 19 45 28q5 6 8 13q9 22 5 40q-1 7 -5 14q-7 15 -39 25q-29 10 -33 29q-6 54 3 81t33 45q30 22 74 8q10 -3 22 -8q34 -15 51 -54t10 -85q-1 -9 -4 -23q-15 -79 -50 -124q-7 -10 -16 -20q-31 -34 -58 -38z" />
    <glyph glyph-name="onesuperior" unicode="&#xb9;" horiz-adv-x="280" 
d="M81 340.5q-12 0 -7.5 19q2.5 10 7.5 17q2.5 3.5 13.5 2q9.5 -1.5 12 5.5l1.5 77l-1.5 -5.5q-0.5 0.5 1.5 80q-4 7.5 -14 5.5q-6.5 -1.5 -8.5 2q-10.5 16 -5.5 34q2.5 10 10 15.5h99q17.5 -14.5 13 -37q-1 -6.5 -4 -12.5q-1 -2 -7 -1.5q-5 1 -7 -6q2.5 -207 2 -40.5
q0 67.5 0 -114q1 -3 7.5 -3q3 0 4.5 -1.5q12 -15 11.5 -28q0 -7.5 -7 -7.5l-65.5 -1l10.5 0.5h-66.5z" />
    <glyph glyph-name="ordmasculine" unicode="&#xba;" horiz-adv-x="280" 
d="M115 539q16 11 33 9l6 -2q13 -2 25 -17q15 -19 19 -48q4 -27 0 -48q-2 -11 -7 -24q-8 -22 -20 -29q-9 -5 -31 -3q-23 4 -31 12q-18 17 -23 48q-4 29 3 54q2 9 7 21q7 20 19 27zM142 345q27 0 34 2q20 7 32 18q15 16 25 48q7 23 6 48v12q-2 35 -11 54q-7 16 -26 35
q-18 18 -43 19h-6q-29 1 -48 -7q-11 -5 -23 -15q-27 -20 -39 -65q-9 -29 -6 -53l4 -24q6 -26 32 -51q15 -14 37 -20q8 -2 32 -1zM36 247q-10 14 -4 32q2 8 9 15q16 18 54 18q23 0 33 2q46 8 47 8q7 0 14 -1q34 -5 44 -14l6 -6q16 -22 10 -42l-6 -12q-17 -25 -63 -27h-25
q-62 -3 -71 -1q-31 4 -48 28z" />
    <glyph glyph-name="guillemotright" unicode="&#xbb;" horiz-adv-x="512" 
d="M282 431q-38 7 -64 2q-22 -4 -35 -17q-11 -9 0 -29q4 -6 8 -10q4 -6 29 -4l14 -1l2 -1l110 -69q26 -18 52 -39q-24 -38 -92 -79q-66 -41 -93 -62q-13 -22 -13 -26q0 -7 7 -13q35 -10 92 -13q7 0 14 -1q41 -2 78 43q13 17 20 34q2 5 43 46q61 62 37 76q-29 35 -103 92
l-53 49q-22 16 -53 22zM82 431q-38 7 -64 2q-22 -4 -35 -17q-11 -9 0 -29q4 -6 8 -10q4 -6 29 -4l14 -1l2 -1l110 -69q26 -18 52 -39q-24 -38 -92 -79q-66 -41 -93 -62q-13 -22 -13 -26q0 -7 7 -13q35 -10 92 -13q7 0 14 -1q41 -2 78 43q13 17 20 34q2 5 43 46q61 62 37 76
q-29 35 -103 92l-53 49q-22 16 -53 22z" />
    <glyph glyph-name="onequarter" unicode="&#xbc;" horiz-adv-x="560" 
d="M75 339q-14 0 -7 23q3 8 7 13q2 3 15 2q8 -1 10 5l2 152q-4 7 -16 5q-5 -1 -7 2q-10 16 -6 34q3 10 11 16h99q17 -14 13 -37q-1 -6 -4 -13q-1 -1 -8 -1q-5 0 -6 -6q2 -228 2 -40q0 45 0 -115q1 -3 8 -3q2 0 4 -1q15 -19 11 -31l-4 -4l-3 -1h-121zM269 367q20 23 47 65
q13 19 32 40q-1 5 -15 6q-9 1 -11 6q-2 7 3 13q2 3 6 4l57 2q5 -1 37 -12q5 -7 2 -17q-2 -5 -6 -8t-17 0q-5 2 -9 0q-38 -41 -73 -91q-15 -20 -32 -42l-83 -106q-10 -14 -20 -29l-8 -15q0 -2 1 -4q2 -3 16 -2q7 0 8 -4q3 -9 -12 -21q-6 -5 -9 -9l-82 -3q-11 1 -25 3l-19 17
q-2 4 -2 9q1 13 21 21q5 2 24 -3q10 -3 15 3q102 124 133 156q9 10 21 21zM347 167v68q-10 19 -23 18l-45 -72q-4 -14 0 -18q38 1 37 1q-25 -2 -8 1q6 0 39 2zM395 13q-15 -17 -33 -13q-8 2 -15 8l-2 117q-22 2 -57 -4q-20 -3 -52 4q-11 3 -5 27l82 135q12 17 65 81
q8 4 15 2q4 -2 8 -6q6 -59 1 -122q-4 -53 -6 -75q19 -1 43 6q19 5 62 3q12 -19 -8 -41l-15 -13q-15 -10 -35 -5q-24 7 -48 5l1 -100q-1 -4 -1 -9z" />
    <glyph glyph-name="onehalf" unicode="&#xbd;" horiz-adv-x="560" 
d="M98 339q-14 0 -6 23q2 8 6 13q2 3 15 2q8 -1 11 5l1 152q-3 7 -15 5l-7 1v1q-11 16 -6 34q3 10 10 16h99q17 -14 13 -37q-1 -6 -4 -13q0 -1 -8 -1q-4 0 -6 -6q3 -228 2 -40q0 45 0 -115q1 -3 8 -3q3 0 4 -1q15 -19 11 -31l-3 -4l-3 -1h-122zM292 367q21 23 48 65
q12 19 32 40q-2 5 -16 6q-9 1 -10 6q-3 7 2 13q3 3 6 4l58 2q5 -1 36 -12q6 -7 2 -17q-2 -5 -6 -8q-3 -3 -16 0q-6 2 -10 0q-38 -41 -73 -91q-14 -20 -32 -42l-83 -106q-9 -14 -19 -29l-8 -15q-1 -2 1 -4q1 -3 16 -2q6 0 8 -4q3 -9 -12 -21q-7 -5 -9 -9l-82 -3l-25 3l-19 17
q-3 4 -2 9q0 13 21 21q4 2 24 -3q9 -3 14 3q103 124 133 156zM433 111q23 9 35 6q5 -2 13 -7q-9 -40 -13 -45l-23 -26q-78 -4 -113 -3l-44 1q-8 0 -3 14q1 4 3 8q19 30 59 68q29 27 44 57q13 25 7 41q-3 6 -7 10q-11 14 -35 8l-10 -3q-14 -5 -28 -23q-10 -14 -21 -23
q-12 20 -6 29q-2 -3 4 6q23 32 39 40q6 3 17 7q53 18 78 4q6 -3 12 -9q22 -22 13 -64q-1 -8 -4 -18q-6 -21 -33 -46q-17 -16 -26 -29q-6 -22 -9 -28l28 2q-8 0 -13 -2q-2 0 33 0q1 1 0 16q0 6 3 9z" />
    <glyph glyph-name="threequarters" unicode="&#xbe;" horiz-adv-x="560" 
d="M269 367q20 23 47 65q13 19 32 40q-1 5 -15 6q-9 1 -11 6q-2 7 3 13q2 3 6 4l57 2q5 -1 37 -12q5 -7 2 -17q-2 -5 -6 -8t-17 0q-5 2 -9 0q-38 -41 -73 -91q-15 -20 -32 -42l-83 -106q-10 -14 -20 -29l-8 -15q0 -2 1 -4q2 -3 16 -2q7 0 8 -4q3 -9 -12 -21q-6 -5 -9 -9
l-82 -3q-11 1 -25 3l-19 17q-2 4 -2 9q1 13 21 21q5 2 24 -3q10 -3 15 3q102 124 133 156q9 10 21 21zM347 167v68q-10 19 -23 18l-45 -72q-4 -14 0 -18q38 1 37 1q-25 -2 -8 1q6 0 39 2zM395 13q-15 -18 -34 -12q-8 2 -14 7l-2 117q-22 2 -57 -4q-13 -2 -28 0l-24 4
q-11 3 -5 27l82 135q12 17 65 81q8 4 15 2q4 -2 8 -6q6 -59 1 -122q-4 -53 -6 -75q19 -1 43 6q19 5 62 3q12 -19 -8 -41l-15 -13q-15 -10 -35 -5q-24 7 -48 5l1 -100q-1 -4 -1 -9zM65 411q-14 10 0 45q13 14 54 53q12 11 27 28q8 9 -2 23q-3 4 -7 8q-9 8 -22 7q-4 -1 -10 -2
q-12 -4 -24 -23q-11 -17 -25 -22q-10 -4 -6 20q1 3 1 7q10 42 50 70q29 13 33 14q5 0 7 1q8 1 27 -5q13 -3 23 -8q19 -18 11 -62l-2 -9q-4 -17 -26 -45q-10 -14 -15 -24q4 -6 21 -5q10 0 15 -4q17 -14 23 -49q6 -37 1 -63q-3 -14 -10 -32q-17 -42 -43 -57q-2 -1 -5 -3
q-66 -34 -98 -16q-6 4 -12 9q-17 16 -12 40q3 13 12 23q7 0 31 -1q5 0 14 1q4 -3 5 -17q0 -6 4 -9q11 -6 24 2q4 2 8 6q26 21 31 66q3 24 -3 35q-2 3 -6 7q-11 11 -45 9q-7 -1 -23 -11q-10 -6 -26 -7z" />
    <glyph glyph-name="questiondown" unicode="&#xbf;" horiz-adv-x="474" 
d="M233 556q20 15 46 -2q9 -7 17 -16q25 -101 23 -168q-1 -25 -5 -75q-52 -17 -98 -14q-29 2 -55 -4q-18 -17 -13 -41q1 -7 4 -13q13 -28 55 -42q39 -13 53 -21l55 -23q12 -8 17 -22q9 -42 -5 -62q-7 -11 -22 -19q-57 -5 -94 13q-14 6 -41 23q-44 70 -51 86q-11 26 -16 59
q-9 64 -9 68q1 39 31 69q15 15 55 26q37 10 53 34q0 8 3 81q2 33 -3 63zM263 751q22 2 37 -6q8 -4 17 -12q45 -41 36 -81q-10 -38 -63 -45q-30 -4 -50 7q-12 7 -22 20q-26 33 -17 68q2 11 8 22q13 24 54 27z" />
    <glyph glyph-name="Agrave" unicode="&#xc0;" 
d="M339 1052q53 27 75 25q16 -1 31 -10q32 -47 51 -109l14 -45q15 -44 29 -94q4 -13 -49 -15q-47 -1 -54 10q-4 4 -35 106q-37 118 -62 132zM496 327l-96 -16q-32 -1 -76 25q34 61 23 60l22 63l22 85q3 12 7 22q30 -16 46 -70q14 -47 18 -58l29 -68q7 -22 5 -43zM745 14
q18 20 9 48q-3 10 -9 20q-11 20 -47 32q-35 11 -47 28q-20 55 -59 219q-26 107 -52 182l-30 93q-13 32 -38 69q-34 20 -82 -2l-30 -14l-87 -168q-27 -59 -85 -242l-22 -73q-14 -40 -29 -66q-10 -7 -38 -2q-22 4 -34 -3q-52 -31 -55 -78q0 -11 15 -28q6 -6 9 -11
q26 -18 41 -11q7 3 10 4l77 3h3q12 1 66 -7q44 -7 68 16q11 14 8 88v14q-10 12 -31 6l-19 -2q-8 0 -15 5l4 67q5 32 30 52q41 4 148 3q33 0 62 2q49 -7 57 -50l1 -6q6 -81 1 -85q-7 -4 -9 -9q-33 -7 -67 2q-13 3 -25 -10q-24 -27 -25 -66q0 -34 25 -34h128q111 4 129 6
q14 2 27 5l15 1z" />
    <glyph glyph-name="Aacute" unicode="&#xc1;" 
d="M533 1052q-53 27 -75 25q-16 -1 -31 -10q-32 -47 -51 -109l-14 -45q-16 -44 -29 -94q-4 -13 48 -15q48 -1 55 10q3 4 35 106q37 118 62 132zM496 327l-96 -16q-32 -1 -76 25q34 61 23 60l22 63l22 85q3 12 7 22q30 -16 46 -70q14 -47 18 -58l29 -68q7 -22 5 -43zM745 14
q18 20 9 48q-3 10 -9 20q-11 20 -47 32q-35 11 -47 28q-20 55 -59 219q-26 107 -52 182l-30 93q-13 32 -38 69q-34 20 -82 -2l-30 -14l-87 -168q-27 -59 -85 -242l-22 -73q-14 -40 -29 -66q-10 -7 -38 -2q-22 4 -34 -3q-52 -31 -55 -78q0 -11 15 -28q6 -6 9 -11
q26 -18 41 -11q7 3 10 4l77 3h3q12 1 66 -7q44 -7 68 16q11 14 8 88v14q-10 12 -31 6l-19 -2q-8 0 -15 5l4 67q5 32 30 52q41 4 148 3q33 0 62 2q49 -7 57 -50l1 -6q6 -81 1 -85q-7 -4 -9 -9q-33 -7 -67 2q-13 3 -25 -10q-24 -27 -25 -66q0 -34 25 -34h128q111 4 129 6
q14 2 27 5l15 1z" />
    <glyph glyph-name="Acircumflex" unicode="&#xc2;" 
d="M397 822q10 62 28 113q27 -14 46 -82q10 -32 15 -39q8 -13 62 -10q44 3 41 15q-14 50 -29 94l-31 93q-12 29 -34 61q-33 19 -80 -2l-26 -13q-76 -147 -106 -227q-4 -10 51 -14q61 -3 63 11zM496 327l-96 -16q-32 -1 -76 25q34 61 23 60l22 63l22 85q3 12 7 22
q30 -16 46 -70q14 -47 18 -58l29 -68q7 -22 5 -43zM745 14q18 20 9 48q-3 10 -9 20q-11 20 -47 32q-35 11 -47 28q-20 55 -59 219q-26 107 -52 182l-30 93q-13 32 -38 69q-34 20 -82 -2l-30 -14l-87 -168q-27 -59 -85 -242l-22 -73q-14 -40 -29 -66q-10 -7 -38 -2
q-22 4 -34 -3q-52 -31 -55 -78q0 -11 15 -28q6 -6 9 -11q26 -18 41 -11q7 3 10 4l77 3h3q12 1 66 -7q44 -7 68 16q11 14 8 88v14q-10 12 -31 6l-19 -2q-8 0 -15 5l4 67q5 32 30 52q41 4 148 3q33 0 62 2q49 -7 57 -50l1 -6q6 -81 1 -85q-7 -4 -9 -9q-33 -7 -67 2
q-13 3 -25 -10q-24 -27 -25 -66q0 -34 25 -34h128q111 4 129 6q14 2 27 5l15 1z" />
    <glyph glyph-name="Atilde" unicode="&#xc3;" 
d="M386 914q15 -1 44 -18l18 -9l33 -16q7 -2 14 -1q13 1 29 22q14 18 27 18q34 -1 42 -25q1 -4 1 -7q1 -10 -16 -20l-10 -6l-43 -36q-18 -11 -39 -12q-23 -2 -53 25q-31 26 -54 25q-14 0 -33 -21q-16 -18 -31 -15q-28 4 -34 30q-1 4 -1 9q1 16 25 30q9 6 11 7q37 22 70 20z
M496 327l-96 -16q-32 -1 -76 25q34 61 23 60l22 63l22 85q3 12 7 22q30 -16 46 -70q14 -47 18 -58l29 -68q7 -22 5 -43zM745 14q18 20 9 48q-3 10 -9 20q-11 20 -47 32q-35 11 -47 28q-20 55 -59 219q-26 107 -52 182l-30 93q-13 32 -38 69q-34 20 -82 -2l-30 -14l-87 -168
q-27 -59 -85 -242l-22 -73q-14 -40 -29 -66q-10 -7 -38 -2q-22 4 -34 -3q-52 -31 -55 -78q0 -11 15 -28q6 -6 9 -11q26 -18 41 -11q7 3 10 4l77 3h3q12 1 66 -7q44 -7 68 16q11 14 8 88v14q-10 12 -31 6l-19 -2q-8 0 -15 5l4 67q5 32 30 52q41 4 148 3q33 0 62 2
q49 -7 57 -50l1 -6q6 -81 1 -85q-7 -4 -9 -9q-33 -7 -67 2q-13 3 -25 -10q-24 -27 -25 -66q0 -34 25 -34h128q111 4 129 6q14 2 27 5l15 1z" />
    <glyph glyph-name="Adieresis" unicode="&#xc4;" 
d="M500 808q39 -10 67 1q19 8 32 26q24 30 12 71q-4 13 -12 28q-23 45 -63 45q-39 0 -63 -45q-17 -34 -9 -70l9 -29q10 -22 27 -27zM300 808q39 -10 67 1q19 8 32 26q24 30 12 71q-4 13 -12 28q-23 45 -63 45q-39 0 -63 -45q-17 -34 -9 -70l9 -29q10 -22 27 -27zM496 327
l-96 -16q-32 -1 -76 25q34 61 23 60l22 63l22 85q3 12 7 22q30 -16 46 -70q14 -47 18 -58l29 -68q7 -22 5 -43zM745 14q18 20 9 48q-3 10 -9 20q-11 20 -47 32q-35 11 -47 28q-20 55 -59 219q-26 107 -52 182l-30 93q-13 32 -38 69q-34 20 -82 -2l-30 -14l-87 -168
q-27 -59 -85 -242l-22 -73q-14 -40 -29 -66q-10 -7 -38 -2q-22 4 -34 -3q-52 -31 -55 -78q0 -11 15 -28q6 -6 9 -11q26 -18 41 -11q7 3 10 4l77 3h3q12 1 66 -7q44 -7 68 16q11 14 8 88v14q-10 12 -31 6l-19 -2q-8 0 -15 5l4 67q5 32 30 52q41 4 148 3q33 0 62 2
q49 -7 57 -50l1 -6q6 -81 1 -85q-7 -4 -9 -9q-33 -7 -67 2q-13 3 -25 -10q-24 -27 -25 -66q0 -34 25 -34h128q111 4 129 6q14 2 27 5l15 1z" />
    <glyph glyph-name="Aring" unicode="&#xc5;" 
d="M411 930q16 10 33 8q3 0 7 -1q12 -3 24 -17q15 -20 20 -48q4 -28 -1 -49q-2 -11 -7 -24q-8 -22 -19 -28q-10 -6 -31 -3q-24 3 -32 11q-18 17 -22 49q-5 29 2 54q3 9 7 20q7 20 19 28zM439 735q26 0 34 2q20 7 31 19q15 16 26 48q6 22 5 48v12q-2 35 -10 54q-7 15 -27 35
q-17 17 -42 18q-1 0 -6 1q-29 1 -49 -8q-11 -5 -23 -14q-26 -20 -39 -66q-8 -28 -6 -52l5 -24q6 -26 32 -52q15 -14 36 -19q8 -3 33 -2zM496 327l-96 -16q-32 -1 -76 25q34 61 23 60l22 63l22 85q3 12 7 22q30 -16 46 -70q14 -47 18 -58l29 -68q7 -22 5 -43zM745 14
q18 20 9 48q-3 10 -9 20q-11 20 -47 32q-35 11 -47 28q-20 55 -59 219q-26 107 -52 182l-30 93q-13 32 -38 69q-34 20 -82 -2l-30 -14l-87 -168q-27 -59 -85 -242l-22 -73q-14 -40 -29 -66q-10 -7 -38 -2q-22 4 -34 -3q-52 -31 -55 -78q0 -11 15 -28q6 -6 9 -11
q26 -18 41 -11q7 3 10 4l77 3h3q12 1 66 -7q44 -7 68 16q11 14 8 88v14q-10 12 -31 6l-19 -2q-8 0 -15 5l4 67q5 32 30 52q41 4 148 3q33 0 62 2q49 -7 57 -50l1 -6q6 -81 1 -85q-7 -4 -9 -9q-33 -7 -67 2q-13 3 -25 -10q-24 -27 -25 -66q0 -34 25 -34h128q111 4 129 6
q14 2 27 5l15 1z" />
    <glyph glyph-name="AE" unicode="&#xc6;" horiz-adv-x="1055" 
d="M517 251l-192 5q-26 -1 -49 -3q-30 -24 -32 -74l-2 -45q13 -8 38 -2q17 5 27 -7q3 -84 -8 -102q-24 -24 -72 -16q-47 8 -62 7l-80 -3l-20 -7q-11 0 -31 14l-21 26q-3 6 -3 13q1 48 55 78q12 7 43 1q19 -3 29 4q31 53 51 139q60 192 91 256l81 154l82 51q32 17 52 5h354
q39 -2 124 -17q4 -97 7 -106q-2 4 12 -33q2 -6 20 -25q9 -9 6 -16q-54 -18 -88 -15l-65 5q-6 7 4 16q18 14 13 38q-8 32 -13 36q-8 5 -16 16q-58 10 -110 5q-23 -2 -52 -7l-34 -2l-9 -6l-1 -183q0 -23 1 -56q70 -13 80 -14q20 0 48 6q19 13 17 53q-1 41 12 53q2 3 6 5
q19 12 40 5q11 -4 19 -14q0 -53 4 -290q-42 -19 -58 -6q-6 4 -14 15q-6 31 8 54q7 10 1 22q-8 15 -37 23l-11 3q-50 15 -75 11l-10 -2q-26 -6 -35 -21q-1 -2 -3 -5q-17 -83 -17 -167v-29q8 -18 34 -28q77 -17 189 -11q45 2 58 3q28 15 39 43q19 48 36 72q5 8 11 15
q24 -27 25 -55v-19q2 -64 -7 -85q-7 -19 -24 -32h-489q18 190 23 251zM521 339q5 104 3 223q-1 38 -2 80q-15 -44 -85 -65l-5 -1l-82 -173q-2 -4 -3 -7l2 -4l-9 -26l-16 -30q103 -3 149 0q21 1 48 3z" />
    <glyph glyph-name="Ccedilla" unicode="&#xc7;" horiz-adv-x="691" 
d="M507 10q67 14 107 67q20 26 19 55q-1 18 -16 16q-24 -4 -95 -31q-68 -26 -118 -20q-97 12 -153 65q-13 13 -26 29q-63 78 -62 172q0 19 2 41q12 120 75 189q19 21 44 41q76 60 153 47l18 -4q50 -13 89 -65l39 -54q10 -14 18 -52l9 -25q8 -15 24 -26q42 84 42 127
q0 32 -17 68q-19 41 -72 63l-55 21q-45 18 -102 20q-81 2 -120 -10q-14 -4 -28 -10q-90 -39 -146 -103q-16 -18 -34 -42q-67 -90 -84 -165l-8 -56q-1 -5 -1 -10q-5 -68 18 -122q9 -22 24 -48q47 -81 113 -125q21 -14 49 -29q52 -27 96 -32q38 -5 55 -55q-4 10 14 -48
q8 -27 4 -44l-4 -10q-8 -19 -45 -37q-32 -16 -36 -31q-1 -6 0 -13q6 -32 60 -31q3 0 6 1q32 1 62 34q2 2 4 5q36 40 56 107q-7 -23 10 37q4 12 -3 55q-6 33 15 38z" />
    <glyph glyph-name="Egrave" unicode="&#xc8;" horiz-adv-x="648" 
d="M177 1043q53 27 75 25q16 -1 31 -10q32 -47 51 -109l14 -45q15 -44 29 -94q4 -13 -49 -15q-47 -1 -54 10q-4 4 -35 106q-37 118 -62 132zM452 644q-58 10 -110 5q-23 -2 -52 -7l-34 -2l-9 -6l-1 -183q0 -23 1 -56q70 -13 80 -14q20 0 48 6q19 13 17 53q-1 41 12 53
q2 3 6 5q19 12 39 5q12 -5 20 -14q0 -53 4 -290q-42 -19 -58 -6q-6 4 -14 15q-6 31 8 54q7 11 1 22q-8 16 -36 23q-9 2 -12 3q-50 16 -76 11q-5 -1 -9 -2q-25 -7 -33 -18l-5 -8q-17 -83 -17 -167v-29q8 -18 34 -28q77 -17 189 -11q45 2 58 3q28 15 39 43q19 48 36 72
q5 8 11 15q24 -27 25 -56v-18q3 -64 -7 -87q-8 -17 -24 -30h-546q-33 11 -36 25q-1 3 -1 6q0 16 29 26l8 3q9 3 41 -6q20 -6 22 8q22 230 24 334q2 100 -2 246q-33 0 -54 -10q-4 -2 -10 0q-3 0 -7 2q-35 17 -34 43q3 39 57 61q8 3 20 7h354q39 -2 124 -17q4 -98 7 -106
q-1 2 12 -33q2 -7 19 -25l7 -10v-6q-54 -18 -88 -15l-65 5q-6 7 4 16q18 14 13 38q-8 32 -13 36q-8 5 -16 16z" />
    <glyph glyph-name="Eacute" unicode="&#xc9;" horiz-adv-x="648" 
d="M442 1031q-53 27 -75 25q-16 -1 -31 -10q-32 -47 -51 -109l-14 -45q-16 -44 -29 -94q-4 -13 48 -15q48 -1 55 10q3 4 35 106q37 118 62 132zM452 644q-58 10 -110 5q-23 -2 -52 -7l-34 -2l-9 -6l-1 -183q0 -23 1 -56q70 -13 80 -14q20 0 48 6q19 13 17 53q-1 41 12 53
q2 3 6 5q19 12 39 5q12 -5 20 -14q0 -53 4 -290q-42 -19 -58 -6q-6 4 -14 15q-6 31 8 54q7 11 1 22q-8 16 -36 23q-9 2 -12 3q-50 16 -76 11q-5 -1 -9 -2q-25 -7 -33 -18l-5 -8q-17 -83 -17 -167v-29q8 -18 34 -28q77 -17 189 -11q45 2 58 3q28 15 39 43q19 48 36 72
q5 8 11 15q24 -27 25 -56v-18q3 -64 -7 -87q-8 -17 -24 -30h-546q-33 11 -36 25q-1 3 -1 6q0 16 29 26l8 3q9 3 41 -6q20 -6 22 8q22 230 24 334q2 100 -2 246q-33 0 -54 -10q-4 -2 -10 0q-3 0 -7 2q-35 17 -34 43q3 39 57 61q8 3 20 7h354q39 -2 124 -17q4 -98 7 -106
q-1 2 12 -33q2 -7 19 -25l7 -10v-6q-54 -18 -88 -15l-65 5q-6 7 4 16q18 14 13 38q-8 32 -13 36q-8 5 -16 16z" />
    <glyph glyph-name="Ecircumflex" unicode="&#xca;" horiz-adv-x="648" 
d="M259 801q10 62 28 113q27 -14 46 -82q10 -32 15 -39q8 -13 62 -10q44 3 41 15q-14 50 -29 94l-31 93q-12 29 -34 61q-33 19 -80 -2l-26 -13q-76 -147 -106 -227q-4 -10 51 -14q61 -3 63 11zM452 644q-58 10 -110 5q-23 -2 -52 -7l-34 -2l-9 -6l-1 -183q0 -23 1 -56
q70 -13 80 -14q20 0 48 6q19 13 17 53q-1 41 12 53q2 3 6 5q19 12 39 5q12 -5 20 -14q0 -53 4 -290q-42 -19 -58 -6q-6 4 -14 15q-6 31 8 54q7 11 1 22q-8 16 -36 23q-9 2 -12 3q-50 16 -76 11q-5 -1 -9 -2q-25 -7 -33 -18l-5 -8q-17 -83 -17 -167v-29q8 -18 34 -28
q77 -17 189 -11q45 2 58 3q28 15 39 43q19 48 36 72q5 8 11 15q24 -27 25 -56v-18q3 -64 -7 -87q-8 -17 -24 -30h-546q-33 11 -36 25q-1 3 -1 6q0 16 29 26l8 3q9 3 41 -6q20 -6 22 8q22 230 24 334q2 100 -2 246q-33 0 -54 -10q-4 -2 -10 0q-3 0 -7 2q-35 17 -34 43
q3 39 57 61q8 3 20 7h354q39 -2 124 -17q4 -98 7 -106q-1 2 12 -33q2 -7 19 -25l7 -10v-6q-54 -18 -88 -15l-65 5q-6 7 4 16q18 14 13 38q-8 32 -13 36q-8 5 -16 16z" />
    <glyph glyph-name="Edieresis" unicode="&#xcb;" horiz-adv-x="648" 
d="M386 811q39 -10 67 1q19 8 32 26q24 30 12 71q-4 13 -12 28q-23 45 -63 45q-39 0 -63 -45q-17 -34 -9 -70l9 -29q10 -22 27 -27zM186 811q39 -10 67 1q19 8 32 26q24 30 12 71q-4 13 -12 28q-23 45 -63 45q-39 0 -63 -45q-17 -34 -9 -70l9 -29q10 -22 27 -27zM452 644
q-58 10 -110 5q-23 -2 -52 -7l-34 -2l-9 -6l-1 -183q0 -23 1 -56q70 -13 80 -14q20 0 48 6q19 13 17 53q-1 41 12 53q2 3 6 5q19 12 39 5q12 -5 20 -14q0 -53 4 -290q-42 -19 -58 -6q-6 4 -14 15q-6 31 8 54q7 11 1 22q-8 16 -36 23q-9 2 -12 3q-50 16 -76 11q-5 -1 -9 -2
q-25 -7 -33 -18l-5 -8q-17 -83 -17 -167v-29q8 -18 34 -28q77 -17 189 -11q45 2 58 3q28 15 39 43q19 48 36 72q5 8 11 15q24 -27 25 -56v-18q3 -64 -7 -87q-8 -17 -24 -30h-546q-33 11 -36 25q-1 3 -1 6q0 16 29 26l8 3q9 3 41 -6q20 -6 22 8q22 230 24 334q2 100 -2 246
q-33 0 -54 -10q-4 -2 -10 0q-3 0 -7 2q-35 17 -34 43q3 39 57 61q8 3 20 7h354q39 -2 124 -17q4 -98 7 -106q-1 2 12 -33q2 -7 19 -25l7 -10v-6q-54 -18 -88 -15l-65 5q-6 7 4 16q18 14 13 38q-8 32 -13 36q-8 5 -16 16z" />
    <glyph glyph-name="Igrave" unicode="&#xcc;" horiz-adv-x="389" 
d="M70 1042q53 27 75 25q16 -1 31 -10q32 -47 51 -109l14 -45q15 -44 29 -94q4 -13 -49 -15q-47 -1 -54 10q-4 4 -35 106q-37 118 -62 132zM245 678q19 8 64 -4q40 -11 54 5q2 2 4 5l7 30q1 14 -4 20l-227 9q-36 1 -97 2q-17 -15 -11 -35l8 -16q11 -15 47 -13q35 3 47 -13
q-6 -392 -5 -437q1 -33 3 -146q-13 -14 -54 -3q-43 12 -58 1q-3 -2 -6 -6q-12 -16 -4 -35q5 -9 13 -16q145 -16 161 -15q92 5 163 6q23 17 17 40q-1 6 -5 11q-10 17 -45 13q-38 -4 -51 6q-3 3 -6 7q-2 51 -3 291q-1 121 -12 293z" />
    <glyph glyph-name="Iacute" unicode="&#xcd;" horiz-adv-x="389" 
d="M311 1030q-53 27 -75 25q-16 -1 -31 -10q-32 -47 -51 -109l-14 -45q-16 -44 -29 -94q-4 -13 48 -15q48 -1 55 10q3 4 35 106q37 118 62 132zM245 678q19 8 64 -4q40 -11 54 5q2 2 4 5l7 30q1 14 -4 20l-227 9q-36 1 -97 2q-17 -15 -11 -35l8 -16q11 -15 47 -13
q35 3 47 -13q-6 -392 -5 -437q1 -33 3 -146q-13 -14 -54 -3q-43 12 -58 1q-3 -2 -6 -6q-12 -16 -4 -35q5 -9 13 -16q145 -16 161 -15q92 5 163 6q23 17 17 40q-1 6 -5 11q-10 17 -45 13q-38 -4 -51 6q-3 3 -6 7q-2 51 -3 291q-1 121 -12 293z" />
    <glyph glyph-name="Icircumflex" unicode="&#xce;" horiz-adv-x="389" 
d="M163 800q10 62 28 113q27 -14 46 -82q10 -32 15 -39q8 -13 62 -10q44 3 41 15q-14 50 -29 94l-31 93q-12 29 -34 61q-33 19 -80 -2l-26 -13q-76 -147 -106 -227q-4 -10 51 -14q61 -3 63 11zM245 678q19 8 64 -4q40 -11 54 5q2 2 4 5l7 30q1 14 -4 20l-227 9q-36 1 -97 2
q-17 -15 -11 -35l8 -16q11 -15 47 -13q35 3 47 -13q-6 -392 -5 -437q1 -33 3 -146q-13 -14 -54 -3q-43 12 -58 1q-3 -2 -6 -6q-12 -16 -4 -35q5 -9 13 -16q145 -16 161 -15q92 5 163 6q23 17 17 40q-1 6 -5 11q-10 17 -45 13q-38 -4 -51 6q-3 3 -6 7q-2 51 -3 291
q-1 121 -12 293z" />
    <glyph glyph-name="Idieresis" unicode="&#xcf;" horiz-adv-x="389" 
d="M256 798q39 -10 67 1q19 8 32 26q24 30 12 71q-4 13 -12 28q-23 45 -63 45q-39 0 -63 -45q-17 -34 -9 -70l9 -29q10 -22 27 -27zM56 798q39 -10 67 1q19 8 32 26q24 30 12 71q-4 13 -12 28q-23 45 -63 45q-39 0 -63 -45q-17 -34 -9 -70l9 -29q10 -22 27 -27zM245 678
q19 8 64 -4q40 -11 54 5q2 2 4 5l7 30q1 14 -4 20l-227 9q-36 1 -97 2q-17 -15 -11 -35l8 -16q11 -15 47 -13q35 3 47 -13q-6 -392 -5 -437q1 -33 3 -146q-13 -14 -54 -3q-43 12 -58 1q-3 -2 -6 -6q-12 -16 -4 -35q5 -9 13 -16q145 -16 161 -15q92 5 163 6q23 17 17 40
q-1 6 -5 11q-10 17 -45 13q-38 -4 -51 6q-3 3 -6 7q-2 51 -3 291q-1 121 -12 293z" />
    <glyph glyph-name="Eth" unicode="&#xd0;" horiz-adv-x="750" 
d="M138 327q-54 2 -81 39q-14 20 -6 43q4 11 12 20q21 24 67 24h9q2 92 6 233q-13 13 -45 4l-6 -2q-7 -1 -21 -13q-8 -8 -17 -8q-42 0 -49 13q-2 4 -2 8q-5 20 35 42q9 5 20 10q24 11 72 9q13 -1 22 -1q145 1 182 -3q52 -5 108 -20q87 -23 127 -49q17 -12 35 -27
q70 -62 96 -127q8 -20 15 -44q18 -69 0 -151q-3 -13 -9 -37q-24 -94 -53 -138q-13 -21 -32 -41q-50 -55 -121 -82l-33 -12q-59 -19 -148 -17h-59q-103 -1 -164 4q-39 3 -98 10q-11 14 -8 40q2 13 8 28q19 15 65 7q44 -9 61 4q4 3 8 7q4 124 4 227zM250 466q6 0 11 -1
q42 -6 55 -15l11 -12q22 -30 13 -57q-2 -8 -7 -15q-22 -32 -77 -35h-9q-1 -121 -5 -220q-1 -22 35 -30q-8 2 25 -4q39 -7 79 8q10 3 23 9q76 33 113 73q12 13 23 29q53 74 59 150q1 17 1 38q-1 95 -46 166q-10 14 -22 30q-46 61 -109 85l-28 9q-67 20 -93 16q-24 -4 -43 -21
q-6 -123 -9 -203z" />
    <glyph glyph-name="Ntilde" unicode="&#xd1;" horiz-adv-x="793" 
d="M327 903q15 -1 44 -18l18 -9l33 -16q7 -2 14 -1q13 1 29 22q14 18 27 18q34 -1 42 -25q1 -4 1 -7q1 -10 -16 -20l-10 -6l-43 -36q-18 -11 -39 -12q-23 -2 -53 25q-31 26 -54 25q-14 0 -33 -21q-16 -18 -31 -15q-28 4 -34 30q-1 4 -1 9q1 16 25 30q9 6 11 7q37 22 70 20z
M649 688l-18 -438q-122 166 -222 286q-113 135 -159 190q-84 23 -130 19q-26 -2 -60 -11q-48 -23 -40 -51q8 -24 59 -20q44 3 55 -6l-4 -426q1 -56 4 -129q-6 -8 -44 -3q-48 5 -62 -14q-8 -12 2 -37q6 -14 7 -22q68 -2 148 5q26 2 57 3l12 44q1 8 -4 16t-22 5q-19 -3 -29 15
q-1 69 10 201q8 109 -7 268q122 -162 232 -286q87 -99 175 -209q23 -31 42 -34h9q19 2 39 36q3 5 4 7q7 123 2 305q-4 127 3 278q65 4 61 -1q-2 -3 -4 1q-1 2 3 6q20 20 21 44q0 15 -12 16l-116 10q32 1 -109 -8q5 -9 -3 -34l-3 -15l4 -9l2 -2q14 -14 26 -11q43 10 71 11z
" />
    <glyph glyph-name="Ograve" unicode="&#xd2;" 
d="M332 1052q53 27 75 25q16 -1 31 -10q32 -47 51 -109l14 -45q15 -44 29 -94q4 -13 -49 -15q-47 -1 -54 10q-4 4 -35 106q-37 118 -62 132zM205 376q-5 -90 3 -126q7 -28 22 -56q36 -63 92 -88q13 -6 28 -11q59 -20 102 -10q24 5 49 18q58 32 91 101q8 18 22 53
q38 95 31 173q-1 19 -5 40q-14 85 -51 128q-11 13 -26 26q-67 57 -130 54q-11 -1 -23 -3q-78 -14 -132 -83l-33 -48q-33 -52 -38 -127q-1 -11 -2 -41zM697 610q63 -89 54 -206q-3 -40 -16 -107q-13 -66 -67 -142q-37 -52 -42 -60q-71 -108 -216 -104q-73 2 -145 33
q-106 60 -145 98q-61 58 -73 138q-19 128 1 204q16 62 60 120q98 129 236 153q40 6 86 6q154 0 242 -101q13 -15 25 -32zM205 376q-5 -90 3 -126q7 -28 22 -56q36 -63 92 -88q13 -6 28 -11q59 -20 102 -10q24 5 49 18q58 32 91 101q8 18 22 53q38 95 31 173q-1 19 -5 40
q-14 85 -51 128q-11 13 -26 26q-67 57 -130 54q-11 -1 -23 -3q-78 -14 -132 -83l-33 -48q-33 -52 -38 -127q-1 -11 -2 -41zM697 610q63 -89 54 -206q-3 -40 -16 -107q-13 -66 -67 -142q-37 -52 -42 -60q-71 -108 -216 -104q-73 2 -145 33q-106 60 -145 98q-61 58 -73 138
q-19 128 1 204q16 62 60 120q98 129 236 153q40 6 86 6q154 0 242 -101q13 -15 25 -32z" />
    <glyph glyph-name="Oacute" unicode="&#xd3;" 
d="M525 1052q-53 27 -75 25q-16 -1 -31 -10q-32 -47 -51 -109l-14 -45q-16 -44 -29 -94q-4 -13 48 -15q48 -1 55 10q3 4 35 106q37 118 62 132zM205 376q-5 -90 3 -126q7 -28 22 -56q36 -63 92 -88q13 -6 28 -11q59 -20 102 -10q24 5 49 18q58 32 91 101q8 18 22 53
q38 95 31 173q-1 19 -5 40q-14 85 -51 128q-11 13 -26 26q-67 57 -130 54q-11 -1 -23 -3q-78 -14 -132 -83l-33 -48q-33 -52 -38 -127q-1 -11 -2 -41zM697 610q63 -89 54 -206q-3 -40 -16 -107q-13 -66 -67 -142q-37 -52 -42 -60q-71 -108 -216 -104q-73 2 -145 33
q-106 60 -145 98q-61 58 -73 138q-19 128 1 204q16 62 60 120q98 129 236 153q40 6 86 6q154 0 242 -101q13 -15 25 -32zM205 376q-5 -90 3 -126q7 -28 22 -56q36 -63 92 -88q13 -6 28 -11q59 -20 102 -10q24 5 49 18q58 32 91 101q8 18 22 53q38 95 31 173q-1 19 -5 40
q-14 85 -51 128q-11 13 -26 26q-67 57 -130 54q-11 -1 -23 -3q-78 -14 -132 -83l-33 -48q-33 -52 -38 -127q-1 -11 -2 -41zM697 610q63 -89 54 -206q-3 -40 -16 -107q-13 -66 -67 -142q-37 -52 -42 -60q-71 -108 -216 -104q-73 2 -145 33q-106 60 -145 98q-61 58 -73 138
q-19 128 1 204q16 62 60 120q98 129 236 153q40 6 86 6q154 0 242 -101q13 -15 25 -32z" />
    <glyph glyph-name="Ocircumflex" unicode="&#xd4;" 
d="M389 822q10 62 28 113q27 -14 46 -82q10 -32 15 -39q8 -13 62 -10q44 3 41 15q-14 50 -29 94l-31 93q-12 29 -34 61q-33 19 -80 -2l-26 -13q-76 -147 -106 -227q-4 -10 51 -14q61 -3 63 11zM205 376q-5 -90 3 -126q7 -28 22 -56q36 -63 92 -88q13 -6 28 -11
q59 -20 102 -10q24 5 49 18q58 32 91 101q8 18 22 53q38 95 31 173q-1 19 -5 40q-14 85 -51 128q-11 13 -26 26q-67 57 -130 54q-11 -1 -23 -3q-78 -14 -132 -83l-33 -48q-33 -52 -38 -127q-1 -11 -2 -41zM697 610q63 -89 54 -206q-3 -40 -16 -107q-13 -66 -67 -142
q-37 -52 -42 -60q-71 -108 -216 -104q-73 2 -145 33q-106 60 -145 98q-61 58 -73 138q-19 128 1 204q16 62 60 120q98 129 236 153q40 6 86 6q154 0 242 -101q13 -15 25 -32zM205 376q-5 -90 3 -126q7 -28 22 -56q36 -63 92 -88q13 -6 28 -11q59 -20 102 -10q24 5 49 18
q58 32 91 101q8 18 22 53q38 95 31 173q-1 19 -5 40q-14 85 -51 128q-11 13 -26 26q-67 57 -130 54q-11 -1 -23 -3q-78 -14 -132 -83l-33 -48q-33 -52 -38 -127q-1 -11 -2 -41zM697 610q63 -89 54 -206q-3 -40 -16 -107q-13 -66 -67 -142q-37 -52 -42 -60
q-71 -108 -216 -104q-73 2 -145 33q-106 60 -145 98q-61 58 -73 138q-19 128 1 204q16 62 60 120q98 129 236 153q40 6 86 6q154 0 242 -101q13 -15 25 -32z" />
    <glyph glyph-name="Otilde" unicode="&#xd5;" 
d="M378 914q15 -1 44 -18l18 -9l33 -16q7 -2 14 -1q13 1 29 22q14 18 27 18q34 -1 42 -25q1 -4 1 -7q1 -10 -16 -20l-10 -6l-43 -36q-18 -11 -39 -12q-23 -2 -53 25q-31 26 -54 25q-14 0 -33 -21q-16 -18 -31 -15q-28 4 -34 30q-1 4 -1 9q1 16 25 30q9 6 11 7q37 22 70 20z
M205 376q-5 -90 3 -126q7 -28 22 -56q36 -63 92 -88q13 -6 28 -11q59 -20 102 -10q24 5 49 18q58 32 91 101q8 18 22 53q38 95 31 173q-1 19 -5 40q-14 85 -51 128q-11 13 -26 26q-67 57 -130 54q-11 -1 -23 -3q-78 -14 -132 -83l-33 -48q-33 -52 -38 -127q-1 -11 -2 -41z
M697 610q63 -89 54 -206q-3 -40 -16 -107q-13 -66 -67 -142q-37 -52 -42 -60q-71 -108 -216 -104q-73 2 -145 33q-106 60 -145 98q-61 58 -73 138q-19 128 1 204q16 62 60 120q98 129 236 153q40 6 86 6q154 0 242 -101q13 -15 25 -32zM205 376q-5 -90 3 -126q7 -28 22 -56
q36 -63 92 -88q13 -6 28 -11q59 -20 102 -10q24 5 49 18q58 32 91 101q8 18 22 53q38 95 31 173q-1 19 -5 40q-14 85 -51 128q-11 13 -26 26q-67 57 -130 54q-11 -1 -23 -3q-78 -14 -132 -83l-33 -48q-33 -52 -38 -127q-1 -11 -2 -41zM697 610q63 -89 54 -206
q-3 -40 -16 -107q-13 -66 -67 -142q-37 -52 -42 -60q-71 -108 -216 -104q-73 2 -145 33q-106 60 -145 98q-61 58 -73 138q-19 128 1 204q16 62 60 120q98 129 236 153q40 6 86 6q154 0 242 -101q13 -15 25 -32z" />
    <glyph glyph-name="Odieresis" unicode="&#xd6;" 
d="M493 808q39 -10 67 1q19 8 32 26q24 30 12 71q-4 13 -12 28q-23 45 -63 45q-39 0 -63 -45q-17 -34 -9 -70l9 -29q10 -22 27 -27zM293 808q39 -10 67 1q19 8 32 26q24 30 12 71q-4 13 -12 28q-23 45 -63 45q-39 0 -63 -45q-17 -34 -9 -70l9 -29q10 -22 27 -27zM205 376
q-5 -90 3 -126q7 -28 22 -56q36 -63 92 -88q13 -6 28 -11q59 -20 102 -10q24 5 49 18q58 32 91 101q8 18 22 53q38 95 31 173q-1 19 -5 40q-14 85 -51 128q-11 13 -26 26q-67 57 -130 54q-11 -1 -23 -3q-78 -14 -132 -83l-33 -48q-33 -52 -38 -127q-1 -11 -2 -41zM697 610
q63 -89 54 -206q-3 -40 -16 -107q-13 -66 -67 -142q-37 -52 -42 -60q-71 -108 -216 -104q-73 2 -145 33q-106 60 -145 98q-61 58 -73 138q-19 128 1 204q16 62 60 120q98 129 236 153q40 6 86 6q154 0 242 -101q13 -15 25 -32zM205 376q-5 -90 3 -126q7 -28 22 -56
q36 -63 92 -88q13 -6 28 -11q59 -20 102 -10q24 5 49 18q58 32 91 101q8 18 22 53q38 95 31 173q-1 19 -5 40q-14 85 -51 128q-11 13 -26 26q-67 57 -130 54q-11 -1 -23 -3q-78 -14 -132 -83l-33 -48q-33 -52 -38 -127q-1 -11 -2 -41zM697 610q63 -89 54 -206
q-3 -40 -16 -107q-13 -66 -67 -142q-37 -52 -42 -60q-71 -108 -216 -104q-73 2 -145 33q-106 60 -145 98q-61 58 -73 138q-19 128 1 204q16 62 60 120q98 129 236 153q40 6 86 6q154 0 242 -101q13 -15 25 -32z" />
    <glyph glyph-name="multiply" unicode="&#xd7;" horiz-adv-x="430" 
d="M387 440q-9 15 -39 14q-14 -1 -20 0q2 -4 -34 -58l-8 -14l-26 -34q-4 -3 -14 -7q-14 -5 -24 -2q-5 1 -10 4q-22 14 -66 101l-5 10q-23 0 -26 -1l-27 -8q34 -46 97 -181q-23 -40 -52 -70l-29 -29q3 -7 -22 -46l-10 -20v-6l2 -1q33 -7 47 -6q5 0 13 1q-3 11 25 67q3 5 4 7
q8 16 21 23q7 4 12 10q21 1 32 0q22 -9 27 -19l3 -10q0 -2 35 -45q18 -23 16 -28q41 5 46 7q8 2 18 7q7 10 -2 34l-2 6q-12 15 -62 67q-35 37 -49 73q59 78 129 154z" />
    <glyph glyph-name="Oslash" unicode="&#xd8;" 
d="M129 114q-69 61 -82 146q-19 128 1 204q16 62 60 120q98 129 236 153q40 6 86 6q73 0 129 -21q2 14 18 23l111 4q10 -1 77 -24q12 -16 4 -34l-9 -14l-3 -3q-8 -7 -29 0q-14 4 -23 0l-31 -34q12 -14 23 -30q63 -89 54 -206q-3 -40 -16 -107q-13 -66 -67 -142
q-37 -52 -42 -60q-71 -108 -216 -104q-73 2 -145 33l-7 4l-121 -6q-29 0 -69 6q-3 4 -27 23q-16 13 -15 29q1 24 37 40q3 1 5 2q12 5 44 -5q10 -3 17 -3zM562 625q-66 56 -130 53q-11 -1 -22 -3q-78 -14 -132 -83l-33 -48q-33 -52 -38 -127q-1 -11 -2 -41q-5 -90 3 -126
q5 -18 13 -37q126 154 208 240q12 11 24 24q47 52 88 117q12 18 21 31zM611 566l-91 -126l-25 -32l-146 -186q-29 -38 -59 -83q-1 -4 -6 -11q26 -20 66 -33q59 -20 102 -10q24 5 49 18q58 32 91 101q8 18 22 53q38 95 31 173q-1 19 -5 40q-10 62 -29 96z" />
    <glyph glyph-name="Ugrave" unicode="&#xd9;" horiz-adv-x="802" 
d="M314 994q53 27 75 25q16 -1 31 -10q32 -47 51 -109l14 -45q15 -44 29 -94q4 -13 -49 -15q-47 -1 -54 10q-4 4 -35 106q-37 118 -62 132zM122 114q-14 140 0 386q7 115 6 163l-33 -23q-5 -2 -10 -3q-36 -10 -44 -8q-9 2 -15 8q-17 17 -5 47q2 6 5 13q11 23 42 34l182 8
q5 0 125 -17q30 -23 25 -52l-6 -14l-1 -2q-16 -19 -56 0q-41 19 -55 17l-13 -5q-2 -1 -4 -3l-13 -256q0 -75 18 -197q36 -84 86 -108q17 -8 37 -11q91 -15 168 54q24 22 45 51q16 148 15 234q-1 93 5 227q-11 14 -48 7q-35 -6 -46 10q-12 25 16 50q8 7 18 13q101 2 127 0
q23 -1 61 -3q36 -24 28 -52l-3 -8q-7 -12 -32 -5l-21 3q-8 -1 -13 -6q-6 -91 -3 -275q1 -129 -11 -280q-25 -50 -84 -74l-29 -11q-135 -50 -238 -37q-46 5 -98 22q-39 13 -80 56q-25 27 -38 38q-5 5 -10 9z" />
    <glyph glyph-name="Uacute" unicode="&#xda;" horiz-adv-x="802" 
d="M596 972q-53 27 -75 25q-16 -1 -31 -10q-32 -47 -51 -109l-14 -45q-16 -44 -29 -94q-4 -13 48 -15q48 -1 55 10q3 4 35 106q37 118 62 132zM122 114q-14 140 0 386q7 115 6 163l-33 -23q-5 -2 -10 -3q-36 -10 -44 -8q-9 2 -15 8q-17 17 -5 47q2 6 5 13q11 23 42 34l182 8
q5 0 125 -17q30 -23 25 -52l-6 -14l-1 -2q-16 -19 -56 0q-41 19 -55 17l-13 -5q-2 -1 -4 -3l-13 -256q0 -75 18 -197q36 -84 86 -108q17 -8 37 -11q91 -15 168 54q24 22 45 51q16 148 15 234q-1 93 5 227q-11 14 -48 7q-35 -6 -46 10q-12 25 16 50q8 7 18 13q101 2 127 0
q23 -1 61 -3q36 -24 28 -52l-3 -8q-7 -12 -32 -5l-21 3q-8 -1 -13 -6q-6 -91 -3 -275q1 -129 -11 -280q-25 -50 -84 -74l-29 -11q-135 -50 -238 -37q-46 5 -98 22q-39 13 -80 56q-25 27 -38 38q-5 5 -10 9z" />
    <glyph glyph-name="Ucircumflex" unicode="&#xdb;" horiz-adv-x="802" 
d="M406 772q10 62 28 113q27 -14 46 -82q10 -32 15 -39q8 -13 62 -10q44 3 41 15q-14 50 -29 94l-31 93q-12 29 -34 61q-33 19 -80 -2l-26 -13q-76 -147 -106 -227q-4 -10 51 -14q61 -3 63 11zM122 114q-14 140 0 386q7 115 6 163l-33 -23q-5 -2 -10 -3q-36 -10 -44 -8
q-9 2 -15 8q-17 17 -5 47q2 6 5 13q11 23 42 34l182 8q5 0 125 -17q30 -23 25 -52l-6 -14l-1 -2q-16 -19 -56 0q-41 19 -55 17l-13 -5q-2 -1 -4 -3l-13 -256q0 -75 18 -197q36 -84 86 -108q17 -8 37 -11q91 -15 168 54q24 22 45 51q16 148 15 234q-1 93 5 227q-11 14 -48 7
q-35 -6 -46 10q-12 25 16 50q8 7 18 13q101 2 127 0q23 -1 61 -3q36 -24 28 -52l-3 -8q-7 -12 -32 -5l-21 3q-8 -1 -13 -6q-6 -91 -3 -275q1 -129 -11 -280q-25 -50 -84 -74l-29 -11q-135 -50 -238 -37q-46 5 -98 22q-39 13 -80 56q-25 27 -38 38q-5 5 -10 9z" />
    <glyph glyph-name="Udieresis" unicode="&#xdc;" horiz-adv-x="802" 
d="M479 772q39 -10 67 1q19 8 32 26q24 30 12 71q-4 13 -12 28q-23 45 -63 45q-39 0 -63 -45q-17 -34 -9 -70l9 -29q10 -22 27 -27zM279 772q39 -10 67 1q19 8 32 26q24 30 12 71q-4 13 -12 28q-23 45 -63 45q-39 0 -63 -45q-17 -34 -9 -70l9 -29q10 -22 27 -27zM122 114
q-14 140 0 386q7 115 6 163l-33 -23q-5 -2 -10 -3q-36 -10 -44 -8q-9 2 -15 8q-17 17 -5 47q2 6 5 13q11 23 42 34l182 8q5 0 125 -17q30 -23 25 -52l-6 -14l-1 -2q-16 -19 -56 0q-41 19 -55 17l-13 -5q-2 -1 -4 -3l-13 -256q0 -75 18 -197q36 -84 86 -108q17 -8 37 -11
q91 -15 168 54q24 22 45 51q16 148 15 234q-1 93 5 227q-11 14 -48 7q-35 -6 -46 10q-12 25 16 50q8 7 18 13q101 2 127 0q23 -1 61 -3q36 -24 28 -52l-3 -8q-7 -12 -32 -5l-21 3q-8 -1 -13 -6q-6 -91 -3 -275q1 -129 -11 -280q-25 -50 -84 -74l-29 -11q-135 -50 -238 -37
q-46 5 -98 22q-39 13 -80 56q-25 27 -38 38q-5 5 -10 9z" />
    <glyph glyph-name="Yacute" unicode="&#xdd;" horiz-adv-x="759" 
d="M539 986q-53 27 -75 25q-16 -1 -31 -10q-32 -47 -51 -109l-14 -45q-16 -44 -29 -94q-4 -13 48 -15q48 -1 55 10q3 4 35 106q37 118 62 132zM191 14q-14 16 -3 37q4 8 11 14q13 12 48 4q33 -9 46 5q9 94 9 213q-38 79 -116 188q-57 80 -92 139q-10 6 -36 -2q-16 -5 -24 2
q-28 25 -18 58q3 11 10 19q106 9 150 7q37 -2 134 2q27 -19 20 -43q-1 -4 -3 -8q-9 -15 -42 -9l-27 2l-10 -4l-6 -7q20 -55 79 -182q29 -63 49 -125l179 290q-7 3 -49 10q-29 4 -36 25q-8 20 10 39q6 6 15 12l109 8l122 -8q20 -17 13 -40l-5 -11q-13 -19 -50 -13
q-43 6 -61 -5l-116 -211q-41 -70 -86 -130l-10 -122q-1 -33 7 -100q2 -16 30 -8q36 9 47 0q18 -17 13 -35q-1 -4 -4 -8q-142 -14 -172 -13q-17 1 -135 10z" />
    <glyph glyph-name="Thorn" unicode="&#xde;" horiz-adv-x="559" 
d="M248 300zM236 542q-10 -114 -6 -174q2 -24 6 -61q28 -24 72 -2l37 19q41 18 54 42q1 3 3 6q19 41 12 77q-3 16 -12 34q-19 38 -66 56q-4 1 -8 3q-36 13 -63 8q-11 -3 -29 -8zM372 1l-228 -8q-56 0 -110 7q-21 25 -4 44q5 6 21 20q23 8 40 -6q11 -9 22 1q3 2 5 5l2 209
q9 140 4 390l-14 -5q-24 -3 -68 6q-5 1 -11 2q-17 20 -6 46q5 13 15 22l308 -2q7 0 12 -17q6 -22 -5 -41q-2 -2 -4 -5t-76 -8l-31 -4h-1q-21 -13 -6 -33q4 -5 6 -5q97 2 152 -18q46 -17 88 -55q36 -33 42 -92l1 -11q3 -41 -14 -79q-5 -10 -12 -23q-35 -66 -66 -91l-29 -19
q-4 -2 -7 -4q-37 -18 -99 -15q-41 3 -63 1q0 -30 7 -114q0 -9 1 -19q16 -3 75 -2q51 2 68 -25q2 -3 3 -5q9 -17 -1 -31z" />
    <glyph glyph-name="germandbls" unicode="&#xdf;" horiz-adv-x="576" 
d="M267 146q-25 -47 -9 -85q5 -10 14 -24q14 -21 52 -30q-16 4 11 -2q32 -8 57 -5q12 1 28 5q58 14 78 30q11 9 20 22q32 46 24 97q-2 13 -7 28q-13 40 -57 72l-41 30q-13 10 -55 22q-35 10 -41 35q-7 29 20 50q11 9 25 13q21 7 51 -14q8 -6 12 -8q10 -7 31 -47
q12 -24 20 -11q20 43 18 59q-2 8 -7 21q-18 46 -79 63q-33 9 -60 0q-12 -4 -26 -12q-68 -42 -82 -89q-4 -14 -5 -30q-2 -46 6 -66q4 -9 13 -25q14 -26 57 -32q48 -6 64 -18q2 -2 4 -3q33 -26 39 -37q7 -11 7 -26q-3 -50 -42 -68q-10 -5 -21 -6q-29 -3 -67 53q-28 42 -35 46
q-10 6 -17 -8zM46 0q-22 0 -28 28q-1 2 -1 4q-3 20 10 35q6 6 13 12q7 5 30 2q13 -1 21 5q0 22 -1 188v48q-7 12 -34 19q-21 6 -28 17q-17 31 -9 50q2 4 4 7q8 12 34 15q20 1 28 12q4 19 4 66q0 25 2 59q23 75 74 133q35 39 68 52q4 2 8 3q25 8 54 3q6 0 14 -2
q53 -12 72 -27q7 -6 13 -14q27 -32 24 -72l-1 -8q-4 -32 -23 -40q-25 -10 -60 17q-2 2 -8 6l-38 32q-17 12 -36 8q-36 -8 -53 -57l-11 -34v-477q5 -11 25 -17q15 -4 20 -13q8 -14 5 -27q-1 -7 -5 -14q-9 -19 -28 -19h-159z" />
    <glyph glyph-name="agrave" unicode="&#xe0;" horiz-adv-x="417" 
d="M61 771q53 27 75 25q16 -1 31 -10q32 -47 51 -109l14 -45q15 -44 29 -94q4 -13 -49 -15q-47 -1 -54 10q-4 4 -35 106q-37 118 -62 132zM250 188q-2 28 -23 40q-8 4 -31 -2q-18 -5 -42 -21q-30 -19 -41 -32q-12 -17 -12 -29q2 -52 25 -67q3 -1 7 -3q8 -4 26 6q5 3 8 4
l40 17q9 6 17 15q29 33 26 72zM178 427q-33 -7 -45 -23q-11 -15 -12 -55v-10q-3 -29 -35 -39q-17 -5 -33 0q-32 9 -32 48q0 7 1 14q10 57 42 85q40 34 104 38q9 0 22 1q31 2 47 -2t32 -15q37 -25 46 -73q7 -40 7 -142q1 -18 1 -34l1 -94l2 -14l1 -19q2 -3 5 -4q14 -6 33 19
q19 24 30 23q3 -1 5 -2q11 -5 7 -30l-1 -10q-3 -45 -10 -59q-5 -9 -13 -17q-11 -10 -40 -11h-5q-38 -3 -57 6q-7 3 -20 20q-3 4 -6 7l-14 19q-3 2 -7 2q-16 2 -37 -18q-12 -11 -20 -16l-30 -19l-9 -3q-50 -10 -77 2q-7 3 -14 7q-24 16 -34 57q-9 37 -4 65q3 15 10 32
q10 27 42 54l3 3q35 28 91 51q7 3 40 6q18 2 29 11q9 8 14 29t2 42q0 6 -2 15q-6 34 -10 39q-3 7 -10 12q-11 8 -40 2z" />
    <glyph glyph-name="aacute" unicode="&#xe1;" horiz-adv-x="417" 
d="M314 771q-53 27 -75 25q-16 -1 -31 -10q-32 -47 -51 -109l-14 -45q-16 -44 -29 -94q-4 -13 48 -15q48 -1 55 10q3 4 35 106q37 118 62 132zM250 188q-2 28 -23 40q-8 4 -31 -2q-18 -5 -42 -21q-30 -19 -41 -32q-12 -17 -12 -29q2 -52 25 -67q3 -1 7 -3q8 -4 26 6q5 3 8 4
l40 17q9 6 17 15q29 33 26 72zM178 427q-33 -7 -45 -23q-11 -15 -12 -55v-10q-3 -29 -35 -39q-17 -5 -33 0q-32 9 -32 48q0 7 1 14q10 57 42 85q40 34 104 38q9 0 22 1q31 2 47 -2t32 -15q37 -25 46 -73q7 -40 7 -142q1 -18 1 -34l1 -94l2 -14l1 -19q2 -3 5 -4q14 -6 33 19
q19 24 30 23q3 -1 5 -2q11 -5 7 -30l-1 -10q-3 -45 -10 -59q-5 -9 -13 -17q-11 -10 -40 -11h-5q-38 -3 -57 6q-7 3 -20 20q-3 4 -6 7l-14 19q-3 2 -7 2q-16 2 -37 -18q-12 -11 -20 -16l-30 -19l-9 -3q-50 -10 -77 2q-7 3 -14 7q-24 16 -34 57q-9 37 -4 65q3 15 10 32
q10 27 42 54l3 3q35 28 91 51q7 3 40 6q18 2 29 11q9 8 14 29t2 42q0 6 -2 15q-6 34 -10 39q-3 7 -10 12q-11 8 -40 2z" />
    <glyph glyph-name="acircumflex" unicode="&#xe2;" horiz-adv-x="417" 
d="M149 517q10 62 28 113q27 -14 46 -82q10 -32 15 -39q8 -13 62 -10q44 3 41 15q-14 50 -29 94l-31 93q-12 29 -34 61q-33 19 -80 -2l-26 -13q-76 -147 -106 -227q-4 -10 51 -14q61 -3 63 11zM250 188q-2 28 -23 40q-8 4 -31 -2q-18 -5 -42 -21q-30 -19 -41 -32
q-12 -17 -12 -29q2 -52 25 -67q3 -1 7 -3q8 -4 26 6q5 3 8 4l40 17q9 6 17 15q29 33 26 72zM178 427q-33 -7 -45 -23q-11 -15 -12 -55v-10q-3 -29 -35 -39q-17 -5 -33 0q-32 9 -32 48q0 7 1 14q10 57 42 85q40 34 104 38q9 0 22 1q31 2 47 -2t32 -15q37 -25 46 -73
q7 -40 7 -142q1 -18 1 -34l1 -94l2 -14l1 -19q2 -3 5 -4q14 -6 33 19q19 24 30 23q3 -1 5 -2q11 -5 7 -30l-1 -10q-3 -45 -10 -59q-5 -9 -13 -17q-11 -10 -40 -11h-5q-38 -3 -57 6q-7 3 -20 20q-3 4 -6 7l-14 19q-3 2 -7 2q-16 2 -37 -18q-12 -11 -20 -16l-30 -19l-9 -3
q-50 -10 -77 2q-7 3 -14 7q-24 16 -34 57q-9 37 -4 65q3 15 10 32q10 27 42 54l3 3q35 28 91 51q7 3 40 6q18 2 29 11q9 8 14 29t2 42q0 6 -2 15q-6 34 -10 39q-3 7 -10 12q-11 8 -40 2z" />
    <glyph glyph-name="atilde" unicode="&#xe3;" horiz-adv-x="417" 
d="M161 658q15 -1 44 -18l18 -9l33 -16q7 -2 14 -1q13 1 29 22q14 18 27 18q34 -1 42 -25q1 -4 1 -7q1 -10 -16 -20l-10 -6l-43 -36q-18 -11 -39 -12q-23 -2 -53 25q-31 26 -54 25q-14 0 -33 -21q-16 -18 -31 -15q-28 4 -34 30q-1 4 -1 9q1 16 25 30q9 6 11 7q37 22 70 20z
M250 188q-2 28 -23 40q-8 4 -31 -2q-18 -5 -42 -21q-30 -19 -41 -32q-12 -17 -12 -29q2 -52 25 -67q3 -1 7 -3q8 -4 26 6q5 3 8 4l40 17q9 6 17 15q29 33 26 72zM178 427q-33 -7 -45 -23q-11 -15 -12 -55v-10q-3 -29 -35 -39q-17 -5 -33 0q-32 9 -32 48q0 7 1 14
q10 57 42 85q40 34 104 38q9 0 22 1q31 2 47 -2t32 -15q37 -25 46 -73q7 -40 7 -142q1 -18 1 -34l1 -94l2 -14l1 -19q2 -3 5 -4q14 -6 33 19q19 24 30 23q3 -1 5 -2q11 -5 7 -30l-1 -10q-3 -45 -10 -59q-5 -9 -13 -17q-11 -10 -40 -11h-5q-38 -3 -57 6q-7 3 -20 20
q-3 4 -6 7l-14 19q-3 2 -7 2q-16 2 -37 -18q-12 -11 -20 -16l-30 -19l-9 -3q-50 -10 -77 2q-7 3 -14 7q-24 16 -34 57q-9 37 -4 65q3 15 10 32q10 27 42 54l3 3q35 28 91 51q7 3 40 6q18 2 29 11q9 8 14 29t2 42q0 6 -2 15q-6 34 -10 39q-3 7 -10 12q-11 8 -40 2z" />
    <glyph glyph-name="adieresis" unicode="&#xe4;" horiz-adv-x="417" 
d="M231 537q29 -7 51 2q14 6 24 19q17 23 8 53q-3 10 -8 21q-18 34 -48 34t-47 -34q-13 -26 -7 -53q2 -10 7 -21q7 -17 20 -21zM81 537q29 -7 51 2q14 6 24 19q17 23 8 53q-3 10 -8 21q-18 34 -48 34t-47 -34q-13 -26 -7 -53q2 -10 7 -21q7 -17 20 -21zM250 188
q-2 28 -23 40q-8 4 -31 -2q-18 -5 -42 -21q-30 -19 -41 -32q-12 -17 -12 -29q2 -52 25 -67q3 -1 7 -3q8 -4 26 6q5 3 8 4l40 17q9 6 17 15q29 33 26 72zM178 427q-33 -7 -45 -23q-11 -15 -12 -55v-10q-3 -29 -35 -39q-17 -5 -33 0q-32 9 -32 48q0 7 1 14q10 57 42 85
q40 34 104 38q9 0 22 1q31 2 47 -2t32 -15q37 -25 46 -73q7 -40 7 -142q1 -18 1 -34l1 -94l2 -14l1 -19q2 -3 5 -4q14 -6 33 19q19 24 30 23q3 -1 5 -2q11 -5 7 -30l-1 -10q-3 -45 -10 -59q-5 -9 -13 -17q-11 -10 -40 -11h-5q-38 -3 -57 6q-7 3 -20 20q-3 4 -6 7l-14 19
q-3 2 -7 2q-16 2 -37 -18q-12 -11 -20 -16l-30 -19l-9 -3q-50 -10 -77 2q-7 3 -14 7q-24 16 -34 57q-9 37 -4 65q3 15 10 32q10 27 42 54l3 3q35 28 91 51q7 3 40 6q18 2 29 11q9 8 14 29t2 42q0 6 -2 15q-6 34 -10 39q-3 7 -10 12q-11 8 -40 2z" />
    <glyph glyph-name="aring" unicode="&#xe5;" horiz-adv-x="417" 
d="M175 707q16 10 33 8q3 0 7 -1q12 -3 24 -17q15 -20 20 -48q4 -28 -1 -49q-2 -11 -7 -24q-8 -22 -19 -28q-10 -6 -31 -3q-24 3 -32 11q-18 17 -22 49q-5 29 2 54q3 9 7 20q7 20 19 28zM203 512q26 0 34 2q20 7 31 19q15 16 26 48q6 22 5 48v12q-2 35 -10 54q-7 15 -27 35
q-17 17 -42 18q-1 0 -6 1q-29 1 -49 -8q-11 -5 -23 -14q-26 -20 -39 -66q-8 -28 -6 -52l5 -24q6 -26 32 -52q15 -14 36 -19q8 -3 33 -2zM250 188q-2 28 -23 40q-8 4 -31 -2q-18 -5 -42 -21q-30 -19 -41 -32q-12 -17 -12 -29q2 -52 25 -67q3 -1 7 -3q8 -4 26 6q5 3 8 4l40 17
q9 6 17 15q29 33 26 72zM178 427q-33 -7 -45 -23q-11 -15 -12 -55v-10q-3 -29 -35 -39q-17 -5 -33 0q-32 9 -32 48q0 7 1 14q10 57 42 85q40 34 104 38q9 0 22 1q31 2 47 -2t32 -15q37 -25 46 -73q7 -40 7 -142q1 -18 1 -34l1 -94l2 -14l1 -19q2 -3 5 -4q14 -6 33 19
q19 24 30 23q3 -1 5 -2q11 -5 7 -30l-1 -10q-3 -45 -10 -59q-5 -9 -13 -17q-11 -10 -40 -11h-5q-38 -3 -57 6q-7 3 -20 20q-3 4 -6 7l-14 19q-3 2 -7 2q-16 2 -37 -18q-12 -11 -20 -16l-30 -19l-9 -3q-50 -10 -77 2q-7 3 -14 7q-24 16 -34 57q-9 37 -4 65q3 15 10 32
q10 27 42 54l3 3q35 28 91 51q7 3 40 6q18 2 29 11q9 8 14 29t2 42q0 6 -2 15q-6 34 -10 39q-3 7 -10 12q-11 8 -40 2z" />
    <glyph glyph-name="ae" unicode="&#xe6;" horiz-adv-x="604" 
d="M258 188q-2 28 -23 40q-8 4 -31 -2q-18 -5 -42 -21q-31 -19 -41 -32q-12 -17 -12 -29q2 -52 25 -67q3 -1 7 -3q8 -4 26 6q4 3 8 4l40 17q9 6 17 15q28 33 26 72zM365 337q7 -9 79 -3q41 3 42 9l3 40q-2 15 -13 23q-24 17 -57 0l-17 -10q-34 -22 -39 -45q-2 -9 2 -14z
M298 487l119 -1q33 -3 66 -12l52 -14q21 -9 33 -31q26 -54 18 -91q-2 -13 -9 -31q-10 -26 -28 -28q-107 -11 -186 -11q-14 0 -15 1q-3 -24 -2 -48q1 -15 4 -31q9 -55 30 -79q5 -5 11 -10q16 -14 54 -17q5 -1 8 -1q39 -4 48 -1q8 2 15 7q11 8 18 34q1 6 3 10q7 23 31 15
q22 -8 21 -27q-4 -51 -8 -60l-9 -15q-16 -26 -42 -37q-17 -7 -54 -4h-14l-65 3l-73 -6l-30 4q-3 1 -5 2q-7 4 -21 21q-3 3 -5 6l-14 18q-3 3 -7 3q-17 2 -37 -18q-12 -11 -20 -16l-30 -19l-9 -3q-48 -10 -75 0q-8 4 -16 9q-24 15 -34 57q-9 37 -3 66q2 14 9 31q10 27 45 57
q33 28 91 51q7 3 40 6q18 2 29 11q9 7 14 29q5 21 2 41q0 7 -2 16q-7 34 -9 39q-4 7 -11 12q-12 8 -40 2q-33 -7 -45 -23q-11 -15 -12 -56v-9q-4 -29 -35 -39q-17 -5 -33 0q-32 10 -32 49q0 7 1 13q10 57 42 85q31 27 89 34q31 4 37 5q25 4 93 1h7z" />
    <glyph glyph-name="ccedilla" unicode="&#xe7;" horiz-adv-x="432" 
d="M177 93q-54 32 -63 97q-8 58 5 106q5 19 14 43q15 38 33 52q3 1 5 3q32 21 67 16l12 -2q15 -3 37 -24q6 -6 12 -10q3 -3 21 -24q12 -13 25 -12q23 1 29 28q7 30 -15 58q-5 7 -14 16q-33 33 -71 37l-26 1q-58 2 -97 -16q-23 -10 -46 -28q-47 -37 -69 -101l-9 -30
q-17 -59 -11 -108q2 -21 8 -45q12 -55 61 -100q1 -2 3 -3q14 -13 27 -21q1 -9 2 -22q2 -18 31 -28q32 -11 41 -26q9 -18 6 -37q-2 -8 -6 -17q-8 -18 -45 -37q-32 -16 -36 -31v-13q6 -31 60 -30h6q32 2 62 34q2 3 4 5q45 50 61 120q3 11 5 24q6 30 6 47q30 11 45 31
q14 19 16 32q0 2 2 43q1 19 -20 27q-24 8 -32 -15q-12 -35 -12 -34q-5 -9 -15 -15q-40 -22 -90 -4q-15 5 -29 13z" />
    <glyph glyph-name="egrave" unicode="&#xe8;" horiz-adv-x="364" 
d="M81 730q53 27 75 25q16 -1 31 -10q32 -47 51 -109l14 -45q15 -44 29 -94q4 -13 -49 -15q-47 -1 -54 10q-4 4 -35 106q-37 118 -62 132zM112 269q-3 -24 -2 -48q1 -15 4 -31q9 -55 30 -79q5 -5 11 -10q16 -13 53 -17q5 -1 9 -1q40 -3 46 -2q9 2 17 8q10 7 18 33q1 6 3 11
q8 23 31 15q22 -8 21 -27q-4 -50 -8 -60l-9 -15q-14 -24 -42 -37q-17 -7 -55 -4h-13q-46 -2 -61 2q-2 0 -4 1q-42 11 -73 39q-49 47 -61 93q-2 5 -3 10q-14 57 -8 102q3 23 11 51q21 75 54 109q10 11 24 22q60 45 129 41q6 0 13 -1q52 -5 70 -24q9 -8 15 -21q27 -54 19 -91
q-3 -13 -10 -31q-9 -27 -28 -28q-107 -11 -186 -11zM129 337q7 -9 79 -3q41 3 42 9l3 40q-2 15 -13 23q-24 17 -57 0l-17 -10q-33 -22 -39 -45q-2 -9 2 -14z" />
    <glyph glyph-name="eacute" unicode="&#xe9;" horiz-adv-x="364" 
d="M268 733q-53 27 -75 25q-16 -1 -31 -10q-32 -47 -51 -109l-14 -45q-16 -44 -29 -94q-4 -13 48 -15q48 -1 55 10q3 4 35 106q37 118 62 132zM112 269q-3 -24 -2 -48q1 -15 4 -31q9 -55 30 -79q5 -5 11 -10q16 -13 53 -17q5 -1 9 -1q40 -3 46 -2q9 2 17 8q10 7 18 33
q1 6 3 11q8 23 31 15q22 -8 21 -27q-4 -50 -8 -60l-9 -15q-14 -24 -42 -37q-17 -7 -55 -4h-13q-46 -2 -61 2q-2 0 -4 1q-42 11 -73 39q-49 47 -61 93q-2 5 -3 10q-14 57 -8 102q3 23 11 51q21 75 54 109q10 11 24 22q60 45 129 41q6 0 13 -1q52 -5 70 -24q9 -8 15 -21
q27 -54 19 -91q-3 -13 -10 -31q-9 -27 -28 -28q-107 -11 -186 -11zM129 337q7 -9 79 -3q41 3 42 9l3 40q-2 15 -13 23q-24 17 -57 0l-17 -10q-33 -22 -39 -45q-2 -9 2 -14z" />
    <glyph glyph-name="ecircumflex" unicode="&#xea;" horiz-adv-x="364" 
d="M145 497q10 62 28 113q27 -14 46 -82q10 -32 15 -39q8 -13 62 -10q44 3 41 15q-14 50 -29 94l-31 93q-12 29 -34 61q-33 19 -80 -2l-26 -13q-76 -147 -106 -227q-4 -10 51 -14q61 -3 63 11zM112 269q-3 -24 -2 -48q1 -15 4 -31q9 -55 30 -79q5 -5 11 -10q16 -13 53 -17
q5 -1 9 -1q40 -3 46 -2q9 2 17 8q10 7 18 33q1 6 3 11q8 23 31 15q22 -8 21 -27q-4 -50 -8 -60l-9 -15q-14 -24 -42 -37q-17 -7 -55 -4h-13q-46 -2 -61 2q-2 0 -4 1q-42 11 -73 39q-49 47 -61 93q-2 5 -3 10q-14 57 -8 102q3 23 11 51q21 75 54 109q10 11 24 22
q60 45 129 41q6 0 13 -1q52 -5 70 -24q9 -8 15 -21q27 -54 19 -91q-3 -13 -10 -31q-9 -27 -28 -28q-107 -11 -186 -11zM129 337q7 -9 79 -3q41 3 42 9l3 40q-2 15 -13 23q-24 17 -57 0l-17 -10q-33 -22 -39 -45q-2 -9 2 -14z" />
    <glyph glyph-name="edieresis" unicode="&#xeb;" horiz-adv-x="364" 
d="M263 504q29 -7 51 2q14 6 24 19q17 23 8 53q-3 10 -8 21q-18 34 -48 34t-47 -34q-13 -26 -7 -53l7 -21q7 -17 20 -21zM113 504q29 -7 51 2q14 6 24 19q17 23 8 53q-3 10 -8 21q-18 34 -48 34t-47 -34q-13 -26 -7 -53l7 -21q7 -17 20 -21zM112 269q-3 -24 -2 -48
q1 -15 4 -31q9 -55 30 -79q5 -5 11 -10q16 -13 53 -17q5 -1 9 -1q40 -3 46 -2q9 2 17 8q10 7 18 33q1 6 3 11q8 23 31 15q22 -8 21 -27q-4 -50 -8 -60l-9 -15q-14 -24 -42 -37q-17 -7 -55 -4h-13q-46 -2 -61 2q-2 0 -4 1q-42 11 -73 39q-49 47 -61 93q-2 5 -3 10
q-14 57 -8 102q3 23 11 51q21 75 54 109q10 11 24 22q60 45 129 41q6 0 13 -1q52 -5 70 -24q9 -8 15 -21q27 -54 19 -91q-3 -13 -10 -31q-9 -27 -28 -28q-107 -11 -186 -11zM129 337q7 -9 79 -3q41 3 42 9l3 40q-2 15 -13 23q-24 17 -57 0l-17 -10q-33 -22 -39 -45
q-2 -9 2 -14z" />
    <glyph glyph-name="igrave" unicode="&#xec;" horiz-adv-x="250" 
d="M26 721q53 27 75 25q16 -1 31 -10q32 -47 51 -109l14 -45q15 -44 29 -94q4 -13 -49 -15q-47 -1 -54 10q-4 4 -35 106q-37 118 -62 132zM15 406q26 12 57 23l43 15q9 1 18 0q37 -5 51 -29q17 -29 7 -79l-9 -48v-10l-5 -204v-2q5 -13 30 -18q17 -4 22 -14q7 -14 4 -26
q-2 -8 -9 -14h-199q-13 10 -9 25q1 5 3 9q8 15 39 17q30 2 39 15l-2 174q-1 36 -4 86q-9 23 -34 42q-26 19 -42 38z" />
    <glyph glyph-name="iacute" unicode="&#xed;" horiz-adv-x="250" 
d="M213 721q-53 27 -75 25q-16 -1 -31 -10q-32 -47 -51 -109l-14 -45q-16 -44 -29 -94q-4 -13 48 -15q48 -1 55 10q3 4 35 106q37 118 62 132zM15 406q26 12 57 23l43 15q9 1 18 0q37 -5 51 -29q17 -29 7 -79l-9 -48v-10l-5 -204v-2q5 -13 30 -18q17 -4 22 -14q7 -14 4 -26
q-2 -8 -9 -14h-199q-13 10 -9 25q1 5 3 9q8 15 39 17q30 2 39 15l-2 174q-1 36 -4 86q-9 23 -34 42q-26 19 -42 38z" />
    <glyph glyph-name="icircumflex" unicode="&#xee;" horiz-adv-x="250" 
d="M99.5 483.75q7.5 46.5 21 84.75q20.25 -10.5 34.5 -61.5q7.5 -24 11.25 -29.25q6 -9.75 46.5 -7.5q33 2.25 30.75 11.25q-10.5 37.5 -21.75 70.5l-23.25 69.75q-9 21.75 -25.5 45.75q-24.75 14.25 -60 -1.5l-19.5 -9.75q-57 -110.25 -79.5 -170.25q-3 -7.5 38.25 -10.5
q45.75 -2.25 47.25 8.25zM15 406q26 12 57 23l43 15q9 1 18 0q37 -5 51 -29q17 -29 7 -79l-9 -48v-10l-5 -204v-2q5 -13 30 -18q17 -4 22 -14q7 -14 4 -26q-2 -8 -9 -14h-199q-13 10 -9 25q1 5 3 9q8 15 39 17q30 2 39 15l-2 174q-1 36 -4 86q-9 23 -34 42q-26 19 -42 38z
" />
    <glyph glyph-name="idieresis" unicode="&#xef;" horiz-adv-x="250" 
d="M160 490q21 -6 37 1q11 4 18 14q13 17 7 40q-2 8 -7 16q-13 25 -35 25q-23 0 -36 -25q-9 -19 -5 -39l5 -17q6 -12 16 -15zM47 490q22 -6 38 1q10 4 18 14q13 17 6 40q-2 8 -6 16q-13 25 -36 25q-22 0 -35 -25q-10 -19 -5 -39l5 -17q5 -12 15 -15zM15 406q26 12 57 23
l43 15q9 1 18 0q37 -5 51 -29q17 -29 7 -79l-9 -48v-10l-5 -204v-2q5 -13 30 -18q17 -4 22 -14q7 -14 4 -26q-2 -8 -9 -14h-199q-13 10 -9 25q1 5 3 9q8 15 39 17q30 2 39 15l-2 174q-1 36 -4 86q-9 23 -34 42q-26 19 -42 38z" />
    <glyph glyph-name="eth" unicode="&#xf0;" horiz-adv-x="432" 
d="M342 232q0 20 -4 46q-8 56 -39 96q-23 28 -49 34q-30 7 -54 -1q-12 -5 -25 -13q-23 -15 -37 -51q0 -2 -1 -4q-28 -72 -21 -132q1 -8 2 -17q9 -60 39 -91l6 -6q17 -16 56 -22q4 -1 7 -1q39 -5 54 2l8 4q23 13 37 50l-4 6q20 52 25 100zM303 642q5 2 11 2q20 3 25 3
q16 0 28 -9q20 -17 20 -38q0 -6 -2 -13q-6 -17 -20 -27q17 -37 25 -86l18 -96q2 -20 4 -49q5 -20 7 -67q2 -52 -2 -79q-3 -19 -9 -41q-17 -59 -45 -89q-3 -4 -6 -7q-24 -25 -63 -37q-16 -5 -60 -4h-8h-52q-7 1 -13 3q-44 12 -73 39q-49 46 -62 97l-2 6q-14 57 -8 102
q3 23 11 51q21 75 54 109q10 11 24 22q57 45 128 44h15q44 -2 61 -11q-11 43 -22 64q-40 -13 -59 -13q-24 0 -43 15q-13 11 -13 27q0 10 5 20q10 19 34 27q-41 29 -118 71q-23 12 12 25q46 15 86 5q6 -1 10 -3q63 -29 102 -63z" />
    <glyph glyph-name="ntilde" unicode="&#xf1;" horiz-adv-x="470" 
d="M177 675q15 -1 44 -18l18 -9l33 -16q7 -2 14 -1q13 1 29 22q14 18 27 18q34 -1 42 -25q1 -4 1 -7q1 -10 -16 -20l-10 -6l-43 -36q-18 -11 -39 -12q-23 -2 -53 25q-31 26 -54 25q-14 0 -33 -21q-16 -18 -31 -15q-28 4 -34 30q-1 4 -1 9q1 16 25 30q9 6 11 7q37 22 70 20z
M383 448q-8 11 -33 20l-12 4l-39 19q-10 4 -21 4q-9 0 -35 -10q-4 -2 -8 -3l-51 -23q-12 -4 -25 0q-7 2 -14 17q-3 8 -8 11q-18 14 -28 16l-12 1q-42 -42 -86 -81q-5 -5 -11 -10q2 -11 24 -15q21 -3 27 -13l1 -266q-5 -10 -30 -24q-18 -10 -22 -23q-6 -17 2 -34q3 -5 7 -11
q9 -12 29 -18h127q24 6 29 22q-1 -1 3 11q7 21 -3 42q-3 7 -8 15q-3 4 -20 12l-8 7l-1 1v211q10 23 40 40q31 17 57 15q23 -3 38 -19q9 -11 12 -34q-1 -147 0 -213q-5 -10 -29 -20l-17 -8q-5 -5 -8 -11q-8 -19 6 -52q6 -16 17 -21q122 -1 154 0q18 9 22 27q8 27 2 46
q-3 13 -13 24q-5 6 -25 7l-11 4q-3 1 -4 4v192q-1 18 -2 38q9 21 3 55q-4 26 -16 44z" />
    <glyph glyph-name="ograve" unicode="&#xf2;" horiz-adv-x="432" 
d="M144 733q53 27 75 25q16 -1 31 -10q32 -47 51 -109l14 -45q15 -44 29 -94q4 -13 -49 -15q-47 -1 -54 10q-4 4 -35 106q-37 118 -62 132zM171 394q32 21 66 16q6 0 13 -2q25 -5 49 -34q30 -39 39 -96q8 -56 -1 -97q-4 -22 -14 -48q-13 -39 -30 -51q-4 -3 -9 -6
q-19 -12 -55 -7q-5 1 -7 1q-42 6 -56 17q-3 3 -7 6q-35 32 -44 88q0 4 -1 9q-9 58 5 109q5 17 14 40q14 38 35 53q1 1 3 2zM226 5q50 0 60 2l8 2q41 14 63 37q30 31 48 86q1 4 3 10q13 45 12 96q0 9 -1 24q-3 66 -17 100l-4 8q-14 31 -53 70q-33 33 -70 36q-7 1 -27 2
q-58 2 -97 -16q-22 -10 -46 -28q-48 -37 -69 -100q-4 -13 -9 -31q-17 -57 -12 -105q3 -22 9 -48q12 -51 58 -97l6 -6q31 -28 73 -39q17 -5 65 -3z" />
    <glyph glyph-name="oacute" unicode="&#xf3;" horiz-adv-x="432" 
d="M302 733q-53 27 -75 25q-16 -1 -31 -10q-32 -47 -51 -109l-14 -45q-16 -44 -29 -94q-4 -13 48 -15q48 -1 55 10q3 4 35 106q37 118 62 132zM171 394q32 21 66 16q6 0 13 -2q25 -5 49 -34q30 -39 39 -96q8 -56 -1 -97q-4 -22 -14 -48q-13 -39 -30 -51q-4 -3 -9 -6
q-19 -12 -55 -7q-5 1 -7 1q-42 6 -56 17q-3 3 -7 6q-35 32 -44 88q0 4 -1 9q-9 58 5 109q5 17 14 40q14 38 35 53q1 1 3 2zM226 5q50 0 60 2l8 2q41 14 63 37q30 31 48 86q1 4 3 10q13 45 12 96q0 9 -1 24q-3 66 -17 100l-4 8q-14 31 -53 70q-33 33 -70 36q-7 1 -27 2
q-58 2 -97 -16q-22 -10 -46 -28q-48 -37 -69 -100q-4 -13 -9 -31q-17 -57 -12 -105q3 -22 9 -48q12 -51 58 -97l6 -6q31 -28 73 -39q17 -5 65 -3z" />
    <glyph glyph-name="ocircumflex" unicode="&#xf4;" horiz-adv-x="432" 
d="M200 529q7 46 21 85q20 -11 36 -65q6 -21 10 -26q7 -11 51 -7q28 3 26 11q-10 37 -22 71l-24 72q-9 20 -24 43q-26 15 -64 -4q-4 -2 -16 -7q-57 -112 -79 -171q-4 -9 43 -10q41 -2 42 8zM171 394q32 21 66 16q6 0 13 -2q25 -5 49 -34q30 -39 39 -96q8 -56 -1 -97
q-4 -22 -14 -48q-13 -39 -30 -51q-4 -3 -9 -6q-19 -12 -55 -7q-5 1 -7 1q-42 6 -56 17q-3 3 -7 6q-35 32 -44 88q0 4 -1 9q-9 58 5 109q5 17 14 40q14 38 35 53q1 1 3 2zM226 5q50 0 60 2l8 2q41 14 63 37q30 31 48 86q1 4 3 10q13 45 12 96q0 9 -1 24q-3 66 -17 100l-4 8
q-14 31 -53 70q-33 33 -70 36q-7 1 -27 2q-58 2 -97 -16q-22 -10 -46 -28q-48 -37 -69 -100q-4 -13 -9 -31q-17 -57 -12 -105q3 -22 9 -48q12 -51 58 -97l6 -6q31 -28 73 -39q17 -5 65 -3z" />
    <glyph glyph-name="otilde" unicode="&#xf5;" horiz-adv-x="432" 
d="M184 649q15 -1 44 -18l18 -9l33 -16q7 -2 14 -1q13 1 29 22q14 18 27 18q34 -1 42 -25q1 -4 1 -7q1 -10 -16 -20l-10 -6l-43 -36q-18 -11 -39 -12q-23 -2 -53 25q-31 26 -54 25q-14 0 -33 -21q-16 -18 -31 -15q-28 4 -34 30q-1 4 -1 9q1 16 25 30q9 6 11 7q37 22 70 20z
M171 394q32 21 66 16q6 0 13 -2q25 -5 49 -34q30 -39 39 -96q8 -56 -1 -97q-4 -22 -14 -48q-13 -39 -30 -51q-4 -3 -9 -6q-19 -12 -55 -7q-5 1 -7 1q-42 6 -56 17q-3 3 -7 6q-35 32 -44 88q0 4 -1 9q-9 58 5 109q5 17 14 40q14 38 35 53q1 1 3 2zM226 5q50 0 60 2l8 2
q41 14 63 37q30 31 48 86q1 4 3 10q13 45 12 96q0 9 -1 24q-3 66 -17 100l-4 8q-14 31 -53 70q-33 33 -70 36q-7 1 -27 2q-58 2 -97 -16q-22 -10 -46 -28q-48 -37 -69 -100q-4 -13 -9 -31q-17 -57 -12 -105q3 -22 9 -48q12 -51 58 -97l6 -6q31 -28 73 -39q17 -5 65 -3z" />
    <glyph glyph-name="odieresis" unicode="&#xf6;" horiz-adv-x="432" 
d="M284 565q29 -8 51 1q14 6 24 19q17 23 8 54q-3 9 -8 20q-18 34 -48 34q-29 0 -47 -34q-13 -25 -7 -52l7 -22q7 -17 20 -20zM134 565q29 -8 51 1q14 6 24 19q17 23 8 54q-3 9 -8 20q-18 34 -48 34q-29 0 -47 -34q-13 -25 -7 -52l7 -22q7 -17 20 -20zM171 394q32 21 66 16
q6 0 13 -2q25 -5 49 -34q30 -39 39 -96q8 -56 -1 -97q-4 -22 -14 -48q-13 -39 -30 -51q-4 -3 -9 -6q-19 -12 -55 -7q-5 1 -7 1q-42 6 -56 17q-3 3 -7 6q-35 32 -44 88q0 4 -1 9q-9 58 5 109q5 17 14 40q14 38 35 53q1 1 3 2zM226 5q50 0 60 2l8 2q41 14 63 37q30 31 48 86
q1 4 3 10q13 45 12 96q0 9 -1 24q-3 66 -17 100l-4 8q-14 31 -53 70q-33 33 -70 36q-7 1 -27 2q-58 2 -97 -16q-22 -10 -46 -28q-48 -37 -69 -100q-4 -13 -9 -31q-17 -57 -12 -105q3 -22 9 -48q12 -51 58 -97l6 -6q31 -28 73 -39q17 -5 65 -3z" />
    <glyph glyph-name="divide" unicode="&#xf7;" horiz-adv-x="346" 
d="M154 323q22 -6 38 1q11 4 18 14q13 17 6 40q-2 7 -6 16q-13 25 -35 25q-23 0 -36 -25q-10 -19 -5 -39q1 -8 5 -17q5 -13 15 -15zM154 50q22 -6 38 1q11 4 18 14q13 17 6 40q-2 7 -6 16q-13 25 -35 25q-23 0 -36 -25q-10 -19 -5 -39q1 -8 5 -17q5 -13 15 -15zM33 202
q-14 20 -6 43q4 11 12 20q21 24 68 24q36 1 49 3l57 10q12 1 24 -1q42 -6 55 -15l11 -12q22 -30 13 -57q-2 -8 -7 -15q-22 -32 -77 -35q55 3 -40 -1q-79 -3 -83 -3q-50 4 -76 39z" />
    <glyph glyph-name="oslash" unicode="&#xf8;" horiz-adv-x="468" 
d="M332 456q41 61 37 67l56 -2q17 -3 26 -18q-30 -32 -77 -88q18 -20 29 -45q18 -38 21 -101v-7q2 -47 -1 -72q-2 -22 -10 -48q-19 -60 -43 -88l-8 -8q-22 -23 -63 -37q-21 -5 -68 -4q-46 -2 -60 2q-2 0 -5 1q-37 10 -61 29l-2 -17v-2q-38 -3 -63 3q-12 3 -19 4q-11 4 17 47
q10 16 14 23q-16 24 -23 55q-14 57 -8 102q3 23 11 51q21 75 54 109q11 11 24 22q56 44 128 44h15q48 -2 68 -14q6 -3 11 -8zM284 395q-12 9 -29 13q-29 7 -54 -1q-12 -5 -25 -13q-23 -15 -36 -51l-2 -4q-27 -72 -21 -132q1 -8 2 -17l1 -1l54 73q77 96 83 106q8 12 23 24
q2 2 4 3zM321 350l-47 -58l-86 -116l-33 -36l-12 -20l-1 -1q9 -13 22 -26q17 -16 56 -22q5 -1 7 -1q39 -5 54 2l8 4q24 13 36 48q1 2 3 9q23 61 18 119q-1 12 -3 26q-6 45 -22 72z" />
    <glyph glyph-name="ugrave" unicode="&#xf9;" horiz-adv-x="438" 
d="M85 727q53 27 75 25q16 -1 31 -10q32 -47 51 -109l14 -45q15 -44 29 -94q4 -13 -49 -15q-47 -1 -54 10q-4 4 -35 106q-37 118 -62 132zM429 76l-30 23q-4 4 -22 28v283q2 5 16 18q9 8 7 16q-2 12 -24 20l-4 2q-33 14 -78 9q-5 0 -13 -1q-37 -5 -44 -8q-7 -4 -13 -11
q-14 -16 -9 -33l3 -7q8 -13 39 -12q26 1 34 -10l1 -232v-2q-20 -49 -51 -59q-5 -2 -12 -3q-38 -6 -68 20q-12 11 -21 25v307q-8 17 -34 23q-8 3 -19 1l-4 -1q-50 -13 -63 -23q-12 -8 -20 -22q-5 -8 -3 -16q1 -3 3 -7q5 -9 27 -16q14 -4 19 -13l1 -278v-2q11 -46 40 -72
q24 -22 57 -23q23 -1 65 17q18 8 32 11l22 7q3 0 6 -1l28 -37q6 -6 18 -6q56 18 80 44q8 7 34 41z" />
    <glyph glyph-name="uacute" unicode="&#xfa;" horiz-adv-x="438" 
d="M311 723q-53 27 -75 25q-16 -1 -31 -10q-32 -47 -51 -109l-14 -45q-16 -44 -29 -94q-4 -13 48 -15q48 -1 55 10q3 4 35 106q37 118 62 132zM429 76l-30 23q-4 4 -22 28v283q2 5 16 18q9 8 7 16q-2 12 -24 20l-4 2q-33 14 -78 9q-5 0 -13 -1q-37 -5 -44 -8q-7 -4 -13 -11
q-14 -16 -9 -33l3 -7q8 -13 39 -12q26 1 34 -10l1 -232v-2q-20 -49 -51 -59q-5 -2 -12 -3q-38 -6 -68 20q-12 11 -21 25v307q-8 17 -34 23q-8 3 -19 1l-4 -1q-50 -13 -63 -23q-12 -8 -20 -22q-5 -8 -3 -16q1 -3 3 -7q5 -9 27 -16q14 -4 19 -13l1 -278v-2q11 -46 40 -72
q24 -22 57 -23q23 -1 65 17q18 8 32 11l22 7q3 0 6 -1l28 -37q6 -6 18 -6q56 18 80 44q8 7 34 41z" />
    <glyph glyph-name="ucircumflex" unicode="&#xfb;" horiz-adv-x="438" 
d="M157 499q10 62 28 113q27 -14 46 -82q10 -32 15 -39q8 -13 62 -10q44 3 41 15q-14 50 -29 94l-31 93q-12 29 -34 61q-33 19 -80 -2l-26 -13q-76 -147 -106 -227q-4 -10 51 -14q61 -3 63 11zM429 76l-30 23q-4 4 -22 28v283q2 5 16 18q9 8 7 16q-2 12 -24 20l-4 2
q-33 14 -78 9q-5 0 -13 -1q-37 -5 -44 -8q-7 -4 -13 -11q-14 -16 -9 -33l3 -7q8 -13 39 -12q26 1 34 -10l1 -232v-2q-20 -49 -51 -59q-5 -2 -12 -3q-38 -6 -68 20q-12 11 -21 25v307q-8 17 -34 23q-8 3 -19 1l-4 -1q-50 -13 -63 -23q-12 -8 -20 -22q-5 -8 -3 -16q1 -3 3 -7
q5 -9 27 -16q14 -4 19 -13l1 -278v-2q11 -46 40 -72q24 -22 57 -23q23 -1 65 17q18 8 32 11l22 7q3 0 6 -1l28 -37q6 -6 18 -6q56 18 80 44q8 7 34 41z" />
    <glyph glyph-name="udieresis" unicode="&#xfc;" horiz-adv-x="438" 
d="M250 528q29 -7 50 2q14 6 24 19q17 23 8 53q-3 10 -8 21q-18 34 -47 34q-30 0 -48 -34q-13 -26 -7 -53l7 -21q7 -17 21 -21zM100 528q29 -7 50 2q14 6 24 19q17 23 8 53q-3 10 -8 21q-18 34 -47 34q-30 0 -48 -34q-13 -26 -7 -53l7 -21q7 -17 21 -21zM429 76l-30 23
q-4 4 -22 28v283q2 5 16 18q9 8 7 16q-2 12 -24 20l-4 2q-33 14 -78 9q-5 0 -13 -1q-37 -5 -44 -8q-7 -4 -13 -11q-14 -16 -9 -33l3 -7q8 -13 39 -12q26 1 34 -10l1 -232v-2q-20 -49 -51 -59q-5 -2 -12 -3q-38 -6 -68 20q-12 11 -21 25v307q-8 17 -34 23q-8 3 -19 1l-4 -1
q-50 -13 -63 -23q-12 -8 -20 -22q-5 -8 -3 -16q1 -3 3 -7q5 -9 27 -16q14 -4 19 -13l1 -278v-2q11 -46 40 -72q24 -22 57 -23q23 -1 65 17q18 8 32 11l22 7q3 0 6 -1l28 -37q6 -6 18 -6q56 18 80 44q8 7 34 41z" />
    <glyph glyph-name="yacute" unicode="&#xfd;" horiz-adv-x="491" 
d="M400 744q-53 27 -75 25q-16 -1 -31 -10q-32 -47 -51 -109l-14 -45q-16 -44 -29 -94q-4 -13 48 -15q48 -1 55 10q3 4 35 106q37 118 62 132zM112 -104q-12 -6 -38 4q-18 7 -30 1q-25 -11 -31 -32q-3 -8 -4 -19q-15 -37 -5 -59q2 -5 5 -9q49 -36 80 -34q12 1 28 7
q131 239 246 484q47 100 78 165l29 8l2 4q13 25 -2 51q-5 9 -13 18q-21 12 -66 10q-56 -3 -91 -21q-13 -15 -9 -33q2 -10 9 -18q4 -5 20 -3q9 2 14 -3q10 -11 6 -39l-1 -6q-7 -63 -38 -126l-18 -34q-21 -16 -41 -10q-6 2 -11 5q-38 87 -48 141q-1 8 -3 18l-6 31q1 8 6 14
t23 2q12 -2 17 4q14 18 5 40q-4 9 -11 17q-20 23 -67 20l-24 -2q-47 -2 -64 -9q-15 -6 -38 -20q-15 -17 -8 -33q1 -1 2 -4q12 -28 42 -35q7 -2 17 -3q60 -120 85 -230q6 -26 13 -61q10 -51 5 -74q0 -3 -1 -6q-14 -67 -27 -88q-11 -16 -28 -28q-4 -2 -9 -5z" />
    <glyph glyph-name="thorn" unicode="&#xfe;" horiz-adv-x="567" 
d="M248 76zM236 485q-10 -114 -7 -272q2 -84 7 -130q36 -31 94 7l15 10q54 38 73 110q4 16 8 38q13 68 3 114q-7 31 -26 64q-23 40 -69 57l-6 2q-36 13 -63 8q-11 -3 -29 -8zM372 -223l-228 -8q-56 0 -110 7q-21 25 -4 44q5 6 21 20q23 8 40 -6q11 -9 22 1q3 2 5 5l2 209
q9 140 4 614l-14 -5q-24 -3 -68 6q-5 1 -11 2q-17 20 -6 46q5 13 15 22l308 -2q7 0 12 -17q6 -22 -5 -41q-2 -2 -4 -5t-76 -8l-31 -4h-1q-21 -13 -6 -77l6 -18q98 2 155 -21q44 -17 85 -52q33 -28 45 -84q2 -7 4 -19q16 -80 6 -137q-5 -32 -18 -71q-32 -91 -60 -126
q-25 -29 -62 -49q-36 -19 -94 -8l-56 8h-12q0 -30 8 -139v-8q16 -3 75 -2q51 2 68 -25q2 -3 3 -5q9 -17 -1 -31z" />
    <glyph glyph-name="ydieresis" unicode="&#xff;" horiz-adv-x="491" 
d="M317 542q29 -8 50 1q14 6 24 19q18 23 9 54q-3 10 -9 21q-17 33 -47 33t-47 -33q-13 -26 -7 -53q2 -10 7 -22q7 -16 20 -20zM167 542q29 -8 50 1q14 6 24 19q18 23 9 54q-3 10 -9 21q-17 33 -47 33t-47 -33q-13 -26 -7 -53q2 -10 7 -22q7 -16 20 -20zM112 -104
q-12 -6 -38 4q-18 7 -30 1q-25 -11 -31 -32q-3 -8 -4 -19q-15 -37 -5 -59q2 -5 5 -9q49 -36 80 -34q12 1 28 7q131 239 246 484q47 100 78 165l29 8l2 4q13 25 -2 51q-5 9 -13 18q-21 12 -66 10q-56 -3 -91 -21q-13 -15 -9 -33q2 -10 9 -18q4 -5 20 -3q9 2 14 -3
q10 -11 6 -39l-1 -6q-7 -63 -38 -126l-18 -34q-21 -16 -41 -10q-6 2 -11 5q-38 87 -48 141q-1 8 -3 18l-6 31q1 8 6 14t23 2q12 -2 17 4q14 18 5 40q-4 9 -11 17q-20 23 -67 20l-24 -2q-47 -2 -64 -9q-15 -6 -38 -20q-15 -17 -8 -33q1 -1 2 -4q12 -28 42 -35q7 -2 17 -3
q60 -120 85 -230q6 -26 13 -61q10 -51 5 -74q0 -3 -1 -6q-14 -67 -27 -88q-11 -16 -28 -28q-4 -2 -9 -5z" />
    <glyph glyph-name="Amacron" unicode="&#x100;" 
d="M298 843q-14 20 -6 43q4 11 12 20q21 24 68 24q36 1 49 3l57 10q12 1 24 -1q42 -6 55 -15l11 -12q22 -30 13 -57q-2 -8 -7 -15q-22 -32 -77 -35q55 3 -40 -1q-79 -3 -83 -3q-50 4 -76 39zM496 327l-96 -16q-32 -1 -76 25q34 61 23 60l22 63l22 85q3 12 7 22
q30 -16 46 -70q14 -47 18 -58l29 -68q7 -22 5 -43zM745 14q18 20 9 48q-3 10 -9 20q-11 20 -47 32q-35 11 -47 28q-20 55 -59 219q-26 107 -52 182l-30 93q-13 32 -38 69q-34 20 -82 -2l-30 -14l-87 -168q-27 -59 -85 -242l-22 -73q-14 -40 -29 -66q-10 -7 -38 -2
q-22 4 -34 -3q-52 -31 -55 -78q0 -11 15 -28q6 -6 9 -11q26 -18 41 -11q7 3 10 4l77 3h3q12 1 66 -7q44 -7 68 16q11 14 8 88v14q-10 12 -31 6l-19 -2q-8 0 -15 5l4 67q5 32 30 52q41 4 148 3q33 0 62 2q49 -7 57 -50l1 -6q6 -81 1 -85q-7 -4 -9 -9q-33 -7 -67 2
q-13 3 -25 -10q-24 -27 -25 -66q0 -34 25 -34h128q111 4 129 6q14 2 27 5l15 1z" />
    <glyph glyph-name="amacron" unicode="&#x101;" horiz-adv-x="417" 
d="M44 557q-14 20 -6 43q4 11 12 20q21 24 68 24q36 1 49 3l57 10q12 1 24 -1q42 -6 55 -15l11 -12q22 -30 13 -57q-2 -8 -7 -15q-22 -32 -77 -35q55 3 -40 -1q-79 -3 -83 -3q-50 4 -76 39zM250 188q-2 28 -23 40q-8 4 -31 -2q-18 -5 -42 -21q-30 -19 -41 -32
q-12 -17 -12 -29q2 -52 25 -67q3 -1 7 -3q8 -4 26 6q5 3 8 4l40 17q9 6 17 15q29 33 26 72zM178 427q-33 -7 -45 -23q-11 -15 -12 -55v-10q-3 -29 -35 -39q-17 -5 -33 0q-32 9 -32 48q0 7 1 14q10 57 42 85q40 34 104 38q9 0 22 1q31 2 47 -2t32 -15q37 -25 46 -73
q7 -40 7 -142q1 -18 1 -34l1 -94l2 -14l1 -19q2 -3 5 -4q14 -6 33 19q19 24 30 23q3 -1 5 -2q11 -5 7 -30l-1 -10q-3 -45 -10 -59q-5 -9 -13 -17q-11 -10 -40 -11h-5q-38 -3 -57 6q-7 3 -20 20q-3 4 -6 7l-14 19q-3 2 -7 2q-16 2 -37 -18q-12 -11 -20 -16l-30 -19l-9 -3
q-50 -10 -77 2q-7 3 -14 7q-24 16 -34 57q-9 37 -4 65q3 15 10 32q10 27 42 54l3 3q35 28 91 51q7 3 40 6q18 2 29 11q9 8 14 29t2 42q0 6 -2 15q-6 34 -10 39q-3 7 -10 12q-11 8 -40 2z" />
    <glyph glyph-name="Abreve" unicode="&#x102;" 
d="M578 956q-21 -6 -37 -36q-18 -34 -36 -44q-22 -11 -55 -7l-7 1q-42 5 -59 20q-2 1 -4 3q-14 13 -19 53q-5 35 -26 44q-44 17 -74 3q-24 -11 -16 -43q12 -53 60 -99l4 -4q29 -27 73 -39q15 -4 59 -3h6h50q9 1 18 4q39 12 63 37l39 40q24 29 12 56q-8 20 -37 17
q-7 -1 -14 -3zM496 327l-96 -16q-32 -1 -76 25q34 61 23 60l22 63l22 85q3 12 7 22q30 -16 46 -70q14 -47 18 -58l29 -68q7 -22 5 -43zM745 14q18 20 9 48q-3 10 -9 20q-11 20 -47 32q-35 11 -47 28q-20 55 -59 219q-26 107 -52 182l-30 93q-13 32 -38 69q-34 20 -82 -2
l-30 -14l-87 -168q-27 -59 -85 -242l-22 -73q-14 -40 -29 -66q-10 -7 -38 -2q-22 4 -34 -3q-52 -31 -55 -78q0 -11 15 -28q6 -6 9 -11q26 -18 41 -11q7 3 10 4l77 3h3q12 1 66 -7q44 -7 68 16q11 14 8 88v14q-10 12 -31 6l-19 -2q-8 0 -15 5l4 67q5 32 30 52q41 4 148 3
q33 0 62 2q49 -7 57 -50l1 -6q6 -81 1 -85q-7 -4 -9 -9q-33 -7 -67 2q-13 3 -25 -10q-24 -27 -25 -66q0 -34 25 -34h128q111 4 129 6q14 2 27 5l15 1z" />
    <glyph glyph-name="abreve" unicode="&#x103;" horiz-adv-x="417" 
d="M355 699q-21 -6 -37 -36q-18 -34 -36 -44q-22 -11 -55 -7l-7 1q-42 5 -59 20q-2 1 -4 3q-14 13 -19 53q-5 35 -26 44q-44 17 -74 3q-24 -11 -16 -43q12 -53 60 -99l4 -4q29 -27 73 -39q15 -4 59 -3h6h50q9 1 18 4q39 12 63 37l39 40q24 29 12 56q-8 20 -37 17
q-7 -1 -14 -3zM250 188q-2 28 -23 40q-8 4 -31 -2q-18 -5 -42 -21q-30 -19 -41 -32q-12 -17 -12 -29q2 -52 25 -67q3 -1 7 -3q8 -4 26 6q5 3 8 4l40 17q9 6 17 15q29 33 26 72zM178 427q-33 -7 -45 -23q-11 -15 -12 -55v-10q-3 -29 -35 -39q-17 -5 -33 0q-32 9 -32 48
q0 7 1 14q10 57 42 85q40 34 104 38q9 0 22 1q31 2 47 -2t32 -15q37 -25 46 -73q7 -40 7 -142q1 -18 1 -34l1 -94l2 -14l1 -19q2 -3 5 -4q14 -6 33 19q19 24 30 23q3 -1 5 -2q11 -5 7 -30l-1 -10q-3 -45 -10 -59q-5 -9 -13 -17q-11 -10 -40 -11h-5q-38 -3 -57 6q-7 3 -20 20
q-3 4 -6 7l-14 19q-3 2 -7 2q-16 2 -37 -18q-12 -11 -20 -16l-30 -19l-9 -3q-50 -10 -77 2q-7 3 -14 7q-24 16 -34 57q-9 37 -4 65q3 15 10 32q10 27 42 54l3 3q35 28 91 51q7 3 40 6q18 2 29 11q9 8 14 29t2 42q0 6 -2 15q-6 34 -10 39q-3 7 -10 12q-11 8 -40 2z" />
    <glyph glyph-name="Aogonek" unicode="&#x104;" 
d="M507 -25q3 -4 -3 -4q-24 0 -27 -1q-8 -6 -14 -21q-11 -27 -8 -50q0 -3 1 -6q3 -24 16 -36q8 -7 24 -9t23 2q9 5 15 22q4 10 14 4l5 -5q1 -2 0 -4q-1 -20 -6 -28q-7 -9 -24 -14q-4 -1 -25 -1q-20 0 -25 1q-16 4 -27 14q-20 19 -24 39q-5 21 -3 38q1 9 4 19q10 34 29 50
q31 24 46 20q4 -1 8 -4q3 -2 -2 -10q-5 -9 3 -16zM496 327l-96 -16q-32 -1 -76 25q34 61 23 60l22 63l22 85q3 12 7 22q30 -16 46 -70q14 -47 18 -58l29 -68q7 -22 5 -43zM745 14q18 20 9 48q-3 10 -9 20q-11 20 -47 32q-35 11 -47 28q-20 55 -59 219q-26 107 -52 182
l-30 93q-13 32 -38 69q-34 20 -82 -2l-30 -14l-87 -168q-27 -59 -85 -242l-22 -73q-14 -40 -29 -66q-10 -7 -38 -2q-22 4 -34 -3q-52 -31 -55 -78q0 -11 15 -28q6 -6 9 -11q26 -18 41 -11q7 3 10 4l77 3h3q12 1 66 -7q44 -7 68 16q11 14 8 88v14q-10 12 -31 6l-19 -2
q-8 0 -15 5l4 67q5 32 30 52q41 4 148 3q33 0 62 2q49 -7 57 -50l1 -6q6 -81 1 -85q-7 -4 -9 -9q-33 -7 -67 2q-13 3 -25 -10q-24 -27 -25 -66q0 -34 25 -34h128q111 4 129 6q14 2 27 5l15 1z" />
    <glyph glyph-name="aogonek" unicode="&#x105;" horiz-adv-x="417" 
d="M137 -30q3 -4 -3 -4q-24 0 -27 -1q-8 -6 -14 -21q-11 -27 -8 -50q0 -3 1 -6q3 -24 16 -36q8 -7 24 -9t23 2q9 5 15 22q4 10 14 4l5 -5q1 -2 0 -4q-1 -20 -6 -28q-7 -9 -24 -14q-4 -1 -25 -1q-20 0 -25 1q-16 4 -27 14q-20 19 -24 39q-5 21 -3 38q1 9 4 19q10 34 29 50
q31 24 46 20q4 -1 8 -4q3 -2 -2 -10q-5 -9 3 -16zM250 188q-2 28 -23 40q-8 4 -31 -2q-18 -5 -42 -21q-30 -19 -41 -32q-12 -17 -12 -29q2 -52 25 -67q3 -1 7 -3q8 -4 26 6q5 3 8 4l40 17q9 6 17 15q29 33 26 72zM178 427q-33 -7 -45 -23q-11 -15 -12 -55v-10
q-3 -29 -35 -39q-17 -5 -33 0q-32 9 -32 48q0 7 1 14q10 57 42 85q40 34 104 38q9 0 22 1q31 2 47 -2t32 -15q37 -25 46 -73q7 -40 7 -142q1 -18 1 -34l1 -94l2 -14l1 -19q2 -3 5 -4q14 -6 33 19q19 24 30 23q3 -1 5 -2q11 -5 7 -30l-1 -10q-3 -45 -10 -59q-5 -9 -13 -17
q-11 -10 -40 -11h-5q-38 -3 -57 6q-7 3 -20 20q-3 4 -6 7l-14 19q-3 2 -7 2q-16 2 -37 -18q-12 -11 -20 -16l-30 -19l-9 -3q-50 -10 -77 2q-7 3 -14 7q-24 16 -34 57q-9 37 -4 65q3 15 10 32q10 27 42 54l3 3q35 28 91 51q7 3 40 6q18 2 29 11q9 8 14 29t2 42q0 6 -2 15
q-6 34 -10 39q-3 7 -10 12q-11 8 -40 2z" />
    <glyph glyph-name="Cacute" unicode="&#x106;" horiz-adv-x="691" 
d="M488 1063q-53 27 -75 25q-16 -1 -31 -10q-32 -47 -51 -109l-14 -45q-16 -44 -29 -94q-4 -13 48 -15q48 -1 55 10q3 4 35 106q37 118 62 132zM617 148q-24 -4 -95 -31q-67 -27 -118 -20q-98 11 -154 66q-13 12 -25 28q-63 77 -63 170q1 20 3 43q12 121 76 190q18 21 43 40
q75 60 153 47l18 -4q50 -13 89 -64l39 -55q11 -14 18 -52l9 -25l11 -15q6 -6 13 -11q42 84 42 128q-1 32 -17 67q-19 42 -73 64l-54 20q-47 19 -102 20q-82 1 -117 -9q-15 -4 -31 -11q-89 -39 -146 -103l-34 -42q-66 -91 -83 -162q-8 -31 -10 -69q-5 -68 18 -123
q9 -21 24 -47q48 -81 116 -127q20 -13 46 -27q65 -35 132 -34h13q111 3 132 6q80 13 124 71q20 26 19 55q-1 18 -16 16z" />
    <glyph glyph-name="cacute" unicode="&#x107;" horiz-adv-x="432" 
d="M332 787q-53 27 -75 25q-16 -1 -31 -10q-32 -47 -51 -109l-14 -45q-16 -44 -29 -94q-4 -13 48 -15q48 -1 55 10q3 4 35 106q37 118 62 132zM345 338q-15 -1 -31 19q-9 12 -15 17l-34 28q-7 4 -15 6q-30 7 -54 -1q-12 -5 -25 -13q-23 -15 -37 -51q0 -2 -1 -4
q-28 -72 -21 -132q1 -8 2 -17q9 -60 39 -91l6 -6q17 -16 56 -22q4 -1 7 -1q39 -5 54 2l8 4q23 13 36 48q1 2 3 9q8 23 32 15q21 -8 20 -27q-3 -51 -6 -58l-12 -17q-16 -21 -54 -34l-9 -3q-22 -5 -68 -4q-46 -2 -61 2q-2 0 -4 1q-42 11 -73 39q-49 47 -61 93q-2 5 -3 10
q-14 57 -8 102q3 23 11 51q21 75 54 109q10 11 24 22q56 44 128 44h15q48 -2 68 -14q13 -8 29 -24q35 -35 30 -69q-1 -3 -1 -5q-7 -27 -29 -28z" />
    <glyph glyph-name="Ccircumflex" unicode="&#x108;" horiz-adv-x="691" 
d="M353 833q10 62 28 113q27 -14 46 -82q10 -32 15 -39q8 -13 62 -10q44 3 41 15q-14 50 -29 94l-31 93q-12 29 -34 61q-33 19 -80 -2l-26 -13q-76 -147 -106 -227q-4 -10 51 -14q61 -3 63 11zM617 148q-24 -4 -95 -31q-67 -27 -118 -20q-98 11 -154 66q-13 12 -25 28
q-63 77 -63 170q1 20 3 43q12 121 76 190q18 21 43 40q75 60 153 47l18 -4q50 -13 89 -64l39 -55q11 -14 18 -52l9 -25l11 -15q6 -6 13 -11q42 84 42 128q-1 32 -17 67q-19 42 -73 64l-54 20q-47 19 -102 20q-82 1 -117 -9q-15 -4 -31 -11q-89 -39 -146 -103l-34 -42
q-66 -91 -83 -162q-8 -31 -10 -69q-5 -68 18 -123q9 -21 24 -47q48 -81 116 -127q20 -13 46 -27q65 -35 132 -34h13q111 3 132 6q80 13 124 71q20 26 19 55q-1 18 -16 16z" />
    <glyph glyph-name="ccircumflex" unicode="&#x109;" horiz-adv-x="432" 
d="M196 557q10 62 28 113q27 -14 46 -82q10 -32 15 -39q8 -13 62 -10q44 3 41 15q-14 50 -29 94l-31 93q-12 29 -34 61q-33 19 -80 -2l-26 -13q-76 -147 -106 -227q-4 -10 51 -14q61 -3 63 11zM345 338q-15 -1 -31 19q-9 12 -15 17l-34 28q-7 4 -15 6q-30 7 -54 -1
q-12 -5 -25 -13q-23 -15 -37 -51q0 -2 -1 -4q-28 -72 -21 -132q1 -8 2 -17q9 -60 39 -91l6 -6q17 -16 56 -22q4 -1 7 -1q39 -5 54 2l8 4q23 13 36 48q1 2 3 9q8 23 32 15q21 -8 20 -27q-3 -51 -6 -58l-12 -17q-16 -21 -54 -34l-9 -3q-22 -5 -68 -4q-46 -2 -61 2q-2 0 -4 1
q-42 11 -73 39q-49 47 -61 93q-2 5 -3 10q-14 57 -8 102q3 23 11 51q21 75 54 109q10 11 24 22q56 44 128 44h15q48 -2 68 -14q13 -8 29 -24q35 -35 30 -69q-1 -3 -1 -5q-7 -27 -29 -28z" />
    <glyph glyph-name="Cdotaccent" unicode="&#x10a;" horiz-adv-x="691" 
d="M356 820q38 -10 66 1q19 8 33 26q23 30 11 71q-3 13 -11 28q-23 45 -63 45t-63 -45q-18 -34 -9 -70q2 -13 9 -29q9 -22 27 -27zM617 148q-24 -4 -95 -31q-67 -27 -118 -20q-98 11 -154 66q-13 12 -25 28q-63 77 -63 170q1 20 3 43q12 121 76 190q18 21 43 40
q75 60 153 47l18 -4q50 -13 89 -64l39 -55q11 -14 18 -52l9 -25l11 -15q6 -6 13 -11q42 84 42 128q-1 32 -17 67q-19 42 -73 64l-54 20q-47 19 -102 20q-82 1 -117 -9q-15 -4 -31 -11q-89 -39 -146 -103l-34 -42q-66 -91 -83 -162q-8 -31 -10 -69q-5 -68 18 -123
q9 -21 24 -47q48 -81 116 -127q20 -13 46 -27q65 -35 132 -34h13q111 3 132 6q80 13 124 71q20 26 19 55q-1 18 -16 16z" />
    <glyph glyph-name="cdotaccent" unicode="&#x10b;" horiz-adv-x="432" 
d="M200 543q38 -10 66 1q19 8 33 26q23 30 11 71q-3 13 -11 28q-23 45 -63 45t-63 -45q-18 -34 -9 -70q2 -13 9 -29q9 -22 27 -27zM345 338q-15 -1 -31 19q-9 12 -15 17l-34 28q-7 4 -15 6q-30 7 -54 -1q-12 -5 -25 -13q-23 -15 -37 -51q0 -2 -1 -4q-28 -72 -21 -132
q1 -8 2 -17q9 -60 39 -91l6 -6q17 -16 56 -22q4 -1 7 -1q39 -5 54 2l8 4q23 13 36 48q1 2 3 9q8 23 32 15q21 -8 20 -27q-3 -51 -6 -58l-12 -17q-16 -21 -54 -34l-9 -3q-22 -5 -68 -4q-46 -2 -61 2q-2 0 -4 1q-42 11 -73 39q-49 47 -61 93q-2 5 -3 10q-14 57 -8 102
q3 23 11 51q21 75 54 109q10 11 24 22q56 44 128 44h15q48 -2 68 -14q13 -8 29 -24q35 -35 30 -69q-1 -3 -1 -5q-7 -27 -29 -28z" />
    <glyph glyph-name="Ccaron" unicode="&#x10c;" horiz-adv-x="691" 
d="M355 1070q10 -62 28 -113q27 14 46 82q10 32 15 39q8 13 62 10q44 -3 41 -15q-14 -50 -29 -94l-31 -93q-12 -29 -34 -61q-33 -19 -80 2l-26 13q-76 147 -106 227q-4 10 51 14q61 3 63 -11zM617 148q-24 -4 -95 -31q-67 -27 -118 -20q-98 11 -154 66q-13 12 -25 28
q-63 77 -63 170q1 20 3 43q12 121 76 190q18 21 43 40q75 60 153 47l18 -4q50 -13 89 -64l39 -55q11 -14 18 -52l9 -25l11 -15q6 -6 13 -11q42 84 42 128q-1 32 -17 67q-19 42 -73 64l-54 20q-47 19 -102 20q-82 1 -117 -9q-15 -4 -31 -11q-89 -39 -146 -103l-34 -42
q-66 -91 -83 -162q-8 -31 -10 -69q-5 -68 18 -123q9 -21 24 -47q48 -81 116 -127q20 -13 46 -27q65 -35 132 -34h13q111 3 132 6q80 13 124 71q20 26 19 55q-1 18 -16 16z" />
    <glyph glyph-name="ccaron" unicode="&#x10d;" horiz-adv-x="432" 
d="M198 794q10 -62 28 -113q27 14 46 82q10 32 15 39q8 13 62 10q44 -3 41 -15q-14 -50 -29 -94l-31 -93q-12 -29 -34 -61q-33 -19 -80 2l-26 13q-76 147 -106 227q-4 10 51 14q61 3 63 -11zM345 338q-15 -1 -31 19q-9 12 -15 17l-34 28q-7 4 -15 6q-30 7 -54 -1
q-12 -5 -25 -13q-23 -15 -37 -51q0 -2 -1 -4q-28 -72 -21 -132q1 -8 2 -17q9 -60 39 -91l6 -6q17 -16 56 -22q4 -1 7 -1q39 -5 54 2l8 4q23 13 36 48q1 2 3 9q8 23 32 15q21 -8 20 -27q-3 -51 -6 -58l-12 -17q-16 -21 -54 -34l-9 -3q-22 -5 -68 -4q-46 -2 -61 2q-2 0 -4 1
q-42 11 -73 39q-49 47 -61 93q-2 5 -3 10q-14 57 -8 102q3 23 11 51q21 75 54 109q10 11 24 22q56 44 128 44h15q48 -2 68 -14q13 -8 29 -24q35 -35 30 -69q-1 -3 -1 -5q-7 -27 -29 -28z" />
    <glyph glyph-name="Dcaron" unicode="&#x10e;" horiz-adv-x="750" 
d="M327 1065q10 -62 28 -113q27 14 46 82q10 32 15 39q8 13 62 10q44 -3 41 -15q-14 -50 -29 -94l-31 -93q-12 -29 -34 -61q-33 -19 -80 2l-26 13q-76 147 -106 227q-4 10 51 14q61 3 63 -11zM259 669q35 32 100 15q8 -2 36 -10q75 -22 120 -73q8 -9 17 -21q58 -75 66 -156
q2 -19 2 -40q1 -77 -26 -133q-13 -25 -34 -55q-39 -56 -103 -87l-33 -15q-55 -24 -96 -18l-6 1q-43 8 -52 15q-8 7 -8 19q2 54 6 251q1 96 11 307zM56 667q9 0 24 13q7 7 14 8q33 9 44 3q4 -2 7 -5q-3 -103 -7 -428q-1 -65 -4 -158q-18 -21 -63 -12q-46 8 -63 -1
q-4 -2 -8 -5q-11 -28 -8 -49q2 -12 8 -19q125 -15 242 -14h20h121q44 3 86 17q84 27 129 69q12 11 25 25q50 55 73 135q5 16 12 44q23 91 18 142q-2 22 -9 46q-23 84 -80 142q-14 14 -31 29q-51 44 -126 66q-12 4 -36 10q-93 25 -215 24l-75 -1l-62 1q-16 -2 -32 -9
q-58 -26 -55 -52q10 -21 51 -21z" />
    <glyph glyph-name="dcaron" unicode="&#x10f;" horiz-adv-x="444" 
d="M178 1061q10 -62 28 -113q27 14 46 82q10 32 15 39q8 13 62 10q44 -3 41 -15q-14 -50 -29 -94l-31 -93q-12 -29 -34 -61q-33 -19 -80 2l-26 13q-76 147 -106 227q-4 10 51 14q61 3 63 -11zM240 425q42 -9 70 -54q28 -46 25 -107l-1 -25q-4 -51 -34 -100q-21 -34 -35 -42
l-13 -6q-20 -7 -50 4l-4 2q-55 21 -78 50q-5 6 -10 14q-23 37 -20 81q1 8 2 17q7 52 47 103q5 7 13 17q18 23 43 35q28 14 45 11zM259 692q3 -12 40 1q20 7 19 -2q-4 -108 -3 -174q0 -22 1 -50q-3 -16 -19 -1q-18 16 -23 18q-49 16 -49 15q-11 3 -23 2q-36 -2 -66 -22
q-54 -36 -83 -89l-11 -21q-28 -57 -31 -132q-1 -7 -1 -16q-1 -35 5 -60q3 -13 9 -30q11 -31 40 -66l32 -42q13 -14 32 -16q55 -7 138 36q13 7 21 12q15 10 35 -15q22 -27 35 -30h7l41 -3l2 1q20 9 20 54q0 5 -21 26q-12 13 -12 20q1 195 -5 504q-2 101 -4 136q10 16 -23 30
q-35 15 -53 4q-27 -17 -44 -54q-10 -22 -6 -36z" />
    <glyph glyph-name="Dcroat" unicode="&#x110;" horiz-adv-x="750" 
d="M250 468l23 -1q42 -6 55 -15l11 -12q22 -30 13 -57q-2 -8 -7 -15q-22 -32 -78 -35q-6 0 -20 -1q-1 -123 -5 -221q-1 -22 35 -30q-8 2 25 -4q39 -7 79 8q10 3 23 9q76 33 113 73q12 13 23 29q53 74 59 150q1 17 1 38q-1 95 -46 166q-10 14 -22 30q-46 61 -109 85l-28 9
q-67 20 -93 16q-24 -4 -43 -21q-6 -122 -9 -201zM140 455q1 91 5 231q-13 13 -45 4l-6 -2q-7 -1 -21 -13q-8 -8 -17 -8q-42 0 -49 13q-2 4 -2 8q-5 20 35 42q9 5 20 10q24 11 72 9q13 -1 22 -1q145 1 182 -3q52 -5 108 -20q87 -23 127 -49q17 -12 35 -27q70 -62 96 -127
q8 -20 15 -44q18 -69 0 -151q-3 -13 -9 -37q-24 -94 -53 -138q-13 -21 -32 -41q-50 -55 -121 -82l-33 -12q-59 -19 -148 -17h-59q-103 -1 -164 4q-39 3 -98 10q-11 14 -8 40q2 13 8 28q19 15 65 7q44 -9 61 4q4 3 8 7q4 124 4 230q-45 5 -69 38q-14 20 -6 43q4 11 12 20
q21 23 65 24z" />
    <glyph glyph-name="dcroat" unicode="&#x111;" horiz-adv-x="468" 
d="M240 425q-16 3 -45 -11q-25 -12 -43 -35q-44 -55 -54 -93l-6 -27q-5 -38 2 -64q5 -17 16 -34q23 -37 73 -58q6 -3 15 -6q33 -13 54 -6q23 8 42 39q-4 -6 6 9q30 49 34 100q4 52 -2 80q-6 26 -22 52q-27 44 -70 54zM318 538q-23 0 -36 3q-25 6 -40 27q-11 14 -5 32
q3 8 9 15q15 18 48 18l25 -3l-1 61q3 8 -6 6l-40 -12l-10 2q-2 2 -3 5q-8 28 28 70q12 13 22 20q18 12 54 -5q32 -14 22 -29l1 -104q0 -13 24 -13q27 0 34 -9q16 -22 10 -42l-6 -12q-14 -22 -60 -26q6 -366 6 -434q0 -7 22 -29q11 -11 11 -17q-1 -40 -14 -50l-6 -4
q-2 -1 -38 2h-5q-17 -1 -39 27q-20 25 -32 21q-3 -1 -6 -3q-42 -29 -104 -43q-32 -8 -55 -5q-25 3 -46 34q-14 19 -18 24q-29 35 -40 66q-15 41 -14 85v5q2 81 24 131q4 8 8 17q31 63 76 97q8 7 18 13q30 20 66 22q21 1 62 -14q5 -2 10 -3q5 -2 25 -19q14 -13 17 2z" />
    <glyph glyph-name="Emacron" unicode="&#x112;" horiz-adv-x="648" 
d="M202 810q-14 20 -6 43q4 11 12 20q21 24 68 24q36 1 49 3l57 10q12 1 24 -1q42 -6 55 -15l11 -12q22 -30 13 -57q-2 -8 -7 -15q-22 -32 -77 -35q55 3 -40 -1q-79 -3 -83 -3q-50 4 -76 39zM452 644q-58 10 -110 5q-23 -2 -52 -7l-34 -2l-9 -6l-1 -183q0 -23 1 -56
q70 -13 80 -14q20 0 48 6q19 13 17 53q-1 41 12 53q2 3 6 5q19 12 39 5q12 -5 20 -14q0 -53 4 -290q-42 -19 -58 -6q-6 4 -14 15q-6 31 8 54q7 11 1 22q-8 16 -36 23q-9 2 -12 3q-50 16 -76 11q-5 -1 -9 -2q-25 -7 -33 -18l-5 -8q-17 -83 -17 -167v-29q8 -18 34 -28
q77 -17 189 -11q45 2 58 3q28 15 39 43q19 48 36 72q5 8 11 15q24 -27 25 -56v-18q3 -64 -7 -87q-8 -17 -24 -30h-546q-33 11 -36 25q-1 3 -1 6q0 16 29 26l8 3q9 3 41 -6q20 -6 22 8q22 230 24 334q2 100 -2 246q-33 0 -54 -10q-4 -2 -10 0q-3 0 -7 2q-35 17 -34 43
q3 39 57 61q8 3 20 7h354q39 -2 124 -17q4 -98 7 -106q-1 2 12 -33q2 -7 19 -25l7 -10v-6q-54 -18 -88 -15l-65 5q-6 7 4 16q18 14 13 38q-8 32 -13 36q-8 5 -16 16z" />
    <glyph glyph-name="emacron" unicode="&#x113;" horiz-adv-x="364" 
d="M58 542q-14 20 -6 43q4 11 12 20q21 24 68 24q36 1 49 3l57 10q12 1 24 -1q42 -6 55 -15l11 -12q22 -30 13 -57q-2 -8 -7 -15q-22 -32 -77 -35q55 3 -40 -1q-79 -3 -83 -3q-50 4 -76 39zM112 269q-3 -24 -2 -48q1 -15 4 -31q9 -55 30 -79q5 -5 11 -10q16 -13 53 -17
q5 -1 9 -1q40 -3 46 -2q9 2 17 8q10 7 18 33q1 6 3 11q8 23 31 15q22 -8 21 -27q-4 -50 -8 -60l-9 -15q-14 -24 -42 -37q-17 -7 -55 -4h-13q-46 -2 -61 2q-2 0 -4 1q-42 11 -73 39q-49 47 -61 93q-2 5 -3 10q-14 57 -8 102q3 23 11 51q21 75 54 109q10 11 24 22
q60 45 129 41q6 0 13 -1q52 -5 70 -24q9 -8 15 -21q27 -54 19 -91q-3 -13 -10 -31q-9 -27 -28 -28q-107 -11 -186 -11zM129 337q7 -9 79 -3q41 3 42 9l3 40q-2 15 -13 23q-24 17 -57 0l-17 -10q-33 -22 -39 -45q-2 -9 2 -14z" />
    <glyph glyph-name="Ebreve" unicode="&#x114;" horiz-adv-x="648" 
d="M428 935q-21 -6 -37 -36q-18 -34 -36 -44q-22 -11 -55 -7l-7 1q-42 5 -59 20q-2 1 -4 3q-14 13 -19 53q-5 35 -26 44q-44 17 -74 3q-24 -11 -16 -43q12 -53 60 -99l4 -4q29 -27 73 -39q15 -4 59 -3h6h50q9 1 18 4q39 12 63 37l39 40q24 29 12 56q-8 20 -37 17
q-7 -1 -14 -3zM452 644q-58 10 -110 5q-23 -2 -52 -7l-34 -2l-9 -6l-1 -183q0 -23 1 -56q70 -13 80 -14q20 0 48 6q19 13 17 53q-1 41 12 53q2 3 6 5q19 12 39 5q12 -5 20 -14q0 -53 4 -290q-42 -19 -58 -6q-6 4 -14 15q-6 31 8 54q7 11 1 22q-8 16 -36 23q-9 2 -12 3
q-50 16 -76 11q-5 -1 -9 -2q-25 -7 -33 -18l-5 -8q-17 -83 -17 -167v-29q8 -18 34 -28q77 -17 189 -11q45 2 58 3q28 15 39 43q19 48 36 72q5 8 11 15q24 -27 25 -56v-18q3 -64 -7 -87q-8 -17 -24 -30h-546q-33 11 -36 25q-1 3 -1 6q0 16 29 26l8 3q9 3 41 -6q20 -6 22 8
q22 230 24 334q2 100 -2 246q-33 0 -54 -10q-4 -2 -10 0q-3 0 -7 2q-35 17 -34 43q3 39 57 61q8 3 20 7h354q39 -2 124 -17q4 -98 7 -106q-1 2 12 -33q2 -7 19 -25l7 -10v-6q-54 -18 -88 -15l-65 5q-6 7 4 16q18 14 13 38q-8 32 -13 36q-8 5 -16 16z" />
    <glyph glyph-name="ebreve" unicode="&#x115;" horiz-adv-x="364" 
d="M296 618q-16 -5 -30 -31l-13 -20q-5 -6 -12 -9q-16 -8 -41 -5h-6q-33 4 -47 17q-10 10 -14 42q-4 25 -19 31q-33 13 -55 3q-19 -9 -13 -33q9 -41 48 -77q21 -20 55 -29q10 -3 49 -3q39 1 44 2l6 2q30 8 48 27l30 32q16 21 8 40q-6 15 -28 13zM112 269q-3 -24 -2 -48
q1 -15 4 -31q9 -55 30 -79q5 -5 11 -10q16 -13 53 -17q5 -1 9 -1q40 -3 46 -2q9 2 17 8q10 7 18 33q1 6 3 11q8 23 31 15q22 -8 21 -27q-4 -50 -8 -60l-9 -15q-14 -24 -42 -37q-17 -7 -55 -4h-13q-46 -2 -61 2q-2 0 -4 1q-42 11 -73 39q-49 47 -61 93q-2 5 -3 10
q-14 57 -8 102q3 23 11 51q21 75 54 109q10 11 24 22q60 45 129 41q6 0 13 -1q52 -5 70 -24q9 -8 15 -21q27 -54 19 -91q-3 -13 -10 -31q-9 -27 -28 -28q-107 -11 -186 -11zM129 337q7 -9 79 -3q41 3 42 9l3 40q-2 15 -13 23q-24 17 -57 0l-17 -10q-33 -22 -39 -45
q-2 -9 2 -14z" />
    <glyph glyph-name="Edotaccent" unicode="&#x116;" horiz-adv-x="648" 
d="M280 775q38 -10 66 1q19 8 33 26q23 30 11 71q-3 13 -11 28q-23 45 -63 45t-63 -45q-18 -34 -9 -70q2 -13 9 -29q9 -22 27 -27zM452 644q-58 10 -110 5q-23 -2 -52 -7l-34 -2l-9 -6l-1 -183q0 -23 1 -56q70 -13 80 -14q20 0 48 6q19 13 17 53q-1 41 12 53q2 3 6 5
q19 12 39 5q12 -5 20 -14q0 -53 4 -290q-42 -19 -58 -6q-6 4 -14 15q-6 31 8 54q7 11 1 22q-8 16 -36 23q-9 2 -12 3q-50 16 -76 11q-5 -1 -9 -2q-25 -7 -33 -18l-5 -8q-17 -83 -17 -167v-29q8 -18 34 -28q77 -17 189 -11q45 2 58 3q28 15 39 43q19 48 36 72q5 8 11 15
q24 -27 25 -56v-18q3 -64 -7 -87q-8 -17 -24 -30h-546q-33 11 -36 25q-1 3 -1 6q0 16 29 26l8 3q9 3 41 -6q20 -6 22 8q22 230 24 334q2 100 -2 246q-33 0 -54 -10q-4 -2 -10 0q-3 0 -7 2q-35 17 -34 43q3 39 57 61q8 3 20 7h354q39 -2 124 -17q4 -98 7 -106q-1 2 12 -33
q2 -7 19 -25l7 -10v-6q-54 -18 -88 -15l-65 5q-6 7 4 16q18 14 13 38q-8 32 -13 36q-8 5 -16 16z" />
    <glyph glyph-name="edotaccent" unicode="&#x117;" horiz-adv-x="364" 
d="M188 511q38 -10 66 1q19 8 33 26q23 30 11 71q-3 13 -11 28q-23 45 -63 45t-63 -45q-18 -34 -9 -70q2 -13 9 -29q9 -22 27 -27zM112 269q-3 -24 -2 -48q1 -15 4 -31q9 -55 30 -79q5 -5 11 -10q16 -13 53 -17q5 -1 9 -1q40 -3 46 -2q9 2 17 8q10 7 18 33q1 6 3 11
q8 23 31 15q22 -8 21 -27q-4 -50 -8 -60l-9 -15q-14 -24 -42 -37q-17 -7 -55 -4h-13q-46 -2 -61 2q-2 0 -4 1q-42 11 -73 39q-49 47 -61 93q-2 5 -3 10q-14 57 -8 102q3 23 11 51q21 75 54 109q10 11 24 22q60 45 129 41q6 0 13 -1q52 -5 70 -24q9 -8 15 -21q27 -54 19 -91
q-3 -13 -10 -31q-9 -27 -28 -28q-107 -11 -186 -11zM129 337q7 -9 79 -3q41 3 42 9l3 40q-2 15 -13 23q-24 17 -57 0l-17 -10q-33 -22 -39 -45q-2 -9 2 -14z" />
    <glyph glyph-name="Eogonek" unicode="&#x118;" horiz-adv-x="648" 
d="M309 -24q3 -4 -3 -4q-24 0 -27 -1q-8 -6 -14 -21q-11 -27 -8 -50q0 -3 1 -6q3 -24 16 -36q8 -7 24 -9t23 2q9 5 15 22q4 10 14 4l5 -5q1 -2 0 -4q-1 -20 -6 -28q-7 -9 -24 -14q-4 -1 -25 -1q-20 0 -25 1q-16 4 -27 14q-20 19 -24 39q-5 21 -3 38q1 9 4 19q10 34 29 50
q31 24 46 20q4 -1 8 -4q3 -2 -2 -10q-5 -9 3 -16zM452 644q-58 10 -110 5q-23 -2 -52 -7l-34 -2l-9 -6l-1 -183q0 -23 1 -56q70 -13 80 -14q20 0 48 6q19 13 17 53q-1 41 12 53q2 3 6 5q19 12 39 5q12 -5 20 -14q0 -53 4 -290q-42 -19 -58 -6q-6 4 -14 15q-6 31 8 54
q7 11 1 22q-8 16 -36 23q-9 2 -12 3q-50 16 -76 11q-5 -1 -9 -2q-25 -7 -33 -18l-5 -8q-17 -83 -17 -167v-29q8 -18 34 -28q77 -17 189 -11q45 2 58 3q28 15 39 43q19 48 36 72q5 8 11 15q24 -27 25 -56v-18q3 -64 -7 -87q-8 -17 -24 -30h-546q-33 11 -36 25q-1 3 -1 6
q0 16 29 26l8 3q9 3 41 -6q20 -6 22 8q22 230 24 334q2 100 -2 246q-33 0 -54 -10q-4 -2 -10 0q-3 0 -7 2q-35 17 -34 43q3 39 57 61q8 3 20 7h354q39 -2 124 -17q4 -98 7 -106q-1 2 12 -33q2 -7 19 -25l7 -10v-6q-54 -18 -88 -15l-65 5q-6 7 4 16q18 14 13 38q-8 32 -13 36
q-8 5 -16 16z" />
    <glyph glyph-name="eogonek" unicode="&#x119;" horiz-adv-x="364" 
d="M225 -21q3 -4 -3 -4q-24 0 -27 -1q-8 -6 -14 -21q-11 -27 -8 -50q0 -3 1 -6q3 -24 16 -36q8 -7 24 -9t23 2q9 5 15 22q4 10 14 4l5 -5q1 -2 0 -4q-1 -20 -6 -28q-7 -9 -24 -14q-4 -1 -25 -1q-20 0 -25 1q-16 4 -27 14q-20 19 -24 39q-5 21 -3 38q1 9 4 19q10 34 29 50
q31 24 46 20q4 -1 8 -4q3 -2 -2 -10q-5 -9 3 -16zM112 269q-3 -24 -2 -48q1 -15 4 -31q9 -55 30 -79q5 -5 11 -10q16 -13 53 -17q5 -1 9 -1q40 -3 46 -2q9 2 17 8q10 7 18 33q1 6 3 11q8 23 31 15q22 -8 21 -27q-4 -50 -8 -60l-9 -15q-14 -24 -42 -37q-17 -7 -55 -4h-13
q-46 -2 -61 2q-2 0 -4 1q-42 11 -73 39q-49 47 -61 93q-2 5 -3 10q-14 57 -8 102q3 23 11 51q21 75 54 109q10 11 24 22q60 45 129 41q6 0 13 -1q52 -5 70 -24q9 -8 15 -21q27 -54 19 -91q-3 -13 -10 -31q-9 -27 -28 -28q-107 -11 -186 -11zM129 337q7 -9 79 -3q41 3 42 9
l3 40q-2 15 -13 23q-24 17 -57 0l-17 -10q-33 -22 -39 -45q-2 -9 2 -14z" />
    <glyph glyph-name="Ecaron" unicode="&#x11a;" horiz-adv-x="648" 
d="M273 1038q10 -62 28 -113q27 14 46 82q10 32 15 39q8 13 62 10q44 -3 41 -15q-14 -50 -29 -94l-31 -93q-12 -29 -34 -61q-33 -19 -80 2l-26 13q-76 147 -106 227q-4 10 51 14q61 3 63 -11zM452 644q-58 10 -110 5q-23 -2 -52 -7l-34 -2l-9 -6l-1 -183q0 -23 1 -56
q70 -13 80 -14q20 0 48 6q19 13 17 53q-1 41 12 53q2 3 6 5q19 12 39 5q12 -5 20 -14q0 -53 4 -290q-42 -19 -58 -6q-6 4 -14 15q-6 31 8 54q7 11 1 22q-8 16 -36 23q-9 2 -12 3q-50 16 -76 11q-5 -1 -9 -2q-25 -7 -33 -18l-5 -8q-17 -83 -17 -167v-29q8 -18 34 -28
q77 -17 189 -11q45 2 58 3q28 15 39 43q19 48 36 72q5 8 11 15q24 -27 25 -56v-18q3 -64 -7 -87q-8 -17 -24 -30h-546q-33 11 -36 25q-1 3 -1 6q0 16 29 26l8 3q9 3 41 -6q20 -6 22 8q22 230 24 334q2 100 -2 246q-33 0 -54 -10q-4 -2 -10 0q-3 0 -7 2q-35 17 -34 43
q3 39 57 61q8 3 20 7h354q39 -2 124 -17q4 -98 7 -106q-1 2 12 -33q2 -7 19 -25l7 -10v-6q-54 -18 -88 -15l-65 5q-6 7 4 16q18 14 13 38q-8 32 -13 36q-8 5 -16 16z" />
    <glyph glyph-name="ecaron" unicode="&#x11b;" horiz-adv-x="364" 
d="M159 744q10 -62 28 -113q27 14 46 82q10 32 15 39q8 13 62 10q44 -3 41 -15q-14 -50 -29 -94l-31 -93q-12 -29 -34 -61q-33 -19 -80 2l-26 13q-76 147 -106 227q-4 10 51 14q61 3 63 -11zM112 269q-3 -24 -2 -48q1 -15 4 -31q9 -55 30 -79q5 -5 11 -10q16 -13 53 -17
q5 -1 9 -1q40 -3 46 -2q9 2 17 8q10 7 18 33q1 6 3 11q8 23 31 15q22 -8 21 -27q-4 -50 -8 -60l-9 -15q-14 -24 -42 -37q-17 -7 -55 -4h-13q-46 -2 -61 2q-2 0 -4 1q-42 11 -73 39q-49 47 -61 93q-2 5 -3 10q-14 57 -8 102q3 23 11 51q21 75 54 109q10 11 24 22
q60 45 129 41q6 0 13 -1q52 -5 70 -24q9 -8 15 -21q27 -54 19 -91q-3 -13 -10 -31q-9 -27 -28 -28q-107 -11 -186 -11zM129 337q7 -9 79 -3q41 3 42 9l3 40q-2 15 -13 23q-24 17 -57 0l-17 -10q-33 -22 -39 -45q-2 -9 2 -14z" />
    <glyph glyph-name="Gcircumflex" unicode="&#x11c;" horiz-adv-x="776" 
d="M370 791q10 62 28 113q27 -14 46 -82q10 -32 15 -39q8 -13 62 -10q44 3 41 15q-14 50 -29 94l-31 93q-12 29 -34 61q-33 19 -80 -2l-26 -13q-76 -147 -106 -227q-4 -10 51 -14q61 -3 63 11zM703 119q-61 -86 -208 -108l-95 -9q-17 -1 -42 -2q-58 -3 -104 15q-18 7 -41 19
q-86 46 -133 109q-14 20 -29 45q-43 75 -43 144q0 12 1 26q6 98 59 181q13 22 34 50q60 79 124 117q25 14 56 28q45 19 116 20h32q58 1 87 -2q31 -4 65 -14q50 -16 104 -53q-6 4 23 -16q23 -71 8 -121q-7 -22 -32 -74q-26 17 -32 54q-6 34 -20 48q-65 69 -125 89
q-24 8 -53 12q-68 9 -115 -10q-28 -11 -56 -33q-86 -67 -109 -168q-7 -27 -10 -62q-9 -86 17 -145q15 -34 43 -68q54 -68 138 -87q19 -4 41 -7q67 -9 112 5q32 11 59 35q2 109 1 113l-7 32q-5 23 -42 27q-45 5 -56 11l-11 11l-2 2q-7 11 -4 20q2 3 4 5q204 13 290 17
q14 -14 6 -35q-3 -9 -9 -16q-4 -5 -27 -2q-12 2 -13 -6q-1 -23 5 -124q4 -57 -7 -73z" />
    <glyph glyph-name="gcircumflex" unicode="&#x11d;" horiz-adv-x="515" 
d="M197 529q10 62 28 113q27 -14 46 -82q10 -32 15 -39q8 -13 62 -10q44 3 41 15q-14 50 -29 94l-31 93q-12 29 -34 61q-33 19 -80 -2l-26 -13q-76 -147 -106 -227q-4 -10 51 -14q61 -3 63 11zM290 -9q37 -10 60 -55l7 -14q17 -37 7 -58l-2 -4q-13 -23 -51 -30l-18 -4
q-52 -13 -84 -3l-12 4q-50 22 -62 44q-5 10 -6 23q-2 32 39 60q3 2 20 13q53 34 91 27q5 -1 11 -3zM233 429q28 -7 44 -47l6 -16q12 -37 7 -66q-2 -12 -7 -26q-18 -55 -39 -69l-17 -8q-3 -1 -7 -1q-29 -4 -55 33q-2 2 -11 15q-27 37 -25 78q3 43 35 74q33 33 56 34
q6 0 13 -1zM386 395q17 -3 38 -25q15 -16 31 -13q19 2 32 30q1 1 2 4q15 32 9 87l-1 6q-2 13 -32 8q-9 -2 -13 -2q-14 -1 -44 -19q-19 -11 -36 -10q-22 1 -57 22q-20 12 -36 16q-28 7 -51 5q-18 -2 -57 -20q-25 -12 -46 -12q-12 0 -39 14q-16 9 -29 7q-4 -15 13 -29
q9 -7 11 -11q4 -5 4 -11q2 -24 -20 -60l-15 -29q-3 -7 -4 -14q-10 -38 -8 -50q0 -6 2 -12q6 -23 35 -53q21 -21 29 -38q14 -27 15 -31v-15q-5 -7 -37 -39q-14 -15 -25 -35q1 -19 27 -36q16 -10 22 -15l29 -13q4 -4 4 -10q-1 -19 -30 -25q-36 -7 -46 -14l-37 -25
q-12 -11 -15 -27q-6 -35 25 -78l21 -30q24 -35 43 -46q4 -3 8 -5q29 -14 78 -11h7q72 3 131 28q75 33 107 62q14 14 28 31q27 34 28 74q1 34 -8 55q-6 14 -18 28q-28 32 -82 46l-24 5q-23 5 -73 -4q-42 -8 -70 5q-36 16 -34 40q4 22 37 32q34 9 42 14q12 6 66 25
q38 13 58 39q17 23 18 70v19q0 13 -11 51q-7 23 -2 44z" />
    <glyph glyph-name="Gbreve" unicode="&#x11e;" horiz-adv-x="776" 
d="M575 925q-21 -6 -37 -36q-18 -34 -36 -44q-22 -11 -55 -7l-7 1q-42 5 -59 20q-2 1 -4 3q-14 13 -19 53q-5 35 -26 44q-44 17 -74 3q-24 -11 -16 -43q12 -53 60 -99l4 -4q29 -27 73 -39q15 -4 59 -3h6h50q9 1 18 4q39 12 63 37l39 40q24 29 12 56q-8 20 -37 17
q-7 -1 -14 -3zM703 119q-61 -86 -208 -108l-95 -9q-17 -1 -42 -2q-58 -3 -104 15q-18 7 -41 19q-86 46 -133 109q-14 20 -29 45q-43 75 -43 144q0 12 1 26q6 98 59 181q13 22 34 50q60 79 124 117q25 14 56 28q45 19 116 20h32q58 1 87 -2q31 -4 65 -14q50 -16 104 -53
q-6 4 23 -16q23 -71 8 -121q-7 -22 -32 -74q-26 17 -32 54q-6 34 -20 48q-65 69 -125 89q-24 8 -53 12q-68 9 -115 -10q-28 -11 -56 -33q-86 -67 -109 -168q-7 -27 -10 -62q-9 -86 17 -145q15 -34 43 -68q54 -68 138 -87q19 -4 41 -7q67 -9 112 5q32 11 59 35q2 109 1 113
l-7 32q-5 23 -42 27q-45 5 -56 11l-11 11l-2 2q-7 11 -4 20q2 3 4 5q204 13 290 17q14 -14 6 -35q-3 -9 -9 -16q-4 -5 -27 -2q-12 2 -13 -6q-1 -23 5 -124q4 -57 -7 -73z" />
    <glyph glyph-name="gbreve" unicode="&#x11f;" horiz-adv-x="515" 
d="M385 703q-21 -6 -37 -36q-18 -34 -36 -44q-22 -11 -55 -7l-7 1q-42 5 -59 20q-2 1 -4 3q-14 13 -19 53q-5 35 -26 44q-44 17 -74 3q-24 -11 -16 -43q12 -53 60 -99l4 -4q29 -27 73 -39q15 -4 59 -3h6h50q9 1 18 4q39 12 63 37l39 40q24 29 12 56q-8 20 -37 17
q-7 -1 -14 -3zM290 -9q37 -10 60 -55l7 -14q17 -37 7 -58l-2 -4q-13 -23 -51 -30l-18 -4q-52 -13 -84 -3l-12 4q-50 22 -62 44q-5 10 -6 23q-2 32 39 60q3 2 20 13q53 34 91 27q5 -1 11 -3zM233 429q28 -7 44 -47l6 -16q12 -37 7 -66q-2 -12 -7 -26q-18 -55 -39 -69l-17 -8
q-3 -1 -7 -1q-29 -4 -55 33q-2 2 -11 15q-27 37 -25 78q3 43 35 74q33 33 56 34q6 0 13 -1zM386 395q17 -3 38 -25q15 -16 31 -13q19 2 32 30q1 1 2 4q15 32 9 87l-1 6q-2 13 -32 8q-9 -2 -13 -2q-14 -1 -44 -19q-19 -11 -36 -10q-22 1 -57 22q-20 12 -36 16q-28 7 -51 5
q-18 -2 -57 -20q-25 -12 -46 -12q-12 0 -39 14q-16 9 -29 7q-4 -15 13 -29q9 -7 11 -11q4 -5 4 -11q2 -24 -20 -60l-15 -29q-3 -7 -4 -14q-10 -38 -8 -50q0 -6 2 -12q6 -23 35 -53q21 -21 29 -38q14 -27 15 -31v-15q-5 -7 -37 -39q-14 -15 -25 -35q1 -19 27 -36
q16 -10 22 -15l29 -13q4 -4 4 -10q-1 -19 -30 -25q-36 -7 -46 -14l-37 -25q-12 -11 -15 -27q-6 -35 25 -78l21 -30q24 -35 43 -46q4 -3 8 -5q29 -14 78 -11h7q72 3 131 28q75 33 107 62q14 14 28 31q27 34 28 74q1 34 -8 55q-6 14 -18 28q-28 32 -82 46l-24 5q-23 5 -73 -4
q-42 -8 -70 5q-36 16 -34 40q4 22 37 32q34 9 42 14q12 6 66 25q38 13 58 39q17 23 18 70v19q0 13 -11 51q-7 23 -2 44z" />
    <glyph glyph-name="Gdotaccent" unicode="&#x120;" horiz-adv-x="776" 
d="M361 778q38 -10 66 1q19 8 33 26q23 30 11 71q-3 13 -11 28q-23 45 -63 45t-63 -45q-18 -34 -9 -70q2 -13 9 -29q9 -22 27 -27zM703 119q-61 -86 -208 -108l-95 -9q-17 -1 -42 -2q-58 -3 -104 15q-18 7 -41 19q-86 46 -133 109q-14 20 -29 45q-43 75 -43 144q0 12 1 26
q6 98 59 181q13 22 34 50q60 79 124 117q25 14 56 28q45 19 116 20h32q58 1 87 -2q31 -4 65 -14q50 -16 104 -53q-6 4 23 -16q23 -71 8 -121q-7 -22 -32 -74q-26 17 -32 54q-6 34 -20 48q-65 69 -125 89q-24 8 -53 12q-68 9 -115 -10q-28 -11 -56 -33q-86 -67 -109 -168
q-7 -27 -10 -62q-9 -86 17 -145q15 -34 43 -68q54 -68 138 -87q19 -4 41 -7q67 -9 112 5q32 11 59 35q2 109 1 113l-7 32q-5 23 -42 27q-45 5 -56 11l-11 11l-2 2q-7 11 -4 20q2 3 4 5q204 13 290 17q14 -14 6 -35q-3 -9 -9 -16q-4 -5 -27 -2q-12 2 -13 -6q-1 -23 5 -124
q4 -57 -7 -73z" />
    <glyph glyph-name="gdotaccent" unicode="&#x121;" horiz-adv-x="515" 
d="M201 540q38 -10 66 1q19 8 33 26q23 30 11 71q-3 13 -11 28q-23 45 -63 45t-63 -45q-18 -34 -9 -70q2 -13 9 -29q9 -22 27 -27zM290 -9q37 -10 60 -55l7 -14q17 -37 7 -58l-2 -4q-13 -23 -51 -30l-18 -4q-52 -13 -84 -3l-12 4q-50 22 -62 44q-5 10 -6 23q-2 32 39 60
q3 2 20 13q53 34 91 27q5 -1 11 -3zM233 429q28 -7 44 -47l6 -16q12 -37 7 -66q-2 -12 -7 -26q-18 -55 -39 -69l-17 -8q-3 -1 -7 -1q-29 -4 -55 33q-2 2 -11 15q-27 37 -25 78q3 43 35 74q33 33 56 34q6 0 13 -1zM386 395q17 -3 38 -25q15 -16 31 -13q19 2 32 30q1 1 2 4
q15 32 9 87l-1 6q-2 13 -32 8q-9 -2 -13 -2q-14 -1 -44 -19q-19 -11 -36 -10q-22 1 -57 22q-20 12 -36 16q-28 7 -51 5q-18 -2 -57 -20q-25 -12 -46 -12q-12 0 -39 14q-16 9 -29 7q-4 -15 13 -29q9 -7 11 -11q4 -5 4 -11q2 -24 -20 -60l-15 -29q-3 -7 -4 -14q-10 -38 -8 -50
q0 -6 2 -12q6 -23 35 -53q21 -21 29 -38q14 -27 15 -31v-15q-5 -7 -37 -39q-14 -15 -25 -35q1 -19 27 -36q16 -10 22 -15l29 -13q4 -4 4 -10q-1 -19 -30 -25q-36 -7 -46 -14l-37 -25q-12 -11 -15 -27q-6 -35 25 -78l21 -30q24 -35 43 -46q4 -3 8 -5q29 -14 78 -11h7
q72 3 131 28q75 33 107 62q14 14 28 31q27 34 28 74q1 34 -8 55q-6 14 -18 28q-28 32 -82 46l-24 5q-23 5 -73 -4q-42 -8 -70 5q-36 16 -34 40q4 22 37 32q34 9 42 14q12 6 66 25q38 13 58 39q17 23 18 70v19q0 13 -11 51q-7 23 -2 44z" />
    <glyph glyph-name="Gcommaaccent" unicode="&#x122;" horiz-adv-x="776" 
d="M327 -347q-28 -1 -44 5q-19 7 -22 25q-4 23 28 40q37 19 45 28q5 6 8 13q9 22 5 40q-1 7 -5 14q-7 15 -39 25q-29 10 -33 29q-6 54 3 81t33 45q30 22 74 8q10 -3 22 -8q34 -15 51 -54t10 -85q-1 -9 -4 -23q-15 -79 -50 -124q-7 -10 -16 -20q-31 -34 -58 -38zM703 119
q-61 -86 -208 -108l-95 -9q-17 -1 -42 -2q-58 -3 -104 15q-18 7 -41 19q-86 46 -133 109q-14 20 -29 45q-43 75 -43 144q0 12 1 26q6 98 59 181q13 22 34 50q60 79 124 117q25 14 56 28q45 19 116 20h32q58 1 87 -2q31 -4 65 -14q50 -16 104 -53q-6 4 23 -16q23 -71 8 -121
q-7 -22 -32 -74q-26 17 -32 54q-6 34 -20 48q-65 69 -125 89q-24 8 -53 12q-68 9 -115 -10q-28 -11 -56 -33q-86 -67 -109 -168q-7 -27 -10 -62q-9 -86 17 -145q15 -34 43 -68q54 -68 138 -87q19 -4 41 -7q67 -9 112 5q32 11 59 35q2 109 1 113l-7 32q-5 23 -42 27
q-45 5 -56 11l-11 11l-2 2q-7 11 -4 20q2 3 4 5q204 13 290 17q14 -14 6 -35q-3 -9 -9 -16q-4 -5 -27 -2q-12 2 -13 -6q-1 -23 5 -124q4 -57 -7 -73z" />
    <glyph glyph-name="gcommaaccent" unicode="&#x123;" horiz-adv-x="515" 
d="M162 -617q-28 -1 -44 5q-19 7 -22 25q-4 23 28 40q37 19 45 28q5 6 8 13q9 22 5 40q-1 7 -5 14q-7 15 -39 25q-29 10 -33 29q-6 54 3 81t33 45q30 22 74 8q10 -3 22 -8q34 -15 51 -54t10 -85q-1 -9 -4 -23q-15 -79 -50 -124q-7 -10 -16 -20q-31 -34 -58 -38zM290 -9
q37 -10 60 -55l7 -14q17 -37 7 -58l-2 -4q-13 -23 -51 -30l-18 -4q-52 -13 -84 -3l-12 4q-50 22 -62 44q-5 10 -6 23q-2 32 39 60q3 2 20 13q53 34 91 27q5 -1 11 -3zM233 429q28 -7 44 -47l6 -16q12 -37 7 -66q-2 -12 -7 -26q-18 -55 -39 -69l-17 -8q-3 -1 -7 -1
q-29 -4 -55 33q-2 2 -11 15q-27 37 -25 78q3 43 35 74q33 33 56 34q6 0 13 -1zM386 395q17 -3 38 -25q15 -16 31 -13q19 2 32 30q1 1 2 4q15 32 9 87l-1 6q-2 13 -32 8q-9 -2 -13 -2q-14 -1 -44 -19q-19 -11 -36 -10q-22 1 -57 22q-20 12 -36 16q-28 7 -51 5q-18 -2 -57 -20
q-25 -12 -46 -12q-12 0 -39 14q-16 9 -29 7q-4 -15 13 -29q9 -7 11 -11q4 -5 4 -11q2 -24 -20 -60l-15 -29q-3 -7 -4 -14q-10 -38 -8 -50q0 -6 2 -12q6 -23 35 -53q21 -21 29 -38q14 -27 15 -31v-15q-5 -7 -37 -39q-14 -15 -25 -35q1 -19 27 -36q16 -10 22 -15l29 -13
q4 -4 4 -10q-1 -19 -30 -25q-36 -7 -46 -14l-37 -25q-12 -11 -15 -27q-6 -35 25 -78l21 -30q24 -35 43 -46q4 -3 8 -5q29 -14 78 -11h7q72 3 131 28q75 33 107 62q14 14 28 31q27 34 28 74q1 34 -8 55q-6 14 -18 28q-28 32 -82 46l-24 5q-23 5 -73 -4q-42 -8 -70 5
q-36 16 -34 40q4 22 37 32q34 9 42 14q12 6 66 25q38 13 58 39q17 23 18 70v19q0 13 -11 51q-7 23 -2 44z" />
    <glyph glyph-name="Hcircumflex" unicode="&#x124;" horiz-adv-x="810" 
d="M396 776q10 62 28 113q27 -14 46 -82q10 -32 15 -39q8 -13 62 -10q44 3 41 15q-14 50 -29 94l-31 93q-12 29 -34 61q-33 19 -80 -2l-26 -13q-76 -147 -106 -227q-4 -10 51 -14q61 -3 63 11zM43 694q11 -15 47 -13q35 3 47 -13q-3 -176 -15 -373q-5 -78 -3 -210
q-13 -14 -51 -4q-35 11 -48 -1q-2 -1 -3 -3q-12 -16 -4 -35q5 -9 13 -16q145 -16 161 -15q92 5 163 6q21 15 16 38q-1 7 -4 13q-10 20 -46 22q-40 3 -52 16q-2 3 -4 5q-4 109 -1 109l2 -5q2 2 -8 160q266 6 268 4q8 -5 85 -9l1 -189l-7 -70q-2 -19 -32 -24q-38 -6 -48 -14
q-3 -2 -5 -5q-11 -14 -14 -48q-1 -12 -3 -20l152 -1q-20 -2 111 10l-3 48q-2 5 -4 11q-5 11 -26 28q-13 11 -17 23q2 170 0 233q-1 49 0 297q8 15 40 27q27 10 35 26q9 16 4 27q-1 4 -4 7q-111 17 -160 14q-17 -1 -94 -8q-14 -13 -8 -34q3 -9 8 -17q10 -14 43 -17
q32 -2 42 -17q-6 -36 -6 -133q0 -45 -2 -89q-122 -2 -162 -2q-76 1 -188 2l-1 167q2 29 5 77q14 14 52 5q39 -8 55 7q11 12 8 28q-2 8 -8 15l-227 9q-36 1 -97 2q-17 -15 -11 -35z" />
    <glyph glyph-name="hcircumflex" unicode="&#x125;" horiz-adv-x="485" 
d="M134 778q10 62 28 113q27 -14 46 -82q10 -32 15 -39q8 -13 62 -10q44 3 41 15q-14 50 -29 94l-31 93q-12 29 -34 61q-33 19 -80 -2l-26 -13q-76 -147 -106 -227q-4 -10 51 -14q61 -3 63 11zM107 95q-5 128 -5 533v17q-6 11 -32 17l-19 7q-3 2 -5 4q-20 18 -20 19
q-5 7 -3 15q5 20 39 26l18 3q55 11 62 11q25 0 42 -17q4 -83 4 -279q25 29 64 36q-6 -1 32 6q40 7 84 -27q5 -4 13 -10q28 -22 41 -62q24 -75 16 -189q-7 -87 -6 -120q5 -13 24 -19q12 -5 16 -13q9 -18 5 -32q-1 -5 -5 -9l-182 1q-14 14 -8 34q2 9 8 17q6 9 30 9q15 1 21 9
q18 114 18 140q2 44 -6 96q-7 44 -58 70q-2 2 -5 3q-20 10 -41 7q-7 -1 -16 -4q-32 -8 -38 -13l-6 -9q-1 -3 -1 -6q-2 -33 0 -192q0 -45 -1 -76q5 -12 26 -12q14 0 19 -7q25 -33 12 -56q-2 -4 -5 -8q-127 -2 -212 -2q-22 17 -17 39l4 10q9 18 47 18q36 0 46 15z" />
    <glyph glyph-name="Hbar" unicode="&#x126;" horiz-adv-x="810" 
d="M784 575q25 2 24 -18q-2 -23 -24 -40q-11 -8 -20 -6l-718 9q-23 -5 -24 13q-1 13 9 22q32 27 305 21h45l279 -7q68 1 124 6zM43 694q-14 18 -8 36q3 8 11 15q134 -2 191 -6q29 -2 133 -5q11 -12 8 -27l-7 -14l-1 -2q-14 -16 -53 -7q-39 8 -54 -5q-6 -83 -4 -189v-55
q258 -2 299 -1q20 1 51 1l4 187q1 17 4 35q-10 15 -44 17l-25 5l-13 8q-1 2 -3 4q-14 21 -8 39q2 7 8 12q112 11 151 8q28 -3 103 -14q9 -10 4 -25q-1 -4 -4 -9q-8 -16 -39 -28l-23 -11l-11 -10l-2 -4q-1 -217 2 -324l-2 -206q4 -12 25 -29q13 -11 18 -22t6 -46q0 -7 1 -13
q-125 -12 -141 -11l-122 2l7 50q3 10 10 18q10 13 49 18q32 5 36 25l7 89q-1 60 -1 170q-67 4 -86 10l-267 -5l8 -160l-2 5q-3 -2 1 -109q12 -18 52 -20q38 -3 50 -23q9 -17 3 -33q-4 -10 -15 -18l-186 -6l-138 15q-21 17 -14 40q1 6 5 11q13 16 49 5q37 -11 53 3
q-2 137 7 266q8 121 11 317q-12 16 -47 13q-36 -2 -47 13z" />
    <glyph glyph-name="hbar" unicode="&#x127;" horiz-adv-x="485" 
d="M187 635q16 3 31 2q4 0 8 -1q42 -6 55 -15l11 -12q22 -30 13 -57l-7 -15q-22 -33 -78 -35q3 0 -32 -1v-50q25 29 64 36q-6 -1 32 6q40 7 84 -27q5 -4 13 -10q28 -22 41 -62q24 -75 16 -189q-7 -87 -6 -120q5 -13 24 -19q12 -5 16 -13q9 -18 5 -32q-1 -5 -5 -9l-182 1
q-14 14 -8 34q2 9 8 17q6 9 30 9q15 1 21 9q18 114 18 140q2 44 -6 96q-7 44 -58 70q-2 2 -5 3q-20 10 -41 7q-7 -1 -16 -4q-32 -8 -38 -13l-6 -9q-1 -3 -1 -6q-2 -33 0 -192q0 -45 -1 -76q5 -12 26 -12q14 0 19 -7q25 -33 12 -56q-2 -4 -5 -8q-127 -2 -212 -2
q-22 17 -17 39l4 10q9 18 47 18q36 0 46 15q-6 138 -5 360v43q-54 3 -80 39q-14 20 -6 43q4 11 12 20q21 24 67 24h7v21q-6 11 -32 17l-19 7q-3 2 -5 4q-20 18 -20 19q-5 7 -3 15q5 20 39 26l18 3q55 11 62 11q25 0 42 -17q3 -52 3 -95z" />
    <glyph glyph-name="Itilde" unicode="&#x128;" horiz-adv-x="389" 
d="M134 892q15 -1 44 -18l18 -9l33 -16q7 -2 14 -1q13 1 29 22q14 18 27 18q34 -1 42 -25q1 -4 1 -7q1 -10 -16 -20l-10 -6l-43 -36q-18 -11 -39 -12q-23 -2 -53 25q-31 26 -54 25q-14 0 -33 -21q-16 -18 -31 -15q-28 4 -34 30q-1 4 -1 9q1 16 25 30q9 6 11 7q37 22 70 20z
M245 678q19 8 64 -4q40 -11 54 5q2 2 4 5l7 30q1 14 -4 20l-227 9q-36 1 -97 2q-17 -15 -11 -35l8 -16q11 -15 47 -13q35 3 47 -13q-6 -392 -5 -437q1 -33 3 -146q-13 -14 -54 -3q-43 12 -58 1q-3 -2 -6 -6q-12 -16 -4 -35q5 -9 13 -16q145 -16 161 -15q92 5 163 6
q23 17 17 40q-1 6 -5 11q-10 17 -45 13q-38 -4 -51 6q-3 3 -6 7q-2 51 -3 291q-1 121 -12 293z" />
    <glyph glyph-name="itilde" unicode="&#x129;" horiz-adv-x="250" 
d="M88 553q11 -1 36 -15q6 -3 11 -5l27 -13q4 -1 9 -1q9 2 22 19q9 12 20 11q26 0 31 -19v-4q1 -8 -12 -15q-5 -3 -7 -5l-34 -28q-13 -7 -27 -8q-17 -1 -43 21q-21 18 -38 17q-10 0 -26 -17q-11 -12 -22 -10q-23 3 -26 24v5q0 12 20 24q5 2 7 4q28 16 52 15zM15 406
q26 12 57 23l43 15q9 1 18 0q37 -5 51 -29q17 -29 7 -79l-9 -48v-10l-5 -204v-2q5 -13 30 -18q17 -4 22 -14q7 -14 4 -26q-2 -8 -9 -14h-199q-13 10 -9 25q1 5 3 9q8 15 39 17q30 2 39 15l-2 174q-1 36 -4 86q-9 23 -34 42q-26 19 -42 38z" />
    <glyph glyph-name="Imacron" unicode="&#x12a;" horiz-adv-x="389" 
d="M57 803q-14 20 -6 43q4 11 12 20q21 24 68 24q36 1 49 3l57 10q12 1 24 -1q42 -6 55 -15l11 -12q22 -30 13 -57q-2 -8 -7 -15q-22 -32 -77 -35q55 3 -40 -1q-79 -3 -83 -3q-50 4 -76 39zM245 678q19 8 64 -4q40 -11 54 5q2 2 4 5l7 30q1 14 -4 20l-227 9q-36 1 -97 2
q-17 -15 -11 -35l8 -16q11 -15 47 -13q35 3 47 -13q-6 -392 -5 -437q1 -33 3 -146q-13 -14 -54 -3q-43 12 -58 1q-3 -2 -6 -6q-12 -16 -4 -35q5 -9 13 -16q145 -16 161 -15q92 5 163 6q23 17 17 40q-1 6 -5 11q-10 17 -45 13q-38 -4 -51 6q-3 3 -6 7q-2 51 -3 291
q-1 121 -12 293z" />
    <glyph glyph-name="imacron" unicode="&#x12b;" horiz-adv-x="250" 
d="M24 518q-11 15 -5 32q3 9 9 16q16 18 54 18q23 0 34 2q45 8 47 8q7 0 14 -1q34 -5 44 -14q3 -3 5 -7q16 -21 10 -42q-1 -6 -5 -12q-17 -25 -63 -26h-25q-63 -3 -72 -2q-30 5 -47 28zM15 406q26 12 57 23l43 15q9 1 18 0q37 -5 51 -29q17 -29 7 -79l-9 -48v-10l-5 -204v-2
q5 -13 30 -18q17 -4 22 -14q7 -14 4 -26q-2 -8 -9 -14h-199q-13 10 -9 25q1 5 3 9q8 15 39 17q30 2 39 15l-2 174q-1 36 -4 86q-9 23 -34 42q-26 19 -42 38z" />
    <glyph glyph-name="Ibreve" unicode="&#x12c;" horiz-adv-x="389" 
d="M326 913q-20 -6 -35 -35l-16 -26q-8 -10 -18 -15q-21 -10 -51 -7l-8 1q-40 6 -56 19q-2 2 -4 3q-13 12 -18 51q-5 34 -25 41q-42 16 -70 3q-23 -10 -15 -41q11 -51 58 -95q1 -1 3 -2q27 -26 69 -37q14 -4 57 -3h5h49q7 1 15 4q37 11 60 35l38 38q22 27 11 53
q-8 18 -35 16q-6 -1 -14 -3zM245 678q19 8 64 -4q40 -11 54 5q2 2 4 5l7 30q1 14 -4 20l-227 9q-36 1 -97 2q-17 -15 -11 -35l8 -16q11 -15 47 -13q35 3 47 -13q-6 -392 -5 -437q1 -33 3 -146q-13 -14 -54 -3q-43 12 -58 1q-3 -2 -6 -6q-12 -16 -4 -35q5 -9 13 -16
q145 -16 161 -15q92 5 163 6q23 17 17 40q-1 6 -5 11q-10 17 -45 13q-38 -4 -51 6q-3 3 -6 7q-2 51 -3 291q-1 121 -12 293z" />
    <glyph glyph-name="ibreve" unicode="&#x12d;" horiz-adv-x="250" 
d="M199 563q-12 -4 -23 -24l-10 -15q-4 -4 -8 -6q-13 -6 -31 -4h-4q-25 4 -36 13q-7 7 -11 33q-3 18 -14 22q-25 9 -41 2q-6 -3 -9 -8q-3 -6 -1 -16q7 -31 36 -58q16 -16 41 -22q7 -2 37 -2q31 0 38 2q22 7 36 21q24 26 26 29q8 13 2 25q-4 11 -20 9q-4 0 -8 -1zM15 406
q26 12 57 23l43 15q9 1 18 0q37 -5 51 -29q17 -29 7 -79l-9 -48v-10l-5 -204v-2q5 -13 30 -18q17 -4 22 -14q7 -14 4 -26q-2 -8 -9 -14h-199q-13 10 -9 25q1 5 3 9q8 15 39 17q30 2 39 15l-2 174q-1 36 -4 86q-9 23 -34 42q-26 19 -42 38z" />
    <glyph glyph-name="Iogonek" unicode="&#x12e;" horiz-adv-x="389" 
d="M349 -14q3 -4 -3 -4q-24 0 -27 -1q-8 -6 -14 -21q-11 -27 -8 -50q0 -3 1 -6q3 -24 16 -36q8 -7 24 -9t23 2q9 5 15 22q4 10 14 4l5 -5q1 -2 0 -4q-1 -20 -6 -28q-7 -9 -24 -14q-4 -1 -25 -1q-20 0 -25 1q-16 4 -27 14q-20 19 -24 39q-5 21 -3 38q1 9 4 19q10 34 29 50
q31 24 46 20q4 -1 8 -4q3 -2 -2 -10q-5 -9 3 -16zM245 678q19 8 64 -4q40 -11 54 5q2 2 4 5l7 30q1 14 -4 20l-227 9q-36 1 -97 2q-17 -15 -11 -35l8 -16q11 -15 47 -13q35 3 47 -13q-6 -392 -5 -437q1 -33 3 -146q-13 -14 -54 -3q-43 12 -58 1q-3 -2 -6 -6q-12 -16 -4 -35
q5 -9 13 -16q145 -16 161 -15q92 5 163 6q23 17 17 40q-1 6 -5 11q-10 17 -45 13q-38 -4 -51 6q-3 3 -6 7q-2 51 -3 291q-1 121 -12 293z" />
    <glyph glyph-name="iogonek" unicode="&#x12f;" horiz-adv-x="250" 
d="M123 -24q3 -4 -3 -4q-24 0 -27 -1q-8 -6 -14 -21q-11 -27 -8 -50q0 -3 1 -6q3 -24 16 -36q8 -7 24 -9t23 2q9 5 15 22q4 10 14 4l5 -5q1 -2 0 -4q-1 -20 -6 -28q-7 -9 -24 -14q-4 -1 -25 -1q-20 0 -25 1q-16 4 -27 14q-20 19 -24 39q-5 21 -3 38q1 9 4 19q10 34 29 50
q31 24 46 20q4 -1 8 -4q3 -2 -2 -10q-5 -9 3 -16zM137 576q-25 2 -35 12q-11 11 -11 34q0 26 11 40q16 20 40 23q23 2 36 -3q12 -4 21 -15q19 -20 14 -45q-1 -5 -3 -11q-5 -14 -27 -24q-4 -2 -5 -3q-19 -9 -41 -8zM15 406q26 12 57 23l43 15q9 1 18 0q37 -5 51 -29
q17 -29 7 -79l-9 -48v-10l-5 -204v-2q5 -13 30 -18q17 -4 22 -14q7 -14 4 -26q-2 -8 -9 -14h-199q-13 10 -9 25q1 5 3 9q8 15 39 17q30 2 39 15l-2 174q-1 36 -4 86q-9 23 -34 42q-26 19 -42 38z" />
    <glyph glyph-name="Idotaccent" unicode="&#x130;" horiz-adv-x="389" 
d="M155 780q38 -10 66 1q19 8 33 26q23 30 11 71q-3 13 -11 28q-23 45 -63 45t-63 -45q-18 -34 -9 -70q2 -13 9 -29q9 -22 27 -27zM245 678q19 8 64 -4q40 -11 54 5q2 2 4 5l7 30q1 14 -4 20l-227 9q-36 1 -97 2q-17 -15 -11 -35l8 -16q11 -15 47 -13q35 3 47 -13
q-6 -392 -5 -437q1 -33 3 -146q-13 -14 -54 -3q-43 12 -58 1q-3 -2 -6 -6q-12 -16 -4 -35q5 -9 13 -16q145 -16 161 -15q92 5 163 6q23 17 17 40q-1 6 -5 11q-10 17 -45 13q-38 -4 -51 6q-3 3 -6 7q-2 51 -3 291q-1 121 -12 293z" />
    <glyph glyph-name="dotlessi" unicode="&#x131;" horiz-adv-x="250" 
d="M15 406q26 12 57 23l43 15q9 1 18 0q37 -5 51 -29q17 -29 7 -79l-9 -48v-10l-5 -204v-2q5 -13 30 -18q17 -4 22 -14q7 -14 4 -26q-2 -8 -9 -14h-199q-13 10 -9 25q1 5 3 9q8 15 39 17q30 2 39 15l-2 174q-1 36 -4 86q-9 23 -34 42q-26 19 -42 38z" />
    <glyph glyph-name="Jcircumflex" unicode="&#x134;" horiz-adv-x="379" 
d="M204 805q10 62 28 113q27 -14 46 -82q10 -32 15 -39q8 -13 62 -10q44 3 41 15q-14 50 -29 94l-31 93q-12 29 -34 61q-33 19 -80 -2l-26 -13q-76 -147 -106 -227q-4 -10 51 -14q61 -3 63 11zM193 671q1 -221 -1 -767q-5 -29 -21 -50q-16 -20 -24 -23q-3 -1 -7 -2
q-13 -3 -39 12q-8 4 -22 25q-8 12 -20 14q-16 1 -34 -21q-19 -24 -17 -46q3 -28 28 -46q15 -10 51 -12q35 0 63 11q26 11 67 45q40 35 45 42q10 12 17 26q9 19 13 67q-1 68 -1 428q0 116 -5 273q9 18 39 32q27 13 35 30q7 14 3 23q-1 3 -3 6q-18 22 -61 22h-35q-59 5 -99 1
q-29 -4 -55 -12q-5 -31 6 -45q10 -13 41 -16q27 -3 36 -17z" />
    <glyph glyph-name="jcircumflex" unicode="&#x135;" horiz-adv-x="286" 
d="M156 511q10 62 28 113q27 -14 46 -82q10 -32 15 -39q8 -13 62 -10q44 3 41 15q-14 50 -29 94l-31 93q-12 29 -34 61q-33 19 -80 -2l-26 -13q-76 -147 -106 -227q-4 -10 51 -14q61 -3 63 11zM165 374q-7 8 -31 5q-19 -3 -26 6q-17 21 -12 45q3 13 12 23q95 23 142 22
q6 -1 12 -1v-570q-11 -40 -36 -72q-27 -32 -80 -62q-35 -20 -46 -22q-5 -1 -11 -1q-17 -1 -33 6l-9 5q-24 14 -32 29q-8 18 -5 35q2 7 5 16q10 24 34 34q21 9 38 5q7 -1 14 -5q5 -2 13 -18q4 -7 9 -10q28 -16 41 -6l3 228l-2 -80v388z" />
    <glyph glyph-name="Kcommaaccent" unicode="&#x136;" horiz-adv-x="725" 
d="M137 -337q-28 -1 -44 5q-19 7 -22 25q-4 23 28 40q37 19 45 28q5 6 8 13q9 22 5 40q-1 7 -5 14q-7 15 -39 25q-29 10 -33 29q-6 54 3 81t33 45q30 22 74 8q10 -3 22 -8q34 -15 51 -54t10 -85q-1 -9 -4 -23q-15 -79 -50 -124q-7 -10 -16 -20q-31 -34 -58 -38zM111 657
q7 -351 18 -541q1 -14 2 -31q-17 -3 -64 5q-37 7 -56 -13q-14 -16 -9 -35q2 -9 9 -16q103 0 181 -7q28 -2 92 -2q27 17 21 42q-1 3 -3 6q-9 15 -40 10q-35 -5 -46 7q-8 106 -5 156q2 19 5 49q23 46 60 43q77 -81 113 -126q27 -33 63 -76q7 -26 2 -42q-4 -11 -13 -18
q-13 -11 -47 1q-31 12 -44 -1q-19 -19 -11 -41q3 -9 11 -17h344q25 26 13 57q-5 13 -16 24t-39 2q-22 -8 -35 -2l-166 201q-32 36 -118 112l138 172q26 30 87 81q7 6 41 17q25 8 27 26q2 19 -28 32q24 -11 -15 7q-84 6 -71 9q2 1 -1 1l-73 -2h-17q-50 -21 -52 -46
q0 -5 1 -10q3 -18 39 -21t43 -14q2 -3 3 -7l-148 -194l-57 -80q-14 -1 -23 20q-1 2 -2 6q1 49 7 138q2 32 1 127q12 11 43 0q31 -12 43 0q21 21 14 50q-3 15 -14 26q-137 -1 -256 0q-37 -25 -32 -58l6 -16q7 -12 44 -4q29 7 30 -7z" />
    <glyph glyph-name="kcommaaccent" unicode="&#x137;" horiz-adv-x="537" 
d="M230 -354q-28 -1 -44 5q-19 7 -22 25q-4 23 28 40q37 19 45 28q5 6 8 13q9 22 5 40q-1 7 -5 14q-7 15 -39 25q-29 10 -33 29q-6 54 3 81t33 45q30 22 74 8q10 -3 22 -8q34 -15 51 -54t10 -85q-1 -9 -4 -23q-15 -79 -50 -124q-7 -10 -16 -20q-31 -34 -58 -38zM80 649
q-5 7 -35 9q-17 1 -23 8q-11 13 -8 29q0 5 2 10l34 22q1 0 6 2q33 12 68 11l43 -2q15 -4 24 -16q10 -14 5 -31l-5 -14q-2 -4 -16 -10l-6 -6l-1 -1q4 -140 3 -296v-90q3 -15 23 -23l92 67q16 14 34 33q11 25 3 37l-3 3q-7 6 -27 0q-12 -3 -19 0q-22 7 -23 22q-1 19 16 32
q5 4 13 8q89 4 205 12q23 -15 19 -37q0 -3 -1 -5l-170 -117q-28 -21 -70 -54q67 -63 160 -134q52 -40 102 -85l-2 -24q-55 -11 -142 -6q-47 2 -82 2q-12 13 6 34l5 5q8 8 38 6q22 -2 25 11q-82 44 -116 72q-18 15 -72 64l-1 -118q-1 -14 -2 -30q5 -7 25 -8q13 -1 18 -9
q6 -8 4 -18q-1 -4 -4 -7q-48 -9 -186 -7q-10 9 -5 24q2 5 5 10q5 8 24 12q13 3 18 11z" />
    <glyph glyph-name="kgreenlandic" unicode="&#x138;" horiz-adv-x="537" 
d="M80 456l1 -399q-5 -8 -25 -12q-12 -3 -17 -11q-10 -15 -5 -27q2 -4 5 -7q138 -2 186 7q6 6 4 16q-1 5 -4 9q-5 8 -25 9q-13 1 -18 8q4 64 3 134v14q80 -73 112 -93q20 -13 76 -43q-3 -13 -27 -11q-28 2 -36 -6q-23 -25 -11 -39l157 -4q32 1 67 8l2 24q-45 41 -138 113
q-58 44 -124 106q72 57 165 120q36 24 75 51q5 16 -6 30q-4 7 -12 12q-116 -8 -205 -12q-29 -16 -29 -40q1 -15 23 -22q6 -3 28 3q12 3 18 -3q11 -11 3 -33l-3 -7q-31 -33 -82 -68q-24 -16 -44 -32q-15 3 -22 19q-1 2 -1 4l1 67q-2 -47 -4 39q2 4 16 10q5 3 7 7q10 20 5 35
q-1 5 -5 10q-15 19 -56 18h-11q-11 0 -44 -4z" />
    <glyph glyph-name="Lacute" unicode="&#x139;" horiz-adv-x="708" 
d="M369 1052q-53 27 -75 25q-16 -1 -31 -10q-32 -47 -51 -109l-14 -45q-16 -44 -29 -94q-4 -13 48 -15q48 -1 55 10q3 4 35 106q37 118 62 132zM114 731q-20 -18 -14 -50q2 -8 5 -18q63 -30 82 -60l13 -26q3 -115 -5 -313q-4 -94 -3 -190q-37 -11 -78 1q-37 11 -65 10
q-24 -40 -23 -47q0 -6 6 -13l9 -11q215 -21 350 -13l205 13h4q24 -3 60 -14q12 110 8 150q-3 24 -17 95q-10 -2 -58 3q-39 4 -44 -20q-6 -31 4 -81q6 -32 5 -59q-85 -37 -138 -40h-91q-2 89 -1 335q0 80 -2 203q7 25 32 43q11 7 43 5q25 -2 34 12q19 28 3 60q-7 15 -20 25
l-172 8q-72 -5 -132 -8z" />
    <glyph glyph-name="lacute" unicode="&#x13a;" horiz-adv-x="281" 
d="M254 1050q-53 27 -75 25q-16 -1 -31 -10q-32 -47 -51 -109l-14 -45q-16 -44 -29 -94q-4 -13 48 -15q48 -1 55 10q3 4 35 106q37 118 62 132zM215 716v-627l31 -17l14 -15l5 -8q8 -10 1 -35q-1 -3 -1 -5l-226 -5q-14 19 -6 57q18 17 57 25q7 2 11 3l-1 529q-46 1 -54 4
q-18 5 -31 25l6 39q7 22 33 38q1 1 11 7q43 21 121 -5q11 -4 29 -10z" />
    <glyph glyph-name="Lcommaaccent" unicode="&#x13b;" horiz-adv-x="708" 
d="M347 -367q-28 -1 -44 5q-19 7 -22 25q-4 23 28 40q37 19 45 28q5 6 8 13q9 22 5 40q-1 7 -5 14q-7 15 -39 25q-29 10 -33 29q-6 54 3 81t33 45q30 22 74 8q10 -3 22 -8q34 -15 51 -54t10 -85q-1 -9 -4 -23q-15 -79 -50 -124q-7 -10 -16 -20q-31 -34 -58 -38zM114 731
q-20 -18 -14 -50q2 -8 5 -18q63 -30 82 -60l13 -26q3 -115 -5 -313q-4 -94 -3 -190q-37 -11 -78 1q-37 11 -65 10q-24 -40 -23 -47q0 -6 6 -13l9 -11q215 -21 350 -13l205 13h4q24 -3 60 -14q12 110 8 150q-3 24 -17 95q-10 -2 -58 3q-39 4 -44 -20q-6 -31 4 -81
q6 -32 5 -59q-85 -37 -138 -40h-91q-2 89 -1 335q0 80 -2 203q7 25 32 43q11 7 43 5q25 -2 34 12q19 28 3 60q-7 15 -20 25l-172 8q-72 -5 -132 -8z" />
    <glyph glyph-name="lcommaaccent" unicode="&#x13c;" horiz-adv-x="281" 
d="M117 -355q-28 -1 -44 5q-19 7 -22 25q-4 23 28 40q37 19 45 28q5 6 8 13q9 22 5 40q-1 7 -5 14q-7 15 -39 25q-29 10 -33 29q-6 54 3 81t33 45q30 22 74 8q10 -3 22 -8q34 -15 51 -54t10 -85q-1 -9 -4 -23q-15 -79 -50 -124q-7 -10 -16 -20q-31 -34 -58 -38zM215 716
v-627l31 -17l14 -15l5 -8q8 -10 1 -35q-1 -3 -1 -5l-226 -5q-14 19 -6 57q18 17 57 25q7 2 11 3l-1 529q-46 1 -54 4q-18 5 -31 25l6 39q7 22 33 38q1 1 11 7q43 21 121 -5q11 -4 29 -10z" />
    <glyph glyph-name="Lcaron" unicode="&#x13d;" horiz-adv-x="708" 
d="M220 1017q10 -62 28 -113q27 14 46 82q10 32 15 39q8 13 62 10q44 -3 41 -15q-14 -50 -29 -94l-31 -93q-12 -29 -34 -61q-33 -19 -80 2l-26 13q-76 147 -106 227q-4 10 51 14q61 3 63 -11zM114 731q-20 -18 -14 -50q2 -8 5 -18q63 -30 82 -60l13 -26q3 -115 -5 -313
q-4 -94 -3 -190q-37 -11 -78 1q-37 11 -65 10q-24 -40 -23 -47q0 -6 6 -13l9 -11q215 -21 350 -13l205 13h4q24 -3 60 -14q12 110 8 150q-3 24 -17 95q-10 -2 -58 3q-39 4 -44 -20q-6 -31 4 -81q6 -32 5 -59q-85 -37 -138 -40h-91q-2 89 -1 335q0 80 -2 203q7 25 32 43
q11 7 43 5q25 -2 34 12q19 28 3 60q-7 15 -20 25l-172 8q-72 -5 -132 -8z" />
    <glyph glyph-name="lcaron" unicode="&#x13e;" horiz-adv-x="281" 
d="M98 1021q10 -62 28 -113q27 14 46 82q10 32 15 39q8 13 62 10q44 -3 41 -15q-14 -50 -29 -94l-31 -93q-12 -29 -34 -61q-33 -19 -80 2l-26 13q-76 147 -106 227q-4 10 51 14q61 3 63 -11zM215 716v-627l31 -17l14 -15l5 -8q8 -10 1 -35q-1 -3 -1 -5l-226 -5q-14 19 -6 57
q18 17 57 25q7 2 11 3l-1 529q-46 1 -54 4q-18 5 -31 25l6 39q7 22 33 38q1 1 11 7q43 21 121 -5q11 -4 29 -10z" />
    <glyph glyph-name="Ldot" unicode="&#x13f;" horiz-adv-x="708" 
d="M420 263q38 -10 66 1q19 8 33 26q23 30 11 71q-3 13 -11 28q-23 45 -63 45t-63 -45q-18 -34 -9 -70q2 -13 9 -29q9 -22 27 -27zM114 731q-20 -18 -14 -50q2 -8 5 -18q63 -30 82 -60l13 -26q3 -115 -5 -313q-4 -94 -3 -190q-37 -11 -78 1q-37 11 -65 10q-24 -40 -23 -47
q0 -6 6 -13l9 -11q215 -21 350 -13l205 13h4q24 -3 60 -14q12 110 8 150q-3 24 -17 95q-10 -2 -58 3q-39 4 -44 -20q-6 -31 4 -81q6 -32 5 -59q-85 -37 -138 -40h-91q-2 89 -1 335q0 80 -2 203q7 25 32 43q11 7 43 5q25 -2 34 12q19 28 3 60q-7 15 -20 25l-172 8
q-72 -5 -132 -8z" />
    <glyph glyph-name="ldot" unicode="&#x140;" horiz-adv-x="459" 
d="M301 287q38 -10 66 1q19 8 33 26q23 30 11 71q-3 13 -11 28q-23 45 -63 45t-63 -45q-18 -34 -9 -70q2 -13 9 -29q9 -22 27 -27zM215 716v-627l31 -17l14 -15l5 -8q8 -10 1 -35q-1 -3 -1 -5l-226 -5q-14 19 -6 57q18 17 57 25q7 2 11 3l-1 529q-46 1 -54 4q-18 5 -31 25
l6 39q7 22 33 38q1 1 11 7q43 21 121 -5q11 -4 29 -10z" />
    <glyph glyph-name="Lslash" unicode="&#x141;" horiz-adv-x="708" 
d="M327 501q28 42 49 65q-1 6 -18 8q-10 1 -11 6q-3 8 3 15q3 3 6 5l65 2q5 -1 41 -14q6 -8 2 -19q-2 -6 -7 -9q-3 -4 -18 0h-11q-44 -47 -80 -100q-10 -14 -20 -27v-311q0 -34 1 -74q100 0 117 2q40 6 112 38q1 23 -9 79q-6 31 0 61q5 24 44 20q48 -5 58 -3
q20 -100 18 -140q0 -26 -9 -105l-56 13q-2 1 -4 1l-264 -16q-106 -2 -295 16q-17 18 -15 28q1 6 23 43q26 1 72 -12q35 -10 71 1v125q-1 -1 -2 -3l-90 -3q-13 1 -30 3l-21 20q-3 4 -3 10q1 14 24 23q6 3 26 -3q12 -4 17 3l86 103q4 96 2 197q-1 13 -1 28q-16 42 -59 67
q-14 8 -36 19q-11 34 -2 53q4 9 11 15l151 8q98 -6 153 -8q34 -27 26 -65q-3 -10 -9 -20q-9 -14 -39 -12h-25q-7 -2 -13 -5q-25 -18 -32 -43q1 -46 1 -85zM194 258l-8 -16q-1 -3 1 -5q2 -4 6 -4q1 12 1 25z" />
    <glyph glyph-name="lslash" unicode="&#x142;" horiz-adv-x="281" 
d="M100 393v225q-46 1 -54 4q-18 5 -31 25l6 39q7 22 33 38q1 1 11 7q43 21 121 -5q11 -4 29 -10v-160l34 1q3 -1 26 -9q5 -5 2 -13q-2 -3 -5 -6q-2 -2 -13 1q-4 0 -6 -1q-25 -26 -38 -43v-397l31 -17l14 -15l5 -8q8 -10 1 -35q-1 -3 -1 -5l-226 -5q-14 19 -6 57
q18 17 57 25q7 2 11 3v203q-7 -5 -9 -8l-65 -2l-16 2l-15 13q-1 3 -1 7q0 9 16 15q3 2 18 -2q7 -2 11 2zM101 309v25l-6 -8l-6 -12q0 -1 1 -3q1 -3 11 -2zM215 537v-6l2 3q0 2 -2 3z" />
    <glyph glyph-name="Nacute" unicode="&#x143;" horiz-adv-x="793" 
d="M541 991q-53 27 -75 25q-16 -1 -31 -10q-32 -47 -51 -109l-14 -45q-16 -44 -29 -94q-4 -13 48 -15q48 -1 55 10q3 4 35 106q37 118 62 132zM649 688l-18 -438q-122 166 -222 286q-113 135 -159 190q-84 23 -130 19q-26 -2 -60 -11q-48 -23 -40 -51q8 -24 59 -20
q44 3 55 -6l-4 -426q1 -56 4 -129q-6 -8 -44 -3q-48 5 -62 -14q-8 -12 2 -37q6 -14 7 -22q68 -2 148 5q26 2 57 3l12 44q1 8 -4 16t-22 5q-19 -3 -29 15q-1 69 10 201q8 109 -7 268q122 -162 232 -286q87 -99 175 -209q23 -31 42 -34h9q19 2 39 36q3 5 4 7q7 123 2 305
q-4 127 3 278q65 4 61 -1q-2 -3 -4 1q-1 2 3 6q20 20 21 44q0 15 -12 16l-116 10q32 1 -109 -8q5 -9 -3 -34l-3 -15l4 -9l2 -2q14 -14 26 -11q43 10 71 11z" />
    <glyph glyph-name="nacute" unicode="&#x144;" horiz-adv-x="470" 
d="M355 765q-53 27 -75 25q-16 -1 -31 -10q-32 -47 -51 -109l-14 -45q-16 -44 -29 -94q-4 -13 48 -15q48 -1 55 10q3 4 35 106q37 118 62 132zM383 448q-8 11 -33 20l-12 4l-39 19q-10 4 -21 4q-9 0 -35 -10q-4 -2 -8 -3l-51 -23q-12 -4 -25 0q-7 2 -14 17q-3 8 -8 11
q-18 14 -28 16l-12 1q-42 -42 -86 -81q-5 -5 -11 -10q2 -11 24 -15q21 -3 27 -13l1 -266q-5 -10 -30 -24q-18 -10 -22 -23q-6 -17 2 -34q3 -5 7 -11q9 -12 29 -18h127q24 6 29 22q-1 -1 3 11q7 21 -3 42q-3 7 -8 15q-3 4 -20 12l-8 7l-1 1v211q10 23 40 40q31 17 57 15
q23 -3 38 -19q9 -11 12 -34q-1 -147 0 -213q-5 -10 -29 -20l-17 -8q-5 -5 -8 -11q-8 -19 6 -52q6 -16 17 -21q122 -1 154 0q18 9 22 27q8 27 2 46q-3 13 -13 24q-5 6 -25 7l-11 4q-3 1 -4 4v192q-1 18 -2 38q9 21 3 55q-4 26 -16 44z" />
    <glyph glyph-name="Ncommaaccent" unicode="&#x145;" horiz-adv-x="793" 
d="M121 -339q-28 -1 -44 5q-19 7 -22 25q-4 23 28 40q37 19 45 28q5 6 8 13q9 22 5 40q-1 7 -5 14q-7 15 -39 25q-29 10 -33 29q-6 54 3 81t33 45q30 22 74 8q10 -3 22 -8q34 -15 51 -54t10 -85q-1 -9 -4 -23q-15 -79 -50 -124q-7 -10 -16 -20q-31 -34 -58 -38zM649 688
l-18 -438q-122 166 -222 286q-113 135 -159 190q-84 23 -130 19q-26 -2 -60 -11q-48 -23 -40 -51q8 -24 59 -20q44 3 55 -6l-4 -426q1 -56 4 -129q-6 -8 -44 -3q-48 5 -62 -14q-8 -12 2 -37q6 -14 7 -22q68 -2 148 5q26 2 57 3l12 44q1 8 -4 16t-22 5q-19 -3 -29 15
q-1 69 10 201q8 109 -7 268q122 -162 232 -286q87 -99 175 -209q23 -31 42 -34h9q19 2 39 36q3 5 4 7q7 123 2 305q-4 127 3 278q65 4 61 -1q-2 -3 -4 1q-1 2 3 6q20 20 21 44q0 15 -12 16l-116 10q32 1 -109 -8q5 -9 -3 -34l-3 -15l4 -9l2 -2q14 -14 26 -11q43 10 71 11z
" />
    <glyph glyph-name="ncommaaccent" unicode="&#x146;" horiz-adv-x="470" 
d="M75 -341q-28 -1 -44 5q-19 7 -22 25q-4 23 28 40q37 19 45 28q5 6 8 13q9 22 5 40q-1 7 -5 14q-7 15 -39 25q-29 10 -33 29q-6 54 3 81t33 45q30 22 74 8q10 -3 22 -8q34 -15 51 -54t10 -85q-1 -9 -4 -23q-15 -79 -50 -124q-7 -10 -16 -20q-31 -34 -58 -38zM383 448
q-8 11 -33 20l-12 4l-39 19q-10 4 -21 4q-9 0 -35 -10q-4 -2 -8 -3l-51 -23q-12 -4 -25 0q-7 2 -14 17q-3 8 -8 11q-18 14 -28 16l-12 1q-42 -42 -86 -81q-5 -5 -11 -10q2 -11 24 -15q21 -3 27 -13l1 -266q-5 -10 -30 -24q-18 -10 -22 -23q-6 -17 2 -34q3 -5 7 -11
q9 -12 29 -18h127q24 6 29 22q-1 -1 3 11q7 21 -3 42q-3 7 -8 15q-3 4 -20 12l-8 7l-1 1v211q10 23 40 40q31 17 57 15q23 -3 38 -19q9 -11 12 -34q-1 -147 0 -213q-5 -10 -29 -20l-17 -8q-5 -5 -8 -11q-8 -19 6 -52q6 -16 17 -21q122 -1 154 0q18 9 22 27q8 27 2 46
q-3 13 -13 24q-5 6 -25 7l-11 4q-3 1 -4 4v192q-1 18 -2 38q9 21 3 55q-4 26 -16 44z" />
    <glyph glyph-name="Ncaron" unicode="&#x147;" horiz-adv-x="793" 
d="M381 1010q10 -62 28 -113q27 14 46 82q10 32 15 39q8 13 62 10q44 -3 41 -15q-14 -50 -29 -94l-31 -93q-12 -29 -34 -61q-33 -19 -80 2l-26 13q-76 147 -106 227q-4 10 51 14q61 3 63 -11zM649 688l-18 -438q-122 166 -222 286q-113 135 -159 190q-84 23 -130 19
q-26 -2 -60 -11q-48 -23 -40 -51q8 -24 59 -20q44 3 55 -6l-4 -426q1 -56 4 -129q-6 -8 -44 -3q-48 5 -62 -14q-8 -12 2 -37q6 -14 7 -22q68 -2 148 5q26 2 57 3l12 44q1 8 -4 16t-22 5q-19 -3 -29 15q-1 69 10 201q8 109 -7 268q122 -162 232 -286q87 -99 175 -209
q23 -31 42 -34h9q19 2 39 36q3 5 4 7q7 123 2 305q-4 127 3 278q65 4 61 -1q-2 -3 -4 1q-1 2 3 6q20 20 21 44q0 15 -12 16l-116 10q32 1 -109 -8q5 -9 -3 -34l-3 -15l4 -9l2 -2q14 -14 26 -11q43 10 71 11z" />
    <glyph glyph-name="ncaron" unicode="&#x148;" horiz-adv-x="470" 
d="M174 778q10 -62 28 -113q27 14 46 82q10 32 15 39q8 13 62 10q44 -3 41 -15q-14 -50 -29 -94l-31 -93q-12 -29 -34 -61q-33 -19 -80 2l-26 13q-76 147 -106 227q-4 10 51 14q61 3 63 -11zM383 448q-8 11 -33 20l-12 4l-39 19q-10 4 -21 4q-9 0 -35 -10q-4 -2 -8 -3
l-51 -23q-12 -4 -25 0q-7 2 -14 17q-3 8 -8 11q-18 14 -28 16l-12 1q-42 -42 -86 -81q-5 -5 -11 -10q2 -11 24 -15q21 -3 27 -13l1 -266q-5 -10 -30 -24q-18 -10 -22 -23q-6 -17 2 -34q3 -5 7 -11q9 -12 29 -18h127q24 6 29 22q-1 -1 3 11q7 21 -3 42q-3 7 -8 15
q-3 4 -20 12l-8 7l-1 1v211q10 23 40 40q31 17 57 15q23 -3 38 -19q9 -11 12 -34q-1 -147 0 -213q-5 -10 -29 -20l-17 -8q-5 -5 -8 -11q-8 -19 6 -52q6 -16 17 -21q122 -1 154 0q18 9 22 27q8 27 2 46q-3 13 -13 24q-5 6 -25 7l-11 4q-3 1 -4 4v192q-1 18 -2 38q9 21 3 55
q-4 26 -16 44z" />
    <glyph glyph-name="napostrophe" unicode="&#x149;" horiz-adv-x="470" 
d="M68 600q-8 5 -34 12q-9 2 -16 10q-12 15 -10 36q1 4 2 10q8 38 30 45q26 9 51 -11q7 -6 15 -14q25 -28 24 -72v-7q-3 -38 -27 -61l-22 -22q-13 -9 -61 -10q-4 4 12 16q38 29 36 68zM383 448q-8 11 -33 20l-12 4l-39 19q-10 4 -21 4q-9 0 -35 -10q-4 -2 -8 -3l-51 -23
q-12 -4 -25 0q-7 2 -14 17q-3 8 -8 11q-18 14 -28 16l-12 1q-42 -42 -86 -81q-5 -5 -11 -10q2 -11 24 -15q21 -3 27 -13l1 -266q-5 -10 -30 -24q-18 -10 -22 -23q-6 -17 2 -34q3 -5 7 -11q9 -12 29 -18h127q24 6 29 22q-1 -1 3 11q7 21 -3 42q-3 7 -8 15q-3 4 -20 12l-8 7
l-1 1v211q10 23 40 40q31 17 57 15q23 -3 38 -19q9 -11 12 -34q-1 -147 0 -213q-5 -10 -29 -20l-17 -8q-5 -5 -8 -11q-8 -19 6 -52q6 -16 17 -21q122 -1 154 0q18 9 22 27q8 27 2 46q-3 13 -13 24q-5 6 -25 7l-11 4q-3 1 -4 4v192q-1 18 -2 38q9 21 3 55q-4 26 -16 44z" />
    <glyph glyph-name="Eng" unicode="&#x14a;" horiz-adv-x="793" 
d="M649 688l-18 -438q-122 166 -222 286q-113 135 -159 190q-84 23 -130 19q-26 -2 -60 -11q-47 -23 -40 -51q9 -24 59 -20q44 3 55 -6l-4 -426q1 -56 4 -129q-6 -8 -45 -3q-47 5 -61 -14q-9 -12 2 -37q6 -14 7 -22q68 -2 148 5q26 2 57 3l12 43q1 9 -4 17t-22 5
q-19 -3 -29 15q-1 69 10 201q8 109 -7 268q122 -162 232 -286q87 -99 175 -209q14 -19 28 -81q1 -3 2 -7q8 -37 -69 -69l-160 -57l-26 -12q-23 -13 -23 -34q1 -28 54 -21q4 0 8 1q135 25 187 55q26 16 38 35q65 63 55 184q-1 13 0 15q7 123 2 305q-4 127 3 278q65 4 61 -1
q-2 -3 -4 1q-1 2 3 6q20 19 21 44q1 15 -12 16l-116 10q32 1 -109 -8q5 -9 -3 -34l-3 -15l4 -9l2 -2h97z" />
    <glyph glyph-name="eng" unicode="&#x14b;" horiz-adv-x="443" 
d="M408 0q0 -87 -63 -147q-37 -56 -216 -88q-6 -1 -9 -2q-59 -11 -62 18q-2 20 23 36q24 13 132 49q105 35 120 66q6 11 3 23q-5 25 -14 51q-21 1 -49 1q-10 5 -17 21q-14 33 -6 52q5 12 30 22q19 6 24 17q-1 66 0 213q-3 24 -12 34q-15 17 -38 19t-44 -8l-13 -7
q-30 -17 -40 -40v-211q3 -5 18 -11q8 -4 11 -9q17 -27 13 -50q-1 -4 -2 -7q-6 -21 -14 -26q-6 -4 -18 -7h-127q-21 6 -29 18q-14 21 -11 39l2 6q5 14 28 27q18 9 24 20l-1 266q-6 9 -31 14q-18 3 -20 14q59 53 69 63l28 28q20 -1 35 -13q3 -3 5 -4q3 -2 12 -19q4 -7 10 -9
q19 -6 49 11q17 9 27 12l34 12q4 1 9 1q17 -1 48 -17q7 -4 12 -6l34 -13q6 -4 11 -11q22 -32 18 -78l-5 -21q5 -104 12 -349z" />
    <glyph glyph-name="Omacron" unicode="&#x14c;" 
d="M290 843q-14 20 -6 43q4 11 12 20q21 24 68 24q36 1 49 3l57 10q12 1 24 -1q42 -6 55 -15l11 -12q22 -30 13 -57q-2 -8 -7 -15q-22 -32 -77 -35q55 3 -40 -1q-79 -3 -83 -3q-50 4 -76 39zM205 376q-5 -90 3 -126q7 -28 22 -56q36 -63 92 -88q13 -6 28 -11q59 -20 102 -10
q24 5 49 18q58 32 91 101q8 18 22 53q38 95 31 173q-1 19 -5 40q-14 85 -51 128q-11 13 -26 26q-67 57 -130 54q-11 -1 -23 -3q-78 -14 -132 -83l-33 -48q-33 -52 -38 -127q-1 -11 -2 -41zM697 610q63 -89 54 -206q-3 -40 -16 -107q-13 -66 -67 -142q-37 -52 -42 -60
q-71 -108 -216 -104q-73 2 -145 33q-106 60 -145 98q-61 58 -73 138q-19 128 1 204q16 62 60 120q98 129 236 153q40 6 86 6q154 0 242 -101q13 -15 25 -32zM205 376q-5 -90 3 -126q7 -28 22 -56q36 -63 92 -88q13 -6 28 -11q59 -20 102 -10q24 5 49 18q58 32 91 101
q8 18 22 53q38 95 31 173q-1 19 -5 40q-14 85 -51 128q-11 13 -26 26q-67 57 -130 54q-11 -1 -23 -3q-78 -14 -132 -83l-33 -48q-33 -52 -38 -127q-1 -11 -2 -41zM697 610q63 -89 54 -206q-3 -40 -16 -107q-13 -66 -67 -142q-37 -52 -42 -60q-71 -108 -216 -104
q-73 2 -145 33q-106 60 -145 98q-61 58 -73 138q-19 128 1 204q16 62 60 120q98 129 236 153q40 6 86 6q154 0 242 -101q13 -15 25 -32z" />
    <glyph glyph-name="omacron" unicode="&#x14d;" horiz-adv-x="432" 
d="M97 578q-14 20 -6 43q4 11 12 20q21 24 68 24q36 1 49 3l57 10q12 1 24 -1q42 -6 55 -15l11 -12q22 -30 13 -57q-2 -8 -7 -15q-22 -32 -77 -35q55 3 -40 -1q-79 -3 -83 -3q-50 4 -76 39zM171 394q32 21 66 16q6 0 13 -2q25 -5 49 -34q30 -39 39 -96q8 -56 -1 -97
q-4 -22 -14 -48q-13 -39 -30 -51q-4 -3 -9 -6q-19 -12 -55 -7q-5 1 -7 1q-42 6 -56 17q-3 3 -7 6q-35 32 -44 88q0 4 -1 9q-9 58 5 109q5 17 14 40q14 38 35 53q1 1 3 2zM226 5q50 0 60 2l8 2q41 14 63 37q30 31 48 86q1 4 3 10q13 45 12 96q0 9 -1 24q-3 66 -17 100l-4 8
q-14 31 -53 70q-33 33 -70 36q-7 1 -27 2q-58 2 -97 -16q-22 -10 -46 -28q-48 -37 -69 -100q-4 -13 -9 -31q-17 -57 -12 -105q3 -22 9 -48q12 -51 58 -97l6 -6q31 -28 73 -39q17 -5 65 -3z" />
    <glyph glyph-name="Obreve" unicode="&#x14e;" 
d="M571 956q-21 -6 -37 -36q-18 -34 -36 -44q-22 -11 -55 -7l-7 1q-42 5 -59 20q-2 1 -4 3q-14 13 -19 53q-5 35 -26 44q-44 17 -74 3q-24 -11 -16 -43q12 -53 60 -99l4 -4q29 -27 73 -39q15 -4 59 -3h6h50q9 1 18 4q39 12 63 37l39 40q24 29 12 56q-8 20 -37 17
q-7 -1 -14 -3zM205 376q-5 -90 3 -126q7 -28 22 -56q36 -63 92 -88q13 -6 28 -11q59 -20 102 -10q24 5 49 18q58 32 91 101q8 18 22 53q38 95 31 173q-1 19 -5 40q-14 85 -51 128q-11 13 -26 26q-67 57 -130 54q-11 -1 -23 -3q-78 -14 -132 -83l-33 -48q-33 -52 -38 -127
q-1 -11 -2 -41zM697 610q63 -89 54 -206q-3 -40 -16 -107q-13 -66 -67 -142q-37 -52 -42 -60q-71 -108 -216 -104q-73 2 -145 33q-106 60 -145 98q-61 58 -73 138q-19 128 1 204q16 62 60 120q98 129 236 153q40 6 86 6q154 0 242 -101q13 -15 25 -32zM205 376
q-5 -90 3 -126q7 -28 22 -56q36 -63 92 -88q13 -6 28 -11q59 -20 102 -10q24 5 49 18q58 32 91 101q8 18 22 53q38 95 31 173q-1 19 -5 40q-14 85 -51 128q-11 13 -26 26q-67 57 -130 54q-11 -1 -23 -3q-78 -14 -132 -83l-33 -48q-33 -52 -38 -127q-1 -11 -2 -41zM697 610
q63 -89 54 -206q-3 -40 -16 -107q-13 -66 -67 -142q-37 -52 -42 -60q-71 -108 -216 -104q-73 2 -145 33q-106 60 -145 98q-61 58 -73 138q-19 128 1 204q16 62 60 120q98 129 236 153q40 6 86 6q154 0 242 -101q13 -15 25 -32z" />
    <glyph glyph-name="obreve" unicode="&#x14f;" horiz-adv-x="432" 
d="M348 661q-21 -6 -37 -36q-18 -34 -36 -44q-22 -11 -55 -7l-7 1q-42 5 -59 20q-2 1 -4 3q-14 13 -19 53q-5 35 -26 44q-44 17 -74 3q-24 -11 -16 -43q12 -53 60 -99l4 -4q29 -27 73 -39q15 -4 59 -3h6h50q9 1 18 4q39 12 63 37l39 40q24 29 12 56q-8 20 -37 17
q-7 -1 -14 -3zM171 394q32 21 66 16q6 0 13 -2q25 -5 49 -34q30 -39 39 -96q8 -56 -1 -97q-4 -22 -14 -48q-13 -39 -30 -51q-4 -3 -9 -6q-19 -12 -55 -7q-5 1 -7 1q-42 6 -56 17q-3 3 -7 6q-35 32 -44 88q0 4 -1 9q-9 58 5 109q5 17 14 40q14 38 35 53q1 1 3 2zM226 5
q50 0 60 2l8 2q41 14 63 37q30 31 48 86q1 4 3 10q13 45 12 96q0 9 -1 24q-3 66 -17 100l-4 8q-14 31 -53 70q-33 33 -70 36q-7 1 -27 2q-58 2 -97 -16q-22 -10 -46 -28q-48 -37 -69 -100q-4 -13 -9 -31q-17 -57 -12 -105q3 -22 9 -48q12 -51 58 -97l6 -6q31 -28 73 -39
q17 -5 65 -3z" />
    <glyph glyph-name="Ohungarumlaut" unicode="&#x150;" 
d="M625 1052q-53 27 -75 25q-16 -1 -31 -10q-32 -47 -51 -109l-14 -45q-16 -44 -29 -94q-4 -13 48 -15q48 -1 55 10q3 4 35 106q37 118 62 132zM425 1052q-53 27 -75 25q-16 -1 -31 -10q-32 -47 -51 -109l-14 -45q-16 -44 -29 -94q-4 -13 48 -15q48 -1 55 10q3 4 35 106
q37 118 62 132zM205 376q-5 -90 3 -126q7 -28 22 -56q36 -63 92 -88q13 -6 28 -11q59 -20 102 -10q24 5 49 18q58 32 91 101q8 18 22 53q38 95 31 173q-1 19 -5 40q-14 85 -51 128q-11 13 -26 26q-67 57 -130 54q-11 -1 -23 -3q-78 -14 -132 -83l-33 -48q-33 -52 -38 -127
q-1 -11 -2 -41zM697 610q63 -89 54 -206q-3 -40 -16 -107q-13 -66 -67 -142q-37 -52 -42 -60q-71 -108 -216 -104q-73 2 -145 33q-106 60 -145 98q-61 58 -73 138q-19 128 1 204q16 62 60 120q98 129 236 153q40 6 86 6q154 0 242 -101q13 -15 25 -32zM205 376
q-5 -90 3 -126q7 -28 22 -56q36 -63 92 -88q13 -6 28 -11q59 -20 102 -10q24 5 49 18q58 32 91 101q8 18 22 53q38 95 31 173q-1 19 -5 40q-14 85 -51 128q-11 13 -26 26q-67 57 -130 54q-11 -1 -23 -3q-78 -14 -132 -83l-33 -48q-33 -52 -38 -127q-1 -11 -2 -41zM697 610
q63 -89 54 -206q-3 -40 -16 -107q-13 -66 -67 -142q-37 -52 -42 -60q-71 -108 -216 -104q-73 2 -145 33q-106 60 -145 98q-61 58 -73 138q-19 128 1 204q16 62 60 120q98 129 236 153q40 6 86 6q154 0 242 -101q13 -15 25 -32z" />
    <glyph glyph-name="ohungarumlaut" unicode="&#x151;" horiz-adv-x="432" 
d="M427 730q-53 27 -75 25q-16 -1 -31 -10q-32 -47 -51 -109l-14 -45q-16 -44 -29 -94q-4 -13 48 -15q48 -1 55 10q3 4 35 106q37 118 62 132zM227 730q-53 27 -75 25q-16 -1 -31 -10q-32 -47 -51 -109l-14 -45q-16 -44 -29 -94q-4 -13 48 -15q48 -1 55 10q3 4 35 106
q37 118 62 132zM171 394q32 21 66 16q6 0 13 -2q25 -5 49 -34q30 -39 39 -96q8 -56 -1 -97q-4 -22 -14 -48q-13 -39 -30 -51q-4 -3 -9 -6q-19 -12 -55 -7q-5 1 -7 1q-42 6 -56 17q-3 3 -7 6q-35 32 -44 88q0 4 -1 9q-9 58 5 109q5 17 14 40q14 38 35 53q1 1 3 2zM226 5
q50 0 60 2l8 2q41 14 63 37q30 31 48 86q1 4 3 10q13 45 12 96q0 9 -1 24q-3 66 -17 100l-4 8q-14 31 -53 70q-33 33 -70 36q-7 1 -27 2q-58 2 -97 -16q-22 -10 -46 -28q-48 -37 -69 -100q-4 -13 -9 -31q-17 -57 -12 -105q3 -22 9 -48q12 -51 58 -97l6 -6q31 -28 73 -39
q17 -5 65 -3z" />
    <glyph glyph-name="OE" unicode="&#x152;" horiz-adv-x="945" 
d="M444 741q76 -1 292 3q41 1 129 -15l7 -1q4 -97 7 -106q-2 4 12 -33q2 -6 20 -25q9 -9 6 -16q-54 -18 -88 -15l-65 5q-6 7 4 16q18 14 13 38q-8 32 -13 36q-8 5 -16 16q-58 10 -110 5q-23 -2 -52 -7l-34 -2l-9 -6l-1 -183q0 -23 1 -56q70 -13 80 -14q20 0 48 6
q19 13 17 53q-1 41 12 53q2 3 6 5q19 12 40 5q11 -4 19 -14q0 -53 4 -290q-42 -19 -58 -6q-6 4 -14 15q-6 31 8 54q7 10 1 22q-8 15 -37 23l-11 3q-50 15 -75 11l-10 -2q-26 -6 -35 -21q-1 -2 -3 -5q-17 -83 -17 -167v-29q8 -18 34 -28q77 -17 189 -11q45 2 58 3
q28 15 39 43q19 48 36 72q5 8 11 15q24 -27 25 -55v-19q2 -64 -7 -85q-7 -19 -24 -32h-448q-35 -16 -98 -1q-34 9 -72 25q-106 60 -145 98q-61 58 -73 138q-19 128 1 204q16 62 60 120q113 148 260 160q30 2 62 -1zM403 89q21 218 22 350q1 85 -3 203q0 7 -4 37l-8 -4
q-84 -47 -107 -65q-33 -27 -58 -66q-33 -52 -38 -128l-2 -40q-4 -89 1 -119q7 -32 24 -63q27 -49 84 -80q12 -7 36 -19q15 -7 41 -7q5 0 12 1z" />
    <glyph glyph-name="oe" unicode="&#x153;" horiz-adv-x="568" 
d="M317 337q7 -9 80 -3q41 3 41 9l3 40q-1 15 -13 23q-23 17 -57 0l-17 -10q-33 -22 -39 -45q-2 -9 2 -14zM301 4l-63 1h-52q-6 1 -13 3q-44 12 -73 39q-49 46 -62 97l-2 6q-13 57 -7 102q2 23 10 51q22 75 54 109q11 11 24 22q48 37 118 43q11 0 25 1l62 -2l89 1
q12 -1 24 -3q49 -10 60 -16q13 -8 22 -22q2 -3 3 -7q27 -54 19 -91q-3 -13 -10 -31q-9 -26 -28 -28q-107 -11 -185 -11q-14 0 -16 1q-3 -24 -1 -48q1 -15 3 -31q10 -55 31 -79l10 -10q17 -14 54 -17q5 -1 8 -1q40 -4 48 -1q8 2 15 7q12 8 19 34q1 6 2 10q8 23 32 15
q21 -8 20 -27q-3 -51 -8 -60q-1 -2 -9 -15q-15 -26 -42 -37q-16 -7 -53 -4h-15q-18 0 -65 3q-2 0 -39 -4h-9zM260 406l2 2q-30 4 -50 -1q-14 -4 -29 -13q-22 -14 -36 -50q0 -2 -2 -5q-27 -73 -21 -133l2 -16q10 -59 38 -90q4 -3 7 -7q20 -18 55 -23l16 1l9 88q0 8 -2 15
q-12 52 -1 128l4 25z" />
    <glyph glyph-name="Racute" unicode="&#x154;" horiz-adv-x="759" 
d="M405 1060q-53 27 -75 25q-16 -1 -31 -10q-32 -47 -51 -109l-14 -45q-16 -44 -29 -94q-4 -13 48 -15q48 -1 55 10q3 4 35 106q37 118 62 132zM278 412zM290 668q-10 -113 -6 -177q2 -27 6 -66q28 -24 74 -5l35 16q41 17 54 42q2 2 3 5q22 46 14 87q-4 19 -14 40
q-18 37 -64 55q-5 1 -10 3q-37 13 -62 8q-11 -2 -30 -8zM469 372q-5 -2 48 -58q142 -149 225 -274q-48 -35 -97 -27q-25 3 -65 18q-30 37 -147 203q-76 108 -92 108q-66 0 -76 -1q1 -67 8 -222q9 -3 54 -8q35 -3 47 -26q11 -21 1 -39q-6 -10 -19 -20l-134 -12
q-69 -3 -158 12q-24 28 -3 55q7 11 20 21q22 8 40 -6q11 -9 23 3l3 3l3 180q8 139 4 389l-15 -5q-27 -3 -78 8q-18 20 -7 46q5 13 15 22l227 9h12q121 0 182 -26q42 -18 79 -51q35 -32 42 -90q0 -5 1 -12q3 -41 -8 -70q-6 -16 -18 -33q-44 -63 -113 -95z" />
    <glyph glyph-name="racute" unicode="&#x155;" horiz-adv-x="367" 
d="M276 753q-53 27 -75 25q-16 -1 -31 -10q-32 -47 -51 -109l-14 -45q-16 -44 -29 -94q-4 -13 48 -15q48 -1 55 10q3 4 35 106q37 118 62 132zM49 0q-10 4 -17 23q-4 10 -2 18q1 2 2 5q5 11 26 21q15 7 20 18q1 26 1 170q0 35 1 73q-6 13 -33 27q-24 13 -24 30q34 55 41 62
q13 13 38 23q19 7 37 1q7 -2 15 -6q18 -17 25 -19q7 -1 20 -8q6 3 33 26q20 17 45 16q50 -4 68 -74q6 -22 -2 -41q-3 -7 -9 -16q-22 -32 -46 -29q-13 3 -20 27q-8 22 -20 25q-33 -22 -61 -44l-1 -218q3 -8 16 -15q9 -5 12 -13q8 -19 5 -33q-3 -11 -10 -19q-11 -3 -118 -22
q-24 -4 -42 -8z" />
    </font>
</defs>
</svg>
